  0
SECTION
  2
HEADER
  9
$ANGBASE
  50
0.0
  9
$ANGDIR
  70
1
  9
$MEASUREMENT
  70
1
  0
ENDSEC
  0
SECTION
  2
TABLES
  0
TABLE
  2
LTYPE
  70
4
  0
LTYPE
  5
40F
  2
CONTINUOUS
  70
0
  3
Solid line
  72
65
  73
0
  40
0.0
  0
LTYPE
  5
410
  2
DASHDOT
 70
0
  3
Dash Dot ____ _ ____ _
 72
65
 73
4
 40
2.0
 49
1.25
 49
-0.25
 49
0.25
 49
-0.25
  0
LTYPE
  5
411
  2
DASHED
 70
0
  3
Dashed __ __ __ __ __
 72
65
 73
2
 40
0.75
 49
0.5
 49
-0.25
  0
LTYPE
  5
43B
  2
DOTTED
 70
0
  3
Dotted .  .  .  .
 72
65
 73
2
 40
0.2
 49
0.0
 49
-0.2
  0
ENDTAB
  0
TABLE
  2
STYLE
  70
4
  0
STYLE
  2
KICAD
  70
0
  40
0
  41
1
  42
1
  50
0
  71
0
  3
isocp.shx
  0
STYLE
  2
KICADB
  70
0
  40
0
  41
1
  42
1
  50
0
  71
0
  3
isocp.shx
  0
STYLE
  2
KICADI
  70
0
  40
0
  41
1
  42
1
  50
15
  71
0
  3
isocp.shx
  0
STYLE
  2
KICADBI
  70
0
  40
0
  41
1
  42
1
  50
15
  71
0
  3
isocp.shx
  0
ENDTAB
  0
TABLE
  2
LAYER
  70
1
  0
LAYER
  2
BLACK
  70
0
  62
7
  6
CONTINUOUS
  0
ENDTAB
  0
ENDSEC
  0
SECTION
  2
ENTITIES
0
LINE
8
BLACK
6
CONTINUOUS
10
51.7279
20
-143.112
11
51.4534
21
-143.061
0
LINE
8
BLACK
6
CONTINUOUS
10
51.4534
20
-143.061
11
51.187
21
-142.978
0
LINE
8
BLACK
6
CONTINUOUS
10
51.187
20
-142.978
11
50.9325
21
-142.864
0
LINE
8
BLACK
6
CONTINUOUS
10
50.9325
20
-142.864
11
50.6937
21
-142.72
0
LINE
8
BLACK
6
CONTINUOUS
10
50.6937
20
-142.72
11
50.474
21
-142.547
0
LINE
8
BLACK
6
CONTINUOUS
10
50.474
20
-142.547
11
50.2767
21
-142.35
0
LINE
8
BLACK
6
CONTINUOUS
10
50.2767
20
-142.35
11
50.1046
21
-142.13
0
LINE
8
BLACK
6
CONTINUOUS
10
50.1046
20
-142.13
11
49.9602
21
-141.892
0
LINE
8
BLACK
6
CONTINUOUS
10
49.9602
20
-141.892
11
49.8457
21
-141.637
0
LINE
8
BLACK
6
CONTINUOUS
10
49.8457
20
-141.637
11
49.7627
21
-141.371
0
LINE
8
BLACK
6
CONTINUOUS
10
49.7627
20
-141.371
11
49.7124
21
-141.096
0
LINE
8
BLACK
6
CONTINUOUS
10
49.7124
20
-141.096
11
49.6955
21
-140.818
0
LINE
8
BLACK
6
CONTINUOUS
10
49.6955
20
-140.818
11
49.6955
21
-63.8556
0
LINE
8
BLACK
6
CONTINUOUS
10
49.6955
20
-63.8556
11
49.7113
21
-63.6352
0
LINE
8
BLACK
6
CONTINUOUS
10
49.7113
20
-63.6352
11
49.7582
21
-63.4192
0
LINE
8
BLACK
6
CONTINUOUS
10
49.7582
20
-63.4192
11
49.8355
21
-63.2121
0
LINE
8
BLACK
6
CONTINUOUS
10
49.8355
20
-63.2121
11
49.9414
21
-63.0181
0
LINE
8
BLACK
6
CONTINUOUS
10
49.9414
20
-63.0181
11
50.0738
21
-62.8412
0
LINE
8
BLACK
6
CONTINUOUS
10
50.0738
20
-62.8412
11
50.2301
21
-62.6849
0
LINE
8
BLACK
6
CONTINUOUS
10
50.2301
20
-62.6849
11
50.407
21
-62.5525
0
LINE
8
BLACK
6
CONTINUOUS
10
50.407
20
-62.5525
11
50.601
21
-62.4466
0
LINE
8
BLACK
6
CONTINUOUS
10
50.601
20
-62.4466
11
50.8081
21
-62.3693
0
LINE
8
BLACK
6
CONTINUOUS
10
50.8081
20
-62.3693
11
51.0241
21
-62.3224
0
LINE
8
BLACK
6
CONTINUOUS
10
51.0241
20
-62.3224
11
51.2445
21
-62.3066
0
LINE
8
BLACK
6
CONTINUOUS
10
51.2445
20
-62.3066
11
125.235
21
-62.3066
0
LINE
8
BLACK
6
CONTINUOUS
10
125.235
20
-62.3066
11
125.241
21
-62.3091
0
LINE
8
BLACK
6
CONTINUOUS
10
125.241
20
-62.3091
11
125.247
21
-62.3066
0
LINE
8
BLACK
6
CONTINUOUS
10
125.247
20
-62.3066
11
135.699
21
-62.5729
0
LINE
8
BLACK
6
CONTINUOUS
10
135.699
20
-62.5729
11
138.777
21
-57.7462
0
LINE
8
BLACK
6
CONTINUOUS
10
138.777
20
-57.7462
11
138.782
21
-57.7427
0
LINE
8
BLACK
6
CONTINUOUS
10
138.782
20
-57.7427
11
138.786
21
-57.7379
0
LINE
8
BLACK
6
CONTINUOUS
10
138.786
20
-57.7379
11
138.79
21
-57.7374
0
LINE
8
BLACK
6
CONTINUOUS
10
138.79
20
-57.7374
11
138.793
21
-57.7352
0
LINE
8
BLACK
6
CONTINUOUS
10
138.793
20
-57.7352
11
138.799
21
-57.7362
0
LINE
8
BLACK
6
CONTINUOUS
10
138.799
20
-57.7362
11
138.805
21
-57.7355
0
LINE
8
BLACK
6
CONTINUOUS
10
138.805
20
-57.7355
11
161.357
21
-63.8687
0
LINE
8
BLACK
6
CONTINUOUS
10
161.357
20
-63.8687
11
171.122
21
-63.8687
0
LINE
8
BLACK
6
CONTINUOUS
10
171.122
20
-63.8687
11
172.759
21
-45.3749
0
LINE
8
BLACK
6
CONTINUOUS
10
172.759
20
-45.3749
11
172.76
21
-45.3729
0
LINE
8
BLACK
6
CONTINUOUS
10
172.76
20
-45.3729
11
172.759
21
-45.3706
0
LINE
8
BLACK
6
CONTINUOUS
10
172.759
20
-45.3706
11
172.764
21
-45.3646
0
LINE
8
BLACK
6
CONTINUOUS
10
172.764
20
-45.3646
11
172.767
21
-45.3579
0
LINE
8
BLACK
6
CONTINUOUS
10
172.767
20
-45.3579
11
172.77
21
-45.3573
0
LINE
8
BLACK
6
CONTINUOUS
10
172.77
20
-45.3573
11
172.771
21
-45.3555
0
LINE
8
BLACK
6
CONTINUOUS
10
172.771
20
-45.3555
11
172.778
21
-45.3545
0
LINE
8
BLACK
6
CONTINUOUS
10
172.778
20
-45.3545
11
172.786
21
-45.3522
0
LINE
8
BLACK
6
CONTINUOUS
10
172.786
20
-45.3522
11
172.788
21
-45.3532
0
LINE
8
BLACK
6
CONTINUOUS
10
172.788
20
-45.3532
11
172.79
21
-45.3529
0
LINE
8
BLACK
6
CONTINUOUS
10
172.79
20
-45.3529
11
243.656
21
-64.2873
0
LINE
8
BLACK
6
CONTINUOUS
10
243.656
20
-64.2873
11
243.656
21
-64.2873
0
LINE
8
BLACK
6
CONTINUOUS
10
243.656
20
-64.2873
11
243.872
21
-64.3604
0
LINE
8
BLACK
6
CONTINUOUS
10
243.872
20
-64.3604
11
244.075
21
-64.4644
0
LINE
8
BLACK
6
CONTINUOUS
10
244.075
20
-64.4644
11
244.26
21
-64.597
0
LINE
8
BLACK
6
CONTINUOUS
10
244.26
20
-64.597
11
244.424
21
-64.7554
0
LINE
8
BLACK
6
CONTINUOUS
10
244.424
20
-64.7554
11
244.563
21
-64.9362
0
LINE
8
BLACK
6
CONTINUOUS
10
244.563
20
-64.9362
11
244.674
21
-65.1354
0
LINE
8
BLACK
6
CONTINUOUS
10
244.674
20
-65.1354
11
244.754
21
-65.3487
0
LINE
8
BLACK
6
CONTINUOUS
10
244.754
20
-65.3487
11
244.802
21
-65.5714
0
LINE
8
BLACK
6
CONTINUOUS
10
244.802
20
-65.5714
11
244.817
21
-65.7986
0
LINE
8
BLACK
6
CONTINUOUS
10
244.817
20
-65.7986
11
244.817
21
-65.7987
0
LINE
8
BLACK
6
CONTINUOUS
10
244.817
20
-65.7987
11
244.817
21
-140.818
0
LINE
8
BLACK
6
CONTINUOUS
10
244.817
20
-140.818
11
244.801
21
-141.096
0
LINE
8
BLACK
6
CONTINUOUS
10
244.801
20
-141.096
11
244.75
21
-141.371
0
LINE
8
BLACK
6
CONTINUOUS
10
244.75
20
-141.371
11
244.667
21
-141.637
0
LINE
8
BLACK
6
CONTINUOUS
10
244.667
20
-141.637
11
244.553
21
-141.892
0
LINE
8
BLACK
6
CONTINUOUS
10
244.553
20
-141.892
11
244.408
21
-142.13
0
LINE
8
BLACK
6
CONTINUOUS
10
244.408
20
-142.13
11
244.236
21
-142.35
0
LINE
8
BLACK
6
CONTINUOUS
10
244.236
20
-142.35
11
244.039
21
-142.547
0
LINE
8
BLACK
6
CONTINUOUS
10
244.039
20
-142.547
11
243.819
21
-142.72
0
LINE
8
BLACK
6
CONTINUOUS
10
243.819
20
-142.72
11
243.58
21
-142.864
0
LINE
8
BLACK
6
CONTINUOUS
10
243.58
20
-142.864
11
243.326
21
-142.978
0
LINE
8
BLACK
6
CONTINUOUS
10
243.326
20
-142.978
11
243.06
21
-143.061
0
LINE
8
BLACK
6
CONTINUOUS
10
243.06
20
-143.061
11
242.785
21
-143.112
0
LINE
8
BLACK
6
CONTINUOUS
10
242.785
20
-143.112
11
242.506
21
-143.129
0
LINE
8
BLACK
6
CONTINUOUS
10
242.506
20
-143.129
11
52.0065
21
-143.129
0
LINE
8
BLACK
6
CONTINUOUS
10
52.0065
20
-143.129
11
51.7279
21
-143.112
0
LINE
8
BLACK
6
CONTINUOUS
10
51.2366
20
-62.3533
11
51.0306
21
-62.3681
0
LINE
8
BLACK
6
CONTINUOUS
10
51.0306
20
-62.3681
11
50.8211
21
-62.4136
0
LINE
8
BLACK
6
CONTINUOUS
10
50.8211
20
-62.4136
11
50.6202
21
-62.4886
0
LINE
8
BLACK
6
CONTINUOUS
10
50.6202
20
-62.4886
11
50.432
21
-62.5913
0
LINE
8
BLACK
6
CONTINUOUS
10
50.432
20
-62.5913
11
50.2604
21
-62.7198
0
LINE
8
BLACK
6
CONTINUOUS
10
50.2604
20
-62.7198
11
50.1087
21
-62.8715
0
LINE
8
BLACK
6
CONTINUOUS
10
50.1087
20
-62.8715
11
49.9802
21
-63.0431
0
LINE
8
BLACK
6
CONTINUOUS
10
49.9802
20
-63.0431
11
49.8775
21
-63.2313
0
LINE
8
BLACK
6
CONTINUOUS
10
49.8775
20
-63.2313
11
49.8025
21
-63.4322
0
LINE
8
BLACK
6
CONTINUOUS
10
49.8025
20
-63.4322
11
49.757
21
-63.6417
0
LINE
8
BLACK
6
CONTINUOUS
10
49.757
20
-63.6417
11
49.7422
21
-63.8477
0
LINE
8
BLACK
6
CONTINUOUS
10
49.7422
20
-63.8477
11
49.7455
21
-63.8556
0
LINE
8
BLACK
6
CONTINUOUS
10
49.7455
20
-63.8556
11
49.7455
21
-140.818
0
LINE
8
BLACK
6
CONTINUOUS
10
49.7455
20
-140.818
11
49.7419
21
-140.826
0
LINE
8
BLACK
6
CONTINUOUS
10
49.7419
20
-140.826
11
49.7579
21
-141.091
0
LINE
8
BLACK
6
CONTINUOUS
10
49.7579
20
-141.091
11
49.8072
21
-141.36
0
LINE
8
BLACK
6
CONTINUOUS
10
49.8072
20
-141.36
11
49.8886
21
-141.621
0
LINE
8
BLACK
6
CONTINUOUS
10
49.8886
20
-141.621
11
50.0008
21
-141.87
0
LINE
8
BLACK
6
CONTINUOUS
10
50.0008
20
-141.87
11
50.1423
21
-142.104
0
LINE
8
BLACK
6
CONTINUOUS
10
50.1423
20
-142.104
11
50.311
21
-142.32
0
LINE
8
BLACK
6
CONTINUOUS
10
50.311
20
-142.32
11
50.5044
21
-142.513
0
LINE
8
BLACK
6
CONTINUOUS
10
50.5044
20
-142.513
11
50.7198
21
-142.682
0
LINE
8
BLACK
6
CONTINUOUS
10
50.7198
20
-142.682
11
50.9538
21
-142.823
0
LINE
8
BLACK
6
CONTINUOUS
10
50.9538
20
-142.823
11
51.2033
21
-142.936
0
LINE
8
BLACK
6
CONTINUOUS
10
51.2033
20
-142.936
11
51.4644
21
-143.017
0
LINE
8
BLACK
6
CONTINUOUS
10
51.4644
20
-143.017
11
51.7335
21
-143.066
0
LINE
8
BLACK
6
CONTINUOUS
10
51.7335
20
-143.066
11
51.9978
21
-143.082
0
LINE
8
BLACK
6
CONTINUOUS
10
51.9978
20
-143.082
11
52.0065
21
-143.079
0
LINE
8
BLACK
6
CONTINUOUS
10
52.0065
20
-143.079
11
242.506
21
-143.079
0
LINE
8
BLACK
6
CONTINUOUS
10
242.506
20
-143.079
11
242.515
21
-143.082
0
LINE
8
BLACK
6
CONTINUOUS
10
242.515
20
-143.082
11
242.78
21
-143.066
0
LINE
8
BLACK
6
CONTINUOUS
10
242.78
20
-143.066
11
243.049
21
-143.017
0
LINE
8
BLACK
6
CONTINUOUS
10
243.049
20
-143.017
11
243.31
21
-142.936
0
LINE
8
BLACK
6
CONTINUOUS
10
243.31
20
-142.936
11
243.559
21
-142.823
0
LINE
8
BLACK
6
CONTINUOUS
10
243.559
20
-142.823
11
243.793
21
-142.682
0
LINE
8
BLACK
6
CONTINUOUS
10
243.793
20
-142.682
11
244.009
21
-142.513
0
LINE
8
BLACK
6
CONTINUOUS
10
244.009
20
-142.513
11
244.202
21
-142.32
0
LINE
8
BLACK
6
CONTINUOUS
10
244.202
20
-142.32
11
244.371
21
-142.104
0
LINE
8
BLACK
6
CONTINUOUS
10
244.371
20
-142.104
11
244.512
21
-141.87
0
LINE
8
BLACK
6
CONTINUOUS
10
244.512
20
-141.87
11
244.624
21
-141.621
0
LINE
8
BLACK
6
CONTINUOUS
10
244.624
20
-141.621
11
244.706
21
-141.36
0
LINE
8
BLACK
6
CONTINUOUS
10
244.706
20
-141.36
11
244.755
21
-141.091
0
LINE
8
BLACK
6
CONTINUOUS
10
244.755
20
-141.091
11
244.771
21
-140.826
0
LINE
8
BLACK
6
CONTINUOUS
10
244.771
20
-140.826
11
244.767
21
-140.818
0
LINE
8
BLACK
6
CONTINUOUS
10
244.767
20
-140.818
11
244.767
21
-65.7987
0
LINE
8
BLACK
6
CONTINUOUS
10
244.767
20
-65.7987
11
244.768
21
-65.7986
0
LINE
8
BLACK
6
CONTINUOUS
10
244.768
20
-65.7986
11
244.767
21
-65.7985
0
LINE
8
BLACK
6
CONTINUOUS
10
244.767
20
-65.7985
11
244.771
21
-65.7903
0
LINE
8
BLACK
6
CONTINUOUS
10
244.771
20
-65.7903
11
244.757
21
-65.5778
0
LINE
8
BLACK
6
CONTINUOUS
10
244.757
20
-65.5778
11
244.71
21
-65.3617
0
LINE
8
BLACK
6
CONTINUOUS
10
244.71
20
-65.3617
11
244.632
21
-65.1547
0
LINE
8
BLACK
6
CONTINUOUS
10
244.632
20
-65.1547
11
244.525
21
-64.9615
0
LINE
8
BLACK
6
CONTINUOUS
10
244.525
20
-64.9615
11
244.39
21
-64.7861
0
LINE
8
BLACK
6
CONTINUOUS
10
244.39
20
-64.7861
11
244.231
21
-64.6324
0
LINE
8
BLACK
6
CONTINUOUS
10
244.231
20
-64.6324
11
244.051
21
-64.5036
0
LINE
8
BLACK
6
CONTINUOUS
10
244.051
20
-64.5036
11
243.854
21
-64.4027
0
LINE
8
BLACK
6
CONTINUOUS
10
243.854
20
-64.4027
11
243.652
21
-64.3344
0
LINE
8
BLACK
6
CONTINUOUS
10
243.652
20
-64.3344
11
243.644
21
-64.3356
0
LINE
8
BLACK
6
CONTINUOUS
10
243.644
20
-64.3356
11
243.644
21
-64.3356
0
LINE
8
BLACK
6
CONTINUOUS
10
243.644
20
-64.3356
11
243.643
21
-64.3356
0
LINE
8
BLACK
6
CONTINUOUS
10
243.643
20
-64.3356
11
172.806
21
-45.4089
0
LINE
8
BLACK
6
CONTINUOUS
10
172.806
20
-45.4089
11
171.17
21
-63.8959
0
LINE
8
BLACK
6
CONTINUOUS
10
171.17
20
-63.8959
11
171.166
21
-63.9035
0
LINE
8
BLACK
6
CONTINUOUS
10
171.166
20
-63.9035
11
171.163
21
-63.9114
0
LINE
8
BLACK
6
CONTINUOUS
10
171.163
20
-63.9114
11
171.162
21
-63.9118
0
LINE
8
BLACK
6
CONTINUOUS
10
171.162
20
-63.9118
11
171.161
21
-63.9129
0
LINE
8
BLACK
6
CONTINUOUS
10
171.161
20
-63.9129
11
171.153
21
-63.9154
0
LINE
8
BLACK
6
CONTINUOUS
10
171.153
20
-63.9154
11
171.145
21
-63.9187
0
LINE
8
BLACK
6
CONTINUOUS
10
171.145
20
-63.9187
11
161.353
21
-63.9187
0
LINE
8
BLACK
6
CONTINUOUS
10
161.353
20
-63.9187
11
161.35
21
-63.9174
0
LINE
8
BLACK
6
CONTINUOUS
10
161.35
20
-63.9174
11
161.347
21
-63.9178
0
LINE
8
BLACK
6
CONTINUOUS
10
161.347
20
-63.9178
11
138.809
21
-57.7886
0
LINE
8
BLACK
6
CONTINUOUS
10
138.809
20
-57.7886
11
135.733
21
-62.6117
0
LINE
8
BLACK
6
CONTINUOUS
10
135.733
20
-62.6117
11
135.731
21
-62.6135
0
LINE
8
BLACK
6
CONTINUOUS
10
135.731
20
-62.6135
11
135.729
21
-62.6164
0
LINE
8
BLACK
6
CONTINUOUS
10
135.729
20
-62.6164
11
135.723
21
-62.6188
0
LINE
8
BLACK
6
CONTINUOUS
10
135.723
20
-62.6188
11
135.718
21
-62.6227
0
LINE
8
BLACK
6
CONTINUOUS
10
135.718
20
-62.6227
11
135.714
21
-62.6222
0
LINE
8
BLACK
6
CONTINUOUS
10
135.714
20
-62.6222
11
135.712
21
-62.6233
0
LINE
8
BLACK
6
CONTINUOUS
10
135.712
20
-62.6233
11
125.246
21
-62.3566
0
LINE
8
BLACK
6
CONTINUOUS
10
125.246
20
-62.3566
11
125.241
21
-62.3541
0
LINE
8
BLACK
6
CONTINUOUS
10
125.241
20
-62.3541
11
125.235
21
-62.3566
0
LINE
8
BLACK
6
CONTINUOUS
10
125.235
20
-62.3566
11
51.2445
21
-62.3566
0
LINE
8
BLACK
6
CONTINUOUS
10
51.2445
20
-62.3566
11
51.2366
21
-62.3533
0
LINE
8
BLACK
6
CONTINUOUS
10
145.85
20
-139.335
11
145.808
21
-139.353
0
LINE
8
BLACK
6
CONTINUOUS
10
145.808
20
-139.353
11
129.808
21
-139.353
0
LINE
8
BLACK
6
CONTINUOUS
10
129.808
20
-139.353
11
129.765
21
-139.335
0
LINE
8
BLACK
6
CONTINUOUS
10
129.765
20
-139.335
11
129.748
21
-139.293
0
LINE
8
BLACK
6
CONTINUOUS
10
129.748
20
-139.293
11
129.748
21
-123.293
0
LINE
8
BLACK
6
CONTINUOUS
10
129.748
20
-123.293
11
129.765
21
-123.25
0
LINE
8
BLACK
6
CONTINUOUS
10
129.765
20
-123.25
11
129.808
21
-123.233
0
LINE
8
BLACK
6
CONTINUOUS
10
129.808
20
-123.233
11
145.808
21
-123.233
0
LINE
8
BLACK
6
CONTINUOUS
10
145.808
20
-123.233
11
145.85
21
-123.25
0
LINE
8
BLACK
6
CONTINUOUS
10
145.85
20
-123.25
11
145.868
21
-123.293
0
LINE
8
BLACK
6
CONTINUOUS
10
145.868
20
-123.293
11
145.868
21
-139.293
0
LINE
8
BLACK
6
CONTINUOUS
10
145.868
20
-139.293
11
145.85
21
-139.335
0
LINE
8
BLACK
6
CONTINUOUS
10
129.868
20
-123.353
11
129.868
21
-139.233
0
LINE
8
BLACK
6
CONTINUOUS
10
129.868
20
-139.233
11
145.748
21
-139.233
0
LINE
8
BLACK
6
CONTINUOUS
10
145.748
20
-139.233
11
145.748
21
-123.353
0
LINE
8
BLACK
6
CONTINUOUS
10
145.748
20
-123.353
11
129.868
21
-123.353
0
LINE
8
BLACK
6
CONTINUOUS
10
203
20
-139.335
11
202.958
21
-139.353
0
LINE
8
BLACK
6
CONTINUOUS
10
202.958
20
-139.353
11
186.958
21
-139.353
0
LINE
8
BLACK
6
CONTINUOUS
10
186.958
20
-139.353
11
186.915
21
-139.335
0
LINE
8
BLACK
6
CONTINUOUS
10
186.915
20
-139.335
11
186.898
21
-139.293
0
LINE
8
BLACK
6
CONTINUOUS
10
186.898
20
-139.293
11
186.898
21
-123.293
0
LINE
8
BLACK
6
CONTINUOUS
10
186.898
20
-123.293
11
186.915
21
-123.25
0
LINE
8
BLACK
6
CONTINUOUS
10
186.915
20
-123.25
11
186.958
21
-123.233
0
LINE
8
BLACK
6
CONTINUOUS
10
186.958
20
-123.233
11
202.958
21
-123.233
0
LINE
8
BLACK
6
CONTINUOUS
10
202.958
20
-123.233
11
203
21
-123.25
0
LINE
8
BLACK
6
CONTINUOUS
10
203
20
-123.25
11
203.018
21
-123.293
0
LINE
8
BLACK
6
CONTINUOUS
10
203.018
20
-123.293
11
203.018
21
-139.293
0
LINE
8
BLACK
6
CONTINUOUS
10
203.018
20
-139.293
11
203
21
-139.335
0
LINE
8
BLACK
6
CONTINUOUS
10
187.018
20
-123.353
11
187.018
21
-139.233
0
LINE
8
BLACK
6
CONTINUOUS
10
187.018
20
-139.233
11
202.898
21
-139.233
0
LINE
8
BLACK
6
CONTINUOUS
10
202.898
20
-139.233
11
202.898
21
-123.353
0
LINE
8
BLACK
6
CONTINUOUS
10
202.898
20
-123.353
11
187.018
21
-123.353
0
LINE
8
BLACK
6
CONTINUOUS
10
241.1
20
-139.335
11
241.058
21
-139.353
0
LINE
8
BLACK
6
CONTINUOUS
10
241.058
20
-139.353
11
225.058
21
-139.353
0
LINE
8
BLACK
6
CONTINUOUS
10
225.058
20
-139.353
11
225.015
21
-139.335
0
LINE
8
BLACK
6
CONTINUOUS
10
225.015
20
-139.335
11
224.998
21
-139.293
0
LINE
8
BLACK
6
CONTINUOUS
10
224.998
20
-139.293
11
224.998
21
-123.293
0
LINE
8
BLACK
6
CONTINUOUS
10
224.998
20
-123.293
11
225.015
21
-123.25
0
LINE
8
BLACK
6
CONTINUOUS
10
225.015
20
-123.25
11
225.058
21
-123.233
0
LINE
8
BLACK
6
CONTINUOUS
10
225.058
20
-123.233
11
241.058
21
-123.233
0
LINE
8
BLACK
6
CONTINUOUS
10
241.058
20
-123.233
11
241.1
21
-123.25
0
LINE
8
BLACK
6
CONTINUOUS
10
241.1
20
-123.25
11
241.118
21
-123.293
0
LINE
8
BLACK
6
CONTINUOUS
10
241.118
20
-123.293
11
241.118
21
-139.293
0
LINE
8
BLACK
6
CONTINUOUS
10
241.118
20
-139.293
11
241.1
21
-139.335
0
LINE
8
BLACK
6
CONTINUOUS
10
225.118
20
-123.353
11
225.118
21
-139.233
0
LINE
8
BLACK
6
CONTINUOUS
10
225.118
20
-139.233
11
240.998
21
-139.233
0
LINE
8
BLACK
6
CONTINUOUS
10
240.998
20
-139.233
11
240.998
21
-123.353
0
LINE
8
BLACK
6
CONTINUOUS
10
240.998
20
-123.353
11
225.118
21
-123.353
0
LINE
8
BLACK
6
CONTINUOUS
10
107.75
20
-139.335
11
107.708
21
-139.353
0
LINE
8
BLACK
6
CONTINUOUS
10
107.708
20
-139.353
11
91.7077
21
-139.353
0
LINE
8
BLACK
6
CONTINUOUS
10
91.7077
20
-139.353
11
91.6653
21
-139.335
0
LINE
8
BLACK
6
CONTINUOUS
10
91.6653
20
-139.335
11
91.6477
21
-139.293
0
LINE
8
BLACK
6
CONTINUOUS
10
91.6477
20
-139.293
11
91.6477
21
-123.293
0
LINE
8
BLACK
6
CONTINUOUS
10
91.6477
20
-123.293
11
91.6653
21
-123.25
0
LINE
8
BLACK
6
CONTINUOUS
10
91.6653
20
-123.25
11
91.7077
21
-123.233
0
LINE
8
BLACK
6
CONTINUOUS
10
91.7077
20
-123.233
11
107.708
21
-123.233
0
LINE
8
BLACK
6
CONTINUOUS
10
107.708
20
-123.233
11
107.75
21
-123.25
0
LINE
8
BLACK
6
CONTINUOUS
10
107.75
20
-123.25
11
107.768
21
-123.293
0
LINE
8
BLACK
6
CONTINUOUS
10
107.768
20
-123.293
11
107.768
21
-139.293
0
LINE
8
BLACK
6
CONTINUOUS
10
107.768
20
-139.293
11
107.75
21
-139.335
0
LINE
8
BLACK
6
CONTINUOUS
10
91.7677
20
-123.353
11
91.7677
21
-139.233
0
LINE
8
BLACK
6
CONTINUOUS
10
91.7677
20
-139.233
11
107.648
21
-139.233
0
LINE
8
BLACK
6
CONTINUOUS
10
107.648
20
-139.233
11
107.648
21
-123.353
0
LINE
8
BLACK
6
CONTINUOUS
10
107.648
20
-123.353
11
91.7677
21
-123.353
0
LINE
8
BLACK
6
CONTINUOUS
10
88.7001
20
-139.335
11
88.6577
21
-139.353
0
LINE
8
BLACK
6
CONTINUOUS
10
88.6577
20
-139.353
11
72.6577
21
-139.353
0
LINE
8
BLACK
6
CONTINUOUS
10
72.6577
20
-139.353
11
72.6153
21
-139.335
0
LINE
8
BLACK
6
CONTINUOUS
10
72.6153
20
-139.335
11
72.5977
21
-139.293
0
LINE
8
BLACK
6
CONTINUOUS
10
72.5977
20
-139.293
11
72.5977
21
-123.293
0
LINE
8
BLACK
6
CONTINUOUS
10
72.5977
20
-123.293
11
72.6153
21
-123.25
0
LINE
8
BLACK
6
CONTINUOUS
10
72.6153
20
-123.25
11
72.6577
21
-123.233
0
LINE
8
BLACK
6
CONTINUOUS
10
72.6577
20
-123.233
11
88.6577
21
-123.233
0
LINE
8
BLACK
6
CONTINUOUS
10
88.6577
20
-123.233
11
88.7001
21
-123.25
0
LINE
8
BLACK
6
CONTINUOUS
10
88.7001
20
-123.25
11
88.7177
21
-123.293
0
LINE
8
BLACK
6
CONTINUOUS
10
88.7177
20
-123.293
11
88.7177
21
-139.293
0
LINE
8
BLACK
6
CONTINUOUS
10
88.7177
20
-139.293
11
88.7001
21
-139.335
0
LINE
8
BLACK
6
CONTINUOUS
10
72.7177
20
-123.353
11
72.7177
21
-139.233
0
LINE
8
BLACK
6
CONTINUOUS
10
72.7177
20
-139.233
11
88.5977
21
-139.233
0
LINE
8
BLACK
6
CONTINUOUS
10
88.5977
20
-139.233
11
88.5977
21
-123.353
0
LINE
8
BLACK
6
CONTINUOUS
10
88.5977
20
-123.353
11
72.7177
21
-123.353
0
LINE
8
BLACK
6
CONTINUOUS
10
183.95
20
-139.335
11
183.908
21
-139.353
0
LINE
8
BLACK
6
CONTINUOUS
10
183.908
20
-139.353
11
167.908
21
-139.353
0
LINE
8
BLACK
6
CONTINUOUS
10
167.908
20
-139.353
11
167.865
21
-139.335
0
LINE
8
BLACK
6
CONTINUOUS
10
167.865
20
-139.335
11
167.848
21
-139.293
0
LINE
8
BLACK
6
CONTINUOUS
10
167.848
20
-139.293
11
167.848
21
-123.293
0
LINE
8
BLACK
6
CONTINUOUS
10
167.848
20
-123.293
11
167.865
21
-123.25
0
LINE
8
BLACK
6
CONTINUOUS
10
167.865
20
-123.25
11
167.908
21
-123.233
0
LINE
8
BLACK
6
CONTINUOUS
10
167.908
20
-123.233
11
183.908
21
-123.233
0
LINE
8
BLACK
6
CONTINUOUS
10
183.908
20
-123.233
11
183.95
21
-123.25
0
LINE
8
BLACK
6
CONTINUOUS
10
183.95
20
-123.25
11
183.968
21
-123.293
0
LINE
8
BLACK
6
CONTINUOUS
10
183.968
20
-123.293
11
183.968
21
-139.293
0
LINE
8
BLACK
6
CONTINUOUS
10
183.968
20
-139.293
11
183.95
21
-139.335
0
LINE
8
BLACK
6
CONTINUOUS
10
167.968
20
-123.353
11
167.968
21
-139.233
0
LINE
8
BLACK
6
CONTINUOUS
10
167.968
20
-139.233
11
183.848
21
-139.233
0
LINE
8
BLACK
6
CONTINUOUS
10
183.848
20
-139.233
11
183.848
21
-123.353
0
LINE
8
BLACK
6
CONTINUOUS
10
183.848
20
-123.353
11
167.968
21
-123.353
0
LINE
8
BLACK
6
CONTINUOUS
10
126.8
20
-139.335
11
126.758
21
-139.353
0
LINE
8
BLACK
6
CONTINUOUS
10
126.758
20
-139.353
11
110.758
21
-139.353
0
LINE
8
BLACK
6
CONTINUOUS
10
110.758
20
-139.353
11
110.715
21
-139.335
0
LINE
8
BLACK
6
CONTINUOUS
10
110.715
20
-139.335
11
110.698
21
-139.293
0
LINE
8
BLACK
6
CONTINUOUS
10
110.698
20
-139.293
11
110.698
21
-123.293
0
LINE
8
BLACK
6
CONTINUOUS
10
110.698
20
-123.293
11
110.715
21
-123.25
0
LINE
8
BLACK
6
CONTINUOUS
10
110.715
20
-123.25
11
110.758
21
-123.233
0
LINE
8
BLACK
6
CONTINUOUS
10
110.758
20
-123.233
11
126.758
21
-123.233
0
LINE
8
BLACK
6
CONTINUOUS
10
126.758
20
-123.233
11
126.8
21
-123.25
0
LINE
8
BLACK
6
CONTINUOUS
10
126.8
20
-123.25
11
126.818
21
-123.293
0
LINE
8
BLACK
6
CONTINUOUS
10
126.818
20
-123.293
11
126.818
21
-139.293
0
LINE
8
BLACK
6
CONTINUOUS
10
126.818
20
-139.293
11
126.8
21
-139.335
0
LINE
8
BLACK
6
CONTINUOUS
10
110.818
20
-123.353
11
110.818
21
-139.233
0
LINE
8
BLACK
6
CONTINUOUS
10
110.818
20
-139.233
11
126.698
21
-139.233
0
LINE
8
BLACK
6
CONTINUOUS
10
126.698
20
-139.233
11
126.698
21
-123.353
0
LINE
8
BLACK
6
CONTINUOUS
10
126.698
20
-123.353
11
110.818
21
-123.353
0
LINE
8
BLACK
6
CONTINUOUS
10
222.05
20
-139.335
11
222.008
21
-139.353
0
LINE
8
BLACK
6
CONTINUOUS
10
222.008
20
-139.353
11
206.008
21
-139.353
0
LINE
8
BLACK
6
CONTINUOUS
10
206.008
20
-139.353
11
205.965
21
-139.335
0
LINE
8
BLACK
6
CONTINUOUS
10
205.965
20
-139.335
11
205.948
21
-139.293
0
LINE
8
BLACK
6
CONTINUOUS
10
205.948
20
-139.293
11
205.948
21
-123.293
0
LINE
8
BLACK
6
CONTINUOUS
10
205.948
20
-123.293
11
205.965
21
-123.25
0
LINE
8
BLACK
6
CONTINUOUS
10
205.965
20
-123.25
11
206.008
21
-123.233
0
LINE
8
BLACK
6
CONTINUOUS
10
206.008
20
-123.233
11
222.008
21
-123.233
0
LINE
8
BLACK
6
CONTINUOUS
10
222.008
20
-123.233
11
222.05
21
-123.25
0
LINE
8
BLACK
6
CONTINUOUS
10
222.05
20
-123.25
11
222.068
21
-123.293
0
LINE
8
BLACK
6
CONTINUOUS
10
222.068
20
-123.293
11
222.068
21
-139.293
0
LINE
8
BLACK
6
CONTINUOUS
10
222.068
20
-139.293
11
222.05
21
-139.335
0
LINE
8
BLACK
6
CONTINUOUS
10
206.068
20
-123.353
11
206.068
21
-139.233
0
LINE
8
BLACK
6
CONTINUOUS
10
206.068
20
-139.233
11
221.948
21
-139.233
0
LINE
8
BLACK
6
CONTINUOUS
10
221.948
20
-139.233
11
221.948
21
-123.353
0
LINE
8
BLACK
6
CONTINUOUS
10
221.948
20
-123.353
11
206.068
21
-123.353
0
LINE
8
BLACK
6
CONTINUOUS
10
164.9
20
-139.335
11
164.858
21
-139.353
0
LINE
8
BLACK
6
CONTINUOUS
10
164.858
20
-139.353
11
148.858
21
-139.353
0
LINE
8
BLACK
6
CONTINUOUS
10
148.858
20
-139.353
11
148.815
21
-139.335
0
LINE
8
BLACK
6
CONTINUOUS
10
148.815
20
-139.335
11
148.798
21
-139.293
0
LINE
8
BLACK
6
CONTINUOUS
10
148.798
20
-139.293
11
148.798
21
-123.293
0
LINE
8
BLACK
6
CONTINUOUS
10
148.798
20
-123.293
11
148.815
21
-123.25
0
LINE
8
BLACK
6
CONTINUOUS
10
148.815
20
-123.25
11
148.858
21
-123.233
0
LINE
8
BLACK
6
CONTINUOUS
10
148.858
20
-123.233
11
164.858
21
-123.233
0
LINE
8
BLACK
6
CONTINUOUS
10
164.858
20
-123.233
11
164.9
21
-123.25
0
LINE
8
BLACK
6
CONTINUOUS
10
164.9
20
-123.25
11
164.918
21
-123.293
0
LINE
8
BLACK
6
CONTINUOUS
10
164.918
20
-123.293
11
164.918
21
-139.293
0
LINE
8
BLACK
6
CONTINUOUS
10
164.918
20
-139.293
11
164.9
21
-139.335
0
LINE
8
BLACK
6
CONTINUOUS
10
148.918
20
-123.353
11
148.918
21
-139.233
0
LINE
8
BLACK
6
CONTINUOUS
10
148.918
20
-139.233
11
164.798
21
-139.233
0
LINE
8
BLACK
6
CONTINUOUS
10
164.798
20
-139.233
11
164.798
21
-123.353
0
LINE
8
BLACK
6
CONTINUOUS
10
164.798
20
-123.353
11
148.918
21
-123.353
0
LINE
8
BLACK
6
CONTINUOUS
10
69.6501
20
-139.335
11
69.6077
21
-139.353
0
LINE
8
BLACK
6
CONTINUOUS
10
69.6077
20
-139.353
11
53.6077
21
-139.353
0
LINE
8
BLACK
6
CONTINUOUS
10
53.6077
20
-139.353
11
53.5653
21
-139.335
0
LINE
8
BLACK
6
CONTINUOUS
10
53.5653
20
-139.335
11
53.5477
21
-139.293
0
LINE
8
BLACK
6
CONTINUOUS
10
53.5477
20
-139.293
11
53.5477
21
-123.293
0
LINE
8
BLACK
6
CONTINUOUS
10
53.5477
20
-123.293
11
53.5653
21
-123.25
0
LINE
8
BLACK
6
CONTINUOUS
10
53.5653
20
-123.25
11
53.6077
21
-123.233
0
LINE
8
BLACK
6
CONTINUOUS
10
53.6077
20
-123.233
11
69.6077
21
-123.233
0
LINE
8
BLACK
6
CONTINUOUS
10
69.6077
20
-123.233
11
69.6501
21
-123.25
0
LINE
8
BLACK
6
CONTINUOUS
10
69.6501
20
-123.25
11
69.6677
21
-123.293
0
LINE
8
BLACK
6
CONTINUOUS
10
69.6677
20
-123.293
11
69.6677
21
-139.293
0
LINE
8
BLACK
6
CONTINUOUS
10
69.6677
20
-139.293
11
69.6501
21
-139.335
0
LINE
8
BLACK
6
CONTINUOUS
10
53.6677
20
-123.353
11
53.6677
21
-139.233
0
LINE
8
BLACK
6
CONTINUOUS
10
53.6677
20
-139.233
11
69.5477
21
-139.233
0
LINE
8
BLACK
6
CONTINUOUS
10
69.5477
20
-139.233
11
69.5477
21
-123.353
0
LINE
8
BLACK
6
CONTINUOUS
10
69.5477
20
-123.353
11
53.6677
21
-123.353
0
LINE
8
BLACK
6
CONTINUOUS
10
107.75
20
-120.285
11
107.708
21
-120.303
0
LINE
8
BLACK
6
CONTINUOUS
10
107.708
20
-120.303
11
91.7077
21
-120.303
0
LINE
8
BLACK
6
CONTINUOUS
10
91.7077
20
-120.303
11
91.6653
21
-120.285
0
LINE
8
BLACK
6
CONTINUOUS
10
91.6653
20
-120.285
11
91.6477
21
-120.243
0
LINE
8
BLACK
6
CONTINUOUS
10
91.6477
20
-120.243
11
91.6477
21
-104.243
0
LINE
8
BLACK
6
CONTINUOUS
10
91.6477
20
-104.243
11
91.6653
21
-104.2
0
LINE
8
BLACK
6
CONTINUOUS
10
91.6653
20
-104.2
11
91.7077
21
-104.183
0
LINE
8
BLACK
6
CONTINUOUS
10
91.7077
20
-104.183
11
107.708
21
-104.183
0
LINE
8
BLACK
6
CONTINUOUS
10
107.708
20
-104.183
11
107.75
21
-104.2
0
LINE
8
BLACK
6
CONTINUOUS
10
107.75
20
-104.2
11
107.768
21
-104.243
0
LINE
8
BLACK
6
CONTINUOUS
10
107.768
20
-104.243
11
107.768
21
-120.243
0
LINE
8
BLACK
6
CONTINUOUS
10
107.768
20
-120.243
11
107.75
21
-120.285
0
LINE
8
BLACK
6
CONTINUOUS
10
91.7677
20
-104.303
11
91.7677
21
-120.183
0
LINE
8
BLACK
6
CONTINUOUS
10
91.7677
20
-120.183
11
107.648
21
-120.183
0
LINE
8
BLACK
6
CONTINUOUS
10
107.648
20
-120.183
11
107.648
21
-104.303
0
LINE
8
BLACK
6
CONTINUOUS
10
107.648
20
-104.303
11
91.7677
21
-104.303
0
LINE
8
BLACK
6
CONTINUOUS
10
88.7001
20
-120.285
11
88.6577
21
-120.303
0
LINE
8
BLACK
6
CONTINUOUS
10
88.6577
20
-120.303
11
72.6577
21
-120.303
0
LINE
8
BLACK
6
CONTINUOUS
10
72.6577
20
-120.303
11
72.6153
21
-120.285
0
LINE
8
BLACK
6
CONTINUOUS
10
72.6153
20
-120.285
11
72.5977
21
-120.243
0
LINE
8
BLACK
6
CONTINUOUS
10
72.5977
20
-120.243
11
72.5977
21
-104.243
0
LINE
8
BLACK
6
CONTINUOUS
10
72.5977
20
-104.243
11
72.6153
21
-104.2
0
LINE
8
BLACK
6
CONTINUOUS
10
72.6153
20
-104.2
11
72.6577
21
-104.183
0
LINE
8
BLACK
6
CONTINUOUS
10
72.6577
20
-104.183
11
88.6577
21
-104.183
0
LINE
8
BLACK
6
CONTINUOUS
10
88.6577
20
-104.183
11
88.7001
21
-104.2
0
LINE
8
BLACK
6
CONTINUOUS
10
88.7001
20
-104.2
11
88.7177
21
-104.243
0
LINE
8
BLACK
6
CONTINUOUS
10
88.7177
20
-104.243
11
88.7177
21
-120.243
0
LINE
8
BLACK
6
CONTINUOUS
10
88.7177
20
-120.243
11
88.7001
21
-120.285
0
LINE
8
BLACK
6
CONTINUOUS
10
72.7177
20
-104.303
11
72.7177
21
-120.183
0
LINE
8
BLACK
6
CONTINUOUS
10
72.7177
20
-120.183
11
88.5977
21
-120.183
0
LINE
8
BLACK
6
CONTINUOUS
10
88.5977
20
-120.183
11
88.5977
21
-104.303
0
LINE
8
BLACK
6
CONTINUOUS
10
88.5977
20
-104.303
11
72.7177
21
-104.303
0
LINE
8
BLACK
6
CONTINUOUS
10
203
20
-120.285
11
202.958
21
-120.303
0
LINE
8
BLACK
6
CONTINUOUS
10
202.958
20
-120.303
11
186.958
21
-120.303
0
LINE
8
BLACK
6
CONTINUOUS
10
186.958
20
-120.303
11
186.915
21
-120.285
0
LINE
8
BLACK
6
CONTINUOUS
10
186.915
20
-120.285
11
186.898
21
-120.243
0
LINE
8
BLACK
6
CONTINUOUS
10
186.898
20
-120.243
11
186.898
21
-104.243
0
LINE
8
BLACK
6
CONTINUOUS
10
186.898
20
-104.243
11
186.915
21
-104.2
0
LINE
8
BLACK
6
CONTINUOUS
10
186.915
20
-104.2
11
186.958
21
-104.183
0
LINE
8
BLACK
6
CONTINUOUS
10
186.958
20
-104.183
11
202.958
21
-104.183
0
LINE
8
BLACK
6
CONTINUOUS
10
202.958
20
-104.183
11
203
21
-104.2
0
LINE
8
BLACK
6
CONTINUOUS
10
203
20
-104.2
11
203.018
21
-104.243
0
LINE
8
BLACK
6
CONTINUOUS
10
203.018
20
-104.243
11
203.018
21
-120.243
0
LINE
8
BLACK
6
CONTINUOUS
10
203.018
20
-120.243
11
203
21
-120.285
0
LINE
8
BLACK
6
CONTINUOUS
10
187.018
20
-104.303
11
187.018
21
-120.183
0
LINE
8
BLACK
6
CONTINUOUS
10
187.018
20
-120.183
11
202.898
21
-120.183
0
LINE
8
BLACK
6
CONTINUOUS
10
202.898
20
-120.183
11
202.898
21
-104.303
0
LINE
8
BLACK
6
CONTINUOUS
10
202.898
20
-104.303
11
187.018
21
-104.303
0
LINE
8
BLACK
6
CONTINUOUS
10
222.05
20
-120.285
11
222.008
21
-120.303
0
LINE
8
BLACK
6
CONTINUOUS
10
222.008
20
-120.303
11
206.008
21
-120.303
0
LINE
8
BLACK
6
CONTINUOUS
10
206.008
20
-120.303
11
205.965
21
-120.285
0
LINE
8
BLACK
6
CONTINUOUS
10
205.965
20
-120.285
11
205.948
21
-120.243
0
LINE
8
BLACK
6
CONTINUOUS
10
205.948
20
-120.243
11
205.948
21
-104.243
0
LINE
8
BLACK
6
CONTINUOUS
10
205.948
20
-104.243
11
205.965
21
-104.2
0
LINE
8
BLACK
6
CONTINUOUS
10
205.965
20
-104.2
11
206.008
21
-104.183
0
LINE
8
BLACK
6
CONTINUOUS
10
206.008
20
-104.183
11
222.008
21
-104.183
0
LINE
8
BLACK
6
CONTINUOUS
10
222.008
20
-104.183
11
222.05
21
-104.2
0
LINE
8
BLACK
6
CONTINUOUS
10
222.05
20
-104.2
11
222.068
21
-104.243
0
LINE
8
BLACK
6
CONTINUOUS
10
222.068
20
-104.243
11
222.068
21
-120.243
0
LINE
8
BLACK
6
CONTINUOUS
10
222.068
20
-120.243
11
222.05
21
-120.285
0
LINE
8
BLACK
6
CONTINUOUS
10
206.068
20
-104.303
11
206.068
21
-120.183
0
LINE
8
BLACK
6
CONTINUOUS
10
206.068
20
-120.183
11
221.948
21
-120.183
0
LINE
8
BLACK
6
CONTINUOUS
10
221.948
20
-120.183
11
221.948
21
-104.303
0
LINE
8
BLACK
6
CONTINUOUS
10
221.948
20
-104.303
11
206.068
21
-104.303
0
LINE
8
BLACK
6
CONTINUOUS
10
241.1
20
-120.285
11
241.058
21
-120.303
0
LINE
8
BLACK
6
CONTINUOUS
10
241.058
20
-120.303
11
225.058
21
-120.303
0
LINE
8
BLACK
6
CONTINUOUS
10
225.058
20
-120.303
11
225.015
21
-120.285
0
LINE
8
BLACK
6
CONTINUOUS
10
225.015
20
-120.285
11
224.998
21
-120.243
0
LINE
8
BLACK
6
CONTINUOUS
10
224.998
20
-120.243
11
224.998
21
-104.243
0
LINE
8
BLACK
6
CONTINUOUS
10
224.998
20
-104.243
11
225.015
21
-104.2
0
LINE
8
BLACK
6
CONTINUOUS
10
225.015
20
-104.2
11
225.058
21
-104.183
0
LINE
8
BLACK
6
CONTINUOUS
10
225.058
20
-104.183
11
241.058
21
-104.183
0
LINE
8
BLACK
6
CONTINUOUS
10
241.058
20
-104.183
11
241.1
21
-104.2
0
LINE
8
BLACK
6
CONTINUOUS
10
241.1
20
-104.2
11
241.118
21
-104.243
0
LINE
8
BLACK
6
CONTINUOUS
10
241.118
20
-104.243
11
241.118
21
-120.243
0
LINE
8
BLACK
6
CONTINUOUS
10
241.118
20
-120.243
11
241.1
21
-120.285
0
LINE
8
BLACK
6
CONTINUOUS
10
225.118
20
-104.303
11
225.118
21
-120.183
0
LINE
8
BLACK
6
CONTINUOUS
10
225.118
20
-120.183
11
240.998
21
-120.183
0
LINE
8
BLACK
6
CONTINUOUS
10
240.998
20
-120.183
11
240.998
21
-104.303
0
LINE
8
BLACK
6
CONTINUOUS
10
240.998
20
-104.303
11
225.118
21
-104.303
0
LINE
8
BLACK
6
CONTINUOUS
10
126.8
20
-120.285
11
126.758
21
-120.303
0
LINE
8
BLACK
6
CONTINUOUS
10
126.758
20
-120.303
11
110.758
21
-120.303
0
LINE
8
BLACK
6
CONTINUOUS
10
110.758
20
-120.303
11
110.715
21
-120.285
0
LINE
8
BLACK
6
CONTINUOUS
10
110.715
20
-120.285
11
110.698
21
-120.243
0
LINE
8
BLACK
6
CONTINUOUS
10
110.698
20
-120.243
11
110.698
21
-104.243
0
LINE
8
BLACK
6
CONTINUOUS
10
110.698
20
-104.243
11
110.715
21
-104.2
0
LINE
8
BLACK
6
CONTINUOUS
10
110.715
20
-104.2
11
110.758
21
-104.183
0
LINE
8
BLACK
6
CONTINUOUS
10
110.758
20
-104.183
11
126.758
21
-104.183
0
LINE
8
BLACK
6
CONTINUOUS
10
126.758
20
-104.183
11
126.8
21
-104.2
0
LINE
8
BLACK
6
CONTINUOUS
10
126.8
20
-104.2
11
126.818
21
-104.243
0
LINE
8
BLACK
6
CONTINUOUS
10
126.818
20
-104.243
11
126.818
21
-120.243
0
LINE
8
BLACK
6
CONTINUOUS
10
126.818
20
-120.243
11
126.8
21
-120.285
0
LINE
8
BLACK
6
CONTINUOUS
10
110.818
20
-104.303
11
110.818
21
-120.183
0
LINE
8
BLACK
6
CONTINUOUS
10
110.818
20
-120.183
11
126.698
21
-120.183
0
LINE
8
BLACK
6
CONTINUOUS
10
126.698
20
-120.183
11
126.698
21
-104.303
0
LINE
8
BLACK
6
CONTINUOUS
10
126.698
20
-104.303
11
110.818
21
-104.303
0
LINE
8
BLACK
6
CONTINUOUS
10
145.85
20
-120.285
11
145.808
21
-120.303
0
LINE
8
BLACK
6
CONTINUOUS
10
145.808
20
-120.303
11
129.808
21
-120.303
0
LINE
8
BLACK
6
CONTINUOUS
10
129.808
20
-120.303
11
129.765
21
-120.285
0
LINE
8
BLACK
6
CONTINUOUS
10
129.765
20
-120.285
11
129.748
21
-120.243
0
LINE
8
BLACK
6
CONTINUOUS
10
129.748
20
-120.243
11
129.748
21
-104.243
0
LINE
8
BLACK
6
CONTINUOUS
10
129.748
20
-104.243
11
129.765
21
-104.2
0
LINE
8
BLACK
6
CONTINUOUS
10
129.765
20
-104.2
11
129.808
21
-104.183
0
LINE
8
BLACK
6
CONTINUOUS
10
129.808
20
-104.183
11
145.808
21
-104.183
0
LINE
8
BLACK
6
CONTINUOUS
10
145.808
20
-104.183
11
145.85
21
-104.2
0
LINE
8
BLACK
6
CONTINUOUS
10
145.85
20
-104.2
11
145.868
21
-104.243
0
LINE
8
BLACK
6
CONTINUOUS
10
145.868
20
-104.243
11
145.868
21
-120.243
0
LINE
8
BLACK
6
CONTINUOUS
10
145.868
20
-120.243
11
145.85
21
-120.285
0
LINE
8
BLACK
6
CONTINUOUS
10
129.868
20
-104.303
11
129.868
21
-120.183
0
LINE
8
BLACK
6
CONTINUOUS
10
129.868
20
-120.183
11
145.748
21
-120.183
0
LINE
8
BLACK
6
CONTINUOUS
10
145.748
20
-120.183
11
145.748
21
-104.303
0
LINE
8
BLACK
6
CONTINUOUS
10
145.748
20
-104.303
11
129.868
21
-104.303
0
LINE
8
BLACK
6
CONTINUOUS
10
183.95
20
-120.285
11
183.908
21
-120.303
0
LINE
8
BLACK
6
CONTINUOUS
10
183.908
20
-120.303
11
167.908
21
-120.303
0
LINE
8
BLACK
6
CONTINUOUS
10
167.908
20
-120.303
11
167.865
21
-120.285
0
LINE
8
BLACK
6
CONTINUOUS
10
167.865
20
-120.285
11
167.848
21
-120.243
0
LINE
8
BLACK
6
CONTINUOUS
10
167.848
20
-120.243
11
167.848
21
-104.243
0
LINE
8
BLACK
6
CONTINUOUS
10
167.848
20
-104.243
11
167.865
21
-104.2
0
LINE
8
BLACK
6
CONTINUOUS
10
167.865
20
-104.2
11
167.908
21
-104.183
0
LINE
8
BLACK
6
CONTINUOUS
10
167.908
20
-104.183
11
183.908
21
-104.183
0
LINE
8
BLACK
6
CONTINUOUS
10
183.908
20
-104.183
11
183.95
21
-104.2
0
LINE
8
BLACK
6
CONTINUOUS
10
183.95
20
-104.2
11
183.968
21
-104.243
0
LINE
8
BLACK
6
CONTINUOUS
10
183.968
20
-104.243
11
183.968
21
-120.243
0
LINE
8
BLACK
6
CONTINUOUS
10
183.968
20
-120.243
11
183.95
21
-120.285
0
LINE
8
BLACK
6
CONTINUOUS
10
167.968
20
-104.303
11
167.968
21
-120.183
0
LINE
8
BLACK
6
CONTINUOUS
10
167.968
20
-120.183
11
183.848
21
-120.183
0
LINE
8
BLACK
6
CONTINUOUS
10
183.848
20
-120.183
11
183.848
21
-104.303
0
LINE
8
BLACK
6
CONTINUOUS
10
183.848
20
-104.303
11
167.968
21
-104.303
0
LINE
8
BLACK
6
CONTINUOUS
10
69.6501
20
-120.285
11
69.6077
21
-120.303
0
LINE
8
BLACK
6
CONTINUOUS
10
69.6077
20
-120.303
11
53.6077
21
-120.303
0
LINE
8
BLACK
6
CONTINUOUS
10
53.6077
20
-120.303
11
53.5653
21
-120.285
0
LINE
8
BLACK
6
CONTINUOUS
10
53.5653
20
-120.285
11
53.5477
21
-120.243
0
LINE
8
BLACK
6
CONTINUOUS
10
53.5477
20
-120.243
11
53.5477
21
-104.243
0
LINE
8
BLACK
6
CONTINUOUS
10
53.5477
20
-104.243
11
53.5653
21
-104.2
0
LINE
8
BLACK
6
CONTINUOUS
10
53.5653
20
-104.2
11
53.6077
21
-104.183
0
LINE
8
BLACK
6
CONTINUOUS
10
53.6077
20
-104.183
11
69.6077
21
-104.183
0
LINE
8
BLACK
6
CONTINUOUS
10
69.6077
20
-104.183
11
69.6501
21
-104.2
0
LINE
8
BLACK
6
CONTINUOUS
10
69.6501
20
-104.2
11
69.6677
21
-104.243
0
LINE
8
BLACK
6
CONTINUOUS
10
69.6677
20
-104.243
11
69.6677
21
-120.243
0
LINE
8
BLACK
6
CONTINUOUS
10
69.6677
20
-120.243
11
69.6501
21
-120.285
0
LINE
8
BLACK
6
CONTINUOUS
10
53.6677
20
-104.303
11
53.6677
21
-120.183
0
LINE
8
BLACK
6
CONTINUOUS
10
53.6677
20
-120.183
11
69.5477
21
-120.183
0
LINE
8
BLACK
6
CONTINUOUS
10
69.5477
20
-120.183
11
69.5477
21
-104.303
0
LINE
8
BLACK
6
CONTINUOUS
10
69.5477
20
-104.303
11
53.6677
21
-104.303
0
LINE
8
BLACK
6
CONTINUOUS
10
164.9
20
-120.285
11
164.858
21
-120.303
0
LINE
8
BLACK
6
CONTINUOUS
10
164.858
20
-120.303
11
148.858
21
-120.303
0
LINE
8
BLACK
6
CONTINUOUS
10
148.858
20
-120.303
11
148.815
21
-120.285
0
LINE
8
BLACK
6
CONTINUOUS
10
148.815
20
-120.285
11
148.798
21
-120.243
0
LINE
8
BLACK
6
CONTINUOUS
10
148.798
20
-120.243
11
148.798
21
-104.243
0
LINE
8
BLACK
6
CONTINUOUS
10
148.798
20
-104.243
11
148.815
21
-104.2
0
LINE
8
BLACK
6
CONTINUOUS
10
148.815
20
-104.2
11
148.858
21
-104.183
0
LINE
8
BLACK
6
CONTINUOUS
10
148.858
20
-104.183
11
164.858
21
-104.183
0
LINE
8
BLACK
6
CONTINUOUS
10
164.858
20
-104.183
11
164.9
21
-104.2
0
LINE
8
BLACK
6
CONTINUOUS
10
164.9
20
-104.2
11
164.918
21
-104.243
0
LINE
8
BLACK
6
CONTINUOUS
10
164.918
20
-104.243
11
164.918
21
-120.243
0
LINE
8
BLACK
6
CONTINUOUS
10
164.918
20
-120.243
11
164.9
21
-120.285
0
LINE
8
BLACK
6
CONTINUOUS
10
148.918
20
-104.303
11
148.918
21
-120.183
0
LINE
8
BLACK
6
CONTINUOUS
10
148.918
20
-120.183
11
164.798
21
-120.183
0
LINE
8
BLACK
6
CONTINUOUS
10
164.798
20
-120.183
11
164.798
21
-104.303
0
LINE
8
BLACK
6
CONTINUOUS
10
164.798
20
-104.303
11
148.918
21
-104.303
0
LINE
8
BLACK
6
CONTINUOUS
10
183.95
20
-101.235
11
183.908
21
-101.253
0
LINE
8
BLACK
6
CONTINUOUS
10
183.908
20
-101.253
11
167.908
21
-101.253
0
LINE
8
BLACK
6
CONTINUOUS
10
167.908
20
-101.253
11
167.865
21
-101.235
0
LINE
8
BLACK
6
CONTINUOUS
10
167.865
20
-101.235
11
167.848
21
-101.193
0
LINE
8
BLACK
6
CONTINUOUS
10
167.848
20
-101.193
11
167.848
21
-85.1926
0
LINE
8
BLACK
6
CONTINUOUS
10
167.848
20
-85.1926
11
167.865
21
-85.1502
0
LINE
8
BLACK
6
CONTINUOUS
10
167.865
20
-85.1502
11
167.908
21
-85.1326
0
LINE
8
BLACK
6
CONTINUOUS
10
167.908
20
-85.1326
11
183.908
21
-85.1326
0
LINE
8
BLACK
6
CONTINUOUS
10
183.908
20
-85.1326
11
183.95
21
-85.1502
0
LINE
8
BLACK
6
CONTINUOUS
10
183.95
20
-85.1502
11
183.968
21
-85.1926
0
LINE
8
BLACK
6
CONTINUOUS
10
183.968
20
-85.1926
11
183.968
21
-101.193
0
LINE
8
BLACK
6
CONTINUOUS
10
183.968
20
-101.193
11
183.95
21
-101.235
0
LINE
8
BLACK
6
CONTINUOUS
10
167.968
20
-85.2526
11
167.968
21
-101.133
0
LINE
8
BLACK
6
CONTINUOUS
10
167.968
20
-101.133
11
183.848
21
-101.133
0
LINE
8
BLACK
6
CONTINUOUS
10
183.848
20
-101.133
11
183.848
21
-85.2526
0
LINE
8
BLACK
6
CONTINUOUS
10
183.848
20
-85.2526
11
167.968
21
-85.2526
0
LINE
8
BLACK
6
CONTINUOUS
10
145.85
20
-101.235
11
145.808
21
-101.253
0
LINE
8
BLACK
6
CONTINUOUS
10
145.808
20
-101.253
11
129.808
21
-101.253
0
LINE
8
BLACK
6
CONTINUOUS
10
129.808
20
-101.253
11
129.765
21
-101.235
0
LINE
8
BLACK
6
CONTINUOUS
10
129.765
20
-101.235
11
129.748
21
-101.193
0
LINE
8
BLACK
6
CONTINUOUS
10
129.748
20
-101.193
11
129.748
21
-85.1926
0
LINE
8
BLACK
6
CONTINUOUS
10
129.748
20
-85.1926
11
129.765
21
-85.1502
0
LINE
8
BLACK
6
CONTINUOUS
10
129.765
20
-85.1502
11
129.808
21
-85.1326
0
LINE
8
BLACK
6
CONTINUOUS
10
129.808
20
-85.1326
11
145.808
21
-85.1326
0
LINE
8
BLACK
6
CONTINUOUS
10
145.808
20
-85.1326
11
145.85
21
-85.1502
0
LINE
8
BLACK
6
CONTINUOUS
10
145.85
20
-85.1502
11
145.868
21
-85.1926
0
LINE
8
BLACK
6
CONTINUOUS
10
145.868
20
-85.1926
11
145.868
21
-101.193
0
LINE
8
BLACK
6
CONTINUOUS
10
145.868
20
-101.193
11
145.85
21
-101.235
0
LINE
8
BLACK
6
CONTINUOUS
10
129.868
20
-85.2526
11
129.868
21
-101.133
0
LINE
8
BLACK
6
CONTINUOUS
10
129.868
20
-101.133
11
145.748
21
-101.133
0
LINE
8
BLACK
6
CONTINUOUS
10
145.748
20
-101.133
11
145.748
21
-85.2526
0
LINE
8
BLACK
6
CONTINUOUS
10
145.748
20
-85.2526
11
129.868
21
-85.2526
0
LINE
8
BLACK
6
CONTINUOUS
10
203
20
-101.235
11
202.958
21
-101.253
0
LINE
8
BLACK
6
CONTINUOUS
10
202.958
20
-101.253
11
186.958
21
-101.253
0
LINE
8
BLACK
6
CONTINUOUS
10
186.958
20
-101.253
11
186.915
21
-101.235
0
LINE
8
BLACK
6
CONTINUOUS
10
186.915
20
-101.235
11
186.898
21
-101.193
0
LINE
8
BLACK
6
CONTINUOUS
10
186.898
20
-101.193
11
186.898
21
-85.1926
0
LINE
8
BLACK
6
CONTINUOUS
10
186.898
20
-85.1926
11
186.915
21
-85.1502
0
LINE
8
BLACK
6
CONTINUOUS
10
186.915
20
-85.1502
11
186.958
21
-85.1326
0
LINE
8
BLACK
6
CONTINUOUS
10
186.958
20
-85.1326
11
202.958
21
-85.1326
0
LINE
8
BLACK
6
CONTINUOUS
10
202.958
20
-85.1326
11
203
21
-85.1502
0
LINE
8
BLACK
6
CONTINUOUS
10
203
20
-85.1502
11
203.018
21
-85.1926
0
LINE
8
BLACK
6
CONTINUOUS
10
203.018
20
-85.1926
11
203.018
21
-101.193
0
LINE
8
BLACK
6
CONTINUOUS
10
203.018
20
-101.193
11
203
21
-101.235
0
LINE
8
BLACK
6
CONTINUOUS
10
187.018
20
-85.2526
11
187.018
21
-101.133
0
LINE
8
BLACK
6
CONTINUOUS
10
187.018
20
-101.133
11
202.898
21
-101.133
0
LINE
8
BLACK
6
CONTINUOUS
10
202.898
20
-101.133
11
202.898
21
-85.2526
0
LINE
8
BLACK
6
CONTINUOUS
10
202.898
20
-85.2526
11
187.018
21
-85.2526
0
LINE
8
BLACK
6
CONTINUOUS
10
126.8
20
-101.235
11
126.758
21
-101.253
0
LINE
8
BLACK
6
CONTINUOUS
10
126.758
20
-101.253
11
110.758
21
-101.253
0
LINE
8
BLACK
6
CONTINUOUS
10
110.758
20
-101.253
11
110.715
21
-101.235
0
LINE
8
BLACK
6
CONTINUOUS
10
110.715
20
-101.235
11
110.698
21
-101.193
0
LINE
8
BLACK
6
CONTINUOUS
10
110.698
20
-101.193
11
110.698
21
-85.1926
0
LINE
8
BLACK
6
CONTINUOUS
10
110.698
20
-85.1926
11
110.715
21
-85.1502
0
LINE
8
BLACK
6
CONTINUOUS
10
110.715
20
-85.1502
11
110.758
21
-85.1326
0
LINE
8
BLACK
6
CONTINUOUS
10
110.758
20
-85.1326
11
126.758
21
-85.1326
0
LINE
8
BLACK
6
CONTINUOUS
10
126.758
20
-85.1326
11
126.8
21
-85.1502
0
LINE
8
BLACK
6
CONTINUOUS
10
126.8
20
-85.1502
11
126.818
21
-85.1926
0
LINE
8
BLACK
6
CONTINUOUS
10
126.818
20
-85.1926
11
126.818
21
-101.193
0
LINE
8
BLACK
6
CONTINUOUS
10
126.818
20
-101.193
11
126.8
21
-101.235
0
LINE
8
BLACK
6
CONTINUOUS
10
110.818
20
-85.2526
11
110.818
21
-101.133
0
LINE
8
BLACK
6
CONTINUOUS
10
110.818
20
-101.133
11
126.698
21
-101.133
0
LINE
8
BLACK
6
CONTINUOUS
10
126.698
20
-101.133
11
126.698
21
-85.2526
0
LINE
8
BLACK
6
CONTINUOUS
10
126.698
20
-85.2526
11
110.818
21
-85.2526
0
LINE
8
BLACK
6
CONTINUOUS
10
222.05
20
-101.235
11
222.008
21
-101.253
0
LINE
8
BLACK
6
CONTINUOUS
10
222.008
20
-101.253
11
206.008
21
-101.253
0
LINE
8
BLACK
6
CONTINUOUS
10
206.008
20
-101.253
11
205.965
21
-101.235
0
LINE
8
BLACK
6
CONTINUOUS
10
205.965
20
-101.235
11
205.948
21
-101.193
0
LINE
8
BLACK
6
CONTINUOUS
10
205.948
20
-101.193
11
205.948
21
-85.1926
0
LINE
8
BLACK
6
CONTINUOUS
10
205.948
20
-85.1926
11
205.965
21
-85.1502
0
LINE
8
BLACK
6
CONTINUOUS
10
205.965
20
-85.1502
11
206.008
21
-85.1326
0
LINE
8
BLACK
6
CONTINUOUS
10
206.008
20
-85.1326
11
222.008
21
-85.1326
0
LINE
8
BLACK
6
CONTINUOUS
10
222.008
20
-85.1326
11
222.05
21
-85.1502
0
LINE
8
BLACK
6
CONTINUOUS
10
222.05
20
-85.1502
11
222.068
21
-85.1926
0
LINE
8
BLACK
6
CONTINUOUS
10
222.068
20
-85.1926
11
222.068
21
-101.193
0
LINE
8
BLACK
6
CONTINUOUS
10
222.068
20
-101.193
11
222.05
21
-101.235
0
LINE
8
BLACK
6
CONTINUOUS
10
206.068
20
-85.2526
11
206.068
21
-101.133
0
LINE
8
BLACK
6
CONTINUOUS
10
206.068
20
-101.133
11
221.948
21
-101.133
0
LINE
8
BLACK
6
CONTINUOUS
10
221.948
20
-101.133
11
221.948
21
-85.2526
0
LINE
8
BLACK
6
CONTINUOUS
10
221.948
20
-85.2526
11
206.068
21
-85.2526
0
LINE
8
BLACK
6
CONTINUOUS
10
241.1
20
-101.235
11
241.058
21
-101.253
0
LINE
8
BLACK
6
CONTINUOUS
10
241.058
20
-101.253
11
225.058
21
-101.253
0
LINE
8
BLACK
6
CONTINUOUS
10
225.058
20
-101.253
11
225.015
21
-101.235
0
LINE
8
BLACK
6
CONTINUOUS
10
225.015
20
-101.235
11
224.998
21
-101.193
0
LINE
8
BLACK
6
CONTINUOUS
10
224.998
20
-101.193
11
224.998
21
-85.1926
0
LINE
8
BLACK
6
CONTINUOUS
10
224.998
20
-85.1926
11
225.015
21
-85.1502
0
LINE
8
BLACK
6
CONTINUOUS
10
225.015
20
-85.1502
11
225.058
21
-85.1326
0
LINE
8
BLACK
6
CONTINUOUS
10
225.058
20
-85.1326
11
241.058
21
-85.1326
0
LINE
8
BLACK
6
CONTINUOUS
10
241.058
20
-85.1326
11
241.1
21
-85.1502
0
LINE
8
BLACK
6
CONTINUOUS
10
241.1
20
-85.1502
11
241.118
21
-85.1926
0
LINE
8
BLACK
6
CONTINUOUS
10
241.118
20
-85.1926
11
241.118
21
-101.193
0
LINE
8
BLACK
6
CONTINUOUS
10
241.118
20
-101.193
11
241.1
21
-101.235
0
LINE
8
BLACK
6
CONTINUOUS
10
225.118
20
-85.2526
11
225.118
21
-101.133
0
LINE
8
BLACK
6
CONTINUOUS
10
225.118
20
-101.133
11
240.998
21
-101.133
0
LINE
8
BLACK
6
CONTINUOUS
10
240.998
20
-101.133
11
240.998
21
-85.2526
0
LINE
8
BLACK
6
CONTINUOUS
10
240.998
20
-85.2526
11
225.118
21
-85.2526
0
LINE
8
BLACK
6
CONTINUOUS
10
107.75
20
-101.235
11
107.708
21
-101.253
0
LINE
8
BLACK
6
CONTINUOUS
10
107.708
20
-101.253
11
91.7077
21
-101.253
0
LINE
8
BLACK
6
CONTINUOUS
10
91.7077
20
-101.253
11
91.6653
21
-101.235
0
LINE
8
BLACK
6
CONTINUOUS
10
91.6653
20
-101.235
11
91.6477
21
-101.193
0
LINE
8
BLACK
6
CONTINUOUS
10
91.6477
20
-101.193
11
91.6477
21
-85.1926
0
LINE
8
BLACK
6
CONTINUOUS
10
91.6477
20
-85.1926
11
91.6653
21
-85.1502
0
LINE
8
BLACK
6
CONTINUOUS
10
91.6653
20
-85.1502
11
91.7077
21
-85.1326
0
LINE
8
BLACK
6
CONTINUOUS
10
91.7077
20
-85.1326
11
107.708
21
-85.1326
0
LINE
8
BLACK
6
CONTINUOUS
10
107.708
20
-85.1326
11
107.75
21
-85.1502
0
LINE
8
BLACK
6
CONTINUOUS
10
107.75
20
-85.1502
11
107.768
21
-85.1926
0
LINE
8
BLACK
6
CONTINUOUS
10
107.768
20
-85.1926
11
107.768
21
-101.193
0
LINE
8
BLACK
6
CONTINUOUS
10
107.768
20
-101.193
11
107.75
21
-101.235
0
LINE
8
BLACK
6
CONTINUOUS
10
91.7677
20
-85.2526
11
91.7677
21
-101.133
0
LINE
8
BLACK
6
CONTINUOUS
10
91.7677
20
-101.133
11
107.648
21
-101.133
0
LINE
8
BLACK
6
CONTINUOUS
10
107.648
20
-101.133
11
107.648
21
-85.2526
0
LINE
8
BLACK
6
CONTINUOUS
10
107.648
20
-85.2526
11
91.7677
21
-85.2526
0
LINE
8
BLACK
6
CONTINUOUS
10
164.9
20
-101.235
11
164.858
21
-101.253
0
LINE
8
BLACK
6
CONTINUOUS
10
164.858
20
-101.253
11
148.858
21
-101.253
0
LINE
8
BLACK
6
CONTINUOUS
10
148.858
20
-101.253
11
148.815
21
-101.235
0
LINE
8
BLACK
6
CONTINUOUS
10
148.815
20
-101.235
11
148.798
21
-101.193
0
LINE
8
BLACK
6
CONTINUOUS
10
148.798
20
-101.193
11
148.798
21
-85.1926
0
LINE
8
BLACK
6
CONTINUOUS
10
148.798
20
-85.1926
11
148.815
21
-85.1502
0
LINE
8
BLACK
6
CONTINUOUS
10
148.815
20
-85.1502
11
148.858
21
-85.1326
0
LINE
8
BLACK
6
CONTINUOUS
10
148.858
20
-85.1326
11
164.858
21
-85.1326
0
LINE
8
BLACK
6
CONTINUOUS
10
164.858
20
-85.1326
11
164.9
21
-85.1502
0
LINE
8
BLACK
6
CONTINUOUS
10
164.9
20
-85.1502
11
164.918
21
-85.1926
0
LINE
8
BLACK
6
CONTINUOUS
10
164.918
20
-85.1926
11
164.918
21
-101.193
0
LINE
8
BLACK
6
CONTINUOUS
10
164.918
20
-101.193
11
164.9
21
-101.235
0
LINE
8
BLACK
6
CONTINUOUS
10
148.918
20
-85.2526
11
148.918
21
-101.133
0
LINE
8
BLACK
6
CONTINUOUS
10
148.918
20
-101.133
11
164.798
21
-101.133
0
LINE
8
BLACK
6
CONTINUOUS
10
164.798
20
-101.133
11
164.798
21
-85.2526
0
LINE
8
BLACK
6
CONTINUOUS
10
164.798
20
-85.2526
11
148.918
21
-85.2526
0
LINE
8
BLACK
6
CONTINUOUS
10
69.6501
20
-101.235
11
69.6077
21
-101.253
0
LINE
8
BLACK
6
CONTINUOUS
10
69.6077
20
-101.253
11
53.6077
21
-101.253
0
LINE
8
BLACK
6
CONTINUOUS
10
53.6077
20
-101.253
11
53.5653
21
-101.235
0
LINE
8
BLACK
6
CONTINUOUS
10
53.5653
20
-101.235
11
53.5477
21
-101.193
0
LINE
8
BLACK
6
CONTINUOUS
10
53.5477
20
-101.193
11
53.5477
21
-85.1926
0
LINE
8
BLACK
6
CONTINUOUS
10
53.5477
20
-85.1926
11
53.5653
21
-85.1502
0
LINE
8
BLACK
6
CONTINUOUS
10
53.5653
20
-85.1502
11
53.6077
21
-85.1326
0
LINE
8
BLACK
6
CONTINUOUS
10
53.6077
20
-85.1326
11
69.6077
21
-85.1326
0
LINE
8
BLACK
6
CONTINUOUS
10
69.6077
20
-85.1326
11
69.6501
21
-85.1502
0
LINE
8
BLACK
6
CONTINUOUS
10
69.6501
20
-85.1502
11
69.6677
21
-85.1926
0
LINE
8
BLACK
6
CONTINUOUS
10
69.6677
20
-85.1926
11
69.6677
21
-101.193
0
LINE
8
BLACK
6
CONTINUOUS
10
69.6677
20
-101.193
11
69.6501
21
-101.235
0
LINE
8
BLACK
6
CONTINUOUS
10
53.6677
20
-85.2526
11
53.6677
21
-101.133
0
LINE
8
BLACK
6
CONTINUOUS
10
53.6677
20
-101.133
11
69.5477
21
-101.133
0
LINE
8
BLACK
6
CONTINUOUS
10
69.5477
20
-101.133
11
69.5477
21
-85.2526
0
LINE
8
BLACK
6
CONTINUOUS
10
69.5477
20
-85.2526
11
53.6677
21
-85.2526
0
LINE
8
BLACK
6
CONTINUOUS
10
88.7001
20
-101.235
11
88.6577
21
-101.253
0
LINE
8
BLACK
6
CONTINUOUS
10
88.6577
20
-101.253
11
72.6577
21
-101.253
0
LINE
8
BLACK
6
CONTINUOUS
10
72.6577
20
-101.253
11
72.6153
21
-101.235
0
LINE
8
BLACK
6
CONTINUOUS
10
72.6153
20
-101.235
11
72.5977
21
-101.193
0
LINE
8
BLACK
6
CONTINUOUS
10
72.5977
20
-101.193
11
72.5977
21
-85.1926
0
LINE
8
BLACK
6
CONTINUOUS
10
72.5977
20
-85.1926
11
72.6153
21
-85.1502
0
LINE
8
BLACK
6
CONTINUOUS
10
72.6153
20
-85.1502
11
72.6577
21
-85.1326
0
LINE
8
BLACK
6
CONTINUOUS
10
72.6577
20
-85.1326
11
88.6577
21
-85.1326
0
LINE
8
BLACK
6
CONTINUOUS
10
88.6577
20
-85.1326
11
88.7001
21
-85.1502
0
LINE
8
BLACK
6
CONTINUOUS
10
88.7001
20
-85.1502
11
88.7177
21
-85.1926
0
LINE
8
BLACK
6
CONTINUOUS
10
88.7177
20
-85.1926
11
88.7177
21
-101.193
0
LINE
8
BLACK
6
CONTINUOUS
10
88.7177
20
-101.193
11
88.7001
21
-101.235
0
LINE
8
BLACK
6
CONTINUOUS
10
72.7177
20
-85.2526
11
72.7177
21
-101.133
0
LINE
8
BLACK
6
CONTINUOUS
10
72.7177
20
-101.133
11
88.5977
21
-101.133
0
LINE
8
BLACK
6
CONTINUOUS
10
88.5977
20
-101.133
11
88.5977
21
-85.2526
0
LINE
8
BLACK
6
CONTINUOUS
10
88.5977
20
-85.2526
11
72.7177
21
-85.2526
0
LINE
8
BLACK
6
CONTINUOUS
10
145.85
20
-82.185
11
145.808
21
-82.2026
0
LINE
8
BLACK
6
CONTINUOUS
10
145.808
20
-82.2026
11
129.808
21
-82.2026
0
LINE
8
BLACK
6
CONTINUOUS
10
129.808
20
-82.2026
11
129.765
21
-82.185
0
LINE
8
BLACK
6
CONTINUOUS
10
129.765
20
-82.185
11
129.748
21
-82.1426
0
LINE
8
BLACK
6
CONTINUOUS
10
129.748
20
-82.1426
11
129.748
21
-66.1426
0
LINE
8
BLACK
6
CONTINUOUS
10
129.748
20
-66.1426
11
129.765
21
-66.1002
0
LINE
8
BLACK
6
CONTINUOUS
10
129.765
20
-66.1002
11
129.808
21
-66.0826
0
LINE
8
BLACK
6
CONTINUOUS
10
129.808
20
-66.0826
11
145.808
21
-66.0826
0
LINE
8
BLACK
6
CONTINUOUS
10
145.808
20
-66.0826
11
145.85
21
-66.1002
0
LINE
8
BLACK
6
CONTINUOUS
10
145.85
20
-66.1002
11
145.868
21
-66.1426
0
LINE
8
BLACK
6
CONTINUOUS
10
145.868
20
-66.1426
11
145.868
21
-82.1426
0
LINE
8
BLACK
6
CONTINUOUS
10
145.868
20
-82.1426
11
145.85
21
-82.185
0
LINE
8
BLACK
6
CONTINUOUS
10
129.868
20
-66.2026
11
129.868
21
-82.0826
0
LINE
8
BLACK
6
CONTINUOUS
10
129.868
20
-82.0826
11
145.748
21
-82.0826
0
LINE
8
BLACK
6
CONTINUOUS
10
145.748
20
-82.0826
11
145.748
21
-66.2026
0
LINE
8
BLACK
6
CONTINUOUS
10
145.748
20
-66.2026
11
129.868
21
-66.2026
0
LINE
8
BLACK
6
CONTINUOUS
10
241.1
20
-82.185
11
241.058
21
-82.2026
0
LINE
8
BLACK
6
CONTINUOUS
10
241.058
20
-82.2026
11
225.058
21
-82.2026
0
LINE
8
BLACK
6
CONTINUOUS
10
225.058
20
-82.2026
11
225.015
21
-82.185
0
LINE
8
BLACK
6
CONTINUOUS
10
225.015
20
-82.185
11
224.998
21
-82.1426
0
LINE
8
BLACK
6
CONTINUOUS
10
224.998
20
-82.1426
11
224.998
21
-66.1426
0
LINE
8
BLACK
6
CONTINUOUS
10
224.998
20
-66.1426
11
225.015
21
-66.1002
0
LINE
8
BLACK
6
CONTINUOUS
10
225.015
20
-66.1002
11
225.058
21
-66.0826
0
LINE
8
BLACK
6
CONTINUOUS
10
225.058
20
-66.0826
11
241.058
21
-66.0826
0
LINE
8
BLACK
6
CONTINUOUS
10
241.058
20
-66.0826
11
241.1
21
-66.1002
0
LINE
8
BLACK
6
CONTINUOUS
10
241.1
20
-66.1002
11
241.118
21
-66.1426
0
LINE
8
BLACK
6
CONTINUOUS
10
241.118
20
-66.1426
11
241.118
21
-82.1426
0
LINE
8
BLACK
6
CONTINUOUS
10
241.118
20
-82.1426
11
241.1
21
-82.185
0
LINE
8
BLACK
6
CONTINUOUS
10
225.118
20
-66.2026
11
225.118
21
-82.0826
0
LINE
8
BLACK
6
CONTINUOUS
10
225.118
20
-82.0826
11
240.998
21
-82.0826
0
LINE
8
BLACK
6
CONTINUOUS
10
240.998
20
-82.0826
11
240.998
21
-66.2026
0
LINE
8
BLACK
6
CONTINUOUS
10
240.998
20
-66.2026
11
225.118
21
-66.2026
0
LINE
8
BLACK
6
CONTINUOUS
10
69.6501
20
-82.185
11
69.6077
21
-82.2026
0
LINE
8
BLACK
6
CONTINUOUS
10
69.6077
20
-82.2026
11
53.6077
21
-82.2026
0
LINE
8
BLACK
6
CONTINUOUS
10
53.6077
20
-82.2026
11
53.5653
21
-82.185
0
LINE
8
BLACK
6
CONTINUOUS
10
53.5653
20
-82.185
11
53.5477
21
-82.1426
0
LINE
8
BLACK
6
CONTINUOUS
10
53.5477
20
-82.1426
11
53.5477
21
-66.1426
0
LINE
8
BLACK
6
CONTINUOUS
10
53.5477
20
-66.1426
11
53.5653
21
-66.1002
0
LINE
8
BLACK
6
CONTINUOUS
10
53.5653
20
-66.1002
11
53.6077
21
-66.0826
0
LINE
8
BLACK
6
CONTINUOUS
10
53.6077
20
-66.0826
11
69.6077
21
-66.0826
0
LINE
8
BLACK
6
CONTINUOUS
10
69.6077
20
-66.0826
11
69.6501
21
-66.1002
0
LINE
8
BLACK
6
CONTINUOUS
10
69.6501
20
-66.1002
11
69.6677
21
-66.1426
0
LINE
8
BLACK
6
CONTINUOUS
10
69.6677
20
-66.1426
11
69.6677
21
-82.1426
0
LINE
8
BLACK
6
CONTINUOUS
10
69.6677
20
-82.1426
11
69.6501
21
-82.185
0
LINE
8
BLACK
6
CONTINUOUS
10
53.6677
20
-66.2026
11
53.6677
21
-82.0826
0
LINE
8
BLACK
6
CONTINUOUS
10
53.6677
20
-82.0826
11
69.5477
21
-82.0826
0
LINE
8
BLACK
6
CONTINUOUS
10
69.5477
20
-82.0826
11
69.5477
21
-66.2026
0
LINE
8
BLACK
6
CONTINUOUS
10
69.5477
20
-66.2026
11
53.6677
21
-66.2026
0
LINE
8
BLACK
6
CONTINUOUS
10
164.9
20
-82.185
11
164.858
21
-82.2026
0
LINE
8
BLACK
6
CONTINUOUS
10
164.858
20
-82.2026
11
148.858
21
-82.2026
0
LINE
8
BLACK
6
CONTINUOUS
10
148.858
20
-82.2026
11
148.815
21
-82.185
0
LINE
8
BLACK
6
CONTINUOUS
10
148.815
20
-82.185
11
148.798
21
-82.1426
0
LINE
8
BLACK
6
CONTINUOUS
10
148.798
20
-82.1426
11
148.798
21
-66.1426
0
LINE
8
BLACK
6
CONTINUOUS
10
148.798
20
-66.1426
11
148.815
21
-66.1002
0
LINE
8
BLACK
6
CONTINUOUS
10
148.815
20
-66.1002
11
148.858
21
-66.0826
0
LINE
8
BLACK
6
CONTINUOUS
10
148.858
20
-66.0826
11
164.858
21
-66.0826
0
LINE
8
BLACK
6
CONTINUOUS
10
164.858
20
-66.0826
11
164.9
21
-66.1002
0
LINE
8
BLACK
6
CONTINUOUS
10
164.9
20
-66.1002
11
164.918
21
-66.1426
0
LINE
8
BLACK
6
CONTINUOUS
10
164.918
20
-66.1426
11
164.918
21
-82.1426
0
LINE
8
BLACK
6
CONTINUOUS
10
164.918
20
-82.1426
11
164.9
21
-82.185
0
LINE
8
BLACK
6
CONTINUOUS
10
148.918
20
-66.2026
11
148.918
21
-82.0826
0
LINE
8
BLACK
6
CONTINUOUS
10
148.918
20
-82.0826
11
164.798
21
-82.0826
0
LINE
8
BLACK
6
CONTINUOUS
10
164.798
20
-82.0826
11
164.798
21
-66.2026
0
LINE
8
BLACK
6
CONTINUOUS
10
164.798
20
-66.2026
11
148.918
21
-66.2026
0
LINE
8
BLACK
6
CONTINUOUS
10
107.75
20
-82.185
11
107.708
21
-82.2026
0
LINE
8
BLACK
6
CONTINUOUS
10
107.708
20
-82.2026
11
91.7077
21
-82.2026
0
LINE
8
BLACK
6
CONTINUOUS
10
91.7077
20
-82.2026
11
91.6653
21
-82.185
0
LINE
8
BLACK
6
CONTINUOUS
10
91.6653
20
-82.185
11
91.6477
21
-82.1426
0
LINE
8
BLACK
6
CONTINUOUS
10
91.6477
20
-82.1426
11
91.6477
21
-66.1426
0
LINE
8
BLACK
6
CONTINUOUS
10
91.6477
20
-66.1426
11
91.6653
21
-66.1002
0
LINE
8
BLACK
6
CONTINUOUS
10
91.6653
20
-66.1002
11
91.7077
21
-66.0826
0
LINE
8
BLACK
6
CONTINUOUS
10
91.7077
20
-66.0826
11
107.708
21
-66.0826
0
LINE
8
BLACK
6
CONTINUOUS
10
107.708
20
-66.0826
11
107.75
21
-66.1002
0
LINE
8
BLACK
6
CONTINUOUS
10
107.75
20
-66.1002
11
107.768
21
-66.1426
0
LINE
8
BLACK
6
CONTINUOUS
10
107.768
20
-66.1426
11
107.768
21
-82.1426
0
LINE
8
BLACK
6
CONTINUOUS
10
107.768
20
-82.1426
11
107.75
21
-82.185
0
LINE
8
BLACK
6
CONTINUOUS
10
91.7677
20
-66.2026
11
91.7677
21
-82.0826
0
LINE
8
BLACK
6
CONTINUOUS
10
91.7677
20
-82.0826
11
107.648
21
-82.0826
0
LINE
8
BLACK
6
CONTINUOUS
10
107.648
20
-82.0826
11
107.648
21
-66.2026
0
LINE
8
BLACK
6
CONTINUOUS
10
107.648
20
-66.2026
11
91.7677
21
-66.2026
0
LINE
8
BLACK
6
CONTINUOUS
10
203
20
-82.185
11
202.958
21
-82.2026
0
LINE
8
BLACK
6
CONTINUOUS
10
202.958
20
-82.2026
11
186.958
21
-82.2026
0
LINE
8
BLACK
6
CONTINUOUS
10
186.958
20
-82.2026
11
186.915
21
-82.185
0
LINE
8
BLACK
6
CONTINUOUS
10
186.915
20
-82.185
11
186.898
21
-82.1426
0
LINE
8
BLACK
6
CONTINUOUS
10
186.898
20
-82.1426
11
186.898
21
-66.1426
0
LINE
8
BLACK
6
CONTINUOUS
10
186.898
20
-66.1426
11
186.915
21
-66.1002
0
LINE
8
BLACK
6
CONTINUOUS
10
186.915
20
-66.1002
11
186.958
21
-66.0826
0
LINE
8
BLACK
6
CONTINUOUS
10
186.958
20
-66.0826
11
202.958
21
-66.0826
0
LINE
8
BLACK
6
CONTINUOUS
10
202.958
20
-66.0826
11
203
21
-66.1002
0
LINE
8
BLACK
6
CONTINUOUS
10
203
20
-66.1002
11
203.018
21
-66.1426
0
LINE
8
BLACK
6
CONTINUOUS
10
203.018
20
-66.1426
11
203.018
21
-82.1426
0
LINE
8
BLACK
6
CONTINUOUS
10
203.018
20
-82.1426
11
203
21
-82.185
0
LINE
8
BLACK
6
CONTINUOUS
10
187.018
20
-66.2026
11
187.018
21
-82.0826
0
LINE
8
BLACK
6
CONTINUOUS
10
187.018
20
-82.0826
11
202.898
21
-82.0826
0
LINE
8
BLACK
6
CONTINUOUS
10
202.898
20
-82.0826
11
202.898
21
-66.2026
0
LINE
8
BLACK
6
CONTINUOUS
10
202.898
20
-66.2026
11
187.018
21
-66.2026
0
LINE
8
BLACK
6
CONTINUOUS
10
88.7001
20
-82.185
11
88.6577
21
-82.2026
0
LINE
8
BLACK
6
CONTINUOUS
10
88.6577
20
-82.2026
11
72.6577
21
-82.2026
0
LINE
8
BLACK
6
CONTINUOUS
10
72.6577
20
-82.2026
11
72.6153
21
-82.185
0
LINE
8
BLACK
6
CONTINUOUS
10
72.6153
20
-82.185
11
72.5977
21
-82.1426
0
LINE
8
BLACK
6
CONTINUOUS
10
72.5977
20
-82.1426
11
72.5977
21
-66.1426
0
LINE
8
BLACK
6
CONTINUOUS
10
72.5977
20
-66.1426
11
72.6153
21
-66.1002
0
LINE
8
BLACK
6
CONTINUOUS
10
72.6153
20
-66.1002
11
72.6577
21
-66.0826
0
LINE
8
BLACK
6
CONTINUOUS
10
72.6577
20
-66.0826
11
88.6577
21
-66.0826
0
LINE
8
BLACK
6
CONTINUOUS
10
88.6577
20
-66.0826
11
88.7001
21
-66.1002
0
LINE
8
BLACK
6
CONTINUOUS
10
88.7001
20
-66.1002
11
88.7177
21
-66.1426
0
LINE
8
BLACK
6
CONTINUOUS
10
88.7177
20
-66.1426
11
88.7177
21
-82.1426
0
LINE
8
BLACK
6
CONTINUOUS
10
88.7177
20
-82.1426
11
88.7001
21
-82.185
0
LINE
8
BLACK
6
CONTINUOUS
10
72.7177
20
-66.2026
11
72.7177
21
-82.0826
0
LINE
8
BLACK
6
CONTINUOUS
10
72.7177
20
-82.0826
11
88.5977
21
-82.0826
0
LINE
8
BLACK
6
CONTINUOUS
10
88.5977
20
-82.0826
11
88.5977
21
-66.2026
0
LINE
8
BLACK
6
CONTINUOUS
10
88.5977
20
-66.2026
11
72.7177
21
-66.2026
0
LINE
8
BLACK
6
CONTINUOUS
10
126.8
20
-82.185
11
126.758
21
-82.2026
0
LINE
8
BLACK
6
CONTINUOUS
10
126.758
20
-82.2026
11
110.758
21
-82.2026
0
LINE
8
BLACK
6
CONTINUOUS
10
110.758
20
-82.2026
11
110.715
21
-82.185
0
LINE
8
BLACK
6
CONTINUOUS
10
110.715
20
-82.185
11
110.698
21
-82.1426
0
LINE
8
BLACK
6
CONTINUOUS
10
110.698
20
-82.1426
11
110.698
21
-66.1426
0
LINE
8
BLACK
6
CONTINUOUS
10
110.698
20
-66.1426
11
110.715
21
-66.1002
0
LINE
8
BLACK
6
CONTINUOUS
10
110.715
20
-66.1002
11
110.758
21
-66.0826
0
LINE
8
BLACK
6
CONTINUOUS
10
110.758
20
-66.0826
11
126.758
21
-66.0826
0
LINE
8
BLACK
6
CONTINUOUS
10
126.758
20
-66.0826
11
126.8
21
-66.1002
0
LINE
8
BLACK
6
CONTINUOUS
10
126.8
20
-66.1002
11
126.818
21
-66.1426
0
LINE
8
BLACK
6
CONTINUOUS
10
126.818
20
-66.1426
11
126.818
21
-82.1426
0
LINE
8
BLACK
6
CONTINUOUS
10
126.818
20
-82.1426
11
126.8
21
-82.185
0
LINE
8
BLACK
6
CONTINUOUS
10
110.818
20
-66.2026
11
110.818
21
-82.0826
0
LINE
8
BLACK
6
CONTINUOUS
10
110.818
20
-82.0826
11
126.698
21
-82.0826
0
LINE
8
BLACK
6
CONTINUOUS
10
126.698
20
-82.0826
11
126.698
21
-66.2026
0
LINE
8
BLACK
6
CONTINUOUS
10
126.698
20
-66.2026
11
110.818
21
-66.2026
0
LINE
8
BLACK
6
CONTINUOUS
10
183.95
20
-82.185
11
183.908
21
-82.2026
0
LINE
8
BLACK
6
CONTINUOUS
10
183.908
20
-82.2026
11
167.908
21
-82.2026
0
LINE
8
BLACK
6
CONTINUOUS
10
167.908
20
-82.2026
11
167.865
21
-82.185
0
LINE
8
BLACK
6
CONTINUOUS
10
167.865
20
-82.185
11
167.848
21
-82.1426
0
LINE
8
BLACK
6
CONTINUOUS
10
167.848
20
-82.1426
11
167.848
21
-66.1426
0
LINE
8
BLACK
6
CONTINUOUS
10
167.848
20
-66.1426
11
167.865
21
-66.1002
0
LINE
8
BLACK
6
CONTINUOUS
10
167.865
20
-66.1002
11
167.908
21
-66.0826
0
LINE
8
BLACK
6
CONTINUOUS
10
167.908
20
-66.0826
11
183.908
21
-66.0826
0
LINE
8
BLACK
6
CONTINUOUS
10
183.908
20
-66.0826
11
183.95
21
-66.1002
0
LINE
8
BLACK
6
CONTINUOUS
10
183.95
20
-66.1002
11
183.968
21
-66.1426
0
LINE
8
BLACK
6
CONTINUOUS
10
183.968
20
-66.1426
11
183.968
21
-82.1426
0
LINE
8
BLACK
6
CONTINUOUS
10
183.968
20
-82.1426
11
183.95
21
-82.185
0
LINE
8
BLACK
6
CONTINUOUS
10
167.968
20
-66.2026
11
167.968
21
-82.0826
0
LINE
8
BLACK
6
CONTINUOUS
10
167.968
20
-82.0826
11
183.848
21
-82.0826
0
LINE
8
BLACK
6
CONTINUOUS
10
183.848
20
-82.0826
11
183.848
21
-66.2026
0
LINE
8
BLACK
6
CONTINUOUS
10
183.848
20
-66.2026
11
167.968
21
-66.2026
0
LINE
8
BLACK
6
CONTINUOUS
10
222.05
20
-82.185
11
222.008
21
-82.2026
0
LINE
8
BLACK
6
CONTINUOUS
10
222.008
20
-82.2026
11
206.008
21
-82.2026
0
LINE
8
BLACK
6
CONTINUOUS
10
206.008
20
-82.2026
11
205.965
21
-82.185
0
LINE
8
BLACK
6
CONTINUOUS
10
205.965
20
-82.185
11
205.948
21
-82.1426
0
LINE
8
BLACK
6
CONTINUOUS
10
205.948
20
-82.1426
11
205.948
21
-66.1426
0
LINE
8
BLACK
6
CONTINUOUS
10
205.948
20
-66.1426
11
205.965
21
-66.1002
0
LINE
8
BLACK
6
CONTINUOUS
10
205.965
20
-66.1002
11
206.008
21
-66.0826
0
LINE
8
BLACK
6
CONTINUOUS
10
206.008
20
-66.0826
11
222.008
21
-66.0826
0
LINE
8
BLACK
6
CONTINUOUS
10
222.008
20
-66.0826
11
222.05
21
-66.1002
0
LINE
8
BLACK
6
CONTINUOUS
10
222.05
20
-66.1002
11
222.068
21
-66.1426
0
LINE
8
BLACK
6
CONTINUOUS
10
222.068
20
-66.1426
11
222.068
21
-82.1426
0
LINE
8
BLACK
6
CONTINUOUS
10
222.068
20
-82.1426
11
222.05
21
-82.185
0
LINE
8
BLACK
6
CONTINUOUS
10
206.068
20
-66.2026
11
206.068
21
-82.0826
0
LINE
8
BLACK
6
CONTINUOUS
10
206.068
20
-82.0826
11
221.948
21
-82.0826
0
LINE
8
BLACK
6
CONTINUOUS
10
221.948
20
-82.0826
11
221.948
21
-66.2026
0
LINE
8
BLACK
6
CONTINUOUS
10
221.948
20
-66.2026
11
206.068
21
-66.2026
0
LINE
8
BLACK
6
CONTINUOUS
10
173.718
20
-57.7392
11
173.711
21
-57.7215
0
LINE
8
BLACK
6
CONTINUOUS
10
173.711
20
-57.7215
11
173.711
21
-50.1777
0
LINE
8
BLACK
6
CONTINUOUS
10
173.711
20
-50.1777
11
173.718
21
-50.16
0
LINE
8
BLACK
6
CONTINUOUS
10
173.718
20
-50.16
11
173.736
21
-50.1527
0
LINE
8
BLACK
6
CONTINUOUS
10
173.736
20
-50.1527
11
183.299
21
-50.1527
0
LINE
8
BLACK
6
CONTINUOUS
10
183.299
20
-50.1527
11
183.317
21
-50.16
0
LINE
8
BLACK
6
CONTINUOUS
10
183.317
20
-50.16
11
183.324
21
-50.1777
0
LINE
8
BLACK
6
CONTINUOUS
10
183.324
20
-50.1777
11
183.324
21
-57.7215
0
LINE
8
BLACK
6
CONTINUOUS
10
183.324
20
-57.7215
11
183.317
21
-57.7392
0
LINE
8
BLACK
6
CONTINUOUS
10
183.317
20
-57.7392
11
183.299
21
-57.7465
0
LINE
8
BLACK
6
CONTINUOUS
10
183.299
20
-57.7465
11
173.736
21
-57.7465
0
LINE
8
BLACK
6
CONTINUOUS
10
173.736
20
-57.7465
11
173.718
21
-57.7392
0
LINE
8
BLACK
6
CONTINUOUS
10
173.761
20
-50.2027
11
173.761
21
-57.6965
0
LINE
8
BLACK
6
CONTINUOUS
10
173.761
20
-57.6965
11
183.274
21
-57.6965
0
LINE
8
BLACK
6
CONTINUOUS
10
183.274
20
-57.6965
11
183.274
21
-50.2027
0
LINE
8
BLACK
6
CONTINUOUS
10
183.274
20
-50.2027
11
173.761
21
-50.2027
0
LINE
8
BLACK
6
CONTINUOUS
10
89.0402
20
-121.525
11
89.1036
21
-121.321
0
LINE
8
BLACK
6
CONTINUOUS
10
89.1036
20
-121.321
11
89.2031
21
-121.131
0
LINE
8
BLACK
6
CONTINUOUS
10
89.2031
20
-121.131
11
89.3355
21
-120.964
0
LINE
8
BLACK
6
CONTINUOUS
10
89.3355
20
-120.964
11
89.4962
21
-120.823
0
LINE
8
BLACK
6
CONTINUOUS
10
89.4962
20
-120.823
11
89.6799
21
-120.713
0
LINE
8
BLACK
6
CONTINUOUS
10
89.6799
20
-120.713
11
89.8804
21
-120.639
0
LINE
8
BLACK
6
CONTINUOUS
10
89.8804
20
-120.639
11
90.0911
21
-120.603
0
LINE
8
BLACK
6
CONTINUOUS
10
90.0911
20
-120.603
11
90.3048
21
-120.606
0
LINE
8
BLACK
6
CONTINUOUS
10
90.3048
20
-120.606
11
90.5144
21
-120.648
0
LINE
8
BLACK
6
CONTINUOUS
10
90.5144
20
-120.648
11
90.713
21
-120.727
0
LINE
8
BLACK
6
CONTINUOUS
10
90.713
20
-120.727
11
90.8937
21
-120.841
0
LINE
8
BLACK
6
CONTINUOUS
10
90.8937
20
-120.841
11
91.0507
21
-120.986
0
LINE
8
BLACK
6
CONTINUOUS
10
91.0507
20
-120.986
11
91.1786
21
-121.157
0
LINE
8
BLACK
6
CONTINUOUS
10
91.1786
20
-121.157
11
91.2731
21
-121.349
0
LINE
8
BLACK
6
CONTINUOUS
10
91.2731
20
-121.349
11
91.3311
21
-121.555
0
LINE
8
BLACK
6
CONTINUOUS
10
91.3311
20
-121.555
11
91.3507
21
-121.768
0
LINE
8
BLACK
6
CONTINUOUS
10
91.3507
20
-121.768
11
91.3491
21
-121.829
0
LINE
8
BLACK
6
CONTINUOUS
10
91.3491
20
-121.829
11
91.3184
21
-122.04
0
LINE
8
BLACK
6
CONTINUOUS
10
91.3184
20
-122.04
11
91.2497
21
-122.243
0
LINE
8
BLACK
6
CONTINUOUS
10
91.2497
20
-122.243
11
91.1453
21
-122.429
0
LINE
8
BLACK
6
CONTINUOUS
10
91.1453
20
-122.429
11
91.0086
21
-122.594
0
LINE
8
BLACK
6
CONTINUOUS
10
91.0086
20
-122.594
11
90.8443
21
-122.73
0
LINE
8
BLACK
6
CONTINUOUS
10
90.8443
20
-122.73
11
90.6578
21
-122.835
0
LINE
8
BLACK
6
CONTINUOUS
10
90.6578
20
-122.835
11
90.4554
21
-122.903
0
LINE
8
BLACK
6
CONTINUOUS
10
90.4554
20
-122.903
11
90.2438
21
-122.934
0
LINE
8
BLACK
6
CONTINUOUS
10
90.2438
20
-122.934
11
90.0302
21
-122.926
0
LINE
8
BLACK
6
CONTINUOUS
10
90.0302
20
-122.926
11
89.8218
21
-122.878
0
LINE
8
BLACK
6
CONTINUOUS
10
89.8218
20
-122.878
11
89.6254
21
-122.794
0
LINE
8
BLACK
6
CONTINUOUS
10
89.6254
20
-122.794
11
89.4477
21
-122.675
0
LINE
8
BLACK
6
CONTINUOUS
10
89.4477
20
-122.675
11
89.2945
21
-122.526
0
LINE
8
BLACK
6
CONTINUOUS
10
89.2945
20
-122.526
11
89.1712
21
-122.352
0
LINE
8
BLACK
6
CONTINUOUS
10
89.1712
20
-122.352
11
89.0817
21
-122.157
0
LINE
8
BLACK
6
CONTINUOUS
10
89.0817
20
-122.157
11
89.0291
21
-121.95
0
LINE
8
BLACK
6
CONTINUOUS
10
89.0291
20
-121.95
11
89.0152
21
-121.738
0
LINE
8
BLACK
6
CONTINUOUS
10
89.0152
20
-121.738
11
89.0151
21
-121.737
0
LINE
8
BLACK
6
CONTINUOUS
10
89.0151
20
-121.737
11
89.0402
21
-121.525
0
LINE
8
BLACK
6
CONTINUOUS
10
89.1243
20
-122.142
11
89.2103
21
-122.329
0
LINE
8
BLACK
6
CONTINUOUS
10
89.2103
20
-122.329
11
89.3289
21
-122.497
0
LINE
8
BLACK
6
CONTINUOUS
10
89.3289
20
-122.497
11
89.4761
21
-122.64
0
LINE
8
BLACK
6
CONTINUOUS
10
89.4761
20
-122.64
11
89.647
21
-122.754
0
LINE
8
BLACK
6
CONTINUOUS
10
89.647
20
-122.754
11
89.8357
21
-122.835
0
LINE
8
BLACK
6
CONTINUOUS
10
89.8357
20
-122.835
11
90.0361
21
-122.881
0
LINE
8
BLACK
6
CONTINUOUS
10
90.0361
20
-122.881
11
90.2415
21
-122.889
0
LINE
8
BLACK
6
CONTINUOUS
10
90.2415
20
-122.889
11
90.4448
21
-122.859
0
LINE
8
BLACK
6
CONTINUOUS
10
90.4448
20
-122.859
11
90.6394
21
-122.793
0
LINE
8
BLACK
6
CONTINUOUS
10
90.6394
20
-122.793
11
90.8187
21
-122.693
0
LINE
8
BLACK
6
CONTINUOUS
10
90.8187
20
-122.693
11
90.9766
21
-122.562
0
LINE
8
BLACK
6
CONTINUOUS
10
90.9766
20
-122.562
11
91.108
21
-122.404
0
LINE
8
BLACK
6
CONTINUOUS
10
91.108
20
-122.404
11
91.2084
21
-122.224
0
LINE
8
BLACK
6
CONTINUOUS
10
91.2084
20
-122.224
11
91.2745
21
-122.03
0
LINE
8
BLACK
6
CONTINUOUS
10
91.2745
20
-122.03
11
91.304
21
-121.826
0
LINE
8
BLACK
6
CONTINUOUS
10
91.304
20
-121.826
11
91.3055
21
-121.768
0
LINE
8
BLACK
6
CONTINUOUS
10
91.3055
20
-121.768
11
91.2867
21
-121.563
0
LINE
8
BLACK
6
CONTINUOUS
10
91.2867
20
-121.563
11
91.2309
21
-121.365
0
LINE
8
BLACK
6
CONTINUOUS
10
91.2309
20
-121.365
11
91.14
21
-121.181
0
LINE
8
BLACK
6
CONTINUOUS
10
91.14
20
-121.181
11
91.0171
21
-121.016
0
LINE
8
BLACK
6
CONTINUOUS
10
91.0171
20
-121.016
11
90.8662
21
-120.877
0
LINE
8
BLACK
6
CONTINUOUS
10
90.8662
20
-120.877
11
90.6924
21
-120.767
0
LINE
8
BLACK
6
CONTINUOUS
10
90.6924
20
-120.767
11
90.5016
21
-120.691
0
LINE
8
BLACK
6
CONTINUOUS
10
90.5016
20
-120.691
11
90.3001
21
-120.651
0
LINE
8
BLACK
6
CONTINUOUS
10
90.3001
20
-120.651
11
90.0946
21
-120.648
0
LINE
8
BLACK
6
CONTINUOUS
10
90.0946
20
-120.648
11
89.8921
21
-120.683
0
LINE
8
BLACK
6
CONTINUOUS
10
89.8921
20
-120.683
11
89.6993
21
-120.754
0
LINE
8
BLACK
6
CONTINUOUS
10
89.6993
20
-120.754
11
89.5227
21
-120.859
0
LINE
8
BLACK
6
CONTINUOUS
10
89.5227
20
-120.859
11
89.3683
21
-120.995
0
LINE
8
BLACK
6
CONTINUOUS
10
89.3683
20
-120.995
11
89.241
21
-121.156
0
LINE
8
BLACK
6
CONTINUOUS
10
89.241
20
-121.156
11
89.1454
21
-121.338
0
LINE
8
BLACK
6
CONTINUOUS
10
89.1454
20
-121.338
11
89.0844
21
-121.534
0
LINE
8
BLACK
6
CONTINUOUS
10
89.0844
20
-121.534
11
89.0603
21
-121.738
0
LINE
8
BLACK
6
CONTINUOUS
10
89.0603
20
-121.738
11
89.0737
21
-121.943
0
LINE
8
BLACK
6
CONTINUOUS
10
89.0737
20
-121.943
11
89.1243
21
-122.142
0
LINE
8
BLACK
6
CONTINUOUS
10
203.34
20
-121.525
11
203.404
21
-121.321
0
LINE
8
BLACK
6
CONTINUOUS
10
203.404
20
-121.321
11
203.503
21
-121.131
0
LINE
8
BLACK
6
CONTINUOUS
10
203.503
20
-121.131
11
203.635
21
-120.964
0
LINE
8
BLACK
6
CONTINUOUS
10
203.635
20
-120.964
11
203.796
21
-120.823
0
LINE
8
BLACK
6
CONTINUOUS
10
203.796
20
-120.823
11
203.98
21
-120.713
0
LINE
8
BLACK
6
CONTINUOUS
10
203.98
20
-120.713
11
204.18
21
-120.639
0
LINE
8
BLACK
6
CONTINUOUS
10
204.18
20
-120.639
11
204.391
21
-120.603
0
LINE
8
BLACK
6
CONTINUOUS
10
204.391
20
-120.603
11
204.605
21
-120.606
0
LINE
8
BLACK
6
CONTINUOUS
10
204.605
20
-120.606
11
204.814
21
-120.648
0
LINE
8
BLACK
6
CONTINUOUS
10
204.814
20
-120.648
11
205.013
21
-120.727
0
LINE
8
BLACK
6
CONTINUOUS
10
205.013
20
-120.727
11
205.194
21
-120.841
0
LINE
8
BLACK
6
CONTINUOUS
10
205.194
20
-120.841
11
205.351
21
-120.986
0
LINE
8
BLACK
6
CONTINUOUS
10
205.351
20
-120.986
11
205.479
21
-121.157
0
LINE
8
BLACK
6
CONTINUOUS
10
205.479
20
-121.157
11
205.573
21
-121.349
0
LINE
8
BLACK
6
CONTINUOUS
10
205.573
20
-121.349
11
205.631
21
-121.555
0
LINE
8
BLACK
6
CONTINUOUS
10
205.631
20
-121.555
11
205.651
21
-121.768
0
LINE
8
BLACK
6
CONTINUOUS
10
205.651
20
-121.768
11
205.649
21
-121.829
0
LINE
8
BLACK
6
CONTINUOUS
10
205.649
20
-121.829
11
205.618
21
-122.04
0
LINE
8
BLACK
6
CONTINUOUS
10
205.618
20
-122.04
11
205.55
21
-122.243
0
LINE
8
BLACK
6
CONTINUOUS
10
205.55
20
-122.243
11
205.445
21
-122.429
0
LINE
8
BLACK
6
CONTINUOUS
10
205.445
20
-122.429
11
205.309
21
-122.594
0
LINE
8
BLACK
6
CONTINUOUS
10
205.309
20
-122.594
11
205.144
21
-122.73
0
LINE
8
BLACK
6
CONTINUOUS
10
205.144
20
-122.73
11
204.958
21
-122.835
0
LINE
8
BLACK
6
CONTINUOUS
10
204.958
20
-122.835
11
204.755
21
-122.903
0
LINE
8
BLACK
6
CONTINUOUS
10
204.755
20
-122.903
11
204.544
21
-122.934
0
LINE
8
BLACK
6
CONTINUOUS
10
204.544
20
-122.934
11
204.33
21
-122.926
0
LINE
8
BLACK
6
CONTINUOUS
10
204.33
20
-122.926
11
204.122
21
-122.878
0
LINE
8
BLACK
6
CONTINUOUS
10
204.122
20
-122.878
11
203.925
21
-122.794
0
LINE
8
BLACK
6
CONTINUOUS
10
203.925
20
-122.794
11
203.748
21
-122.675
0
LINE
8
BLACK
6
CONTINUOUS
10
203.748
20
-122.675
11
203.595
21
-122.526
0
LINE
8
BLACK
6
CONTINUOUS
10
203.595
20
-122.526
11
203.471
21
-122.352
0
LINE
8
BLACK
6
CONTINUOUS
10
203.471
20
-122.352
11
203.382
21
-122.157
0
LINE
8
BLACK
6
CONTINUOUS
10
203.382
20
-122.157
11
203.329
21
-121.95
0
LINE
8
BLACK
6
CONTINUOUS
10
203.329
20
-121.95
11
203.315
21
-121.738
0
LINE
8
BLACK
6
CONTINUOUS
10
203.315
20
-121.738
11
203.315
21
-121.737
0
LINE
8
BLACK
6
CONTINUOUS
10
203.315
20
-121.737
11
203.34
21
-121.525
0
LINE
8
BLACK
6
CONTINUOUS
10
203.424
20
-122.142
11
203.51
21
-122.329
0
LINE
8
BLACK
6
CONTINUOUS
10
203.51
20
-122.329
11
203.629
21
-122.497
0
LINE
8
BLACK
6
CONTINUOUS
10
203.629
20
-122.497
11
203.776
21
-122.64
0
LINE
8
BLACK
6
CONTINUOUS
10
203.776
20
-122.64
11
203.947
21
-122.754
0
LINE
8
BLACK
6
CONTINUOUS
10
203.947
20
-122.754
11
204.136
21
-122.835
0
LINE
8
BLACK
6
CONTINUOUS
10
204.136
20
-122.835
11
204.336
21
-122.881
0
LINE
8
BLACK
6
CONTINUOUS
10
204.336
20
-122.881
11
204.541
21
-122.889
0
LINE
8
BLACK
6
CONTINUOUS
10
204.541
20
-122.889
11
204.745
21
-122.859
0
LINE
8
BLACK
6
CONTINUOUS
10
204.745
20
-122.859
11
204.939
21
-122.793
0
LINE
8
BLACK
6
CONTINUOUS
10
204.939
20
-122.793
11
205.119
21
-122.693
0
LINE
8
BLACK
6
CONTINUOUS
10
205.119
20
-122.693
11
205.277
21
-122.562
0
LINE
8
BLACK
6
CONTINUOUS
10
205.277
20
-122.562
11
205.408
21
-122.404
0
LINE
8
BLACK
6
CONTINUOUS
10
205.408
20
-122.404
11
205.508
21
-122.224
0
LINE
8
BLACK
6
CONTINUOUS
10
205.508
20
-122.224
11
205.574
21
-122.03
0
LINE
8
BLACK
6
CONTINUOUS
10
205.574
20
-122.03
11
205.604
21
-121.826
0
LINE
8
BLACK
6
CONTINUOUS
10
205.604
20
-121.826
11
205.605
21
-121.768
0
LINE
8
BLACK
6
CONTINUOUS
10
205.605
20
-121.768
11
205.587
21
-121.563
0
LINE
8
BLACK
6
CONTINUOUS
10
205.587
20
-121.563
11
205.531
21
-121.365
0
LINE
8
BLACK
6
CONTINUOUS
10
205.531
20
-121.365
11
205.44
21
-121.181
0
LINE
8
BLACK
6
CONTINUOUS
10
205.44
20
-121.181
11
205.317
21
-121.016
0
LINE
8
BLACK
6
CONTINUOUS
10
205.317
20
-121.016
11
205.166
21
-120.877
0
LINE
8
BLACK
6
CONTINUOUS
10
205.166
20
-120.877
11
204.992
21
-120.767
0
LINE
8
BLACK
6
CONTINUOUS
10
204.992
20
-120.767
11
204.802
21
-120.691
0
LINE
8
BLACK
6
CONTINUOUS
10
204.802
20
-120.691
11
204.6
21
-120.651
0
LINE
8
BLACK
6
CONTINUOUS
10
204.6
20
-120.651
11
204.395
21
-120.648
0
LINE
8
BLACK
6
CONTINUOUS
10
204.395
20
-120.648
11
204.192
21
-120.683
0
LINE
8
BLACK
6
CONTINUOUS
10
204.192
20
-120.683
11
203.999
21
-120.754
0
LINE
8
BLACK
6
CONTINUOUS
10
203.999
20
-120.754
11
203.823
21
-120.859
0
LINE
8
BLACK
6
CONTINUOUS
10
203.823
20
-120.859
11
203.668
21
-120.995
0
LINE
8
BLACK
6
CONTINUOUS
10
203.668
20
-120.995
11
203.541
21
-121.156
0
LINE
8
BLACK
6
CONTINUOUS
10
203.541
20
-121.156
11
203.445
21
-121.338
0
LINE
8
BLACK
6
CONTINUOUS
10
203.445
20
-121.338
11
203.384
21
-121.534
0
LINE
8
BLACK
6
CONTINUOUS
10
203.384
20
-121.534
11
203.36
21
-121.738
0
LINE
8
BLACK
6
CONTINUOUS
10
203.36
20
-121.738
11
203.374
21
-121.943
0
LINE
8
BLACK
6
CONTINUOUS
10
203.374
20
-121.943
11
203.424
21
-122.142
0
LINE
8
BLACK
6
CONTINUOUS
10
146.19
20
-102.475
11
146.254
21
-102.271
0
LINE
8
BLACK
6
CONTINUOUS
10
146.254
20
-102.271
11
146.353
21
-102.081
0
LINE
8
BLACK
6
CONTINUOUS
10
146.353
20
-102.081
11
146.485
21
-101.914
0
LINE
8
BLACK
6
CONTINUOUS
10
146.485
20
-101.914
11
146.646
21
-101.773
0
LINE
8
BLACK
6
CONTINUOUS
10
146.646
20
-101.773
11
146.83
21
-101.663
0
LINE
8
BLACK
6
CONTINUOUS
10
146.83
20
-101.663
11
147.03
21
-101.589
0
LINE
8
BLACK
6
CONTINUOUS
10
147.03
20
-101.589
11
147.241
21
-101.553
0
LINE
8
BLACK
6
CONTINUOUS
10
147.241
20
-101.553
11
147.455
21
-101.556
0
LINE
8
BLACK
6
CONTINUOUS
10
147.455
20
-101.556
11
147.664
21
-101.598
0
LINE
8
BLACK
6
CONTINUOUS
10
147.664
20
-101.598
11
147.863
21
-101.677
0
LINE
8
BLACK
6
CONTINUOUS
10
147.863
20
-101.677
11
148.044
21
-101.791
0
LINE
8
BLACK
6
CONTINUOUS
10
148.044
20
-101.791
11
148.201
21
-101.936
0
LINE
8
BLACK
6
CONTINUOUS
10
148.201
20
-101.936
11
148.329
21
-102.107
0
LINE
8
BLACK
6
CONTINUOUS
10
148.329
20
-102.107
11
148.423
21
-102.299
0
LINE
8
BLACK
6
CONTINUOUS
10
148.423
20
-102.299
11
148.481
21
-102.505
0
LINE
8
BLACK
6
CONTINUOUS
10
148.481
20
-102.505
11
148.501
21
-102.718
0
LINE
8
BLACK
6
CONTINUOUS
10
148.501
20
-102.718
11
148.499
21
-102.779
0
LINE
8
BLACK
6
CONTINUOUS
10
148.499
20
-102.779
11
148.468
21
-102.99
0
LINE
8
BLACK
6
CONTINUOUS
10
148.468
20
-102.99
11
148.4
21
-103.193
0
LINE
8
BLACK
6
CONTINUOUS
10
148.4
20
-103.193
11
148.295
21
-103.379
0
LINE
8
BLACK
6
CONTINUOUS
10
148.295
20
-103.379
11
148.159
21
-103.544
0
LINE
8
BLACK
6
CONTINUOUS
10
148.159
20
-103.544
11
147.994
21
-103.68
0
LINE
8
BLACK
6
CONTINUOUS
10
147.994
20
-103.68
11
147.808
21
-103.785
0
LINE
8
BLACK
6
CONTINUOUS
10
147.808
20
-103.785
11
147.605
21
-103.853
0
LINE
8
BLACK
6
CONTINUOUS
10
147.605
20
-103.853
11
147.394
21
-103.884
0
LINE
8
BLACK
6
CONTINUOUS
10
147.394
20
-103.884
11
147.18
21
-103.876
0
LINE
8
BLACK
6
CONTINUOUS
10
147.18
20
-103.876
11
146.972
21
-103.828
0
LINE
8
BLACK
6
CONTINUOUS
10
146.972
20
-103.828
11
146.775
21
-103.744
0
LINE
8
BLACK
6
CONTINUOUS
10
146.775
20
-103.744
11
146.598
21
-103.625
0
LINE
8
BLACK
6
CONTINUOUS
10
146.598
20
-103.625
11
146.445
21
-103.476
0
LINE
8
BLACK
6
CONTINUOUS
10
146.445
20
-103.476
11
146.321
21
-103.302
0
LINE
8
BLACK
6
CONTINUOUS
10
146.321
20
-103.302
11
146.232
21
-103.107
0
LINE
8
BLACK
6
CONTINUOUS
10
146.232
20
-103.107
11
146.179
21
-102.9
0
LINE
8
BLACK
6
CONTINUOUS
10
146.179
20
-102.9
11
146.165
21
-102.688
0
LINE
8
BLACK
6
CONTINUOUS
10
146.165
20
-102.688
11
146.165
21
-102.687
0
LINE
8
BLACK
6
CONTINUOUS
10
146.165
20
-102.687
11
146.19
21
-102.475
0
LINE
8
BLACK
6
CONTINUOUS
10
146.274
20
-103.092
11
146.36
21
-103.279
0
LINE
8
BLACK
6
CONTINUOUS
10
146.36
20
-103.279
11
146.479
21
-103.447
0
LINE
8
BLACK
6
CONTINUOUS
10
146.479
20
-103.447
11
146.626
21
-103.59
0
LINE
8
BLACK
6
CONTINUOUS
10
146.626
20
-103.59
11
146.797
21
-103.704
0
LINE
8
BLACK
6
CONTINUOUS
10
146.797
20
-103.704
11
146.986
21
-103.785
0
LINE
8
BLACK
6
CONTINUOUS
10
146.986
20
-103.785
11
147.186
21
-103.831
0
LINE
8
BLACK
6
CONTINUOUS
10
147.186
20
-103.831
11
147.391
21
-103.839
0
LINE
8
BLACK
6
CONTINUOUS
10
147.391
20
-103.839
11
147.595
21
-103.809
0
LINE
8
BLACK
6
CONTINUOUS
10
147.595
20
-103.809
11
147.789
21
-103.743
0
LINE
8
BLACK
6
CONTINUOUS
10
147.789
20
-103.743
11
147.969
21
-103.643
0
LINE
8
BLACK
6
CONTINUOUS
10
147.969
20
-103.643
11
148.127
21
-103.512
0
LINE
8
BLACK
6
CONTINUOUS
10
148.127
20
-103.512
11
148.258
21
-103.354
0
LINE
8
BLACK
6
CONTINUOUS
10
148.258
20
-103.354
11
148.358
21
-103.174
0
LINE
8
BLACK
6
CONTINUOUS
10
148.358
20
-103.174
11
148.424
21
-102.98
0
LINE
8
BLACK
6
CONTINUOUS
10
148.424
20
-102.98
11
148.454
21
-102.776
0
LINE
8
BLACK
6
CONTINUOUS
10
148.454
20
-102.776
11
148.455
21
-102.718
0
LINE
8
BLACK
6
CONTINUOUS
10
148.455
20
-102.718
11
148.437
21
-102.513
0
LINE
8
BLACK
6
CONTINUOUS
10
148.437
20
-102.513
11
148.381
21
-102.315
0
LINE
8
BLACK
6
CONTINUOUS
10
148.381
20
-102.315
11
148.29
21
-102.131
0
LINE
8
BLACK
6
CONTINUOUS
10
148.29
20
-102.131
11
148.167
21
-101.966
0
LINE
8
BLACK
6
CONTINUOUS
10
148.167
20
-101.966
11
148.016
21
-101.827
0
LINE
8
BLACK
6
CONTINUOUS
10
148.016
20
-101.827
11
147.842
21
-101.717
0
LINE
8
BLACK
6
CONTINUOUS
10
147.842
20
-101.717
11
147.652
21
-101.641
0
LINE
8
BLACK
6
CONTINUOUS
10
147.652
20
-101.641
11
147.45
21
-101.601
0
LINE
8
BLACK
6
CONTINUOUS
10
147.45
20
-101.601
11
147.245
21
-101.598
0
LINE
8
BLACK
6
CONTINUOUS
10
147.245
20
-101.598
11
147.042
21
-101.633
0
LINE
8
BLACK
6
CONTINUOUS
10
147.042
20
-101.633
11
146.849
21
-101.704
0
LINE
8
BLACK
6
CONTINUOUS
10
146.849
20
-101.704
11
146.673
21
-101.809
0
LINE
8
BLACK
6
CONTINUOUS
10
146.673
20
-101.809
11
146.518
21
-101.945
0
LINE
8
BLACK
6
CONTINUOUS
10
146.518
20
-101.945
11
146.391
21
-102.106
0
LINE
8
BLACK
6
CONTINUOUS
10
146.391
20
-102.106
11
146.295
21
-102.288
0
LINE
8
BLACK
6
CONTINUOUS
10
146.295
20
-102.288
11
146.234
21
-102.484
0
LINE
8
BLACK
6
CONTINUOUS
10
146.234
20
-102.484
11
146.21
21
-102.688
0
LINE
8
BLACK
6
CONTINUOUS
10
146.21
20
-102.688
11
146.224
21
-102.893
0
LINE
8
BLACK
6
CONTINUOUS
10
146.224
20
-102.893
11
146.274
21
-103.092
0
LINE
8
BLACK
6
CONTINUOUS
10
203.34
20
-83.4248
11
203.404
21
-83.2206
0
LINE
8
BLACK
6
CONTINUOUS
10
203.404
20
-83.2206
11
203.503
21
-83.0315
0
LINE
8
BLACK
6
CONTINUOUS
10
203.503
20
-83.0315
11
203.635
21
-82.8636
0
LINE
8
BLACK
6
CONTINUOUS
10
203.635
20
-82.8636
11
203.796
21
-82.7227
0
LINE
8
BLACK
6
CONTINUOUS
10
203.796
20
-82.7227
11
203.98
21
-82.6134
0
LINE
8
BLACK
6
CONTINUOUS
10
203.98
20
-82.6134
11
204.18
21
-82.5394
0
LINE
8
BLACK
6
CONTINUOUS
10
204.18
20
-82.5394
11
204.391
21
-82.5032
0
LINE
8
BLACK
6
CONTINUOUS
10
204.391
20
-82.5032
11
204.605
21
-82.506
0
LINE
8
BLACK
6
CONTINUOUS
10
204.605
20
-82.506
11
204.814
21
-82.5477
0
LINE
8
BLACK
6
CONTINUOUS
10
204.814
20
-82.5477
11
205.013
21
-82.6269
0
LINE
8
BLACK
6
CONTINUOUS
10
205.013
20
-82.6269
11
205.194
21
-82.741
0
LINE
8
BLACK
6
CONTINUOUS
10
205.194
20
-82.741
11
205.351
21
-82.8861
0
LINE
8
BLACK
6
CONTINUOUS
10
205.351
20
-82.8861
11
205.479
21
-83.0573
0
LINE
8
BLACK
6
CONTINUOUS
10
205.479
20
-83.0573
11
205.573
21
-83.249
0
LINE
8
BLACK
6
CONTINUOUS
10
205.573
20
-83.249
11
205.631
21
-83.4547
0
LINE
8
BLACK
6
CONTINUOUS
10
205.631
20
-83.4547
11
205.651
21
-83.6676
0
LINE
8
BLACK
6
CONTINUOUS
10
205.651
20
-83.6676
11
205.649
21
-83.7287
0
LINE
8
BLACK
6
CONTINUOUS
10
205.649
20
-83.7287
11
205.618
21
-83.9403
0
LINE
8
BLACK
6
CONTINUOUS
10
205.618
20
-83.9403
11
205.55
21
-84.1427
0
LINE
8
BLACK
6
CONTINUOUS
10
205.55
20
-84.1427
11
205.445
21
-84.3292
0
LINE
8
BLACK
6
CONTINUOUS
10
205.445
20
-84.3292
11
205.309
21
-84.4935
0
LINE
8
BLACK
6
CONTINUOUS
10
205.309
20
-84.4935
11
205.144
21
-84.6302
0
LINE
8
BLACK
6
CONTINUOUS
10
205.144
20
-84.6302
11
204.958
21
-84.7346
0
LINE
8
BLACK
6
CONTINUOUS
10
204.958
20
-84.7346
11
204.755
21
-84.8033
0
LINE
8
BLACK
6
CONTINUOUS
10
204.755
20
-84.8033
11
204.544
21
-84.834
0
LINE
8
BLACK
6
CONTINUOUS
10
204.544
20
-84.834
11
204.33
21
-84.8256
0
LINE
8
BLACK
6
CONTINUOUS
10
204.33
20
-84.8256
11
204.122
21
-84.7784
0
LINE
8
BLACK
6
CONTINUOUS
10
204.122
20
-84.7784
11
203.925
21
-84.6941
0
LINE
8
BLACK
6
CONTINUOUS
10
203.925
20
-84.6941
11
203.748
21
-84.5753
0
LINE
8
BLACK
6
CONTINUOUS
10
203.748
20
-84.5753
11
203.595
21
-84.4262
0
LINE
8
BLACK
6
CONTINUOUS
10
203.595
20
-84.4262
11
203.471
21
-84.2516
0
LINE
8
BLACK
6
CONTINUOUS
10
203.471
20
-84.2516
11
203.382
21
-84.0575
0
LINE
8
BLACK
6
CONTINUOUS
10
203.382
20
-84.0575
11
203.329
21
-83.8503
0
LINE
8
BLACK
6
CONTINUOUS
10
203.329
20
-83.8503
11
203.315
21
-83.6382
0
LINE
8
BLACK
6
CONTINUOUS
10
203.315
20
-83.6382
11
203.315
21
-83.637
0
LINE
8
BLACK
6
CONTINUOUS
10
203.315
20
-83.637
11
203.34
21
-83.4248
0
LINE
8
BLACK
6
CONTINUOUS
10
203.424
20
-84.0424
11
203.51
21
-84.229
0
LINE
8
BLACK
6
CONTINUOUS
10
203.51
20
-84.229
11
203.629
21
-84.3968
0
LINE
8
BLACK
6
CONTINUOUS
10
203.629
20
-84.3968
11
203.776
21
-84.5402
0
LINE
8
BLACK
6
CONTINUOUS
10
203.776
20
-84.5402
11
203.947
21
-84.6543
0
LINE
8
BLACK
6
CONTINUOUS
10
203.947
20
-84.6543
11
204.136
21
-84.7354
0
LINE
8
BLACK
6
CONTINUOUS
10
204.136
20
-84.7354
11
204.336
21
-84.7808
0
LINE
8
BLACK
6
CONTINUOUS
10
204.336
20
-84.7808
11
204.541
21
-84.7889
0
LINE
8
BLACK
6
CONTINUOUS
10
204.541
20
-84.7889
11
204.745
21
-84.7594
0
LINE
8
BLACK
6
CONTINUOUS
10
204.745
20
-84.7594
11
204.939
21
-84.6933
0
LINE
8
BLACK
6
CONTINUOUS
10
204.939
20
-84.6933
11
205.119
21
-84.5929
0
LINE
8
BLACK
6
CONTINUOUS
10
205.119
20
-84.5929
11
205.277
21
-84.4615
0
LINE
8
BLACK
6
CONTINUOUS
10
205.277
20
-84.4615
11
205.408
21
-84.3036
0
LINE
8
BLACK
6
CONTINUOUS
10
205.408
20
-84.3036
11
205.508
21
-84.1243
0
LINE
8
BLACK
6
CONTINUOUS
10
205.508
20
-84.1243
11
205.574
21
-83.9297
0
LINE
8
BLACK
6
CONTINUOUS
10
205.574
20
-83.9297
11
205.604
21
-83.7264
0
LINE
8
BLACK
6
CONTINUOUS
10
205.604
20
-83.7264
11
205.605
21
-83.6676
0
LINE
8
BLACK
6
CONTINUOUS
10
205.605
20
-83.6676
11
205.587
21
-83.463
0
LINE
8
BLACK
6
CONTINUOUS
10
205.587
20
-83.463
11
205.531
21
-83.2652
0
LINE
8
BLACK
6
CONTINUOUS
10
205.531
20
-83.2652
11
205.44
21
-83.0809
0
LINE
8
BLACK
6
CONTINUOUS
10
205.44
20
-83.0809
11
205.317
21
-82.9163
0
LINE
8
BLACK
6
CONTINUOUS
10
205.317
20
-82.9163
11
205.166
21
-82.7768
0
LINE
8
BLACK
6
CONTINUOUS
10
205.166
20
-82.7768
11
204.992
21
-82.6672
0
LINE
8
BLACK
6
CONTINUOUS
10
204.992
20
-82.6672
11
204.802
21
-82.591
0
LINE
8
BLACK
6
CONTINUOUS
10
204.802
20
-82.591
11
204.6
21
-82.551
0
LINE
8
BLACK
6
CONTINUOUS
10
204.6
20
-82.551
11
204.395
21
-82.5483
0
LINE
8
BLACK
6
CONTINUOUS
10
204.395
20
-82.5483
11
204.192
21
-82.5831
0
LINE
8
BLACK
6
CONTINUOUS
10
204.192
20
-82.5831
11
203.999
21
-82.6542
0
LINE
8
BLACK
6
CONTINUOUS
10
203.999
20
-82.6542
11
203.823
21
-82.7592
0
LINE
8
BLACK
6
CONTINUOUS
10
203.823
20
-82.7592
11
203.668
21
-82.8947
0
LINE
8
BLACK
6
CONTINUOUS
10
203.668
20
-82.8947
11
203.541
21
-83.0561
0
LINE
8
BLACK
6
CONTINUOUS
10
203.541
20
-83.0561
11
203.445
21
-83.2379
0
LINE
8
BLACK
6
CONTINUOUS
10
203.445
20
-83.2379
11
203.384
21
-83.4342
0
LINE
8
BLACK
6
CONTINUOUS
10
203.384
20
-83.4342
11
203.36
21
-83.6382
0
LINE
8
BLACK
6
CONTINUOUS
10
203.36
20
-83.6382
11
203.374
21
-83.8432
0
LINE
8
BLACK
6
CONTINUOUS
10
203.374
20
-83.8432
11
203.424
21
-84.0424
0
LINE
8
BLACK
6
CONTINUOUS
10
89.0402
20
-83.4248
11
89.1036
21
-83.2206
0
LINE
8
BLACK
6
CONTINUOUS
10
89.1036
20
-83.2206
11
89.2031
21
-83.0315
0
LINE
8
BLACK
6
CONTINUOUS
10
89.2031
20
-83.0315
11
89.3355
21
-82.8636
0
LINE
8
BLACK
6
CONTINUOUS
10
89.3355
20
-82.8636
11
89.4962
21
-82.7227
0
LINE
8
BLACK
6
CONTINUOUS
10
89.4962
20
-82.7227
11
89.6799
21
-82.6134
0
LINE
8
BLACK
6
CONTINUOUS
10
89.6799
20
-82.6134
11
89.8804
21
-82.5394
0
LINE
8
BLACK
6
CONTINUOUS
10
89.8804
20
-82.5394
11
90.0911
21
-82.5032
0
LINE
8
BLACK
6
CONTINUOUS
10
90.0911
20
-82.5032
11
90.3048
21
-82.506
0
LINE
8
BLACK
6
CONTINUOUS
10
90.3048
20
-82.506
11
90.5144
21
-82.5477
0
LINE
8
BLACK
6
CONTINUOUS
10
90.5144
20
-82.5477
11
90.713
21
-82.6269
0
LINE
8
BLACK
6
CONTINUOUS
10
90.713
20
-82.6269
11
90.8937
21
-82.741
0
LINE
8
BLACK
6
CONTINUOUS
10
90.8937
20
-82.741
11
91.0507
21
-82.8861
0
LINE
8
BLACK
6
CONTINUOUS
10
91.0507
20
-82.8861
11
91.1786
21
-83.0573
0
LINE
8
BLACK
6
CONTINUOUS
10
91.1786
20
-83.0573
11
91.2731
21
-83.249
0
LINE
8
BLACK
6
CONTINUOUS
10
91.2731
20
-83.249
11
91.3311
21
-83.4547
0
LINE
8
BLACK
6
CONTINUOUS
10
91.3311
20
-83.4547
11
91.3507
21
-83.6676
0
LINE
8
BLACK
6
CONTINUOUS
10
91.3507
20
-83.6676
11
91.3491
21
-83.7287
0
LINE
8
BLACK
6
CONTINUOUS
10
91.3491
20
-83.7287
11
91.3184
21
-83.9403
0
LINE
8
BLACK
6
CONTINUOUS
10
91.3184
20
-83.9403
11
91.2497
21
-84.1427
0
LINE
8
BLACK
6
CONTINUOUS
10
91.2497
20
-84.1427
11
91.1453
21
-84.3292
0
LINE
8
BLACK
6
CONTINUOUS
10
91.1453
20
-84.3292
11
91.0086
21
-84.4935
0
LINE
8
BLACK
6
CONTINUOUS
10
91.0086
20
-84.4935
11
90.8443
21
-84.6302
0
LINE
8
BLACK
6
CONTINUOUS
10
90.8443
20
-84.6302
11
90.6578
21
-84.7346
0
LINE
8
BLACK
6
CONTINUOUS
10
90.6578
20
-84.7346
11
90.4554
21
-84.8033
0
LINE
8
BLACK
6
CONTINUOUS
10
90.4554
20
-84.8033
11
90.2438
21
-84.834
0
LINE
8
BLACK
6
CONTINUOUS
10
90.2438
20
-84.834
11
90.0302
21
-84.8256
0
LINE
8
BLACK
6
CONTINUOUS
10
90.0302
20
-84.8256
11
89.8218
21
-84.7784
0
LINE
8
BLACK
6
CONTINUOUS
10
89.8218
20
-84.7784
11
89.6254
21
-84.6941
0
LINE
8
BLACK
6
CONTINUOUS
10
89.6254
20
-84.6941
11
89.4477
21
-84.5753
0
LINE
8
BLACK
6
CONTINUOUS
10
89.4477
20
-84.5753
11
89.2945
21
-84.4262
0
LINE
8
BLACK
6
CONTINUOUS
10
89.2945
20
-84.4262
11
89.1712
21
-84.2516
0
LINE
8
BLACK
6
CONTINUOUS
10
89.1712
20
-84.2516
11
89.0817
21
-84.0575
0
LINE
8
BLACK
6
CONTINUOUS
10
89.0817
20
-84.0575
11
89.0291
21
-83.8503
0
LINE
8
BLACK
6
CONTINUOUS
10
89.0291
20
-83.8503
11
89.0152
21
-83.6382
0
LINE
8
BLACK
6
CONTINUOUS
10
89.0152
20
-83.6382
11
89.0151
21
-83.637
0
LINE
8
BLACK
6
CONTINUOUS
10
89.0151
20
-83.637
11
89.0402
21
-83.4248
0
LINE
8
BLACK
6
CONTINUOUS
10
89.1243
20
-84.0424
11
89.2103
21
-84.229
0
LINE
8
BLACK
6
CONTINUOUS
10
89.2103
20
-84.229
11
89.3289
21
-84.3968
0
LINE
8
BLACK
6
CONTINUOUS
10
89.3289
20
-84.3968
11
89.4761
21
-84.5402
0
LINE
8
BLACK
6
CONTINUOUS
10
89.4761
20
-84.5402
11
89.647
21
-84.6543
0
LINE
8
BLACK
6
CONTINUOUS
10
89.647
20
-84.6543
11
89.8357
21
-84.7354
0
LINE
8
BLACK
6
CONTINUOUS
10
89.8357
20
-84.7354
11
90.0361
21
-84.7808
0
LINE
8
BLACK
6
CONTINUOUS
10
90.0361
20
-84.7808
11
90.2415
21
-84.7889
0
LINE
8
BLACK
6
CONTINUOUS
10
90.2415
20
-84.7889
11
90.4448
21
-84.7594
0
LINE
8
BLACK
6
CONTINUOUS
10
90.4448
20
-84.7594
11
90.6394
21
-84.6933
0
LINE
8
BLACK
6
CONTINUOUS
10
90.6394
20
-84.6933
11
90.8187
21
-84.5929
0
LINE
8
BLACK
6
CONTINUOUS
10
90.8187
20
-84.5929
11
90.9766
21
-84.4615
0
LINE
8
BLACK
6
CONTINUOUS
10
90.9766
20
-84.4615
11
91.108
21
-84.3036
0
LINE
8
BLACK
6
CONTINUOUS
10
91.108
20
-84.3036
11
91.2084
21
-84.1243
0
LINE
8
BLACK
6
CONTINUOUS
10
91.2084
20
-84.1243
11
91.2745
21
-83.9297
0
LINE
8
BLACK
6
CONTINUOUS
10
91.2745
20
-83.9297
11
91.304
21
-83.7264
0
LINE
8
BLACK
6
CONTINUOUS
10
91.304
20
-83.7264
11
91.3055
21
-83.6676
0
LINE
8
BLACK
6
CONTINUOUS
10
91.3055
20
-83.6676
11
91.2867
21
-83.463
0
LINE
8
BLACK
6
CONTINUOUS
10
91.2867
20
-83.463
11
91.2309
21
-83.2652
0
LINE
8
BLACK
6
CONTINUOUS
10
91.2309
20
-83.2652
11
91.14
21
-83.0809
0
LINE
8
BLACK
6
CONTINUOUS
10
91.14
20
-83.0809
11
91.0171
21
-82.9163
0
LINE
8
BLACK
6
CONTINUOUS
10
91.0171
20
-82.9163
11
90.8662
21
-82.7768
0
LINE
8
BLACK
6
CONTINUOUS
10
90.8662
20
-82.7768
11
90.6924
21
-82.6672
0
LINE
8
BLACK
6
CONTINUOUS
10
90.6924
20
-82.6672
11
90.5016
21
-82.591
0
LINE
8
BLACK
6
CONTINUOUS
10
90.5016
20
-82.591
11
90.3001
21
-82.551
0
LINE
8
BLACK
6
CONTINUOUS
10
90.3001
20
-82.551
11
90.0946
21
-82.5483
0
LINE
8
BLACK
6
CONTINUOUS
10
90.0946
20
-82.5483
11
89.8921
21
-82.5831
0
LINE
8
BLACK
6
CONTINUOUS
10
89.8921
20
-82.5831
11
89.6993
21
-82.6542
0
LINE
8
BLACK
6
CONTINUOUS
10
89.6993
20
-82.6542
11
89.5227
21
-82.7592
0
LINE
8
BLACK
6
CONTINUOUS
10
89.5227
20
-82.7592
11
89.3683
21
-82.8947
0
LINE
8
BLACK
6
CONTINUOUS
10
89.3683
20
-82.8947
11
89.241
21
-83.0561
0
LINE
8
BLACK
6
CONTINUOUS
10
89.241
20
-83.0561
11
89.1454
21
-83.2379
0
LINE
8
BLACK
6
CONTINUOUS
10
89.1454
20
-83.2379
11
89.0844
21
-83.4342
0
LINE
8
BLACK
6
CONTINUOUS
10
89.0844
20
-83.4342
11
89.0603
21
-83.6382
0
LINE
8
BLACK
6
CONTINUOUS
10
89.0603
20
-83.6382
11
89.0737
21
-83.8432
0
LINE
8
BLACK
6
CONTINUOUS
10
89.0737
20
-83.8432
11
89.1243
21
-84.0424
0
LINE
8
BLACK
6
CONTINUOUS
10
177.356
20
-60.5648
11
177.419
21
-60.3606
0
LINE
8
BLACK
6
CONTINUOUS
10
177.419
20
-60.3606
11
177.519
21
-60.1715
0
LINE
8
BLACK
6
CONTINUOUS
10
177.519
20
-60.1715
11
177.651
21
-60.0036
0
LINE
8
BLACK
6
CONTINUOUS
10
177.651
20
-60.0036
11
177.812
21
-59.8627
0
LINE
8
BLACK
6
CONTINUOUS
10
177.812
20
-59.8627
11
177.996
21
-59.7534
0
LINE
8
BLACK
6
CONTINUOUS
10
177.996
20
-59.7534
11
178.196
21
-59.6794
0
LINE
8
BLACK
6
CONTINUOUS
10
178.196
20
-59.6794
11
178.407
21
-59.6432
0
LINE
8
BLACK
6
CONTINUOUS
10
178.407
20
-59.6432
11
178.621
21
-59.646
0
LINE
8
BLACK
6
CONTINUOUS
10
178.621
20
-59.646
11
178.83
21
-59.6877
0
LINE
8
BLACK
6
CONTINUOUS
10
178.83
20
-59.6877
11
179.029
21
-59.7669
0
LINE
8
BLACK
6
CONTINUOUS
10
179.029
20
-59.7669
11
179.21
21
-59.881
0
LINE
8
BLACK
6
CONTINUOUS
10
179.21
20
-59.881
11
179.366
21
-60.0261
0
LINE
8
BLACK
6
CONTINUOUS
10
179.366
20
-60.0261
11
179.494
21
-60.1973
0
LINE
8
BLACK
6
CONTINUOUS
10
179.494
20
-60.1973
11
179.589
21
-60.389
0
LINE
8
BLACK
6
CONTINUOUS
10
179.589
20
-60.389
11
179.647
21
-60.5947
0
LINE
8
BLACK
6
CONTINUOUS
10
179.647
20
-60.5947
11
179.666
21
-60.8076
0
LINE
8
BLACK
6
CONTINUOUS
10
179.666
20
-60.8076
11
179.665
21
-60.8687
0
LINE
8
BLACK
6
CONTINUOUS
10
179.665
20
-60.8687
11
179.634
21
-61.0803
0
LINE
8
BLACK
6
CONTINUOUS
10
179.634
20
-61.0803
11
179.566
21
-61.2827
0
LINE
8
BLACK
6
CONTINUOUS
10
179.566
20
-61.2827
11
179.461
21
-61.4692
0
LINE
8
BLACK
6
CONTINUOUS
10
179.461
20
-61.4692
11
179.324
21
-61.6335
0
LINE
8
BLACK
6
CONTINUOUS
10
179.324
20
-61.6335
11
179.16
21
-61.7702
0
LINE
8
BLACK
6
CONTINUOUS
10
179.16
20
-61.7702
11
178.974
21
-61.8746
0
LINE
8
BLACK
6
CONTINUOUS
10
178.974
20
-61.8746
11
178.771
21
-61.9433
0
LINE
8
BLACK
6
CONTINUOUS
10
178.771
20
-61.9433
11
178.56
21
-61.974
0
LINE
8
BLACK
6
CONTINUOUS
10
178.56
20
-61.974
11
178.346
21
-61.9656
0
LINE
8
BLACK
6
CONTINUOUS
10
178.346
20
-61.9656
11
178.138
21
-61.9184
0
LINE
8
BLACK
6
CONTINUOUS
10
178.138
20
-61.9184
11
177.941
21
-61.8341
0
LINE
8
BLACK
6
CONTINUOUS
10
177.941
20
-61.8341
11
177.763
21
-61.7153
0
LINE
8
BLACK
6
CONTINUOUS
10
177.763
20
-61.7153
11
177.61
21
-61.5662
0
LINE
8
BLACK
6
CONTINUOUS
10
177.61
20
-61.5662
11
177.487
21
-61.3916
0
LINE
8
BLACK
6
CONTINUOUS
10
177.487
20
-61.3916
11
177.397
21
-61.1975
0
LINE
8
BLACK
6
CONTINUOUS
10
177.397
20
-61.1975
11
177.345
21
-60.9903
0
LINE
8
BLACK
6
CONTINUOUS
10
177.345
20
-60.9903
11
177.331
21
-60.7782
0
LINE
8
BLACK
6
CONTINUOUS
10
177.331
20
-60.7782
11
177.331
21
-60.777
0
LINE
8
BLACK
6
CONTINUOUS
10
177.331
20
-60.777
11
177.356
21
-60.5648
0
LINE
8
BLACK
6
CONTINUOUS
10
177.44
20
-61.1824
11
177.526
21
-61.369
0
LINE
8
BLACK
6
CONTINUOUS
10
177.526
20
-61.369
11
177.645
21
-61.5368
0
LINE
8
BLACK
6
CONTINUOUS
10
177.645
20
-61.5368
11
177.792
21
-61.6802
0
LINE
8
BLACK
6
CONTINUOUS
10
177.792
20
-61.6802
11
177.963
21
-61.7943
0
LINE
8
BLACK
6
CONTINUOUS
10
177.963
20
-61.7943
11
178.152
21
-61.8754
0
LINE
8
BLACK
6
CONTINUOUS
10
178.152
20
-61.8754
11
178.352
21
-61.9208
0
LINE
8
BLACK
6
CONTINUOUS
10
178.352
20
-61.9208
11
178.557
21
-61.9289
0
LINE
8
BLACK
6
CONTINUOUS
10
178.557
20
-61.9289
11
178.761
21
-61.8994
0
LINE
8
BLACK
6
CONTINUOUS
10
178.761
20
-61.8994
11
178.955
21
-61.8333
0
LINE
8
BLACK
6
CONTINUOUS
10
178.955
20
-61.8333
11
179.134
21
-61.7329
0
LINE
8
BLACK
6
CONTINUOUS
10
179.134
20
-61.7329
11
179.292
21
-61.6015
0
LINE
8
BLACK
6
CONTINUOUS
10
179.292
20
-61.6015
11
179.424
21
-61.4436
0
LINE
8
BLACK
6
CONTINUOUS
10
179.424
20
-61.4436
11
179.524
21
-61.2643
0
LINE
8
BLACK
6
CONTINUOUS
10
179.524
20
-61.2643
11
179.59
21
-61.0697
0
LINE
8
BLACK
6
CONTINUOUS
10
179.59
20
-61.0697
11
179.62
21
-60.8664
0
LINE
8
BLACK
6
CONTINUOUS
10
179.62
20
-60.8664
11
179.621
21
-60.8076
0
LINE
8
BLACK
6
CONTINUOUS
10
179.621
20
-60.8076
11
179.602
21
-60.603
0
LINE
8
BLACK
6
CONTINUOUS
10
179.602
20
-60.603
11
179.547
21
-60.4052
0
LINE
8
BLACK
6
CONTINUOUS
10
179.547
20
-60.4052
11
179.456
21
-60.2209
0
LINE
8
BLACK
6
CONTINUOUS
10
179.456
20
-60.2209
11
179.333
21
-60.0563
0
LINE
8
BLACK
6
CONTINUOUS
10
179.333
20
-60.0563
11
179.182
21
-59.9168
0
LINE
8
BLACK
6
CONTINUOUS
10
179.182
20
-59.9168
11
179.008
21
-59.8072
0
LINE
8
BLACK
6
CONTINUOUS
10
179.008
20
-59.8072
11
178.817
21
-59.731
0
LINE
8
BLACK
6
CONTINUOUS
10
178.817
20
-59.731
11
178.616
21
-59.691
0
LINE
8
BLACK
6
CONTINUOUS
10
178.616
20
-59.691
11
178.41
21
-59.6883
0
LINE
8
BLACK
6
CONTINUOUS
10
178.41
20
-59.6883
11
178.208
21
-59.7231
0
LINE
8
BLACK
6
CONTINUOUS
10
178.208
20
-59.7231
11
178.015
21
-59.7942
0
LINE
8
BLACK
6
CONTINUOUS
10
178.015
20
-59.7942
11
177.839
21
-59.8992
0
LINE
8
BLACK
6
CONTINUOUS
10
177.839
20
-59.8992
11
177.684
21
-60.0347
0
LINE
8
BLACK
6
CONTINUOUS
10
177.684
20
-60.0347
11
177.557
21
-60.1961
0
LINE
8
BLACK
6
CONTINUOUS
10
177.557
20
-60.1961
11
177.461
21
-60.3779
0
LINE
8
BLACK
6
CONTINUOUS
10
177.461
20
-60.3779
11
177.4
21
-60.5742
0
LINE
8
BLACK
6
CONTINUOUS
10
177.4
20
-60.5742
11
177.376
21
-60.7782
0
LINE
8
BLACK
6
CONTINUOUS
10
177.376
20
-60.7782
11
177.39
21
-60.9832
0
LINE
8
BLACK
6
CONTINUOUS
10
177.39
20
-60.9832
11
177.44
21
-61.1824
  0
ENDSEC
  0
EOF
