  0
SECTION
  2
HEADER
  9
$ANGBASE
  50
0.0
  9
$ANGDIR
  70
1
  9
$MEASUREMENT
  70
1
  0
ENDSEC
  0
SECTION
  2
TABLES
  0
TABLE
  2
LTYPE
  70
4
  0
LTYPE
  5
40F
  2
CONTINUOUS
  70
0
  3
Solid line
  72
65
  73
0
  40
0.0
  0
LTYPE
  5
410
  2
DASHDOT
 70
0
  3
Dash Dot ____ _ ____ _
 72
65
 73
4
 40
2.0
 49
1.25
 49
-0.25
 49
0.25
 49
-0.25
  0
LTYPE
  5
411
  2
DASHED
 70
0
  3
Dashed __ __ __ __ __
 72
65
 73
2
 40
0.75
 49
0.5
 49
-0.25
  0
LTYPE
  5
43B
  2
DOTTED
 70
0
  3
Dotted .  .  .  .
 72
65
 73
2
 40
0.2
 49
0.0
 49
-0.2
  0
ENDTAB
  0
TABLE
  2
STYLE
  70
4
  0
STYLE
  2
KICAD
  70
0
  40
0
  41
1
  42
1
  50
0
  71
0
  3
isocp.shx
  0
STYLE
  2
KICADB
  70
0
  40
0
  41
1
  42
1
  50
0
  71
0
  3
isocp.shx
  0
STYLE
  2
KICADI
  70
0
  40
0
  41
1
  42
1
  50
15
  71
0
  3
isocp.shx
  0
STYLE
  2
KICADBI
  70
0
  40
0
  41
1
  42
1
  50
15
  71
0
  3
isocp.shx
  0
ENDTAB
  0
TABLE
  2
LAYER
  70
1
  0
LAYER
  2
BLACK
  70
0
  62
7
  6
CONTINUOUS
  0
ENDTAB
  0
ENDSEC
  0
SECTION
  2
ENTITIES
0
LINE
8
BLACK
6
CONTINUOUS
10
243.656
20
-64.2873
11
243.872
21
-64.3604
0
LINE
8
BLACK
6
CONTINUOUS
10
243.872
20
-64.3604
11
244.075
21
-64.4644
0
LINE
8
BLACK
6
CONTINUOUS
10
244.075
20
-64.4644
11
244.26
21
-64.597
0
LINE
8
BLACK
6
CONTINUOUS
10
244.26
20
-64.597
11
244.424
21
-64.7554
0
LINE
8
BLACK
6
CONTINUOUS
10
244.424
20
-64.7554
11
244.563
21
-64.9362
0
LINE
8
BLACK
6
CONTINUOUS
10
244.563
20
-64.9362
11
244.674
21
-65.1354
0
LINE
8
BLACK
6
CONTINUOUS
10
244.674
20
-65.1354
11
244.754
21
-65.3487
0
LINE
8
BLACK
6
CONTINUOUS
10
244.754
20
-65.3487
11
244.802
21
-65.5714
0
LINE
8
BLACK
6
CONTINUOUS
10
244.802
20
-65.5714
11
244.817
21
-65.7986
0
LINE
8
BLACK
6
CONTINUOUS
10
244.817
20
-65.7986
11
244.817
21
-65.7987
0
LINE
8
BLACK
6
CONTINUOUS
10
244.817
20
-65.7987
11
244.817
21
-140.818
0
LINE
8
BLACK
6
CONTINUOUS
10
244.817
20
-140.818
11
244.801
21
-141.096
0
LINE
8
BLACK
6
CONTINUOUS
10
244.801
20
-141.096
11
244.75
21
-141.371
0
LINE
8
BLACK
6
CONTINUOUS
10
244.75
20
-141.371
11
244.667
21
-141.637
0
LINE
8
BLACK
6
CONTINUOUS
10
244.667
20
-141.637
11
244.553
21
-141.892
0
LINE
8
BLACK
6
CONTINUOUS
10
244.553
20
-141.892
11
244.408
21
-142.13
0
LINE
8
BLACK
6
CONTINUOUS
10
244.408
20
-142.13
11
244.236
21
-142.35
0
LINE
8
BLACK
6
CONTINUOUS
10
244.236
20
-142.35
11
244.039
21
-142.547
0
LINE
8
BLACK
6
CONTINUOUS
10
244.039
20
-142.547
11
243.819
21
-142.72
0
LINE
8
BLACK
6
CONTINUOUS
10
243.819
20
-142.72
11
243.58
21
-142.864
0
LINE
8
BLACK
6
CONTINUOUS
10
243.58
20
-142.864
11
243.326
21
-142.978
0
LINE
8
BLACK
6
CONTINUOUS
10
243.326
20
-142.978
11
243.06
21
-143.061
0
LINE
8
BLACK
6
CONTINUOUS
10
243.06
20
-143.061
11
242.785
21
-143.112
0
LINE
8
BLACK
6
CONTINUOUS
10
242.785
20
-143.112
11
242.506
21
-143.129
0
LINE
8
BLACK
6
CONTINUOUS
10
242.506
20
-143.129
11
52.0065
21
-143.129
0
LINE
8
BLACK
6
CONTINUOUS
10
52.0065
20
-143.129
11
51.7279
21
-143.112
0
LINE
8
BLACK
6
CONTINUOUS
10
51.7279
20
-143.112
11
51.4534
21
-143.061
0
LINE
8
BLACK
6
CONTINUOUS
10
51.4534
20
-143.061
11
51.187
21
-142.978
0
LINE
8
BLACK
6
CONTINUOUS
10
51.187
20
-142.978
11
50.9325
21
-142.864
0
LINE
8
BLACK
6
CONTINUOUS
10
50.9325
20
-142.864
11
50.6937
21
-142.72
0
LINE
8
BLACK
6
CONTINUOUS
10
50.6937
20
-142.72
11
50.474
21
-142.547
0
LINE
8
BLACK
6
CONTINUOUS
10
50.474
20
-142.547
11
50.2767
21
-142.35
0
LINE
8
BLACK
6
CONTINUOUS
10
50.2767
20
-142.35
11
50.1046
21
-142.13
0
LINE
8
BLACK
6
CONTINUOUS
10
50.1046
20
-142.13
11
49.9602
21
-141.892
0
LINE
8
BLACK
6
CONTINUOUS
10
49.9602
20
-141.892
11
49.8457
21
-141.637
0
LINE
8
BLACK
6
CONTINUOUS
10
49.8457
20
-141.637
11
49.7627
21
-141.371
0
LINE
8
BLACK
6
CONTINUOUS
10
49.7627
20
-141.371
11
49.7124
21
-141.096
0
LINE
8
BLACK
6
CONTINUOUS
10
49.7124
20
-141.096
11
49.6955
21
-140.818
0
LINE
8
BLACK
6
CONTINUOUS
10
49.6955
20
-140.818
11
49.6955
21
-63.8556
0
LINE
8
BLACK
6
CONTINUOUS
10
49.6955
20
-63.8556
11
49.7113
21
-63.6352
0
LINE
8
BLACK
6
CONTINUOUS
10
49.7113
20
-63.6352
11
49.7582
21
-63.4192
0
LINE
8
BLACK
6
CONTINUOUS
10
49.7582
20
-63.4192
11
49.8355
21
-63.2121
0
LINE
8
BLACK
6
CONTINUOUS
10
49.8355
20
-63.2121
11
49.9414
21
-63.0181
0
LINE
8
BLACK
6
CONTINUOUS
10
49.9414
20
-63.0181
11
50.0738
21
-62.8412
0
LINE
8
BLACK
6
CONTINUOUS
10
50.0738
20
-62.8412
11
50.2301
21
-62.6849
0
LINE
8
BLACK
6
CONTINUOUS
10
50.2301
20
-62.6849
11
50.407
21
-62.5525
0
LINE
8
BLACK
6
CONTINUOUS
10
50.407
20
-62.5525
11
50.601
21
-62.4466
0
LINE
8
BLACK
6
CONTINUOUS
10
50.601
20
-62.4466
11
50.8081
21
-62.3693
0
LINE
8
BLACK
6
CONTINUOUS
10
50.8081
20
-62.3693
11
51.0241
21
-62.3224
0
LINE
8
BLACK
6
CONTINUOUS
10
51.0241
20
-62.3224
11
51.2445
21
-62.3066
0
LINE
8
BLACK
6
CONTINUOUS
10
51.2445
20
-62.3066
11
125.235
21
-62.3066
0
LINE
8
BLACK
6
CONTINUOUS
10
125.235
20
-62.3066
11
125.241
21
-62.3091
0
LINE
8
BLACK
6
CONTINUOUS
10
125.241
20
-62.3091
11
125.247
21
-62.3066
0
LINE
8
BLACK
6
CONTINUOUS
10
125.247
20
-62.3066
11
125.255
21
-62.31
0
LINE
8
BLACK
6
CONTINUOUS
10
125.255
20
-62.31
11
125.465
21
-62.2948
0
LINE
8
BLACK
6
CONTINUOUS
10
125.465
20
-62.2948
11
125.678
21
-62.2475
0
LINE
8
BLACK
6
CONTINUOUS
10
125.678
20
-62.2475
11
125.882
21
-62.1698
0
LINE
8
BLACK
6
CONTINUOUS
10
125.882
20
-62.1698
11
126.073
21
-62.0634
0
LINE
8
BLACK
6
CONTINUOUS
10
126.073
20
-62.0634
11
126.246
21
-61.9304
0
LINE
8
BLACK
6
CONTINUOUS
10
126.246
20
-61.9304
11
126.398
21
-61.7737
0
LINE
8
BLACK
6
CONTINUOUS
10
126.398
20
-61.7737
11
126.526
21
-61.5967
0
LINE
8
BLACK
6
CONTINUOUS
10
126.526
20
-61.5967
11
126.627
21
-61.4029
0
LINE
8
BLACK
6
CONTINUOUS
10
126.627
20
-61.4029
11
126.696
21
-61.2044
0
LINE
8
BLACK
6
CONTINUOUS
10
126.696
20
-61.2044
11
126.695
21
-61.1956
0
LINE
8
BLACK
6
CONTINUOUS
10
126.695
20
-61.1956
11
126.695
21
-61.1955
0
LINE
8
BLACK
6
CONTINUOUS
10
126.695
20
-61.1955
11
126.695
21
-61.1954
0
LINE
8
BLACK
6
CONTINUOUS
10
126.695
20
-61.1954
11
128.411
21
-54.9717
0
LINE
8
BLACK
6
CONTINUOUS
10
128.411
20
-54.9717
11
128.417
21
-54.9642
0
LINE
8
BLACK
6
CONTINUOUS
10
128.417
20
-54.9642
11
128.423
21
-54.9566
0
LINE
8
BLACK
6
CONTINUOUS
10
128.423
20
-54.9566
11
128.423
21
-54.9566
0
LINE
8
BLACK
6
CONTINUOUS
10
128.423
20
-54.9566
11
128.423
21
-54.9566
0
LINE
8
BLACK
6
CONTINUOUS
10
128.423
20
-54.9566
11
128.432
21
-54.9554
0
LINE
8
BLACK
6
CONTINUOUS
10
128.432
20
-54.9554
11
128.442
21
-54.9542
0
LINE
8
BLACK
6
CONTINUOUS
10
128.442
20
-54.9542
11
160.065
21
-63.4505
0
LINE
8
BLACK
6
CONTINUOUS
10
160.065
20
-63.4505
11
160.065
21
-63.4509
0
LINE
8
BLACK
6
CONTINUOUS
10
160.065
20
-63.4509
11
160.066
21
-63.4508
0
LINE
8
BLACK
6
CONTINUOUS
10
160.066
20
-63.4508
11
161.336
21
-63.8618
0
LINE
8
BLACK
6
CONTINUOUS
10
161.336
20
-63.8618
11
166.74
21
-43.7704
0
LINE
8
BLACK
6
CONTINUOUS
10
166.74
20
-43.7704
11
166.745
21
-43.7631
0
LINE
8
BLACK
6
CONTINUOUS
10
166.745
20
-43.7631
11
166.751
21
-43.7553
0
LINE
8
BLACK
6
CONTINUOUS
10
166.751
20
-43.7553
11
166.751
21
-43.7553
0
LINE
8
BLACK
6
CONTINUOUS
10
166.751
20
-43.7553
11
166.751
21
-43.7552
0
LINE
8
BLACK
6
CONTINUOUS
10
166.751
20
-43.7552
11
166.761
21
-43.754
0
LINE
8
BLACK
6
CONTINUOUS
10
166.761
20
-43.754
11
166.77
21
-43.7527
0
LINE
8
BLACK
6
CONTINUOUS
10
166.77
20
-43.7527
11
166.77
21
-43.7528
0
LINE
8
BLACK
6
CONTINUOUS
10
166.77
20
-43.7528
11
166.77
21
-43.7528
0
LINE
8
BLACK
6
CONTINUOUS
10
166.77
20
-43.7528
11
243.656
21
-64.2873
0
LINE
8
BLACK
6
CONTINUOUS
10
243.656
20
-64.2873
11
243.656
21
-64.2873
0
LINE
8
BLACK
6
CONTINUOUS
10
51.2366
20
-62.3533
11
51.0306
21
-62.3681
0
LINE
8
BLACK
6
CONTINUOUS
10
51.0306
20
-62.3681
11
50.8211
21
-62.4136
0
LINE
8
BLACK
6
CONTINUOUS
10
50.8211
20
-62.4136
11
50.6202
21
-62.4886
0
LINE
8
BLACK
6
CONTINUOUS
10
50.6202
20
-62.4886
11
50.432
21
-62.5913
0
LINE
8
BLACK
6
CONTINUOUS
10
50.432
20
-62.5913
11
50.2604
21
-62.7198
0
LINE
8
BLACK
6
CONTINUOUS
10
50.2604
20
-62.7198
11
50.1087
21
-62.8715
0
LINE
8
BLACK
6
CONTINUOUS
10
50.1087
20
-62.8715
11
49.9802
21
-63.0431
0
LINE
8
BLACK
6
CONTINUOUS
10
49.9802
20
-63.0431
11
49.8775
21
-63.2313
0
LINE
8
BLACK
6
CONTINUOUS
10
49.8775
20
-63.2313
11
49.8025
21
-63.4322
0
LINE
8
BLACK
6
CONTINUOUS
10
49.8025
20
-63.4322
11
49.757
21
-63.6417
0
LINE
8
BLACK
6
CONTINUOUS
10
49.757
20
-63.6417
11
49.7422
21
-63.8477
0
LINE
8
BLACK
6
CONTINUOUS
10
49.7422
20
-63.8477
11
49.7455
21
-63.8556
0
LINE
8
BLACK
6
CONTINUOUS
10
49.7455
20
-63.8556
11
49.7455
21
-140.818
0
LINE
8
BLACK
6
CONTINUOUS
10
49.7455
20
-140.818
11
49.7419
21
-140.826
0
LINE
8
BLACK
6
CONTINUOUS
10
49.7419
20
-140.826
11
49.7579
21
-141.091
0
LINE
8
BLACK
6
CONTINUOUS
10
49.7579
20
-141.091
11
49.8072
21
-141.36
0
LINE
8
BLACK
6
CONTINUOUS
10
49.8072
20
-141.36
11
49.8886
21
-141.621
0
LINE
8
BLACK
6
CONTINUOUS
10
49.8886
20
-141.621
11
50.0008
21
-141.87
0
LINE
8
BLACK
6
CONTINUOUS
10
50.0008
20
-141.87
11
50.1423
21
-142.104
0
LINE
8
BLACK
6
CONTINUOUS
10
50.1423
20
-142.104
11
50.311
21
-142.32
0
LINE
8
BLACK
6
CONTINUOUS
10
50.311
20
-142.32
11
50.5044
21
-142.513
0
LINE
8
BLACK
6
CONTINUOUS
10
50.5044
20
-142.513
11
50.7198
21
-142.682
0
LINE
8
BLACK
6
CONTINUOUS
10
50.7198
20
-142.682
11
50.9538
21
-142.823
0
LINE
8
BLACK
6
CONTINUOUS
10
50.9538
20
-142.823
11
51.2033
21
-142.936
0
LINE
8
BLACK
6
CONTINUOUS
10
51.2033
20
-142.936
11
51.4644
21
-143.017
0
LINE
8
BLACK
6
CONTINUOUS
10
51.4644
20
-143.017
11
51.7335
21
-143.066
0
LINE
8
BLACK
6
CONTINUOUS
10
51.7335
20
-143.066
11
51.9978
21
-143.082
0
LINE
8
BLACK
6
CONTINUOUS
10
51.9978
20
-143.082
11
52.0065
21
-143.079
0
LINE
8
BLACK
6
CONTINUOUS
10
52.0065
20
-143.079
11
242.506
21
-143.079
0
LINE
8
BLACK
6
CONTINUOUS
10
242.506
20
-143.079
11
242.515
21
-143.082
0
LINE
8
BLACK
6
CONTINUOUS
10
242.515
20
-143.082
11
242.78
21
-143.066
0
LINE
8
BLACK
6
CONTINUOUS
10
242.78
20
-143.066
11
243.049
21
-143.017
0
LINE
8
BLACK
6
CONTINUOUS
10
243.049
20
-143.017
11
243.31
21
-142.936
0
LINE
8
BLACK
6
CONTINUOUS
10
243.31
20
-142.936
11
243.559
21
-142.823
0
LINE
8
BLACK
6
CONTINUOUS
10
243.559
20
-142.823
11
243.793
21
-142.682
0
LINE
8
BLACK
6
CONTINUOUS
10
243.793
20
-142.682
11
244.009
21
-142.513
0
LINE
8
BLACK
6
CONTINUOUS
10
244.009
20
-142.513
11
244.202
21
-142.32
0
LINE
8
BLACK
6
CONTINUOUS
10
244.202
20
-142.32
11
244.371
21
-142.104
0
LINE
8
BLACK
6
CONTINUOUS
10
244.371
20
-142.104
11
244.512
21
-141.87
0
LINE
8
BLACK
6
CONTINUOUS
10
244.512
20
-141.87
11
244.624
21
-141.621
0
LINE
8
BLACK
6
CONTINUOUS
10
244.624
20
-141.621
11
244.706
21
-141.36
0
LINE
8
BLACK
6
CONTINUOUS
10
244.706
20
-141.36
11
244.755
21
-141.091
0
LINE
8
BLACK
6
CONTINUOUS
10
244.755
20
-141.091
11
244.771
21
-140.826
0
LINE
8
BLACK
6
CONTINUOUS
10
244.771
20
-140.826
11
244.767
21
-140.818
0
LINE
8
BLACK
6
CONTINUOUS
10
244.767
20
-140.818
11
244.767
21
-65.7987
0
LINE
8
BLACK
6
CONTINUOUS
10
244.767
20
-65.7987
11
244.768
21
-65.7986
0
LINE
8
BLACK
6
CONTINUOUS
10
244.768
20
-65.7986
11
244.767
21
-65.7985
0
LINE
8
BLACK
6
CONTINUOUS
10
244.767
20
-65.7985
11
244.771
21
-65.7903
0
LINE
8
BLACK
6
CONTINUOUS
10
244.771
20
-65.7903
11
244.757
21
-65.5778
0
LINE
8
BLACK
6
CONTINUOUS
10
244.757
20
-65.5778
11
244.71
21
-65.3617
0
LINE
8
BLACK
6
CONTINUOUS
10
244.71
20
-65.3617
11
244.632
21
-65.1547
0
LINE
8
BLACK
6
CONTINUOUS
10
244.632
20
-65.1547
11
244.525
21
-64.9615
0
LINE
8
BLACK
6
CONTINUOUS
10
244.525
20
-64.9615
11
244.39
21
-64.7861
0
LINE
8
BLACK
6
CONTINUOUS
10
244.39
20
-64.7861
11
244.231
21
-64.6324
0
LINE
8
BLACK
6
CONTINUOUS
10
244.231
20
-64.6324
11
244.051
21
-64.5036
0
LINE
8
BLACK
6
CONTINUOUS
10
244.051
20
-64.5036
11
243.854
21
-64.4027
0
LINE
8
BLACK
6
CONTINUOUS
10
243.854
20
-64.4027
11
243.652
21
-64.3344
0
LINE
8
BLACK
6
CONTINUOUS
10
243.652
20
-64.3344
11
243.644
21
-64.3356
0
LINE
8
BLACK
6
CONTINUOUS
10
243.644
20
-64.3356
11
243.644
21
-64.3356
0
LINE
8
BLACK
6
CONTINUOUS
10
243.644
20
-64.3356
11
243.643
21
-64.3356
0
LINE
8
BLACK
6
CONTINUOUS
10
243.643
20
-64.3356
11
166.781
21
-43.8075
0
LINE
8
BLACK
6
CONTINUOUS
10
166.781
20
-43.8075
11
161.378
21
-63.9002
0
LINE
8
BLACK
6
CONTINUOUS
10
161.378
20
-63.9002
11
161.377
21
-63.9007
0
LINE
8
BLACK
6
CONTINUOUS
10
161.377
20
-63.9007
11
161.377
21
-63.9014
0
LINE
8
BLACK
6
CONTINUOUS
10
161.377
20
-63.9014
11
161.371
21
-63.9082
0
LINE
8
BLACK
6
CONTINUOUS
10
161.371
20
-63.9082
11
161.366
21
-63.9154
0
LINE
8
BLACK
6
CONTINUOUS
10
161.366
20
-63.9154
11
161.365
21
-63.9154
0
LINE
8
BLACK
6
CONTINUOUS
10
161.365
20
-63.9154
11
161.365
21
-63.916
0
LINE
8
BLACK
6
CONTINUOUS
10
161.365
20
-63.916
11
161.356
21
-63.9167
0
LINE
8
BLACK
6
CONTINUOUS
10
161.356
20
-63.9167
11
161.347
21
-63.9178
0
LINE
8
BLACK
6
CONTINUOUS
10
161.347
20
-63.9178
11
161.346
21
-63.9174
0
LINE
8
BLACK
6
CONTINUOUS
10
161.346
20
-63.9174
11
161.346
21
-63.9175
0
LINE
8
BLACK
6
CONTINUOUS
10
161.346
20
-63.9175
11
160.051
21
-63.4986
0
LINE
8
BLACK
6
CONTINUOUS
10
160.051
20
-63.4986
11
128.453
21
-55.0089
0
LINE
8
BLACK
6
CONTINUOUS
10
128.453
20
-55.0089
11
126.743
21
-61.2087
0
LINE
8
BLACK
6
CONTINUOUS
10
126.743
20
-61.2087
11
126.743
21
-61.2087
0
LINE
8
BLACK
6
CONTINUOUS
10
126.743
20
-61.2087
11
126.669
21
-61.4211
0
LINE
8
BLACK
6
CONTINUOUS
10
126.669
20
-61.4211
11
126.565
21
-61.6208
0
LINE
8
BLACK
6
CONTINUOUS
10
126.565
20
-61.6208
11
126.433
21
-61.8033
0
LINE
8
BLACK
6
CONTINUOUS
10
126.433
20
-61.8033
11
126.277
21
-61.9648
0
LINE
8
BLACK
6
CONTINUOUS
10
126.277
20
-61.9648
11
126.098
21
-62.1018
0
LINE
8
BLACK
6
CONTINUOUS
10
126.098
20
-62.1018
11
125.901
21
-62.2115
0
LINE
8
BLACK
6
CONTINUOUS
10
125.901
20
-62.2115
11
125.691
21
-62.2916
0
LINE
8
BLACK
6
CONTINUOUS
10
125.691
20
-62.2916
11
125.471
21
-62.3403
0
LINE
8
BLACK
6
CONTINUOUS
10
125.471
20
-62.3403
11
125.247
21
-62.3566
0
LINE
8
BLACK
6
CONTINUOUS
10
125.247
20
-62.3566
11
125.247
21
-62.3566
0
LINE
8
BLACK
6
CONTINUOUS
10
125.247
20
-62.3566
11
125.241
21
-62.3541
0
LINE
8
BLACK
6
CONTINUOUS
10
125.241
20
-62.3541
11
125.235
21
-62.3566
0
LINE
8
BLACK
6
CONTINUOUS
10
125.235
20
-62.3566
11
51.2445
21
-62.3566
0
LINE
8
BLACK
6
CONTINUOUS
10
51.2445
20
-62.3566
11
51.2366
21
-62.3533
0
LINE
8
BLACK
6
CONTINUOUS
10
73.5391
20
-138.335
11
73.5215
21
-138.293
0
LINE
8
BLACK
6
CONTINUOUS
10
73.5215
20
-138.293
11
73.5215
21
-124.293
0
LINE
8
BLACK
6
CONTINUOUS
10
73.5215
20
-124.293
11
73.5391
21
-124.25
0
LINE
8
BLACK
6
CONTINUOUS
10
73.5391
20
-124.25
11
73.5815
21
-124.233
0
LINE
8
BLACK
6
CONTINUOUS
10
73.5815
20
-124.233
11
87.5815
21
-124.233
0
LINE
8
BLACK
6
CONTINUOUS
10
87.5815
20
-124.233
11
87.6239
21
-124.25
0
LINE
8
BLACK
6
CONTINUOUS
10
87.6239
20
-124.25
11
87.6415
21
-124.293
0
LINE
8
BLACK
6
CONTINUOUS
10
87.6415
20
-124.293
11
87.6415
21
-138.293
0
LINE
8
BLACK
6
CONTINUOUS
10
87.6415
20
-138.293
11
87.6239
21
-138.335
0
LINE
8
BLACK
6
CONTINUOUS
10
87.6239
20
-138.335
11
87.5815
21
-138.353
0
LINE
8
BLACK
6
CONTINUOUS
10
87.5815
20
-138.353
11
73.5815
21
-138.353
0
LINE
8
BLACK
6
CONTINUOUS
10
73.5815
20
-138.353
11
73.5391
21
-138.335
0
LINE
8
BLACK
6
CONTINUOUS
10
73.6415
20
-124.353
11
73.6415
21
-138.233
0
LINE
8
BLACK
6
CONTINUOUS
10
73.6415
20
-138.233
11
87.5215
21
-138.233
0
LINE
8
BLACK
6
CONTINUOUS
10
87.5215
20
-138.233
11
87.5215
21
-124.353
0
LINE
8
BLACK
6
CONTINUOUS
10
87.5215
20
-124.353
11
73.6415
21
-124.353
0
LINE
8
BLACK
6
CONTINUOUS
10
149.739
20
-138.335
11
149.721
21
-138.293
0
LINE
8
BLACK
6
CONTINUOUS
10
149.721
20
-138.293
11
149.721
21
-124.293
0
LINE
8
BLACK
6
CONTINUOUS
10
149.721
20
-124.293
11
149.739
21
-124.25
0
LINE
8
BLACK
6
CONTINUOUS
10
149.739
20
-124.25
11
149.781
21
-124.233
0
LINE
8
BLACK
6
CONTINUOUS
10
149.781
20
-124.233
11
163.781
21
-124.233
0
LINE
8
BLACK
6
CONTINUOUS
10
163.781
20
-124.233
11
163.824
21
-124.25
0
LINE
8
BLACK
6
CONTINUOUS
10
163.824
20
-124.25
11
163.841
21
-124.293
0
LINE
8
BLACK
6
CONTINUOUS
10
163.841
20
-124.293
11
163.841
21
-138.293
0
LINE
8
BLACK
6
CONTINUOUS
10
163.841
20
-138.293
11
163.824
21
-138.335
0
LINE
8
BLACK
6
CONTINUOUS
10
163.824
20
-138.335
11
163.781
21
-138.353
0
LINE
8
BLACK
6
CONTINUOUS
10
163.781
20
-138.353
11
149.781
21
-138.353
0
LINE
8
BLACK
6
CONTINUOUS
10
149.781
20
-138.353
11
149.739
21
-138.335
0
LINE
8
BLACK
6
CONTINUOUS
10
149.841
20
-124.353
11
149.841
21
-138.233
0
LINE
8
BLACK
6
CONTINUOUS
10
149.841
20
-138.233
11
163.721
21
-138.233
0
LINE
8
BLACK
6
CONTINUOUS
10
163.721
20
-138.233
11
163.721
21
-124.353
0
LINE
8
BLACK
6
CONTINUOUS
10
163.721
20
-124.353
11
149.841
21
-124.353
0
LINE
8
BLACK
6
CONTINUOUS
10
168.789
20
-138.335
11
168.772
21
-138.293
0
LINE
8
BLACK
6
CONTINUOUS
10
168.772
20
-138.293
11
168.772
21
-124.293
0
LINE
8
BLACK
6
CONTINUOUS
10
168.772
20
-124.293
11
168.789
21
-124.25
0
LINE
8
BLACK
6
CONTINUOUS
10
168.789
20
-124.25
11
168.832
21
-124.233
0
LINE
8
BLACK
6
CONTINUOUS
10
168.832
20
-124.233
11
182.832
21
-124.233
0
LINE
8
BLACK
6
CONTINUOUS
10
182.832
20
-124.233
11
182.874
21
-124.25
0
LINE
8
BLACK
6
CONTINUOUS
10
182.874
20
-124.25
11
182.891
21
-124.293
0
LINE
8
BLACK
6
CONTINUOUS
10
182.891
20
-124.293
11
182.891
21
-138.293
0
LINE
8
BLACK
6
CONTINUOUS
10
182.891
20
-138.293
11
182.874
21
-138.335
0
LINE
8
BLACK
6
CONTINUOUS
10
182.874
20
-138.335
11
182.832
21
-138.353
0
LINE
8
BLACK
6
CONTINUOUS
10
182.832
20
-138.353
11
168.832
21
-138.353
0
LINE
8
BLACK
6
CONTINUOUS
10
168.832
20
-138.353
11
168.789
21
-138.335
0
LINE
8
BLACK
6
CONTINUOUS
10
168.891
20
-124.353
11
168.891
21
-138.233
0
LINE
8
BLACK
6
CONTINUOUS
10
168.891
20
-138.233
11
182.772
21
-138.233
0
LINE
8
BLACK
6
CONTINUOUS
10
182.772
20
-138.233
11
182.772
21
-124.353
0
LINE
8
BLACK
6
CONTINUOUS
10
182.772
20
-124.353
11
168.891
21
-124.353
0
LINE
8
BLACK
6
CONTINUOUS
10
130.689
20
-138.335
11
130.671
21
-138.293
0
LINE
8
BLACK
6
CONTINUOUS
10
130.671
20
-138.293
11
130.671
21
-124.293
0
LINE
8
BLACK
6
CONTINUOUS
10
130.671
20
-124.293
11
130.689
21
-124.25
0
LINE
8
BLACK
6
CONTINUOUS
10
130.689
20
-124.25
11
130.731
21
-124.233
0
LINE
8
BLACK
6
CONTINUOUS
10
130.731
20
-124.233
11
144.731
21
-124.233
0
LINE
8
BLACK
6
CONTINUOUS
10
144.731
20
-124.233
11
144.774
21
-124.25
0
LINE
8
BLACK
6
CONTINUOUS
10
144.774
20
-124.25
11
144.791
21
-124.293
0
LINE
8
BLACK
6
CONTINUOUS
10
144.791
20
-124.293
11
144.791
21
-138.293
0
LINE
8
BLACK
6
CONTINUOUS
10
144.791
20
-138.293
11
144.774
21
-138.335
0
LINE
8
BLACK
6
CONTINUOUS
10
144.774
20
-138.335
11
144.731
21
-138.353
0
LINE
8
BLACK
6
CONTINUOUS
10
144.731
20
-138.353
11
130.731
21
-138.353
0
LINE
8
BLACK
6
CONTINUOUS
10
130.731
20
-138.353
11
130.689
21
-138.335
0
LINE
8
BLACK
6
CONTINUOUS
10
130.791
20
-124.353
11
130.791
21
-138.233
0
LINE
8
BLACK
6
CONTINUOUS
10
130.791
20
-138.233
11
144.671
21
-138.233
0
LINE
8
BLACK
6
CONTINUOUS
10
144.671
20
-138.233
11
144.671
21
-124.353
0
LINE
8
BLACK
6
CONTINUOUS
10
144.671
20
-124.353
11
130.791
21
-124.353
0
LINE
8
BLACK
6
CONTINUOUS
10
111.639
20
-138.335
11
111.621
21
-138.293
0
LINE
8
BLACK
6
CONTINUOUS
10
111.621
20
-138.293
11
111.621
21
-124.293
0
LINE
8
BLACK
6
CONTINUOUS
10
111.621
20
-124.293
11
111.639
21
-124.25
0
LINE
8
BLACK
6
CONTINUOUS
10
111.639
20
-124.25
11
111.681
21
-124.233
0
LINE
8
BLACK
6
CONTINUOUS
10
111.681
20
-124.233
11
125.681
21
-124.233
0
LINE
8
BLACK
6
CONTINUOUS
10
125.681
20
-124.233
11
125.724
21
-124.25
0
LINE
8
BLACK
6
CONTINUOUS
10
125.724
20
-124.25
11
125.741
21
-124.293
0
LINE
8
BLACK
6
CONTINUOUS
10
125.741
20
-124.293
11
125.741
21
-138.293
0
LINE
8
BLACK
6
CONTINUOUS
10
125.741
20
-138.293
11
125.724
21
-138.335
0
LINE
8
BLACK
6
CONTINUOUS
10
125.724
20
-138.335
11
125.681
21
-138.353
0
LINE
8
BLACK
6
CONTINUOUS
10
125.681
20
-138.353
11
111.681
21
-138.353
0
LINE
8
BLACK
6
CONTINUOUS
10
111.681
20
-138.353
11
111.639
21
-138.335
0
LINE
8
BLACK
6
CONTINUOUS
10
111.742
20
-124.353
11
111.742
21
-138.233
0
LINE
8
BLACK
6
CONTINUOUS
10
111.742
20
-138.233
11
125.621
21
-138.233
0
LINE
8
BLACK
6
CONTINUOUS
10
125.621
20
-138.233
11
125.621
21
-124.353
0
LINE
8
BLACK
6
CONTINUOUS
10
125.621
20
-124.353
11
111.742
21
-124.353
0
LINE
8
BLACK
6
CONTINUOUS
10
187.839
20
-138.335
11
187.821
21
-138.293
0
LINE
8
BLACK
6
CONTINUOUS
10
187.821
20
-138.293
11
187.821
21
-124.293
0
LINE
8
BLACK
6
CONTINUOUS
10
187.821
20
-124.293
11
187.839
21
-124.25
0
LINE
8
BLACK
6
CONTINUOUS
10
187.839
20
-124.25
11
187.881
21
-124.233
0
LINE
8
BLACK
6
CONTINUOUS
10
187.881
20
-124.233
11
201.881
21
-124.233
0
LINE
8
BLACK
6
CONTINUOUS
10
201.881
20
-124.233
11
201.924
21
-124.25
0
LINE
8
BLACK
6
CONTINUOUS
10
201.924
20
-124.25
11
201.941
21
-124.293
0
LINE
8
BLACK
6
CONTINUOUS
10
201.941
20
-124.293
11
201.941
21
-138.293
0
LINE
8
BLACK
6
CONTINUOUS
10
201.941
20
-138.293
11
201.924
21
-138.335
0
LINE
8
BLACK
6
CONTINUOUS
10
201.924
20
-138.335
11
201.881
21
-138.353
0
LINE
8
BLACK
6
CONTINUOUS
10
201.881
20
-138.353
11
187.881
21
-138.353
0
LINE
8
BLACK
6
CONTINUOUS
10
187.881
20
-138.353
11
187.839
21
-138.335
0
LINE
8
BLACK
6
CONTINUOUS
10
187.941
20
-124.353
11
187.941
21
-138.233
0
LINE
8
BLACK
6
CONTINUOUS
10
187.941
20
-138.233
11
201.821
21
-138.233
0
LINE
8
BLACK
6
CONTINUOUS
10
201.821
20
-138.233
11
201.821
21
-124.353
0
LINE
8
BLACK
6
CONTINUOUS
10
201.821
20
-124.353
11
187.941
21
-124.353
0
LINE
8
BLACK
6
CONTINUOUS
10
225.939
20
-138.335
11
225.921
21
-138.293
0
LINE
8
BLACK
6
CONTINUOUS
10
225.921
20
-138.293
11
225.921
21
-124.293
0
LINE
8
BLACK
6
CONTINUOUS
10
225.921
20
-124.293
11
225.939
21
-124.25
0
LINE
8
BLACK
6
CONTINUOUS
10
225.939
20
-124.25
11
225.981
21
-124.233
0
LINE
8
BLACK
6
CONTINUOUS
10
225.981
20
-124.233
11
239.981
21
-124.233
0
LINE
8
BLACK
6
CONTINUOUS
10
239.981
20
-124.233
11
240.024
21
-124.25
0
LINE
8
BLACK
6
CONTINUOUS
10
240.024
20
-124.25
11
240.041
21
-124.293
0
LINE
8
BLACK
6
CONTINUOUS
10
240.041
20
-124.293
11
240.041
21
-138.293
0
LINE
8
BLACK
6
CONTINUOUS
10
240.041
20
-138.293
11
240.024
21
-138.335
0
LINE
8
BLACK
6
CONTINUOUS
10
240.024
20
-138.335
11
239.981
21
-138.353
0
LINE
8
BLACK
6
CONTINUOUS
10
239.981
20
-138.353
11
225.981
21
-138.353
0
LINE
8
BLACK
6
CONTINUOUS
10
225.981
20
-138.353
11
225.939
21
-138.335
0
LINE
8
BLACK
6
CONTINUOUS
10
226.041
20
-124.353
11
226.041
21
-138.233
0
LINE
8
BLACK
6
CONTINUOUS
10
226.041
20
-138.233
11
239.921
21
-138.233
0
LINE
8
BLACK
6
CONTINUOUS
10
239.921
20
-138.233
11
239.921
21
-124.353
0
LINE
8
BLACK
6
CONTINUOUS
10
239.921
20
-124.353
11
226.041
21
-124.353
0
LINE
8
BLACK
6
CONTINUOUS
10
92.5891
20
-138.335
11
92.5715
21
-138.293
0
LINE
8
BLACK
6
CONTINUOUS
10
92.5715
20
-138.293
11
92.5715
21
-124.293
0
LINE
8
BLACK
6
CONTINUOUS
10
92.5715
20
-124.293
11
92.5891
21
-124.25
0
LINE
8
BLACK
6
CONTINUOUS
10
92.5891
20
-124.25
11
92.6315
21
-124.233
0
LINE
8
BLACK
6
CONTINUOUS
10
92.6315
20
-124.233
11
106.631
21
-124.233
0
LINE
8
BLACK
6
CONTINUOUS
10
106.631
20
-124.233
11
106.674
21
-124.25
0
LINE
8
BLACK
6
CONTINUOUS
10
106.674
20
-124.25
11
106.691
21
-124.293
0
LINE
8
BLACK
6
CONTINUOUS
10
106.691
20
-124.293
11
106.691
21
-138.293
0
LINE
8
BLACK
6
CONTINUOUS
10
106.691
20
-138.293
11
106.674
21
-138.335
0
LINE
8
BLACK
6
CONTINUOUS
10
106.674
20
-138.335
11
106.631
21
-138.353
0
LINE
8
BLACK
6
CONTINUOUS
10
106.631
20
-138.353
11
92.6315
21
-138.353
0
LINE
8
BLACK
6
CONTINUOUS
10
92.6315
20
-138.353
11
92.5891
21
-138.335
0
LINE
8
BLACK
6
CONTINUOUS
10
92.6915
20
-124.353
11
92.6915
21
-138.233
0
LINE
8
BLACK
6
CONTINUOUS
10
92.6915
20
-138.233
11
106.572
21
-138.233
0
LINE
8
BLACK
6
CONTINUOUS
10
106.572
20
-138.233
11
106.572
21
-124.353
0
LINE
8
BLACK
6
CONTINUOUS
10
106.572
20
-124.353
11
92.6915
21
-124.353
0
LINE
8
BLACK
6
CONTINUOUS
10
206.889
20
-138.335
11
206.871
21
-138.293
0
LINE
8
BLACK
6
CONTINUOUS
10
206.871
20
-138.293
11
206.871
21
-124.293
0
LINE
8
BLACK
6
CONTINUOUS
10
206.871
20
-124.293
11
206.889
21
-124.25
0
LINE
8
BLACK
6
CONTINUOUS
10
206.889
20
-124.25
11
206.931
21
-124.233
0
LINE
8
BLACK
6
CONTINUOUS
10
206.931
20
-124.233
11
220.931
21
-124.233
0
LINE
8
BLACK
6
CONTINUOUS
10
220.931
20
-124.233
11
220.974
21
-124.25
0
LINE
8
BLACK
6
CONTINUOUS
10
220.974
20
-124.25
11
220.992
21
-124.293
0
LINE
8
BLACK
6
CONTINUOUS
10
220.992
20
-124.293
11
220.992
21
-138.293
0
LINE
8
BLACK
6
CONTINUOUS
10
220.992
20
-138.293
11
220.974
21
-138.335
0
LINE
8
BLACK
6
CONTINUOUS
10
220.974
20
-138.335
11
220.931
21
-138.353
0
LINE
8
BLACK
6
CONTINUOUS
10
220.931
20
-138.353
11
206.931
21
-138.353
0
LINE
8
BLACK
6
CONTINUOUS
10
206.931
20
-138.353
11
206.889
21
-138.335
0
LINE
8
BLACK
6
CONTINUOUS
10
206.992
20
-124.353
11
206.992
21
-138.233
0
LINE
8
BLACK
6
CONTINUOUS
10
206.992
20
-138.233
11
220.871
21
-138.233
0
LINE
8
BLACK
6
CONTINUOUS
10
220.871
20
-138.233
11
220.871
21
-124.353
0
LINE
8
BLACK
6
CONTINUOUS
10
220.871
20
-124.353
11
206.992
21
-124.353
0
LINE
8
BLACK
6
CONTINUOUS
10
54.4891
20
-138.335
11
54.4715
21
-138.293
0
LINE
8
BLACK
6
CONTINUOUS
10
54.4715
20
-138.293
11
54.4715
21
-124.293
0
LINE
8
BLACK
6
CONTINUOUS
10
54.4715
20
-124.293
11
54.4891
21
-124.25
0
LINE
8
BLACK
6
CONTINUOUS
10
54.4891
20
-124.25
11
54.5315
21
-124.233
0
LINE
8
BLACK
6
CONTINUOUS
10
54.5315
20
-124.233
11
68.5315
21
-124.233
0
LINE
8
BLACK
6
CONTINUOUS
10
68.5315
20
-124.233
11
68.5739
21
-124.25
0
LINE
8
BLACK
6
CONTINUOUS
10
68.5739
20
-124.25
11
68.5915
21
-124.293
0
LINE
8
BLACK
6
CONTINUOUS
10
68.5915
20
-124.293
11
68.5915
21
-138.293
0
LINE
8
BLACK
6
CONTINUOUS
10
68.5915
20
-138.293
11
68.5739
21
-138.335
0
LINE
8
BLACK
6
CONTINUOUS
10
68.5739
20
-138.335
11
68.5315
21
-138.353
0
LINE
8
BLACK
6
CONTINUOUS
10
68.5315
20
-138.353
11
54.5315
21
-138.353
0
LINE
8
BLACK
6
CONTINUOUS
10
54.5315
20
-138.353
11
54.4891
21
-138.335
0
LINE
8
BLACK
6
CONTINUOUS
10
54.5915
20
-124.353
11
54.5915
21
-138.233
0
LINE
8
BLACK
6
CONTINUOUS
10
54.5915
20
-138.233
11
68.4715
21
-138.233
0
LINE
8
BLACK
6
CONTINUOUS
10
68.4715
20
-138.233
11
68.4715
21
-124.353
0
LINE
8
BLACK
6
CONTINUOUS
10
68.4715
20
-124.353
11
54.5915
21
-124.353
0
LINE
8
BLACK
6
CONTINUOUS
10
220.974
20
-119.285
11
220.931
21
-119.303
0
LINE
8
BLACK
6
CONTINUOUS
10
220.931
20
-119.303
11
206.931
21
-119.303
0
LINE
8
BLACK
6
CONTINUOUS
10
206.931
20
-119.303
11
206.889
21
-119.285
0
LINE
8
BLACK
6
CONTINUOUS
10
206.889
20
-119.285
11
206.871
21
-119.243
0
LINE
8
BLACK
6
CONTINUOUS
10
206.871
20
-119.243
11
206.871
21
-105.243
0
LINE
8
BLACK
6
CONTINUOUS
10
206.871
20
-105.243
11
206.889
21
-105.2
0
LINE
8
BLACK
6
CONTINUOUS
10
206.889
20
-105.2
11
206.931
21
-105.183
0
LINE
8
BLACK
6
CONTINUOUS
10
206.931
20
-105.183
11
220.931
21
-105.183
0
LINE
8
BLACK
6
CONTINUOUS
10
220.931
20
-105.183
11
220.974
21
-105.2
0
LINE
8
BLACK
6
CONTINUOUS
10
220.974
20
-105.2
11
220.992
21
-105.243
0
LINE
8
BLACK
6
CONTINUOUS
10
220.992
20
-105.243
11
220.992
21
-119.243
0
LINE
8
BLACK
6
CONTINUOUS
10
220.992
20
-119.243
11
220.974
21
-119.285
0
LINE
8
BLACK
6
CONTINUOUS
10
206.992
20
-105.303
11
206.992
21
-119.183
0
LINE
8
BLACK
6
CONTINUOUS
10
206.992
20
-119.183
11
220.871
21
-119.183
0
LINE
8
BLACK
6
CONTINUOUS
10
220.871
20
-119.183
11
220.871
21
-105.303
0
LINE
8
BLACK
6
CONTINUOUS
10
220.871
20
-105.303
11
206.992
21
-105.303
0
LINE
8
BLACK
6
CONTINUOUS
10
201.924
20
-119.285
11
201.881
21
-119.303
0
LINE
8
BLACK
6
CONTINUOUS
10
201.881
20
-119.303
11
187.881
21
-119.303
0
LINE
8
BLACK
6
CONTINUOUS
10
187.881
20
-119.303
11
187.839
21
-119.285
0
LINE
8
BLACK
6
CONTINUOUS
10
187.839
20
-119.285
11
187.821
21
-119.243
0
LINE
8
BLACK
6
CONTINUOUS
10
187.821
20
-119.243
11
187.821
21
-105.243
0
LINE
8
BLACK
6
CONTINUOUS
10
187.821
20
-105.243
11
187.839
21
-105.2
0
LINE
8
BLACK
6
CONTINUOUS
10
187.839
20
-105.2
11
187.881
21
-105.183
0
LINE
8
BLACK
6
CONTINUOUS
10
187.881
20
-105.183
11
201.881
21
-105.183
0
LINE
8
BLACK
6
CONTINUOUS
10
201.881
20
-105.183
11
201.924
21
-105.2
0
LINE
8
BLACK
6
CONTINUOUS
10
201.924
20
-105.2
11
201.941
21
-105.243
0
LINE
8
BLACK
6
CONTINUOUS
10
201.941
20
-105.243
11
201.941
21
-119.243
0
LINE
8
BLACK
6
CONTINUOUS
10
201.941
20
-119.243
11
201.924
21
-119.285
0
LINE
8
BLACK
6
CONTINUOUS
10
187.941
20
-105.303
11
187.941
21
-119.183
0
LINE
8
BLACK
6
CONTINUOUS
10
187.941
20
-119.183
11
201.821
21
-119.183
0
LINE
8
BLACK
6
CONTINUOUS
10
201.821
20
-119.183
11
201.821
21
-105.303
0
LINE
8
BLACK
6
CONTINUOUS
10
201.821
20
-105.303
11
187.941
21
-105.303
0
LINE
8
BLACK
6
CONTINUOUS
10
106.674
20
-119.285
11
106.631
21
-119.303
0
LINE
8
BLACK
6
CONTINUOUS
10
106.631
20
-119.303
11
92.6315
21
-119.303
0
LINE
8
BLACK
6
CONTINUOUS
10
92.6315
20
-119.303
11
92.5891
21
-119.285
0
LINE
8
BLACK
6
CONTINUOUS
10
92.5891
20
-119.285
11
92.5715
21
-119.243
0
LINE
8
BLACK
6
CONTINUOUS
10
92.5715
20
-119.243
11
92.5715
21
-105.243
0
LINE
8
BLACK
6
CONTINUOUS
10
92.5715
20
-105.243
11
92.5891
21
-105.2
0
LINE
8
BLACK
6
CONTINUOUS
10
92.5891
20
-105.2
11
92.6315
21
-105.183
0
LINE
8
BLACK
6
CONTINUOUS
10
92.6315
20
-105.183
11
106.631
21
-105.183
0
LINE
8
BLACK
6
CONTINUOUS
10
106.631
20
-105.183
11
106.674
21
-105.2
0
LINE
8
BLACK
6
CONTINUOUS
10
106.674
20
-105.2
11
106.691
21
-105.243
0
LINE
8
BLACK
6
CONTINUOUS
10
106.691
20
-105.243
11
106.691
21
-119.243
0
LINE
8
BLACK
6
CONTINUOUS
10
106.691
20
-119.243
11
106.674
21
-119.285
0
LINE
8
BLACK
6
CONTINUOUS
10
92.6915
20
-105.303
11
92.6915
21
-119.183
0
LINE
8
BLACK
6
CONTINUOUS
10
92.6915
20
-119.183
11
106.572
21
-119.183
0
LINE
8
BLACK
6
CONTINUOUS
10
106.572
20
-119.183
11
106.572
21
-105.303
0
LINE
8
BLACK
6
CONTINUOUS
10
106.572
20
-105.303
11
92.6915
21
-105.303
0
LINE
8
BLACK
6
CONTINUOUS
10
87.6239
20
-119.285
11
87.5815
21
-119.303
0
LINE
8
BLACK
6
CONTINUOUS
10
87.5815
20
-119.303
11
73.5815
21
-119.303
0
LINE
8
BLACK
6
CONTINUOUS
10
73.5815
20
-119.303
11
73.5391
21
-119.285
0
LINE
8
BLACK
6
CONTINUOUS
10
73.5391
20
-119.285
11
73.5215
21
-119.243
0
LINE
8
BLACK
6
CONTINUOUS
10
73.5215
20
-119.243
11
73.5215
21
-105.243
0
LINE
8
BLACK
6
CONTINUOUS
10
73.5215
20
-105.243
11
73.5391
21
-105.2
0
LINE
8
BLACK
6
CONTINUOUS
10
73.5391
20
-105.2
11
73.5815
21
-105.183
0
LINE
8
BLACK
6
CONTINUOUS
10
73.5815
20
-105.183
11
87.5815
21
-105.183
0
LINE
8
BLACK
6
CONTINUOUS
10
87.5815
20
-105.183
11
87.6239
21
-105.2
0
LINE
8
BLACK
6
CONTINUOUS
10
87.6239
20
-105.2
11
87.6415
21
-105.243
0
LINE
8
BLACK
6
CONTINUOUS
10
87.6415
20
-105.243
11
87.6415
21
-119.243
0
LINE
8
BLACK
6
CONTINUOUS
10
87.6415
20
-119.243
11
87.6239
21
-119.285
0
LINE
8
BLACK
6
CONTINUOUS
10
73.6415
20
-105.303
11
73.6415
21
-119.183
0
LINE
8
BLACK
6
CONTINUOUS
10
73.6415
20
-119.183
11
87.5215
21
-119.183
0
LINE
8
BLACK
6
CONTINUOUS
10
87.5215
20
-119.183
11
87.5215
21
-105.303
0
LINE
8
BLACK
6
CONTINUOUS
10
87.5215
20
-105.303
11
73.6415
21
-105.303
0
LINE
8
BLACK
6
CONTINUOUS
10
168.789
20
-119.285
11
168.772
21
-119.243
0
LINE
8
BLACK
6
CONTINUOUS
10
168.772
20
-119.243
11
168.772
21
-105.243
0
LINE
8
BLACK
6
CONTINUOUS
10
168.772
20
-105.243
11
168.789
21
-105.2
0
LINE
8
BLACK
6
CONTINUOUS
10
168.789
20
-105.2
11
168.832
21
-105.183
0
LINE
8
BLACK
6
CONTINUOUS
10
168.832
20
-105.183
11
182.832
21
-105.183
0
LINE
8
BLACK
6
CONTINUOUS
10
182.832
20
-105.183
11
182.874
21
-105.2
0
LINE
8
BLACK
6
CONTINUOUS
10
182.874
20
-105.2
11
182.891
21
-105.243
0
LINE
8
BLACK
6
CONTINUOUS
10
182.891
20
-105.243
11
182.891
21
-119.243
0
LINE
8
BLACK
6
CONTINUOUS
10
182.891
20
-119.243
11
182.874
21
-119.285
0
LINE
8
BLACK
6
CONTINUOUS
10
182.874
20
-119.285
11
182.832
21
-119.303
0
LINE
8
BLACK
6
CONTINUOUS
10
182.832
20
-119.303
11
168.832
21
-119.303
0
LINE
8
BLACK
6
CONTINUOUS
10
168.832
20
-119.303
11
168.789
21
-119.285
0
LINE
8
BLACK
6
CONTINUOUS
10
168.891
20
-105.303
11
168.891
21
-119.183
0
LINE
8
BLACK
6
CONTINUOUS
10
168.891
20
-119.183
11
182.772
21
-119.183
0
LINE
8
BLACK
6
CONTINUOUS
10
182.772
20
-119.183
11
182.772
21
-105.303
0
LINE
8
BLACK
6
CONTINUOUS
10
182.772
20
-105.303
11
168.891
21
-105.303
0
LINE
8
BLACK
6
CONTINUOUS
10
149.739
20
-119.285
11
149.721
21
-119.243
0
LINE
8
BLACK
6
CONTINUOUS
10
149.721
20
-119.243
11
149.721
21
-105.243
0
LINE
8
BLACK
6
CONTINUOUS
10
149.721
20
-105.243
11
149.739
21
-105.2
0
LINE
8
BLACK
6
CONTINUOUS
10
149.739
20
-105.2
11
149.781
21
-105.183
0
LINE
8
BLACK
6
CONTINUOUS
10
149.781
20
-105.183
11
163.781
21
-105.183
0
LINE
8
BLACK
6
CONTINUOUS
10
163.781
20
-105.183
11
163.824
21
-105.2
0
LINE
8
BLACK
6
CONTINUOUS
10
163.824
20
-105.2
11
163.841
21
-105.243
0
LINE
8
BLACK
6
CONTINUOUS
10
163.841
20
-105.243
11
163.841
21
-119.243
0
LINE
8
BLACK
6
CONTINUOUS
10
163.841
20
-119.243
11
163.824
21
-119.285
0
LINE
8
BLACK
6
CONTINUOUS
10
163.824
20
-119.285
11
163.781
21
-119.303
0
LINE
8
BLACK
6
CONTINUOUS
10
163.781
20
-119.303
11
149.781
21
-119.303
0
LINE
8
BLACK
6
CONTINUOUS
10
149.781
20
-119.303
11
149.739
21
-119.285
0
LINE
8
BLACK
6
CONTINUOUS
10
149.841
20
-105.303
11
149.841
21
-119.183
0
LINE
8
BLACK
6
CONTINUOUS
10
149.841
20
-119.183
11
163.721
21
-119.183
0
LINE
8
BLACK
6
CONTINUOUS
10
163.721
20
-119.183
11
163.721
21
-105.303
0
LINE
8
BLACK
6
CONTINUOUS
10
163.721
20
-105.303
11
149.841
21
-105.303
0
LINE
8
BLACK
6
CONTINUOUS
10
54.4891
20
-119.285
11
54.4715
21
-119.243
0
LINE
8
BLACK
6
CONTINUOUS
10
54.4715
20
-119.243
11
54.4715
21
-105.243
0
LINE
8
BLACK
6
CONTINUOUS
10
54.4715
20
-105.243
11
54.4891
21
-105.2
0
LINE
8
BLACK
6
CONTINUOUS
10
54.4891
20
-105.2
11
54.5315
21
-105.183
0
LINE
8
BLACK
6
CONTINUOUS
10
54.5315
20
-105.183
11
68.5315
21
-105.183
0
LINE
8
BLACK
6
CONTINUOUS
10
68.5315
20
-105.183
11
68.5739
21
-105.2
0
LINE
8
BLACK
6
CONTINUOUS
10
68.5739
20
-105.2
11
68.5915
21
-105.243
0
LINE
8
BLACK
6
CONTINUOUS
10
68.5915
20
-105.243
11
68.5915
21
-119.243
0
LINE
8
BLACK
6
CONTINUOUS
10
68.5915
20
-119.243
11
68.5739
21
-119.285
0
LINE
8
BLACK
6
CONTINUOUS
10
68.5739
20
-119.285
11
68.5315
21
-119.303
0
LINE
8
BLACK
6
CONTINUOUS
10
68.5315
20
-119.303
11
54.5315
21
-119.303
0
LINE
8
BLACK
6
CONTINUOUS
10
54.5315
20
-119.303
11
54.4891
21
-119.285
0
LINE
8
BLACK
6
CONTINUOUS
10
54.5915
20
-105.303
11
54.5915
21
-119.183
0
LINE
8
BLACK
6
CONTINUOUS
10
54.5915
20
-119.183
11
68.4715
21
-119.183
0
LINE
8
BLACK
6
CONTINUOUS
10
68.4715
20
-119.183
11
68.4715
21
-105.303
0
LINE
8
BLACK
6
CONTINUOUS
10
68.4715
20
-105.303
11
54.5915
21
-105.303
0
LINE
8
BLACK
6
CONTINUOUS
10
111.639
20
-119.285
11
111.621
21
-119.243
0
LINE
8
BLACK
6
CONTINUOUS
10
111.621
20
-119.243
11
111.621
21
-105.243
0
LINE
8
BLACK
6
CONTINUOUS
10
111.621
20
-105.243
11
111.639
21
-105.2
0
LINE
8
BLACK
6
CONTINUOUS
10
111.639
20
-105.2
11
111.681
21
-105.183
0
LINE
8
BLACK
6
CONTINUOUS
10
111.681
20
-105.183
11
125.681
21
-105.183
0
LINE
8
BLACK
6
CONTINUOUS
10
125.681
20
-105.183
11
125.724
21
-105.2
0
LINE
8
BLACK
6
CONTINUOUS
10
125.724
20
-105.2
11
125.741
21
-105.243
0
LINE
8
BLACK
6
CONTINUOUS
10
125.741
20
-105.243
11
125.741
21
-119.243
0
LINE
8
BLACK
6
CONTINUOUS
10
125.741
20
-119.243
11
125.724
21
-119.285
0
LINE
8
BLACK
6
CONTINUOUS
10
125.724
20
-119.285
11
125.681
21
-119.303
0
LINE
8
BLACK
6
CONTINUOUS
10
125.681
20
-119.303
11
111.681
21
-119.303
0
LINE
8
BLACK
6
CONTINUOUS
10
111.681
20
-119.303
11
111.639
21
-119.285
0
LINE
8
BLACK
6
CONTINUOUS
10
111.742
20
-105.303
11
111.742
21
-119.183
0
LINE
8
BLACK
6
CONTINUOUS
10
111.742
20
-119.183
11
125.621
21
-119.183
0
LINE
8
BLACK
6
CONTINUOUS
10
125.621
20
-119.183
11
125.621
21
-105.303
0
LINE
8
BLACK
6
CONTINUOUS
10
125.621
20
-105.303
11
111.742
21
-105.303
0
LINE
8
BLACK
6
CONTINUOUS
10
225.939
20
-119.285
11
225.921
21
-119.243
0
LINE
8
BLACK
6
CONTINUOUS
10
225.921
20
-119.243
11
225.921
21
-105.243
0
LINE
8
BLACK
6
CONTINUOUS
10
225.921
20
-105.243
11
225.939
21
-105.2
0
LINE
8
BLACK
6
CONTINUOUS
10
225.939
20
-105.2
11
225.981
21
-105.183
0
LINE
8
BLACK
6
CONTINUOUS
10
225.981
20
-105.183
11
239.981
21
-105.183
0
LINE
8
BLACK
6
CONTINUOUS
10
239.981
20
-105.183
11
240.024
21
-105.2
0
LINE
8
BLACK
6
CONTINUOUS
10
240.024
20
-105.2
11
240.041
21
-105.243
0
LINE
8
BLACK
6
CONTINUOUS
10
240.041
20
-105.243
11
240.041
21
-119.243
0
LINE
8
BLACK
6
CONTINUOUS
10
240.041
20
-119.243
11
240.024
21
-119.285
0
LINE
8
BLACK
6
CONTINUOUS
10
240.024
20
-119.285
11
239.981
21
-119.303
0
LINE
8
BLACK
6
CONTINUOUS
10
239.981
20
-119.303
11
225.981
21
-119.303
0
LINE
8
BLACK
6
CONTINUOUS
10
225.981
20
-119.303
11
225.939
21
-119.285
0
LINE
8
BLACK
6
CONTINUOUS
10
226.041
20
-105.303
11
226.041
21
-119.183
0
LINE
8
BLACK
6
CONTINUOUS
10
226.041
20
-119.183
11
239.921
21
-119.183
0
LINE
8
BLACK
6
CONTINUOUS
10
239.921
20
-119.183
11
239.921
21
-105.303
0
LINE
8
BLACK
6
CONTINUOUS
10
239.921
20
-105.303
11
226.041
21
-105.303
0
LINE
8
BLACK
6
CONTINUOUS
10
130.689
20
-119.285
11
130.671
21
-119.243
0
LINE
8
BLACK
6
CONTINUOUS
10
130.671
20
-119.243
11
130.671
21
-105.243
0
LINE
8
BLACK
6
CONTINUOUS
10
130.671
20
-105.243
11
130.689
21
-105.2
0
LINE
8
BLACK
6
CONTINUOUS
10
130.689
20
-105.2
11
130.731
21
-105.183
0
LINE
8
BLACK
6
CONTINUOUS
10
130.731
20
-105.183
11
144.731
21
-105.183
0
LINE
8
BLACK
6
CONTINUOUS
10
144.731
20
-105.183
11
144.774
21
-105.2
0
LINE
8
BLACK
6
CONTINUOUS
10
144.774
20
-105.2
11
144.791
21
-105.243
0
LINE
8
BLACK
6
CONTINUOUS
10
144.791
20
-105.243
11
144.791
21
-119.243
0
LINE
8
BLACK
6
CONTINUOUS
10
144.791
20
-119.243
11
144.774
21
-119.285
0
LINE
8
BLACK
6
CONTINUOUS
10
144.774
20
-119.285
11
144.731
21
-119.303
0
LINE
8
BLACK
6
CONTINUOUS
10
144.731
20
-119.303
11
130.731
21
-119.303
0
LINE
8
BLACK
6
CONTINUOUS
10
130.731
20
-119.303
11
130.689
21
-119.285
0
LINE
8
BLACK
6
CONTINUOUS
10
130.791
20
-105.303
11
130.791
21
-119.183
0
LINE
8
BLACK
6
CONTINUOUS
10
130.791
20
-119.183
11
144.671
21
-119.183
0
LINE
8
BLACK
6
CONTINUOUS
10
144.671
20
-119.183
11
144.671
21
-105.303
0
LINE
8
BLACK
6
CONTINUOUS
10
144.671
20
-105.303
11
130.791
21
-105.303
0
LINE
8
BLACK
6
CONTINUOUS
10
225.939
20
-100.235
11
225.921
21
-100.193
0
LINE
8
BLACK
6
CONTINUOUS
10
225.921
20
-100.193
11
225.921
21
-86.1926
0
LINE
8
BLACK
6
CONTINUOUS
10
225.921
20
-86.1926
11
225.939
21
-86.1502
0
LINE
8
BLACK
6
CONTINUOUS
10
225.939
20
-86.1502
11
225.981
21
-86.1326
0
LINE
8
BLACK
6
CONTINUOUS
10
225.981
20
-86.1326
11
239.981
21
-86.1326
0
LINE
8
BLACK
6
CONTINUOUS
10
239.981
20
-86.1326
11
240.024
21
-86.1502
0
LINE
8
BLACK
6
CONTINUOUS
10
240.024
20
-86.1502
11
240.041
21
-86.1926
0
LINE
8
BLACK
6
CONTINUOUS
10
240.041
20
-86.1926
11
240.041
21
-100.193
0
LINE
8
BLACK
6
CONTINUOUS
10
240.041
20
-100.193
11
240.024
21
-100.235
0
LINE
8
BLACK
6
CONTINUOUS
10
240.024
20
-100.235
11
239.981
21
-100.253
0
LINE
8
BLACK
6
CONTINUOUS
10
239.981
20
-100.253
11
225.981
21
-100.253
0
LINE
8
BLACK
6
CONTINUOUS
10
225.981
20
-100.253
11
225.939
21
-100.235
0
LINE
8
BLACK
6
CONTINUOUS
10
226.041
20
-86.2526
11
226.041
21
-100.133
0
LINE
8
BLACK
6
CONTINUOUS
10
226.041
20
-100.133
11
239.921
21
-100.133
0
LINE
8
BLACK
6
CONTINUOUS
10
239.921
20
-100.133
11
239.921
21
-86.2526
0
LINE
8
BLACK
6
CONTINUOUS
10
239.921
20
-86.2526
11
226.041
21
-86.2526
0
LINE
8
BLACK
6
CONTINUOUS
10
168.789
20
-100.235
11
168.772
21
-100.193
0
LINE
8
BLACK
6
CONTINUOUS
10
168.772
20
-100.193
11
168.772
21
-86.1926
0
LINE
8
BLACK
6
CONTINUOUS
10
168.772
20
-86.1926
11
168.789
21
-86.1502
0
LINE
8
BLACK
6
CONTINUOUS
10
168.789
20
-86.1502
11
168.832
21
-86.1326
0
LINE
8
BLACK
6
CONTINUOUS
10
168.832
20
-86.1326
11
182.832
21
-86.1326
0
LINE
8
BLACK
6
CONTINUOUS
10
182.832
20
-86.1326
11
182.874
21
-86.1502
0
LINE
8
BLACK
6
CONTINUOUS
10
182.874
20
-86.1502
11
182.891
21
-86.1926
0
LINE
8
BLACK
6
CONTINUOUS
10
182.891
20
-86.1926
11
182.891
21
-100.193
0
LINE
8
BLACK
6
CONTINUOUS
10
182.891
20
-100.193
11
182.874
21
-100.235
0
LINE
8
BLACK
6
CONTINUOUS
10
182.874
20
-100.235
11
182.832
21
-100.253
0
LINE
8
BLACK
6
CONTINUOUS
10
182.832
20
-100.253
11
168.832
21
-100.253
0
LINE
8
BLACK
6
CONTINUOUS
10
168.832
20
-100.253
11
168.789
21
-100.235
0
LINE
8
BLACK
6
CONTINUOUS
10
168.891
20
-86.2526
11
168.891
21
-100.133
0
LINE
8
BLACK
6
CONTINUOUS
10
168.891
20
-100.133
11
182.772
21
-100.133
0
LINE
8
BLACK
6
CONTINUOUS
10
182.772
20
-100.133
11
182.772
21
-86.2526
0
LINE
8
BLACK
6
CONTINUOUS
10
182.772
20
-86.2526
11
168.891
21
-86.2526
0
LINE
8
BLACK
6
CONTINUOUS
10
92.5891
20
-100.235
11
92.5715
21
-100.193
0
LINE
8
BLACK
6
CONTINUOUS
10
92.5715
20
-100.193
11
92.5715
21
-86.1926
0
LINE
8
BLACK
6
CONTINUOUS
10
92.5715
20
-86.1926
11
92.5891
21
-86.1502
0
LINE
8
BLACK
6
CONTINUOUS
10
92.5891
20
-86.1502
11
92.6315
21
-86.1326
0
LINE
8
BLACK
6
CONTINUOUS
10
92.6315
20
-86.1326
11
106.632
21
-86.1326
0
LINE
8
BLACK
6
CONTINUOUS
10
106.632
20
-86.1326
11
106.674
21
-86.1502
0
LINE
8
BLACK
6
CONTINUOUS
10
106.674
20
-86.1502
11
106.692
21
-86.1926
0
LINE
8
BLACK
6
CONTINUOUS
10
106.692
20
-86.1926
11
106.692
21
-100.193
0
LINE
8
BLACK
6
CONTINUOUS
10
106.692
20
-100.193
11
106.674
21
-100.235
0
LINE
8
BLACK
6
CONTINUOUS
10
106.674
20
-100.235
11
106.632
21
-100.253
0
LINE
8
BLACK
6
CONTINUOUS
10
106.632
20
-100.253
11
92.6315
21
-100.253
0
LINE
8
BLACK
6
CONTINUOUS
10
92.6315
20
-100.253
11
92.5891
21
-100.235
0
LINE
8
BLACK
6
CONTINUOUS
10
92.6915
20
-86.2526
11
92.6915
21
-100.133
0
LINE
8
BLACK
6
CONTINUOUS
10
92.6915
20
-100.133
11
106.572
21
-100.133
0
LINE
8
BLACK
6
CONTINUOUS
10
106.572
20
-100.133
11
106.572
21
-86.2526
0
LINE
8
BLACK
6
CONTINUOUS
10
106.572
20
-86.2526
11
92.6915
21
-86.2526
0
LINE
8
BLACK
6
CONTINUOUS
10
206.889
20
-100.235
11
206.872
21
-100.193
0
LINE
8
BLACK
6
CONTINUOUS
10
206.872
20
-100.193
11
206.872
21
-86.1926
0
LINE
8
BLACK
6
CONTINUOUS
10
206.872
20
-86.1926
11
206.889
21
-86.1502
0
LINE
8
BLACK
6
CONTINUOUS
10
206.889
20
-86.1502
11
206.932
21
-86.1326
0
LINE
8
BLACK
6
CONTINUOUS
10
206.932
20
-86.1326
11
220.932
21
-86.1326
0
LINE
8
BLACK
6
CONTINUOUS
10
220.932
20
-86.1326
11
220.974
21
-86.1502
0
LINE
8
BLACK
6
CONTINUOUS
10
220.974
20
-86.1502
11
220.992
21
-86.1926
0
LINE
8
BLACK
6
CONTINUOUS
10
220.992
20
-86.1926
11
220.992
21
-100.193
0
LINE
8
BLACK
6
CONTINUOUS
10
220.992
20
-100.193
11
220.974
21
-100.235
0
LINE
8
BLACK
6
CONTINUOUS
10
220.974
20
-100.235
11
220.932
21
-100.253
0
LINE
8
BLACK
6
CONTINUOUS
10
220.932
20
-100.253
11
206.932
21
-100.253
0
LINE
8
BLACK
6
CONTINUOUS
10
206.932
20
-100.253
11
206.889
21
-100.235
0
LINE
8
BLACK
6
CONTINUOUS
10
206.992
20
-86.2526
11
206.992
21
-100.133
0
LINE
8
BLACK
6
CONTINUOUS
10
206.992
20
-100.133
11
220.872
21
-100.133
0
LINE
8
BLACK
6
CONTINUOUS
10
220.872
20
-100.133
11
220.872
21
-86.2526
0
LINE
8
BLACK
6
CONTINUOUS
10
220.872
20
-86.2526
11
206.992
21
-86.2526
0
LINE
8
BLACK
6
CONTINUOUS
10
130.689
20
-100.235
11
130.671
21
-100.193
0
LINE
8
BLACK
6
CONTINUOUS
10
130.671
20
-100.193
11
130.671
21
-86.1926
0
LINE
8
BLACK
6
CONTINUOUS
10
130.671
20
-86.1926
11
130.689
21
-86.1502
0
LINE
8
BLACK
6
CONTINUOUS
10
130.689
20
-86.1502
11
130.731
21
-86.1326
0
LINE
8
BLACK
6
CONTINUOUS
10
130.731
20
-86.1326
11
144.731
21
-86.1326
0
LINE
8
BLACK
6
CONTINUOUS
10
144.731
20
-86.1326
11
144.774
21
-86.1502
0
LINE
8
BLACK
6
CONTINUOUS
10
144.774
20
-86.1502
11
144.791
21
-86.1926
0
LINE
8
BLACK
6
CONTINUOUS
10
144.791
20
-86.1926
11
144.791
21
-100.193
0
LINE
8
BLACK
6
CONTINUOUS
10
144.791
20
-100.193
11
144.774
21
-100.235
0
LINE
8
BLACK
6
CONTINUOUS
10
144.774
20
-100.235
11
144.731
21
-100.253
0
LINE
8
BLACK
6
CONTINUOUS
10
144.731
20
-100.253
11
130.731
21
-100.253
0
LINE
8
BLACK
6
CONTINUOUS
10
130.731
20
-100.253
11
130.689
21
-100.235
0
LINE
8
BLACK
6
CONTINUOUS
10
130.791
20
-86.2526
11
130.791
21
-100.133
0
LINE
8
BLACK
6
CONTINUOUS
10
130.791
20
-100.133
11
144.671
21
-100.133
0
LINE
8
BLACK
6
CONTINUOUS
10
144.671
20
-100.133
11
144.671
21
-86.2526
0
LINE
8
BLACK
6
CONTINUOUS
10
144.671
20
-86.2526
11
130.791
21
-86.2526
0
LINE
8
BLACK
6
CONTINUOUS
10
149.739
20
-100.235
11
149.721
21
-100.193
0
LINE
8
BLACK
6
CONTINUOUS
10
149.721
20
-100.193
11
149.721
21
-86.1926
0
LINE
8
BLACK
6
CONTINUOUS
10
149.721
20
-86.1926
11
149.739
21
-86.1502
0
LINE
8
BLACK
6
CONTINUOUS
10
149.739
20
-86.1502
11
149.781
21
-86.1326
0
LINE
8
BLACK
6
CONTINUOUS
10
149.781
20
-86.1326
11
163.781
21
-86.1326
0
LINE
8
BLACK
6
CONTINUOUS
10
163.781
20
-86.1326
11
163.824
21
-86.1502
0
LINE
8
BLACK
6
CONTINUOUS
10
163.824
20
-86.1502
11
163.841
21
-86.1926
0
LINE
8
BLACK
6
CONTINUOUS
10
163.841
20
-86.1926
11
163.841
21
-100.193
0
LINE
8
BLACK
6
CONTINUOUS
10
163.841
20
-100.193
11
163.824
21
-100.235
0
LINE
8
BLACK
6
CONTINUOUS
10
163.824
20
-100.235
11
163.781
21
-100.253
0
LINE
8
BLACK
6
CONTINUOUS
10
163.781
20
-100.253
11
149.781
21
-100.253
0
LINE
8
BLACK
6
CONTINUOUS
10
149.781
20
-100.253
11
149.739
21
-100.235
0
LINE
8
BLACK
6
CONTINUOUS
10
149.841
20
-86.2526
11
149.841
21
-100.133
0
LINE
8
BLACK
6
CONTINUOUS
10
149.841
20
-100.133
11
163.721
21
-100.133
0
LINE
8
BLACK
6
CONTINUOUS
10
163.721
20
-100.133
11
163.721
21
-86.2526
0
LINE
8
BLACK
6
CONTINUOUS
10
163.721
20
-86.2526
11
149.841
21
-86.2526
0
LINE
8
BLACK
6
CONTINUOUS
10
73.5391
20
-100.235
11
73.5215
21
-100.193
0
LINE
8
BLACK
6
CONTINUOUS
10
73.5215
20
-100.193
11
73.5215
21
-86.1926
0
LINE
8
BLACK
6
CONTINUOUS
10
73.5215
20
-86.1926
11
73.5391
21
-86.1502
0
LINE
8
BLACK
6
CONTINUOUS
10
73.5391
20
-86.1502
11
73.5815
21
-86.1326
0
LINE
8
BLACK
6
CONTINUOUS
10
73.5815
20
-86.1326
11
87.5815
21
-86.1326
0
LINE
8
BLACK
6
CONTINUOUS
10
87.5815
20
-86.1326
11
87.6239
21
-86.1502
0
LINE
8
BLACK
6
CONTINUOUS
10
87.6239
20
-86.1502
11
87.6415
21
-86.1926
0
LINE
8
BLACK
6
CONTINUOUS
10
87.6415
20
-86.1926
11
87.6415
21
-100.193
0
LINE
8
BLACK
6
CONTINUOUS
10
87.6415
20
-100.193
11
87.6239
21
-100.235
0
LINE
8
BLACK
6
CONTINUOUS
10
87.6239
20
-100.235
11
87.5815
21
-100.253
0
LINE
8
BLACK
6
CONTINUOUS
10
87.5815
20
-100.253
11
73.5815
21
-100.253
0
LINE
8
BLACK
6
CONTINUOUS
10
73.5815
20
-100.253
11
73.5391
21
-100.235
0
LINE
8
BLACK
6
CONTINUOUS
10
73.6415
20
-86.2526
11
73.6415
21
-100.133
0
LINE
8
BLACK
6
CONTINUOUS
10
73.6415
20
-100.133
11
87.5215
21
-100.133
0
LINE
8
BLACK
6
CONTINUOUS
10
87.5215
20
-100.133
11
87.5215
21
-86.2526
0
LINE
8
BLACK
6
CONTINUOUS
10
87.5215
20
-86.2526
11
73.6415
21
-86.2526
0
LINE
8
BLACK
6
CONTINUOUS
10
54.4891
20
-100.235
11
54.4715
21
-100.193
0
LINE
8
BLACK
6
CONTINUOUS
10
54.4715
20
-100.193
11
54.4715
21
-86.1926
0
LINE
8
BLACK
6
CONTINUOUS
10
54.4715
20
-86.1926
11
54.4891
21
-86.1502
0
LINE
8
BLACK
6
CONTINUOUS
10
54.4891
20
-86.1502
11
54.5315
21
-86.1326
0
LINE
8
BLACK
6
CONTINUOUS
10
54.5315
20
-86.1326
11
68.5315
21
-86.1326
0
LINE
8
BLACK
6
CONTINUOUS
10
68.5315
20
-86.1326
11
68.5739
21
-86.1502
0
LINE
8
BLACK
6
CONTINUOUS
10
68.5739
20
-86.1502
11
68.5915
21
-86.1926
0
LINE
8
BLACK
6
CONTINUOUS
10
68.5915
20
-86.1926
11
68.5915
21
-100.193
0
LINE
8
BLACK
6
CONTINUOUS
10
68.5915
20
-100.193
11
68.5739
21
-100.235
0
LINE
8
BLACK
6
CONTINUOUS
10
68.5739
20
-100.235
11
68.5315
21
-100.253
0
LINE
8
BLACK
6
CONTINUOUS
10
68.5315
20
-100.253
11
54.5315
21
-100.253
0
LINE
8
BLACK
6
CONTINUOUS
10
54.5315
20
-100.253
11
54.4891
21
-100.235
0
LINE
8
BLACK
6
CONTINUOUS
10
54.5915
20
-86.2526
11
54.5915
21
-100.133
0
LINE
8
BLACK
6
CONTINUOUS
10
54.5915
20
-100.133
11
68.4715
21
-100.133
0
LINE
8
BLACK
6
CONTINUOUS
10
68.4715
20
-100.133
11
68.4715
21
-86.2526
0
LINE
8
BLACK
6
CONTINUOUS
10
68.4715
20
-86.2526
11
54.5915
21
-86.2526
0
LINE
8
BLACK
6
CONTINUOUS
10
111.639
20
-100.235
11
111.621
21
-100.193
0
LINE
8
BLACK
6
CONTINUOUS
10
111.621
20
-100.193
11
111.621
21
-86.1926
0
LINE
8
BLACK
6
CONTINUOUS
10
111.621
20
-86.1926
11
111.639
21
-86.1502
0
LINE
8
BLACK
6
CONTINUOUS
10
111.639
20
-86.1502
11
111.681
21
-86.1326
0
LINE
8
BLACK
6
CONTINUOUS
10
111.681
20
-86.1326
11
125.681
21
-86.1326
0
LINE
8
BLACK
6
CONTINUOUS
10
125.681
20
-86.1326
11
125.724
21
-86.1502
0
LINE
8
BLACK
6
CONTINUOUS
10
125.724
20
-86.1502
11
125.741
21
-86.1926
0
LINE
8
BLACK
6
CONTINUOUS
10
125.741
20
-86.1926
11
125.741
21
-100.193
0
LINE
8
BLACK
6
CONTINUOUS
10
125.741
20
-100.193
11
125.724
21
-100.235
0
LINE
8
BLACK
6
CONTINUOUS
10
125.724
20
-100.235
11
125.681
21
-100.253
0
LINE
8
BLACK
6
CONTINUOUS
10
125.681
20
-100.253
11
111.681
21
-100.253
0
LINE
8
BLACK
6
CONTINUOUS
10
111.681
20
-100.253
11
111.639
21
-100.235
0
LINE
8
BLACK
6
CONTINUOUS
10
111.742
20
-86.2526
11
111.742
21
-100.133
0
LINE
8
BLACK
6
CONTINUOUS
10
111.742
20
-100.133
11
125.621
21
-100.133
0
LINE
8
BLACK
6
CONTINUOUS
10
125.621
20
-100.133
11
125.621
21
-86.2526
0
LINE
8
BLACK
6
CONTINUOUS
10
125.621
20
-86.2526
11
111.742
21
-86.2526
0
LINE
8
BLACK
6
CONTINUOUS
10
187.839
20
-100.235
11
187.821
21
-100.193
0
LINE
8
BLACK
6
CONTINUOUS
10
187.821
20
-100.193
11
187.821
21
-86.1926
0
LINE
8
BLACK
6
CONTINUOUS
10
187.821
20
-86.1926
11
187.839
21
-86.1502
0
LINE
8
BLACK
6
CONTINUOUS
10
187.839
20
-86.1502
11
187.881
21
-86.1326
0
LINE
8
BLACK
6
CONTINUOUS
10
187.881
20
-86.1326
11
201.881
21
-86.1326
0
LINE
8
BLACK
6
CONTINUOUS
10
201.881
20
-86.1326
11
201.924
21
-86.1502
0
LINE
8
BLACK
6
CONTINUOUS
10
201.924
20
-86.1502
11
201.941
21
-86.1926
0
LINE
8
BLACK
6
CONTINUOUS
10
201.941
20
-86.1926
11
201.941
21
-100.193
0
LINE
8
BLACK
6
CONTINUOUS
10
201.941
20
-100.193
11
201.924
21
-100.235
0
LINE
8
BLACK
6
CONTINUOUS
10
201.924
20
-100.235
11
201.881
21
-100.253
0
LINE
8
BLACK
6
CONTINUOUS
10
201.881
20
-100.253
11
187.881
21
-100.253
0
LINE
8
BLACK
6
CONTINUOUS
10
187.881
20
-100.253
11
187.839
21
-100.235
0
LINE
8
BLACK
6
CONTINUOUS
10
187.941
20
-86.2526
11
187.941
21
-100.133
0
LINE
8
BLACK
6
CONTINUOUS
10
187.941
20
-100.133
11
201.821
21
-100.133
0
LINE
8
BLACK
6
CONTINUOUS
10
201.821
20
-100.133
11
201.821
21
-86.2526
0
LINE
8
BLACK
6
CONTINUOUS
10
201.821
20
-86.2526
11
187.941
21
-86.2526
0
LINE
8
BLACK
6
CONTINUOUS
10
206.889
20
-81.185
11
206.871
21
-81.1426
0
LINE
8
BLACK
6
CONTINUOUS
10
206.871
20
-81.1426
11
206.871
21
-67.1426
0
LINE
8
BLACK
6
CONTINUOUS
10
206.871
20
-67.1426
11
206.889
21
-67.1002
0
LINE
8
BLACK
6
CONTINUOUS
10
206.889
20
-67.1002
11
206.931
21
-67.0826
0
LINE
8
BLACK
6
CONTINUOUS
10
206.931
20
-67.0826
11
220.931
21
-67.0826
0
LINE
8
BLACK
6
CONTINUOUS
10
220.931
20
-67.0826
11
220.974
21
-67.1002
0
LINE
8
BLACK
6
CONTINUOUS
10
220.974
20
-67.1002
11
220.992
21
-67.1426
0
LINE
8
BLACK
6
CONTINUOUS
10
220.992
20
-67.1426
11
220.992
21
-81.1426
0
LINE
8
BLACK
6
CONTINUOUS
10
220.992
20
-81.1426
11
220.974
21
-81.185
0
LINE
8
BLACK
6
CONTINUOUS
10
220.974
20
-81.185
11
220.931
21
-81.2026
0
LINE
8
BLACK
6
CONTINUOUS
10
220.931
20
-81.2026
11
206.931
21
-81.2026
0
LINE
8
BLACK
6
CONTINUOUS
10
206.931
20
-81.2026
11
206.889
21
-81.185
0
LINE
8
BLACK
6
CONTINUOUS
10
206.992
20
-67.2026
11
206.992
21
-81.0826
0
LINE
8
BLACK
6
CONTINUOUS
10
206.992
20
-81.0826
11
220.871
21
-81.0826
0
LINE
8
BLACK
6
CONTINUOUS
10
220.871
20
-81.0826
11
220.871
21
-67.2026
0
LINE
8
BLACK
6
CONTINUOUS
10
220.871
20
-67.2026
11
206.992
21
-67.2026
0
LINE
8
BLACK
6
CONTINUOUS
10
54.4891
20
-81.185
11
54.4715
21
-81.1426
0
LINE
8
BLACK
6
CONTINUOUS
10
54.4715
20
-81.1426
11
54.4715
21
-67.1426
0
LINE
8
BLACK
6
CONTINUOUS
10
54.4715
20
-67.1426
11
54.4891
21
-67.1002
0
LINE
8
BLACK
6
CONTINUOUS
10
54.4891
20
-67.1002
11
54.5315
21
-67.0826
0
LINE
8
BLACK
6
CONTINUOUS
10
54.5315
20
-67.0826
11
68.5315
21
-67.0826
0
LINE
8
BLACK
6
CONTINUOUS
10
68.5315
20
-67.0826
11
68.5739
21
-67.1002
0
LINE
8
BLACK
6
CONTINUOUS
10
68.5739
20
-67.1002
11
68.5915
21
-67.1426
0
LINE
8
BLACK
6
CONTINUOUS
10
68.5915
20
-67.1426
11
68.5915
21
-81.1426
0
LINE
8
BLACK
6
CONTINUOUS
10
68.5915
20
-81.1426
11
68.5739
21
-81.185
0
LINE
8
BLACK
6
CONTINUOUS
10
68.5739
20
-81.185
11
68.5315
21
-81.2026
0
LINE
8
BLACK
6
CONTINUOUS
10
68.5315
20
-81.2026
11
54.5315
21
-81.2026
0
LINE
8
BLACK
6
CONTINUOUS
10
54.5315
20
-81.2026
11
54.4891
21
-81.185
0
LINE
8
BLACK
6
CONTINUOUS
10
54.5915
20
-67.2026
11
54.5915
21
-81.0826
0
LINE
8
BLACK
6
CONTINUOUS
10
54.5915
20
-81.0826
11
68.4715
21
-81.0826
0
LINE
8
BLACK
6
CONTINUOUS
10
68.4715
20
-81.0826
11
68.4715
21
-67.2026
0
LINE
8
BLACK
6
CONTINUOUS
10
68.4715
20
-67.2026
11
54.5915
21
-67.2026
0
LINE
8
BLACK
6
CONTINUOUS
10
73.5391
20
-81.185
11
73.5215
21
-81.1426
0
LINE
8
BLACK
6
CONTINUOUS
10
73.5215
20
-81.1426
11
73.5215
21
-67.1426
0
LINE
8
BLACK
6
CONTINUOUS
10
73.5215
20
-67.1426
11
73.5391
21
-67.1002
0
LINE
8
BLACK
6
CONTINUOUS
10
73.5391
20
-67.1002
11
73.5815
21
-67.0826
0
LINE
8
BLACK
6
CONTINUOUS
10
73.5815
20
-67.0826
11
87.5815
21
-67.0826
0
LINE
8
BLACK
6
CONTINUOUS
10
87.5815
20
-67.0826
11
87.6239
21
-67.1002
0
LINE
8
BLACK
6
CONTINUOUS
10
87.6239
20
-67.1002
11
87.6415
21
-67.1426
0
LINE
8
BLACK
6
CONTINUOUS
10
87.6415
20
-67.1426
11
87.6415
21
-81.1426
0
LINE
8
BLACK
6
CONTINUOUS
10
87.6415
20
-81.1426
11
87.6239
21
-81.185
0
LINE
8
BLACK
6
CONTINUOUS
10
87.6239
20
-81.185
11
87.5815
21
-81.2026
0
LINE
8
BLACK
6
CONTINUOUS
10
87.5815
20
-81.2026
11
73.5815
21
-81.2026
0
LINE
8
BLACK
6
CONTINUOUS
10
73.5815
20
-81.2026
11
73.5391
21
-81.185
0
LINE
8
BLACK
6
CONTINUOUS
10
73.6415
20
-67.2026
11
73.6415
21
-81.0826
0
LINE
8
BLACK
6
CONTINUOUS
10
73.6415
20
-81.0826
11
87.5215
21
-81.0826
0
LINE
8
BLACK
6
CONTINUOUS
10
87.5215
20
-81.0826
11
87.5215
21
-67.2026
0
LINE
8
BLACK
6
CONTINUOUS
10
87.5215
20
-67.2026
11
73.6415
21
-67.2026
0
LINE
8
BLACK
6
CONTINUOUS
10
187.839
20
-81.185
11
187.821
21
-81.1426
0
LINE
8
BLACK
6
CONTINUOUS
10
187.821
20
-81.1426
11
187.821
21
-67.1426
0
LINE
8
BLACK
6
CONTINUOUS
10
187.821
20
-67.1426
11
187.839
21
-67.1002
0
LINE
8
BLACK
6
CONTINUOUS
10
187.839
20
-67.1002
11
187.881
21
-67.0826
0
LINE
8
BLACK
6
CONTINUOUS
10
187.881
20
-67.0826
11
201.881
21
-67.0826
0
LINE
8
BLACK
6
CONTINUOUS
10
201.881
20
-67.0826
11
201.924
21
-67.1002
0
LINE
8
BLACK
6
CONTINUOUS
10
201.924
20
-67.1002
11
201.941
21
-67.1426
0
LINE
8
BLACK
6
CONTINUOUS
10
201.941
20
-67.1426
11
201.941
21
-81.1426
0
LINE
8
BLACK
6
CONTINUOUS
10
201.941
20
-81.1426
11
201.924
21
-81.185
0
LINE
8
BLACK
6
CONTINUOUS
10
201.924
20
-81.185
11
201.881
21
-81.2026
0
LINE
8
BLACK
6
CONTINUOUS
10
201.881
20
-81.2026
11
187.881
21
-81.2026
0
LINE
8
BLACK
6
CONTINUOUS
10
187.881
20
-81.2026
11
187.839
21
-81.185
0
LINE
8
BLACK
6
CONTINUOUS
10
187.941
20
-67.2026
11
187.941
21
-81.0826
0
LINE
8
BLACK
6
CONTINUOUS
10
187.941
20
-81.0826
11
201.821
21
-81.0826
0
LINE
8
BLACK
6
CONTINUOUS
10
201.821
20
-81.0826
11
201.821
21
-67.2026
0
LINE
8
BLACK
6
CONTINUOUS
10
201.821
20
-67.2026
11
187.941
21
-67.2026
0
LINE
8
BLACK
6
CONTINUOUS
10
225.939
20
-81.185
11
225.921
21
-81.1426
0
LINE
8
BLACK
6
CONTINUOUS
10
225.921
20
-81.1426
11
225.921
21
-67.1426
0
LINE
8
BLACK
6
CONTINUOUS
10
225.921
20
-67.1426
11
225.939
21
-67.1002
0
LINE
8
BLACK
6
CONTINUOUS
10
225.939
20
-67.1002
11
225.981
21
-67.0826
0
LINE
8
BLACK
6
CONTINUOUS
10
225.981
20
-67.0826
11
239.981
21
-67.0826
0
LINE
8
BLACK
6
CONTINUOUS
10
239.981
20
-67.0826
11
240.024
21
-67.1002
0
LINE
8
BLACK
6
CONTINUOUS
10
240.024
20
-67.1002
11
240.041
21
-67.1426
0
LINE
8
BLACK
6
CONTINUOUS
10
240.041
20
-67.1426
11
240.041
21
-81.1426
0
LINE
8
BLACK
6
CONTINUOUS
10
240.041
20
-81.1426
11
240.024
21
-81.185
0
LINE
8
BLACK
6
CONTINUOUS
10
240.024
20
-81.185
11
239.981
21
-81.2026
0
LINE
8
BLACK
6
CONTINUOUS
10
239.981
20
-81.2026
11
225.981
21
-81.2026
0
LINE
8
BLACK
6
CONTINUOUS
10
225.981
20
-81.2026
11
225.939
21
-81.185
0
LINE
8
BLACK
6
CONTINUOUS
10
226.041
20
-67.2026
11
226.041
21
-81.0826
0
LINE
8
BLACK
6
CONTINUOUS
10
226.041
20
-81.0826
11
239.921
21
-81.0826
0
LINE
8
BLACK
6
CONTINUOUS
10
239.921
20
-81.0826
11
239.921
21
-67.2026
0
LINE
8
BLACK
6
CONTINUOUS
10
239.921
20
-67.2026
11
226.041
21
-67.2026
0
LINE
8
BLACK
6
CONTINUOUS
10
130.689
20
-81.185
11
130.671
21
-81.1426
0
LINE
8
BLACK
6
CONTINUOUS
10
130.671
20
-81.1426
11
130.671
21
-67.1426
0
LINE
8
BLACK
6
CONTINUOUS
10
130.671
20
-67.1426
11
130.689
21
-67.1002
0
LINE
8
BLACK
6
CONTINUOUS
10
130.689
20
-67.1002
11
130.731
21
-67.0826
0
LINE
8
BLACK
6
CONTINUOUS
10
130.731
20
-67.0826
11
144.731
21
-67.0826
0
LINE
8
BLACK
6
CONTINUOUS
10
144.731
20
-67.0826
11
144.774
21
-67.1002
0
LINE
8
BLACK
6
CONTINUOUS
10
144.774
20
-67.1002
11
144.791
21
-67.1426
0
LINE
8
BLACK
6
CONTINUOUS
10
144.791
20
-67.1426
11
144.791
21
-81.1426
0
LINE
8
BLACK
6
CONTINUOUS
10
144.791
20
-81.1426
11
144.774
21
-81.185
0
LINE
8
BLACK
6
CONTINUOUS
10
144.774
20
-81.185
11
144.731
21
-81.2026
0
LINE
8
BLACK
6
CONTINUOUS
10
144.731
20
-81.2026
11
130.731
21
-81.2026
0
LINE
8
BLACK
6
CONTINUOUS
10
130.731
20
-81.2026
11
130.689
21
-81.185
0
LINE
8
BLACK
6
CONTINUOUS
10
130.791
20
-67.2026
11
130.791
21
-81.0826
0
LINE
8
BLACK
6
CONTINUOUS
10
130.791
20
-81.0826
11
144.671
21
-81.0826
0
LINE
8
BLACK
6
CONTINUOUS
10
144.671
20
-81.0826
11
144.671
21
-67.2026
0
LINE
8
BLACK
6
CONTINUOUS
10
144.671
20
-67.2026
11
130.791
21
-67.2026
0
LINE
8
BLACK
6
CONTINUOUS
10
111.639
20
-81.185
11
111.621
21
-81.1426
0
LINE
8
BLACK
6
CONTINUOUS
10
111.621
20
-81.1426
11
111.621
21
-67.1426
0
LINE
8
BLACK
6
CONTINUOUS
10
111.621
20
-67.1426
11
111.639
21
-67.1002
0
LINE
8
BLACK
6
CONTINUOUS
10
111.639
20
-67.1002
11
111.681
21
-67.0826
0
LINE
8
BLACK
6
CONTINUOUS
10
111.681
20
-67.0826
11
125.681
21
-67.0826
0
LINE
8
BLACK
6
CONTINUOUS
10
125.681
20
-67.0826
11
125.724
21
-67.1002
0
LINE
8
BLACK
6
CONTINUOUS
10
125.724
20
-67.1002
11
125.741
21
-67.1426
0
LINE
8
BLACK
6
CONTINUOUS
10
125.741
20
-67.1426
11
125.741
21
-81.1426
0
LINE
8
BLACK
6
CONTINUOUS
10
125.741
20
-81.1426
11
125.724
21
-81.185
0
LINE
8
BLACK
6
CONTINUOUS
10
125.724
20
-81.185
11
125.681
21
-81.2026
0
LINE
8
BLACK
6
CONTINUOUS
10
125.681
20
-81.2026
11
111.681
21
-81.2026
0
LINE
8
BLACK
6
CONTINUOUS
10
111.681
20
-81.2026
11
111.639
21
-81.185
0
LINE
8
BLACK
6
CONTINUOUS
10
111.742
20
-67.2026
11
111.742
21
-81.0826
0
LINE
8
BLACK
6
CONTINUOUS
10
111.742
20
-81.0826
11
125.621
21
-81.0826
0
LINE
8
BLACK
6
CONTINUOUS
10
125.621
20
-81.0826
11
125.621
21
-67.2026
0
LINE
8
BLACK
6
CONTINUOUS
10
125.621
20
-67.2026
11
111.742
21
-67.2026
0
LINE
8
BLACK
6
CONTINUOUS
10
92.5891
20
-81.185
11
92.5715
21
-81.1426
0
LINE
8
BLACK
6
CONTINUOUS
10
92.5715
20
-81.1426
11
92.5715
21
-67.1426
0
LINE
8
BLACK
6
CONTINUOUS
10
92.5715
20
-67.1426
11
92.5891
21
-67.1002
0
LINE
8
BLACK
6
CONTINUOUS
10
92.5891
20
-67.1002
11
92.6315
21
-67.0826
0
LINE
8
BLACK
6
CONTINUOUS
10
92.6315
20
-67.0826
11
106.631
21
-67.0826
0
LINE
8
BLACK
6
CONTINUOUS
10
106.631
20
-67.0826
11
106.674
21
-67.1002
0
LINE
8
BLACK
6
CONTINUOUS
10
106.674
20
-67.1002
11
106.691
21
-67.1426
0
LINE
8
BLACK
6
CONTINUOUS
10
106.691
20
-67.1426
11
106.691
21
-81.1426
0
LINE
8
BLACK
6
CONTINUOUS
10
106.691
20
-81.1426
11
106.674
21
-81.185
0
LINE
8
BLACK
6
CONTINUOUS
10
106.674
20
-81.185
11
106.631
21
-81.2026
0
LINE
8
BLACK
6
CONTINUOUS
10
106.631
20
-81.2026
11
92.6315
21
-81.2026
0
LINE
8
BLACK
6
CONTINUOUS
10
92.6315
20
-81.2026
11
92.5891
21
-81.185
0
LINE
8
BLACK
6
CONTINUOUS
10
92.6915
20
-67.2026
11
92.6915
21
-81.0826
0
LINE
8
BLACK
6
CONTINUOUS
10
92.6915
20
-81.0826
11
106.572
21
-81.0826
0
LINE
8
BLACK
6
CONTINUOUS
10
106.572
20
-81.0826
11
106.572
21
-67.2026
0
LINE
8
BLACK
6
CONTINUOUS
10
106.572
20
-67.2026
11
92.6915
21
-67.2026
0
LINE
8
BLACK
6
CONTINUOUS
10
149.739
20
-81.185
11
149.721
21
-81.1426
0
LINE
8
BLACK
6
CONTINUOUS
10
149.721
20
-81.1426
11
149.721
21
-67.1426
0
LINE
8
BLACK
6
CONTINUOUS
10
149.721
20
-67.1426
11
149.739
21
-67.1002
0
LINE
8
BLACK
6
CONTINUOUS
10
149.739
20
-67.1002
11
149.781
21
-67.0826
0
LINE
8
BLACK
6
CONTINUOUS
10
149.781
20
-67.0826
11
163.781
21
-67.0826
0
LINE
8
BLACK
6
CONTINUOUS
10
163.781
20
-67.0826
11
163.824
21
-67.1002
0
LINE
8
BLACK
6
CONTINUOUS
10
163.824
20
-67.1002
11
163.841
21
-67.1426
0
LINE
8
BLACK
6
CONTINUOUS
10
163.841
20
-67.1426
11
163.841
21
-81.1426
0
LINE
8
BLACK
6
CONTINUOUS
10
163.841
20
-81.1426
11
163.824
21
-81.185
0
LINE
8
BLACK
6
CONTINUOUS
10
163.824
20
-81.185
11
163.781
21
-81.2026
0
LINE
8
BLACK
6
CONTINUOUS
10
163.781
20
-81.2026
11
149.781
21
-81.2026
0
LINE
8
BLACK
6
CONTINUOUS
10
149.781
20
-81.2026
11
149.739
21
-81.185
0
LINE
8
BLACK
6
CONTINUOUS
10
149.841
20
-67.2026
11
149.841
21
-81.0826
0
LINE
8
BLACK
6
CONTINUOUS
10
149.841
20
-81.0826
11
163.721
21
-81.0826
0
LINE
8
BLACK
6
CONTINUOUS
10
163.721
20
-81.0826
11
163.721
21
-67.2026
0
LINE
8
BLACK
6
CONTINUOUS
10
163.721
20
-67.2026
11
149.841
21
-67.2026
0
LINE
8
BLACK
6
CONTINUOUS
10
168.789
20
-81.185
11
168.772
21
-81.1426
0
LINE
8
BLACK
6
CONTINUOUS
10
168.772
20
-81.1426
11
168.772
21
-67.1426
0
LINE
8
BLACK
6
CONTINUOUS
10
168.772
20
-67.1426
11
168.789
21
-67.1002
0
LINE
8
BLACK
6
CONTINUOUS
10
168.789
20
-67.1002
11
168.832
21
-67.0826
0
LINE
8
BLACK
6
CONTINUOUS
10
168.832
20
-67.0826
11
182.832
21
-67.0826
0
LINE
8
BLACK
6
CONTINUOUS
10
182.832
20
-67.0826
11
182.874
21
-67.1002
0
LINE
8
BLACK
6
CONTINUOUS
10
182.874
20
-67.1002
11
182.891
21
-67.1426
0
LINE
8
BLACK
6
CONTINUOUS
10
182.891
20
-67.1426
11
182.891
21
-81.1426
0
LINE
8
BLACK
6
CONTINUOUS
10
182.891
20
-81.1426
11
182.874
21
-81.185
0
LINE
8
BLACK
6
CONTINUOUS
10
182.874
20
-81.185
11
182.832
21
-81.2026
0
LINE
8
BLACK
6
CONTINUOUS
10
182.832
20
-81.2026
11
168.832
21
-81.2026
0
LINE
8
BLACK
6
CONTINUOUS
10
168.832
20
-81.2026
11
168.789
21
-81.185
0
LINE
8
BLACK
6
CONTINUOUS
10
168.891
20
-67.2026
11
168.891
21
-81.0826
0
LINE
8
BLACK
6
CONTINUOUS
10
168.891
20
-81.0826
11
182.772
21
-81.0826
0
LINE
8
BLACK
6
CONTINUOUS
10
182.772
20
-81.0826
11
182.772
21
-67.2026
0
LINE
8
BLACK
6
CONTINUOUS
10
182.772
20
-67.2026
11
168.891
21
-67.2026
0
LINE
8
BLACK
6
CONTINUOUS
10
173.718
20
-57.7392
11
173.711
21
-57.7215
0
LINE
8
BLACK
6
CONTINUOUS
10
173.711
20
-57.7215
11
173.711
21
-50.1777
0
LINE
8
BLACK
6
CONTINUOUS
10
173.711
20
-50.1777
11
173.718
21
-50.16
0
LINE
8
BLACK
6
CONTINUOUS
10
173.718
20
-50.16
11
173.736
21
-50.1527
0
LINE
8
BLACK
6
CONTINUOUS
10
173.736
20
-50.1527
11
183.299
21
-50.1527
0
LINE
8
BLACK
6
CONTINUOUS
10
183.299
20
-50.1527
11
183.317
21
-50.16
0
LINE
8
BLACK
6
CONTINUOUS
10
183.317
20
-50.16
11
183.324
21
-50.1777
0
LINE
8
BLACK
6
CONTINUOUS
10
183.324
20
-50.1777
11
183.324
21
-57.7215
0
LINE
8
BLACK
6
CONTINUOUS
10
183.324
20
-57.7215
11
183.317
21
-57.7392
0
LINE
8
BLACK
6
CONTINUOUS
10
183.317
20
-57.7392
11
183.299
21
-57.7465
0
LINE
8
BLACK
6
CONTINUOUS
10
183.299
20
-57.7465
11
173.736
21
-57.7465
0
LINE
8
BLACK
6
CONTINUOUS
10
173.736
20
-57.7465
11
173.718
21
-57.7392
0
LINE
8
BLACK
6
CONTINUOUS
10
173.761
20
-50.2027
11
173.761
21
-57.6965
0
LINE
8
BLACK
6
CONTINUOUS
10
173.761
20
-57.6965
11
183.274
21
-57.6965
0
LINE
8
BLACK
6
CONTINUOUS
10
183.274
20
-57.6965
11
183.274
21
-50.2027
0
LINE
8
BLACK
6
CONTINUOUS
10
183.274
20
-50.2027
11
173.761
21
-50.2027
0
LINE
8
BLACK
6
CONTINUOUS
10
203.264
20
-121.525
11
203.327
21
-121.321
0
LINE
8
BLACK
6
CONTINUOUS
10
203.327
20
-121.321
11
203.427
21
-121.131
0
LINE
8
BLACK
6
CONTINUOUS
10
203.427
20
-121.131
11
203.559
21
-120.964
0
LINE
8
BLACK
6
CONTINUOUS
10
203.559
20
-120.964
11
203.72
21
-120.823
0
LINE
8
BLACK
6
CONTINUOUS
10
203.72
20
-120.823
11
203.904
21
-120.713
0
LINE
8
BLACK
6
CONTINUOUS
10
203.904
20
-120.713
11
204.104
21
-120.639
0
LINE
8
BLACK
6
CONTINUOUS
10
204.104
20
-120.639
11
204.315
21
-120.603
0
LINE
8
BLACK
6
CONTINUOUS
10
204.315
20
-120.603
11
204.529
21
-120.606
0
LINE
8
BLACK
6
CONTINUOUS
10
204.529
20
-120.606
11
204.738
21
-120.648
0
LINE
8
BLACK
6
CONTINUOUS
10
204.738
20
-120.648
11
204.937
21
-120.727
0
LINE
8
BLACK
6
CONTINUOUS
10
204.937
20
-120.727
11
205.118
21
-120.841
0
LINE
8
BLACK
6
CONTINUOUS
10
205.118
20
-120.841
11
205.274
21
-120.986
0
LINE
8
BLACK
6
CONTINUOUS
10
205.274
20
-120.986
11
205.402
21
-121.157
0
LINE
8
BLACK
6
CONTINUOUS
10
205.402
20
-121.157
11
205.497
21
-121.349
0
LINE
8
BLACK
6
CONTINUOUS
10
205.497
20
-121.349
11
205.555
21
-121.555
0
LINE
8
BLACK
6
CONTINUOUS
10
205.555
20
-121.555
11
205.575
21
-121.768
0
LINE
8
BLACK
6
CONTINUOUS
10
205.575
20
-121.768
11
205.573
21
-121.829
0
LINE
8
BLACK
6
CONTINUOUS
10
205.573
20
-121.829
11
205.542
21
-122.04
0
LINE
8
BLACK
6
CONTINUOUS
10
205.542
20
-122.04
11
205.474
21
-122.243
0
LINE
8
BLACK
6
CONTINUOUS
10
205.474
20
-122.243
11
205.369
21
-122.429
0
LINE
8
BLACK
6
CONTINUOUS
10
205.369
20
-122.429
11
205.232
21
-122.594
0
LINE
8
BLACK
6
CONTINUOUS
10
205.232
20
-122.594
11
205.068
21
-122.73
0
LINE
8
BLACK
6
CONTINUOUS
10
205.068
20
-122.73
11
204.882
21
-122.835
0
LINE
8
BLACK
6
CONTINUOUS
10
204.882
20
-122.835
11
204.679
21
-122.903
0
LINE
8
BLACK
6
CONTINUOUS
10
204.679
20
-122.903
11
204.468
21
-122.934
0
LINE
8
BLACK
6
CONTINUOUS
10
204.468
20
-122.934
11
204.254
21
-122.926
0
LINE
8
BLACK
6
CONTINUOUS
10
204.254
20
-122.926
11
204.046
21
-122.878
0
LINE
8
BLACK
6
CONTINUOUS
10
204.046
20
-122.878
11
203.849
21
-122.794
0
LINE
8
BLACK
6
CONTINUOUS
10
203.849
20
-122.794
11
203.671
21
-122.675
0
LINE
8
BLACK
6
CONTINUOUS
10
203.671
20
-122.675
11
203.518
21
-122.526
0
LINE
8
BLACK
6
CONTINUOUS
10
203.518
20
-122.526
11
203.395
21
-122.352
0
LINE
8
BLACK
6
CONTINUOUS
10
203.395
20
-122.352
11
203.305
21
-122.157
0
LINE
8
BLACK
6
CONTINUOUS
10
203.305
20
-122.157
11
203.253
21
-121.95
0
LINE
8
BLACK
6
CONTINUOUS
10
203.253
20
-121.95
11
203.239
21
-121.738
0
LINE
8
BLACK
6
CONTINUOUS
10
203.239
20
-121.738
11
203.239
21
-121.737
0
LINE
8
BLACK
6
CONTINUOUS
10
203.239
20
-121.737
11
203.264
21
-121.525
0
LINE
8
BLACK
6
CONTINUOUS
10
203.348
20
-122.142
11
203.434
21
-122.329
0
LINE
8
BLACK
6
CONTINUOUS
10
203.434
20
-122.329
11
203.553
21
-122.497
0
LINE
8
BLACK
6
CONTINUOUS
10
203.553
20
-122.497
11
203.7
21
-122.64
0
LINE
8
BLACK
6
CONTINUOUS
10
203.7
20
-122.64
11
203.871
21
-122.754
0
LINE
8
BLACK
6
CONTINUOUS
10
203.871
20
-122.754
11
204.06
21
-122.835
0
LINE
8
BLACK
6
CONTINUOUS
10
204.06
20
-122.835
11
204.26
21
-122.881
0
LINE
8
BLACK
6
CONTINUOUS
10
204.26
20
-122.881
11
204.465
21
-122.889
0
LINE
8
BLACK
6
CONTINUOUS
10
204.465
20
-122.889
11
204.669
21
-122.859
0
LINE
8
BLACK
6
CONTINUOUS
10
204.669
20
-122.859
11
204.863
21
-122.793
0
LINE
8
BLACK
6
CONTINUOUS
10
204.863
20
-122.793
11
205.042
21
-122.693
0
LINE
8
BLACK
6
CONTINUOUS
10
205.042
20
-122.693
11
205.2
21
-122.562
0
LINE
8
BLACK
6
CONTINUOUS
10
205.2
20
-122.562
11
205.332
21
-122.404
0
LINE
8
BLACK
6
CONTINUOUS
10
205.332
20
-122.404
11
205.432
21
-122.224
0
LINE
8
BLACK
6
CONTINUOUS
10
205.432
20
-122.224
11
205.498
21
-122.03
0
LINE
8
BLACK
6
CONTINUOUS
10
205.498
20
-122.03
11
205.528
21
-121.826
0
LINE
8
BLACK
6
CONTINUOUS
10
205.528
20
-121.826
11
205.529
21
-121.768
0
LINE
8
BLACK
6
CONTINUOUS
10
205.529
20
-121.768
11
205.51
21
-121.563
0
LINE
8
BLACK
6
CONTINUOUS
10
205.51
20
-121.563
11
205.455
21
-121.365
0
LINE
8
BLACK
6
CONTINUOUS
10
205.455
20
-121.365
11
205.364
21
-121.181
0
LINE
8
BLACK
6
CONTINUOUS
10
205.364
20
-121.181
11
205.241
21
-121.016
0
LINE
8
BLACK
6
CONTINUOUS
10
205.241
20
-121.016
11
205.09
21
-120.877
0
LINE
8
BLACK
6
CONTINUOUS
10
205.09
20
-120.877
11
204.916
21
-120.767
0
LINE
8
BLACK
6
CONTINUOUS
10
204.916
20
-120.767
11
204.725
21
-120.691
0
LINE
8
BLACK
6
CONTINUOUS
10
204.725
20
-120.691
11
204.524
21
-120.651
0
LINE
8
BLACK
6
CONTINUOUS
10
204.524
20
-120.651
11
204.318
21
-120.648
0
LINE
8
BLACK
6
CONTINUOUS
10
204.318
20
-120.648
11
204.116
21
-120.683
0
LINE
8
BLACK
6
CONTINUOUS
10
204.116
20
-120.683
11
203.923
21
-120.754
0
LINE
8
BLACK
6
CONTINUOUS
10
203.923
20
-120.754
11
203.747
21
-120.859
0
LINE
8
BLACK
6
CONTINUOUS
10
203.747
20
-120.859
11
203.592
21
-120.995
0
LINE
8
BLACK
6
CONTINUOUS
10
203.592
20
-120.995
11
203.465
21
-121.156
0
LINE
8
BLACK
6
CONTINUOUS
10
203.465
20
-121.156
11
203.369
21
-121.338
0
LINE
8
BLACK
6
CONTINUOUS
10
203.369
20
-121.338
11
203.308
21
-121.534
0
LINE
8
BLACK
6
CONTINUOUS
10
203.308
20
-121.534
11
203.284
21
-121.738
0
LINE
8
BLACK
6
CONTINUOUS
10
203.284
20
-121.738
11
203.298
21
-121.943
0
LINE
8
BLACK
6
CONTINUOUS
10
203.298
20
-121.943
11
203.348
21
-122.142
0
LINE
8
BLACK
6
CONTINUOUS
10
88.964
20
-121.525
11
89.0274
21
-121.321
0
LINE
8
BLACK
6
CONTINUOUS
10
89.0274
20
-121.321
11
89.1269
21
-121.131
0
LINE
8
BLACK
6
CONTINUOUS
10
89.1269
20
-121.131
11
89.2593
21
-120.964
0
LINE
8
BLACK
6
CONTINUOUS
10
89.2593
20
-120.964
11
89.42
21
-120.823
0
LINE
8
BLACK
6
CONTINUOUS
10
89.42
20
-120.823
11
89.6037
21
-120.713
0
LINE
8
BLACK
6
CONTINUOUS
10
89.6037
20
-120.713
11
89.8042
21
-120.639
0
LINE
8
BLACK
6
CONTINUOUS
10
89.8042
20
-120.639
11
90.0149
21
-120.603
0
LINE
8
BLACK
6
CONTINUOUS
10
90.0149
20
-120.603
11
90.2286
21
-120.606
0
LINE
8
BLACK
6
CONTINUOUS
10
90.2286
20
-120.606
11
90.4382
21
-120.648
0
LINE
8
BLACK
6
CONTINUOUS
10
90.4382
20
-120.648
11
90.6368
21
-120.727
0
LINE
8
BLACK
6
CONTINUOUS
10
90.6368
20
-120.727
11
90.8175
21
-120.841
0
LINE
8
BLACK
6
CONTINUOUS
10
90.8175
20
-120.841
11
90.9745
21
-120.986
0
LINE
8
BLACK
6
CONTINUOUS
10
90.9745
20
-120.986
11
91.1024
21
-121.157
0
LINE
8
BLACK
6
CONTINUOUS
10
91.1024
20
-121.157
11
91.1969
21
-121.349
0
LINE
8
BLACK
6
CONTINUOUS
10
91.1969
20
-121.349
11
91.2549
21
-121.555
0
LINE
8
BLACK
6
CONTINUOUS
10
91.2549
20
-121.555
11
91.2745
21
-121.768
0
LINE
8
BLACK
6
CONTINUOUS
10
91.2745
20
-121.768
11
91.2729
21
-121.829
0
LINE
8
BLACK
6
CONTINUOUS
10
91.2729
20
-121.829
11
91.2422
21
-122.04
0
LINE
8
BLACK
6
CONTINUOUS
10
91.2422
20
-122.04
11
91.1735
21
-122.243
0
LINE
8
BLACK
6
CONTINUOUS
10
91.1735
20
-122.243
11
91.0691
21
-122.429
0
LINE
8
BLACK
6
CONTINUOUS
10
91.0691
20
-122.429
11
90.9324
21
-122.594
0
LINE
8
BLACK
6
CONTINUOUS
10
90.9324
20
-122.594
11
90.7681
21
-122.73
0
LINE
8
BLACK
6
CONTINUOUS
10
90.7681
20
-122.73
11
90.5816
21
-122.835
0
LINE
8
BLACK
6
CONTINUOUS
10
90.5816
20
-122.835
11
90.3792
21
-122.903
0
LINE
8
BLACK
6
CONTINUOUS
10
90.3792
20
-122.903
11
90.1676
21
-122.934
0
LINE
8
BLACK
6
CONTINUOUS
10
90.1676
20
-122.934
11
89.954
21
-122.926
0
LINE
8
BLACK
6
CONTINUOUS
10
89.954
20
-122.926
11
89.7456
21
-122.878
0
LINE
8
BLACK
6
CONTINUOUS
10
89.7456
20
-122.878
11
89.5492
21
-122.794
0
LINE
8
BLACK
6
CONTINUOUS
10
89.5492
20
-122.794
11
89.3715
21
-122.675
0
LINE
8
BLACK
6
CONTINUOUS
10
89.3715
20
-122.675
11
89.2183
21
-122.526
0
LINE
8
BLACK
6
CONTINUOUS
10
89.2183
20
-122.526
11
89.095
21
-122.352
0
LINE
8
BLACK
6
CONTINUOUS
10
89.095
20
-122.352
11
89.0055
21
-122.157
0
LINE
8
BLACK
6
CONTINUOUS
10
89.0055
20
-122.157
11
88.9529
21
-121.95
0
LINE
8
BLACK
6
CONTINUOUS
10
88.9529
20
-121.95
11
88.939
21
-121.738
0
LINE
8
BLACK
6
CONTINUOUS
10
88.939
20
-121.738
11
88.9389
21
-121.737
0
LINE
8
BLACK
6
CONTINUOUS
10
88.9389
20
-121.737
11
88.964
21
-121.525
0
LINE
8
BLACK
6
CONTINUOUS
10
89.0481
20
-122.142
11
89.1341
21
-122.329
0
LINE
8
BLACK
6
CONTINUOUS
10
89.1341
20
-122.329
11
89.2527
21
-122.497
0
LINE
8
BLACK
6
CONTINUOUS
10
89.2527
20
-122.497
11
89.3999
21
-122.64
0
LINE
8
BLACK
6
CONTINUOUS
10
89.3999
20
-122.64
11
89.5708
21
-122.754
0
LINE
8
BLACK
6
CONTINUOUS
10
89.5708
20
-122.754
11
89.7595
21
-122.835
0
LINE
8
BLACK
6
CONTINUOUS
10
89.7595
20
-122.835
11
89.9599
21
-122.881
0
LINE
8
BLACK
6
CONTINUOUS
10
89.9599
20
-122.881
11
90.1653
21
-122.889
0
LINE
8
BLACK
6
CONTINUOUS
10
90.1653
20
-122.889
11
90.3686
21
-122.859
0
LINE
8
BLACK
6
CONTINUOUS
10
90.3686
20
-122.859
11
90.5632
21
-122.793
0
LINE
8
BLACK
6
CONTINUOUS
10
90.5632
20
-122.793
11
90.7425
21
-122.693
0
LINE
8
BLACK
6
CONTINUOUS
10
90.7425
20
-122.693
11
90.9004
21
-122.562
0
LINE
8
BLACK
6
CONTINUOUS
10
90.9004
20
-122.562
11
91.0318
21
-122.404
0
LINE
8
BLACK
6
CONTINUOUS
10
91.0318
20
-122.404
11
91.1322
21
-122.224
0
LINE
8
BLACK
6
CONTINUOUS
10
91.1322
20
-122.224
11
91.1983
21
-122.03
0
LINE
8
BLACK
6
CONTINUOUS
10
91.1983
20
-122.03
11
91.2278
21
-121.826
0
LINE
8
BLACK
6
CONTINUOUS
10
91.2278
20
-121.826
11
91.2293
21
-121.768
0
LINE
8
BLACK
6
CONTINUOUS
10
91.2293
20
-121.768
11
91.2105
21
-121.563
0
LINE
8
BLACK
6
CONTINUOUS
10
91.2105
20
-121.563
11
91.1547
21
-121.365
0
LINE
8
BLACK
6
CONTINUOUS
10
91.1547
20
-121.365
11
91.0638
21
-121.181
0
LINE
8
BLACK
6
CONTINUOUS
10
91.0638
20
-121.181
11
90.9409
21
-121.016
0
LINE
8
BLACK
6
CONTINUOUS
10
90.9409
20
-121.016
11
90.79
21
-120.877
0
LINE
8
BLACK
6
CONTINUOUS
10
90.79
20
-120.877
11
90.6162
21
-120.767
0
LINE
8
BLACK
6
CONTINUOUS
10
90.6162
20
-120.767
11
90.4254
21
-120.691
0
LINE
8
BLACK
6
CONTINUOUS
10
90.4254
20
-120.691
11
90.2239
21
-120.651
0
LINE
8
BLACK
6
CONTINUOUS
10
90.2239
20
-120.651
11
90.0184
21
-120.648
0
LINE
8
BLACK
6
CONTINUOUS
10
90.0184
20
-120.648
11
89.8159
21
-120.683
0
LINE
8
BLACK
6
CONTINUOUS
10
89.8159
20
-120.683
11
89.6231
21
-120.754
0
LINE
8
BLACK
6
CONTINUOUS
10
89.6231
20
-120.754
11
89.4465
21
-120.859
0
LINE
8
BLACK
6
CONTINUOUS
10
89.4465
20
-120.859
11
89.2921
21
-120.995
0
LINE
8
BLACK
6
CONTINUOUS
10
89.2921
20
-120.995
11
89.1648
21
-121.156
0
LINE
8
BLACK
6
CONTINUOUS
10
89.1648
20
-121.156
11
89.0692
21
-121.338
0
LINE
8
BLACK
6
CONTINUOUS
10
89.0692
20
-121.338
11
89.0082
21
-121.534
0
LINE
8
BLACK
6
CONTINUOUS
10
89.0082
20
-121.534
11
88.9841
21
-121.738
0
LINE
8
BLACK
6
CONTINUOUS
10
88.9841
20
-121.738
11
88.9975
21
-121.943
0
LINE
8
BLACK
6
CONTINUOUS
10
88.9975
20
-121.943
11
89.0481
21
-122.142
0
LINE
8
BLACK
6
CONTINUOUS
10
146.114
20
-102.475
11
146.177
21
-102.271
0
LINE
8
BLACK
6
CONTINUOUS
10
146.177
20
-102.271
11
146.277
21
-102.081
0
LINE
8
BLACK
6
CONTINUOUS
10
146.277
20
-102.081
11
146.409
21
-101.914
0
LINE
8
BLACK
6
CONTINUOUS
10
146.409
20
-101.914
11
146.57
21
-101.773
0
LINE
8
BLACK
6
CONTINUOUS
10
146.57
20
-101.773
11
146.754
21
-101.663
0
LINE
8
BLACK
6
CONTINUOUS
10
146.754
20
-101.663
11
146.954
21
-101.589
0
LINE
8
BLACK
6
CONTINUOUS
10
146.954
20
-101.589
11
147.165
21
-101.553
0
LINE
8
BLACK
6
CONTINUOUS
10
147.165
20
-101.553
11
147.379
21
-101.556
0
LINE
8
BLACK
6
CONTINUOUS
10
147.379
20
-101.556
11
147.588
21
-101.598
0
LINE
8
BLACK
6
CONTINUOUS
10
147.588
20
-101.598
11
147.787
21
-101.677
0
LINE
8
BLACK
6
CONTINUOUS
10
147.787
20
-101.677
11
147.968
21
-101.791
0
LINE
8
BLACK
6
CONTINUOUS
10
147.968
20
-101.791
11
148.124
21
-101.936
0
LINE
8
BLACK
6
CONTINUOUS
10
148.124
20
-101.936
11
148.252
21
-102.107
0
LINE
8
BLACK
6
CONTINUOUS
10
148.252
20
-102.107
11
148.347
21
-102.299
0
LINE
8
BLACK
6
CONTINUOUS
10
148.347
20
-102.299
11
148.405
21
-102.505
0
LINE
8
BLACK
6
CONTINUOUS
10
148.405
20
-102.505
11
148.424
21
-102.718
0
LINE
8
BLACK
6
CONTINUOUS
10
148.424
20
-102.718
11
148.423
21
-102.779
0
LINE
8
BLACK
6
CONTINUOUS
10
148.423
20
-102.779
11
148.392
21
-102.99
0
LINE
8
BLACK
6
CONTINUOUS
10
148.392
20
-102.99
11
148.324
21
-103.193
0
LINE
8
BLACK
6
CONTINUOUS
10
148.324
20
-103.193
11
148.219
21
-103.379
0
LINE
8
BLACK
6
CONTINUOUS
10
148.219
20
-103.379
11
148.082
21
-103.544
0
LINE
8
BLACK
6
CONTINUOUS
10
148.082
20
-103.544
11
147.918
21
-103.68
0
LINE
8
BLACK
6
CONTINUOUS
10
147.918
20
-103.68
11
147.732
21
-103.785
0
LINE
8
BLACK
6
CONTINUOUS
10
147.732
20
-103.785
11
147.529
21
-103.853
0
LINE
8
BLACK
6
CONTINUOUS
10
147.529
20
-103.853
11
147.318
21
-103.884
0
LINE
8
BLACK
6
CONTINUOUS
10
147.318
20
-103.884
11
147.104
21
-103.876
0
LINE
8
BLACK
6
CONTINUOUS
10
147.104
20
-103.876
11
146.896
21
-103.828
0
LINE
8
BLACK
6
CONTINUOUS
10
146.896
20
-103.828
11
146.699
21
-103.744
0
LINE
8
BLACK
6
CONTINUOUS
10
146.699
20
-103.744
11
146.521
21
-103.625
0
LINE
8
BLACK
6
CONTINUOUS
10
146.521
20
-103.625
11
146.368
21
-103.476
0
LINE
8
BLACK
6
CONTINUOUS
10
146.368
20
-103.476
11
146.245
21
-103.302
0
LINE
8
BLACK
6
CONTINUOUS
10
146.245
20
-103.302
11
146.155
21
-103.107
0
LINE
8
BLACK
6
CONTINUOUS
10
146.155
20
-103.107
11
146.103
21
-102.9
0
LINE
8
BLACK
6
CONTINUOUS
10
146.103
20
-102.9
11
146.089
21
-102.688
0
LINE
8
BLACK
6
CONTINUOUS
10
146.089
20
-102.688
11
146.089
21
-102.687
0
LINE
8
BLACK
6
CONTINUOUS
10
146.089
20
-102.687
11
146.114
21
-102.475
0
LINE
8
BLACK
6
CONTINUOUS
10
146.198
20
-103.092
11
146.284
21
-103.279
0
LINE
8
BLACK
6
CONTINUOUS
10
146.284
20
-103.279
11
146.403
21
-103.447
0
LINE
8
BLACK
6
CONTINUOUS
10
146.403
20
-103.447
11
146.55
21
-103.59
0
LINE
8
BLACK
6
CONTINUOUS
10
146.55
20
-103.59
11
146.721
21
-103.704
0
LINE
8
BLACK
6
CONTINUOUS
10
146.721
20
-103.704
11
146.91
21
-103.785
0
LINE
8
BLACK
6
CONTINUOUS
10
146.91
20
-103.785
11
147.11
21
-103.831
0
LINE
8
BLACK
6
CONTINUOUS
10
147.11
20
-103.831
11
147.315
21
-103.839
0
LINE
8
BLACK
6
CONTINUOUS
10
147.315
20
-103.839
11
147.519
21
-103.809
0
LINE
8
BLACK
6
CONTINUOUS
10
147.519
20
-103.809
11
147.713
21
-103.743
0
LINE
8
BLACK
6
CONTINUOUS
10
147.713
20
-103.743
11
147.892
21
-103.643
0
LINE
8
BLACK
6
CONTINUOUS
10
147.892
20
-103.643
11
148.05
21
-103.512
0
LINE
8
BLACK
6
CONTINUOUS
10
148.05
20
-103.512
11
148.182
21
-103.354
0
LINE
8
BLACK
6
CONTINUOUS
10
148.182
20
-103.354
11
148.282
21
-103.174
0
LINE
8
BLACK
6
CONTINUOUS
10
148.282
20
-103.174
11
148.348
21
-102.98
0
LINE
8
BLACK
6
CONTINUOUS
10
148.348
20
-102.98
11
148.378
21
-102.776
0
LINE
8
BLACK
6
CONTINUOUS
10
148.378
20
-102.776
11
148.379
21
-102.718
0
LINE
8
BLACK
6
CONTINUOUS
10
148.379
20
-102.718
11
148.36
21
-102.513
0
LINE
8
BLACK
6
CONTINUOUS
10
148.36
20
-102.513
11
148.305
21
-102.315
0
LINE
8
BLACK
6
CONTINUOUS
10
148.305
20
-102.315
11
148.214
21
-102.131
0
LINE
8
BLACK
6
CONTINUOUS
10
148.214
20
-102.131
11
148.091
21
-101.966
0
LINE
8
BLACK
6
CONTINUOUS
10
148.091
20
-101.966
11
147.94
21
-101.827
0
LINE
8
BLACK
6
CONTINUOUS
10
147.94
20
-101.827
11
147.766
21
-101.717
0
LINE
8
BLACK
6
CONTINUOUS
10
147.766
20
-101.717
11
147.575
21
-101.641
0
LINE
8
BLACK
6
CONTINUOUS
10
147.575
20
-101.641
11
147.374
21
-101.601
0
LINE
8
BLACK
6
CONTINUOUS
10
147.374
20
-101.601
11
147.168
21
-101.598
0
LINE
8
BLACK
6
CONTINUOUS
10
147.168
20
-101.598
11
146.966
21
-101.633
0
LINE
8
BLACK
6
CONTINUOUS
10
146.966
20
-101.633
11
146.773
21
-101.704
0
LINE
8
BLACK
6
CONTINUOUS
10
146.773
20
-101.704
11
146.597
21
-101.809
0
LINE
8
BLACK
6
CONTINUOUS
10
146.597
20
-101.809
11
146.442
21
-101.945
0
LINE
8
BLACK
6
CONTINUOUS
10
146.442
20
-101.945
11
146.315
21
-102.106
0
LINE
8
BLACK
6
CONTINUOUS
10
146.315
20
-102.106
11
146.219
21
-102.288
0
LINE
8
BLACK
6
CONTINUOUS
10
146.219
20
-102.288
11
146.158
21
-102.484
0
LINE
8
BLACK
6
CONTINUOUS
10
146.158
20
-102.484
11
146.134
21
-102.688
0
LINE
8
BLACK
6
CONTINUOUS
10
146.134
20
-102.688
11
146.148
21
-102.893
0
LINE
8
BLACK
6
CONTINUOUS
10
146.148
20
-102.893
11
146.198
21
-103.092
0
LINE
8
BLACK
6
CONTINUOUS
10
88.964
20
-83.4248
11
89.0274
21
-83.2206
0
LINE
8
BLACK
6
CONTINUOUS
10
89.0274
20
-83.2206
11
89.1269
21
-83.0315
0
LINE
8
BLACK
6
CONTINUOUS
10
89.1269
20
-83.0315
11
89.2593
21
-82.8636
0
LINE
8
BLACK
6
CONTINUOUS
10
89.2593
20
-82.8636
11
89.42
21
-82.7227
0
LINE
8
BLACK
6
CONTINUOUS
10
89.42
20
-82.7227
11
89.6037
21
-82.6134
0
LINE
8
BLACK
6
CONTINUOUS
10
89.6037
20
-82.6134
11
89.8042
21
-82.5394
0
LINE
8
BLACK
6
CONTINUOUS
10
89.8042
20
-82.5394
11
90.0149
21
-82.5032
0
LINE
8
BLACK
6
CONTINUOUS
10
90.0149
20
-82.5032
11
90.2286
21
-82.506
0
LINE
8
BLACK
6
CONTINUOUS
10
90.2286
20
-82.506
11
90.4382
21
-82.5477
0
LINE
8
BLACK
6
CONTINUOUS
10
90.4382
20
-82.5477
11
90.6368
21
-82.6269
0
LINE
8
BLACK
6
CONTINUOUS
10
90.6368
20
-82.6269
11
90.8175
21
-82.741
0
LINE
8
BLACK
6
CONTINUOUS
10
90.8175
20
-82.741
11
90.9745
21
-82.8861
0
LINE
8
BLACK
6
CONTINUOUS
10
90.9745
20
-82.8861
11
91.1024
21
-83.0573
0
LINE
8
BLACK
6
CONTINUOUS
10
91.1024
20
-83.0573
11
91.1969
21
-83.249
0
LINE
8
BLACK
6
CONTINUOUS
10
91.1969
20
-83.249
11
91.2549
21
-83.4547
0
LINE
8
BLACK
6
CONTINUOUS
10
91.2549
20
-83.4547
11
91.2745
21
-83.6676
0
LINE
8
BLACK
6
CONTINUOUS
10
91.2745
20
-83.6676
11
91.2729
21
-83.7287
0
LINE
8
BLACK
6
CONTINUOUS
10
91.2729
20
-83.7287
11
91.2422
21
-83.9403
0
LINE
8
BLACK
6
CONTINUOUS
10
91.2422
20
-83.9403
11
91.1735
21
-84.1427
0
LINE
8
BLACK
6
CONTINUOUS
10
91.1735
20
-84.1427
11
91.0691
21
-84.3292
0
LINE
8
BLACK
6
CONTINUOUS
10
91.0691
20
-84.3292
11
90.9324
21
-84.4935
0
LINE
8
BLACK
6
CONTINUOUS
10
90.9324
20
-84.4935
11
90.7681
21
-84.6302
0
LINE
8
BLACK
6
CONTINUOUS
10
90.7681
20
-84.6302
11
90.5816
21
-84.7346
0
LINE
8
BLACK
6
CONTINUOUS
10
90.5816
20
-84.7346
11
90.3792
21
-84.8033
0
LINE
8
BLACK
6
CONTINUOUS
10
90.3792
20
-84.8033
11
90.1676
21
-84.834
0
LINE
8
BLACK
6
CONTINUOUS
10
90.1676
20
-84.834
11
89.954
21
-84.8256
0
LINE
8
BLACK
6
CONTINUOUS
10
89.954
20
-84.8256
11
89.7456
21
-84.7784
0
LINE
8
BLACK
6
CONTINUOUS
10
89.7456
20
-84.7784
11
89.5492
21
-84.6941
0
LINE
8
BLACK
6
CONTINUOUS
10
89.5492
20
-84.6941
11
89.3715
21
-84.5753
0
LINE
8
BLACK
6
CONTINUOUS
10
89.3715
20
-84.5753
11
89.2183
21
-84.4262
0
LINE
8
BLACK
6
CONTINUOUS
10
89.2183
20
-84.4262
11
89.095
21
-84.2516
0
LINE
8
BLACK
6
CONTINUOUS
10
89.095
20
-84.2516
11
89.0055
21
-84.0575
0
LINE
8
BLACK
6
CONTINUOUS
10
89.0055
20
-84.0575
11
88.9529
21
-83.8503
0
LINE
8
BLACK
6
CONTINUOUS
10
88.9529
20
-83.8503
11
88.939
21
-83.6382
0
LINE
8
BLACK
6
CONTINUOUS
10
88.939
20
-83.6382
11
88.9389
21
-83.637
0
LINE
8
BLACK
6
CONTINUOUS
10
88.9389
20
-83.637
11
88.964
21
-83.4248
0
LINE
8
BLACK
6
CONTINUOUS
10
89.0481
20
-84.0424
11
89.1341
21
-84.229
0
LINE
8
BLACK
6
CONTINUOUS
10
89.1341
20
-84.229
11
89.2527
21
-84.3968
0
LINE
8
BLACK
6
CONTINUOUS
10
89.2527
20
-84.3968
11
89.3999
21
-84.5402
0
LINE
8
BLACK
6
CONTINUOUS
10
89.3999
20
-84.5402
11
89.5708
21
-84.6543
0
LINE
8
BLACK
6
CONTINUOUS
10
89.5708
20
-84.6543
11
89.7595
21
-84.7354
0
LINE
8
BLACK
6
CONTINUOUS
10
89.7595
20
-84.7354
11
89.9599
21
-84.7808
0
LINE
8
BLACK
6
CONTINUOUS
10
89.9599
20
-84.7808
11
90.1653
21
-84.7889
0
LINE
8
BLACK
6
CONTINUOUS
10
90.1653
20
-84.7889
11
90.3686
21
-84.7594
0
LINE
8
BLACK
6
CONTINUOUS
10
90.3686
20
-84.7594
11
90.5632
21
-84.6933
0
LINE
8
BLACK
6
CONTINUOUS
10
90.5632
20
-84.6933
11
90.7425
21
-84.5929
0
LINE
8
BLACK
6
CONTINUOUS
10
90.7425
20
-84.5929
11
90.9004
21
-84.4615
0
LINE
8
BLACK
6
CONTINUOUS
10
90.9004
20
-84.4615
11
91.0318
21
-84.3036
0
LINE
8
BLACK
6
CONTINUOUS
10
91.0318
20
-84.3036
11
91.1322
21
-84.1243
0
LINE
8
BLACK
6
CONTINUOUS
10
91.1322
20
-84.1243
11
91.1983
21
-83.9297
0
LINE
8
BLACK
6
CONTINUOUS
10
91.1983
20
-83.9297
11
91.2278
21
-83.7264
0
LINE
8
BLACK
6
CONTINUOUS
10
91.2278
20
-83.7264
11
91.2293
21
-83.6676
0
LINE
8
BLACK
6
CONTINUOUS
10
91.2293
20
-83.6676
11
91.2105
21
-83.463
0
LINE
8
BLACK
6
CONTINUOUS
10
91.2105
20
-83.463
11
91.1547
21
-83.2652
0
LINE
8
BLACK
6
CONTINUOUS
10
91.1547
20
-83.2652
11
91.0638
21
-83.0809
0
LINE
8
BLACK
6
CONTINUOUS
10
91.0638
20
-83.0809
11
90.9409
21
-82.9163
0
LINE
8
BLACK
6
CONTINUOUS
10
90.9409
20
-82.9163
11
90.79
21
-82.7768
0
LINE
8
BLACK
6
CONTINUOUS
10
90.79
20
-82.7768
11
90.6162
21
-82.6672
0
LINE
8
BLACK
6
CONTINUOUS
10
90.6162
20
-82.6672
11
90.4254
21
-82.591
0
LINE
8
BLACK
6
CONTINUOUS
10
90.4254
20
-82.591
11
90.2239
21
-82.551
0
LINE
8
BLACK
6
CONTINUOUS
10
90.2239
20
-82.551
11
90.0184
21
-82.5483
0
LINE
8
BLACK
6
CONTINUOUS
10
90.0184
20
-82.5483
11
89.8159
21
-82.5831
0
LINE
8
BLACK
6
CONTINUOUS
10
89.8159
20
-82.5831
11
89.6231
21
-82.6542
0
LINE
8
BLACK
6
CONTINUOUS
10
89.6231
20
-82.6542
11
89.4465
21
-82.7592
0
LINE
8
BLACK
6
CONTINUOUS
10
89.4465
20
-82.7592
11
89.2921
21
-82.8947
0
LINE
8
BLACK
6
CONTINUOUS
10
89.2921
20
-82.8947
11
89.1648
21
-83.0561
0
LINE
8
BLACK
6
CONTINUOUS
10
89.1648
20
-83.0561
11
89.0692
21
-83.2379
0
LINE
8
BLACK
6
CONTINUOUS
10
89.0692
20
-83.2379
11
89.0082
21
-83.4342
0
LINE
8
BLACK
6
CONTINUOUS
10
89.0082
20
-83.4342
11
88.9841
21
-83.6382
0
LINE
8
BLACK
6
CONTINUOUS
10
88.9841
20
-83.6382
11
88.9975
21
-83.8432
0
LINE
8
BLACK
6
CONTINUOUS
10
88.9975
20
-83.8432
11
89.0481
21
-84.0424
0
LINE
8
BLACK
6
CONTINUOUS
10
203.264
20
-83.4248
11
203.327
21
-83.2206
0
LINE
8
BLACK
6
CONTINUOUS
10
203.327
20
-83.2206
11
203.427
21
-83.0315
0
LINE
8
BLACK
6
CONTINUOUS
10
203.427
20
-83.0315
11
203.559
21
-82.8636
0
LINE
8
BLACK
6
CONTINUOUS
10
203.559
20
-82.8636
11
203.72
21
-82.7227
0
LINE
8
BLACK
6
CONTINUOUS
10
203.72
20
-82.7227
11
203.904
21
-82.6134
0
LINE
8
BLACK
6
CONTINUOUS
10
203.904
20
-82.6134
11
204.104
21
-82.5394
0
LINE
8
BLACK
6
CONTINUOUS
10
204.104
20
-82.5394
11
204.315
21
-82.5032
0
LINE
8
BLACK
6
CONTINUOUS
10
204.315
20
-82.5032
11
204.529
21
-82.506
0
LINE
8
BLACK
6
CONTINUOUS
10
204.529
20
-82.506
11
204.738
21
-82.5477
0
LINE
8
BLACK
6
CONTINUOUS
10
204.738
20
-82.5477
11
204.937
21
-82.6269
0
LINE
8
BLACK
6
CONTINUOUS
10
204.937
20
-82.6269
11
205.118
21
-82.741
0
LINE
8
BLACK
6
CONTINUOUS
10
205.118
20
-82.741
11
205.274
21
-82.8861
0
LINE
8
BLACK
6
CONTINUOUS
10
205.274
20
-82.8861
11
205.402
21
-83.0573
0
LINE
8
BLACK
6
CONTINUOUS
10
205.402
20
-83.0573
11
205.497
21
-83.249
0
LINE
8
BLACK
6
CONTINUOUS
10
205.497
20
-83.249
11
205.555
21
-83.4547
0
LINE
8
BLACK
6
CONTINUOUS
10
205.555
20
-83.4547
11
205.575
21
-83.6676
0
LINE
8
BLACK
6
CONTINUOUS
10
205.575
20
-83.6676
11
205.573
21
-83.7287
0
LINE
8
BLACK
6
CONTINUOUS
10
205.573
20
-83.7287
11
205.542
21
-83.9403
0
LINE
8
BLACK
6
CONTINUOUS
10
205.542
20
-83.9403
11
205.474
21
-84.1427
0
LINE
8
BLACK
6
CONTINUOUS
10
205.474
20
-84.1427
11
205.369
21
-84.3292
0
LINE
8
BLACK
6
CONTINUOUS
10
205.369
20
-84.3292
11
205.232
21
-84.4935
0
LINE
8
BLACK
6
CONTINUOUS
10
205.232
20
-84.4935
11
205.068
21
-84.6302
0
LINE
8
BLACK
6
CONTINUOUS
10
205.068
20
-84.6302
11
204.882
21
-84.7346
0
LINE
8
BLACK
6
CONTINUOUS
10
204.882
20
-84.7346
11
204.679
21
-84.8033
0
LINE
8
BLACK
6
CONTINUOUS
10
204.679
20
-84.8033
11
204.468
21
-84.834
0
LINE
8
BLACK
6
CONTINUOUS
10
204.468
20
-84.834
11
204.254
21
-84.8256
0
LINE
8
BLACK
6
CONTINUOUS
10
204.254
20
-84.8256
11
204.046
21
-84.7784
0
LINE
8
BLACK
6
CONTINUOUS
10
204.046
20
-84.7784
11
203.849
21
-84.6941
0
LINE
8
BLACK
6
CONTINUOUS
10
203.849
20
-84.6941
11
203.671
21
-84.5753
0
LINE
8
BLACK
6
CONTINUOUS
10
203.671
20
-84.5753
11
203.518
21
-84.4262
0
LINE
8
BLACK
6
CONTINUOUS
10
203.518
20
-84.4262
11
203.395
21
-84.2516
0
LINE
8
BLACK
6
CONTINUOUS
10
203.395
20
-84.2516
11
203.305
21
-84.0575
0
LINE
8
BLACK
6
CONTINUOUS
10
203.305
20
-84.0575
11
203.253
21
-83.8503
0
LINE
8
BLACK
6
CONTINUOUS
10
203.253
20
-83.8503
11
203.239
21
-83.6382
0
LINE
8
BLACK
6
CONTINUOUS
10
203.239
20
-83.6382
11
203.239
21
-83.637
0
LINE
8
BLACK
6
CONTINUOUS
10
203.239
20
-83.637
11
203.264
21
-83.4248
0
LINE
8
BLACK
6
CONTINUOUS
10
203.348
20
-84.0424
11
203.434
21
-84.229
0
LINE
8
BLACK
6
CONTINUOUS
10
203.434
20
-84.229
11
203.553
21
-84.3968
0
LINE
8
BLACK
6
CONTINUOUS
10
203.553
20
-84.3968
11
203.7
21
-84.5402
0
LINE
8
BLACK
6
CONTINUOUS
10
203.7
20
-84.5402
11
203.871
21
-84.6543
0
LINE
8
BLACK
6
CONTINUOUS
10
203.871
20
-84.6543
11
204.06
21
-84.7354
0
LINE
8
BLACK
6
CONTINUOUS
10
204.06
20
-84.7354
11
204.26
21
-84.7808
0
LINE
8
BLACK
6
CONTINUOUS
10
204.26
20
-84.7808
11
204.465
21
-84.7889
0
LINE
8
BLACK
6
CONTINUOUS
10
204.465
20
-84.7889
11
204.669
21
-84.7594
0
LINE
8
BLACK
6
CONTINUOUS
10
204.669
20
-84.7594
11
204.863
21
-84.6933
0
LINE
8
BLACK
6
CONTINUOUS
10
204.863
20
-84.6933
11
205.042
21
-84.5929
0
LINE
8
BLACK
6
CONTINUOUS
10
205.042
20
-84.5929
11
205.2
21
-84.4615
0
LINE
8
BLACK
6
CONTINUOUS
10
205.2
20
-84.4615
11
205.332
21
-84.3036
0
LINE
8
BLACK
6
CONTINUOUS
10
205.332
20
-84.3036
11
205.432
21
-84.1243
0
LINE
8
BLACK
6
CONTINUOUS
10
205.432
20
-84.1243
11
205.498
21
-83.9297
0
LINE
8
BLACK
6
CONTINUOUS
10
205.498
20
-83.9297
11
205.528
21
-83.7264
0
LINE
8
BLACK
6
CONTINUOUS
10
205.528
20
-83.7264
11
205.529
21
-83.6676
0
LINE
8
BLACK
6
CONTINUOUS
10
205.529
20
-83.6676
11
205.51
21
-83.463
0
LINE
8
BLACK
6
CONTINUOUS
10
205.51
20
-83.463
11
205.455
21
-83.2652
0
LINE
8
BLACK
6
CONTINUOUS
10
205.455
20
-83.2652
11
205.364
21
-83.0809
0
LINE
8
BLACK
6
CONTINUOUS
10
205.364
20
-83.0809
11
205.241
21
-82.9163
0
LINE
8
BLACK
6
CONTINUOUS
10
205.241
20
-82.9163
11
205.09
21
-82.7768
0
LINE
8
BLACK
6
CONTINUOUS
10
205.09
20
-82.7768
11
204.916
21
-82.6672
0
LINE
8
BLACK
6
CONTINUOUS
10
204.916
20
-82.6672
11
204.725
21
-82.591
0
LINE
8
BLACK
6
CONTINUOUS
10
204.725
20
-82.591
11
204.524
21
-82.551
0
LINE
8
BLACK
6
CONTINUOUS
10
204.524
20
-82.551
11
204.318
21
-82.5483
0
LINE
8
BLACK
6
CONTINUOUS
10
204.318
20
-82.5483
11
204.116
21
-82.5831
0
LINE
8
BLACK
6
CONTINUOUS
10
204.116
20
-82.5831
11
203.923
21
-82.6542
0
LINE
8
BLACK
6
CONTINUOUS
10
203.923
20
-82.6542
11
203.747
21
-82.7592
0
LINE
8
BLACK
6
CONTINUOUS
10
203.747
20
-82.7592
11
203.592
21
-82.8947
0
LINE
8
BLACK
6
CONTINUOUS
10
203.592
20
-82.8947
11
203.465
21
-83.0561
0
LINE
8
BLACK
6
CONTINUOUS
10
203.465
20
-83.0561
11
203.369
21
-83.2379
0
LINE
8
BLACK
6
CONTINUOUS
10
203.369
20
-83.2379
11
203.308
21
-83.4342
0
LINE
8
BLACK
6
CONTINUOUS
10
203.308
20
-83.4342
11
203.284
21
-83.6382
0
LINE
8
BLACK
6
CONTINUOUS
10
203.284
20
-83.6382
11
203.298
21
-83.8432
0
LINE
8
BLACK
6
CONTINUOUS
10
203.298
20
-83.8432
11
203.348
21
-84.0424
0
LINE
8
BLACK
6
CONTINUOUS
10
177.356
20
-60.5648
11
177.419
21
-60.3606
0
LINE
8
BLACK
6
CONTINUOUS
10
177.419
20
-60.3606
11
177.519
21
-60.1715
0
LINE
8
BLACK
6
CONTINUOUS
10
177.519
20
-60.1715
11
177.651
21
-60.0036
0
LINE
8
BLACK
6
CONTINUOUS
10
177.651
20
-60.0036
11
177.812
21
-59.8627
0
LINE
8
BLACK
6
CONTINUOUS
10
177.812
20
-59.8627
11
177.996
21
-59.7534
0
LINE
8
BLACK
6
CONTINUOUS
10
177.996
20
-59.7534
11
178.196
21
-59.6794
0
LINE
8
BLACK
6
CONTINUOUS
10
178.196
20
-59.6794
11
178.407
21
-59.6432
0
LINE
8
BLACK
6
CONTINUOUS
10
178.407
20
-59.6432
11
178.621
21
-59.646
0
LINE
8
BLACK
6
CONTINUOUS
10
178.621
20
-59.646
11
178.83
21
-59.6877
0
LINE
8
BLACK
6
CONTINUOUS
10
178.83
20
-59.6877
11
179.029
21
-59.7669
0
LINE
8
BLACK
6
CONTINUOUS
10
179.029
20
-59.7669
11
179.21
21
-59.881
0
LINE
8
BLACK
6
CONTINUOUS
10
179.21
20
-59.881
11
179.366
21
-60.0261
0
LINE
8
BLACK
6
CONTINUOUS
10
179.366
20
-60.0261
11
179.494
21
-60.1973
0
LINE
8
BLACK
6
CONTINUOUS
10
179.494
20
-60.1973
11
179.589
21
-60.389
0
LINE
8
BLACK
6
CONTINUOUS
10
179.589
20
-60.389
11
179.647
21
-60.5947
0
LINE
8
BLACK
6
CONTINUOUS
10
179.647
20
-60.5947
11
179.666
21
-60.8076
0
LINE
8
BLACK
6
CONTINUOUS
10
179.666
20
-60.8076
11
179.665
21
-60.8687
0
LINE
8
BLACK
6
CONTINUOUS
10
179.665
20
-60.8687
11
179.634
21
-61.0803
0
LINE
8
BLACK
6
CONTINUOUS
10
179.634
20
-61.0803
11
179.566
21
-61.2827
0
LINE
8
BLACK
6
CONTINUOUS
10
179.566
20
-61.2827
11
179.461
21
-61.4692
0
LINE
8
BLACK
6
CONTINUOUS
10
179.461
20
-61.4692
11
179.324
21
-61.6335
0
LINE
8
BLACK
6
CONTINUOUS
10
179.324
20
-61.6335
11
179.16
21
-61.7702
0
LINE
8
BLACK
6
CONTINUOUS
10
179.16
20
-61.7702
11
178.974
21
-61.8746
0
LINE
8
BLACK
6
CONTINUOUS
10
178.974
20
-61.8746
11
178.771
21
-61.9433
0
LINE
8
BLACK
6
CONTINUOUS
10
178.771
20
-61.9433
11
178.56
21
-61.974
0
LINE
8
BLACK
6
CONTINUOUS
10
178.56
20
-61.974
11
178.346
21
-61.9656
0
LINE
8
BLACK
6
CONTINUOUS
10
178.346
20
-61.9656
11
178.138
21
-61.9184
0
LINE
8
BLACK
6
CONTINUOUS
10
178.138
20
-61.9184
11
177.941
21
-61.8341
0
LINE
8
BLACK
6
CONTINUOUS
10
177.941
20
-61.8341
11
177.763
21
-61.7153
0
LINE
8
BLACK
6
CONTINUOUS
10
177.763
20
-61.7153
11
177.61
21
-61.5662
0
LINE
8
BLACK
6
CONTINUOUS
10
177.61
20
-61.5662
11
177.487
21
-61.3916
0
LINE
8
BLACK
6
CONTINUOUS
10
177.487
20
-61.3916
11
177.397
21
-61.1975
0
LINE
8
BLACK
6
CONTINUOUS
10
177.397
20
-61.1975
11
177.345
21
-60.9903
0
LINE
8
BLACK
6
CONTINUOUS
10
177.345
20
-60.9903
11
177.331
21
-60.7782
0
LINE
8
BLACK
6
CONTINUOUS
10
177.331
20
-60.7782
11
177.331
21
-60.777
0
LINE
8
BLACK
6
CONTINUOUS
10
177.331
20
-60.777
11
177.356
21
-60.5648
0
LINE
8
BLACK
6
CONTINUOUS
10
177.44
20
-61.1824
11
177.526
21
-61.369
0
LINE
8
BLACK
6
CONTINUOUS
10
177.526
20
-61.369
11
177.645
21
-61.5368
0
LINE
8
BLACK
6
CONTINUOUS
10
177.645
20
-61.5368
11
177.792
21
-61.6802
0
LINE
8
BLACK
6
CONTINUOUS
10
177.792
20
-61.6802
11
177.963
21
-61.7943
0
LINE
8
BLACK
6
CONTINUOUS
10
177.963
20
-61.7943
11
178.152
21
-61.8754
0
LINE
8
BLACK
6
CONTINUOUS
10
178.152
20
-61.8754
11
178.352
21
-61.9208
0
LINE
8
BLACK
6
CONTINUOUS
10
178.352
20
-61.9208
11
178.557
21
-61.9289
0
LINE
8
BLACK
6
CONTINUOUS
10
178.557
20
-61.9289
11
178.761
21
-61.8994
0
LINE
8
BLACK
6
CONTINUOUS
10
178.761
20
-61.8994
11
178.955
21
-61.8333
0
LINE
8
BLACK
6
CONTINUOUS
10
178.955
20
-61.8333
11
179.134
21
-61.7329
0
LINE
8
BLACK
6
CONTINUOUS
10
179.134
20
-61.7329
11
179.292
21
-61.6015
0
LINE
8
BLACK
6
CONTINUOUS
10
179.292
20
-61.6015
11
179.424
21
-61.4436
0
LINE
8
BLACK
6
CONTINUOUS
10
179.424
20
-61.4436
11
179.524
21
-61.2643
0
LINE
8
BLACK
6
CONTINUOUS
10
179.524
20
-61.2643
11
179.59
21
-61.0697
0
LINE
8
BLACK
6
CONTINUOUS
10
179.59
20
-61.0697
11
179.62
21
-60.8664
0
LINE
8
BLACK
6
CONTINUOUS
10
179.62
20
-60.8664
11
179.621
21
-60.8076
0
LINE
8
BLACK
6
CONTINUOUS
10
179.621
20
-60.8076
11
179.602
21
-60.603
0
LINE
8
BLACK
6
CONTINUOUS
10
179.602
20
-60.603
11
179.547
21
-60.4052
0
LINE
8
BLACK
6
CONTINUOUS
10
179.547
20
-60.4052
11
179.456
21
-60.2209
0
LINE
8
BLACK
6
CONTINUOUS
10
179.456
20
-60.2209
11
179.333
21
-60.0563
0
LINE
8
BLACK
6
CONTINUOUS
10
179.333
20
-60.0563
11
179.182
21
-59.9168
0
LINE
8
BLACK
6
CONTINUOUS
10
179.182
20
-59.9168
11
179.008
21
-59.8072
0
LINE
8
BLACK
6
CONTINUOUS
10
179.008
20
-59.8072
11
178.817
21
-59.731
0
LINE
8
BLACK
6
CONTINUOUS
10
178.817
20
-59.731
11
178.616
21
-59.691
0
LINE
8
BLACK
6
CONTINUOUS
10
178.616
20
-59.691
11
178.41
21
-59.6883
0
LINE
8
BLACK
6
CONTINUOUS
10
178.41
20
-59.6883
11
178.208
21
-59.7231
0
LINE
8
BLACK
6
CONTINUOUS
10
178.208
20
-59.7231
11
178.015
21
-59.7942
0
LINE
8
BLACK
6
CONTINUOUS
10
178.015
20
-59.7942
11
177.839
21
-59.8992
0
LINE
8
BLACK
6
CONTINUOUS
10
177.839
20
-59.8992
11
177.684
21
-60.0347
0
LINE
8
BLACK
6
CONTINUOUS
10
177.684
20
-60.0347
11
177.557
21
-60.1961
0
LINE
8
BLACK
6
CONTINUOUS
10
177.557
20
-60.1961
11
177.461
21
-60.3779
0
LINE
8
BLACK
6
CONTINUOUS
10
177.461
20
-60.3779
11
177.4
21
-60.5742
0
LINE
8
BLACK
6
CONTINUOUS
10
177.4
20
-60.5742
11
177.376
21
-60.7782
0
LINE
8
BLACK
6
CONTINUOUS
10
177.376
20
-60.7782
11
177.39
21
-60.9832
0
LINE
8
BLACK
6
CONTINUOUS
10
177.39
20
-60.9832
11
177.44
21
-61.1824
0
LINE
8
BLACK
6
CONTINUOUS
10
164.897
20
-59.8409
11
164.961
21
-59.6367
0
LINE
8
BLACK
6
CONTINUOUS
10
164.961
20
-59.6367
11
165.06
21
-59.4476
0
LINE
8
BLACK
6
CONTINUOUS
10
165.06
20
-59.4476
11
165.193
21
-59.2797
0
LINE
8
BLACK
6
CONTINUOUS
10
165.193
20
-59.2797
11
165.353
21
-59.1388
0
LINE
8
BLACK
6
CONTINUOUS
10
165.353
20
-59.1388
11
165.537
21
-59.0295
0
LINE
8
BLACK
6
CONTINUOUS
10
165.537
20
-59.0295
11
165.737
21
-58.9555
0
LINE
8
BLACK
6
CONTINUOUS
10
165.737
20
-58.9555
11
165.948
21
-58.9193
0
LINE
8
BLACK
6
CONTINUOUS
10
165.948
20
-58.9193
11
166.162
21
-58.9221
0
LINE
8
BLACK
6
CONTINUOUS
10
166.162
20
-58.9221
11
166.372
21
-58.9638
0
LINE
8
BLACK
6
CONTINUOUS
10
166.372
20
-58.9638
11
166.57
21
-59.043
0
LINE
8
BLACK
6
CONTINUOUS
10
166.57
20
-59.043
11
166.751
21
-59.1571
0
LINE
8
BLACK
6
CONTINUOUS
10
166.751
20
-59.1571
11
166.908
21
-59.3022
0
LINE
8
BLACK
6
CONTINUOUS
10
166.908
20
-59.3022
11
167.036
21
-59.4734
0
LINE
8
BLACK
6
CONTINUOUS
10
167.036
20
-59.4734
11
167.13
21
-59.6651
0
LINE
8
BLACK
6
CONTINUOUS
10
167.13
20
-59.6651
11
167.188
21
-59.8708
0
LINE
8
BLACK
6
CONTINUOUS
10
167.188
20
-59.8708
11
167.208
21
-60.0837
0
LINE
8
BLACK
6
CONTINUOUS
10
167.208
20
-60.0837
11
167.206
21
-60.1448
0
LINE
8
BLACK
6
CONTINUOUS
10
167.206
20
-60.1448
11
167.176
21
-60.3564
0
LINE
8
BLACK
6
CONTINUOUS
10
167.176
20
-60.3564
11
167.107
21
-60.5588
0
LINE
8
BLACK
6
CONTINUOUS
10
167.107
20
-60.5588
11
167.002
21
-60.7453
0
LINE
8
BLACK
6
CONTINUOUS
10
167.002
20
-60.7453
11
166.866
21
-60.9096
0
LINE
8
BLACK
6
CONTINUOUS
10
166.866
20
-60.9096
11
166.701
21
-61.0463
0
LINE
8
BLACK
6
CONTINUOUS
10
166.701
20
-61.0463
11
166.515
21
-61.1507
0
LINE
8
BLACK
6
CONTINUOUS
10
166.515
20
-61.1507
11
166.312
21
-61.2194
0
LINE
8
BLACK
6
CONTINUOUS
10
166.312
20
-61.2194
11
166.101
21
-61.2501
0
LINE
8
BLACK
6
CONTINUOUS
10
166.101
20
-61.2501
11
165.887
21
-61.2417
0
LINE
8
BLACK
6
CONTINUOUS
10
165.887
20
-61.2417
11
165.679
21
-61.1945
0
LINE
8
BLACK
6
CONTINUOUS
10
165.679
20
-61.1945
11
165.482
21
-61.1102
0
LINE
8
BLACK
6
CONTINUOUS
10
165.482
20
-61.1102
11
165.305
21
-60.9914
0
LINE
8
BLACK
6
CONTINUOUS
10
165.305
20
-60.9914
11
165.152
21
-60.8423
0
LINE
8
BLACK
6
CONTINUOUS
10
165.152
20
-60.8423
11
165.028
21
-60.6677
0
LINE
8
BLACK
6
CONTINUOUS
10
165.028
20
-60.6677
11
164.939
21
-60.4736
0
LINE
8
BLACK
6
CONTINUOUS
10
164.939
20
-60.4736
11
164.886
21
-60.2664
0
LINE
8
BLACK
6
CONTINUOUS
10
164.886
20
-60.2664
11
164.872
21
-60.0543
0
LINE
8
BLACK
6
CONTINUOUS
10
164.872
20
-60.0543
11
164.872
21
-60.0531
0
LINE
8
BLACK
6
CONTINUOUS
10
164.872
20
-60.0531
11
164.897
21
-59.8409
0
LINE
8
BLACK
6
CONTINUOUS
10
164.981
20
-60.4585
11
165.067
21
-60.6451
0
LINE
8
BLACK
6
CONTINUOUS
10
165.067
20
-60.6451
11
165.186
21
-60.8129
0
LINE
8
BLACK
6
CONTINUOUS
10
165.186
20
-60.8129
11
165.333
21
-60.9563
0
LINE
8
BLACK
6
CONTINUOUS
10
165.333
20
-60.9563
11
165.504
21
-61.0704
0
LINE
8
BLACK
6
CONTINUOUS
10
165.504
20
-61.0704
11
165.693
21
-61.1515
0
LINE
8
BLACK
6
CONTINUOUS
10
165.693
20
-61.1515
11
165.893
21
-61.1969
0
LINE
8
BLACK
6
CONTINUOUS
10
165.893
20
-61.1969
11
166.099
21
-61.205
0
LINE
8
BLACK
6
CONTINUOUS
10
166.099
20
-61.205
11
166.302
21
-61.1755
0
LINE
8
BLACK
6
CONTINUOUS
10
166.302
20
-61.1755
11
166.496
21
-61.1094
0
LINE
8
BLACK
6
CONTINUOUS
10
166.496
20
-61.1094
11
166.676
21
-61.009
0
LINE
8
BLACK
6
CONTINUOUS
10
166.676
20
-61.009
11
166.834
21
-60.8776
0
LINE
8
BLACK
6
CONTINUOUS
10
166.834
20
-60.8776
11
166.965
21
-60.7197
0
LINE
8
BLACK
6
CONTINUOUS
10
166.965
20
-60.7197
11
167.066
21
-60.5404
0
LINE
8
BLACK
6
CONTINUOUS
10
167.066
20
-60.5404
11
167.132
21
-60.3458
0
LINE
8
BLACK
6
CONTINUOUS
10
167.132
20
-60.3458
11
167.161
21
-60.1425
0
LINE
8
BLACK
6
CONTINUOUS
10
167.161
20
-60.1425
11
167.163
21
-60.0837
0
LINE
8
BLACK
6
CONTINUOUS
10
167.163
20
-60.0837
11
167.144
21
-59.8791
0
LINE
8
BLACK
6
CONTINUOUS
10
167.144
20
-59.8791
11
167.088
21
-59.6813
0
LINE
8
BLACK
6
CONTINUOUS
10
167.088
20
-59.6813
11
166.997
21
-59.497
0
LINE
8
BLACK
6
CONTINUOUS
10
166.997
20
-59.497
11
166.874
21
-59.3324
0
LINE
8
BLACK
6
CONTINUOUS
10
166.874
20
-59.3324
11
166.723
21
-59.1929
0
LINE
8
BLACK
6
CONTINUOUS
10
166.723
20
-59.1929
11
166.55
21
-59.0833
0
LINE
8
BLACK
6
CONTINUOUS
10
166.55
20
-59.0833
11
166.359
21
-59.0071
0
LINE
8
BLACK
6
CONTINUOUS
10
166.359
20
-59.0071
11
166.157
21
-58.9671
0
LINE
8
BLACK
6
CONTINUOUS
10
166.157
20
-58.9671
11
165.952
21
-58.9644
0
LINE
8
BLACK
6
CONTINUOUS
10
165.952
20
-58.9644
11
165.749
21
-58.9992
0
LINE
8
BLACK
6
CONTINUOUS
10
165.749
20
-58.9992
11
165.556
21
-59.0703
0
LINE
8
BLACK
6
CONTINUOUS
10
165.556
20
-59.0703
11
165.38
21
-59.1753
0
LINE
8
BLACK
6
CONTINUOUS
10
165.38
20
-59.1753
11
165.225
21
-59.3108
0
LINE
8
BLACK
6
CONTINUOUS
10
165.225
20
-59.3108
11
165.098
21
-59.4722
0
LINE
8
BLACK
6
CONTINUOUS
10
165.098
20
-59.4722
11
165.002
21
-59.654
0
LINE
8
BLACK
6
CONTINUOUS
10
165.002
20
-59.654
11
164.942
21
-59.8503
0
LINE
8
BLACK
6
CONTINUOUS
10
164.942
20
-59.8503
11
164.917
21
-60.0543
0
LINE
8
BLACK
6
CONTINUOUS
10
164.917
20
-60.0543
11
164.931
21
-60.2593
0
LINE
8
BLACK
6
CONTINUOUS
10
164.931
20
-60.2593
11
164.981
21
-60.4585
0
LINE
8
BLACK
6
CONTINUOUS
10
130.036
20
-59.2313
11
130.099
21
-59.0271
0
LINE
8
BLACK
6
CONTINUOUS
10
130.099
20
-59.0271
11
130.199
21
-58.838
0
LINE
8
BLACK
6
CONTINUOUS
10
130.199
20
-58.838
11
130.331
21
-58.6701
0
LINE
8
BLACK
6
CONTINUOUS
10
130.331
20
-58.6701
11
130.492
21
-58.5292
0
LINE
8
BLACK
6
CONTINUOUS
10
130.492
20
-58.5292
11
130.675
21
-58.4199
0
LINE
8
BLACK
6
CONTINUOUS
10
130.675
20
-58.4199
11
130.876
21
-58.3459
0
LINE
8
BLACK
6
CONTINUOUS
10
130.876
20
-58.3459
11
131.087
21
-58.3097
0
LINE
8
BLACK
6
CONTINUOUS
10
131.087
20
-58.3097
11
131.3
21
-58.3125
0
LINE
8
BLACK
6
CONTINUOUS
10
131.3
20
-58.3125
11
131.51
21
-58.3542
0
LINE
8
BLACK
6
CONTINUOUS
10
131.51
20
-58.3542
11
131.709
21
-58.4334
0
LINE
8
BLACK
6
CONTINUOUS
10
131.709
20
-58.4334
11
131.889
21
-58.5475
0
LINE
8
BLACK
6
CONTINUOUS
10
131.889
20
-58.5475
11
132.046
21
-58.6926
0
LINE
8
BLACK
6
CONTINUOUS
10
132.046
20
-58.6926
11
132.174
21
-58.8638
0
LINE
8
BLACK
6
CONTINUOUS
10
132.174
20
-58.8638
11
132.269
21
-59.0555
0
LINE
8
BLACK
6
CONTINUOUS
10
132.269
20
-59.0555
11
132.327
21
-59.2612
0
LINE
8
BLACK
6
CONTINUOUS
10
132.327
20
-59.2612
11
132.346
21
-59.4741
0
LINE
8
BLACK
6
CONTINUOUS
10
132.346
20
-59.4741
11
132.345
21
-59.5352
0
LINE
8
BLACK
6
CONTINUOUS
10
132.345
20
-59.5352
11
132.314
21
-59.7468
0
LINE
8
BLACK
6
CONTINUOUS
10
132.314
20
-59.7468
11
132.245
21
-59.9492
0
LINE
8
BLACK
6
CONTINUOUS
10
132.245
20
-59.9492
11
132.141
21
-60.1357
0
LINE
8
BLACK
6
CONTINUOUS
10
132.141
20
-60.1357
11
132.004
21
-60.3
0
LINE
8
BLACK
6
CONTINUOUS
10
132.004
20
-60.3
11
131.84
21
-60.4367
0
LINE
8
BLACK
6
CONTINUOUS
10
131.84
20
-60.4367
11
131.653
21
-60.5411
0
LINE
8
BLACK
6
CONTINUOUS
10
131.653
20
-60.5411
11
131.451
21
-60.6098
0
LINE
8
BLACK
6
CONTINUOUS
10
131.451
20
-60.6098
11
131.239
21
-60.6405
0
LINE
8
BLACK
6
CONTINUOUS
10
131.239
20
-60.6405
11
131.026
21
-60.6321
0
LINE
8
BLACK
6
CONTINUOUS
10
131.026
20
-60.6321
11
130.817
21
-60.5849
0
LINE
8
BLACK
6
CONTINUOUS
10
130.817
20
-60.5849
11
130.621
21
-60.5006
0
LINE
8
BLACK
6
CONTINUOUS
10
130.621
20
-60.5006
11
130.443
21
-60.3818
0
LINE
8
BLACK
6
CONTINUOUS
10
130.443
20
-60.3818
11
130.29
21
-60.2327
0
LINE
8
BLACK
6
CONTINUOUS
10
130.29
20
-60.2327
11
130.167
21
-60.0581
0
LINE
8
BLACK
6
CONTINUOUS
10
130.167
20
-60.0581
11
130.077
21
-59.864
0
LINE
8
BLACK
6
CONTINUOUS
10
130.077
20
-59.864
11
130.025
21
-59.6568
0
LINE
8
BLACK
6
CONTINUOUS
10
130.025
20
-59.6568
11
130.011
21
-59.4447
0
LINE
8
BLACK
6
CONTINUOUS
10
130.011
20
-59.4447
11
130.011
21
-59.4435
0
LINE
8
BLACK
6
CONTINUOUS
10
130.011
20
-59.4435
11
130.036
21
-59.2313
0
LINE
8
BLACK
6
CONTINUOUS
10
130.12
20
-59.8489
11
130.206
21
-60.0355
0
LINE
8
BLACK
6
CONTINUOUS
10
130.206
20
-60.0355
11
130.325
21
-60.2033
0
LINE
8
BLACK
6
CONTINUOUS
10
130.325
20
-60.2033
11
130.472
21
-60.3467
0
LINE
8
BLACK
6
CONTINUOUS
10
130.472
20
-60.3467
11
130.643
21
-60.4608
0
LINE
8
BLACK
6
CONTINUOUS
10
130.643
20
-60.4608
11
130.831
21
-60.5419
0
LINE
8
BLACK
6
CONTINUOUS
10
130.831
20
-60.5419
11
131.032
21
-60.5873
0
LINE
8
BLACK
6
CONTINUOUS
10
131.032
20
-60.5873
11
131.237
21
-60.5954
0
LINE
8
BLACK
6
CONTINUOUS
10
131.237
20
-60.5954
11
131.44
21
-60.5659
0
LINE
8
BLACK
6
CONTINUOUS
10
131.44
20
-60.5659
11
131.635
21
-60.4998
0
LINE
8
BLACK
6
CONTINUOUS
10
131.635
20
-60.4998
11
131.814
21
-60.3994
0
LINE
8
BLACK
6
CONTINUOUS
10
131.814
20
-60.3994
11
131.972
21
-60.268
0
LINE
8
BLACK
6
CONTINUOUS
10
131.972
20
-60.268
11
132.104
21
-60.1101
0
LINE
8
BLACK
6
CONTINUOUS
10
132.104
20
-60.1101
11
132.204
21
-59.9308
0
LINE
8
BLACK
6
CONTINUOUS
10
132.204
20
-59.9308
11
132.27
21
-59.7362
0
LINE
8
BLACK
6
CONTINUOUS
10
132.27
20
-59.7362
11
132.3
21
-59.5329
0
LINE
8
BLACK
6
CONTINUOUS
10
132.3
20
-59.5329
11
132.301
21
-59.4741
0
LINE
8
BLACK
6
CONTINUOUS
10
132.301
20
-59.4741
11
132.282
21
-59.2695
0
LINE
8
BLACK
6
CONTINUOUS
10
132.282
20
-59.2695
11
132.227
21
-59.0717
0
LINE
8
BLACK
6
CONTINUOUS
10
132.227
20
-59.0717
11
132.136
21
-58.8874
0
LINE
8
BLACK
6
CONTINUOUS
10
132.136
20
-58.8874
11
132.013
21
-58.7228
0
LINE
8
BLACK
6
CONTINUOUS
10
132.013
20
-58.7228
11
131.862
21
-58.5833
0
LINE
8
BLACK
6
CONTINUOUS
10
131.862
20
-58.5833
11
131.688
21
-58.4737
0
LINE
8
BLACK
6
CONTINUOUS
10
131.688
20
-58.4737
11
131.497
21
-58.3975
0
LINE
8
BLACK
6
CONTINUOUS
10
131.497
20
-58.3975
11
131.296
21
-58.3575
0
LINE
8
BLACK
6
CONTINUOUS
10
131.296
20
-58.3575
11
131.09
21
-58.3548
0
LINE
8
BLACK
6
CONTINUOUS
10
131.09
20
-58.3548
11
130.888
21
-58.3896
0
LINE
8
BLACK
6
CONTINUOUS
10
130.888
20
-58.3896
11
130.695
21
-58.4607
0
LINE
8
BLACK
6
CONTINUOUS
10
130.695
20
-58.4607
11
130.518
21
-58.5657
0
LINE
8
BLACK
6
CONTINUOUS
10
130.518
20
-58.5657
11
130.364
21
-58.7012
0
LINE
8
BLACK
6
CONTINUOUS
10
130.364
20
-58.7012
11
130.237
21
-58.8626
0
LINE
8
BLACK
6
CONTINUOUS
10
130.237
20
-58.8626
11
130.141
21
-59.0444
0
LINE
8
BLACK
6
CONTINUOUS
10
130.141
20
-59.0444
11
130.08
21
-59.2407
0
LINE
8
BLACK
6
CONTINUOUS
10
130.08
20
-59.2407
11
130.056
21
-59.4447
0
LINE
8
BLACK
6
CONTINUOUS
10
130.056
20
-59.4447
11
130.069
21
-59.6497
0
LINE
8
BLACK
6
CONTINUOUS
10
130.069
20
-59.6497
11
130.12
21
-59.8489
0
LINE
8
BLACK
6
CONTINUOUS
10
167.793
20
-49.2872
11
167.856
21
-49.083
0
LINE
8
BLACK
6
CONTINUOUS
10
167.856
20
-49.083
11
167.956
21
-48.8939
0
LINE
8
BLACK
6
CONTINUOUS
10
167.956
20
-48.8939
11
168.088
21
-48.726
0
LINE
8
BLACK
6
CONTINUOUS
10
168.088
20
-48.726
11
168.249
21
-48.5851
0
LINE
8
BLACK
6
CONTINUOUS
10
168.249
20
-48.5851
11
168.433
21
-48.4758
0
LINE
8
BLACK
6
CONTINUOUS
10
168.433
20
-48.4758
11
168.633
21
-48.4018
0
LINE
8
BLACK
6
CONTINUOUS
10
168.633
20
-48.4018
11
168.844
21
-48.3656
0
LINE
8
BLACK
6
CONTINUOUS
10
168.844
20
-48.3656
11
169.057
21
-48.3684
0
LINE
8
BLACK
6
CONTINUOUS
10
169.057
20
-48.3684
11
169.267
21
-48.4101
0
LINE
8
BLACK
6
CONTINUOUS
10
169.267
20
-48.4101
11
169.466
21
-48.4893
0
LINE
8
BLACK
6
CONTINUOUS
10
169.466
20
-48.4893
11
169.646
21
-48.6034
0
LINE
8
BLACK
6
CONTINUOUS
10
169.646
20
-48.6034
11
169.803
21
-48.7485
0
LINE
8
BLACK
6
CONTINUOUS
10
169.803
20
-48.7485
11
169.931
21
-48.9197
0
LINE
8
BLACK
6
CONTINUOUS
10
169.931
20
-48.9197
11
170.026
21
-49.1114
0
LINE
8
BLACK
6
CONTINUOUS
10
170.026
20
-49.1114
11
170.084
21
-49.3171
0
LINE
8
BLACK
6
CONTINUOUS
10
170.084
20
-49.3171
11
170.103
21
-49.53
0
LINE
8
BLACK
6
CONTINUOUS
10
170.103
20
-49.53
11
170.102
21
-49.5911
0
LINE
8
BLACK
6
CONTINUOUS
10
170.102
20
-49.5911
11
170.071
21
-49.8027
0
LINE
8
BLACK
6
CONTINUOUS
10
170.071
20
-49.8027
11
170.002
21
-50.0051
0
LINE
8
BLACK
6
CONTINUOUS
10
170.002
20
-50.0051
11
169.898
21
-50.1916
0
LINE
8
BLACK
6
CONTINUOUS
10
169.898
20
-50.1916
11
169.761
21
-50.3559
0
LINE
8
BLACK
6
CONTINUOUS
10
169.761
20
-50.3559
11
169.597
21
-50.4926
0
LINE
8
BLACK
6
CONTINUOUS
10
169.597
20
-50.4926
11
169.41
21
-50.597
0
LINE
8
BLACK
6
CONTINUOUS
10
169.41
20
-50.597
11
169.208
21
-50.6657
0
LINE
8
BLACK
6
CONTINUOUS
10
169.208
20
-50.6657
11
168.997
21
-50.6964
0
LINE
8
BLACK
6
CONTINUOUS
10
168.997
20
-50.6964
11
168.783
21
-50.688
0
LINE
8
BLACK
6
CONTINUOUS
10
168.783
20
-50.688
11
168.574
21
-50.6408
0
LINE
8
BLACK
6
CONTINUOUS
10
168.574
20
-50.6408
11
168.378
21
-50.5565
0
LINE
8
BLACK
6
CONTINUOUS
10
168.378
20
-50.5565
11
168.2
21
-50.4377
0
LINE
8
BLACK
6
CONTINUOUS
10
168.2
20
-50.4377
11
168.047
21
-50.2886
0
LINE
8
BLACK
6
CONTINUOUS
10
168.047
20
-50.2886
11
167.924
21
-50.114
0
LINE
8
BLACK
6
CONTINUOUS
10
167.924
20
-50.114
11
167.834
21
-49.9199
0
LINE
8
BLACK
6
CONTINUOUS
10
167.834
20
-49.9199
11
167.782
21
-49.7127
0
LINE
8
BLACK
6
CONTINUOUS
10
167.782
20
-49.7127
11
167.768
21
-49.5006
0
LINE
8
BLACK
6
CONTINUOUS
10
167.768
20
-49.5006
11
167.768
21
-49.4994
0
LINE
8
BLACK
6
CONTINUOUS
10
167.768
20
-49.4994
11
167.793
21
-49.2872
0
LINE
8
BLACK
6
CONTINUOUS
10
167.877
20
-49.9048
11
167.963
21
-50.0914
0
LINE
8
BLACK
6
CONTINUOUS
10
167.963
20
-50.0914
11
168.082
21
-50.2592
0
LINE
8
BLACK
6
CONTINUOUS
10
168.082
20
-50.2592
11
168.229
21
-50.4026
0
LINE
8
BLACK
6
CONTINUOUS
10
168.229
20
-50.4026
11
168.4
21
-50.5167
0
LINE
8
BLACK
6
CONTINUOUS
10
168.4
20
-50.5167
11
168.588
21
-50.5978
0
LINE
8
BLACK
6
CONTINUOUS
10
168.588
20
-50.5978
11
168.789
21
-50.6432
0
LINE
8
BLACK
6
CONTINUOUS
10
168.789
20
-50.6432
11
168.994
21
-50.6513
0
LINE
8
BLACK
6
CONTINUOUS
10
168.994
20
-50.6513
11
169.198
21
-50.6218
0
LINE
8
BLACK
6
CONTINUOUS
10
169.198
20
-50.6218
11
169.392
21
-50.5557
0
LINE
8
BLACK
6
CONTINUOUS
10
169.392
20
-50.5557
11
169.571
21
-50.4553
0
LINE
8
BLACK
6
CONTINUOUS
10
169.571
20
-50.4553
11
169.729
21
-50.3239
0
LINE
8
BLACK
6
CONTINUOUS
10
169.729
20
-50.3239
11
169.861
21
-50.166
0
LINE
8
BLACK
6
CONTINUOUS
10
169.861
20
-50.166
11
169.961
21
-49.9867
0
LINE
8
BLACK
6
CONTINUOUS
10
169.961
20
-49.9867
11
170.027
21
-49.7921
0
LINE
8
BLACK
6
CONTINUOUS
10
170.027
20
-49.7921
11
170.057
21
-49.5888
0
LINE
8
BLACK
6
CONTINUOUS
10
170.057
20
-49.5888
11
170.058
21
-49.53
0
LINE
8
BLACK
6
CONTINUOUS
10
170.058
20
-49.53
11
170.039
21
-49.3254
0
LINE
8
BLACK
6
CONTINUOUS
10
170.039
20
-49.3254
11
169.984
21
-49.1276
0
LINE
8
BLACK
6
CONTINUOUS
10
169.984
20
-49.1276
11
169.893
21
-48.9433
0
LINE
8
BLACK
6
CONTINUOUS
10
169.893
20
-48.9433
11
169.77
21
-48.7787
0
LINE
8
BLACK
6
CONTINUOUS
10
169.77
20
-48.7787
11
169.619
21
-48.6392
0
LINE
8
BLACK
6
CONTINUOUS
10
169.619
20
-48.6392
11
169.445
21
-48.5296
0
LINE
8
BLACK
6
CONTINUOUS
10
169.445
20
-48.5296
11
169.254
21
-48.4534
0
LINE
8
BLACK
6
CONTINUOUS
10
169.254
20
-48.4534
11
169.053
21
-48.4134
0
LINE
8
BLACK
6
CONTINUOUS
10
169.053
20
-48.4134
11
168.847
21
-48.4107
0
LINE
8
BLACK
6
CONTINUOUS
10
168.847
20
-48.4107
11
168.645
21
-48.4455
0
LINE
8
BLACK
6
CONTINUOUS
10
168.645
20
-48.4455
11
168.452
21
-48.5166
0
LINE
8
BLACK
6
CONTINUOUS
10
168.452
20
-48.5166
11
168.275
21
-48.6216
0
LINE
8
BLACK
6
CONTINUOUS
10
168.275
20
-48.6216
11
168.121
21
-48.7571
0
LINE
8
BLACK
6
CONTINUOUS
10
168.121
20
-48.7571
11
167.994
21
-48.9185
0
LINE
8
BLACK
6
CONTINUOUS
10
167.994
20
-48.9185
11
167.898
21
-49.1003
0
LINE
8
BLACK
6
CONTINUOUS
10
167.898
20
-49.1003
11
167.837
21
-49.2966
0
LINE
8
BLACK
6
CONTINUOUS
10
167.837
20
-49.2966
11
167.813
21
-49.5006
0
LINE
8
BLACK
6
CONTINUOUS
10
167.813
20
-49.5006
11
167.826
21
-49.7056
0
LINE
8
BLACK
6
CONTINUOUS
10
167.826
20
-49.7056
11
167.877
21
-49.9048
  0
ENDSEC
  0
EOF
