  0
SECTION
  2
HEADER
  9
$ANGBASE
  50
0.0
  9
$ANGDIR
  70
1
  9
$MEASUREMENT
  70
1
  0
ENDSEC
  0
SECTION
  2
TABLES
  0
TABLE
  2
LTYPE
  70
4
  0
LTYPE
  5
40F
  2
CONTINUOUS
  70
0
  3
Solid line
  72
65
  73
0
  40
0.0
  0
LTYPE
  5
410
  2
DASHDOT
 70
0
  3
Dash Dot ____ _ ____ _
 72
65
 73
4
 40
2.0
 49
1.25
 49
-0.25
 49
0.25
 49
-0.25
  0
LTYPE
  5
411
  2
DASHED
 70
0
  3
Dashed __ __ __ __ __
 72
65
 73
2
 40
0.75
 49
0.5
 49
-0.25
  0
LTYPE
  5
43B
  2
DOTTED
 70
0
  3
Dotted .  .  .  .
 72
65
 73
2
 40
0.2
 49
0.0
 49
-0.2
  0
ENDTAB
  0
TABLE
  2
STYLE
  70
4
  0
STYLE
  2
KICAD
  70
0
  40
0
  41
1
  42
1
  50
0
  71
0
  3
isocp.shx
  0
STYLE
  2
KICADB
  70
0
  40
0
  41
1
  42
1
  50
0
  71
0
  3
isocp.shx
  0
STYLE
  2
KICADI
  70
0
  40
0
  41
1
  42
1
  50
15
  71
0
  3
isocp.shx
  0
STYLE
  2
KICADBI
  70
0
  40
0
  41
1
  42
1
  50
15
  71
0
  3
isocp.shx
  0
ENDTAB
  0
TABLE
  2
LAYER
  70
1
  0
LAYER
  2
BLACK
  70
0
  62
7
  6
CONTINUOUS
  0
ENDTAB
  0
ENDSEC
  0
SECTION
  2
ENTITIES
0
LINE
8
BLACK
6
CONTINUOUS
10
51.7279
20
-143.112
11
51.4534
21
-143.061
0
LINE
8
BLACK
6
CONTINUOUS
10
51.4534
20
-143.061
11
51.187
21
-142.978
0
LINE
8
BLACK
6
CONTINUOUS
10
51.187
20
-142.978
11
50.9325
21
-142.864
0
LINE
8
BLACK
6
CONTINUOUS
10
50.9325
20
-142.864
11
50.6937
21
-142.72
0
LINE
8
BLACK
6
CONTINUOUS
10
50.6937
20
-142.72
11
50.474
21
-142.547
0
LINE
8
BLACK
6
CONTINUOUS
10
50.474
20
-142.547
11
50.2767
21
-142.35
0
LINE
8
BLACK
6
CONTINUOUS
10
50.2767
20
-142.35
11
50.1046
21
-142.13
0
LINE
8
BLACK
6
CONTINUOUS
10
50.1046
20
-142.13
11
49.9602
21
-141.892
0
LINE
8
BLACK
6
CONTINUOUS
10
49.9602
20
-141.892
11
49.8457
21
-141.637
0
LINE
8
BLACK
6
CONTINUOUS
10
49.8457
20
-141.637
11
49.7627
21
-141.371
0
LINE
8
BLACK
6
CONTINUOUS
10
49.7627
20
-141.371
11
49.7124
21
-141.096
0
LINE
8
BLACK
6
CONTINUOUS
10
49.7124
20
-141.096
11
49.6955
21
-140.818
0
LINE
8
BLACK
6
CONTINUOUS
10
49.6955
20
-140.818
11
49.6955
21
-63.8556
0
LINE
8
BLACK
6
CONTINUOUS
10
49.6955
20
-63.8556
11
49.7113
21
-63.6352
0
LINE
8
BLACK
6
CONTINUOUS
10
49.7113
20
-63.6352
11
49.7582
21
-63.4192
0
LINE
8
BLACK
6
CONTINUOUS
10
49.7582
20
-63.4192
11
49.8355
21
-63.2121
0
LINE
8
BLACK
6
CONTINUOUS
10
49.8355
20
-63.2121
11
49.9414
21
-63.0181
0
LINE
8
BLACK
6
CONTINUOUS
10
49.9414
20
-63.0181
11
50.0738
21
-62.8412
0
LINE
8
BLACK
6
CONTINUOUS
10
50.0738
20
-62.8412
11
50.2301
21
-62.6849
0
LINE
8
BLACK
6
CONTINUOUS
10
50.2301
20
-62.6849
11
50.407
21
-62.5525
0
LINE
8
BLACK
6
CONTINUOUS
10
50.407
20
-62.5525
11
50.601
21
-62.4466
0
LINE
8
BLACK
6
CONTINUOUS
10
50.601
20
-62.4466
11
50.8081
21
-62.3693
0
LINE
8
BLACK
6
CONTINUOUS
10
50.8081
20
-62.3693
11
51.0241
21
-62.3224
0
LINE
8
BLACK
6
CONTINUOUS
10
51.0241
20
-62.3224
11
51.2445
21
-62.3066
0
LINE
8
BLACK
6
CONTINUOUS
10
51.2445
20
-62.3066
11
125.235
21
-62.3066
0
LINE
8
BLACK
6
CONTINUOUS
10
125.235
20
-62.3066
11
125.241
21
-62.3091
0
LINE
8
BLACK
6
CONTINUOUS
10
125.241
20
-62.3091
11
125.247
21
-62.3066
0
LINE
8
BLACK
6
CONTINUOUS
10
125.247
20
-62.3066
11
125.255
21
-62.31
0
LINE
8
BLACK
6
CONTINUOUS
10
125.255
20
-62.31
11
125.465
21
-62.2948
0
LINE
8
BLACK
6
CONTINUOUS
10
125.465
20
-62.2948
11
125.678
21
-62.2475
0
LINE
8
BLACK
6
CONTINUOUS
10
125.678
20
-62.2475
11
125.882
21
-62.1698
0
LINE
8
BLACK
6
CONTINUOUS
10
125.882
20
-62.1698
11
126.073
21
-62.0634
0
LINE
8
BLACK
6
CONTINUOUS
10
126.073
20
-62.0634
11
126.246
21
-61.9304
0
LINE
8
BLACK
6
CONTINUOUS
10
126.246
20
-61.9304
11
126.398
21
-61.7737
0
LINE
8
BLACK
6
CONTINUOUS
10
126.398
20
-61.7737
11
126.526
21
-61.5967
0
LINE
8
BLACK
6
CONTINUOUS
10
126.526
20
-61.5967
11
126.627
21
-61.4029
0
LINE
8
BLACK
6
CONTINUOUS
10
126.627
20
-61.4029
11
126.685
21
-61.2345
0
LINE
8
BLACK
6
CONTINUOUS
10
126.685
20
-61.2345
11
126.675
21
-61.2267
0
LINE
8
BLACK
6
CONTINUOUS
10
126.675
20
-61.2267
11
126.671
21
-61.1887
0
LINE
8
BLACK
6
CONTINUOUS
10
126.671
20
-61.1887
11
128.387
21
-54.965
0
LINE
8
BLACK
6
CONTINUOUS
10
128.387
20
-54.965
11
128.399
21
-54.9501
0
LINE
8
BLACK
6
CONTINUOUS
10
128.399
20
-54.9501
11
128.41
21
-54.935
0
LINE
8
BLACK
6
CONTINUOUS
10
128.41
20
-54.935
11
128.41
21
-54.935
0
LINE
8
BLACK
6
CONTINUOUS
10
128.41
20
-54.935
11
128.41
21
-54.9348
0
LINE
8
BLACK
6
CONTINUOUS
10
128.41
20
-54.9348
11
128.429
21
-54.9325
0
LINE
8
BLACK
6
CONTINUOUS
10
128.429
20
-54.9325
11
128.448
21
-54.93
0
LINE
8
BLACK
6
CONTINUOUS
10
128.448
20
-54.93
11
160.032
21
-63.4159
0
LINE
8
BLACK
6
CONTINUOUS
10
160.032
20
-63.4159
11
165.42
21
-43.3829
0
LINE
8
BLACK
6
CONTINUOUS
10
165.42
20
-43.3829
11
165.432
21
-43.3678
0
LINE
8
BLACK
6
CONTINUOUS
10
165.432
20
-43.3678
11
165.443
21
-43.3526
0
LINE
8
BLACK
6
CONTINUOUS
10
165.443
20
-43.3526
11
165.443
21
-43.3526
0
LINE
8
BLACK
6
CONTINUOUS
10
165.443
20
-43.3526
11
165.443
21
-43.3526
0
LINE
8
BLACK
6
CONTINUOUS
10
165.443
20
-43.3526
11
165.462
21
-43.3501
0
LINE
8
BLACK
6
CONTINUOUS
10
165.462
20
-43.3501
11
165.481
21
-43.3476
0
LINE
8
BLACK
6
CONTINUOUS
10
165.481
20
-43.3476
11
243.663
21
-64.2631
0
LINE
8
BLACK
6
CONTINUOUS
10
243.663
20
-64.2631
11
243.693
21
-64.2864
0
LINE
8
BLACK
6
CONTINUOUS
10
243.693
20
-64.2864
11
243.695
21
-64.3004
0
LINE
8
BLACK
6
CONTINUOUS
10
243.695
20
-64.3004
11
243.872
21
-64.3604
0
LINE
8
BLACK
6
CONTINUOUS
10
243.872
20
-64.3604
11
244.075
21
-64.4644
0
LINE
8
BLACK
6
CONTINUOUS
10
244.075
20
-64.4644
11
244.26
21
-64.597
0
LINE
8
BLACK
6
CONTINUOUS
10
244.26
20
-64.597
11
244.424
21
-64.7554
0
LINE
8
BLACK
6
CONTINUOUS
10
244.424
20
-64.7554
11
244.563
21
-64.9362
0
LINE
8
BLACK
6
CONTINUOUS
10
244.563
20
-64.9362
11
244.674
21
-65.1354
0
LINE
8
BLACK
6
CONTINUOUS
10
244.674
20
-65.1354
11
244.754
21
-65.3487
0
LINE
8
BLACK
6
CONTINUOUS
10
244.754
20
-65.3487
11
244.802
21
-65.5714
0
LINE
8
BLACK
6
CONTINUOUS
10
244.802
20
-65.5714
11
244.817
21
-65.7986
0
LINE
8
BLACK
6
CONTINUOUS
10
244.817
20
-65.7986
11
244.817
21
-65.7987
0
LINE
8
BLACK
6
CONTINUOUS
10
244.817
20
-65.7987
11
244.817
21
-140.818
0
LINE
8
BLACK
6
CONTINUOUS
10
244.817
20
-140.818
11
244.801
21
-141.096
0
LINE
8
BLACK
6
CONTINUOUS
10
244.801
20
-141.096
11
244.75
21
-141.371
0
LINE
8
BLACK
6
CONTINUOUS
10
244.75
20
-141.371
11
244.667
21
-141.637
0
LINE
8
BLACK
6
CONTINUOUS
10
244.667
20
-141.637
11
244.553
21
-141.892
0
LINE
8
BLACK
6
CONTINUOUS
10
244.553
20
-141.892
11
244.408
21
-142.13
0
LINE
8
BLACK
6
CONTINUOUS
10
244.408
20
-142.13
11
244.236
21
-142.35
0
LINE
8
BLACK
6
CONTINUOUS
10
244.236
20
-142.35
11
244.039
21
-142.547
0
LINE
8
BLACK
6
CONTINUOUS
10
244.039
20
-142.547
11
243.819
21
-142.72
0
LINE
8
BLACK
6
CONTINUOUS
10
243.819
20
-142.72
11
243.58
21
-142.864
0
LINE
8
BLACK
6
CONTINUOUS
10
243.58
20
-142.864
11
243.326
21
-142.978
0
LINE
8
BLACK
6
CONTINUOUS
10
243.326
20
-142.978
11
243.06
21
-143.061
0
LINE
8
BLACK
6
CONTINUOUS
10
243.06
20
-143.061
11
242.785
21
-143.112
0
LINE
8
BLACK
6
CONTINUOUS
10
242.785
20
-143.112
11
242.506
21
-143.129
0
LINE
8
BLACK
6
CONTINUOUS
10
242.506
20
-143.129
11
52.0065
21
-143.129
0
LINE
8
BLACK
6
CONTINUOUS
10
52.0065
20
-143.129
11
51.7279
21
-143.112
0
LINE
8
BLACK
6
CONTINUOUS
10
51.2366
20
-62.3533
11
51.0306
21
-62.3681
0
LINE
8
BLACK
6
CONTINUOUS
10
51.0306
20
-62.3681
11
50.8211
21
-62.4136
0
LINE
8
BLACK
6
CONTINUOUS
10
50.8211
20
-62.4136
11
50.6202
21
-62.4886
0
LINE
8
BLACK
6
CONTINUOUS
10
50.6202
20
-62.4886
11
50.432
21
-62.5913
0
LINE
8
BLACK
6
CONTINUOUS
10
50.432
20
-62.5913
11
50.2604
21
-62.7198
0
LINE
8
BLACK
6
CONTINUOUS
10
50.2604
20
-62.7198
11
50.1087
21
-62.8715
0
LINE
8
BLACK
6
CONTINUOUS
10
50.1087
20
-62.8715
11
49.9802
21
-63.0431
0
LINE
8
BLACK
6
CONTINUOUS
10
49.9802
20
-63.0431
11
49.8775
21
-63.2313
0
LINE
8
BLACK
6
CONTINUOUS
10
49.8775
20
-63.2313
11
49.8025
21
-63.4322
0
LINE
8
BLACK
6
CONTINUOUS
10
49.8025
20
-63.4322
11
49.757
21
-63.6417
0
LINE
8
BLACK
6
CONTINUOUS
10
49.757
20
-63.6417
11
49.7422
21
-63.8477
0
LINE
8
BLACK
6
CONTINUOUS
10
49.7422
20
-63.8477
11
49.7455
21
-63.8556
0
LINE
8
BLACK
6
CONTINUOUS
10
49.7455
20
-63.8556
11
49.7455
21
-140.818
0
LINE
8
BLACK
6
CONTINUOUS
10
49.7455
20
-140.818
11
49.7419
21
-140.826
0
LINE
8
BLACK
6
CONTINUOUS
10
49.7419
20
-140.826
11
49.7579
21
-141.091
0
LINE
8
BLACK
6
CONTINUOUS
10
49.7579
20
-141.091
11
49.8072
21
-141.36
0
LINE
8
BLACK
6
CONTINUOUS
10
49.8072
20
-141.36
11
49.8886
21
-141.621
0
LINE
8
BLACK
6
CONTINUOUS
10
49.8886
20
-141.621
11
50.0008
21
-141.87
0
LINE
8
BLACK
6
CONTINUOUS
10
50.0008
20
-141.87
11
50.1423
21
-142.104
0
LINE
8
BLACK
6
CONTINUOUS
10
50.1423
20
-142.104
11
50.311
21
-142.32
0
LINE
8
BLACK
6
CONTINUOUS
10
50.311
20
-142.32
11
50.5044
21
-142.513
0
LINE
8
BLACK
6
CONTINUOUS
10
50.5044
20
-142.513
11
50.7198
21
-142.682
0
LINE
8
BLACK
6
CONTINUOUS
10
50.7198
20
-142.682
11
50.9538
21
-142.823
0
LINE
8
BLACK
6
CONTINUOUS
10
50.9538
20
-142.823
11
51.2033
21
-142.936
0
LINE
8
BLACK
6
CONTINUOUS
10
51.2033
20
-142.936
11
51.4644
21
-143.017
0
LINE
8
BLACK
6
CONTINUOUS
10
51.4644
20
-143.017
11
51.7335
21
-143.066
0
LINE
8
BLACK
6
CONTINUOUS
10
51.7335
20
-143.066
11
51.9978
21
-143.082
0
LINE
8
BLACK
6
CONTINUOUS
10
51.9978
20
-143.082
11
52.0065
21
-143.079
0
LINE
8
BLACK
6
CONTINUOUS
10
52.0065
20
-143.079
11
242.506
21
-143.079
0
LINE
8
BLACK
6
CONTINUOUS
10
242.506
20
-143.079
11
242.515
21
-143.082
0
LINE
8
BLACK
6
CONTINUOUS
10
242.515
20
-143.082
11
242.78
21
-143.066
0
LINE
8
BLACK
6
CONTINUOUS
10
242.78
20
-143.066
11
243.049
21
-143.017
0
LINE
8
BLACK
6
CONTINUOUS
10
243.049
20
-143.017
11
243.31
21
-142.936
0
LINE
8
BLACK
6
CONTINUOUS
10
243.31
20
-142.936
11
243.559
21
-142.823
0
LINE
8
BLACK
6
CONTINUOUS
10
243.559
20
-142.823
11
243.793
21
-142.682
0
LINE
8
BLACK
6
CONTINUOUS
10
243.793
20
-142.682
11
244.009
21
-142.513
0
LINE
8
BLACK
6
CONTINUOUS
10
244.009
20
-142.513
11
244.202
21
-142.32
0
LINE
8
BLACK
6
CONTINUOUS
10
244.202
20
-142.32
11
244.371
21
-142.104
0
LINE
8
BLACK
6
CONTINUOUS
10
244.371
20
-142.104
11
244.512
21
-141.87
0
LINE
8
BLACK
6
CONTINUOUS
10
244.512
20
-141.87
11
244.624
21
-141.621
0
LINE
8
BLACK
6
CONTINUOUS
10
244.624
20
-141.621
11
244.706
21
-141.36
0
LINE
8
BLACK
6
CONTINUOUS
10
244.706
20
-141.36
11
244.755
21
-141.091
0
LINE
8
BLACK
6
CONTINUOUS
10
244.755
20
-141.091
11
244.771
21
-140.826
0
LINE
8
BLACK
6
CONTINUOUS
10
244.771
20
-140.826
11
244.767
21
-140.818
0
LINE
8
BLACK
6
CONTINUOUS
10
244.767
20
-140.818
11
244.767
21
-65.7987
0
LINE
8
BLACK
6
CONTINUOUS
10
244.767
20
-65.7987
11
244.768
21
-65.7986
0
LINE
8
BLACK
6
CONTINUOUS
10
244.768
20
-65.7986
11
244.767
21
-65.7985
0
LINE
8
BLACK
6
CONTINUOUS
10
244.767
20
-65.7985
11
244.771
21
-65.7903
0
LINE
8
BLACK
6
CONTINUOUS
10
244.771
20
-65.7903
11
244.757
21
-65.5778
0
LINE
8
BLACK
6
CONTINUOUS
10
244.757
20
-65.5778
11
244.71
21
-65.3617
0
LINE
8
BLACK
6
CONTINUOUS
10
244.71
20
-65.3617
11
244.632
21
-65.1547
0
LINE
8
BLACK
6
CONTINUOUS
10
244.632
20
-65.1547
11
244.525
21
-64.9615
0
LINE
8
BLACK
6
CONTINUOUS
10
244.525
20
-64.9615
11
244.39
21
-64.7861
0
LINE
8
BLACK
6
CONTINUOUS
10
244.39
20
-64.7861
11
244.231
21
-64.6324
0
LINE
8
BLACK
6
CONTINUOUS
10
244.231
20
-64.6324
11
244.051
21
-64.5036
0
LINE
8
BLACK
6
CONTINUOUS
10
244.051
20
-64.5036
11
243.854
21
-64.4027
0
LINE
8
BLACK
6
CONTINUOUS
10
243.854
20
-64.4027
11
243.683
21
-64.3446
0
LINE
8
BLACK
6
CONTINUOUS
10
243.683
20
-64.3446
11
243.675
21
-64.3547
0
LINE
8
BLACK
6
CONTINUOUS
10
243.675
20
-64.3547
11
243.637
21
-64.3597
0
LINE
8
BLACK
6
CONTINUOUS
10
243.637
20
-64.3597
11
165.504
21
-43.4571
0
LINE
8
BLACK
6
CONTINUOUS
10
165.504
20
-43.4571
11
160.106
21
-63.5257
0
LINE
8
BLACK
6
CONTINUOUS
10
160.106
20
-63.5257
11
160.083
21
-63.556
0
LINE
8
BLACK
6
CONTINUOUS
10
160.083
20
-63.556
11
160.045
21
-63.561
0
LINE
8
BLACK
6
CONTINUOUS
10
160.045
20
-63.561
11
160.015
21
-63.5377
0
LINE
8
BLACK
6
CONTINUOUS
10
160.015
20
-63.5377
11
160.012
21
-63.5139
0
LINE
8
BLACK
6
CONTINUOUS
10
160.012
20
-63.5139
11
128.47
21
-55.0395
0
LINE
8
BLACK
6
CONTINUOUS
10
128.47
20
-55.0395
11
126.767
21
-61.2153
0
LINE
8
BLACK
6
CONTINUOUS
10
126.767
20
-61.2153
11
126.744
21
-61.2455
0
LINE
8
BLACK
6
CONTINUOUS
10
126.744
20
-61.2455
11
126.729
21
-61.2473
0
LINE
8
BLACK
6
CONTINUOUS
10
126.729
20
-61.2473
11
126.669
21
-61.4211
0
LINE
8
BLACK
6
CONTINUOUS
10
126.669
20
-61.4211
11
126.565
21
-61.6208
0
LINE
8
BLACK
6
CONTINUOUS
10
126.565
20
-61.6208
11
126.433
21
-61.8033
0
LINE
8
BLACK
6
CONTINUOUS
10
126.433
20
-61.8033
11
126.277
21
-61.9648
0
LINE
8
BLACK
6
CONTINUOUS
10
126.277
20
-61.9648
11
126.098
21
-62.1018
0
LINE
8
BLACK
6
CONTINUOUS
10
126.098
20
-62.1018
11
125.901
21
-62.2115
0
LINE
8
BLACK
6
CONTINUOUS
10
125.901
20
-62.2115
11
125.691
21
-62.2916
0
LINE
8
BLACK
6
CONTINUOUS
10
125.691
20
-62.2916
11
125.471
21
-62.3403
0
LINE
8
BLACK
6
CONTINUOUS
10
125.471
20
-62.3403
11
125.247
21
-62.3566
0
LINE
8
BLACK
6
CONTINUOUS
10
125.247
20
-62.3566
11
125.247
21
-62.3566
0
LINE
8
BLACK
6
CONTINUOUS
10
125.247
20
-62.3566
11
125.241
21
-62.3541
0
LINE
8
BLACK
6
CONTINUOUS
10
125.241
20
-62.3541
11
125.235
21
-62.3566
0
LINE
8
BLACK
6
CONTINUOUS
10
125.235
20
-62.3566
11
51.2445
21
-62.3566
0
LINE
8
BLACK
6
CONTINUOUS
10
51.2445
20
-62.3566
11
51.2366
21
-62.3533
0
LINE
8
BLACK
6
CONTINUOUS
10
187.839
20
-138.335
11
187.821
21
-138.293
0
LINE
8
BLACK
6
CONTINUOUS
10
187.821
20
-138.293
11
187.821
21
-124.293
0
LINE
8
BLACK
6
CONTINUOUS
10
187.821
20
-124.293
11
187.839
21
-124.25
0
LINE
8
BLACK
6
CONTINUOUS
10
187.839
20
-124.25
11
187.881
21
-124.233
0
LINE
8
BLACK
6
CONTINUOUS
10
187.881
20
-124.233
11
201.881
21
-124.233
0
LINE
8
BLACK
6
CONTINUOUS
10
201.881
20
-124.233
11
201.924
21
-124.25
0
LINE
8
BLACK
6
CONTINUOUS
10
201.924
20
-124.25
11
201.941
21
-124.293
0
LINE
8
BLACK
6
CONTINUOUS
10
201.941
20
-124.293
11
201.941
21
-138.293
0
LINE
8
BLACK
6
CONTINUOUS
10
201.941
20
-138.293
11
201.924
21
-138.335
0
LINE
8
BLACK
6
CONTINUOUS
10
201.924
20
-138.335
11
201.881
21
-138.353
0
LINE
8
BLACK
6
CONTINUOUS
10
201.881
20
-138.353
11
187.881
21
-138.353
0
LINE
8
BLACK
6
CONTINUOUS
10
187.881
20
-138.353
11
187.839
21
-138.335
0
LINE
8
BLACK
6
CONTINUOUS
10
187.941
20
-124.353
11
187.941
21
-138.233
0
LINE
8
BLACK
6
CONTINUOUS
10
187.941
20
-138.233
11
201.821
21
-138.233
0
LINE
8
BLACK
6
CONTINUOUS
10
201.821
20
-138.233
11
201.821
21
-124.353
0
LINE
8
BLACK
6
CONTINUOUS
10
201.821
20
-124.353
11
187.941
21
-124.353
0
LINE
8
BLACK
6
CONTINUOUS
10
225.939
20
-138.335
11
225.921
21
-138.293
0
LINE
8
BLACK
6
CONTINUOUS
10
225.921
20
-138.293
11
225.921
21
-124.293
0
LINE
8
BLACK
6
CONTINUOUS
10
225.921
20
-124.293
11
225.939
21
-124.25
0
LINE
8
BLACK
6
CONTINUOUS
10
225.939
20
-124.25
11
225.981
21
-124.233
0
LINE
8
BLACK
6
CONTINUOUS
10
225.981
20
-124.233
11
239.981
21
-124.233
0
LINE
8
BLACK
6
CONTINUOUS
10
239.981
20
-124.233
11
240.024
21
-124.25
0
LINE
8
BLACK
6
CONTINUOUS
10
240.024
20
-124.25
11
240.041
21
-124.293
0
LINE
8
BLACK
6
CONTINUOUS
10
240.041
20
-124.293
11
240.041
21
-138.293
0
LINE
8
BLACK
6
CONTINUOUS
10
240.041
20
-138.293
11
240.024
21
-138.335
0
LINE
8
BLACK
6
CONTINUOUS
10
240.024
20
-138.335
11
239.981
21
-138.353
0
LINE
8
BLACK
6
CONTINUOUS
10
239.981
20
-138.353
11
225.981
21
-138.353
0
LINE
8
BLACK
6
CONTINUOUS
10
225.981
20
-138.353
11
225.939
21
-138.335
0
LINE
8
BLACK
6
CONTINUOUS
10
226.041
20
-124.353
11
226.041
21
-138.233
0
LINE
8
BLACK
6
CONTINUOUS
10
226.041
20
-138.233
11
239.921
21
-138.233
0
LINE
8
BLACK
6
CONTINUOUS
10
239.921
20
-138.233
11
239.921
21
-124.353
0
LINE
8
BLACK
6
CONTINUOUS
10
239.921
20
-124.353
11
226.041
21
-124.353
0
LINE
8
BLACK
6
CONTINUOUS
10
168.789
20
-138.335
11
168.772
21
-138.293
0
LINE
8
BLACK
6
CONTINUOUS
10
168.772
20
-138.293
11
168.772
21
-124.293
0
LINE
8
BLACK
6
CONTINUOUS
10
168.772
20
-124.293
11
168.789
21
-124.25
0
LINE
8
BLACK
6
CONTINUOUS
10
168.789
20
-124.25
11
168.832
21
-124.233
0
LINE
8
BLACK
6
CONTINUOUS
10
168.832
20
-124.233
11
182.832
21
-124.233
0
LINE
8
BLACK
6
CONTINUOUS
10
182.832
20
-124.233
11
182.874
21
-124.25
0
LINE
8
BLACK
6
CONTINUOUS
10
182.874
20
-124.25
11
182.891
21
-124.293
0
LINE
8
BLACK
6
CONTINUOUS
10
182.891
20
-124.293
11
182.891
21
-138.293
0
LINE
8
BLACK
6
CONTINUOUS
10
182.891
20
-138.293
11
182.874
21
-138.335
0
LINE
8
BLACK
6
CONTINUOUS
10
182.874
20
-138.335
11
182.832
21
-138.353
0
LINE
8
BLACK
6
CONTINUOUS
10
182.832
20
-138.353
11
168.832
21
-138.353
0
LINE
8
BLACK
6
CONTINUOUS
10
168.832
20
-138.353
11
168.789
21
-138.335
0
LINE
8
BLACK
6
CONTINUOUS
10
168.891
20
-124.353
11
168.891
21
-138.233
0
LINE
8
BLACK
6
CONTINUOUS
10
168.891
20
-138.233
11
182.772
21
-138.233
0
LINE
8
BLACK
6
CONTINUOUS
10
182.772
20
-138.233
11
182.772
21
-124.353
0
LINE
8
BLACK
6
CONTINUOUS
10
182.772
20
-124.353
11
168.891
21
-124.353
0
LINE
8
BLACK
6
CONTINUOUS
10
111.639
20
-138.335
11
111.621
21
-138.293
0
LINE
8
BLACK
6
CONTINUOUS
10
111.621
20
-138.293
11
111.621
21
-124.293
0
LINE
8
BLACK
6
CONTINUOUS
10
111.621
20
-124.293
11
111.639
21
-124.25
0
LINE
8
BLACK
6
CONTINUOUS
10
111.639
20
-124.25
11
111.681
21
-124.233
0
LINE
8
BLACK
6
CONTINUOUS
10
111.681
20
-124.233
11
125.681
21
-124.233
0
LINE
8
BLACK
6
CONTINUOUS
10
125.681
20
-124.233
11
125.724
21
-124.25
0
LINE
8
BLACK
6
CONTINUOUS
10
125.724
20
-124.25
11
125.741
21
-124.293
0
LINE
8
BLACK
6
CONTINUOUS
10
125.741
20
-124.293
11
125.741
21
-138.293
0
LINE
8
BLACK
6
CONTINUOUS
10
125.741
20
-138.293
11
125.724
21
-138.335
0
LINE
8
BLACK
6
CONTINUOUS
10
125.724
20
-138.335
11
125.681
21
-138.353
0
LINE
8
BLACK
6
CONTINUOUS
10
125.681
20
-138.353
11
111.681
21
-138.353
0
LINE
8
BLACK
6
CONTINUOUS
10
111.681
20
-138.353
11
111.639
21
-138.335
0
LINE
8
BLACK
6
CONTINUOUS
10
111.742
20
-124.353
11
111.742
21
-138.233
0
LINE
8
BLACK
6
CONTINUOUS
10
111.742
20
-138.233
11
125.621
21
-138.233
0
LINE
8
BLACK
6
CONTINUOUS
10
125.621
20
-138.233
11
125.621
21
-124.353
0
LINE
8
BLACK
6
CONTINUOUS
10
125.621
20
-124.353
11
111.742
21
-124.353
0
LINE
8
BLACK
6
CONTINUOUS
10
149.739
20
-138.335
11
149.721
21
-138.293
0
LINE
8
BLACK
6
CONTINUOUS
10
149.721
20
-138.293
11
149.721
21
-124.293
0
LINE
8
BLACK
6
CONTINUOUS
10
149.721
20
-124.293
11
149.739
21
-124.25
0
LINE
8
BLACK
6
CONTINUOUS
10
149.739
20
-124.25
11
149.781
21
-124.233
0
LINE
8
BLACK
6
CONTINUOUS
10
149.781
20
-124.233
11
163.781
21
-124.233
0
LINE
8
BLACK
6
CONTINUOUS
10
163.781
20
-124.233
11
163.824
21
-124.25
0
LINE
8
BLACK
6
CONTINUOUS
10
163.824
20
-124.25
11
163.841
21
-124.293
0
LINE
8
BLACK
6
CONTINUOUS
10
163.841
20
-124.293
11
163.841
21
-138.293
0
LINE
8
BLACK
6
CONTINUOUS
10
163.841
20
-138.293
11
163.824
21
-138.335
0
LINE
8
BLACK
6
CONTINUOUS
10
163.824
20
-138.335
11
163.781
21
-138.353
0
LINE
8
BLACK
6
CONTINUOUS
10
163.781
20
-138.353
11
149.781
21
-138.353
0
LINE
8
BLACK
6
CONTINUOUS
10
149.781
20
-138.353
11
149.739
21
-138.335
0
LINE
8
BLACK
6
CONTINUOUS
10
149.841
20
-124.353
11
149.841
21
-138.233
0
LINE
8
BLACK
6
CONTINUOUS
10
149.841
20
-138.233
11
163.721
21
-138.233
0
LINE
8
BLACK
6
CONTINUOUS
10
163.721
20
-138.233
11
163.721
21
-124.353
0
LINE
8
BLACK
6
CONTINUOUS
10
163.721
20
-124.353
11
149.841
21
-124.353
0
LINE
8
BLACK
6
CONTINUOUS
10
54.4891
20
-138.335
11
54.4715
21
-138.293
0
LINE
8
BLACK
6
CONTINUOUS
10
54.4715
20
-138.293
11
54.4715
21
-124.293
0
LINE
8
BLACK
6
CONTINUOUS
10
54.4715
20
-124.293
11
54.4891
21
-124.25
0
LINE
8
BLACK
6
CONTINUOUS
10
54.4891
20
-124.25
11
54.5315
21
-124.233
0
LINE
8
BLACK
6
CONTINUOUS
10
54.5315
20
-124.233
11
68.5315
21
-124.233
0
LINE
8
BLACK
6
CONTINUOUS
10
68.5315
20
-124.233
11
68.5739
21
-124.25
0
LINE
8
BLACK
6
CONTINUOUS
10
68.5739
20
-124.25
11
68.5915
21
-124.293
0
LINE
8
BLACK
6
CONTINUOUS
10
68.5915
20
-124.293
11
68.5915
21
-138.293
0
LINE
8
BLACK
6
CONTINUOUS
10
68.5915
20
-138.293
11
68.5739
21
-138.335
0
LINE
8
BLACK
6
CONTINUOUS
10
68.5739
20
-138.335
11
68.5315
21
-138.353
0
LINE
8
BLACK
6
CONTINUOUS
10
68.5315
20
-138.353
11
54.5315
21
-138.353
0
LINE
8
BLACK
6
CONTINUOUS
10
54.5315
20
-138.353
11
54.4891
21
-138.335
0
LINE
8
BLACK
6
CONTINUOUS
10
54.5915
20
-124.353
11
54.5915
21
-138.233
0
LINE
8
BLACK
6
CONTINUOUS
10
54.5915
20
-138.233
11
68.4715
21
-138.233
0
LINE
8
BLACK
6
CONTINUOUS
10
68.4715
20
-138.233
11
68.4715
21
-124.353
0
LINE
8
BLACK
6
CONTINUOUS
10
68.4715
20
-124.353
11
54.5915
21
-124.353
0
LINE
8
BLACK
6
CONTINUOUS
10
130.689
20
-138.335
11
130.671
21
-138.293
0
LINE
8
BLACK
6
CONTINUOUS
10
130.671
20
-138.293
11
130.671
21
-124.293
0
LINE
8
BLACK
6
CONTINUOUS
10
130.671
20
-124.293
11
130.689
21
-124.25
0
LINE
8
BLACK
6
CONTINUOUS
10
130.689
20
-124.25
11
130.731
21
-124.233
0
LINE
8
BLACK
6
CONTINUOUS
10
130.731
20
-124.233
11
144.731
21
-124.233
0
LINE
8
BLACK
6
CONTINUOUS
10
144.731
20
-124.233
11
144.774
21
-124.25
0
LINE
8
BLACK
6
CONTINUOUS
10
144.774
20
-124.25
11
144.791
21
-124.293
0
LINE
8
BLACK
6
CONTINUOUS
10
144.791
20
-124.293
11
144.791
21
-138.293
0
LINE
8
BLACK
6
CONTINUOUS
10
144.791
20
-138.293
11
144.774
21
-138.335
0
LINE
8
BLACK
6
CONTINUOUS
10
144.774
20
-138.335
11
144.731
21
-138.353
0
LINE
8
BLACK
6
CONTINUOUS
10
144.731
20
-138.353
11
130.731
21
-138.353
0
LINE
8
BLACK
6
CONTINUOUS
10
130.731
20
-138.353
11
130.689
21
-138.335
0
LINE
8
BLACK
6
CONTINUOUS
10
130.791
20
-124.353
11
130.791
21
-138.233
0
LINE
8
BLACK
6
CONTINUOUS
10
130.791
20
-138.233
11
144.671
21
-138.233
0
LINE
8
BLACK
6
CONTINUOUS
10
144.671
20
-138.233
11
144.671
21
-124.353
0
LINE
8
BLACK
6
CONTINUOUS
10
144.671
20
-124.353
11
130.791
21
-124.353
0
LINE
8
BLACK
6
CONTINUOUS
10
206.889
20
-138.335
11
206.871
21
-138.293
0
LINE
8
BLACK
6
CONTINUOUS
10
206.871
20
-138.293
11
206.871
21
-124.293
0
LINE
8
BLACK
6
CONTINUOUS
10
206.871
20
-124.293
11
206.889
21
-124.25
0
LINE
8
BLACK
6
CONTINUOUS
10
206.889
20
-124.25
11
206.931
21
-124.233
0
LINE
8
BLACK
6
CONTINUOUS
10
206.931
20
-124.233
11
220.931
21
-124.233
0
LINE
8
BLACK
6
CONTINUOUS
10
220.931
20
-124.233
11
220.974
21
-124.25
0
LINE
8
BLACK
6
CONTINUOUS
10
220.974
20
-124.25
11
220.992
21
-124.293
0
LINE
8
BLACK
6
CONTINUOUS
10
220.992
20
-124.293
11
220.992
21
-138.293
0
LINE
8
BLACK
6
CONTINUOUS
10
220.992
20
-138.293
11
220.974
21
-138.335
0
LINE
8
BLACK
6
CONTINUOUS
10
220.974
20
-138.335
11
220.931
21
-138.353
0
LINE
8
BLACK
6
CONTINUOUS
10
220.931
20
-138.353
11
206.931
21
-138.353
0
LINE
8
BLACK
6
CONTINUOUS
10
206.931
20
-138.353
11
206.889
21
-138.335
0
LINE
8
BLACK
6
CONTINUOUS
10
206.992
20
-124.353
11
206.992
21
-138.233
0
LINE
8
BLACK
6
CONTINUOUS
10
206.992
20
-138.233
11
220.871
21
-138.233
0
LINE
8
BLACK
6
CONTINUOUS
10
220.871
20
-138.233
11
220.871
21
-124.353
0
LINE
8
BLACK
6
CONTINUOUS
10
220.871
20
-124.353
11
206.992
21
-124.353
0
LINE
8
BLACK
6
CONTINUOUS
10
73.5391
20
-138.335
11
73.5215
21
-138.293
0
LINE
8
BLACK
6
CONTINUOUS
10
73.5215
20
-138.293
11
73.5215
21
-124.293
0
LINE
8
BLACK
6
CONTINUOUS
10
73.5215
20
-124.293
11
73.5391
21
-124.25
0
LINE
8
BLACK
6
CONTINUOUS
10
73.5391
20
-124.25
11
73.5815
21
-124.233
0
LINE
8
BLACK
6
CONTINUOUS
10
73.5815
20
-124.233
11
87.5815
21
-124.233
0
LINE
8
BLACK
6
CONTINUOUS
10
87.5815
20
-124.233
11
87.6239
21
-124.25
0
LINE
8
BLACK
6
CONTINUOUS
10
87.6239
20
-124.25
11
87.6415
21
-124.293
0
LINE
8
BLACK
6
CONTINUOUS
10
87.6415
20
-124.293
11
87.6415
21
-138.293
0
LINE
8
BLACK
6
CONTINUOUS
10
87.6415
20
-138.293
11
87.6239
21
-138.335
0
LINE
8
BLACK
6
CONTINUOUS
10
87.6239
20
-138.335
11
87.5815
21
-138.353
0
LINE
8
BLACK
6
CONTINUOUS
10
87.5815
20
-138.353
11
73.5815
21
-138.353
0
LINE
8
BLACK
6
CONTINUOUS
10
73.5815
20
-138.353
11
73.5391
21
-138.335
0
LINE
8
BLACK
6
CONTINUOUS
10
73.6415
20
-124.353
11
73.6415
21
-138.233
0
LINE
8
BLACK
6
CONTINUOUS
10
73.6415
20
-138.233
11
87.5215
21
-138.233
0
LINE
8
BLACK
6
CONTINUOUS
10
87.5215
20
-138.233
11
87.5215
21
-124.353
0
LINE
8
BLACK
6
CONTINUOUS
10
87.5215
20
-124.353
11
73.6415
21
-124.353
0
LINE
8
BLACK
6
CONTINUOUS
10
92.5891
20
-138.335
11
92.5715
21
-138.293
0
LINE
8
BLACK
6
CONTINUOUS
10
92.5715
20
-138.293
11
92.5715
21
-124.293
0
LINE
8
BLACK
6
CONTINUOUS
10
92.5715
20
-124.293
11
92.5891
21
-124.25
0
LINE
8
BLACK
6
CONTINUOUS
10
92.5891
20
-124.25
11
92.6315
21
-124.233
0
LINE
8
BLACK
6
CONTINUOUS
10
92.6315
20
-124.233
11
106.631
21
-124.233
0
LINE
8
BLACK
6
CONTINUOUS
10
106.631
20
-124.233
11
106.674
21
-124.25
0
LINE
8
BLACK
6
CONTINUOUS
10
106.674
20
-124.25
11
106.691
21
-124.293
0
LINE
8
BLACK
6
CONTINUOUS
10
106.691
20
-124.293
11
106.691
21
-138.293
0
LINE
8
BLACK
6
CONTINUOUS
10
106.691
20
-138.293
11
106.674
21
-138.335
0
LINE
8
BLACK
6
CONTINUOUS
10
106.674
20
-138.335
11
106.631
21
-138.353
0
LINE
8
BLACK
6
CONTINUOUS
10
106.631
20
-138.353
11
92.6315
21
-138.353
0
LINE
8
BLACK
6
CONTINUOUS
10
92.6315
20
-138.353
11
92.5891
21
-138.335
0
LINE
8
BLACK
6
CONTINUOUS
10
92.6915
20
-124.353
11
92.6915
21
-138.233
0
LINE
8
BLACK
6
CONTINUOUS
10
92.6915
20
-138.233
11
106.572
21
-138.233
0
LINE
8
BLACK
6
CONTINUOUS
10
106.572
20
-138.233
11
106.572
21
-124.353
0
LINE
8
BLACK
6
CONTINUOUS
10
106.572
20
-124.353
11
92.6915
21
-124.353
0
LINE
8
BLACK
6
CONTINUOUS
10
220.974
20
-119.285
11
220.931
21
-119.303
0
LINE
8
BLACK
6
CONTINUOUS
10
220.931
20
-119.303
11
206.931
21
-119.303
0
LINE
8
BLACK
6
CONTINUOUS
10
206.931
20
-119.303
11
206.889
21
-119.285
0
LINE
8
BLACK
6
CONTINUOUS
10
206.889
20
-119.285
11
206.871
21
-119.243
0
LINE
8
BLACK
6
CONTINUOUS
10
206.871
20
-119.243
11
206.871
21
-105.243
0
LINE
8
BLACK
6
CONTINUOUS
10
206.871
20
-105.243
11
206.889
21
-105.2
0
LINE
8
BLACK
6
CONTINUOUS
10
206.889
20
-105.2
11
206.931
21
-105.183
0
LINE
8
BLACK
6
CONTINUOUS
10
206.931
20
-105.183
11
220.931
21
-105.183
0
LINE
8
BLACK
6
CONTINUOUS
10
220.931
20
-105.183
11
220.974
21
-105.2
0
LINE
8
BLACK
6
CONTINUOUS
10
220.974
20
-105.2
11
220.992
21
-105.243
0
LINE
8
BLACK
6
CONTINUOUS
10
220.992
20
-105.243
11
220.992
21
-119.243
0
LINE
8
BLACK
6
CONTINUOUS
10
220.992
20
-119.243
11
220.974
21
-119.285
0
LINE
8
BLACK
6
CONTINUOUS
10
206.992
20
-105.303
11
206.992
21
-119.183
0
LINE
8
BLACK
6
CONTINUOUS
10
206.992
20
-119.183
11
220.871
21
-119.183
0
LINE
8
BLACK
6
CONTINUOUS
10
220.871
20
-119.183
11
220.871
21
-105.303
0
LINE
8
BLACK
6
CONTINUOUS
10
220.871
20
-105.303
11
206.992
21
-105.303
0
LINE
8
BLACK
6
CONTINUOUS
10
87.6239
20
-119.285
11
87.5815
21
-119.303
0
LINE
8
BLACK
6
CONTINUOUS
10
87.5815
20
-119.303
11
73.5815
21
-119.303
0
LINE
8
BLACK
6
CONTINUOUS
10
73.5815
20
-119.303
11
73.5391
21
-119.285
0
LINE
8
BLACK
6
CONTINUOUS
10
73.5391
20
-119.285
11
73.5215
21
-119.243
0
LINE
8
BLACK
6
CONTINUOUS
10
73.5215
20
-119.243
11
73.5215
21
-105.243
0
LINE
8
BLACK
6
CONTINUOUS
10
73.5215
20
-105.243
11
73.5391
21
-105.2
0
LINE
8
BLACK
6
CONTINUOUS
10
73.5391
20
-105.2
11
73.5815
21
-105.183
0
LINE
8
BLACK
6
CONTINUOUS
10
73.5815
20
-105.183
11
87.5815
21
-105.183
0
LINE
8
BLACK
6
CONTINUOUS
10
87.5815
20
-105.183
11
87.6239
21
-105.2
0
LINE
8
BLACK
6
CONTINUOUS
10
87.6239
20
-105.2
11
87.6415
21
-105.243
0
LINE
8
BLACK
6
CONTINUOUS
10
87.6415
20
-105.243
11
87.6415
21
-119.243
0
LINE
8
BLACK
6
CONTINUOUS
10
87.6415
20
-119.243
11
87.6239
21
-119.285
0
LINE
8
BLACK
6
CONTINUOUS
10
73.6415
20
-105.303
11
73.6415
21
-119.183
0
LINE
8
BLACK
6
CONTINUOUS
10
73.6415
20
-119.183
11
87.5215
21
-119.183
0
LINE
8
BLACK
6
CONTINUOUS
10
87.5215
20
-119.183
11
87.5215
21
-105.303
0
LINE
8
BLACK
6
CONTINUOUS
10
87.5215
20
-105.303
11
73.6415
21
-105.303
0
LINE
8
BLACK
6
CONTINUOUS
10
201.924
20
-119.285
11
201.881
21
-119.303
0
LINE
8
BLACK
6
CONTINUOUS
10
201.881
20
-119.303
11
187.881
21
-119.303
0
LINE
8
BLACK
6
CONTINUOUS
10
187.881
20
-119.303
11
187.839
21
-119.285
0
LINE
8
BLACK
6
CONTINUOUS
10
187.839
20
-119.285
11
187.821
21
-119.243
0
LINE
8
BLACK
6
CONTINUOUS
10
187.821
20
-119.243
11
187.821
21
-105.243
0
LINE
8
BLACK
6
CONTINUOUS
10
187.821
20
-105.243
11
187.839
21
-105.2
0
LINE
8
BLACK
6
CONTINUOUS
10
187.839
20
-105.2
11
187.881
21
-105.183
0
LINE
8
BLACK
6
CONTINUOUS
10
187.881
20
-105.183
11
201.881
21
-105.183
0
LINE
8
BLACK
6
CONTINUOUS
10
201.881
20
-105.183
11
201.924
21
-105.2
0
LINE
8
BLACK
6
CONTINUOUS
10
201.924
20
-105.2
11
201.941
21
-105.243
0
LINE
8
BLACK
6
CONTINUOUS
10
201.941
20
-105.243
11
201.941
21
-119.243
0
LINE
8
BLACK
6
CONTINUOUS
10
201.941
20
-119.243
11
201.924
21
-119.285
0
LINE
8
BLACK
6
CONTINUOUS
10
187.941
20
-105.303
11
187.941
21
-119.183
0
LINE
8
BLACK
6
CONTINUOUS
10
187.941
20
-119.183
11
201.821
21
-119.183
0
LINE
8
BLACK
6
CONTINUOUS
10
201.821
20
-119.183
11
201.821
21
-105.303
0
LINE
8
BLACK
6
CONTINUOUS
10
201.821
20
-105.303
11
187.941
21
-105.303
0
LINE
8
BLACK
6
CONTINUOUS
10
106.674
20
-119.285
11
106.631
21
-119.303
0
LINE
8
BLACK
6
CONTINUOUS
10
106.631
20
-119.303
11
92.6315
21
-119.303
0
LINE
8
BLACK
6
CONTINUOUS
10
92.6315
20
-119.303
11
92.5891
21
-119.285
0
LINE
8
BLACK
6
CONTINUOUS
10
92.5891
20
-119.285
11
92.5715
21
-119.243
0
LINE
8
BLACK
6
CONTINUOUS
10
92.5715
20
-119.243
11
92.5715
21
-105.243
0
LINE
8
BLACK
6
CONTINUOUS
10
92.5715
20
-105.243
11
92.5891
21
-105.2
0
LINE
8
BLACK
6
CONTINUOUS
10
92.5891
20
-105.2
11
92.6315
21
-105.183
0
LINE
8
BLACK
6
CONTINUOUS
10
92.6315
20
-105.183
11
106.631
21
-105.183
0
LINE
8
BLACK
6
CONTINUOUS
10
106.631
20
-105.183
11
106.674
21
-105.2
0
LINE
8
BLACK
6
CONTINUOUS
10
106.674
20
-105.2
11
106.691
21
-105.243
0
LINE
8
BLACK
6
CONTINUOUS
10
106.691
20
-105.243
11
106.691
21
-119.243
0
LINE
8
BLACK
6
CONTINUOUS
10
106.691
20
-119.243
11
106.674
21
-119.285
0
LINE
8
BLACK
6
CONTINUOUS
10
92.6915
20
-105.303
11
92.6915
21
-119.183
0
LINE
8
BLACK
6
CONTINUOUS
10
92.6915
20
-119.183
11
106.572
21
-119.183
0
LINE
8
BLACK
6
CONTINUOUS
10
106.572
20
-119.183
11
106.572
21
-105.303
0
LINE
8
BLACK
6
CONTINUOUS
10
106.572
20
-105.303
11
92.6915
21
-105.303
0
LINE
8
BLACK
6
CONTINUOUS
10
225.939
20
-119.285
11
225.921
21
-119.243
0
LINE
8
BLACK
6
CONTINUOUS
10
225.921
20
-119.243
11
225.921
21
-105.243
0
LINE
8
BLACK
6
CONTINUOUS
10
225.921
20
-105.243
11
225.939
21
-105.2
0
LINE
8
BLACK
6
CONTINUOUS
10
225.939
20
-105.2
11
225.981
21
-105.183
0
LINE
8
BLACK
6
CONTINUOUS
10
225.981
20
-105.183
11
239.981
21
-105.183
0
LINE
8
BLACK
6
CONTINUOUS
10
239.981
20
-105.183
11
240.024
21
-105.2
0
LINE
8
BLACK
6
CONTINUOUS
10
240.024
20
-105.2
11
240.041
21
-105.243
0
LINE
8
BLACK
6
CONTINUOUS
10
240.041
20
-105.243
11
240.041
21
-119.243
0
LINE
8
BLACK
6
CONTINUOUS
10
240.041
20
-119.243
11
240.024
21
-119.285
0
LINE
8
BLACK
6
CONTINUOUS
10
240.024
20
-119.285
11
239.981
21
-119.303
0
LINE
8
BLACK
6
CONTINUOUS
10
239.981
20
-119.303
11
225.981
21
-119.303
0
LINE
8
BLACK
6
CONTINUOUS
10
225.981
20
-119.303
11
225.939
21
-119.285
0
LINE
8
BLACK
6
CONTINUOUS
10
226.041
20
-105.303
11
226.041
21
-119.183
0
LINE
8
BLACK
6
CONTINUOUS
10
226.041
20
-119.183
11
239.921
21
-119.183
0
LINE
8
BLACK
6
CONTINUOUS
10
239.921
20
-119.183
11
239.921
21
-105.303
0
LINE
8
BLACK
6
CONTINUOUS
10
239.921
20
-105.303
11
226.041
21
-105.303
0
LINE
8
BLACK
6
CONTINUOUS
10
149.739
20
-119.285
11
149.721
21
-119.243
0
LINE
8
BLACK
6
CONTINUOUS
10
149.721
20
-119.243
11
149.721
21
-105.243
0
LINE
8
BLACK
6
CONTINUOUS
10
149.721
20
-105.243
11
149.739
21
-105.2
0
LINE
8
BLACK
6
CONTINUOUS
10
149.739
20
-105.2
11
149.781
21
-105.183
0
LINE
8
BLACK
6
CONTINUOUS
10
149.781
20
-105.183
11
163.781
21
-105.183
0
LINE
8
BLACK
6
CONTINUOUS
10
163.781
20
-105.183
11
163.824
21
-105.2
0
LINE
8
BLACK
6
CONTINUOUS
10
163.824
20
-105.2
11
163.841
21
-105.243
0
LINE
8
BLACK
6
CONTINUOUS
10
163.841
20
-105.243
11
163.841
21
-119.243
0
LINE
8
BLACK
6
CONTINUOUS
10
163.841
20
-119.243
11
163.824
21
-119.285
0
LINE
8
BLACK
6
CONTINUOUS
10
163.824
20
-119.285
11
163.781
21
-119.303
0
LINE
8
BLACK
6
CONTINUOUS
10
163.781
20
-119.303
11
149.781
21
-119.303
0
LINE
8
BLACK
6
CONTINUOUS
10
149.781
20
-119.303
11
149.739
21
-119.285
0
LINE
8
BLACK
6
CONTINUOUS
10
149.841
20
-105.303
11
149.841
21
-119.183
0
LINE
8
BLACK
6
CONTINUOUS
10
149.841
20
-119.183
11
163.721
21
-119.183
0
LINE
8
BLACK
6
CONTINUOUS
10
163.721
20
-119.183
11
163.721
21
-105.303
0
LINE
8
BLACK
6
CONTINUOUS
10
163.721
20
-105.303
11
149.841
21
-105.303
0
LINE
8
BLACK
6
CONTINUOUS
10
130.689
20
-119.285
11
130.671
21
-119.243
0
LINE
8
BLACK
6
CONTINUOUS
10
130.671
20
-119.243
11
130.671
21
-105.243
0
LINE
8
BLACK
6
CONTINUOUS
10
130.671
20
-105.243
11
130.689
21
-105.2
0
LINE
8
BLACK
6
CONTINUOUS
10
130.689
20
-105.2
11
130.731
21
-105.183
0
LINE
8
BLACK
6
CONTINUOUS
10
130.731
20
-105.183
11
144.731
21
-105.183
0
LINE
8
BLACK
6
CONTINUOUS
10
144.731
20
-105.183
11
144.774
21
-105.2
0
LINE
8
BLACK
6
CONTINUOUS
10
144.774
20
-105.2
11
144.791
21
-105.243
0
LINE
8
BLACK
6
CONTINUOUS
10
144.791
20
-105.243
11
144.791
21
-119.243
0
LINE
8
BLACK
6
CONTINUOUS
10
144.791
20
-119.243
11
144.774
21
-119.285
0
LINE
8
BLACK
6
CONTINUOUS
10
144.774
20
-119.285
11
144.731
21
-119.303
0
LINE
8
BLACK
6
CONTINUOUS
10
144.731
20
-119.303
11
130.731
21
-119.303
0
LINE
8
BLACK
6
CONTINUOUS
10
130.731
20
-119.303
11
130.689
21
-119.285
0
LINE
8
BLACK
6
CONTINUOUS
10
130.791
20
-105.303
11
130.791
21
-119.183
0
LINE
8
BLACK
6
CONTINUOUS
10
130.791
20
-119.183
11
144.671
21
-119.183
0
LINE
8
BLACK
6
CONTINUOUS
10
144.671
20
-119.183
11
144.671
21
-105.303
0
LINE
8
BLACK
6
CONTINUOUS
10
144.671
20
-105.303
11
130.791
21
-105.303
0
LINE
8
BLACK
6
CONTINUOUS
10
111.639
20
-119.285
11
111.621
21
-119.243
0
LINE
8
BLACK
6
CONTINUOUS
10
111.621
20
-119.243
11
111.621
21
-105.243
0
LINE
8
BLACK
6
CONTINUOUS
10
111.621
20
-105.243
11
111.639
21
-105.2
0
LINE
8
BLACK
6
CONTINUOUS
10
111.639
20
-105.2
11
111.681
21
-105.183
0
LINE
8
BLACK
6
CONTINUOUS
10
111.681
20
-105.183
11
125.681
21
-105.183
0
LINE
8
BLACK
6
CONTINUOUS
10
125.681
20
-105.183
11
125.724
21
-105.2
0
LINE
8
BLACK
6
CONTINUOUS
10
125.724
20
-105.2
11
125.741
21
-105.243
0
LINE
8
BLACK
6
CONTINUOUS
10
125.741
20
-105.243
11
125.741
21
-119.243
0
LINE
8
BLACK
6
CONTINUOUS
10
125.741
20
-119.243
11
125.724
21
-119.285
0
LINE
8
BLACK
6
CONTINUOUS
10
125.724
20
-119.285
11
125.681
21
-119.303
0
LINE
8
BLACK
6
CONTINUOUS
10
125.681
20
-119.303
11
111.681
21
-119.303
0
LINE
8
BLACK
6
CONTINUOUS
10
111.681
20
-119.303
11
111.639
21
-119.285
0
LINE
8
BLACK
6
CONTINUOUS
10
111.742
20
-105.303
11
111.742
21
-119.183
0
LINE
8
BLACK
6
CONTINUOUS
10
111.742
20
-119.183
11
125.621
21
-119.183
0
LINE
8
BLACK
6
CONTINUOUS
10
125.621
20
-119.183
11
125.621
21
-105.303
0
LINE
8
BLACK
6
CONTINUOUS
10
125.621
20
-105.303
11
111.742
21
-105.303
0
LINE
8
BLACK
6
CONTINUOUS
10
168.789
20
-119.285
11
168.772
21
-119.243
0
LINE
8
BLACK
6
CONTINUOUS
10
168.772
20
-119.243
11
168.772
21
-105.243
0
LINE
8
BLACK
6
CONTINUOUS
10
168.772
20
-105.243
11
168.789
21
-105.2
0
LINE
8
BLACK
6
CONTINUOUS
10
168.789
20
-105.2
11
168.832
21
-105.183
0
LINE
8
BLACK
6
CONTINUOUS
10
168.832
20
-105.183
11
182.832
21
-105.183
0
LINE
8
BLACK
6
CONTINUOUS
10
182.832
20
-105.183
11
182.874
21
-105.2
0
LINE
8
BLACK
6
CONTINUOUS
10
182.874
20
-105.2
11
182.891
21
-105.243
0
LINE
8
BLACK
6
CONTINUOUS
10
182.891
20
-105.243
11
182.891
21
-119.243
0
LINE
8
BLACK
6
CONTINUOUS
10
182.891
20
-119.243
11
182.874
21
-119.285
0
LINE
8
BLACK
6
CONTINUOUS
10
182.874
20
-119.285
11
182.832
21
-119.303
0
LINE
8
BLACK
6
CONTINUOUS
10
182.832
20
-119.303
11
168.832
21
-119.303
0
LINE
8
BLACK
6
CONTINUOUS
10
168.832
20
-119.303
11
168.789
21
-119.285
0
LINE
8
BLACK
6
CONTINUOUS
10
168.891
20
-105.303
11
168.891
21
-119.183
0
LINE
8
BLACK
6
CONTINUOUS
10
168.891
20
-119.183
11
182.772
21
-119.183
0
LINE
8
BLACK
6
CONTINUOUS
10
182.772
20
-119.183
11
182.772
21
-105.303
0
LINE
8
BLACK
6
CONTINUOUS
10
182.772
20
-105.303
11
168.891
21
-105.303
0
LINE
8
BLACK
6
CONTINUOUS
10
54.4891
20
-119.285
11
54.4715
21
-119.243
0
LINE
8
BLACK
6
CONTINUOUS
10
54.4715
20
-119.243
11
54.4715
21
-105.243
0
LINE
8
BLACK
6
CONTINUOUS
10
54.4715
20
-105.243
11
54.4891
21
-105.2
0
LINE
8
BLACK
6
CONTINUOUS
10
54.4891
20
-105.2
11
54.5315
21
-105.183
0
LINE
8
BLACK
6
CONTINUOUS
10
54.5315
20
-105.183
11
68.5315
21
-105.183
0
LINE
8
BLACK
6
CONTINUOUS
10
68.5315
20
-105.183
11
68.5739
21
-105.2
0
LINE
8
BLACK
6
CONTINUOUS
10
68.5739
20
-105.2
11
68.5915
21
-105.243
0
LINE
8
BLACK
6
CONTINUOUS
10
68.5915
20
-105.243
11
68.5915
21
-119.243
0
LINE
8
BLACK
6
CONTINUOUS
10
68.5915
20
-119.243
11
68.5739
21
-119.285
0
LINE
8
BLACK
6
CONTINUOUS
10
68.5739
20
-119.285
11
68.5315
21
-119.303
0
LINE
8
BLACK
6
CONTINUOUS
10
68.5315
20
-119.303
11
54.5315
21
-119.303
0
LINE
8
BLACK
6
CONTINUOUS
10
54.5315
20
-119.303
11
54.4891
21
-119.285
0
LINE
8
BLACK
6
CONTINUOUS
10
54.5915
20
-105.303
11
54.5915
21
-119.183
0
LINE
8
BLACK
6
CONTINUOUS
10
54.5915
20
-119.183
11
68.4715
21
-119.183
0
LINE
8
BLACK
6
CONTINUOUS
10
68.4715
20
-119.183
11
68.4715
21
-105.303
0
LINE
8
BLACK
6
CONTINUOUS
10
68.4715
20
-105.303
11
54.5915
21
-105.303
0
LINE
8
BLACK
6
CONTINUOUS
10
168.789
20
-100.235
11
168.772
21
-100.193
0
LINE
8
BLACK
6
CONTINUOUS
10
168.772
20
-100.193
11
168.772
21
-86.1926
0
LINE
8
BLACK
6
CONTINUOUS
10
168.772
20
-86.1926
11
168.789
21
-86.1502
0
LINE
8
BLACK
6
CONTINUOUS
10
168.789
20
-86.1502
11
168.832
21
-86.1326
0
LINE
8
BLACK
6
CONTINUOUS
10
168.832
20
-86.1326
11
182.832
21
-86.1326
0
LINE
8
BLACK
6
CONTINUOUS
10
182.832
20
-86.1326
11
182.874
21
-86.1502
0
LINE
8
BLACK
6
CONTINUOUS
10
182.874
20
-86.1502
11
182.891
21
-86.1926
0
LINE
8
BLACK
6
CONTINUOUS
10
182.891
20
-86.1926
11
182.891
21
-100.193
0
LINE
8
BLACK
6
CONTINUOUS
10
182.891
20
-100.193
11
182.874
21
-100.235
0
LINE
8
BLACK
6
CONTINUOUS
10
182.874
20
-100.235
11
182.832
21
-100.253
0
LINE
8
BLACK
6
CONTINUOUS
10
182.832
20
-100.253
11
168.832
21
-100.253
0
LINE
8
BLACK
6
CONTINUOUS
10
168.832
20
-100.253
11
168.789
21
-100.235
0
LINE
8
BLACK
6
CONTINUOUS
10
168.891
20
-86.2526
11
168.891
21
-100.133
0
LINE
8
BLACK
6
CONTINUOUS
10
168.891
20
-100.133
11
182.772
21
-100.133
0
LINE
8
BLACK
6
CONTINUOUS
10
182.772
20
-100.133
11
182.772
21
-86.2526
0
LINE
8
BLACK
6
CONTINUOUS
10
182.772
20
-86.2526
11
168.891
21
-86.2526
0
LINE
8
BLACK
6
CONTINUOUS
10
73.5391
20
-100.235
11
73.5215
21
-100.193
0
LINE
8
BLACK
6
CONTINUOUS
10
73.5215
20
-100.193
11
73.5215
21
-86.1926
0
LINE
8
BLACK
6
CONTINUOUS
10
73.5215
20
-86.1926
11
73.5391
21
-86.1502
0
LINE
8
BLACK
6
CONTINUOUS
10
73.5391
20
-86.1502
11
73.5815
21
-86.1326
0
LINE
8
BLACK
6
CONTINUOUS
10
73.5815
20
-86.1326
11
87.5815
21
-86.1326
0
LINE
8
BLACK
6
CONTINUOUS
10
87.5815
20
-86.1326
11
87.6239
21
-86.1502
0
LINE
8
BLACK
6
CONTINUOUS
10
87.6239
20
-86.1502
11
87.6415
21
-86.1926
0
LINE
8
BLACK
6
CONTINUOUS
10
87.6415
20
-86.1926
11
87.6415
21
-100.193
0
LINE
8
BLACK
6
CONTINUOUS
10
87.6415
20
-100.193
11
87.6239
21
-100.235
0
LINE
8
BLACK
6
CONTINUOUS
10
87.6239
20
-100.235
11
87.5815
21
-100.253
0
LINE
8
BLACK
6
CONTINUOUS
10
87.5815
20
-100.253
11
73.5815
21
-100.253
0
LINE
8
BLACK
6
CONTINUOUS
10
73.5815
20
-100.253
11
73.5391
21
-100.235
0
LINE
8
BLACK
6
CONTINUOUS
10
73.6415
20
-86.2526
11
73.6415
21
-100.133
0
LINE
8
BLACK
6
CONTINUOUS
10
73.6415
20
-100.133
11
87.5215
21
-100.133
0
LINE
8
BLACK
6
CONTINUOUS
10
87.5215
20
-100.133
11
87.5215
21
-86.2526
0
LINE
8
BLACK
6
CONTINUOUS
10
87.5215
20
-86.2526
11
73.6415
21
-86.2526
0
LINE
8
BLACK
6
CONTINUOUS
10
92.5891
20
-100.235
11
92.5715
21
-100.193
0
LINE
8
BLACK
6
CONTINUOUS
10
92.5715
20
-100.193
11
92.5715
21
-86.1926
0
LINE
8
BLACK
6
CONTINUOUS
10
92.5715
20
-86.1926
11
92.5891
21
-86.1502
0
LINE
8
BLACK
6
CONTINUOUS
10
92.5891
20
-86.1502
11
92.6315
21
-86.1326
0
LINE
8
BLACK
6
CONTINUOUS
10
92.6315
20
-86.1326
11
106.632
21
-86.1326
0
LINE
8
BLACK
6
CONTINUOUS
10
106.632
20
-86.1326
11
106.674
21
-86.1502
0
LINE
8
BLACK
6
CONTINUOUS
10
106.674
20
-86.1502
11
106.692
21
-86.1926
0
LINE
8
BLACK
6
CONTINUOUS
10
106.692
20
-86.1926
11
106.692
21
-100.193
0
LINE
8
BLACK
6
CONTINUOUS
10
106.692
20
-100.193
11
106.674
21
-100.235
0
LINE
8
BLACK
6
CONTINUOUS
10
106.674
20
-100.235
11
106.632
21
-100.253
0
LINE
8
BLACK
6
CONTINUOUS
10
106.632
20
-100.253
11
92.6315
21
-100.253
0
LINE
8
BLACK
6
CONTINUOUS
10
92.6315
20
-100.253
11
92.5891
21
-100.235
0
LINE
8
BLACK
6
CONTINUOUS
10
92.6915
20
-86.2526
11
92.6915
21
-100.133
0
LINE
8
BLACK
6
CONTINUOUS
10
92.6915
20
-100.133
11
106.572
21
-100.133
0
LINE
8
BLACK
6
CONTINUOUS
10
106.572
20
-100.133
11
106.572
21
-86.2526
0
LINE
8
BLACK
6
CONTINUOUS
10
106.572
20
-86.2526
11
92.6915
21
-86.2526
0
LINE
8
BLACK
6
CONTINUOUS
10
54.4891
20
-100.235
11
54.4715
21
-100.193
0
LINE
8
BLACK
6
CONTINUOUS
10
54.4715
20
-100.193
11
54.4715
21
-86.1926
0
LINE
8
BLACK
6
CONTINUOUS
10
54.4715
20
-86.1926
11
54.4891
21
-86.1502
0
LINE
8
BLACK
6
CONTINUOUS
10
54.4891
20
-86.1502
11
54.5315
21
-86.1326
0
LINE
8
BLACK
6
CONTINUOUS
10
54.5315
20
-86.1326
11
68.5315
21
-86.1326
0
LINE
8
BLACK
6
CONTINUOUS
10
68.5315
20
-86.1326
11
68.5739
21
-86.1502
0
LINE
8
BLACK
6
CONTINUOUS
10
68.5739
20
-86.1502
11
68.5915
21
-86.1926
0
LINE
8
BLACK
6
CONTINUOUS
10
68.5915
20
-86.1926
11
68.5915
21
-100.193
0
LINE
8
BLACK
6
CONTINUOUS
10
68.5915
20
-100.193
11
68.5739
21
-100.235
0
LINE
8
BLACK
6
CONTINUOUS
10
68.5739
20
-100.235
11
68.5315
21
-100.253
0
LINE
8
BLACK
6
CONTINUOUS
10
68.5315
20
-100.253
11
54.5315
21
-100.253
0
LINE
8
BLACK
6
CONTINUOUS
10
54.5315
20
-100.253
11
54.4891
21
-100.235
0
LINE
8
BLACK
6
CONTINUOUS
10
54.5915
20
-86.2526
11
54.5915
21
-100.133
0
LINE
8
BLACK
6
CONTINUOUS
10
54.5915
20
-100.133
11
68.4715
21
-100.133
0
LINE
8
BLACK
6
CONTINUOUS
10
68.4715
20
-100.133
11
68.4715
21
-86.2526
0
LINE
8
BLACK
6
CONTINUOUS
10
68.4715
20
-86.2526
11
54.5915
21
-86.2526
0
LINE
8
BLACK
6
CONTINUOUS
10
130.689
20
-100.235
11
130.671
21
-100.193
0
LINE
8
BLACK
6
CONTINUOUS
10
130.671
20
-100.193
11
130.671
21
-86.1926
0
LINE
8
BLACK
6
CONTINUOUS
10
130.671
20
-86.1926
11
130.689
21
-86.1502
0
LINE
8
BLACK
6
CONTINUOUS
10
130.689
20
-86.1502
11
130.731
21
-86.1326
0
LINE
8
BLACK
6
CONTINUOUS
10
130.731
20
-86.1326
11
144.731
21
-86.1326
0
LINE
8
BLACK
6
CONTINUOUS
10
144.731
20
-86.1326
11
144.774
21
-86.1502
0
LINE
8
BLACK
6
CONTINUOUS
10
144.774
20
-86.1502
11
144.791
21
-86.1926
0
LINE
8
BLACK
6
CONTINUOUS
10
144.791
20
-86.1926
11
144.791
21
-100.193
0
LINE
8
BLACK
6
CONTINUOUS
10
144.791
20
-100.193
11
144.774
21
-100.235
0
LINE
8
BLACK
6
CONTINUOUS
10
144.774
20
-100.235
11
144.731
21
-100.253
0
LINE
8
BLACK
6
CONTINUOUS
10
144.731
20
-100.253
11
130.731
21
-100.253
0
LINE
8
BLACK
6
CONTINUOUS
10
130.731
20
-100.253
11
130.689
21
-100.235
0
LINE
8
BLACK
6
CONTINUOUS
10
130.791
20
-86.2526
11
130.791
21
-100.133
0
LINE
8
BLACK
6
CONTINUOUS
10
130.791
20
-100.133
11
144.671
21
-100.133
0
LINE
8
BLACK
6
CONTINUOUS
10
144.671
20
-100.133
11
144.671
21
-86.2526
0
LINE
8
BLACK
6
CONTINUOUS
10
144.671
20
-86.2526
11
130.791
21
-86.2526
0
LINE
8
BLACK
6
CONTINUOUS
10
206.889
20
-100.235
11
206.872
21
-100.193
0
LINE
8
BLACK
6
CONTINUOUS
10
206.872
20
-100.193
11
206.872
21
-86.1926
0
LINE
8
BLACK
6
CONTINUOUS
10
206.872
20
-86.1926
11
206.889
21
-86.1502
0
LINE
8
BLACK
6
CONTINUOUS
10
206.889
20
-86.1502
11
206.932
21
-86.1326
0
LINE
8
BLACK
6
CONTINUOUS
10
206.932
20
-86.1326
11
220.932
21
-86.1326
0
LINE
8
BLACK
6
CONTINUOUS
10
220.932
20
-86.1326
11
220.974
21
-86.1502
0
LINE
8
BLACK
6
CONTINUOUS
10
220.974
20
-86.1502
11
220.992
21
-86.1926
0
LINE
8
BLACK
6
CONTINUOUS
10
220.992
20
-86.1926
11
220.992
21
-100.193
0
LINE
8
BLACK
6
CONTINUOUS
10
220.992
20
-100.193
11
220.974
21
-100.235
0
LINE
8
BLACK
6
CONTINUOUS
10
220.974
20
-100.235
11
220.932
21
-100.253
0
LINE
8
BLACK
6
CONTINUOUS
10
220.932
20
-100.253
11
206.932
21
-100.253
0
LINE
8
BLACK
6
CONTINUOUS
10
206.932
20
-100.253
11
206.889
21
-100.235
0
LINE
8
BLACK
6
CONTINUOUS
10
206.992
20
-86.2526
11
206.992
21
-100.133
0
LINE
8
BLACK
6
CONTINUOUS
10
206.992
20
-100.133
11
220.872
21
-100.133
0
LINE
8
BLACK
6
CONTINUOUS
10
220.872
20
-100.133
11
220.872
21
-86.2526
0
LINE
8
BLACK
6
CONTINUOUS
10
220.872
20
-86.2526
11
206.992
21
-86.2526
0
LINE
8
BLACK
6
CONTINUOUS
10
111.639
20
-100.235
11
111.621
21
-100.193
0
LINE
8
BLACK
6
CONTINUOUS
10
111.621
20
-100.193
11
111.621
21
-86.1926
0
LINE
8
BLACK
6
CONTINUOUS
10
111.621
20
-86.1926
11
111.639
21
-86.1502
0
LINE
8
BLACK
6
CONTINUOUS
10
111.639
20
-86.1502
11
111.681
21
-86.1326
0
LINE
8
BLACK
6
CONTINUOUS
10
111.681
20
-86.1326
11
125.681
21
-86.1326
0
LINE
8
BLACK
6
CONTINUOUS
10
125.681
20
-86.1326
11
125.724
21
-86.1502
0
LINE
8
BLACK
6
CONTINUOUS
10
125.724
20
-86.1502
11
125.741
21
-86.1926
0
LINE
8
BLACK
6
CONTINUOUS
10
125.741
20
-86.1926
11
125.741
21
-100.193
0
LINE
8
BLACK
6
CONTINUOUS
10
125.741
20
-100.193
11
125.724
21
-100.235
0
LINE
8
BLACK
6
CONTINUOUS
10
125.724
20
-100.235
11
125.681
21
-100.253
0
LINE
8
BLACK
6
CONTINUOUS
10
125.681
20
-100.253
11
111.681
21
-100.253
0
LINE
8
BLACK
6
CONTINUOUS
10
111.681
20
-100.253
11
111.639
21
-100.235
0
LINE
8
BLACK
6
CONTINUOUS
10
111.742
20
-86.2526
11
111.742
21
-100.133
0
LINE
8
BLACK
6
CONTINUOUS
10
111.742
20
-100.133
11
125.621
21
-100.133
0
LINE
8
BLACK
6
CONTINUOUS
10
125.621
20
-100.133
11
125.621
21
-86.2526
0
LINE
8
BLACK
6
CONTINUOUS
10
125.621
20
-86.2526
11
111.742
21
-86.2526
0
LINE
8
BLACK
6
CONTINUOUS
10
149.739
20
-100.235
11
149.721
21
-100.193
0
LINE
8
BLACK
6
CONTINUOUS
10
149.721
20
-100.193
11
149.721
21
-86.1926
0
LINE
8
BLACK
6
CONTINUOUS
10
149.721
20
-86.1926
11
149.739
21
-86.1502
0
LINE
8
BLACK
6
CONTINUOUS
10
149.739
20
-86.1502
11
149.781
21
-86.1326
0
LINE
8
BLACK
6
CONTINUOUS
10
149.781
20
-86.1326
11
163.781
21
-86.1326
0
LINE
8
BLACK
6
CONTINUOUS
10
163.781
20
-86.1326
11
163.824
21
-86.1502
0
LINE
8
BLACK
6
CONTINUOUS
10
163.824
20
-86.1502
11
163.841
21
-86.1926
0
LINE
8
BLACK
6
CONTINUOUS
10
163.841
20
-86.1926
11
163.841
21
-100.193
0
LINE
8
BLACK
6
CONTINUOUS
10
163.841
20
-100.193
11
163.824
21
-100.235
0
LINE
8
BLACK
6
CONTINUOUS
10
163.824
20
-100.235
11
163.781
21
-100.253
0
LINE
8
BLACK
6
CONTINUOUS
10
163.781
20
-100.253
11
149.781
21
-100.253
0
LINE
8
BLACK
6
CONTINUOUS
10
149.781
20
-100.253
11
149.739
21
-100.235
0
LINE
8
BLACK
6
CONTINUOUS
10
149.841
20
-86.2526
11
149.841
21
-100.133
0
LINE
8
BLACK
6
CONTINUOUS
10
149.841
20
-100.133
11
163.721
21
-100.133
0
LINE
8
BLACK
6
CONTINUOUS
10
163.721
20
-100.133
11
163.721
21
-86.2526
0
LINE
8
BLACK
6
CONTINUOUS
10
163.721
20
-86.2526
11
149.841
21
-86.2526
0
LINE
8
BLACK
6
CONTINUOUS
10
187.839
20
-100.235
11
187.821
21
-100.193
0
LINE
8
BLACK
6
CONTINUOUS
10
187.821
20
-100.193
11
187.821
21
-86.1926
0
LINE
8
BLACK
6
CONTINUOUS
10
187.821
20
-86.1926
11
187.839
21
-86.1502
0
LINE
8
BLACK
6
CONTINUOUS
10
187.839
20
-86.1502
11
187.881
21
-86.1326
0
LINE
8
BLACK
6
CONTINUOUS
10
187.881
20
-86.1326
11
201.881
21
-86.1326
0
LINE
8
BLACK
6
CONTINUOUS
10
201.881
20
-86.1326
11
201.924
21
-86.1502
0
LINE
8
BLACK
6
CONTINUOUS
10
201.924
20
-86.1502
11
201.941
21
-86.1926
0
LINE
8
BLACK
6
CONTINUOUS
10
201.941
20
-86.1926
11
201.941
21
-100.193
0
LINE
8
BLACK
6
CONTINUOUS
10
201.941
20
-100.193
11
201.924
21
-100.235
0
LINE
8
BLACK
6
CONTINUOUS
10
201.924
20
-100.235
11
201.881
21
-100.253
0
LINE
8
BLACK
6
CONTINUOUS
10
201.881
20
-100.253
11
187.881
21
-100.253
0
LINE
8
BLACK
6
CONTINUOUS
10
187.881
20
-100.253
11
187.839
21
-100.235
0
LINE
8
BLACK
6
CONTINUOUS
10
187.941
20
-86.2526
11
187.941
21
-100.133
0
LINE
8
BLACK
6
CONTINUOUS
10
187.941
20
-100.133
11
201.821
21
-100.133
0
LINE
8
BLACK
6
CONTINUOUS
10
201.821
20
-100.133
11
201.821
21
-86.2526
0
LINE
8
BLACK
6
CONTINUOUS
10
201.821
20
-86.2526
11
187.941
21
-86.2526
0
LINE
8
BLACK
6
CONTINUOUS
10
225.939
20
-100.235
11
225.921
21
-100.193
0
LINE
8
BLACK
6
CONTINUOUS
10
225.921
20
-100.193
11
225.921
21
-86.1926
0
LINE
8
BLACK
6
CONTINUOUS
10
225.921
20
-86.1926
11
225.939
21
-86.1502
0
LINE
8
BLACK
6
CONTINUOUS
10
225.939
20
-86.1502
11
225.981
21
-86.1326
0
LINE
8
BLACK
6
CONTINUOUS
10
225.981
20
-86.1326
11
239.981
21
-86.1326
0
LINE
8
BLACK
6
CONTINUOUS
10
239.981
20
-86.1326
11
240.024
21
-86.1502
0
LINE
8
BLACK
6
CONTINUOUS
10
240.024
20
-86.1502
11
240.041
21
-86.1926
0
LINE
8
BLACK
6
CONTINUOUS
10
240.041
20
-86.1926
11
240.041
21
-100.193
0
LINE
8
BLACK
6
CONTINUOUS
10
240.041
20
-100.193
11
240.024
21
-100.235
0
LINE
8
BLACK
6
CONTINUOUS
10
240.024
20
-100.235
11
239.981
21
-100.253
0
LINE
8
BLACK
6
CONTINUOUS
10
239.981
20
-100.253
11
225.981
21
-100.253
0
LINE
8
BLACK
6
CONTINUOUS
10
225.981
20
-100.253
11
225.939
21
-100.235
0
LINE
8
BLACK
6
CONTINUOUS
10
226.041
20
-86.2526
11
226.041
21
-100.133
0
LINE
8
BLACK
6
CONTINUOUS
10
226.041
20
-100.133
11
239.921
21
-100.133
0
LINE
8
BLACK
6
CONTINUOUS
10
239.921
20
-100.133
11
239.921
21
-86.2526
0
LINE
8
BLACK
6
CONTINUOUS
10
239.921
20
-86.2526
11
226.041
21
-86.2526
0
LINE
8
BLACK
6
CONTINUOUS
10
92.5891
20
-81.185
11
92.5715
21
-81.1426
0
LINE
8
BLACK
6
CONTINUOUS
10
92.5715
20
-81.1426
11
92.5715
21
-67.1426
0
LINE
8
BLACK
6
CONTINUOUS
10
92.5715
20
-67.1426
11
92.5891
21
-67.1002
0
LINE
8
BLACK
6
CONTINUOUS
10
92.5891
20
-67.1002
11
92.6315
21
-67.0826
0
LINE
8
BLACK
6
CONTINUOUS
10
92.6315
20
-67.0826
11
106.631
21
-67.0826
0
LINE
8
BLACK
6
CONTINUOUS
10
106.631
20
-67.0826
11
106.674
21
-67.1002
0
LINE
8
BLACK
6
CONTINUOUS
10
106.674
20
-67.1002
11
106.691
21
-67.1426
0
LINE
8
BLACK
6
CONTINUOUS
10
106.691
20
-67.1426
11
106.691
21
-81.1426
0
LINE
8
BLACK
6
CONTINUOUS
10
106.691
20
-81.1426
11
106.674
21
-81.185
0
LINE
8
BLACK
6
CONTINUOUS
10
106.674
20
-81.185
11
106.631
21
-81.2026
0
LINE
8
BLACK
6
CONTINUOUS
10
106.631
20
-81.2026
11
92.6315
21
-81.2026
0
LINE
8
BLACK
6
CONTINUOUS
10
92.6315
20
-81.2026
11
92.5891
21
-81.185
0
LINE
8
BLACK
6
CONTINUOUS
10
92.6915
20
-67.2026
11
92.6915
21
-81.0826
0
LINE
8
BLACK
6
CONTINUOUS
10
92.6915
20
-81.0826
11
106.572
21
-81.0826
0
LINE
8
BLACK
6
CONTINUOUS
10
106.572
20
-81.0826
11
106.572
21
-67.2026
0
LINE
8
BLACK
6
CONTINUOUS
10
106.572
20
-67.2026
11
92.6915
21
-67.2026
0
LINE
8
BLACK
6
CONTINUOUS
10
111.639
20
-81.185
11
111.621
21
-81.1426
0
LINE
8
BLACK
6
CONTINUOUS
10
111.621
20
-81.1426
11
111.621
21
-67.1426
0
LINE
8
BLACK
6
CONTINUOUS
10
111.621
20
-67.1426
11
111.639
21
-67.1002
0
LINE
8
BLACK
6
CONTINUOUS
10
111.639
20
-67.1002
11
111.681
21
-67.0826
0
LINE
8
BLACK
6
CONTINUOUS
10
111.681
20
-67.0826
11
125.681
21
-67.0826
0
LINE
8
BLACK
6
CONTINUOUS
10
125.681
20
-67.0826
11
125.724
21
-67.1002
0
LINE
8
BLACK
6
CONTINUOUS
10
125.724
20
-67.1002
11
125.741
21
-67.1426
0
LINE
8
BLACK
6
CONTINUOUS
10
125.741
20
-67.1426
11
125.741
21
-81.1426
0
LINE
8
BLACK
6
CONTINUOUS
10
125.741
20
-81.1426
11
125.724
21
-81.185
0
LINE
8
BLACK
6
CONTINUOUS
10
125.724
20
-81.185
11
125.681
21
-81.2026
0
LINE
8
BLACK
6
CONTINUOUS
10
125.681
20
-81.2026
11
111.681
21
-81.2026
0
LINE
8
BLACK
6
CONTINUOUS
10
111.681
20
-81.2026
11
111.639
21
-81.185
0
LINE
8
BLACK
6
CONTINUOUS
10
111.742
20
-67.2026
11
111.742
21
-81.0826
0
LINE
8
BLACK
6
CONTINUOUS
10
111.742
20
-81.0826
11
125.621
21
-81.0826
0
LINE
8
BLACK
6
CONTINUOUS
10
125.621
20
-81.0826
11
125.621
21
-67.2026
0
LINE
8
BLACK
6
CONTINUOUS
10
125.621
20
-67.2026
11
111.742
21
-67.2026
0
LINE
8
BLACK
6
CONTINUOUS
10
54.4891
20
-81.185
11
54.4715
21
-81.1426
0
LINE
8
BLACK
6
CONTINUOUS
10
54.4715
20
-81.1426
11
54.4715
21
-67.1426
0
LINE
8
BLACK
6
CONTINUOUS
10
54.4715
20
-67.1426
11
54.4891
21
-67.1002
0
LINE
8
BLACK
6
CONTINUOUS
10
54.4891
20
-67.1002
11
54.5315
21
-67.0826
0
LINE
8
BLACK
6
CONTINUOUS
10
54.5315
20
-67.0826
11
68.5315
21
-67.0826
0
LINE
8
BLACK
6
CONTINUOUS
10
68.5315
20
-67.0826
11
68.5739
21
-67.1002
0
LINE
8
BLACK
6
CONTINUOUS
10
68.5739
20
-67.1002
11
68.5915
21
-67.1426
0
LINE
8
BLACK
6
CONTINUOUS
10
68.5915
20
-67.1426
11
68.5915
21
-81.1426
0
LINE
8
BLACK
6
CONTINUOUS
10
68.5915
20
-81.1426
11
68.5739
21
-81.185
0
LINE
8
BLACK
6
CONTINUOUS
10
68.5739
20
-81.185
11
68.5315
21
-81.2026
0
LINE
8
BLACK
6
CONTINUOUS
10
68.5315
20
-81.2026
11
54.5315
21
-81.2026
0
LINE
8
BLACK
6
CONTINUOUS
10
54.5315
20
-81.2026
11
54.4891
21
-81.185
0
LINE
8
BLACK
6
CONTINUOUS
10
54.5915
20
-67.2026
11
54.5915
21
-81.0826
0
LINE
8
BLACK
6
CONTINUOUS
10
54.5915
20
-81.0826
11
68.4715
21
-81.0826
0
LINE
8
BLACK
6
CONTINUOUS
10
68.4715
20
-81.0826
11
68.4715
21
-67.2026
0
LINE
8
BLACK
6
CONTINUOUS
10
68.4715
20
-67.2026
11
54.5915
21
-67.2026
0
LINE
8
BLACK
6
CONTINUOUS
10
73.5391
20
-81.185
11
73.5215
21
-81.1426
0
LINE
8
BLACK
6
CONTINUOUS
10
73.5215
20
-81.1426
11
73.5215
21
-67.1426
0
LINE
8
BLACK
6
CONTINUOUS
10
73.5215
20
-67.1426
11
73.5391
21
-67.1002
0
LINE
8
BLACK
6
CONTINUOUS
10
73.5391
20
-67.1002
11
73.5815
21
-67.0826
0
LINE
8
BLACK
6
CONTINUOUS
10
73.5815
20
-67.0826
11
87.5815
21
-67.0826
0
LINE
8
BLACK
6
CONTINUOUS
10
87.5815
20
-67.0826
11
87.6239
21
-67.1002
0
LINE
8
BLACK
6
CONTINUOUS
10
87.6239
20
-67.1002
11
87.6415
21
-67.1426
0
LINE
8
BLACK
6
CONTINUOUS
10
87.6415
20
-67.1426
11
87.6415
21
-81.1426
0
LINE
8
BLACK
6
CONTINUOUS
10
87.6415
20
-81.1426
11
87.6239
21
-81.185
0
LINE
8
BLACK
6
CONTINUOUS
10
87.6239
20
-81.185
11
87.5815
21
-81.2026
0
LINE
8
BLACK
6
CONTINUOUS
10
87.5815
20
-81.2026
11
73.5815
21
-81.2026
0
LINE
8
BLACK
6
CONTINUOUS
10
73.5815
20
-81.2026
11
73.5391
21
-81.185
0
LINE
8
BLACK
6
CONTINUOUS
10
73.6415
20
-67.2026
11
73.6415
21
-81.0826
0
LINE
8
BLACK
6
CONTINUOUS
10
73.6415
20
-81.0826
11
87.5215
21
-81.0826
0
LINE
8
BLACK
6
CONTINUOUS
10
87.5215
20
-81.0826
11
87.5215
21
-67.2026
0
LINE
8
BLACK
6
CONTINUOUS
10
87.5215
20
-67.2026
11
73.6415
21
-67.2026
0
LINE
8
BLACK
6
CONTINUOUS
10
149.739
20
-81.185
11
149.721
21
-81.1426
0
LINE
8
BLACK
6
CONTINUOUS
10
149.721
20
-81.1426
11
149.721
21
-67.1426
0
LINE
8
BLACK
6
CONTINUOUS
10
149.721
20
-67.1426
11
149.739
21
-67.1002
0
LINE
8
BLACK
6
CONTINUOUS
10
149.739
20
-67.1002
11
149.781
21
-67.0826
0
LINE
8
BLACK
6
CONTINUOUS
10
149.781
20
-67.0826
11
163.781
21
-67.0826
0
LINE
8
BLACK
6
CONTINUOUS
10
163.781
20
-67.0826
11
163.824
21
-67.1002
0
LINE
8
BLACK
6
CONTINUOUS
10
163.824
20
-67.1002
11
163.841
21
-67.1426
0
LINE
8
BLACK
6
CONTINUOUS
10
163.841
20
-67.1426
11
163.841
21
-81.1426
0
LINE
8
BLACK
6
CONTINUOUS
10
163.841
20
-81.1426
11
163.824
21
-81.185
0
LINE
8
BLACK
6
CONTINUOUS
10
163.824
20
-81.185
11
163.781
21
-81.2026
0
LINE
8
BLACK
6
CONTINUOUS
10
163.781
20
-81.2026
11
149.781
21
-81.2026
0
LINE
8
BLACK
6
CONTINUOUS
10
149.781
20
-81.2026
11
149.739
21
-81.185
0
LINE
8
BLACK
6
CONTINUOUS
10
149.841
20
-67.2026
11
149.841
21
-81.0826
0
LINE
8
BLACK
6
CONTINUOUS
10
149.841
20
-81.0826
11
163.721
21
-81.0826
0
LINE
8
BLACK
6
CONTINUOUS
10
163.721
20
-81.0826
11
163.721
21
-67.2026
0
LINE
8
BLACK
6
CONTINUOUS
10
163.721
20
-67.2026
11
149.841
21
-67.2026
0
LINE
8
BLACK
6
CONTINUOUS
10
206.889
20
-81.185
11
206.871
21
-81.1426
0
LINE
8
BLACK
6
CONTINUOUS
10
206.871
20
-81.1426
11
206.871
21
-67.1426
0
LINE
8
BLACK
6
CONTINUOUS
10
206.871
20
-67.1426
11
206.889
21
-67.1002
0
LINE
8
BLACK
6
CONTINUOUS
10
206.889
20
-67.1002
11
206.931
21
-67.0826
0
LINE
8
BLACK
6
CONTINUOUS
10
206.931
20
-67.0826
11
220.931
21
-67.0826
0
LINE
8
BLACK
6
CONTINUOUS
10
220.931
20
-67.0826
11
220.974
21
-67.1002
0
LINE
8
BLACK
6
CONTINUOUS
10
220.974
20
-67.1002
11
220.992
21
-67.1426
0
LINE
8
BLACK
6
CONTINUOUS
10
220.992
20
-67.1426
11
220.992
21
-81.1426
0
LINE
8
BLACK
6
CONTINUOUS
10
220.992
20
-81.1426
11
220.974
21
-81.185
0
LINE
8
BLACK
6
CONTINUOUS
10
220.974
20
-81.185
11
220.931
21
-81.2026
0
LINE
8
BLACK
6
CONTINUOUS
10
220.931
20
-81.2026
11
206.931
21
-81.2026
0
LINE
8
BLACK
6
CONTINUOUS
10
206.931
20
-81.2026
11
206.889
21
-81.185
0
LINE
8
BLACK
6
CONTINUOUS
10
206.992
20
-67.2026
11
206.992
21
-81.0826
0
LINE
8
BLACK
6
CONTINUOUS
10
206.992
20
-81.0826
11
220.871
21
-81.0826
0
LINE
8
BLACK
6
CONTINUOUS
10
220.871
20
-81.0826
11
220.871
21
-67.2026
0
LINE
8
BLACK
6
CONTINUOUS
10
220.871
20
-67.2026
11
206.992
21
-67.2026
0
LINE
8
BLACK
6
CONTINUOUS
10
168.789
20
-81.185
11
168.772
21
-81.1426
0
LINE
8
BLACK
6
CONTINUOUS
10
168.772
20
-81.1426
11
168.772
21
-67.1426
0
LINE
8
BLACK
6
CONTINUOUS
10
168.772
20
-67.1426
11
168.789
21
-67.1002
0
LINE
8
BLACK
6
CONTINUOUS
10
168.789
20
-67.1002
11
168.832
21
-67.0826
0
LINE
8
BLACK
6
CONTINUOUS
10
168.832
20
-67.0826
11
182.832
21
-67.0826
0
LINE
8
BLACK
6
CONTINUOUS
10
182.832
20
-67.0826
11
182.874
21
-67.1002
0
LINE
8
BLACK
6
CONTINUOUS
10
182.874
20
-67.1002
11
182.891
21
-67.1426
0
LINE
8
BLACK
6
CONTINUOUS
10
182.891
20
-67.1426
11
182.891
21
-81.1426
0
LINE
8
BLACK
6
CONTINUOUS
10
182.891
20
-81.1426
11
182.874
21
-81.185
0
LINE
8
BLACK
6
CONTINUOUS
10
182.874
20
-81.185
11
182.832
21
-81.2026
0
LINE
8
BLACK
6
CONTINUOUS
10
182.832
20
-81.2026
11
168.832
21
-81.2026
0
LINE
8
BLACK
6
CONTINUOUS
10
168.832
20
-81.2026
11
168.789
21
-81.185
0
LINE
8
BLACK
6
CONTINUOUS
10
168.891
20
-67.2026
11
168.891
21
-81.0826
0
LINE
8
BLACK
6
CONTINUOUS
10
168.891
20
-81.0826
11
182.772
21
-81.0826
0
LINE
8
BLACK
6
CONTINUOUS
10
182.772
20
-81.0826
11
182.772
21
-67.2026
0
LINE
8
BLACK
6
CONTINUOUS
10
182.772
20
-67.2026
11
168.891
21
-67.2026
0
LINE
8
BLACK
6
CONTINUOUS
10
187.839
20
-81.185
11
187.821
21
-81.1426
0
LINE
8
BLACK
6
CONTINUOUS
10
187.821
20
-81.1426
11
187.821
21
-67.1426
0
LINE
8
BLACK
6
CONTINUOUS
10
187.821
20
-67.1426
11
187.839
21
-67.1002
0
LINE
8
BLACK
6
CONTINUOUS
10
187.839
20
-67.1002
11
187.881
21
-67.0826
0
LINE
8
BLACK
6
CONTINUOUS
10
187.881
20
-67.0826
11
201.881
21
-67.0826
0
LINE
8
BLACK
6
CONTINUOUS
10
201.881
20
-67.0826
11
201.924
21
-67.1002
0
LINE
8
BLACK
6
CONTINUOUS
10
201.924
20
-67.1002
11
201.941
21
-67.1426
0
LINE
8
BLACK
6
CONTINUOUS
10
201.941
20
-67.1426
11
201.941
21
-81.1426
0
LINE
8
BLACK
6
CONTINUOUS
10
201.941
20
-81.1426
11
201.924
21
-81.185
0
LINE
8
BLACK
6
CONTINUOUS
10
201.924
20
-81.185
11
201.881
21
-81.2026
0
LINE
8
BLACK
6
CONTINUOUS
10
201.881
20
-81.2026
11
187.881
21
-81.2026
0
LINE
8
BLACK
6
CONTINUOUS
10
187.881
20
-81.2026
11
187.839
21
-81.185
0
LINE
8
BLACK
6
CONTINUOUS
10
187.941
20
-67.2026
11
187.941
21
-81.0826
0
LINE
8
BLACK
6
CONTINUOUS
10
187.941
20
-81.0826
11
201.821
21
-81.0826
0
LINE
8
BLACK
6
CONTINUOUS
10
201.821
20
-81.0826
11
201.821
21
-67.2026
0
LINE
8
BLACK
6
CONTINUOUS
10
201.821
20
-67.2026
11
187.941
21
-67.2026
0
LINE
8
BLACK
6
CONTINUOUS
10
130.689
20
-81.185
11
130.671
21
-81.1426
0
LINE
8
BLACK
6
CONTINUOUS
10
130.671
20
-81.1426
11
130.671
21
-67.1426
0
LINE
8
BLACK
6
CONTINUOUS
10
130.671
20
-67.1426
11
130.689
21
-67.1002
0
LINE
8
BLACK
6
CONTINUOUS
10
130.689
20
-67.1002
11
130.731
21
-67.0826
0
LINE
8
BLACK
6
CONTINUOUS
10
130.731
20
-67.0826
11
144.731
21
-67.0826
0
LINE
8
BLACK
6
CONTINUOUS
10
144.731
20
-67.0826
11
144.774
21
-67.1002
0
LINE
8
BLACK
6
CONTINUOUS
10
144.774
20
-67.1002
11
144.791
21
-67.1426
0
LINE
8
BLACK
6
CONTINUOUS
10
144.791
20
-67.1426
11
144.791
21
-81.1426
0
LINE
8
BLACK
6
CONTINUOUS
10
144.791
20
-81.1426
11
144.774
21
-81.185
0
LINE
8
BLACK
6
CONTINUOUS
10
144.774
20
-81.185
11
144.731
21
-81.2026
0
LINE
8
BLACK
6
CONTINUOUS
10
144.731
20
-81.2026
11
130.731
21
-81.2026
0
LINE
8
BLACK
6
CONTINUOUS
10
130.731
20
-81.2026
11
130.689
21
-81.185
0
LINE
8
BLACK
6
CONTINUOUS
10
130.791
20
-67.2026
11
130.791
21
-81.0826
0
LINE
8
BLACK
6
CONTINUOUS
10
130.791
20
-81.0826
11
144.671
21
-81.0826
0
LINE
8
BLACK
6
CONTINUOUS
10
144.671
20
-81.0826
11
144.671
21
-67.2026
0
LINE
8
BLACK
6
CONTINUOUS
10
144.671
20
-67.2026
11
130.791
21
-67.2026
0
LINE
8
BLACK
6
CONTINUOUS
10
225.939
20
-81.185
11
225.921
21
-81.1426
0
LINE
8
BLACK
6
CONTINUOUS
10
225.921
20
-81.1426
11
225.921
21
-67.1426
0
LINE
8
BLACK
6
CONTINUOUS
10
225.921
20
-67.1426
11
225.939
21
-67.1002
0
LINE
8
BLACK
6
CONTINUOUS
10
225.939
20
-67.1002
11
225.981
21
-67.0826
0
LINE
8
BLACK
6
CONTINUOUS
10
225.981
20
-67.0826
11
239.981
21
-67.0826
0
LINE
8
BLACK
6
CONTINUOUS
10
239.981
20
-67.0826
11
240.024
21
-67.1002
0
LINE
8
BLACK
6
CONTINUOUS
10
240.024
20
-67.1002
11
240.041
21
-67.1426
0
LINE
8
BLACK
6
CONTINUOUS
10
240.041
20
-67.1426
11
240.041
21
-81.1426
0
LINE
8
BLACK
6
CONTINUOUS
10
240.041
20
-81.1426
11
240.024
21
-81.185
0
LINE
8
BLACK
6
CONTINUOUS
10
240.024
20
-81.185
11
239.981
21
-81.2026
0
LINE
8
BLACK
6
CONTINUOUS
10
239.981
20
-81.2026
11
225.981
21
-81.2026
0
LINE
8
BLACK
6
CONTINUOUS
10
225.981
20
-81.2026
11
225.939
21
-81.185
0
LINE
8
BLACK
6
CONTINUOUS
10
226.041
20
-67.2026
11
226.041
21
-81.0826
0
LINE
8
BLACK
6
CONTINUOUS
10
226.041
20
-81.0826
11
239.921
21
-81.0826
0
LINE
8
BLACK
6
CONTINUOUS
10
239.921
20
-81.0826
11
239.921
21
-67.2026
0
LINE
8
BLACK
6
CONTINUOUS
10
239.921
20
-67.2026
11
226.041
21
-67.2026
0
LINE
8
BLACK
6
CONTINUOUS
10
173.701
20
-57.7569
11
173.686
21
-57.7215
0
LINE
8
BLACK
6
CONTINUOUS
10
173.686
20
-57.7215
11
173.686
21
-50.1777
0
LINE
8
BLACK
6
CONTINUOUS
10
173.686
20
-50.1777
11
173.701
21
-50.1423
0
LINE
8
BLACK
6
CONTINUOUS
10
173.701
20
-50.1423
11
173.736
21
-50.1277
0
LINE
8
BLACK
6
CONTINUOUS
10
173.736
20
-50.1277
11
183.299
21
-50.1277
0
LINE
8
BLACK
6
CONTINUOUS
10
183.299
20
-50.1277
11
183.334
21
-50.1423
0
LINE
8
BLACK
6
CONTINUOUS
10
183.334
20
-50.1423
11
183.349
21
-50.1777
0
LINE
8
BLACK
6
CONTINUOUS
10
183.349
20
-50.1777
11
183.349
21
-57.7215
0
LINE
8
BLACK
6
CONTINUOUS
10
183.349
20
-57.7215
11
183.334
21
-57.7569
0
LINE
8
BLACK
6
CONTINUOUS
10
183.334
20
-57.7569
11
183.299
21
-57.7715
0
LINE
8
BLACK
6
CONTINUOUS
10
183.299
20
-57.7715
11
173.736
21
-57.7715
0
LINE
8
BLACK
6
CONTINUOUS
10
173.736
20
-57.7715
11
173.701
21
-57.7569
0
LINE
8
BLACK
6
CONTINUOUS
10
173.786
20
-50.2277
11
173.786
21
-57.6715
0
LINE
8
BLACK
6
CONTINUOUS
10
173.786
20
-57.6715
11
183.249
21
-57.6715
0
LINE
8
BLACK
6
CONTINUOUS
10
183.249
20
-57.6715
11
183.249
21
-50.2277
0
LINE
8
BLACK
6
CONTINUOUS
10
183.249
20
-50.2277
11
173.786
21
-50.2277
0
LINE
8
BLACK
6
CONTINUOUS
10
88.9396
20
-121.52
11
89.0043
21
-121.311
0
LINE
8
BLACK
6
CONTINUOUS
10
89.0043
20
-121.311
11
89.106
21
-121.118
0
LINE
8
BLACK
6
CONTINUOUS
10
89.106
20
-121.118
11
89.2411
21
-120.946
0
LINE
8
BLACK
6
CONTINUOUS
10
89.2411
20
-120.946
11
89.4053
21
-120.802
0
LINE
8
BLACK
6
CONTINUOUS
10
89.4053
20
-120.802
11
89.5929
21
-120.691
0
LINE
8
BLACK
6
CONTINUOUS
10
89.5929
20
-120.691
11
89.7977
21
-120.615
0
LINE
8
BLACK
6
CONTINUOUS
10
89.7977
20
-120.615
11
90.0129
21
-120.578
0
LINE
8
BLACK
6
CONTINUOUS
10
90.0129
20
-120.578
11
90.2312
21
-120.581
0
LINE
8
BLACK
6
CONTINUOUS
10
90.2312
20
-120.581
11
90.4453
21
-120.624
0
LINE
8
BLACK
6
CONTINUOUS
10
90.4453
20
-120.624
11
90.6481
21
-120.705
0
LINE
8
BLACK
6
CONTINUOUS
10
90.6481
20
-120.705
11
90.8328
21
-120.821
0
LINE
8
BLACK
6
CONTINUOUS
10
90.8328
20
-120.821
11
90.9931
21
-120.969
0
LINE
8
BLACK
6
CONTINUOUS
10
90.9931
20
-120.969
11
91.1237
21
-121.144
0
LINE
8
BLACK
6
CONTINUOUS
10
91.1237
20
-121.144
11
91.2203
21
-121.34
0
LINE
8
BLACK
6
CONTINUOUS
10
91.2203
20
-121.34
11
91.2795
21
-121.55
0
LINE
8
BLACK
6
CONTINUOUS
10
91.2795
20
-121.55
11
91.2995
21
-121.768
0
LINE
8
BLACK
6
CONTINUOUS
10
91.2995
20
-121.768
11
91.2979
21
-121.83
0
LINE
8
BLACK
6
CONTINUOUS
10
91.2979
20
-121.83
11
91.2665
21
-122.046
0
LINE
8
BLACK
6
CONTINUOUS
10
91.2665
20
-122.046
11
91.1964
21
-122.253
0
LINE
8
BLACK
6
CONTINUOUS
10
91.1964
20
-122.253
11
91.0897
21
-122.443
0
LINE
8
BLACK
6
CONTINUOUS
10
91.0897
20
-122.443
11
90.9501
21
-122.611
0
LINE
8
BLACK
6
CONTINUOUS
10
90.9501
20
-122.611
11
90.7822
21
-122.751
0
LINE
8
BLACK
6
CONTINUOUS
10
90.7822
20
-122.751
11
90.5917
21
-122.857
0
LINE
8
BLACK
6
CONTINUOUS
10
90.5917
20
-122.857
11
90.385
21
-122.928
0
LINE
8
BLACK
6
CONTINUOUS
10
90.385
20
-122.928
11
90.1689
21
-122.959
0
LINE
8
BLACK
6
CONTINUOUS
10
90.1689
20
-122.959
11
89.9508
21
-122.95
0
LINE
8
BLACK
6
CONTINUOUS
10
89.9508
20
-122.95
11
89.7378
21
-122.902
0
LINE
8
BLACK
6
CONTINUOUS
10
89.7378
20
-122.902
11
89.5373
21
-122.816
0
LINE
8
BLACK
6
CONTINUOUS
10
89.5373
20
-122.816
11
89.3557
21
-122.695
0
LINE
8
BLACK
6
CONTINUOUS
10
89.3557
20
-122.695
11
89.1993
21
-122.542
0
LINE
8
BLACK
6
CONTINUOUS
10
89.1993
20
-122.542
11
89.0733
21
-122.364
0
LINE
8
BLACK
6
CONTINUOUS
10
89.0733
20
-122.364
11
88.9819
21
-122.166
0
LINE
8
BLACK
6
CONTINUOUS
10
88.9819
20
-122.166
11
88.9282
21
-121.954
0
LINE
8
BLACK
6
CONTINUOUS
10
88.9282
20
-121.954
11
88.9141
21
-121.739
0
LINE
8
BLACK
6
CONTINUOUS
10
88.9141
20
-121.739
11
88.9139
21
-121.736
0
LINE
8
BLACK
6
CONTINUOUS
10
88.9139
20
-121.736
11
88.9396
21
-121.52
0
LINE
8
BLACK
6
CONTINUOUS
10
89.0718
20
-122.134
11
89.1559
21
-122.316
0
LINE
8
BLACK
6
CONTINUOUS
10
89.1559
20
-122.316
11
89.2718
21
-122.48
0
LINE
8
BLACK
6
CONTINUOUS
10
89.2718
20
-122.48
11
89.4157
21
-122.621
0
LINE
8
BLACK
6
CONTINUOUS
10
89.4157
20
-122.621
11
89.5827
21
-122.732
0
LINE
8
BLACK
6
CONTINUOUS
10
89.5827
20
-122.732
11
89.7673
21
-122.812
0
LINE
8
BLACK
6
CONTINUOUS
10
89.7673
20
-122.812
11
89.9632
21
-122.856
0
LINE
8
BLACK
6
CONTINUOUS
10
89.9632
20
-122.856
11
90.1639
21
-122.864
0
LINE
8
BLACK
6
CONTINUOUS
10
90.1639
20
-122.864
11
90.3627
21
-122.835
0
LINE
8
BLACK
6
CONTINUOUS
10
90.3627
20
-122.835
11
90.553
21
-122.77
0
LINE
8
BLACK
6
CONTINUOUS
10
90.553
20
-122.77
11
90.7282
21
-122.672
0
LINE
8
BLACK
6
CONTINUOUS
10
90.7282
20
-122.672
11
90.8827
21
-122.544
0
LINE
8
BLACK
6
CONTINUOUS
10
90.8827
20
-122.544
11
91.0111
21
-122.389
0
LINE
8
BLACK
6
CONTINUOUS
10
91.0111
20
-122.389
11
91.1093
21
-122.214
0
LINE
8
BLACK
6
CONTINUOUS
10
91.1093
20
-122.214
11
91.1739
21
-122.024
0
LINE
8
BLACK
6
CONTINUOUS
10
91.1739
20
-122.024
11
91.2027
21
-121.825
0
LINE
8
BLACK
6
CONTINUOUS
10
91.2027
20
-121.825
11
91.2042
21
-121.768
0
LINE
8
BLACK
6
CONTINUOUS
10
91.2042
20
-121.768
11
91.1858
21
-121.568
0
LINE
8
BLACK
6
CONTINUOUS
10
91.1858
20
-121.568
11
91.1313
21
-121.374
0
LINE
8
BLACK
6
CONTINUOUS
10
91.1313
20
-121.374
11
91.0424
21
-121.194
0
LINE
8
BLACK
6
CONTINUOUS
10
91.0424
20
-121.194
11
90.9222
21
-121.033
0
LINE
8
BLACK
6
CONTINUOUS
10
90.9222
20
-121.033
11
90.7747
21
-120.897
0
LINE
8
BLACK
6
CONTINUOUS
10
90.7747
20
-120.897
11
90.6048
21
-120.79
0
LINE
8
BLACK
6
CONTINUOUS
10
90.6048
20
-120.79
11
90.4183
21
-120.715
0
LINE
8
BLACK
6
CONTINUOUS
10
90.4183
20
-120.715
11
90.2212
21
-120.676
0
LINE
8
BLACK
6
CONTINUOUS
10
90.2212
20
-120.676
11
90.0204
21
-120.673
0
LINE
8
BLACK
6
CONTINUOUS
10
90.0204
20
-120.673
11
89.8224
21
-120.707
0
LINE
8
BLACK
6
CONTINUOUS
10
89.8224
20
-120.707
11
89.6339
21
-120.777
0
LINE
8
BLACK
6
CONTINUOUS
10
89.6339
20
-120.777
11
89.4613
21
-120.88
0
LINE
8
BLACK
6
CONTINUOUS
10
89.4613
20
-120.88
11
89.3103
21
-121.012
0
LINE
8
BLACK
6
CONTINUOUS
10
89.3103
20
-121.012
11
89.1859
21
-121.17
0
LINE
8
BLACK
6
CONTINUOUS
10
89.1859
20
-121.17
11
89.0924
21
-121.348
0
LINE
8
BLACK
6
CONTINUOUS
10
89.0924
20
-121.348
11
89.0328
21
-121.539
0
LINE
8
BLACK
6
CONTINUOUS
10
89.0328
20
-121.539
11
89.0092
21
-121.739
0
LINE
8
BLACK
6
CONTINUOUS
10
89.0092
20
-121.739
11
89.0223
21
-121.939
0
LINE
8
BLACK
6
CONTINUOUS
10
89.0223
20
-121.939
11
89.0718
21
-122.134
0
LINE
8
BLACK
6
CONTINUOUS
10
203.24
20
-121.52
11
203.304
21
-121.311
0
LINE
8
BLACK
6
CONTINUOUS
10
203.304
20
-121.311
11
203.406
21
-121.118
0
LINE
8
BLACK
6
CONTINUOUS
10
203.406
20
-121.118
11
203.541
21
-120.946
0
LINE
8
BLACK
6
CONTINUOUS
10
203.541
20
-120.946
11
203.705
21
-120.802
0
LINE
8
BLACK
6
CONTINUOUS
10
203.705
20
-120.802
11
203.893
21
-120.691
0
LINE
8
BLACK
6
CONTINUOUS
10
203.893
20
-120.691
11
204.098
21
-120.615
0
LINE
8
BLACK
6
CONTINUOUS
10
204.098
20
-120.615
11
204.313
21
-120.578
0
LINE
8
BLACK
6
CONTINUOUS
10
204.313
20
-120.578
11
204.531
21
-120.581
0
LINE
8
BLACK
6
CONTINUOUS
10
204.531
20
-120.581
11
204.745
21
-120.624
0
LINE
8
BLACK
6
CONTINUOUS
10
204.745
20
-120.624
11
204.948
21
-120.705
0
LINE
8
BLACK
6
CONTINUOUS
10
204.948
20
-120.705
11
205.133
21
-120.821
0
LINE
8
BLACK
6
CONTINUOUS
10
205.133
20
-120.821
11
205.293
21
-120.969
0
LINE
8
BLACK
6
CONTINUOUS
10
205.293
20
-120.969
11
205.424
21
-121.144
0
LINE
8
BLACK
6
CONTINUOUS
10
205.424
20
-121.144
11
205.52
21
-121.34
0
LINE
8
BLACK
6
CONTINUOUS
10
205.52
20
-121.34
11
205.58
21
-121.55
0
LINE
8
BLACK
6
CONTINUOUS
10
205.58
20
-121.55
11
205.599
21
-121.768
0
LINE
8
BLACK
6
CONTINUOUS
10
205.599
20
-121.768
11
205.598
21
-121.83
0
LINE
8
BLACK
6
CONTINUOUS
10
205.598
20
-121.83
11
205.567
21
-122.046
0
LINE
8
BLACK
6
CONTINUOUS
10
205.567
20
-122.046
11
205.496
21
-122.253
0
LINE
8
BLACK
6
CONTINUOUS
10
205.496
20
-122.253
11
205.39
21
-122.443
0
LINE
8
BLACK
6
CONTINUOUS
10
205.39
20
-122.443
11
205.25
21
-122.611
0
LINE
8
BLACK
6
CONTINUOUS
10
205.25
20
-122.611
11
205.082
21
-122.751
0
LINE
8
BLACK
6
CONTINUOUS
10
205.082
20
-122.751
11
204.892
21
-122.857
0
LINE
8
BLACK
6
CONTINUOUS
10
204.892
20
-122.857
11
204.685
21
-122.928
0
LINE
8
BLACK
6
CONTINUOUS
10
204.685
20
-122.928
11
204.469
21
-122.959
0
LINE
8
BLACK
6
CONTINUOUS
10
204.469
20
-122.959
11
204.251
21
-122.95
0
LINE
8
BLACK
6
CONTINUOUS
10
204.251
20
-122.95
11
204.038
21
-122.902
0
LINE
8
BLACK
6
CONTINUOUS
10
204.038
20
-122.902
11
203.837
21
-122.816
0
LINE
8
BLACK
6
CONTINUOUS
10
203.837
20
-122.816
11
203.656
21
-122.695
0
LINE
8
BLACK
6
CONTINUOUS
10
203.656
20
-122.695
11
203.499
21
-122.542
0
LINE
8
BLACK
6
CONTINUOUS
10
203.499
20
-122.542
11
203.373
21
-122.364
0
LINE
8
BLACK
6
CONTINUOUS
10
203.373
20
-122.364
11
203.282
21
-122.166
0
LINE
8
BLACK
6
CONTINUOUS
10
203.282
20
-122.166
11
203.228
21
-121.954
0
LINE
8
BLACK
6
CONTINUOUS
10
203.228
20
-121.954
11
203.214
21
-121.739
0
LINE
8
BLACK
6
CONTINUOUS
10
203.214
20
-121.739
11
203.214
21
-121.736
0
LINE
8
BLACK
6
CONTINUOUS
10
203.214
20
-121.736
11
203.24
21
-121.52
0
LINE
8
BLACK
6
CONTINUOUS
10
203.372
20
-122.134
11
203.456
21
-122.316
0
LINE
8
BLACK
6
CONTINUOUS
10
203.456
20
-122.316
11
203.572
21
-122.48
0
LINE
8
BLACK
6
CONTINUOUS
10
203.572
20
-122.48
11
203.716
21
-122.621
0
LINE
8
BLACK
6
CONTINUOUS
10
203.716
20
-122.621
11
203.883
21
-122.732
0
LINE
8
BLACK
6
CONTINUOUS
10
203.883
20
-122.732
11
204.067
21
-122.812
0
LINE
8
BLACK
6
CONTINUOUS
10
204.067
20
-122.812
11
204.263
21
-122.856
0
LINE
8
BLACK
6
CONTINUOUS
10
204.263
20
-122.856
11
204.464
21
-122.864
0
LINE
8
BLACK
6
CONTINUOUS
10
204.464
20
-122.864
11
204.663
21
-122.835
0
LINE
8
BLACK
6
CONTINUOUS
10
204.663
20
-122.835
11
204.853
21
-122.77
0
LINE
8
BLACK
6
CONTINUOUS
10
204.853
20
-122.77
11
205.028
21
-122.672
0
LINE
8
BLACK
6
CONTINUOUS
10
205.028
20
-122.672
11
205.183
21
-122.544
0
LINE
8
BLACK
6
CONTINUOUS
10
205.183
20
-122.544
11
205.311
21
-122.389
0
LINE
8
BLACK
6
CONTINUOUS
10
205.311
20
-122.389
11
205.409
21
-122.214
0
LINE
8
BLACK
6
CONTINUOUS
10
205.409
20
-122.214
11
205.474
21
-122.024
0
LINE
8
BLACK
6
CONTINUOUS
10
205.474
20
-122.024
11
205.503
21
-121.825
0
LINE
8
BLACK
6
CONTINUOUS
10
205.503
20
-121.825
11
205.504
21
-121.768
0
LINE
8
BLACK
6
CONTINUOUS
10
205.504
20
-121.768
11
205.486
21
-121.568
0
LINE
8
BLACK
6
CONTINUOUS
10
205.486
20
-121.568
11
205.431
21
-121.374
0
LINE
8
BLACK
6
CONTINUOUS
10
205.431
20
-121.374
11
205.342
21
-121.194
0
LINE
8
BLACK
6
CONTINUOUS
10
205.342
20
-121.194
11
205.222
21
-121.033
0
LINE
8
BLACK
6
CONTINUOUS
10
205.222
20
-121.033
11
205.075
21
-120.897
0
LINE
8
BLACK
6
CONTINUOUS
10
205.075
20
-120.897
11
204.905
21
-120.79
0
LINE
8
BLACK
6
CONTINUOUS
10
204.905
20
-120.79
11
204.718
21
-120.715
0
LINE
8
BLACK
6
CONTINUOUS
10
204.718
20
-120.715
11
204.521
21
-120.676
0
LINE
8
BLACK
6
CONTINUOUS
10
204.521
20
-120.676
11
204.32
21
-120.673
0
LINE
8
BLACK
6
CONTINUOUS
10
204.32
20
-120.673
11
204.122
21
-120.707
0
LINE
8
BLACK
6
CONTINUOUS
10
204.122
20
-120.707
11
203.934
21
-120.777
0
LINE
8
BLACK
6
CONTINUOUS
10
203.934
20
-120.777
11
203.761
21
-120.88
0
LINE
8
BLACK
6
CONTINUOUS
10
203.761
20
-120.88
11
203.61
21
-121.012
0
LINE
8
BLACK
6
CONTINUOUS
10
203.61
20
-121.012
11
203.486
21
-121.17
0
LINE
8
BLACK
6
CONTINUOUS
10
203.486
20
-121.17
11
203.392
21
-121.348
0
LINE
8
BLACK
6
CONTINUOUS
10
203.392
20
-121.348
11
203.333
21
-121.539
0
LINE
8
BLACK
6
CONTINUOUS
10
203.333
20
-121.539
11
203.309
21
-121.739
0
LINE
8
BLACK
6
CONTINUOUS
10
203.309
20
-121.739
11
203.322
21
-121.939
0
LINE
8
BLACK
6
CONTINUOUS
10
203.322
20
-121.939
11
203.372
21
-122.134
0
LINE
8
BLACK
6
CONTINUOUS
10
146.09
20
-102.47
11
146.154
21
-102.261
0
LINE
8
BLACK
6
CONTINUOUS
10
146.154
20
-102.261
11
146.256
21
-102.068
0
LINE
8
BLACK
6
CONTINUOUS
10
146.256
20
-102.068
11
146.391
21
-101.896
0
LINE
8
BLACK
6
CONTINUOUS
10
146.391
20
-101.896
11
146.555
21
-101.752
0
LINE
8
BLACK
6
CONTINUOUS
10
146.555
20
-101.752
11
146.743
21
-101.641
0
LINE
8
BLACK
6
CONTINUOUS
10
146.743
20
-101.641
11
146.948
21
-101.565
0
LINE
8
BLACK
6
CONTINUOUS
10
146.948
20
-101.565
11
147.163
21
-101.528
0
LINE
8
BLACK
6
CONTINUOUS
10
147.163
20
-101.528
11
147.381
21
-101.531
0
LINE
8
BLACK
6
CONTINUOUS
10
147.381
20
-101.531
11
147.595
21
-101.574
0
LINE
8
BLACK
6
CONTINUOUS
10
147.595
20
-101.574
11
147.798
21
-101.655
0
LINE
8
BLACK
6
CONTINUOUS
10
147.798
20
-101.655
11
147.983
21
-101.771
0
LINE
8
BLACK
6
CONTINUOUS
10
147.983
20
-101.771
11
148.143
21
-101.919
0
LINE
8
BLACK
6
CONTINUOUS
10
148.143
20
-101.919
11
148.274
21
-102.094
0
LINE
8
BLACK
6
CONTINUOUS
10
148.274
20
-102.094
11
148.37
21
-102.29
0
LINE
8
BLACK
6
CONTINUOUS
10
148.37
20
-102.29
11
148.43
21
-102.5
0
LINE
8
BLACK
6
CONTINUOUS
10
148.43
20
-102.5
11
148.45
21
-102.718
0
LINE
8
BLACK
6
CONTINUOUS
10
148.45
20
-102.718
11
148.448
21
-102.78
0
LINE
8
BLACK
6
CONTINUOUS
10
148.448
20
-102.78
11
148.417
21
-102.996
0
LINE
8
BLACK
6
CONTINUOUS
10
148.417
20
-102.996
11
148.346
21
-103.203
0
LINE
8
BLACK
6
CONTINUOUS
10
148.346
20
-103.203
11
148.24
21
-103.393
0
LINE
8
BLACK
6
CONTINUOUS
10
148.24
20
-103.393
11
148.1
21
-103.561
0
LINE
8
BLACK
6
CONTINUOUS
10
148.1
20
-103.561
11
147.932
21
-103.701
0
LINE
8
BLACK
6
CONTINUOUS
10
147.932
20
-103.701
11
147.742
21
-103.807
0
LINE
8
BLACK
6
CONTINUOUS
10
147.742
20
-103.807
11
147.535
21
-103.878
0
LINE
8
BLACK
6
CONTINUOUS
10
147.535
20
-103.878
11
147.319
21
-103.909
0
LINE
8
BLACK
6
CONTINUOUS
10
147.319
20
-103.909
11
147.101
21
-103.9
0
LINE
8
BLACK
6
CONTINUOUS
10
147.101
20
-103.9
11
146.888
21
-103.852
0
LINE
8
BLACK
6
CONTINUOUS
10
146.888
20
-103.852
11
146.687
21
-103.766
0
LINE
8
BLACK
6
CONTINUOUS
10
146.687
20
-103.766
11
146.506
21
-103.645
0
LINE
8
BLACK
6
CONTINUOUS
10
146.506
20
-103.645
11
146.349
21
-103.492
0
LINE
8
BLACK
6
CONTINUOUS
10
146.349
20
-103.492
11
146.223
21
-103.314
0
LINE
8
BLACK
6
CONTINUOUS
10
146.223
20
-103.314
11
146.132
21
-103.116
0
LINE
8
BLACK
6
CONTINUOUS
10
146.132
20
-103.116
11
146.078
21
-102.904
0
LINE
8
BLACK
6
CONTINUOUS
10
146.078
20
-102.904
11
146.064
21
-102.689
0
LINE
8
BLACK
6
CONTINUOUS
10
146.064
20
-102.689
11
146.064
21
-102.686
0
LINE
8
BLACK
6
CONTINUOUS
10
146.064
20
-102.686
11
146.09
21
-102.47
0
LINE
8
BLACK
6
CONTINUOUS
10
146.222
20
-103.084
11
146.306
21
-103.266
0
LINE
8
BLACK
6
CONTINUOUS
10
146.306
20
-103.266
11
146.422
21
-103.43
0
LINE
8
BLACK
6
CONTINUOUS
10
146.422
20
-103.43
11
146.566
21
-103.571
0
LINE
8
BLACK
6
CONTINUOUS
10
146.566
20
-103.571
11
146.733
21
-103.682
0
LINE
8
BLACK
6
CONTINUOUS
10
146.733
20
-103.682
11
146.917
21
-103.762
0
LINE
8
BLACK
6
CONTINUOUS
10
146.917
20
-103.762
11
147.113
21
-103.806
0
LINE
8
BLACK
6
CONTINUOUS
10
147.113
20
-103.806
11
147.314
21
-103.814
0
LINE
8
BLACK
6
CONTINUOUS
10
147.314
20
-103.814
11
147.513
21
-103.785
0
LINE
8
BLACK
6
CONTINUOUS
10
147.513
20
-103.785
11
147.703
21
-103.72
0
LINE
8
BLACK
6
CONTINUOUS
10
147.703
20
-103.72
11
147.878
21
-103.622
0
LINE
8
BLACK
6
CONTINUOUS
10
147.878
20
-103.622
11
148.033
21
-103.494
0
LINE
8
BLACK
6
CONTINUOUS
10
148.033
20
-103.494
11
148.161
21
-103.339
0
LINE
8
BLACK
6
CONTINUOUS
10
148.161
20
-103.339
11
148.259
21
-103.164
0
LINE
8
BLACK
6
CONTINUOUS
10
148.259
20
-103.164
11
148.324
21
-102.974
0
LINE
8
BLACK
6
CONTINUOUS
10
148.324
20
-102.974
11
148.353
21
-102.775
0
LINE
8
BLACK
6
CONTINUOUS
10
148.353
20
-102.775
11
148.354
21
-102.718
0
LINE
8
BLACK
6
CONTINUOUS
10
148.354
20
-102.718
11
148.336
21
-102.518
0
LINE
8
BLACK
6
CONTINUOUS
10
148.336
20
-102.518
11
148.281
21
-102.324
0
LINE
8
BLACK
6
CONTINUOUS
10
148.281
20
-102.324
11
148.192
21
-102.144
0
LINE
8
BLACK
6
CONTINUOUS
10
148.192
20
-102.144
11
148.072
21
-101.983
0
LINE
8
BLACK
6
CONTINUOUS
10
148.072
20
-101.983
11
147.925
21
-101.847
0
LINE
8
BLACK
6
CONTINUOUS
10
147.925
20
-101.847
11
147.755
21
-101.74
0
LINE
8
BLACK
6
CONTINUOUS
10
147.755
20
-101.74
11
147.568
21
-101.665
0
LINE
8
BLACK
6
CONTINUOUS
10
147.568
20
-101.665
11
147.371
21
-101.626
0
LINE
8
BLACK
6
CONTINUOUS
10
147.371
20
-101.626
11
147.17
21
-101.623
0
LINE
8
BLACK
6
CONTINUOUS
10
147.17
20
-101.623
11
146.972
21
-101.657
0
LINE
8
BLACK
6
CONTINUOUS
10
146.972
20
-101.657
11
146.784
21
-101.727
0
LINE
8
BLACK
6
CONTINUOUS
10
146.784
20
-101.727
11
146.611
21
-101.83
0
LINE
8
BLACK
6
CONTINUOUS
10
146.611
20
-101.83
11
146.46
21
-101.962
0
LINE
8
BLACK
6
CONTINUOUS
10
146.46
20
-101.962
11
146.336
21
-102.12
0
LINE
8
BLACK
6
CONTINUOUS
10
146.336
20
-102.12
11
146.242
21
-102.298
0
LINE
8
BLACK
6
CONTINUOUS
10
146.242
20
-102.298
11
146.183
21
-102.489
0
LINE
8
BLACK
6
CONTINUOUS
10
146.183
20
-102.489
11
146.159
21
-102.689
0
LINE
8
BLACK
6
CONTINUOUS
10
146.159
20
-102.689
11
146.172
21
-102.889
0
LINE
8
BLACK
6
CONTINUOUS
10
146.172
20
-102.889
11
146.222
21
-103.084
0
LINE
8
BLACK
6
CONTINUOUS
10
88.9396
20
-83.4196
11
89.0043
21
-83.2111
0
LINE
8
BLACK
6
CONTINUOUS
10
89.0043
20
-83.2111
11
89.106
21
-83.0178
0
LINE
8
BLACK
6
CONTINUOUS
10
89.106
20
-83.0178
11
89.2411
21
-82.8464
0
LINE
8
BLACK
6
CONTINUOUS
10
89.2411
20
-82.8464
11
89.4053
21
-82.7024
0
LINE
8
BLACK
6
CONTINUOUS
10
89.4053
20
-82.7024
11
89.5929
21
-82.5908
0
LINE
8
BLACK
6
CONTINUOUS
10
89.5929
20
-82.5908
11
89.7977
21
-82.5152
0
LINE
8
BLACK
6
CONTINUOUS
10
89.7977
20
-82.5152
11
90.0129
21
-82.4783
0
LINE
8
BLACK
6
CONTINUOUS
10
90.0129
20
-82.4783
11
90.2312
21
-82.4811
0
LINE
8
BLACK
6
CONTINUOUS
10
90.2312
20
-82.4811
11
90.4453
21
-82.5237
0
LINE
8
BLACK
6
CONTINUOUS
10
90.4453
20
-82.5237
11
90.6481
21
-82.6046
0
LINE
8
BLACK
6
CONTINUOUS
10
90.6481
20
-82.6046
11
90.8328
21
-82.7211
0
LINE
8
BLACK
6
CONTINUOUS
10
90.8328
20
-82.7211
11
90.9931
21
-82.8693
0
LINE
8
BLACK
6
CONTINUOUS
10
90.9931
20
-82.8693
11
91.1237
21
-83.0443
0
LINE
8
BLACK
6
CONTINUOUS
10
91.1237
20
-83.0443
11
91.2203
21
-83.2401
0
LINE
8
BLACK
6
CONTINUOUS
10
91.2203
20
-83.2401
11
91.2795
21
-83.4502
0
LINE
8
BLACK
6
CONTINUOUS
10
91.2795
20
-83.4502
11
91.2995
21
-83.6676
0
LINE
8
BLACK
6
CONTINUOUS
10
91.2995
20
-83.6676
11
91.2979
21
-83.73
0
LINE
8
BLACK
6
CONTINUOUS
10
91.2979
20
-83.73
11
91.2665
21
-83.9461
0
LINE
8
BLACK
6
CONTINUOUS
10
91.2665
20
-83.9461
11
91.1964
21
-84.1528
0
LINE
8
BLACK
6
CONTINUOUS
10
91.1964
20
-84.1528
11
91.0897
21
-84.3433
0
LINE
8
BLACK
6
CONTINUOUS
10
91.0897
20
-84.3433
11
90.9501
21
-84.5112
0
LINE
8
BLACK
6
CONTINUOUS
10
90.9501
20
-84.5112
11
90.7822
21
-84.6508
0
LINE
8
BLACK
6
CONTINUOUS
10
90.7822
20
-84.6508
11
90.5917
21
-84.7575
0
LINE
8
BLACK
6
CONTINUOUS
10
90.5917
20
-84.7575
11
90.385
21
-84.8276
0
LINE
8
BLACK
6
CONTINUOUS
10
90.385
20
-84.8276
11
90.1689
21
-84.859
0
LINE
8
BLACK
6
CONTINUOUS
10
90.1689
20
-84.859
11
89.9508
21
-84.8504
0
LINE
8
BLACK
6
CONTINUOUS
10
89.9508
20
-84.8504
11
89.7378
21
-84.8022
0
LINE
8
BLACK
6
CONTINUOUS
10
89.7378
20
-84.8022
11
89.5373
21
-84.716
0
LINE
8
BLACK
6
CONTINUOUS
10
89.5373
20
-84.716
11
89.3557
21
-84.5947
0
LINE
8
BLACK
6
CONTINUOUS
10
89.3557
20
-84.5947
11
89.1993
21
-84.4424
0
LINE
8
BLACK
6
CONTINUOUS
10
89.1993
20
-84.4424
11
89.0733
21
-84.2641
0
LINE
8
BLACK
6
CONTINUOUS
10
89.0733
20
-84.2641
11
88.9819
21
-84.0658
0
LINE
8
BLACK
6
CONTINUOUS
10
88.9819
20
-84.0658
11
88.9282
21
-83.8542
0
LINE
8
BLACK
6
CONTINUOUS
10
88.9282
20
-83.8542
11
88.9141
21
-83.6389
0
LINE
8
BLACK
6
CONTINUOUS
10
88.9141
20
-83.6389
11
88.9139
21
-83.6364
0
LINE
8
BLACK
6
CONTINUOUS
10
88.9139
20
-83.6364
11
88.9396
21
-83.4196
0
LINE
8
BLACK
6
CONTINUOUS
10
89.0718
20
-84.034
11
89.1559
21
-84.2164
0
LINE
8
BLACK
6
CONTINUOUS
10
89.1559
20
-84.2164
11
89.2718
21
-84.3805
0
LINE
8
BLACK
6
CONTINUOUS
10
89.2718
20
-84.3805
11
89.4157
21
-84.5207
0
LINE
8
BLACK
6
CONTINUOUS
10
89.4157
20
-84.5207
11
89.5827
21
-84.6323
0
LINE
8
BLACK
6
CONTINUOUS
10
89.5827
20
-84.6323
11
89.7673
21
-84.7116
0
LINE
8
BLACK
6
CONTINUOUS
10
89.7673
20
-84.7116
11
89.9632
21
-84.7559
0
LINE
8
BLACK
6
CONTINUOUS
10
89.9632
20
-84.7559
11
90.1639
21
-84.7638
0
LINE
8
BLACK
6
CONTINUOUS
10
90.1639
20
-84.7638
11
90.3627
21
-84.735
0
LINE
8
BLACK
6
CONTINUOUS
10
90.3627
20
-84.735
11
90.553
21
-84.6704
0
LINE
8
BLACK
6
CONTINUOUS
10
90.553
20
-84.6704
11
90.7282
21
-84.5722
0
LINE
8
BLACK
6
CONTINUOUS
10
90.7282
20
-84.5722
11
90.8827
21
-84.4438
0
LINE
8
BLACK
6
CONTINUOUS
10
90.8827
20
-84.4438
11
91.0111
21
-84.2893
0
LINE
8
BLACK
6
CONTINUOUS
10
91.0111
20
-84.2893
11
91.1093
21
-84.1141
0
LINE
8
BLACK
6
CONTINUOUS
10
91.1093
20
-84.1141
11
91.1739
21
-83.9238
0
LINE
8
BLACK
6
CONTINUOUS
10
91.1739
20
-83.9238
11
91.2027
21
-83.725
0
LINE
8
BLACK
6
CONTINUOUS
10
91.2027
20
-83.725
11
91.2042
21
-83.6676
0
LINE
8
BLACK
6
CONTINUOUS
10
91.2042
20
-83.6676
11
91.1858
21
-83.4676
0
LINE
8
BLACK
6
CONTINUOUS
10
91.1858
20
-83.4676
11
91.1313
21
-83.2742
0
LINE
8
BLACK
6
CONTINUOUS
10
91.1313
20
-83.2742
11
91.0424
21
-83.0941
0
LINE
8
BLACK
6
CONTINUOUS
10
91.0424
20
-83.0941
11
90.9222
21
-82.9331
0
LINE
8
BLACK
6
CONTINUOUS
10
90.9222
20
-82.9331
11
90.7747
21
-82.7968
0
LINE
8
BLACK
6
CONTINUOUS
10
90.7747
20
-82.7968
11
90.6048
21
-82.6896
0
LINE
8
BLACK
6
CONTINUOUS
10
90.6048
20
-82.6896
11
90.4183
21
-82.6151
0
LINE
8
BLACK
6
CONTINUOUS
10
90.4183
20
-82.6151
11
90.2212
21
-82.5759
0
LINE
8
BLACK
6
CONTINUOUS
10
90.2212
20
-82.5759
11
90.0204
21
-82.5733
0
LINE
8
BLACK
6
CONTINUOUS
10
90.0204
20
-82.5733
11
89.8224
21
-82.6073
0
LINE
8
BLACK
6
CONTINUOUS
10
89.8224
20
-82.6073
11
89.6339
21
-82.6768
0
LINE
8
BLACK
6
CONTINUOUS
10
89.6339
20
-82.6768
11
89.4613
21
-82.7796
0
LINE
8
BLACK
6
CONTINUOUS
10
89.4613
20
-82.7796
11
89.3103
21
-82.912
0
LINE
8
BLACK
6
CONTINUOUS
10
89.3103
20
-82.912
11
89.1859
21
-83.0698
0
LINE
8
BLACK
6
CONTINUOUS
10
89.1859
20
-83.0698
11
89.0924
21
-83.2475
0
LINE
8
BLACK
6
CONTINUOUS
10
89.0924
20
-83.2475
11
89.0328
21
-83.4394
0
LINE
8
BLACK
6
CONTINUOUS
10
89.0328
20
-83.4394
11
89.0092
21
-83.6389
0
LINE
8
BLACK
6
CONTINUOUS
10
89.0092
20
-83.6389
11
89.0223
21
-83.8393
0
LINE
8
BLACK
6
CONTINUOUS
10
89.0223
20
-83.8393
11
89.0718
21
-84.034
0
LINE
8
BLACK
6
CONTINUOUS
10
203.24
20
-83.4196
11
203.304
21
-83.2111
0
LINE
8
BLACK
6
CONTINUOUS
10
203.304
20
-83.2111
11
203.406
21
-83.0178
0
LINE
8
BLACK
6
CONTINUOUS
10
203.406
20
-83.0178
11
203.541
21
-82.8464
0
LINE
8
BLACK
6
CONTINUOUS
10
203.541
20
-82.8464
11
203.705
21
-82.7024
0
LINE
8
BLACK
6
CONTINUOUS
10
203.705
20
-82.7024
11
203.893
21
-82.5908
0
LINE
8
BLACK
6
CONTINUOUS
10
203.893
20
-82.5908
11
204.098
21
-82.5152
0
LINE
8
BLACK
6
CONTINUOUS
10
204.098
20
-82.5152
11
204.313
21
-82.4783
0
LINE
8
BLACK
6
CONTINUOUS
10
204.313
20
-82.4783
11
204.531
21
-82.4811
0
LINE
8
BLACK
6
CONTINUOUS
10
204.531
20
-82.4811
11
204.745
21
-82.5237
0
LINE
8
BLACK
6
CONTINUOUS
10
204.745
20
-82.5237
11
204.948
21
-82.6046
0
LINE
8
BLACK
6
CONTINUOUS
10
204.948
20
-82.6046
11
205.133
21
-82.7211
0
LINE
8
BLACK
6
CONTINUOUS
10
205.133
20
-82.7211
11
205.293
21
-82.8693
0
LINE
8
BLACK
6
CONTINUOUS
10
205.293
20
-82.8693
11
205.424
21
-83.0443
0
LINE
8
BLACK
6
CONTINUOUS
10
205.424
20
-83.0443
11
205.52
21
-83.2401
0
LINE
8
BLACK
6
CONTINUOUS
10
205.52
20
-83.2401
11
205.58
21
-83.4502
0
LINE
8
BLACK
6
CONTINUOUS
10
205.58
20
-83.4502
11
205.599
21
-83.6676
0
LINE
8
BLACK
6
CONTINUOUS
10
205.599
20
-83.6676
11
205.598
21
-83.73
0
LINE
8
BLACK
6
CONTINUOUS
10
205.598
20
-83.73
11
205.567
21
-83.9461
0
LINE
8
BLACK
6
CONTINUOUS
10
205.567
20
-83.9461
11
205.496
21
-84.1528
0
LINE
8
BLACK
6
CONTINUOUS
10
205.496
20
-84.1528
11
205.39
21
-84.3433
0
LINE
8
BLACK
6
CONTINUOUS
10
205.39
20
-84.3433
11
205.25
21
-84.5112
0
LINE
8
BLACK
6
CONTINUOUS
10
205.25
20
-84.5112
11
205.082
21
-84.6508
0
LINE
8
BLACK
6
CONTINUOUS
10
205.082
20
-84.6508
11
204.892
21
-84.7575
0
LINE
8
BLACK
6
CONTINUOUS
10
204.892
20
-84.7575
11
204.685
21
-84.8276
0
LINE
8
BLACK
6
CONTINUOUS
10
204.685
20
-84.8276
11
204.469
21
-84.859
0
LINE
8
BLACK
6
CONTINUOUS
10
204.469
20
-84.859
11
204.251
21
-84.8504
0
LINE
8
BLACK
6
CONTINUOUS
10
204.251
20
-84.8504
11
204.038
21
-84.8022
0
LINE
8
BLACK
6
CONTINUOUS
10
204.038
20
-84.8022
11
203.837
21
-84.716
0
LINE
8
BLACK
6
CONTINUOUS
10
203.837
20
-84.716
11
203.656
21
-84.5947
0
LINE
8
BLACK
6
CONTINUOUS
10
203.656
20
-84.5947
11
203.499
21
-84.4424
0
LINE
8
BLACK
6
CONTINUOUS
10
203.499
20
-84.4424
11
203.373
21
-84.2641
0
LINE
8
BLACK
6
CONTINUOUS
10
203.373
20
-84.2641
11
203.282
21
-84.0658
0
LINE
8
BLACK
6
CONTINUOUS
10
203.282
20
-84.0658
11
203.228
21
-83.8542
0
LINE
8
BLACK
6
CONTINUOUS
10
203.228
20
-83.8542
11
203.214
21
-83.6389
0
LINE
8
BLACK
6
CONTINUOUS
10
203.214
20
-83.6389
11
203.214
21
-83.6364
0
LINE
8
BLACK
6
CONTINUOUS
10
203.214
20
-83.6364
11
203.24
21
-83.4196
0
LINE
8
BLACK
6
CONTINUOUS
10
203.372
20
-84.034
11
203.456
21
-84.2164
0
LINE
8
BLACK
6
CONTINUOUS
10
203.456
20
-84.2164
11
203.572
21
-84.3805
0
LINE
8
BLACK
6
CONTINUOUS
10
203.572
20
-84.3805
11
203.716
21
-84.5207
0
LINE
8
BLACK
6
CONTINUOUS
10
203.716
20
-84.5207
11
203.883
21
-84.6323
0
LINE
8
BLACK
6
CONTINUOUS
10
203.883
20
-84.6323
11
204.067
21
-84.7116
0
LINE
8
BLACK
6
CONTINUOUS
10
204.067
20
-84.7116
11
204.263
21
-84.7559
0
LINE
8
BLACK
6
CONTINUOUS
10
204.263
20
-84.7559
11
204.464
21
-84.7638
0
LINE
8
BLACK
6
CONTINUOUS
10
204.464
20
-84.7638
11
204.663
21
-84.735
0
LINE
8
BLACK
6
CONTINUOUS
10
204.663
20
-84.735
11
204.853
21
-84.6704
0
LINE
8
BLACK
6
CONTINUOUS
10
204.853
20
-84.6704
11
205.028
21
-84.5722
0
LINE
8
BLACK
6
CONTINUOUS
10
205.028
20
-84.5722
11
205.183
21
-84.4438
0
LINE
8
BLACK
6
CONTINUOUS
10
205.183
20
-84.4438
11
205.311
21
-84.2893
0
LINE
8
BLACK
6
CONTINUOUS
10
205.311
20
-84.2893
11
205.409
21
-84.1141
0
LINE
8
BLACK
6
CONTINUOUS
10
205.409
20
-84.1141
11
205.474
21
-83.9238
0
LINE
8
BLACK
6
CONTINUOUS
10
205.474
20
-83.9238
11
205.503
21
-83.725
0
LINE
8
BLACK
6
CONTINUOUS
10
205.503
20
-83.725
11
205.504
21
-83.6676
0
LINE
8
BLACK
6
CONTINUOUS
10
205.504
20
-83.6676
11
205.486
21
-83.4676
0
LINE
8
BLACK
6
CONTINUOUS
10
205.486
20
-83.4676
11
205.431
21
-83.2742
0
LINE
8
BLACK
6
CONTINUOUS
10
205.431
20
-83.2742
11
205.342
21
-83.0941
0
LINE
8
BLACK
6
CONTINUOUS
10
205.342
20
-83.0941
11
205.222
21
-82.9331
0
LINE
8
BLACK
6
CONTINUOUS
10
205.222
20
-82.9331
11
205.075
21
-82.7968
0
LINE
8
BLACK
6
CONTINUOUS
10
205.075
20
-82.7968
11
204.905
21
-82.6896
0
LINE
8
BLACK
6
CONTINUOUS
10
204.905
20
-82.6896
11
204.718
21
-82.6151
0
LINE
8
BLACK
6
CONTINUOUS
10
204.718
20
-82.6151
11
204.521
21
-82.5759
0
LINE
8
BLACK
6
CONTINUOUS
10
204.521
20
-82.5759
11
204.32
21
-82.5733
0
LINE
8
BLACK
6
CONTINUOUS
10
204.32
20
-82.5733
11
204.122
21
-82.6073
0
LINE
8
BLACK
6
CONTINUOUS
10
204.122
20
-82.6073
11
203.934
21
-82.6768
0
LINE
8
BLACK
6
CONTINUOUS
10
203.934
20
-82.6768
11
203.761
21
-82.7796
0
LINE
8
BLACK
6
CONTINUOUS
10
203.761
20
-82.7796
11
203.61
21
-82.912
0
LINE
8
BLACK
6
CONTINUOUS
10
203.61
20
-82.912
11
203.486
21
-83.0698
0
LINE
8
BLACK
6
CONTINUOUS
10
203.486
20
-83.0698
11
203.392
21
-83.2475
0
LINE
8
BLACK
6
CONTINUOUS
10
203.392
20
-83.2475
11
203.333
21
-83.4394
0
LINE
8
BLACK
6
CONTINUOUS
10
203.333
20
-83.4394
11
203.309
21
-83.6389
0
LINE
8
BLACK
6
CONTINUOUS
10
203.309
20
-83.6389
11
203.322
21
-83.8393
0
LINE
8
BLACK
6
CONTINUOUS
10
203.322
20
-83.8393
11
203.372
21
-84.034
0
LINE
8
BLACK
6
CONTINUOUS
10
177.332
20
-60.5596
11
177.396
21
-60.3511
0
LINE
8
BLACK
6
CONTINUOUS
10
177.396
20
-60.3511
11
177.498
21
-60.1578
0
LINE
8
BLACK
6
CONTINUOUS
10
177.498
20
-60.1578
11
177.633
21
-59.9864
0
LINE
8
BLACK
6
CONTINUOUS
10
177.633
20
-59.9864
11
177.797
21
-59.8424
0
LINE
8
BLACK
6
CONTINUOUS
10
177.797
20
-59.8424
11
177.985
21
-59.7308
0
LINE
8
BLACK
6
CONTINUOUS
10
177.985
20
-59.7308
11
178.19
21
-59.6552
0
LINE
8
BLACK
6
CONTINUOUS
10
178.19
20
-59.6552
11
178.405
21
-59.6183
0
LINE
8
BLACK
6
CONTINUOUS
10
178.405
20
-59.6183
11
178.623
21
-59.6211
0
LINE
8
BLACK
6
CONTINUOUS
10
178.623
20
-59.6211
11
178.837
21
-59.6637
0
LINE
8
BLACK
6
CONTINUOUS
10
178.837
20
-59.6637
11
179.04
21
-59.7446
0
LINE
8
BLACK
6
CONTINUOUS
10
179.04
20
-59.7446
11
179.225
21
-59.8611
0
LINE
8
BLACK
6
CONTINUOUS
10
179.225
20
-59.8611
11
179.385
21
-60.0093
0
LINE
8
BLACK
6
CONTINUOUS
10
179.385
20
-60.0093
11
179.516
21
-60.1843
0
LINE
8
BLACK
6
CONTINUOUS
10
179.516
20
-60.1843
11
179.612
21
-60.3801
0
LINE
8
BLACK
6
CONTINUOUS
10
179.612
20
-60.3801
11
179.672
21
-60.5902
0
LINE
8
BLACK
6
CONTINUOUS
10
179.672
20
-60.5902
11
179.691
21
-60.8076
0
LINE
8
BLACK
6
CONTINUOUS
10
179.691
20
-60.8076
11
179.69
21
-60.87
0
LINE
8
BLACK
6
CONTINUOUS
10
179.69
20
-60.87
11
179.659
21
-61.0861
0
LINE
8
BLACK
6
CONTINUOUS
10
179.659
20
-61.0861
11
179.588
21
-61.2928
0
LINE
8
BLACK
6
CONTINUOUS
10
179.588
20
-61.2928
11
179.482
21
-61.4833
0
LINE
8
BLACK
6
CONTINUOUS
10
179.482
20
-61.4833
11
179.342
21
-61.6512
0
LINE
8
BLACK
6
CONTINUOUS
10
179.342
20
-61.6512
11
179.174
21
-61.7908
0
LINE
8
BLACK
6
CONTINUOUS
10
179.174
20
-61.7908
11
178.984
21
-61.8975
0
LINE
8
BLACK
6
CONTINUOUS
10
178.984
20
-61.8975
11
178.777
21
-61.9676
0
LINE
8
BLACK
6
CONTINUOUS
10
178.777
20
-61.9676
11
178.561
21
-61.999
0
LINE
8
BLACK
6
CONTINUOUS
10
178.561
20
-61.999
11
178.343
21
-61.9904
0
LINE
8
BLACK
6
CONTINUOUS
10
178.343
20
-61.9904
11
178.13
21
-61.9422
0
LINE
8
BLACK
6
CONTINUOUS
10
178.13
20
-61.9422
11
177.929
21
-61.856
0
LINE
8
BLACK
6
CONTINUOUS
10
177.929
20
-61.856
11
177.748
21
-61.7347
0
LINE
8
BLACK
6
CONTINUOUS
10
177.748
20
-61.7347
11
177.591
21
-61.5824
0
LINE
8
BLACK
6
CONTINUOUS
10
177.591
20
-61.5824
11
177.465
21
-61.4041
0
LINE
8
BLACK
6
CONTINUOUS
10
177.465
20
-61.4041
11
177.374
21
-61.2058
0
LINE
8
BLACK
6
CONTINUOUS
10
177.374
20
-61.2058
11
177.32
21
-60.9942
0
LINE
8
BLACK
6
CONTINUOUS
10
177.32
20
-60.9942
11
177.306
21
-60.7789
0
LINE
8
BLACK
6
CONTINUOUS
10
177.306
20
-60.7789
11
177.306
21
-60.7764
0
LINE
8
BLACK
6
CONTINUOUS
10
177.306
20
-60.7764
11
177.332
21
-60.5596
0
LINE
8
BLACK
6
CONTINUOUS
10
177.464
20
-61.174
11
177.548
21
-61.3564
0
LINE
8
BLACK
6
CONTINUOUS
10
177.548
20
-61.3564
11
177.664
21
-61.5205
0
LINE
8
BLACK
6
CONTINUOUS
10
177.664
20
-61.5205
11
177.808
21
-61.6607
0
LINE
8
BLACK
6
CONTINUOUS
10
177.808
20
-61.6607
11
177.975
21
-61.7723
0
LINE
8
BLACK
6
CONTINUOUS
10
177.975
20
-61.7723
11
178.159
21
-61.8516
0
LINE
8
BLACK
6
CONTINUOUS
10
178.159
20
-61.8516
11
178.355
21
-61.8959
0
LINE
8
BLACK
6
CONTINUOUS
10
178.355
20
-61.8959
11
178.556
21
-61.9038
0
LINE
8
BLACK
6
CONTINUOUS
10
178.556
20
-61.9038
11
178.755
21
-61.875
0
LINE
8
BLACK
6
CONTINUOUS
10
178.755
20
-61.875
11
178.945
21
-61.8104
0
LINE
8
BLACK
6
CONTINUOUS
10
178.945
20
-61.8104
11
179.12
21
-61.7122
0
LINE
8
BLACK
6
CONTINUOUS
10
179.12
20
-61.7122
11
179.275
21
-61.5838
0
LINE
8
BLACK
6
CONTINUOUS
10
179.275
20
-61.5838
11
179.403
21
-61.4293
0
LINE
8
BLACK
6
CONTINUOUS
10
179.403
20
-61.4293
11
179.501
21
-61.2541
0
LINE
8
BLACK
6
CONTINUOUS
10
179.501
20
-61.2541
11
179.566
21
-61.0638
0
LINE
8
BLACK
6
CONTINUOUS
10
179.566
20
-61.0638
11
179.595
21
-60.865
0
LINE
8
BLACK
6
CONTINUOUS
10
179.595
20
-60.865
11
179.596
21
-60.8076
0
LINE
8
BLACK
6
CONTINUOUS
10
179.596
20
-60.8076
11
179.578
21
-60.6076
0
LINE
8
BLACK
6
CONTINUOUS
10
179.578
20
-60.6076
11
179.523
21
-60.4142
0
LINE
8
BLACK
6
CONTINUOUS
10
179.523
20
-60.4142
11
179.434
21
-60.2341
0
LINE
8
BLACK
6
CONTINUOUS
10
179.434
20
-60.2341
11
179.314
21
-60.0731
0
LINE
8
BLACK
6
CONTINUOUS
10
179.314
20
-60.0731
11
179.167
21
-59.9367
0
LINE
8
BLACK
6
CONTINUOUS
10
179.167
20
-59.9367
11
178.997
21
-59.8296
0
LINE
8
BLACK
6
CONTINUOUS
10
178.997
20
-59.8296
11
178.81
21
-59.7551
0
LINE
8
BLACK
6
CONTINUOUS
10
178.81
20
-59.7551
11
178.613
21
-59.7159
0
LINE
8
BLACK
6
CONTINUOUS
10
178.613
20
-59.7159
11
178.412
21
-59.7133
0
LINE
8
BLACK
6
CONTINUOUS
10
178.412
20
-59.7133
11
178.214
21
-59.7473
0
LINE
8
BLACK
6
CONTINUOUS
10
178.214
20
-59.7473
11
178.026
21
-59.8168
0
LINE
8
BLACK
6
CONTINUOUS
10
178.026
20
-59.8168
11
177.853
21
-59.9196
0
LINE
8
BLACK
6
CONTINUOUS
10
177.853
20
-59.9196
11
177.702
21
-60.052
0
LINE
8
BLACK
6
CONTINUOUS
10
177.702
20
-60.052
11
177.578
21
-60.2098
0
LINE
8
BLACK
6
CONTINUOUS
10
177.578
20
-60.2098
11
177.484
21
-60.3875
0
LINE
8
BLACK
6
CONTINUOUS
10
177.484
20
-60.3875
11
177.425
21
-60.5794
0
LINE
8
BLACK
6
CONTINUOUS
10
177.425
20
-60.5794
11
177.401
21
-60.7789
0
LINE
8
BLACK
6
CONTINUOUS
10
177.401
20
-60.7789
11
177.414
21
-60.9793
0
LINE
8
BLACK
6
CONTINUOUS
10
177.414
20
-60.9793
11
177.464
21
-61.174
0
LINE
8
BLACK
6
CONTINUOUS
10
162.68
20
-59.2406
11
162.78
21
-58.9466
0
LINE
8
BLACK
6
CONTINUOUS
10
162.78
20
-58.9466
11
162.917
21
-58.668
0
LINE
8
BLACK
6
CONTINUOUS
10
162.917
20
-58.668
11
163.089
21
-58.4098
0
LINE
8
BLACK
6
CONTINUOUS
10
163.089
20
-58.4098
11
163.294
21
-58.1764
0
LINE
8
BLACK
6
CONTINUOUS
10
163.294
20
-58.1764
11
163.528
21
-57.9716
0
LINE
8
BLACK
6
CONTINUOUS
10
163.528
20
-57.9716
11
163.786
21
-57.7991
0
LINE
8
BLACK
6
CONTINUOUS
10
163.786
20
-57.7991
11
164.064
21
-57.6617
0
LINE
8
BLACK
6
CONTINUOUS
10
164.064
20
-57.6617
11
164.359
21
-57.5619
0
LINE
8
BLACK
6
CONTINUOUS
10
164.359
20
-57.5619
11
164.663
21
-57.5013
0
LINE
8
BLACK
6
CONTINUOUS
10
164.663
20
-57.5013
11
164.973
21
-57.481
0
LINE
8
BLACK
6
CONTINUOUS
10
164.973
20
-57.481
11
165.283
21
-57.5013
0
LINE
8
BLACK
6
CONTINUOUS
10
165.283
20
-57.5013
11
165.587
21
-57.5619
0
LINE
8
BLACK
6
CONTINUOUS
10
165.587
20
-57.5619
11
165.882
21
-57.6617
0
LINE
8
BLACK
6
CONTINUOUS
10
165.882
20
-57.6617
11
166.16
21
-57.7991
0
LINE
8
BLACK
6
CONTINUOUS
10
166.16
20
-57.7991
11
166.418
21
-57.9716
0
LINE
8
BLACK
6
CONTINUOUS
10
166.418
20
-57.9716
11
166.652
21
-58.1764
0
LINE
8
BLACK
6
CONTINUOUS
10
166.652
20
-58.1764
11
166.856
21
-58.4098
0
LINE
8
BLACK
6
CONTINUOUS
10
166.856
20
-58.4098
11
167.029
21
-58.668
0
LINE
8
BLACK
6
CONTINUOUS
10
167.029
20
-58.668
11
167.166
21
-58.9466
0
LINE
8
BLACK
6
CONTINUOUS
10
167.166
20
-58.9466
11
167.266
21
-59.2406
0
LINE
8
BLACK
6
CONTINUOUS
10
167.266
20
-59.2406
11
167.327
21
-59.5452
0
LINE
8
BLACK
6
CONTINUOUS
10
167.327
20
-59.5452
11
167.347
21
-59.8551
0
LINE
8
BLACK
6
CONTINUOUS
10
167.347
20
-59.8551
11
167.327
21
-60.165
0
LINE
8
BLACK
6
CONTINUOUS
10
167.327
20
-60.165
11
167.266
21
-60.4696
0
LINE
8
BLACK
6
CONTINUOUS
10
167.266
20
-60.4696
11
167.166
21
-60.7636
0
LINE
8
BLACK
6
CONTINUOUS
10
167.166
20
-60.7636
11
167.029
21
-61.0421
0
LINE
8
BLACK
6
CONTINUOUS
10
167.029
20
-61.0421
11
166.856
21
-61.3004
0
LINE
8
BLACK
6
CONTINUOUS
10
166.856
20
-61.3004
11
166.652
21
-61.5338
0
LINE
8
BLACK
6
CONTINUOUS
10
166.652
20
-61.5338
11
166.418
21
-61.7386
0
LINE
8
BLACK
6
CONTINUOUS
10
166.418
20
-61.7386
11
166.16
21
-61.9111
0
LINE
8
BLACK
6
CONTINUOUS
10
166.16
20
-61.9111
11
165.882
21
-62.0485
0
LINE
8
BLACK
6
CONTINUOUS
10
165.882
20
-62.0485
11
165.587
21
-62.1483
0
LINE
8
BLACK
6
CONTINUOUS
10
165.587
20
-62.1483
11
165.283
21
-62.2089
0
LINE
8
BLACK
6
CONTINUOUS
10
165.283
20
-62.2089
11
164.973
21
-62.2292
0
LINE
8
BLACK
6
CONTINUOUS
10
164.973
20
-62.2292
11
164.663
21
-62.2089
0
LINE
8
BLACK
6
CONTINUOUS
10
164.663
20
-62.2089
11
164.359
21
-62.1483
0
LINE
8
BLACK
6
CONTINUOUS
10
164.359
20
-62.1483
11
164.064
21
-62.0485
0
LINE
8
BLACK
6
CONTINUOUS
10
164.064
20
-62.0485
11
163.786
21
-61.9111
0
LINE
8
BLACK
6
CONTINUOUS
10
163.786
20
-61.9111
11
163.528
21
-61.7386
0
LINE
8
BLACK
6
CONTINUOUS
10
163.528
20
-61.7386
11
163.294
21
-61.5338
0
LINE
8
BLACK
6
CONTINUOUS
10
163.294
20
-61.5338
11
163.089
21
-61.3004
0
LINE
8
BLACK
6
CONTINUOUS
10
163.089
20
-61.3004
11
162.917
21
-61.0421
0
LINE
8
BLACK
6
CONTINUOUS
10
162.917
20
-61.0421
11
162.78
21
-60.7636
0
LINE
8
BLACK
6
CONTINUOUS
10
162.78
20
-60.7636
11
162.68
21
-60.4696
0
LINE
8
BLACK
6
CONTINUOUS
10
162.68
20
-60.4696
11
162.619
21
-60.165
0
LINE
8
BLACK
6
CONTINUOUS
10
162.619
20
-60.165
11
162.599
21
-59.8551
0
LINE
8
BLACK
6
CONTINUOUS
10
162.599
20
-59.8551
11
162.619
21
-59.5452
0
LINE
8
BLACK
6
CONTINUOUS
10
162.619
20
-59.5452
11
162.68
21
-59.2406
0
LINE
8
BLACK
6
CONTINUOUS
10
162.772
20
-60.4449
11
162.867
21
-60.7272
0
LINE
8
BLACK
6
CONTINUOUS
10
162.867
20
-60.7272
11
162.999
21
-60.9946
0
LINE
8
BLACK
6
CONTINUOUS
10
162.999
20
-60.9946
11
163.165
21
-61.2425
0
LINE
8
BLACK
6
CONTINUOUS
10
163.165
20
-61.2425
11
163.362
21
-61.4666
0
LINE
8
BLACK
6
CONTINUOUS
10
163.362
20
-61.4666
11
163.586
21
-61.6631
0
LINE
8
BLACK
6
CONTINUOUS
10
163.586
20
-61.6631
11
163.834
21
-61.8288
0
LINE
8
BLACK
6
CONTINUOUS
10
163.834
20
-61.8288
11
164.101
21
-61.9606
0
LINE
8
BLACK
6
CONTINUOUS
10
164.101
20
-61.9606
11
164.383
21
-62.0564
0
LINE
8
BLACK
6
CONTINUOUS
10
164.383
20
-62.0564
11
164.676
21
-62.1146
0
LINE
8
BLACK
6
CONTINUOUS
10
164.676
20
-62.1146
11
164.973
21
-62.1341
0
LINE
8
BLACK
6
CONTINUOUS
10
164.973
20
-62.1341
11
165.27
21
-62.1146
0
LINE
8
BLACK
6
CONTINUOUS
10
165.27
20
-62.1146
11
165.563
21
-62.0564
0
LINE
8
BLACK
6
CONTINUOUS
10
165.563
20
-62.0564
11
165.845
21
-61.9606
0
LINE
8
BLACK
6
CONTINUOUS
10
165.845
20
-61.9606
11
166.112
21
-61.8288
0
LINE
8
BLACK
6
CONTINUOUS
10
166.112
20
-61.8288
11
166.36
21
-61.6631
0
LINE
8
BLACK
6
CONTINUOUS
10
166.36
20
-61.6631
11
166.584
21
-61.4666
0
LINE
8
BLACK
6
CONTINUOUS
10
166.584
20
-61.4666
11
166.781
21
-61.2425
0
LINE
8
BLACK
6
CONTINUOUS
10
166.781
20
-61.2425
11
166.947
21
-60.9946
0
LINE
8
BLACK
6
CONTINUOUS
10
166.947
20
-60.9946
11
167.079
21
-60.7272
0
LINE
8
BLACK
6
CONTINUOUS
10
167.079
20
-60.7272
11
167.174
21
-60.4449
0
LINE
8
BLACK
6
CONTINUOUS
10
167.174
20
-60.4449
11
167.232
21
-60.1526
0
LINE
8
BLACK
6
CONTINUOUS
10
167.232
20
-60.1526
11
167.252
21
-59.8551
0
LINE
8
BLACK
6
CONTINUOUS
10
167.252
20
-59.8551
11
167.232
21
-59.5576
0
LINE
8
BLACK
6
CONTINUOUS
10
167.232
20
-59.5576
11
167.174
21
-59.2653
0
LINE
8
BLACK
6
CONTINUOUS
10
167.174
20
-59.2653
11
167.079
21
-58.983
0
LINE
8
BLACK
6
CONTINUOUS
10
167.079
20
-58.983
11
166.947
21
-58.7156
0
LINE
8
BLACK
6
CONTINUOUS
10
166.947
20
-58.7156
11
166.781
21
-58.4677
0
LINE
8
BLACK
6
CONTINUOUS
10
166.781
20
-58.4677
11
166.584
21
-58.2436
0
LINE
8
BLACK
6
CONTINUOUS
10
166.584
20
-58.2436
11
166.36
21
-58.0471
0
LINE
8
BLACK
6
CONTINUOUS
10
166.36
20
-58.0471
11
166.112
21
-57.8814
0
LINE
8
BLACK
6
CONTINUOUS
10
166.112
20
-57.8814
11
165.845
21
-57.7496
0
LINE
8
BLACK
6
CONTINUOUS
10
165.845
20
-57.7496
11
165.563
21
-57.6538
0
LINE
8
BLACK
6
CONTINUOUS
10
165.563
20
-57.6538
11
165.27
21
-57.5956
0
LINE
8
BLACK
6
CONTINUOUS
10
165.27
20
-57.5956
11
164.973
21
-57.5761
0
LINE
8
BLACK
6
CONTINUOUS
10
164.973
20
-57.5761
11
164.676
21
-57.5956
0
LINE
8
BLACK
6
CONTINUOUS
10
164.676
20
-57.5956
11
164.383
21
-57.6538
0
LINE
8
BLACK
6
CONTINUOUS
10
164.383
20
-57.6538
11
164.101
21
-57.7496
0
LINE
8
BLACK
6
CONTINUOUS
10
164.101
20
-57.7496
11
163.834
21
-57.8814
0
LINE
8
BLACK
6
CONTINUOUS
10
163.834
20
-57.8814
11
163.586
21
-58.0471
0
LINE
8
BLACK
6
CONTINUOUS
10
163.586
20
-58.0471
11
163.362
21
-58.2436
0
LINE
8
BLACK
6
CONTINUOUS
10
163.362
20
-58.2436
11
163.165
21
-58.4677
0
LINE
8
BLACK
6
CONTINUOUS
10
163.165
20
-58.4677
11
162.999
21
-58.7156
0
LINE
8
BLACK
6
CONTINUOUS
10
162.999
20
-58.7156
11
162.867
21
-58.983
0
LINE
8
BLACK
6
CONTINUOUS
10
162.867
20
-58.983
11
162.772
21
-59.2653
0
LINE
8
BLACK
6
CONTINUOUS
10
162.772
20
-59.2653
11
162.714
21
-59.5576
0
LINE
8
BLACK
6
CONTINUOUS
10
162.714
20
-59.5576
11
162.694
21
-59.8551
0
LINE
8
BLACK
6
CONTINUOUS
10
162.694
20
-59.8551
11
162.714
21
-60.1526
0
LINE
8
BLACK
6
CONTINUOUS
10
162.714
20
-60.1526
11
162.772
21
-60.4449
0
LINE
8
BLACK
6
CONTINUOUS
10
128.504
20
-59.012
11
128.604
21
-58.718
0
LINE
8
BLACK
6
CONTINUOUS
10
128.604
20
-58.718
11
128.741
21
-58.4395
0
LINE
8
BLACK
6
CONTINUOUS
10
128.741
20
-58.4395
11
128.914
21
-58.1812
0
LINE
8
BLACK
6
CONTINUOUS
10
128.914
20
-58.1812
11
129.119
21
-57.9478
0
LINE
8
BLACK
6
CONTINUOUS
10
129.119
20
-57.9478
11
129.352
21
-57.743
0
LINE
8
BLACK
6
CONTINUOUS
10
129.352
20
-57.743
11
129.61
21
-57.5705
0
LINE
8
BLACK
6
CONTINUOUS
10
129.61
20
-57.5705
11
129.889
21
-57.4331
0
LINE
8
BLACK
6
CONTINUOUS
10
129.889
20
-57.4331
11
130.183
21
-57.3333
0
LINE
8
BLACK
6
CONTINUOUS
10
130.183
20
-57.3333
11
130.487
21
-57.2727
0
LINE
8
BLACK
6
CONTINUOUS
10
130.487
20
-57.2727
11
130.797
21
-57.2524
0
LINE
8
BLACK
6
CONTINUOUS
10
130.797
20
-57.2524
11
131.107
21
-57.2727
0
LINE
8
BLACK
6
CONTINUOUS
10
131.107
20
-57.2727
11
131.412
21
-57.3333
0
LINE
8
BLACK
6
CONTINUOUS
10
131.412
20
-57.3333
11
131.706
21
-57.4331
0
LINE
8
BLACK
6
CONTINUOUS
10
131.706
20
-57.4331
11
131.984
21
-57.5705
0
LINE
8
BLACK
6
CONTINUOUS
10
131.984
20
-57.5705
11
132.243
21
-57.743
0
LINE
8
BLACK
6
CONTINUOUS
10
132.243
20
-57.743
11
132.476
21
-57.9478
0
LINE
8
BLACK
6
CONTINUOUS
10
132.476
20
-57.9478
11
132.681
21
-58.1812
0
LINE
8
BLACK
6
CONTINUOUS
10
132.681
20
-58.1812
11
132.853
21
-58.4395
0
LINE
8
BLACK
6
CONTINUOUS
10
132.853
20
-58.4395
11
132.991
21
-58.718
0
LINE
8
BLACK
6
CONTINUOUS
10
132.991
20
-58.718
11
133.091
21
-59.012
0
LINE
8
BLACK
6
CONTINUOUS
10
133.091
20
-59.012
11
133.151
21
-59.3166
0
LINE
8
BLACK
6
CONTINUOUS
10
133.151
20
-59.3166
11
133.171
21
-59.6265
0
LINE
8
BLACK
6
CONTINUOUS
10
133.171
20
-59.6265
11
133.151
21
-59.9364
0
LINE
8
BLACK
6
CONTINUOUS
10
133.151
20
-59.9364
11
133.091
21
-60.241
0
LINE
8
BLACK
6
CONTINUOUS
10
133.091
20
-60.241
11
132.991
21
-60.535
0
LINE
8
BLACK
6
CONTINUOUS
10
132.991
20
-60.535
11
132.853
21
-60.8135
0
LINE
8
BLACK
6
CONTINUOUS
10
132.853
20
-60.8135
11
132.681
21
-61.0718
0
LINE
8
BLACK
6
CONTINUOUS
10
132.681
20
-61.0718
11
132.476
21
-61.3052
0
LINE
8
BLACK
6
CONTINUOUS
10
132.476
20
-61.3052
11
132.243
21
-61.51
0
LINE
8
BLACK
6
CONTINUOUS
10
132.243
20
-61.51
11
131.984
21
-61.6825
0
LINE
8
BLACK
6
CONTINUOUS
10
131.984
20
-61.6825
11
131.706
21
-61.8199
0
LINE
8
BLACK
6
CONTINUOUS
10
131.706
20
-61.8199
11
131.412
21
-61.9197
0
LINE
8
BLACK
6
CONTINUOUS
10
131.412
20
-61.9197
11
131.107
21
-61.9803
0
LINE
8
BLACK
6
CONTINUOUS
10
131.107
20
-61.9803
11
130.797
21
-62.0006
0
LINE
8
BLACK
6
CONTINUOUS
10
130.797
20
-62.0006
11
130.487
21
-61.9803
0
LINE
8
BLACK
6
CONTINUOUS
10
130.487
20
-61.9803
11
130.183
21
-61.9197
0
LINE
8
BLACK
6
CONTINUOUS
10
130.183
20
-61.9197
11
129.889
21
-61.8199
0
LINE
8
BLACK
6
CONTINUOUS
10
129.889
20
-61.8199
11
129.61
21
-61.6825
0
LINE
8
BLACK
6
CONTINUOUS
10
129.61
20
-61.6825
11
129.352
21
-61.51
0
LINE
8
BLACK
6
CONTINUOUS
10
129.352
20
-61.51
11
129.119
21
-61.3052
0
LINE
8
BLACK
6
CONTINUOUS
10
129.119
20
-61.3052
11
128.914
21
-61.0718
0
LINE
8
BLACK
6
CONTINUOUS
10
128.914
20
-61.0718
11
128.741
21
-60.8135
0
LINE
8
BLACK
6
CONTINUOUS
10
128.741
20
-60.8135
11
128.604
21
-60.535
0
LINE
8
BLACK
6
CONTINUOUS
10
128.604
20
-60.535
11
128.504
21
-60.241
0
LINE
8
BLACK
6
CONTINUOUS
10
128.504
20
-60.241
11
128.444
21
-59.9364
0
LINE
8
BLACK
6
CONTINUOUS
10
128.444
20
-59.9364
11
128.423
21
-59.6265
0
LINE
8
BLACK
6
CONTINUOUS
10
128.423
20
-59.6265
11
128.444
21
-59.3166
0
LINE
8
BLACK
6
CONTINUOUS
10
128.444
20
-59.3166
11
128.504
21
-59.012
0
LINE
8
BLACK
6
CONTINUOUS
10
128.596
20
-60.2163
11
128.692
21
-60.4986
0
LINE
8
BLACK
6
CONTINUOUS
10
128.692
20
-60.4986
11
128.824
21
-60.766
0
LINE
8
BLACK
6
CONTINUOUS
10
128.824
20
-60.766
11
128.989
21
-61.0139
0
LINE
8
BLACK
6
CONTINUOUS
10
128.989
20
-61.0139
11
129.186
21
-61.238
0
LINE
8
BLACK
6
CONTINUOUS
10
129.186
20
-61.238
11
129.41
21
-61.4345
0
LINE
8
BLACK
6
CONTINUOUS
10
129.41
20
-61.4345
11
129.658
21
-61.6002
0
LINE
8
BLACK
6
CONTINUOUS
10
129.658
20
-61.6002
11
129.925
21
-61.732
0
LINE
8
BLACK
6
CONTINUOUS
10
129.925
20
-61.732
11
130.207
21
-61.8278
0
LINE
8
BLACK
6
CONTINUOUS
10
130.207
20
-61.8278
11
130.5
21
-61.886
0
LINE
8
BLACK
6
CONTINUOUS
10
130.5
20
-61.886
11
130.797
21
-61.9055
0
LINE
8
BLACK
6
CONTINUOUS
10
130.797
20
-61.9055
11
131.095
21
-61.886
0
LINE
8
BLACK
6
CONTINUOUS
10
131.095
20
-61.886
11
131.387
21
-61.8278
0
LINE
8
BLACK
6
CONTINUOUS
10
131.387
20
-61.8278
11
131.669
21
-61.732
0
LINE
8
BLACK
6
CONTINUOUS
10
131.669
20
-61.732
11
131.937
21
-61.6002
0
LINE
8
BLACK
6
CONTINUOUS
10
131.937
20
-61.6002
11
132.185
21
-61.4345
0
LINE
8
BLACK
6
CONTINUOUS
10
132.185
20
-61.4345
11
132.409
21
-61.238
0
LINE
8
BLACK
6
CONTINUOUS
10
132.409
20
-61.238
11
132.605
21
-61.0139
0
LINE
8
BLACK
6
CONTINUOUS
10
132.605
20
-61.0139
11
132.771
21
-60.766
0
LINE
8
BLACK
6
CONTINUOUS
10
132.771
20
-60.766
11
132.903
21
-60.4986
0
LINE
8
BLACK
6
CONTINUOUS
10
132.903
20
-60.4986
11
132.999
21
-60.2163
0
LINE
8
BLACK
6
CONTINUOUS
10
132.999
20
-60.2163
11
133.057
21
-59.924
0
LINE
8
BLACK
6
CONTINUOUS
10
133.057
20
-59.924
11
133.076
21
-59.6265
0
LINE
8
BLACK
6
CONTINUOUS
10
133.076
20
-59.6265
11
133.057
21
-59.329
0
LINE
8
BLACK
6
CONTINUOUS
10
133.057
20
-59.329
11
132.999
21
-59.0367
0
LINE
8
BLACK
6
CONTINUOUS
10
132.999
20
-59.0367
11
132.903
21
-58.7544
0
LINE
8
BLACK
6
CONTINUOUS
10
132.903
20
-58.7544
11
132.771
21
-58.487
0
LINE
8
BLACK
6
CONTINUOUS
10
132.771
20
-58.487
11
132.605
21
-58.2391
0
LINE
8
BLACK
6
CONTINUOUS
10
132.605
20
-58.2391
11
132.409
21
-58.015
0
LINE
8
BLACK
6
CONTINUOUS
10
132.409
20
-58.015
11
132.185
21
-57.8185
0
LINE
8
BLACK
6
CONTINUOUS
10
132.185
20
-57.8185
11
131.937
21
-57.6528
0
LINE
8
BLACK
6
CONTINUOUS
10
131.937
20
-57.6528
11
131.669
21
-57.521
0
LINE
8
BLACK
6
CONTINUOUS
10
131.669
20
-57.521
11
131.387
21
-57.4252
0
LINE
8
BLACK
6
CONTINUOUS
10
131.387
20
-57.4252
11
131.095
21
-57.367
0
LINE
8
BLACK
6
CONTINUOUS
10
131.095
20
-57.367
11
130.797
21
-57.3475
0
LINE
8
BLACK
6
CONTINUOUS
10
130.797
20
-57.3475
11
130.5
21
-57.367
0
LINE
8
BLACK
6
CONTINUOUS
10
130.5
20
-57.367
11
130.207
21
-57.4252
0
LINE
8
BLACK
6
CONTINUOUS
10
130.207
20
-57.4252
11
129.925
21
-57.521
0
LINE
8
BLACK
6
CONTINUOUS
10
129.925
20
-57.521
11
129.658
21
-57.6528
0
LINE
8
BLACK
6
CONTINUOUS
10
129.658
20
-57.6528
11
129.41
21
-57.8185
0
LINE
8
BLACK
6
CONTINUOUS
10
129.41
20
-57.8185
11
129.186
21
-58.015
0
LINE
8
BLACK
6
CONTINUOUS
10
129.186
20
-58.015
11
128.989
21
-58.2391
0
LINE
8
BLACK
6
CONTINUOUS
10
128.989
20
-58.2391
11
128.824
21
-58.487
0
LINE
8
BLACK
6
CONTINUOUS
10
128.824
20
-58.487
11
128.692
21
-58.7544
0
LINE
8
BLACK
6
CONTINUOUS
10
128.692
20
-58.7544
11
128.596
21
-59.0367
0
LINE
8
BLACK
6
CONTINUOUS
10
128.596
20
-59.0367
11
128.538
21
-59.329
0
LINE
8
BLACK
6
CONTINUOUS
10
128.538
20
-59.329
11
128.518
21
-59.6265
0
LINE
8
BLACK
6
CONTINUOUS
10
128.518
20
-59.6265
11
128.538
21
-59.924
0
LINE
8
BLACK
6
CONTINUOUS
10
128.538
20
-59.924
11
128.596
21
-60.2163
0
LINE
8
BLACK
6
CONTINUOUS
10
166.528
20
-48.3059
11
166.628
21
-48.0119
0
LINE
8
BLACK
6
CONTINUOUS
10
166.628
20
-48.0119
11
166.765
21
-47.7333
0
LINE
8
BLACK
6
CONTINUOUS
10
166.765
20
-47.7333
11
166.938
21
-47.4751
0
LINE
8
BLACK
6
CONTINUOUS
10
166.938
20
-47.4751
11
167.142
21
-47.2417
0
LINE
8
BLACK
6
CONTINUOUS
10
167.142
20
-47.2417
11
167.376
21
-47.0369
0
LINE
8
BLACK
6
CONTINUOUS
10
167.376
20
-47.0369
11
167.634
21
-46.8644
0
LINE
8
BLACK
6
CONTINUOUS
10
167.634
20
-46.8644
11
167.913
21
-46.727
0
LINE
8
BLACK
6
CONTINUOUS
10
167.913
20
-46.727
11
168.207
21
-46.6272
0
LINE
8
BLACK
6
CONTINUOUS
10
168.207
20
-46.6272
11
168.511
21
-46.5666
0
LINE
8
BLACK
6
CONTINUOUS
10
168.511
20
-46.5666
11
168.821
21
-46.5463
0
LINE
8
BLACK
6
CONTINUOUS
10
168.821
20
-46.5463
11
169.131
21
-46.5666
0
LINE
8
BLACK
6
CONTINUOUS
10
169.131
20
-46.5666
11
169.436
21
-46.6272
0
LINE
8
BLACK
6
CONTINUOUS
10
169.436
20
-46.6272
11
169.73
21
-46.727
0
LINE
8
BLACK
6
CONTINUOUS
10
169.73
20
-46.727
11
170.008
21
-46.8644
0
LINE
8
BLACK
6
CONTINUOUS
10
170.008
20
-46.8644
11
170.266
21
-47.0369
0
LINE
8
BLACK
6
CONTINUOUS
10
170.266
20
-47.0369
11
170.5
21
-47.2417
0
LINE
8
BLACK
6
CONTINUOUS
10
170.5
20
-47.2417
11
170.705
21
-47.4751
0
LINE
8
BLACK
6
CONTINUOUS
10
170.705
20
-47.4751
11
170.877
21
-47.7333
0
LINE
8
BLACK
6
CONTINUOUS
10
170.877
20
-47.7333
11
171.014
21
-48.0119
0
LINE
8
BLACK
6
CONTINUOUS
10
171.014
20
-48.0119
11
171.114
21
-48.3059
0
LINE
8
BLACK
6
CONTINUOUS
10
171.114
20
-48.3059
11
171.175
21
-48.6105
0
LINE
8
BLACK
6
CONTINUOUS
10
171.175
20
-48.6105
11
171.195
21
-48.9204
0
LINE
8
BLACK
6
CONTINUOUS
10
171.195
20
-48.9204
11
171.175
21
-49.2303
0
LINE
8
BLACK
6
CONTINUOUS
10
171.175
20
-49.2303
11
171.114
21
-49.5349
0
LINE
8
BLACK
6
CONTINUOUS
10
171.114
20
-49.5349
11
171.014
21
-49.8289
0
LINE
8
BLACK
6
CONTINUOUS
10
171.014
20
-49.8289
11
170.877
21
-50.1075
0
LINE
8
BLACK
6
CONTINUOUS
10
170.877
20
-50.1075
11
170.705
21
-50.3657
0
LINE
8
BLACK
6
CONTINUOUS
10
170.705
20
-50.3657
11
170.5
21
-50.5991
0
LINE
8
BLACK
6
CONTINUOUS
10
170.5
20
-50.5991
11
170.266
21
-50.8039
0
LINE
8
BLACK
6
CONTINUOUS
10
170.266
20
-50.8039
11
170.008
21
-50.9764
0
LINE
8
BLACK
6
CONTINUOUS
10
170.008
20
-50.9764
11
169.73
21
-51.1138
0
LINE
8
BLACK
6
CONTINUOUS
10
169.73
20
-51.1138
11
169.436
21
-51.2136
0
LINE
8
BLACK
6
CONTINUOUS
10
169.436
20
-51.2136
11
169.131
21
-51.2742
0
LINE
8
BLACK
6
CONTINUOUS
10
169.131
20
-51.2742
11
168.821
21
-51.2945
0
LINE
8
BLACK
6
CONTINUOUS
10
168.821
20
-51.2945
11
168.511
21
-51.2742
0
LINE
8
BLACK
6
CONTINUOUS
10
168.511
20
-51.2742
11
168.207
21
-51.2136
0
LINE
8
BLACK
6
CONTINUOUS
10
168.207
20
-51.2136
11
167.913
21
-51.1138
0
LINE
8
BLACK
6
CONTINUOUS
10
167.913
20
-51.1138
11
167.634
21
-50.9764
0
LINE
8
BLACK
6
CONTINUOUS
10
167.634
20
-50.9764
11
167.376
21
-50.8039
0
LINE
8
BLACK
6
CONTINUOUS
10
167.376
20
-50.8039
11
167.142
21
-50.5991
0
LINE
8
BLACK
6
CONTINUOUS
10
167.142
20
-50.5991
11
166.938
21
-50.3657
0
LINE
8
BLACK
6
CONTINUOUS
10
166.938
20
-50.3657
11
166.765
21
-50.1075
0
LINE
8
BLACK
6
CONTINUOUS
10
166.765
20
-50.1075
11
166.628
21
-49.8289
0
LINE
8
BLACK
6
CONTINUOUS
10
166.628
20
-49.8289
11
166.528
21
-49.5349
0
LINE
8
BLACK
6
CONTINUOUS
10
166.528
20
-49.5349
11
166.467
21
-49.2303
0
LINE
8
BLACK
6
CONTINUOUS
10
166.467
20
-49.2303
11
166.447
21
-48.9204
0
LINE
8
BLACK
6
CONTINUOUS
10
166.447
20
-48.9204
11
166.467
21
-48.6105
0
LINE
8
BLACK
6
CONTINUOUS
10
166.467
20
-48.6105
11
166.528
21
-48.3059
0
LINE
8
BLACK
6
CONTINUOUS
10
166.62
20
-49.5102
11
166.716
21
-49.7925
0
LINE
8
BLACK
6
CONTINUOUS
10
166.716
20
-49.7925
11
166.847
21
-50.0599
0
LINE
8
BLACK
6
CONTINUOUS
10
166.847
20
-50.0599
11
167.013
21
-50.3078
0
LINE
8
BLACK
6
CONTINUOUS
10
167.013
20
-50.3078
11
167.21
21
-50.5319
0
LINE
8
BLACK
6
CONTINUOUS
10
167.21
20
-50.5319
11
167.434
21
-50.7284
0
LINE
8
BLACK
6
CONTINUOUS
10
167.434
20
-50.7284
11
167.682
21
-50.8941
0
LINE
8
BLACK
6
CONTINUOUS
10
167.682
20
-50.8941
11
167.949
21
-51.0259
0
LINE
8
BLACK
6
CONTINUOUS
10
167.949
20
-51.0259
11
168.231
21
-51.1217
0
LINE
8
BLACK
6
CONTINUOUS
10
168.231
20
-51.1217
11
168.524
21
-51.1799
0
LINE
8
BLACK
6
CONTINUOUS
10
168.524
20
-51.1799
11
168.821
21
-51.1994
0
LINE
8
BLACK
6
CONTINUOUS
10
168.821
20
-51.1994
11
169.119
21
-51.1799
0
LINE
8
BLACK
6
CONTINUOUS
10
169.119
20
-51.1799
11
169.411
21
-51.1217
0
LINE
8
BLACK
6
CONTINUOUS
10
169.411
20
-51.1217
11
169.693
21
-51.0259
0
LINE
8
BLACK
6
CONTINUOUS
10
169.693
20
-51.0259
11
169.961
21
-50.8941
0
LINE
8
BLACK
6
CONTINUOUS
10
169.961
20
-50.8941
11
170.208
21
-50.7284
0
LINE
8
BLACK
6
CONTINUOUS
10
170.208
20
-50.7284
11
170.433
21
-50.5319
0
LINE
8
BLACK
6
CONTINUOUS
10
170.433
20
-50.5319
11
170.629
21
-50.3078
0
LINE
8
BLACK
6
CONTINUOUS
10
170.629
20
-50.3078
11
170.795
21
-50.0599
0
LINE
8
BLACK
6
CONTINUOUS
10
170.795
20
-50.0599
11
170.927
21
-49.7925
0
LINE
8
BLACK
6
CONTINUOUS
10
170.927
20
-49.7925
11
171.022
21
-49.5102
0
LINE
8
BLACK
6
CONTINUOUS
10
171.022
20
-49.5102
11
171.081
21
-49.2179
0
LINE
8
BLACK
6
CONTINUOUS
10
171.081
20
-49.2179
11
171.1
21
-48.9204
0
LINE
8
BLACK
6
CONTINUOUS
10
171.1
20
-48.9204
11
171.081
21
-48.6229
0
LINE
8
BLACK
6
CONTINUOUS
10
171.081
20
-48.6229
11
171.022
21
-48.3306
0
LINE
8
BLACK
6
CONTINUOUS
10
171.022
20
-48.3306
11
170.927
21
-48.0483
0
LINE
8
BLACK
6
CONTINUOUS
10
170.927
20
-48.0483
11
170.795
21
-47.7809
0
LINE
8
BLACK
6
CONTINUOUS
10
170.795
20
-47.7809
11
170.629
21
-47.533
0
LINE
8
BLACK
6
CONTINUOUS
10
170.629
20
-47.533
11
170.433
21
-47.3089
0
LINE
8
BLACK
6
CONTINUOUS
10
170.433
20
-47.3089
11
170.208
21
-47.1124
0
LINE
8
BLACK
6
CONTINUOUS
10
170.208
20
-47.1124
11
169.961
21
-46.9467
0
LINE
8
BLACK
6
CONTINUOUS
10
169.961
20
-46.9467
11
169.693
21
-46.8149
0
LINE
8
BLACK
6
CONTINUOUS
10
169.693
20
-46.8149
11
169.411
21
-46.7191
0
LINE
8
BLACK
6
CONTINUOUS
10
169.411
20
-46.7191
11
169.119
21
-46.6609
0
LINE
8
BLACK
6
CONTINUOUS
10
169.119
20
-46.6609
11
168.821
21
-46.6414
0
LINE
8
BLACK
6
CONTINUOUS
10
168.821
20
-46.6414
11
168.524
21
-46.6609
0
LINE
8
BLACK
6
CONTINUOUS
10
168.524
20
-46.6609
11
168.231
21
-46.7191
0
LINE
8
BLACK
6
CONTINUOUS
10
168.231
20
-46.7191
11
167.949
21
-46.8149
0
LINE
8
BLACK
6
CONTINUOUS
10
167.949
20
-46.8149
11
167.682
21
-46.9467
0
LINE
8
BLACK
6
CONTINUOUS
10
167.682
20
-46.9467
11
167.434
21
-47.1124
0
LINE
8
BLACK
6
CONTINUOUS
10
167.434
20
-47.1124
11
167.21
21
-47.3089
0
LINE
8
BLACK
6
CONTINUOUS
10
167.21
20
-47.3089
11
167.013
21
-47.533
0
LINE
8
BLACK
6
CONTINUOUS
10
167.013
20
-47.533
11
166.847
21
-47.7809
0
LINE
8
BLACK
6
CONTINUOUS
10
166.847
20
-47.7809
11
166.716
21
-48.0483
0
LINE
8
BLACK
6
CONTINUOUS
10
166.716
20
-48.0483
11
166.62
21
-48.3306
0
LINE
8
BLACK
6
CONTINUOUS
10
166.62
20
-48.3306
11
166.562
21
-48.6229
0
LINE
8
BLACK
6
CONTINUOUS
10
166.562
20
-48.6229
11
166.542
21
-48.9204
0
LINE
8
BLACK
6
CONTINUOUS
10
166.542
20
-48.9204
11
166.562
21
-49.2179
0
LINE
8
BLACK
6
CONTINUOUS
10
166.562
20
-49.2179
11
166.62
21
-49.5102
  0
ENDSEC
  0
EOF
