  0
SECTION
  2
HEADER
  9
$ANGBASE
  50
0.0
  9
$ANGDIR
  70
1
  9
$MEASUREMENT
  70
1
  0
ENDSEC
  0
SECTION
  2
TABLES
  0
TABLE
  2
LTYPE
  70
4
  0
LTYPE
  5
40F
  2
CONTINUOUS
  70
0
  3
Solid line
  72
65
  73
0
  40
0.0
  0
LTYPE
  5
410
  2
DASHDOT
 70
0
  3
Dash Dot ____ _ ____ _
 72
65
 73
4
 40
2.0
 49
1.25
 49
-0.25
 49
0.25
 49
-0.25
  0
LTYPE
  5
411
  2
DASHED
 70
0
  3
Dashed __ __ __ __ __
 72
65
 73
2
 40
0.75
 49
0.5
 49
-0.25
  0
LTYPE
  5
43B
  2
DOTTED
 70
0
  3
Dotted .  .  .  .
 72
65
 73
2
 40
0.2
 49
0.0
 49
-0.2
  0
ENDTAB
  0
TABLE
  2
STYLE
  70
4
  0
STYLE
  2
KICAD
  70
0
  40
0
  41
1
  42
1
  50
0
  71
0
  3
isocp.shx
  0
STYLE
  2
KICADB
  70
0
  40
0
  41
1
  42
1
  50
0
  71
0
  3
isocp.shx
  0
STYLE
  2
KICADI
  70
0
  40
0
  41
1
  42
1
  50
15
  71
0
  3
isocp.shx
  0
STYLE
  2
KICADBI
  70
0
  40
0
  41
1
  42
1
  50
15
  71
0
  3
isocp.shx
  0
ENDTAB
  0
TABLE
  2
LAYER
  70
1
  0
LAYER
  2
BLACK
  70
0
  62
7
  6
CONTINUOUS
  0
ENDTAB
  0
ENDSEC
  0
SECTION
  2
ENTITIES
0
LINE
8
BLACK
6
CONTINUOUS
10
135.103
20
-35.2235
11
135.32
21
-35.2653
0
LINE
8
BLACK
6
CONTINUOUS
10
135.32
20
-35.2653
11
135.32
21
-35.2653
0
LINE
8
BLACK
6
CONTINUOUS
10
135.32
20
-35.2653
11
135.32
21
-35.2653
0
LINE
8
BLACK
6
CONTINUOUS
10
135.32
20
-35.2653
11
135.32
21
-35.2653
0
LINE
8
BLACK
6
CONTINUOUS
10
135.32
20
-35.2653
11
142.042
21
-37.0707
0
LINE
8
BLACK
6
CONTINUOUS
10
142.042
20
-37.0707
11
142.042
21
-37.0707
0
LINE
8
BLACK
6
CONTINUOUS
10
142.042
20
-37.0707
11
142.042
21
-37.0707
0
LINE
8
BLACK
6
CONTINUOUS
10
142.042
20
-37.0707
11
173.819
21
-45.6197
0
LINE
8
BLACK
6
CONTINUOUS
10
173.819
20
-45.6197
11
173.819
21
-45.6198
0
LINE
8
BLACK
6
CONTINUOUS
10
173.819
20
-45.6198
11
173.819
21
-45.6198
0
LINE
8
BLACK
6
CONTINUOUS
10
173.819
20
-45.6198
11
173.826
21
-45.6256
0
LINE
8
BLACK
6
CONTINUOUS
10
173.826
20
-45.6256
11
173.834
21
-45.6313
0
LINE
8
BLACK
6
CONTINUOUS
10
173.834
20
-45.6313
11
173.834
21
-45.6316
0
LINE
8
BLACK
6
CONTINUOUS
10
173.834
20
-45.6316
11
173.834
21
-45.6317
0
LINE
8
BLACK
6
CONTINUOUS
10
173.834
20
-45.6317
11
173.835
21
-45.641
0
LINE
8
BLACK
6
CONTINUOUS
10
173.835
20
-45.641
11
173.836
21
-45.6503
0
LINE
8
BLACK
6
CONTINUOUS
10
173.836
20
-45.6503
11
173.836
21
-45.6505
0
LINE
8
BLACK
6
CONTINUOUS
10
173.836
20
-45.6505
11
173.836
21
-45.6507
0
LINE
8
BLACK
6
CONTINUOUS
10
173.836
20
-45.6507
11
168.388
21
-64.5864
0
LINE
8
BLACK
6
CONTINUOUS
10
168.388
20
-64.5864
11
168.384
21
-64.5913
0
LINE
8
BLACK
6
CONTINUOUS
10
168.384
20
-64.5913
11
168.382
21
-64.5972
0
LINE
8
BLACK
6
CONTINUOUS
10
168.382
20
-64.5972
11
168.378
21
-64.5986
0
LINE
8
BLACK
6
CONTINUOUS
10
168.378
20
-64.5986
11
168.376
21
-64.6014
0
LINE
8
BLACK
6
CONTINUOUS
10
168.376
20
-64.6014
11
168.37
21
-64.6021
0
LINE
8
BLACK
6
CONTINUOUS
10
168.37
20
-64.6021
11
168.364
21
-64.6045
0
LINE
8
BLACK
6
CONTINUOUS
10
168.364
20
-64.6045
11
136.893
21
-64.6224
0
LINE
8
BLACK
6
CONTINUOUS
10
136.893
20
-64.6224
11
136.89
21
-64.6211
0
LINE
8
BLACK
6
CONTINUOUS
10
136.89
20
-64.6211
11
136.887
21
-64.6215
0
LINE
8
BLACK
6
CONTINUOUS
10
136.887
20
-64.6215
11
126.562
21
-61.8605
0
LINE
8
BLACK
6
CONTINUOUS
10
126.562
20
-61.8605
11
126.562
21
-61.8604
0
LINE
8
BLACK
6
CONTINUOUS
10
126.562
20
-61.8604
11
126.562
21
-61.8604
0
LINE
8
BLACK
6
CONTINUOUS
10
126.562
20
-61.8604
11
126.554
21
-61.8545
0
LINE
8
BLACK
6
CONTINUOUS
10
126.554
20
-61.8545
11
126.547
21
-61.8488
0
LINE
8
BLACK
6
CONTINUOUS
10
126.547
20
-61.8488
11
126.547
21
-61.8488
0
LINE
8
BLACK
6
CONTINUOUS
10
126.547
20
-61.8488
11
126.547
21
-61.8488
0
LINE
8
BLACK
6
CONTINUOUS
10
126.547
20
-61.8488
11
126.545
21
-61.8393
0
LINE
8
BLACK
6
CONTINUOUS
10
126.545
20
-61.8393
11
126.544
21
-61.8298
0
LINE
8
BLACK
6
CONTINUOUS
10
126.544
20
-61.8298
11
126.544
21
-61.8298
0
LINE
8
BLACK
6
CONTINUOUS
10
126.544
20
-61.8298
11
126.544
21
-61.8298
0
LINE
8
BLACK
6
CONTINUOUS
10
126.544
20
-61.8298
11
126.709
21
-61.2188
0
LINE
8
BLACK
6
CONTINUOUS
10
126.709
20
-61.2188
11
126.707
21
-61.2056
0
LINE
8
BLACK
6
CONTINUOUS
10
126.707
20
-61.2056
11
133.423
21
-36.3606
0
LINE
8
BLACK
6
CONTINUOUS
10
133.423
20
-36.3606
11
133.423
21
-36.3606
0
LINE
8
BLACK
6
CONTINUOUS
10
133.423
20
-36.3606
11
133.495
21
-36.1518
0
LINE
8
BLACK
6
CONTINUOUS
10
133.495
20
-36.1518
11
133.597
21
-35.9553
0
LINE
8
BLACK
6
CONTINUOUS
10
133.597
20
-35.9553
11
133.725
21
-35.7753
0
LINE
8
BLACK
6
CONTINUOUS
10
133.725
20
-35.7753
11
133.877
21
-35.6153
0
LINE
8
BLACK
6
CONTINUOUS
10
133.877
20
-35.6153
11
134.051
21
-35.4787
0
LINE
8
BLACK
6
CONTINUOUS
10
134.051
20
-35.4787
11
134.242
21
-35.3682
0
LINE
8
BLACK
6
CONTINUOUS
10
134.242
20
-35.3682
11
134.448
21
-35.2861
0
LINE
8
BLACK
6
CONTINUOUS
10
134.448
20
-35.2861
11
134.662
21
-35.234
0
LINE
8
BLACK
6
CONTINUOUS
10
134.662
20
-35.234
11
134.882
21
-35.213
0
LINE
8
BLACK
6
CONTINUOUS
10
134.882
20
-35.213
11
135.103
21
-35.2235
0
LINE
8
BLACK
6
CONTINUOUS
10
134.67
20
-35.2795
11
134.462
21
-35.33
0
LINE
8
BLACK
6
CONTINUOUS
10
134.462
20
-35.33
11
134.263
21
-35.4097
0
LINE
8
BLACK
6
CONTINUOUS
10
134.263
20
-35.4097
11
134.077
21
-35.517
0
LINE
8
BLACK
6
CONTINUOUS
10
134.077
20
-35.517
11
133.908
21
-35.6495
0
LINE
8
BLACK
6
CONTINUOUS
10
133.908
20
-35.6495
11
133.76
21
-35.8047
0
LINE
8
BLACK
6
CONTINUOUS
10
133.76
20
-35.8047
11
133.636
21
-35.9794
0
LINE
8
BLACK
6
CONTINUOUS
10
133.636
20
-35.9794
11
133.538
21
-36.1699
0
LINE
8
BLACK
6
CONTINUOUS
10
133.538
20
-36.1699
11
133.47
21
-36.3651
0
LINE
8
BLACK
6
CONTINUOUS
10
133.47
20
-36.3651
11
133.471
21
-36.3736
0
LINE
8
BLACK
6
CONTINUOUS
10
133.471
20
-36.3736
11
133.471
21
-36.3736
0
LINE
8
BLACK
6
CONTINUOUS
10
133.471
20
-36.3736
11
133.471
21
-36.3736
0
LINE
8
BLACK
6
CONTINUOUS
10
133.471
20
-36.3736
11
126.599
21
-61.8186
0
LINE
8
BLACK
6
CONTINUOUS
10
126.599
20
-61.8186
11
136.897
21
-64.5724
0
LINE
8
BLACK
6
CONTINUOUS
10
136.897
20
-64.5724
11
168.345
21
-64.5545
0
LINE
8
BLACK
6
CONTINUOUS
10
168.345
20
-64.5545
11
173.781
21
-45.6613
0
LINE
8
BLACK
6
CONTINUOUS
10
173.781
20
-45.6613
11
142.029
21
-37.119
0
LINE
8
BLACK
6
CONTINUOUS
10
142.029
20
-37.119
11
142.029
21
-37.119
0
LINE
8
BLACK
6
CONTINUOUS
10
142.029
20
-37.119
11
135.307
21
-35.3136
0
LINE
8
BLACK
6
CONTINUOUS
10
135.307
20
-35.3136
11
135.307
21
-35.3136
0
LINE
8
BLACK
6
CONTINUOUS
10
135.307
20
-35.3136
11
135.307
21
-35.3136
0
LINE
8
BLACK
6
CONTINUOUS
10
135.307
20
-35.3136
11
135.3
21
-35.3084
0
LINE
8
BLACK
6
CONTINUOUS
10
135.3
20
-35.3084
11
135.098
21
-35.2693
0
LINE
8
BLACK
6
CONTINUOUS
10
135.098
20
-35.2693
11
134.883
21
-35.2591
0
LINE
8
BLACK
6
CONTINUOUS
10
134.883
20
-35.2591
11
134.67
21
-35.2795
0
LINE
8
BLACK
6
CONTINUOUS
10
162.704
20
-59.2471
11
162.803
21
-58.9561
0
LINE
8
BLACK
6
CONTINUOUS
10
162.803
20
-58.9561
11
162.939
21
-58.6805
0
LINE
8
BLACK
6
CONTINUOUS
10
162.939
20
-58.6805
11
163.109
21
-58.4251
0
LINE
8
BLACK
6
CONTINUOUS
10
163.109
20
-58.4251
11
163.312
21
-58.194
0
LINE
8
BLACK
6
CONTINUOUS
10
163.312
20
-58.194
11
163.543
21
-57.9914
0
LINE
8
BLACK
6
CONTINUOUS
10
163.543
20
-57.9914
11
163.798
21
-57.8207
0
LINE
8
BLACK
6
CONTINUOUS
10
163.798
20
-57.8207
11
164.074
21
-57.6848
0
LINE
8
BLACK
6
CONTINUOUS
10
164.074
20
-57.6848
11
164.365
21
-57.586
0
LINE
8
BLACK
6
CONTINUOUS
10
164.365
20
-57.586
11
164.666
21
-57.5261
0
LINE
8
BLACK
6
CONTINUOUS
10
164.666
20
-57.5261
11
164.973
21
-57.506
0
LINE
8
BLACK
6
CONTINUOUS
10
164.973
20
-57.506
11
165.28
21
-57.5261
0
LINE
8
BLACK
6
CONTINUOUS
10
165.28
20
-57.5261
11
165.581
21
-57.586
0
LINE
8
BLACK
6
CONTINUOUS
10
165.581
20
-57.586
11
165.872
21
-57.6848
0
LINE
8
BLACK
6
CONTINUOUS
10
165.872
20
-57.6848
11
166.148
21
-57.8207
0
LINE
8
BLACK
6
CONTINUOUS
10
166.148
20
-57.8207
11
166.403
21
-57.9914
0
LINE
8
BLACK
6
CONTINUOUS
10
166.403
20
-57.9914
11
166.634
21
-58.194
0
LINE
8
BLACK
6
CONTINUOUS
10
166.634
20
-58.194
11
166.837
21
-58.4251
0
LINE
8
BLACK
6
CONTINUOUS
10
166.837
20
-58.4251
11
167.007
21
-58.6805
0
LINE
8
BLACK
6
CONTINUOUS
10
167.007
20
-58.6805
11
167.143
21
-58.9561
0
LINE
8
BLACK
6
CONTINUOUS
10
167.143
20
-58.9561
11
167.242
21
-59.2471
0
LINE
8
BLACK
6
CONTINUOUS
10
167.242
20
-59.2471
11
167.302
21
-59.5485
0
LINE
8
BLACK
6
CONTINUOUS
10
167.302
20
-59.5485
11
167.322
21
-59.8551
0
LINE
8
BLACK
6
CONTINUOUS
10
167.322
20
-59.8551
11
167.302
21
-60.1617
0
LINE
8
BLACK
6
CONTINUOUS
10
167.302
20
-60.1617
11
167.242
21
-60.4631
0
LINE
8
BLACK
6
CONTINUOUS
10
167.242
20
-60.4631
11
167.143
21
-60.7541
0
LINE
8
BLACK
6
CONTINUOUS
10
167.143
20
-60.7541
11
167.007
21
-61.0296
0
LINE
8
BLACK
6
CONTINUOUS
10
167.007
20
-61.0296
11
166.837
21
-61.2851
0
LINE
8
BLACK
6
CONTINUOUS
10
166.837
20
-61.2851
11
166.634
21
-61.5162
0
LINE
8
BLACK
6
CONTINUOUS
10
166.634
20
-61.5162
11
166.403
21
-61.7188
0
LINE
8
BLACK
6
CONTINUOUS
10
166.403
20
-61.7188
11
166.148
21
-61.8895
0
LINE
8
BLACK
6
CONTINUOUS
10
166.148
20
-61.8895
11
165.872
21
-62.0254
0
LINE
8
BLACK
6
CONTINUOUS
10
165.872
20
-62.0254
11
165.581
21
-62.1242
0
LINE
8
BLACK
6
CONTINUOUS
10
165.581
20
-62.1242
11
165.28
21
-62.1841
0
LINE
8
BLACK
6
CONTINUOUS
10
165.28
20
-62.1841
11
164.973
21
-62.2042
0
LINE
8
BLACK
6
CONTINUOUS
10
164.973
20
-62.2042
11
164.666
21
-62.1841
0
LINE
8
BLACK
6
CONTINUOUS
10
164.666
20
-62.1841
11
164.365
21
-62.1242
0
LINE
8
BLACK
6
CONTINUOUS
10
164.365
20
-62.1242
11
164.074
21
-62.0254
0
LINE
8
BLACK
6
CONTINUOUS
10
164.074
20
-62.0254
11
163.798
21
-61.8895
0
LINE
8
BLACK
6
CONTINUOUS
10
163.798
20
-61.8895
11
163.543
21
-61.7188
0
LINE
8
BLACK
6
CONTINUOUS
10
163.543
20
-61.7188
11
163.312
21
-61.5162
0
LINE
8
BLACK
6
CONTINUOUS
10
163.312
20
-61.5162
11
163.109
21
-61.2851
0
LINE
8
BLACK
6
CONTINUOUS
10
163.109
20
-61.2851
11
162.939
21
-61.0296
0
LINE
8
BLACK
6
CONTINUOUS
10
162.939
20
-61.0296
11
162.803
21
-60.7541
0
LINE
8
BLACK
6
CONTINUOUS
10
162.803
20
-60.7541
11
162.704
21
-60.4631
0
LINE
8
BLACK
6
CONTINUOUS
10
162.704
20
-60.4631
11
162.644
21
-60.1617
0
LINE
8
BLACK
6
CONTINUOUS
10
162.644
20
-60.1617
11
162.624
21
-59.8551
0
LINE
8
BLACK
6
CONTINUOUS
10
162.624
20
-59.8551
11
162.644
21
-59.5485
0
LINE
8
BLACK
6
CONTINUOUS
10
162.644
20
-59.5485
11
162.704
21
-59.2471
0
LINE
8
BLACK
6
CONTINUOUS
10
162.747
20
-60.4514
11
162.844
21
-60.7368
0
LINE
8
BLACK
6
CONTINUOUS
10
162.844
20
-60.7368
11
162.978
21
-61.0071
0
LINE
8
BLACK
6
CONTINUOUS
10
162.978
20
-61.0071
11
163.145
21
-61.2577
0
LINE
8
BLACK
6
CONTINUOUS
10
163.145
20
-61.2577
11
163.344
21
-61.4843
0
LINE
8
BLACK
6
CONTINUOUS
10
163.344
20
-61.4843
11
163.57
21
-61.683
0
LINE
8
BLACK
6
CONTINUOUS
10
163.57
20
-61.683
11
163.821
21
-61.8505
0
LINE
8
BLACK
6
CONTINUOUS
10
163.821
20
-61.8505
11
164.091
21
-61.9837
0
LINE
8
BLACK
6
CONTINUOUS
10
164.091
20
-61.9837
11
164.377
21
-62.0806
0
LINE
8
BLACK
6
CONTINUOUS
10
164.377
20
-62.0806
11
164.672
21
-62.1394
0
LINE
8
BLACK
6
CONTINUOUS
10
164.672
20
-62.1394
11
164.973
21
-62.1591
0
LINE
8
BLACK
6
CONTINUOUS
10
164.973
20
-62.1591
11
165.274
21
-62.1394
0
LINE
8
BLACK
6
CONTINUOUS
10
165.274
20
-62.1394
11
165.569
21
-62.0806
0
LINE
8
BLACK
6
CONTINUOUS
10
165.569
20
-62.0806
11
165.855
21
-61.9837
0
LINE
8
BLACK
6
CONTINUOUS
10
165.855
20
-61.9837
11
166.125
21
-61.8505
0
LINE
8
BLACK
6
CONTINUOUS
10
166.125
20
-61.8505
11
166.376
21
-61.683
0
LINE
8
BLACK
6
CONTINUOUS
10
166.376
20
-61.683
11
166.602
21
-61.4843
0
LINE
8
BLACK
6
CONTINUOUS
10
166.602
20
-61.4843
11
166.801
21
-61.2577
0
LINE
8
BLACK
6
CONTINUOUS
10
166.801
20
-61.2577
11
166.968
21
-61.0071
0
LINE
8
BLACK
6
CONTINUOUS
10
166.968
20
-61.0071
11
167.102
21
-60.7368
0
LINE
8
BLACK
6
CONTINUOUS
10
167.102
20
-60.7368
11
167.199
21
-60.4514
0
LINE
8
BLACK
6
CONTINUOUS
10
167.199
20
-60.4514
11
167.257
21
-60.1558
0
LINE
8
BLACK
6
CONTINUOUS
10
167.257
20
-60.1558
11
167.277
21
-59.8551
0
LINE
8
BLACK
6
CONTINUOUS
10
167.277
20
-59.8551
11
167.257
21
-59.5544
0
LINE
8
BLACK
6
CONTINUOUS
10
167.257
20
-59.5544
11
167.199
21
-59.2588
0
LINE
8
BLACK
6
CONTINUOUS
10
167.199
20
-59.2588
11
167.102
21
-58.9734
0
LINE
8
BLACK
6
CONTINUOUS
10
167.102
20
-58.9734
11
166.968
21
-58.7031
0
LINE
8
BLACK
6
CONTINUOUS
10
166.968
20
-58.7031
11
166.801
21
-58.4525
0
LINE
8
BLACK
6
CONTINUOUS
10
166.801
20
-58.4525
11
166.602
21
-58.2259
0
LINE
8
BLACK
6
CONTINUOUS
10
166.602
20
-58.2259
11
166.376
21
-58.0272
0
LINE
8
BLACK
6
CONTINUOUS
10
166.376
20
-58.0272
11
166.125
21
-57.8597
0
LINE
8
BLACK
6
CONTINUOUS
10
166.125
20
-57.8597
11
165.855
21
-57.7265
0
LINE
8
BLACK
6
CONTINUOUS
10
165.855
20
-57.7265
11
165.569
21
-57.6296
0
LINE
8
BLACK
6
CONTINUOUS
10
165.569
20
-57.6296
11
165.274
21
-57.5708
0
LINE
8
BLACK
6
CONTINUOUS
10
165.274
20
-57.5708
11
164.973
21
-57.5511
0
LINE
8
BLACK
6
CONTINUOUS
10
164.973
20
-57.5511
11
164.672
21
-57.5708
0
LINE
8
BLACK
6
CONTINUOUS
10
164.672
20
-57.5708
11
164.377
21
-57.6296
0
LINE
8
BLACK
6
CONTINUOUS
10
164.377
20
-57.6296
11
164.091
21
-57.7265
0
LINE
8
BLACK
6
CONTINUOUS
10
164.091
20
-57.7265
11
163.821
21
-57.8597
0
LINE
8
BLACK
6
CONTINUOUS
10
163.821
20
-57.8597
11
163.57
21
-58.0272
0
LINE
8
BLACK
6
CONTINUOUS
10
163.57
20
-58.0272
11
163.344
21
-58.2259
0
LINE
8
BLACK
6
CONTINUOUS
10
163.344
20
-58.2259
11
163.145
21
-58.4525
0
LINE
8
BLACK
6
CONTINUOUS
10
163.145
20
-58.4525
11
162.978
21
-58.7031
0
LINE
8
BLACK
6
CONTINUOUS
10
162.978
20
-58.7031
11
162.844
21
-58.9734
0
LINE
8
BLACK
6
CONTINUOUS
10
162.844
20
-58.9734
11
162.747
21
-59.2588
0
LINE
8
BLACK
6
CONTINUOUS
10
162.747
20
-59.2588
11
162.689
21
-59.5544
0
LINE
8
BLACK
6
CONTINUOUS
10
162.689
20
-59.5544
11
162.669
21
-59.8551
0
LINE
8
BLACK
6
CONTINUOUS
10
162.669
20
-59.8551
11
162.689
21
-60.1558
0
LINE
8
BLACK
6
CONTINUOUS
10
162.689
20
-60.1558
11
162.747
21
-60.4514
0
LINE
8
BLACK
6
CONTINUOUS
10
128.528
20
-59.0185
11
128.627
21
-58.7275
0
LINE
8
BLACK
6
CONTINUOUS
10
128.627
20
-58.7275
11
128.763
21
-58.4519
0
LINE
8
BLACK
6
CONTINUOUS
10
128.763
20
-58.4519
11
128.934
21
-58.1965
0
LINE
8
BLACK
6
CONTINUOUS
10
128.934
20
-58.1965
11
129.136
21
-57.9654
0
LINE
8
BLACK
6
CONTINUOUS
10
129.136
20
-57.9654
11
129.367
21
-57.7628
0
LINE
8
BLACK
6
CONTINUOUS
10
129.367
20
-57.7628
11
129.623
21
-57.5921
0
LINE
8
BLACK
6
CONTINUOUS
10
129.623
20
-57.5921
11
129.898
21
-57.4562
0
LINE
8
BLACK
6
CONTINUOUS
10
129.898
20
-57.4562
11
130.189
21
-57.3574
0
LINE
8
BLACK
6
CONTINUOUS
10
130.189
20
-57.3574
11
130.491
21
-57.2975
0
LINE
8
BLACK
6
CONTINUOUS
10
130.491
20
-57.2975
11
130.797
21
-57.2774
0
LINE
8
BLACK
6
CONTINUOUS
10
130.797
20
-57.2774
11
131.104
21
-57.2975
0
LINE
8
BLACK
6
CONTINUOUS
10
131.104
20
-57.2975
11
131.405
21
-57.3574
0
LINE
8
BLACK
6
CONTINUOUS
10
131.405
20
-57.3574
11
131.696
21
-57.4562
0
LINE
8
BLACK
6
CONTINUOUS
10
131.696
20
-57.4562
11
131.972
21
-57.5921
0
LINE
8
BLACK
6
CONTINUOUS
10
131.972
20
-57.5921
11
132.227
21
-57.7628
0
LINE
8
BLACK
6
CONTINUOUS
10
132.227
20
-57.7628
11
132.458
21
-57.9654
0
LINE
8
BLACK
6
CONTINUOUS
10
132.458
20
-57.9654
11
132.661
21
-58.1965
0
LINE
8
BLACK
6
CONTINUOUS
10
132.661
20
-58.1965
11
132.832
21
-58.4519
0
LINE
8
BLACK
6
CONTINUOUS
10
132.832
20
-58.4519
11
132.968
21
-58.7275
0
LINE
8
BLACK
6
CONTINUOUS
10
132.968
20
-58.7275
11
133.066
21
-59.0185
0
LINE
8
BLACK
6
CONTINUOUS
10
133.066
20
-59.0185
11
133.126
21
-59.3199
0
LINE
8
BLACK
6
CONTINUOUS
10
133.126
20
-59.3199
11
133.146
21
-59.6265
0
LINE
8
BLACK
6
CONTINUOUS
10
133.146
20
-59.6265
11
133.126
21
-59.9331
0
LINE
8
BLACK
6
CONTINUOUS
10
133.126
20
-59.9331
11
133.066
21
-60.2345
0
LINE
8
BLACK
6
CONTINUOUS
10
133.066
20
-60.2345
11
132.968
21
-60.5255
0
LINE
8
BLACK
6
CONTINUOUS
10
132.968
20
-60.5255
11
132.832
21
-60.801
0
LINE
8
BLACK
6
CONTINUOUS
10
132.832
20
-60.801
11
132.661
21
-61.0565
0
LINE
8
BLACK
6
CONTINUOUS
10
132.661
20
-61.0565
11
132.458
21
-61.2876
0
LINE
8
BLACK
6
CONTINUOUS
10
132.458
20
-61.2876
11
132.227
21
-61.4902
0
LINE
8
BLACK
6
CONTINUOUS
10
132.227
20
-61.4902
11
131.972
21
-61.6609
0
LINE
8
BLACK
6
CONTINUOUS
10
131.972
20
-61.6609
11
131.696
21
-61.7968
0
LINE
8
BLACK
6
CONTINUOUS
10
131.696
20
-61.7968
11
131.405
21
-61.8956
0
LINE
8
BLACK
6
CONTINUOUS
10
131.405
20
-61.8956
11
131.104
21
-61.9555
0
LINE
8
BLACK
6
CONTINUOUS
10
131.104
20
-61.9555
11
130.797
21
-61.9756
0
LINE
8
BLACK
6
CONTINUOUS
10
130.797
20
-61.9756
11
130.491
21
-61.9555
0
LINE
8
BLACK
6
CONTINUOUS
10
130.491
20
-61.9555
11
130.189
21
-61.8956
0
LINE
8
BLACK
6
CONTINUOUS
10
130.189
20
-61.8956
11
129.898
21
-61.7968
0
LINE
8
BLACK
6
CONTINUOUS
10
129.898
20
-61.7968
11
129.623
21
-61.6609
0
LINE
8
BLACK
6
CONTINUOUS
10
129.623
20
-61.6609
11
129.367
21
-61.4902
0
LINE
8
BLACK
6
CONTINUOUS
10
129.367
20
-61.4902
11
129.136
21
-61.2876
0
LINE
8
BLACK
6
CONTINUOUS
10
129.136
20
-61.2876
11
128.934
21
-61.0565
0
LINE
8
BLACK
6
CONTINUOUS
10
128.934
20
-61.0565
11
128.763
21
-60.801
0
LINE
8
BLACK
6
CONTINUOUS
10
128.763
20
-60.801
11
128.627
21
-60.5255
0
LINE
8
BLACK
6
CONTINUOUS
10
128.627
20
-60.5255
11
128.528
21
-60.2345
0
LINE
8
BLACK
6
CONTINUOUS
10
128.528
20
-60.2345
11
128.468
21
-59.9331
0
LINE
8
BLACK
6
CONTINUOUS
10
128.468
20
-59.9331
11
128.448
21
-59.6265
0
LINE
8
BLACK
6
CONTINUOUS
10
128.448
20
-59.6265
11
128.468
21
-59.3199
0
LINE
8
BLACK
6
CONTINUOUS
10
128.468
20
-59.3199
11
128.528
21
-59.0185
0
LINE
8
BLACK
6
CONTINUOUS
10
128.572
20
-60.2228
11
128.669
21
-60.5082
0
LINE
8
BLACK
6
CONTINUOUS
10
128.669
20
-60.5082
11
128.802
21
-60.7785
0
LINE
8
BLACK
6
CONTINUOUS
10
128.802
20
-60.7785
11
128.969
21
-61.0291
0
LINE
8
BLACK
6
CONTINUOUS
10
128.969
20
-61.0291
11
129.168
21
-61.2557
0
LINE
8
BLACK
6
CONTINUOUS
10
129.168
20
-61.2557
11
129.395
21
-61.4544
0
LINE
8
BLACK
6
CONTINUOUS
10
129.395
20
-61.4544
11
129.645
21
-61.6219
0
LINE
8
BLACK
6
CONTINUOUS
10
129.645
20
-61.6219
11
129.916
21
-61.7551
0
LINE
8
BLACK
6
CONTINUOUS
10
129.916
20
-61.7551
11
130.201
21
-61.852
0
LINE
8
BLACK
6
CONTINUOUS
10
130.201
20
-61.852
11
130.497
21
-61.9108
0
LINE
8
BLACK
6
CONTINUOUS
10
130.497
20
-61.9108
11
130.797
21
-61.9305
0
LINE
8
BLACK
6
CONTINUOUS
10
130.797
20
-61.9305
11
131.098
21
-61.9108
0
LINE
8
BLACK
6
CONTINUOUS
10
131.098
20
-61.9108
11
131.394
21
-61.852
0
LINE
8
BLACK
6
CONTINUOUS
10
131.394
20
-61.852
11
131.679
21
-61.7551
0
LINE
8
BLACK
6
CONTINUOUS
10
131.679
20
-61.7551
11
131.949
21
-61.6219
0
LINE
8
BLACK
6
CONTINUOUS
10
131.949
20
-61.6219
11
132.2
21
-61.4544
0
LINE
8
BLACK
6
CONTINUOUS
10
132.2
20
-61.4544
11
132.426
21
-61.2557
0
LINE
8
BLACK
6
CONTINUOUS
10
132.426
20
-61.2557
11
132.625
21
-61.0291
0
LINE
8
BLACK
6
CONTINUOUS
10
132.625
20
-61.0291
11
132.793
21
-60.7785
0
LINE
8
BLACK
6
CONTINUOUS
10
132.793
20
-60.7785
11
132.926
21
-60.5082
0
LINE
8
BLACK
6
CONTINUOUS
10
132.926
20
-60.5082
11
133.023
21
-60.2228
0
LINE
8
BLACK
6
CONTINUOUS
10
133.023
20
-60.2228
11
133.082
21
-59.9272
0
LINE
8
BLACK
6
CONTINUOUS
10
133.082
20
-59.9272
11
133.101
21
-59.6265
0
LINE
8
BLACK
6
CONTINUOUS
10
133.101
20
-59.6265
11
133.082
21
-59.3258
0
LINE
8
BLACK
6
CONTINUOUS
10
133.082
20
-59.3258
11
133.023
21
-59.0302
0
LINE
8
BLACK
6
CONTINUOUS
10
133.023
20
-59.0302
11
132.926
21
-58.7448
0
LINE
8
BLACK
6
CONTINUOUS
10
132.926
20
-58.7448
11
132.793
21
-58.4745
0
LINE
8
BLACK
6
CONTINUOUS
10
132.793
20
-58.4745
11
132.625
21
-58.2239
0
LINE
8
BLACK
6
CONTINUOUS
10
132.625
20
-58.2239
11
132.426
21
-57.9973
0
LINE
8
BLACK
6
CONTINUOUS
10
132.426
20
-57.9973
11
132.2
21
-57.7986
0
LINE
8
BLACK
6
CONTINUOUS
10
132.2
20
-57.7986
11
131.949
21
-57.6311
0
LINE
8
BLACK
6
CONTINUOUS
10
131.949
20
-57.6311
11
131.679
21
-57.4979
0
LINE
8
BLACK
6
CONTINUOUS
10
131.679
20
-57.4979
11
131.394
21
-57.401
0
LINE
8
BLACK
6
CONTINUOUS
10
131.394
20
-57.401
11
131.098
21
-57.3422
0
LINE
8
BLACK
6
CONTINUOUS
10
131.098
20
-57.3422
11
130.797
21
-57.3225
0
LINE
8
BLACK
6
CONTINUOUS
10
130.797
20
-57.3225
11
130.497
21
-57.3422
0
LINE
8
BLACK
6
CONTINUOUS
10
130.497
20
-57.3422
11
130.201
21
-57.401
0
LINE
8
BLACK
6
CONTINUOUS
10
130.201
20
-57.401
11
129.916
21
-57.4979
0
LINE
8
BLACK
6
CONTINUOUS
10
129.916
20
-57.4979
11
129.645
21
-57.6311
0
LINE
8
BLACK
6
CONTINUOUS
10
129.645
20
-57.6311
11
129.395
21
-57.7986
0
LINE
8
BLACK
6
CONTINUOUS
10
129.395
20
-57.7986
11
129.168
21
-57.9973
0
LINE
8
BLACK
6
CONTINUOUS
10
129.168
20
-57.9973
11
128.969
21
-58.2239
0
LINE
8
BLACK
6
CONTINUOUS
10
128.969
20
-58.2239
11
128.802
21
-58.4745
0
LINE
8
BLACK
6
CONTINUOUS
10
128.802
20
-58.4745
11
128.669
21
-58.7448
0
LINE
8
BLACK
6
CONTINUOUS
10
128.669
20
-58.7448
11
128.572
21
-59.0302
0
LINE
8
BLACK
6
CONTINUOUS
10
128.572
20
-59.0302
11
128.513
21
-59.3258
0
LINE
8
BLACK
6
CONTINUOUS
10
128.513
20
-59.3258
11
128.493
21
-59.6265
0
LINE
8
BLACK
6
CONTINUOUS
10
128.493
20
-59.6265
11
128.513
21
-59.9272
0
LINE
8
BLACK
6
CONTINUOUS
10
128.513
20
-59.9272
11
128.572
21
-60.2228
0
LINE
8
BLACK
6
CONTINUOUS
10
166.552
20
-48.3124
11
166.651
21
-48.0214
0
LINE
8
BLACK
6
CONTINUOUS
10
166.651
20
-48.0214
11
166.787
21
-47.7458
0
LINE
8
BLACK
6
CONTINUOUS
10
166.787
20
-47.7458
11
166.957
21
-47.4904
0
LINE
8
BLACK
6
CONTINUOUS
10
166.957
20
-47.4904
11
167.16
21
-47.2593
0
LINE
8
BLACK
6
CONTINUOUS
10
167.16
20
-47.2593
11
167.391
21
-47.0567
0
LINE
8
BLACK
6
CONTINUOUS
10
167.391
20
-47.0567
11
167.647
21
-46.886
0
LINE
8
BLACK
6
CONTINUOUS
10
167.647
20
-46.886
11
167.922
21
-46.7501
0
LINE
8
BLACK
6
CONTINUOUS
10
167.922
20
-46.7501
11
168.213
21
-46.6513
0
LINE
8
BLACK
6
CONTINUOUS
10
168.213
20
-46.6513
11
168.514
21
-46.5914
0
LINE
8
BLACK
6
CONTINUOUS
10
168.514
20
-46.5914
11
168.821
21
-46.5713
0
LINE
8
BLACK
6
CONTINUOUS
10
168.821
20
-46.5713
11
169.128
21
-46.5914
0
LINE
8
BLACK
6
CONTINUOUS
10
169.128
20
-46.5914
11
169.429
21
-46.6513
0
LINE
8
BLACK
6
CONTINUOUS
10
169.429
20
-46.6513
11
169.72
21
-46.7501
0
LINE
8
BLACK
6
CONTINUOUS
10
169.72
20
-46.7501
11
169.996
21
-46.886
0
LINE
8
BLACK
6
CONTINUOUS
10
169.996
20
-46.886
11
170.251
21
-47.0567
0
LINE
8
BLACK
6
CONTINUOUS
10
170.251
20
-47.0567
11
170.482
21
-47.2593
0
LINE
8
BLACK
6
CONTINUOUS
10
170.482
20
-47.2593
11
170.685
21
-47.4904
0
LINE
8
BLACK
6
CONTINUOUS
10
170.685
20
-47.4904
11
170.855
21
-47.7458
0
LINE
8
BLACK
6
CONTINUOUS
10
170.855
20
-47.7458
11
170.991
21
-48.0214
0
LINE
8
BLACK
6
CONTINUOUS
10
170.991
20
-48.0214
11
171.09
21
-48.3124
0
LINE
8
BLACK
6
CONTINUOUS
10
171.09
20
-48.3124
11
171.15
21
-48.6138
0
LINE
8
BLACK
6
CONTINUOUS
10
171.15
20
-48.6138
11
171.17
21
-48.9204
0
LINE
8
BLACK
6
CONTINUOUS
10
171.17
20
-48.9204
11
171.15
21
-49.227
0
LINE
8
BLACK
6
CONTINUOUS
10
171.15
20
-49.227
11
171.09
21
-49.5284
0
LINE
8
BLACK
6
CONTINUOUS
10
171.09
20
-49.5284
11
170.991
21
-49.8194
0
LINE
8
BLACK
6
CONTINUOUS
10
170.991
20
-49.8194
11
170.855
21
-50.0949
0
LINE
8
BLACK
6
CONTINUOUS
10
170.855
20
-50.0949
11
170.685
21
-50.3504
0
LINE
8
BLACK
6
CONTINUOUS
10
170.685
20
-50.3504
11
170.482
21
-50.5815
0
LINE
8
BLACK
6
CONTINUOUS
10
170.482
20
-50.5815
11
170.251
21
-50.7841
0
LINE
8
BLACK
6
CONTINUOUS
10
170.251
20
-50.7841
11
169.996
21
-50.9548
0
LINE
8
BLACK
6
CONTINUOUS
10
169.996
20
-50.9548
11
169.72
21
-51.0907
0
LINE
8
BLACK
6
CONTINUOUS
10
169.72
20
-51.0907
11
169.429
21
-51.1895
0
LINE
8
BLACK
6
CONTINUOUS
10
169.429
20
-51.1895
11
169.128
21
-51.2494
0
LINE
8
BLACK
6
CONTINUOUS
10
169.128
20
-51.2494
11
168.821
21
-51.2695
0
LINE
8
BLACK
6
CONTINUOUS
10
168.821
20
-51.2695
11
168.514
21
-51.2494
0
LINE
8
BLACK
6
CONTINUOUS
10
168.514
20
-51.2494
11
168.213
21
-51.1895
0
LINE
8
BLACK
6
CONTINUOUS
10
168.213
20
-51.1895
11
167.922
21
-51.0907
0
LINE
8
BLACK
6
CONTINUOUS
10
167.922
20
-51.0907
11
167.647
21
-50.9548
0
LINE
8
BLACK
6
CONTINUOUS
10
167.647
20
-50.9548
11
167.391
21
-50.7841
0
LINE
8
BLACK
6
CONTINUOUS
10
167.391
20
-50.7841
11
167.16
21
-50.5815
0
LINE
8
BLACK
6
CONTINUOUS
10
167.16
20
-50.5815
11
166.957
21
-50.3504
0
LINE
8
BLACK
6
CONTINUOUS
10
166.957
20
-50.3504
11
166.787
21
-50.0949
0
LINE
8
BLACK
6
CONTINUOUS
10
166.787
20
-50.0949
11
166.651
21
-49.8194
0
LINE
8
BLACK
6
CONTINUOUS
10
166.651
20
-49.8194
11
166.552
21
-49.5284
0
LINE
8
BLACK
6
CONTINUOUS
10
166.552
20
-49.5284
11
166.492
21
-49.227
0
LINE
8
BLACK
6
CONTINUOUS
10
166.492
20
-49.227
11
166.472
21
-48.9204
0
LINE
8
BLACK
6
CONTINUOUS
10
166.472
20
-48.9204
11
166.492
21
-48.6138
0
LINE
8
BLACK
6
CONTINUOUS
10
166.492
20
-48.6138
11
166.552
21
-48.3124
0
LINE
8
BLACK
6
CONTINUOUS
10
166.596
20
-49.5167
11
166.692
21
-49.8021
0
LINE
8
BLACK
6
CONTINUOUS
10
166.692
20
-49.8021
11
166.826
21
-50.0724
0
LINE
8
BLACK
6
CONTINUOUS
10
166.826
20
-50.0724
11
166.993
21
-50.323
0
LINE
8
BLACK
6
CONTINUOUS
10
166.993
20
-50.323
11
167.192
21
-50.5496
0
LINE
8
BLACK
6
CONTINUOUS
10
167.192
20
-50.5496
11
167.418
21
-50.7483
0
LINE
8
BLACK
6
CONTINUOUS
10
167.418
20
-50.7483
11
167.669
21
-50.9158
0
LINE
8
BLACK
6
CONTINUOUS
10
167.669
20
-50.9158
11
167.939
21
-51.049
0
LINE
8
BLACK
6
CONTINUOUS
10
167.939
20
-51.049
11
168.225
21
-51.1459
0
LINE
8
BLACK
6
CONTINUOUS
10
168.225
20
-51.1459
11
168.52
21
-51.2047
0
LINE
8
BLACK
6
CONTINUOUS
10
168.52
20
-51.2047
11
168.821
21
-51.2244
0
LINE
8
BLACK
6
CONTINUOUS
10
168.821
20
-51.2244
11
169.122
21
-51.2047
0
LINE
8
BLACK
6
CONTINUOUS
10
169.122
20
-51.2047
11
169.417
21
-51.1459
0
LINE
8
BLACK
6
CONTINUOUS
10
169.417
20
-51.1459
11
169.703
21
-51.049
0
LINE
8
BLACK
6
CONTINUOUS
10
169.703
20
-51.049
11
169.973
21
-50.9158
0
LINE
8
BLACK
6
CONTINUOUS
10
169.973
20
-50.9158
11
170.224
21
-50.7483
0
LINE
8
BLACK
6
CONTINUOUS
10
170.224
20
-50.7483
11
170.45
21
-50.5496
0
LINE
8
BLACK
6
CONTINUOUS
10
170.45
20
-50.5496
11
170.649
21
-50.323
0
LINE
8
BLACK
6
CONTINUOUS
10
170.649
20
-50.323
11
170.816
21
-50.0724
0
LINE
8
BLACK
6
CONTINUOUS
10
170.816
20
-50.0724
11
170.95
21
-49.8021
0
LINE
8
BLACK
6
CONTINUOUS
10
170.95
20
-49.8021
11
171.047
21
-49.5167
0
LINE
8
BLACK
6
CONTINUOUS
10
171.047
20
-49.5167
11
171.105
21
-49.2211
0
LINE
8
BLACK
6
CONTINUOUS
10
171.105
20
-49.2211
11
171.125
21
-48.9204
0
LINE
8
BLACK
6
CONTINUOUS
10
171.125
20
-48.9204
11
171.105
21
-48.6197
0
LINE
8
BLACK
6
CONTINUOUS
10
171.105
20
-48.6197
11
171.047
21
-48.3241
0
LINE
8
BLACK
6
CONTINUOUS
10
171.047
20
-48.3241
11
170.95
21
-48.0387
0
LINE
8
BLACK
6
CONTINUOUS
10
170.95
20
-48.0387
11
170.816
21
-47.7684
0
LINE
8
BLACK
6
CONTINUOUS
10
170.816
20
-47.7684
11
170.649
21
-47.5178
0
LINE
8
BLACK
6
CONTINUOUS
10
170.649
20
-47.5178
11
170.45
21
-47.2912
0
LINE
8
BLACK
6
CONTINUOUS
10
170.45
20
-47.2912
11
170.224
21
-47.0925
0
LINE
8
BLACK
6
CONTINUOUS
10
170.224
20
-47.0925
11
169.973
21
-46.925
0
LINE
8
BLACK
6
CONTINUOUS
10
169.973
20
-46.925
11
169.703
21
-46.7918
0
LINE
8
BLACK
6
CONTINUOUS
10
169.703
20
-46.7918
11
169.417
21
-46.6949
0
LINE
8
BLACK
6
CONTINUOUS
10
169.417
20
-46.6949
11
169.122
21
-46.6361
0
LINE
8
BLACK
6
CONTINUOUS
10
169.122
20
-46.6361
11
168.821
21
-46.6164
0
LINE
8
BLACK
6
CONTINUOUS
10
168.821
20
-46.6164
11
168.52
21
-46.6361
0
LINE
8
BLACK
6
CONTINUOUS
10
168.52
20
-46.6361
11
168.225
21
-46.6949
0
LINE
8
BLACK
6
CONTINUOUS
10
168.225
20
-46.6949
11
167.939
21
-46.7918
0
LINE
8
BLACK
6
CONTINUOUS
10
167.939
20
-46.7918
11
167.669
21
-46.925
0
LINE
8
BLACK
6
CONTINUOUS
10
167.669
20
-46.925
11
167.418
21
-47.0925
0
LINE
8
BLACK
6
CONTINUOUS
10
167.418
20
-47.0925
11
167.192
21
-47.2912
0
LINE
8
BLACK
6
CONTINUOUS
10
167.192
20
-47.2912
11
166.993
21
-47.5178
0
LINE
8
BLACK
6
CONTINUOUS
10
166.993
20
-47.5178
11
166.826
21
-47.7684
0
LINE
8
BLACK
6
CONTINUOUS
10
166.826
20
-47.7684
11
166.692
21
-48.0387
0
LINE
8
BLACK
6
CONTINUOUS
10
166.692
20
-48.0387
11
166.596
21
-48.3241
0
LINE
8
BLACK
6
CONTINUOUS
10
166.596
20
-48.3241
11
166.537
21
-48.6197
0
LINE
8
BLACK
6
CONTINUOUS
10
166.537
20
-48.6197
11
166.517
21
-48.9204
0
LINE
8
BLACK
6
CONTINUOUS
10
166.517
20
-48.9204
11
166.537
21
-49.2211
0
LINE
8
BLACK
6
CONTINUOUS
10
166.537
20
-49.2211
11
166.596
21
-49.5167
  0
ENDSEC
  0
EOF
