G04 #@! TF.GenerationSoftware,KiCad,Pcbnew,6.0.7-f9a2dced07~116~ubuntu20.04.1*
G04 #@! TF.CreationDate,2022-09-22T19:19:26+08:00*
G04 #@! TF.ProjectId,V4,56342e6b-6963-4616-945f-706362585858,rev?*
G04 #@! TF.SameCoordinates,Original*
G04 #@! TF.FileFunction,Paste,Bot*
G04 #@! TF.FilePolarity,Positive*
%FSLAX46Y46*%
G04 Gerber Fmt 4.6, Leading zero omitted, Abs format (unit mm)*
G04 Created by KiCad (PCBNEW 6.0.7-f9a2dced07~116~ubuntu20.04.1) date 2022-09-22 19:19:26*
%MOMM*%
%LPD*%
G01*
G04 APERTURE LIST*
G04 #@! TA.AperFunction,Profile*
%ADD10C,0.050000*%
G04 #@! TD*
%ADD11R,2.600000X2.600000*%
%ADD12R,1.500000X1.000000*%
G04 APERTURE END LIST*
D10*
X59436000Y-154686000D02*
X59436000Y-78486000D01*
X59436000Y-154686000D02*
G75*
G03*
X61722000Y-156972000I2286000J0D01*
G01*
X134962250Y-76200000D02*
X131178300Y-76200000D01*
X134962250Y-76200047D02*
G75*
G03*
X136434319Y-75070441I-50J1524047D01*
G01*
X60960000Y-76200000D02*
G75*
G03*
X59436000Y-77724000I0J-1524000D01*
G01*
X61722000Y-76200000D02*
X131178300Y-76200000D01*
X61722000Y-76200000D02*
X60960000Y-76200000D01*
X252222000Y-156972000D02*
X61722000Y-156972000D01*
X254507993Y-79667100D02*
G75*
G03*
X253365350Y-78179844I-1523993J11700D01*
G01*
X252222000Y-156972000D02*
G75*
G03*
X254508000Y-154686000I0J2286000D01*
G01*
X59436000Y-77724000D02*
X59436000Y-78486000D01*
X145016441Y-49147744D02*
X151738470Y-50953142D01*
X145016443Y-49147735D02*
G75*
G03*
X143149931Y-50225373I-394443J-1472065D01*
G01*
X254507999Y-79667100D02*
X254508000Y-154686000D01*
X151738470Y-50953142D02*
X253365350Y-78179844D01*
X143149931Y-50225373D02*
X136434319Y-75070441D01*
D11*
X226922000Y-151111000D03*
X215372000Y-148911000D03*
X226922001Y-113011000D03*
X215372001Y-110811000D03*
X150722000Y-113011000D03*
X139172000Y-110811000D03*
X245972000Y-151111000D03*
X234422000Y-148911000D03*
X131672000Y-93961000D03*
X120122000Y-91761000D03*
X131672000Y-132061000D03*
X120122000Y-129861000D03*
X131672000Y-151111000D03*
X120122000Y-148911000D03*
X188822000Y-93961000D03*
X177272000Y-91761000D03*
X188822000Y-113011000D03*
X177272000Y-110811000D03*
X207872000Y-93961000D03*
X196322000Y-91761000D03*
X150722000Y-132061000D03*
X139172000Y-129861000D03*
X112622001Y-113011000D03*
X101072001Y-110811000D03*
X245972000Y-132061000D03*
X234422000Y-129861000D03*
X93572000Y-132061001D03*
X82022000Y-129861001D03*
X112622000Y-151111000D03*
X101072000Y-148911000D03*
X112622000Y-93961000D03*
X101072000Y-91761000D03*
X93572000Y-151111000D03*
X82022000Y-148911000D03*
X245972000Y-93961000D03*
X234422000Y-91761000D03*
X169772000Y-132061000D03*
X158222000Y-129861000D03*
X150722000Y-93961000D03*
X139172000Y-91761000D03*
X150722000Y-151111000D03*
X139172000Y-148911000D03*
X93571999Y-113011000D03*
X82021999Y-110811000D03*
X169772000Y-151111000D03*
X158222000Y-148911000D03*
X188822000Y-151111000D03*
X177272000Y-148911000D03*
X131672000Y-113011000D03*
X120122000Y-110811000D03*
X93572000Y-93961000D03*
X82022000Y-91761000D03*
X207872000Y-151111000D03*
X196322000Y-148911000D03*
X245972000Y-113011000D03*
X234422000Y-110811000D03*
X169772000Y-113011000D03*
X158222000Y-110811000D03*
X169772000Y-93961000D03*
X158222000Y-91761000D03*
X207872000Y-132061001D03*
X196322000Y-129861001D03*
X112622000Y-132061001D03*
X101072000Y-129861001D03*
X226922000Y-132061001D03*
X215372000Y-129861001D03*
X74522000Y-151111000D03*
X62972000Y-148911000D03*
X226922000Y-93961000D03*
X215372000Y-91761000D03*
X74522000Y-93961000D03*
X62972000Y-91761000D03*
X207871999Y-113011000D03*
X196321999Y-110811000D03*
X188822000Y-132061000D03*
X177272000Y-129861000D03*
X74522000Y-132061000D03*
X62972000Y-129861000D03*
X74522000Y-113011000D03*
X62972000Y-110811000D03*
D12*
X120137000Y-97331000D03*
X120137000Y-100531000D03*
X115237000Y-100531000D03*
X115237000Y-97331000D03*
X115237000Y-138621000D03*
X115237000Y-135421000D03*
X120137000Y-135421000D03*
X120137000Y-138621000D03*
X158237000Y-97331000D03*
X158237000Y-100531000D03*
X153337000Y-100531000D03*
X153337000Y-97331000D03*
X229537000Y-138621000D03*
X229537000Y-135421000D03*
X234437000Y-135421000D03*
X234437000Y-138621000D03*
X196337000Y-97331000D03*
X196337000Y-100531000D03*
X191437000Y-100531000D03*
X191437000Y-97331000D03*
X234437000Y-97331000D03*
X234437000Y-100531000D03*
X229537000Y-100531000D03*
X229537000Y-97331000D03*
X191437000Y-138621000D03*
X191437000Y-135421000D03*
X196337000Y-135421000D03*
X196337000Y-138621000D03*
X153337000Y-138621000D03*
X153337000Y-135421000D03*
X158237000Y-135421000D03*
X158237000Y-138621000D03*
X82037000Y-97331000D03*
X82037000Y-100531000D03*
X77137000Y-100531000D03*
X77137000Y-97331000D03*
X77137000Y-138621000D03*
X77137000Y-135421000D03*
X82037000Y-135421000D03*
X82037000Y-138621000D03*
M02*
