G04 #@! TF.GenerationSoftware,KiCad,Pcbnew,6.0.7-f9a2dced07~116~ubuntu20.04.1*
G04 #@! TF.CreationDate,2022-09-22T19:19:26+08:00*
G04 #@! TF.ProjectId,V4,56342e6b-6963-4616-945f-706362585858,rev?*
G04 #@! TF.SameCoordinates,Original*
G04 #@! TF.FileFunction,Legend,Bot*
G04 #@! TF.FilePolarity,Positive*
%FSLAX46Y46*%
G04 Gerber Fmt 4.6, Leading zero omitted, Abs format (unit mm)*
G04 Created by KiCad (PCBNEW 6.0.7-f9a2dced07~116~ubuntu20.04.1) date 2022-09-22 19:19:26*
%MOMM*%
%LPD*%
G01*
G04 APERTURE LIST*
G04 Aperture macros list*
%AMRotRect*
0 Rectangle, with rotation*
0 The origin of the aperture is its center*
0 $1 length*
0 $2 width*
0 $3 Rotation angle, in degrees counterclockwise*
0 Add horizontal line*
21,1,$1,$2,0,0,$3*%
G04 Aperture macros list end*
G04 #@! TA.AperFunction,Profile*
%ADD10C,0.050000*%
G04 #@! TD*
%ADD11C,0.150000*%
%ADD12C,0.203200*%
%ADD13C,0.200000*%
%ADD14C,0.120000*%
%ADD15RotRect,1.600000X1.600000X45.000000*%
%ADD16C,1.600000*%
%ADD17C,1.701800*%
%ADD18C,3.000000*%
%ADD19C,3.987800*%
%ADD20C,2.286000*%
%ADD21R,2.600000X2.600000*%
%ADD22C,5.000000*%
%ADD23C,2.000000*%
%ADD24R,1.500000X1.000000*%
%ADD25C,1.524000*%
G04 APERTURE END LIST*
D10*
X59436000Y-154686000D02*
X59436000Y-78486000D01*
X59436000Y-154686000D02*
G75*
G03*
X61722000Y-156972000I2286000J0D01*
G01*
X134962250Y-76200000D02*
X131178300Y-76200000D01*
X134962250Y-76200047D02*
G75*
G03*
X136434319Y-75070441I-50J1524047D01*
G01*
X60960000Y-76200000D02*
G75*
G03*
X59436000Y-77724000I0J-1524000D01*
G01*
X61722000Y-76200000D02*
X131178300Y-76200000D01*
X61722000Y-76200000D02*
X60960000Y-76200000D01*
X252222000Y-156972000D02*
X61722000Y-156972000D01*
X254507993Y-79667100D02*
G75*
G03*
X253365350Y-78179844I-1523993J11700D01*
G01*
X252222000Y-156972000D02*
G75*
G03*
X254508000Y-154686000I0J2286000D01*
G01*
X59436000Y-77724000D02*
X59436000Y-78486000D01*
X145016441Y-49147744D02*
X151738470Y-50953142D01*
X145016443Y-49147735D02*
G75*
G03*
X143149931Y-50225373I-394443J-1472065D01*
G01*
X254507999Y-79667100D02*
X254508000Y-154686000D01*
X151738470Y-50953142D02*
X253365350Y-78179844D01*
X143149931Y-50225373D02*
X136434319Y-75070441D01*
D11*
X224861285Y-142613380D02*
X224861285Y-141613380D01*
X224289857Y-142613380D02*
X224718428Y-142041952D01*
X224289857Y-141613380D02*
X224861285Y-142184809D01*
X223956523Y-141613380D02*
X223337476Y-141613380D01*
X223670809Y-141994333D01*
X223527952Y-141994333D01*
X223432714Y-142041952D01*
X223385095Y-142089571D01*
X223337476Y-142184809D01*
X223337476Y-142422904D01*
X223385095Y-142518142D01*
X223432714Y-142565761D01*
X223527952Y-142613380D01*
X223813666Y-142613380D01*
X223908904Y-142565761D01*
X223956523Y-142518142D01*
X223004142Y-141613380D02*
X222385095Y-141613380D01*
X222718428Y-141994333D01*
X222575571Y-141994333D01*
X222480333Y-142041952D01*
X222432714Y-142089571D01*
X222385095Y-142184809D01*
X222385095Y-142422904D01*
X222432714Y-142518142D01*
X222480333Y-142565761D01*
X222575571Y-142613380D01*
X222861285Y-142613380D01*
X222956523Y-142565761D01*
X223004142Y-142518142D01*
X224861286Y-104513380D02*
X224861286Y-103513380D01*
X224289858Y-104513380D02*
X224718429Y-103941952D01*
X224289858Y-103513380D02*
X224861286Y-104084809D01*
X223956524Y-103513380D02*
X223337477Y-103513380D01*
X223670810Y-103894333D01*
X223527953Y-103894333D01*
X223432715Y-103941952D01*
X223385096Y-103989571D01*
X223337477Y-104084809D01*
X223337477Y-104322904D01*
X223385096Y-104418142D01*
X223432715Y-104465761D01*
X223527953Y-104513380D01*
X223813667Y-104513380D01*
X223908905Y-104465761D01*
X223956524Y-104418142D01*
X222432715Y-103513380D02*
X222908905Y-103513380D01*
X222956524Y-103989571D01*
X222908905Y-103941952D01*
X222813667Y-103894333D01*
X222575572Y-103894333D01*
X222480334Y-103941952D01*
X222432715Y-103989571D01*
X222385096Y-104084809D01*
X222385096Y-104322904D01*
X222432715Y-104418142D01*
X222480334Y-104465761D01*
X222575572Y-104513380D01*
X222813667Y-104513380D01*
X222908905Y-104465761D01*
X222956524Y-104418142D01*
X148661285Y-104513380D02*
X148661285Y-103513380D01*
X148089857Y-104513380D02*
X148518428Y-103941952D01*
X148089857Y-103513380D02*
X148661285Y-104084809D01*
X147137476Y-104513380D02*
X147708904Y-104513380D01*
X147423190Y-104513380D02*
X147423190Y-103513380D01*
X147518428Y-103656238D01*
X147613666Y-103751476D01*
X147708904Y-103799095D01*
X146661285Y-104513380D02*
X146470809Y-104513380D01*
X146375571Y-104465761D01*
X146327952Y-104418142D01*
X146232714Y-104275285D01*
X146185095Y-104084809D01*
X146185095Y-103703857D01*
X146232714Y-103608619D01*
X146280333Y-103561000D01*
X146375571Y-103513380D01*
X146566047Y-103513380D01*
X146661285Y-103561000D01*
X146708904Y-103608619D01*
X146756523Y-103703857D01*
X146756523Y-103941952D01*
X146708904Y-104037190D01*
X146661285Y-104084809D01*
X146566047Y-104132428D01*
X146375571Y-104132428D01*
X146280333Y-104084809D01*
X146232714Y-104037190D01*
X146185095Y-103941952D01*
X243911285Y-142613380D02*
X243911285Y-141613380D01*
X243339857Y-142613380D02*
X243768428Y-142041952D01*
X243339857Y-141613380D02*
X243911285Y-142184809D01*
X243006523Y-141613380D02*
X242387476Y-141613380D01*
X242720809Y-141994333D01*
X242577952Y-141994333D01*
X242482714Y-142041952D01*
X242435095Y-142089571D01*
X242387476Y-142184809D01*
X242387476Y-142422904D01*
X242435095Y-142518142D01*
X242482714Y-142565761D01*
X242577952Y-142613380D01*
X242863666Y-142613380D01*
X242958904Y-142565761D01*
X243006523Y-142518142D01*
X242054142Y-141613380D02*
X241387476Y-141613380D01*
X241816047Y-142613380D01*
X129611285Y-85463380D02*
X129611285Y-84463380D01*
X129039857Y-85463380D02*
X129468428Y-84891952D01*
X129039857Y-84463380D02*
X129611285Y-85034809D01*
X128087476Y-85463380D02*
X128658904Y-85463380D01*
X128373190Y-85463380D02*
X128373190Y-84463380D01*
X128468428Y-84606238D01*
X128563666Y-84701476D01*
X128658904Y-84749095D01*
X127230333Y-84463380D02*
X127420809Y-84463380D01*
X127516047Y-84511000D01*
X127563666Y-84558619D01*
X127658904Y-84701476D01*
X127706523Y-84891952D01*
X127706523Y-85272904D01*
X127658904Y-85368142D01*
X127611285Y-85415761D01*
X127516047Y-85463380D01*
X127325571Y-85463380D01*
X127230333Y-85415761D01*
X127182714Y-85368142D01*
X127135095Y-85272904D01*
X127135095Y-85034809D01*
X127182714Y-84939571D01*
X127230333Y-84891952D01*
X127325571Y-84844333D01*
X127516047Y-84844333D01*
X127611285Y-84891952D01*
X127658904Y-84939571D01*
X127706523Y-85034809D01*
X129611285Y-123563380D02*
X129611285Y-122563380D01*
X129039857Y-123563380D02*
X129468428Y-122991952D01*
X129039857Y-122563380D02*
X129611285Y-123134809D01*
X128087476Y-123563380D02*
X128658904Y-123563380D01*
X128373190Y-123563380D02*
X128373190Y-122563380D01*
X128468428Y-122706238D01*
X128563666Y-122801476D01*
X128658904Y-122849095D01*
X127230333Y-122896714D02*
X127230333Y-123563380D01*
X127468428Y-122515761D02*
X127706523Y-123230047D01*
X127087476Y-123230047D01*
X129611285Y-142613380D02*
X129611285Y-141613380D01*
X129039857Y-142613380D02*
X129468428Y-142041952D01*
X129039857Y-141613380D02*
X129611285Y-142184809D01*
X128087476Y-142613380D02*
X128658904Y-142613380D01*
X128373190Y-142613380D02*
X128373190Y-141613380D01*
X128468428Y-141756238D01*
X128563666Y-141851476D01*
X128658904Y-141899095D01*
X127754142Y-141613380D02*
X127135095Y-141613380D01*
X127468428Y-141994333D01*
X127325571Y-141994333D01*
X127230333Y-142041952D01*
X127182714Y-142089571D01*
X127135095Y-142184809D01*
X127135095Y-142422904D01*
X127182714Y-142518142D01*
X127230333Y-142565761D01*
X127325571Y-142613380D01*
X127611285Y-142613380D01*
X127706523Y-142565761D01*
X127754142Y-142518142D01*
X186761285Y-85463380D02*
X186761285Y-84463380D01*
X186189857Y-85463380D02*
X186618428Y-84891952D01*
X186189857Y-84463380D02*
X186761285Y-85034809D01*
X185808904Y-84558619D02*
X185761285Y-84511000D01*
X185666047Y-84463380D01*
X185427952Y-84463380D01*
X185332714Y-84511000D01*
X185285095Y-84558619D01*
X185237476Y-84653857D01*
X185237476Y-84749095D01*
X185285095Y-84891952D01*
X185856523Y-85463380D01*
X185237476Y-85463380D01*
X184666047Y-84891952D02*
X184761285Y-84844333D01*
X184808904Y-84796714D01*
X184856523Y-84701476D01*
X184856523Y-84653857D01*
X184808904Y-84558619D01*
X184761285Y-84511000D01*
X184666047Y-84463380D01*
X184475571Y-84463380D01*
X184380333Y-84511000D01*
X184332714Y-84558619D01*
X184285095Y-84653857D01*
X184285095Y-84701476D01*
X184332714Y-84796714D01*
X184380333Y-84844333D01*
X184475571Y-84891952D01*
X184666047Y-84891952D01*
X184761285Y-84939571D01*
X184808904Y-84987190D01*
X184856523Y-85082428D01*
X184856523Y-85272904D01*
X184808904Y-85368142D01*
X184761285Y-85415761D01*
X184666047Y-85463380D01*
X184475571Y-85463380D01*
X184380333Y-85415761D01*
X184332714Y-85368142D01*
X184285095Y-85272904D01*
X184285095Y-85082428D01*
X184332714Y-84987190D01*
X184380333Y-84939571D01*
X184475571Y-84891952D01*
X186761285Y-104513380D02*
X186761285Y-103513380D01*
X186189857Y-104513380D02*
X186618428Y-103941952D01*
X186189857Y-103513380D02*
X186761285Y-104084809D01*
X185808904Y-103608619D02*
X185761285Y-103561000D01*
X185666047Y-103513380D01*
X185427952Y-103513380D01*
X185332714Y-103561000D01*
X185285095Y-103608619D01*
X185237476Y-103703857D01*
X185237476Y-103799095D01*
X185285095Y-103941952D01*
X185856523Y-104513380D01*
X185237476Y-104513380D01*
X184904142Y-103513380D02*
X184237476Y-103513380D01*
X184666047Y-104513380D01*
X205811285Y-85463380D02*
X205811285Y-84463380D01*
X205239857Y-85463380D02*
X205668428Y-84891952D01*
X205239857Y-84463380D02*
X205811285Y-85034809D01*
X204906523Y-84463380D02*
X204287476Y-84463380D01*
X204620809Y-84844333D01*
X204477952Y-84844333D01*
X204382714Y-84891952D01*
X204335095Y-84939571D01*
X204287476Y-85034809D01*
X204287476Y-85272904D01*
X204335095Y-85368142D01*
X204382714Y-85415761D01*
X204477952Y-85463380D01*
X204763666Y-85463380D01*
X204858904Y-85415761D01*
X204906523Y-85368142D01*
X203906523Y-84558619D02*
X203858904Y-84511000D01*
X203763666Y-84463380D01*
X203525571Y-84463380D01*
X203430333Y-84511000D01*
X203382714Y-84558619D01*
X203335095Y-84653857D01*
X203335095Y-84749095D01*
X203382714Y-84891952D01*
X203954142Y-85463380D01*
X203335095Y-85463380D01*
X148661285Y-123563380D02*
X148661285Y-122563380D01*
X148089857Y-123563380D02*
X148518428Y-122991952D01*
X148089857Y-122563380D02*
X148661285Y-123134809D01*
X147137476Y-123563380D02*
X147708904Y-123563380D01*
X147423190Y-123563380D02*
X147423190Y-122563380D01*
X147518428Y-122706238D01*
X147613666Y-122801476D01*
X147708904Y-122849095D01*
X146566047Y-122991952D02*
X146661285Y-122944333D01*
X146708904Y-122896714D01*
X146756523Y-122801476D01*
X146756523Y-122753857D01*
X146708904Y-122658619D01*
X146661285Y-122611000D01*
X146566047Y-122563380D01*
X146375571Y-122563380D01*
X146280333Y-122611000D01*
X146232714Y-122658619D01*
X146185095Y-122753857D01*
X146185095Y-122801476D01*
X146232714Y-122896714D01*
X146280333Y-122944333D01*
X146375571Y-122991952D01*
X146566047Y-122991952D01*
X146661285Y-123039571D01*
X146708904Y-123087190D01*
X146756523Y-123182428D01*
X146756523Y-123372904D01*
X146708904Y-123468142D01*
X146661285Y-123515761D01*
X146566047Y-123563380D01*
X146375571Y-123563380D01*
X146280333Y-123515761D01*
X146232714Y-123468142D01*
X146185095Y-123372904D01*
X146185095Y-123182428D01*
X146232714Y-123087190D01*
X146280333Y-123039571D01*
X146375571Y-122991952D01*
X110561286Y-104513380D02*
X110561286Y-103513380D01*
X109989858Y-104513380D02*
X110418429Y-103941952D01*
X109989858Y-103513380D02*
X110561286Y-104084809D01*
X109037477Y-104513380D02*
X109608905Y-104513380D01*
X109323191Y-104513380D02*
X109323191Y-103513380D01*
X109418429Y-103656238D01*
X109513667Y-103751476D01*
X109608905Y-103799095D01*
X108085096Y-104513380D02*
X108656524Y-104513380D01*
X108370810Y-104513380D02*
X108370810Y-103513380D01*
X108466048Y-103656238D01*
X108561286Y-103751476D01*
X108656524Y-103799095D01*
X243911285Y-123563380D02*
X243911285Y-122563380D01*
X243339857Y-123563380D02*
X243768428Y-122991952D01*
X243339857Y-122563380D02*
X243911285Y-123134809D01*
X243006523Y-122563380D02*
X242387476Y-122563380D01*
X242720809Y-122944333D01*
X242577952Y-122944333D01*
X242482714Y-122991952D01*
X242435095Y-123039571D01*
X242387476Y-123134809D01*
X242387476Y-123372904D01*
X242435095Y-123468142D01*
X242482714Y-123515761D01*
X242577952Y-123563380D01*
X242863666Y-123563380D01*
X242958904Y-123515761D01*
X243006523Y-123468142D01*
X241816047Y-122991952D02*
X241911285Y-122944333D01*
X241958904Y-122896714D01*
X242006523Y-122801476D01*
X242006523Y-122753857D01*
X241958904Y-122658619D01*
X241911285Y-122611000D01*
X241816047Y-122563380D01*
X241625571Y-122563380D01*
X241530333Y-122611000D01*
X241482714Y-122658619D01*
X241435095Y-122753857D01*
X241435095Y-122801476D01*
X241482714Y-122896714D01*
X241530333Y-122944333D01*
X241625571Y-122991952D01*
X241816047Y-122991952D01*
X241911285Y-123039571D01*
X241958904Y-123087190D01*
X242006523Y-123182428D01*
X242006523Y-123372904D01*
X241958904Y-123468142D01*
X241911285Y-123515761D01*
X241816047Y-123563380D01*
X241625571Y-123563380D01*
X241530333Y-123515761D01*
X241482714Y-123468142D01*
X241435095Y-123372904D01*
X241435095Y-123182428D01*
X241482714Y-123087190D01*
X241530333Y-123039571D01*
X241625571Y-122991952D01*
X91035095Y-123563381D02*
X91035095Y-122563381D01*
X90463666Y-123563381D02*
X90892238Y-122991953D01*
X90463666Y-122563381D02*
X91035095Y-123134810D01*
X89606523Y-122563381D02*
X89797000Y-122563381D01*
X89892238Y-122611001D01*
X89939857Y-122658620D01*
X90035095Y-122801477D01*
X90082714Y-122991953D01*
X90082714Y-123372905D01*
X90035095Y-123468143D01*
X89987476Y-123515762D01*
X89892238Y-123563381D01*
X89701761Y-123563381D01*
X89606523Y-123515762D01*
X89558904Y-123468143D01*
X89511285Y-123372905D01*
X89511285Y-123134810D01*
X89558904Y-123039572D01*
X89606523Y-122991953D01*
X89701761Y-122944334D01*
X89892238Y-122944334D01*
X89987476Y-122991953D01*
X90035095Y-123039572D01*
X90082714Y-123134810D01*
X110085095Y-142613380D02*
X110085095Y-141613380D01*
X109513666Y-142613380D02*
X109942238Y-142041952D01*
X109513666Y-141613380D02*
X110085095Y-142184809D01*
X109037476Y-142613380D02*
X108847000Y-142613380D01*
X108751761Y-142565761D01*
X108704142Y-142518142D01*
X108608904Y-142375285D01*
X108561285Y-142184809D01*
X108561285Y-141803857D01*
X108608904Y-141708619D01*
X108656523Y-141661000D01*
X108751761Y-141613380D01*
X108942238Y-141613380D01*
X109037476Y-141661000D01*
X109085095Y-141708619D01*
X109132714Y-141803857D01*
X109132714Y-142041952D01*
X109085095Y-142137190D01*
X109037476Y-142184809D01*
X108942238Y-142232428D01*
X108751761Y-142232428D01*
X108656523Y-142184809D01*
X108608904Y-142137190D01*
X108561285Y-142041952D01*
X110561285Y-85463380D02*
X110561285Y-84463380D01*
X109989857Y-85463380D02*
X110418428Y-84891952D01*
X109989857Y-84463380D02*
X110561285Y-85034809D01*
X109037476Y-85463380D02*
X109608904Y-85463380D01*
X109323190Y-85463380D02*
X109323190Y-84463380D01*
X109418428Y-84606238D01*
X109513666Y-84701476D01*
X109608904Y-84749095D01*
X108656523Y-84558619D02*
X108608904Y-84511000D01*
X108513666Y-84463380D01*
X108275571Y-84463380D01*
X108180333Y-84511000D01*
X108132714Y-84558619D01*
X108085095Y-84653857D01*
X108085095Y-84749095D01*
X108132714Y-84891952D01*
X108704142Y-85463380D01*
X108085095Y-85463380D01*
X91035095Y-142613380D02*
X91035095Y-141613380D01*
X90463666Y-142613380D02*
X90892238Y-142041952D01*
X90463666Y-141613380D02*
X91035095Y-142184809D01*
X89558904Y-141613380D02*
X90035095Y-141613380D01*
X90082714Y-142089571D01*
X90035095Y-142041952D01*
X89939857Y-141994333D01*
X89701761Y-141994333D01*
X89606523Y-142041952D01*
X89558904Y-142089571D01*
X89511285Y-142184809D01*
X89511285Y-142422904D01*
X89558904Y-142518142D01*
X89606523Y-142565761D01*
X89701761Y-142613380D01*
X89939857Y-142613380D01*
X90035095Y-142565761D01*
X90082714Y-142518142D01*
X243911285Y-85463380D02*
X243911285Y-84463380D01*
X243339857Y-85463380D02*
X243768428Y-84891952D01*
X243339857Y-84463380D02*
X243911285Y-85034809D01*
X242482714Y-84796714D02*
X242482714Y-85463380D01*
X242720809Y-84415761D02*
X242958904Y-85130047D01*
X242339857Y-85130047D01*
X241768428Y-84463380D02*
X241673190Y-84463380D01*
X241577952Y-84511000D01*
X241530333Y-84558619D01*
X241482714Y-84653857D01*
X241435095Y-84844333D01*
X241435095Y-85082428D01*
X241482714Y-85272904D01*
X241530333Y-85368142D01*
X241577952Y-85415761D01*
X241673190Y-85463380D01*
X241768428Y-85463380D01*
X241863666Y-85415761D01*
X241911285Y-85368142D01*
X241958904Y-85272904D01*
X242006523Y-85082428D01*
X242006523Y-84844333D01*
X241958904Y-84653857D01*
X241911285Y-84558619D01*
X241863666Y-84511000D01*
X241768428Y-84463380D01*
X167711285Y-123563380D02*
X167711285Y-122563380D01*
X167139857Y-123563380D02*
X167568428Y-122991952D01*
X167139857Y-122563380D02*
X167711285Y-123134809D01*
X166758904Y-122658619D02*
X166711285Y-122611000D01*
X166616047Y-122563380D01*
X166377952Y-122563380D01*
X166282714Y-122611000D01*
X166235095Y-122658619D01*
X166187476Y-122753857D01*
X166187476Y-122849095D01*
X166235095Y-122991952D01*
X166806523Y-123563380D01*
X166187476Y-123563380D01*
X165806523Y-122658619D02*
X165758904Y-122611000D01*
X165663666Y-122563380D01*
X165425571Y-122563380D01*
X165330333Y-122611000D01*
X165282714Y-122658619D01*
X165235095Y-122753857D01*
X165235095Y-122849095D01*
X165282714Y-122991952D01*
X165854142Y-123563380D01*
X165235095Y-123563380D01*
X148661285Y-85463380D02*
X148661285Y-84463380D01*
X148089857Y-85463380D02*
X148518428Y-84891952D01*
X148089857Y-84463380D02*
X148661285Y-85034809D01*
X147708904Y-84558619D02*
X147661285Y-84511000D01*
X147566047Y-84463380D01*
X147327952Y-84463380D01*
X147232714Y-84511000D01*
X147185095Y-84558619D01*
X147137476Y-84653857D01*
X147137476Y-84749095D01*
X147185095Y-84891952D01*
X147756523Y-85463380D01*
X147137476Y-85463380D01*
X146518428Y-84463380D02*
X146423190Y-84463380D01*
X146327952Y-84511000D01*
X146280333Y-84558619D01*
X146232714Y-84653857D01*
X146185095Y-84844333D01*
X146185095Y-85082428D01*
X146232714Y-85272904D01*
X146280333Y-85368142D01*
X146327952Y-85415761D01*
X146423190Y-85463380D01*
X146518428Y-85463380D01*
X146613666Y-85415761D01*
X146661285Y-85368142D01*
X146708904Y-85272904D01*
X146756523Y-85082428D01*
X146756523Y-84844333D01*
X146708904Y-84653857D01*
X146661285Y-84558619D01*
X146613666Y-84511000D01*
X146518428Y-84463380D01*
X148661285Y-142613380D02*
X148661285Y-141613380D01*
X148089857Y-142613380D02*
X148518428Y-142041952D01*
X148089857Y-141613380D02*
X148661285Y-142184809D01*
X147137476Y-142613380D02*
X147708904Y-142613380D01*
X147423190Y-142613380D02*
X147423190Y-141613380D01*
X147518428Y-141756238D01*
X147613666Y-141851476D01*
X147708904Y-141899095D01*
X146804142Y-141613380D02*
X146137476Y-141613380D01*
X146566047Y-142613380D01*
X91035094Y-104513380D02*
X91035094Y-103513380D01*
X90463665Y-104513380D02*
X90892237Y-103941952D01*
X90463665Y-103513380D02*
X91035094Y-104084809D01*
X90130332Y-103513380D02*
X89463665Y-103513380D01*
X89892237Y-104513380D01*
X167711285Y-142613380D02*
X167711285Y-141613380D01*
X167139857Y-142613380D02*
X167568428Y-142041952D01*
X167139857Y-141613380D02*
X167711285Y-142184809D01*
X166758904Y-141708619D02*
X166711285Y-141661000D01*
X166616047Y-141613380D01*
X166377952Y-141613380D01*
X166282714Y-141661000D01*
X166235095Y-141708619D01*
X166187476Y-141803857D01*
X166187476Y-141899095D01*
X166235095Y-142041952D01*
X166806523Y-142613380D01*
X166187476Y-142613380D01*
X165235095Y-142613380D02*
X165806523Y-142613380D01*
X165520809Y-142613380D02*
X165520809Y-141613380D01*
X165616047Y-141756238D01*
X165711285Y-141851476D01*
X165806523Y-141899095D01*
X186761285Y-142613380D02*
X186761285Y-141613380D01*
X186189857Y-142613380D02*
X186618428Y-142041952D01*
X186189857Y-141613380D02*
X186761285Y-142184809D01*
X185808904Y-141708619D02*
X185761285Y-141661000D01*
X185666047Y-141613380D01*
X185427952Y-141613380D01*
X185332714Y-141661000D01*
X185285095Y-141708619D01*
X185237476Y-141803857D01*
X185237476Y-141899095D01*
X185285095Y-142041952D01*
X185856523Y-142613380D01*
X185237476Y-142613380D01*
X184332714Y-141613380D02*
X184808904Y-141613380D01*
X184856523Y-142089571D01*
X184808904Y-142041952D01*
X184713666Y-141994333D01*
X184475571Y-141994333D01*
X184380333Y-142041952D01*
X184332714Y-142089571D01*
X184285095Y-142184809D01*
X184285095Y-142422904D01*
X184332714Y-142518142D01*
X184380333Y-142565761D01*
X184475571Y-142613380D01*
X184713666Y-142613380D01*
X184808904Y-142565761D01*
X184856523Y-142518142D01*
X129611285Y-104513380D02*
X129611285Y-103513380D01*
X129039857Y-104513380D02*
X129468428Y-103941952D01*
X129039857Y-103513380D02*
X129611285Y-104084809D01*
X128087476Y-104513380D02*
X128658904Y-104513380D01*
X128373190Y-104513380D02*
X128373190Y-103513380D01*
X128468428Y-103656238D01*
X128563666Y-103751476D01*
X128658904Y-103799095D01*
X127182714Y-103513380D02*
X127658904Y-103513380D01*
X127706523Y-103989571D01*
X127658904Y-103941952D01*
X127563666Y-103894333D01*
X127325571Y-103894333D01*
X127230333Y-103941952D01*
X127182714Y-103989571D01*
X127135095Y-104084809D01*
X127135095Y-104322904D01*
X127182714Y-104418142D01*
X127230333Y-104465761D01*
X127325571Y-104513380D01*
X127563666Y-104513380D01*
X127658904Y-104465761D01*
X127706523Y-104418142D01*
X91035095Y-85463380D02*
X91035095Y-84463380D01*
X90463666Y-85463380D02*
X90892238Y-84891952D01*
X90463666Y-84463380D02*
X91035095Y-85034809D01*
X89892238Y-84891952D02*
X89987476Y-84844333D01*
X90035095Y-84796714D01*
X90082714Y-84701476D01*
X90082714Y-84653857D01*
X90035095Y-84558619D01*
X89987476Y-84511000D01*
X89892238Y-84463380D01*
X89701761Y-84463380D01*
X89606523Y-84511000D01*
X89558904Y-84558619D01*
X89511285Y-84653857D01*
X89511285Y-84701476D01*
X89558904Y-84796714D01*
X89606523Y-84844333D01*
X89701761Y-84891952D01*
X89892238Y-84891952D01*
X89987476Y-84939571D01*
X90035095Y-84987190D01*
X90082714Y-85082428D01*
X90082714Y-85272904D01*
X90035095Y-85368142D01*
X89987476Y-85415761D01*
X89892238Y-85463380D01*
X89701761Y-85463380D01*
X89606523Y-85415761D01*
X89558904Y-85368142D01*
X89511285Y-85272904D01*
X89511285Y-85082428D01*
X89558904Y-84987190D01*
X89606523Y-84939571D01*
X89701761Y-84891952D01*
X205811285Y-142613380D02*
X205811285Y-141613380D01*
X205239857Y-142613380D02*
X205668428Y-142041952D01*
X205239857Y-141613380D02*
X205811285Y-142184809D01*
X204858904Y-141708619D02*
X204811285Y-141661000D01*
X204716047Y-141613380D01*
X204477952Y-141613380D01*
X204382714Y-141661000D01*
X204335095Y-141708619D01*
X204287476Y-141803857D01*
X204287476Y-141899095D01*
X204335095Y-142041952D01*
X204906523Y-142613380D01*
X204287476Y-142613380D01*
X203811285Y-142613380D02*
X203620809Y-142613380D01*
X203525571Y-142565761D01*
X203477952Y-142518142D01*
X203382714Y-142375285D01*
X203335095Y-142184809D01*
X203335095Y-141803857D01*
X203382714Y-141708619D01*
X203430333Y-141661000D01*
X203525571Y-141613380D01*
X203716047Y-141613380D01*
X203811285Y-141661000D01*
X203858904Y-141708619D01*
X203906523Y-141803857D01*
X203906523Y-142041952D01*
X203858904Y-142137190D01*
X203811285Y-142184809D01*
X203716047Y-142232428D01*
X203525571Y-142232428D01*
X203430333Y-142184809D01*
X203382714Y-142137190D01*
X203335095Y-142041952D01*
X243911285Y-104513380D02*
X243911285Y-103513380D01*
X243339857Y-104513380D02*
X243768428Y-103941952D01*
X243339857Y-103513380D02*
X243911285Y-104084809D01*
X243006523Y-103513380D02*
X242387476Y-103513380D01*
X242720809Y-103894333D01*
X242577952Y-103894333D01*
X242482714Y-103941952D01*
X242435095Y-103989571D01*
X242387476Y-104084809D01*
X242387476Y-104322904D01*
X242435095Y-104418142D01*
X242482714Y-104465761D01*
X242577952Y-104513380D01*
X242863666Y-104513380D01*
X242958904Y-104465761D01*
X243006523Y-104418142D01*
X241911285Y-104513380D02*
X241720809Y-104513380D01*
X241625571Y-104465761D01*
X241577952Y-104418142D01*
X241482714Y-104275285D01*
X241435095Y-104084809D01*
X241435095Y-103703857D01*
X241482714Y-103608619D01*
X241530333Y-103561000D01*
X241625571Y-103513380D01*
X241816047Y-103513380D01*
X241911285Y-103561000D01*
X241958904Y-103608619D01*
X242006523Y-103703857D01*
X242006523Y-103941952D01*
X241958904Y-104037190D01*
X241911285Y-104084809D01*
X241816047Y-104132428D01*
X241625571Y-104132428D01*
X241530333Y-104084809D01*
X241482714Y-104037190D01*
X241435095Y-103941952D01*
X167711285Y-104513380D02*
X167711285Y-103513380D01*
X167139857Y-104513380D02*
X167568428Y-103941952D01*
X167139857Y-103513380D02*
X167711285Y-104084809D01*
X166758904Y-103608619D02*
X166711285Y-103561000D01*
X166616047Y-103513380D01*
X166377952Y-103513380D01*
X166282714Y-103561000D01*
X166235095Y-103608619D01*
X166187476Y-103703857D01*
X166187476Y-103799095D01*
X166235095Y-103941952D01*
X166806523Y-104513380D01*
X166187476Y-104513380D01*
X165854142Y-103513380D02*
X165235095Y-103513380D01*
X165568428Y-103894333D01*
X165425571Y-103894333D01*
X165330333Y-103941952D01*
X165282714Y-103989571D01*
X165235095Y-104084809D01*
X165235095Y-104322904D01*
X165282714Y-104418142D01*
X165330333Y-104465761D01*
X165425571Y-104513380D01*
X165711285Y-104513380D01*
X165806523Y-104465761D01*
X165854142Y-104418142D01*
X167711285Y-85463380D02*
X167711285Y-84463380D01*
X167139857Y-85463380D02*
X167568428Y-84891952D01*
X167139857Y-84463380D02*
X167711285Y-85034809D01*
X166758904Y-84558619D02*
X166711285Y-84511000D01*
X166616047Y-84463380D01*
X166377952Y-84463380D01*
X166282714Y-84511000D01*
X166235095Y-84558619D01*
X166187476Y-84653857D01*
X166187476Y-84749095D01*
X166235095Y-84891952D01*
X166806523Y-85463380D01*
X166187476Y-85463380D01*
X165330333Y-84796714D02*
X165330333Y-85463380D01*
X165568428Y-84415761D02*
X165806523Y-85130047D01*
X165187476Y-85130047D01*
X205811285Y-123563381D02*
X205811285Y-122563381D01*
X205239857Y-123563381D02*
X205668428Y-122991953D01*
X205239857Y-122563381D02*
X205811285Y-123134810D01*
X204906523Y-122563381D02*
X204287476Y-122563381D01*
X204620809Y-122944334D01*
X204477952Y-122944334D01*
X204382714Y-122991953D01*
X204335095Y-123039572D01*
X204287476Y-123134810D01*
X204287476Y-123372905D01*
X204335095Y-123468143D01*
X204382714Y-123515762D01*
X204477952Y-123563381D01*
X204763666Y-123563381D01*
X204858904Y-123515762D01*
X204906523Y-123468143D01*
X203668428Y-122563381D02*
X203573190Y-122563381D01*
X203477952Y-122611001D01*
X203430333Y-122658620D01*
X203382714Y-122753858D01*
X203335095Y-122944334D01*
X203335095Y-123182429D01*
X203382714Y-123372905D01*
X203430333Y-123468143D01*
X203477952Y-123515762D01*
X203573190Y-123563381D01*
X203668428Y-123563381D01*
X203763666Y-123515762D01*
X203811285Y-123468143D01*
X203858904Y-123372905D01*
X203906523Y-123182429D01*
X203906523Y-122944334D01*
X203858904Y-122753858D01*
X203811285Y-122658620D01*
X203763666Y-122611001D01*
X203668428Y-122563381D01*
X110561285Y-123563381D02*
X110561285Y-122563381D01*
X109989857Y-123563381D02*
X110418428Y-122991953D01*
X109989857Y-122563381D02*
X110561285Y-123134810D01*
X109037476Y-123563381D02*
X109608904Y-123563381D01*
X109323190Y-123563381D02*
X109323190Y-122563381D01*
X109418428Y-122706239D01*
X109513666Y-122801477D01*
X109608904Y-122849096D01*
X108418428Y-122563381D02*
X108323190Y-122563381D01*
X108227952Y-122611001D01*
X108180333Y-122658620D01*
X108132714Y-122753858D01*
X108085095Y-122944334D01*
X108085095Y-123182429D01*
X108132714Y-123372905D01*
X108180333Y-123468143D01*
X108227952Y-123515762D01*
X108323190Y-123563381D01*
X108418428Y-123563381D01*
X108513666Y-123515762D01*
X108561285Y-123468143D01*
X108608904Y-123372905D01*
X108656523Y-123182429D01*
X108656523Y-122944334D01*
X108608904Y-122753858D01*
X108561285Y-122658620D01*
X108513666Y-122611001D01*
X108418428Y-122563381D01*
X224861285Y-123563381D02*
X224861285Y-122563381D01*
X224289857Y-123563381D02*
X224718428Y-122991953D01*
X224289857Y-122563381D02*
X224861285Y-123134810D01*
X223956523Y-122563381D02*
X223337476Y-122563381D01*
X223670809Y-122944334D01*
X223527952Y-122944334D01*
X223432714Y-122991953D01*
X223385095Y-123039572D01*
X223337476Y-123134810D01*
X223337476Y-123372905D01*
X223385095Y-123468143D01*
X223432714Y-123515762D01*
X223527952Y-123563381D01*
X223813666Y-123563381D01*
X223908904Y-123515762D01*
X223956523Y-123468143D01*
X222480333Y-122896715D02*
X222480333Y-123563381D01*
X222718428Y-122515762D02*
X222956523Y-123230048D01*
X222337476Y-123230048D01*
X71985095Y-142613380D02*
X71985095Y-141613380D01*
X71413666Y-142613380D02*
X71842238Y-142041952D01*
X71413666Y-141613380D02*
X71985095Y-142184809D01*
X70461285Y-142613380D02*
X71032714Y-142613380D01*
X70747000Y-142613380D02*
X70747000Y-141613380D01*
X70842238Y-141756238D01*
X70937476Y-141851476D01*
X71032714Y-141899095D01*
X224861285Y-85463380D02*
X224861285Y-84463380D01*
X224289857Y-85463380D02*
X224718428Y-84891952D01*
X224289857Y-84463380D02*
X224861285Y-85034809D01*
X223956523Y-84463380D02*
X223337476Y-84463380D01*
X223670809Y-84844333D01*
X223527952Y-84844333D01*
X223432714Y-84891952D01*
X223385095Y-84939571D01*
X223337476Y-85034809D01*
X223337476Y-85272904D01*
X223385095Y-85368142D01*
X223432714Y-85415761D01*
X223527952Y-85463380D01*
X223813666Y-85463380D01*
X223908904Y-85415761D01*
X223956523Y-85368142D01*
X222480333Y-84463380D02*
X222670809Y-84463380D01*
X222766047Y-84511000D01*
X222813666Y-84558619D01*
X222908904Y-84701476D01*
X222956523Y-84891952D01*
X222956523Y-85272904D01*
X222908904Y-85368142D01*
X222861285Y-85415761D01*
X222766047Y-85463380D01*
X222575571Y-85463380D01*
X222480333Y-85415761D01*
X222432714Y-85368142D01*
X222385095Y-85272904D01*
X222385095Y-85034809D01*
X222432714Y-84939571D01*
X222480333Y-84891952D01*
X222575571Y-84844333D01*
X222766047Y-84844333D01*
X222861285Y-84891952D01*
X222908904Y-84939571D01*
X222956523Y-85034809D01*
X71985095Y-85463380D02*
X71985095Y-84463380D01*
X71413666Y-85463380D02*
X71842238Y-84891952D01*
X71413666Y-84463380D02*
X71985095Y-85034809D01*
X70556523Y-84796714D02*
X70556523Y-85463380D01*
X70794619Y-84415761D02*
X71032714Y-85130047D01*
X70413666Y-85130047D01*
X205811284Y-104513380D02*
X205811284Y-103513380D01*
X205239856Y-104513380D02*
X205668427Y-103941952D01*
X205239856Y-103513380D02*
X205811284Y-104084809D01*
X204906522Y-103513380D02*
X204287475Y-103513380D01*
X204620808Y-103894333D01*
X204477951Y-103894333D01*
X204382713Y-103941952D01*
X204335094Y-103989571D01*
X204287475Y-104084809D01*
X204287475Y-104322904D01*
X204335094Y-104418142D01*
X204382713Y-104465761D01*
X204477951Y-104513380D01*
X204763665Y-104513380D01*
X204858903Y-104465761D01*
X204906522Y-104418142D01*
X203335094Y-104513380D02*
X203906522Y-104513380D01*
X203620808Y-104513380D02*
X203620808Y-103513380D01*
X203716046Y-103656238D01*
X203811284Y-103751476D01*
X203906522Y-103799095D01*
X186761285Y-123563380D02*
X186761285Y-122563380D01*
X186189857Y-123563380D02*
X186618428Y-122991952D01*
X186189857Y-122563380D02*
X186761285Y-123134809D01*
X185808904Y-122658619D02*
X185761285Y-122611000D01*
X185666047Y-122563380D01*
X185427952Y-122563380D01*
X185332714Y-122611000D01*
X185285095Y-122658619D01*
X185237476Y-122753857D01*
X185237476Y-122849095D01*
X185285095Y-122991952D01*
X185856523Y-123563380D01*
X185237476Y-123563380D01*
X184380333Y-122563380D02*
X184570809Y-122563380D01*
X184666047Y-122611000D01*
X184713666Y-122658619D01*
X184808904Y-122801476D01*
X184856523Y-122991952D01*
X184856523Y-123372904D01*
X184808904Y-123468142D01*
X184761285Y-123515761D01*
X184666047Y-123563380D01*
X184475571Y-123563380D01*
X184380333Y-123515761D01*
X184332714Y-123468142D01*
X184285095Y-123372904D01*
X184285095Y-123134809D01*
X184332714Y-123039571D01*
X184380333Y-122991952D01*
X184475571Y-122944333D01*
X184666047Y-122944333D01*
X184761285Y-122991952D01*
X184808904Y-123039571D01*
X184856523Y-123134809D01*
X71985095Y-123563380D02*
X71985095Y-122563380D01*
X71413666Y-123563380D02*
X71842238Y-122991952D01*
X71413666Y-122563380D02*
X71985095Y-123134809D01*
X71032714Y-122658619D02*
X70985095Y-122611000D01*
X70889857Y-122563380D01*
X70651761Y-122563380D01*
X70556523Y-122611000D01*
X70508904Y-122658619D01*
X70461285Y-122753857D01*
X70461285Y-122849095D01*
X70508904Y-122991952D01*
X71080333Y-123563380D01*
X70461285Y-123563380D01*
X71985095Y-104513380D02*
X71985095Y-103513380D01*
X71413666Y-104513380D02*
X71842238Y-103941952D01*
X71413666Y-103513380D02*
X71985095Y-104084809D01*
X71080333Y-103513380D02*
X70461285Y-103513380D01*
X70794619Y-103894333D01*
X70651761Y-103894333D01*
X70556523Y-103941952D01*
X70508904Y-103989571D01*
X70461285Y-104084809D01*
X70461285Y-104322904D01*
X70508904Y-104418142D01*
X70556523Y-104465761D01*
X70651761Y-104513380D01*
X70937476Y-104513380D01*
X71032714Y-104465761D01*
X71080333Y-104418142D01*
X163349809Y-101310001D02*
X162784123Y-100744316D01*
X162649436Y-100879003D01*
X162595561Y-100986752D01*
X162595561Y-101094502D01*
X162622499Y-101175314D01*
X162703311Y-101310001D01*
X162784123Y-101390813D01*
X162918810Y-101471625D01*
X162999622Y-101498563D01*
X163107372Y-101498563D01*
X163215122Y-101444688D01*
X163349809Y-101310001D01*
X162299250Y-101336938D02*
X162245375Y-101336938D01*
X162164563Y-101363876D01*
X162029876Y-101498563D01*
X162002938Y-101579375D01*
X162002938Y-101633250D01*
X162029876Y-101714062D01*
X162083751Y-101767937D01*
X162191500Y-101821812D01*
X162837998Y-101821812D01*
X162487812Y-102171998D01*
X161733564Y-101794874D02*
X161383378Y-102145061D01*
X161787439Y-102171998D01*
X161706627Y-102252810D01*
X161679690Y-102333622D01*
X161679690Y-102387497D01*
X161706627Y-102468309D01*
X161841314Y-102602996D01*
X161922126Y-102629934D01*
X161976001Y-102629934D01*
X162056813Y-102602996D01*
X162218438Y-102441372D01*
X162245375Y-102360560D01*
X162245375Y-102306685D01*
X118806047Y-102883380D02*
X119282238Y-102883380D01*
X119282238Y-101883380D01*
X118472714Y-102359571D02*
X118139380Y-102359571D01*
X117996523Y-102883380D02*
X118472714Y-102883380D01*
X118472714Y-101883380D01*
X117996523Y-101883380D01*
X117567952Y-102883380D02*
X117567952Y-101883380D01*
X117329857Y-101883380D01*
X117187000Y-101931000D01*
X117091761Y-102026238D01*
X117044142Y-102121476D01*
X116996523Y-102311952D01*
X116996523Y-102454809D01*
X117044142Y-102645285D01*
X117091761Y-102740523D01*
X117187000Y-102835761D01*
X117329857Y-102883380D01*
X117567952Y-102883380D01*
X116139380Y-102216714D02*
X116139380Y-102883380D01*
X116377476Y-101835761D02*
X116615571Y-102550047D01*
X115996523Y-102550047D01*
X118806047Y-133973380D02*
X119282238Y-133973380D01*
X119282238Y-132973380D01*
X118472714Y-133449571D02*
X118139380Y-133449571D01*
X117996523Y-133973380D02*
X118472714Y-133973380D01*
X118472714Y-132973380D01*
X117996523Y-132973380D01*
X117567952Y-133973380D02*
X117567952Y-132973380D01*
X117329857Y-132973380D01*
X117187000Y-133021000D01*
X117091761Y-133116238D01*
X117044142Y-133211476D01*
X116996523Y-133401952D01*
X116996523Y-133544809D01*
X117044142Y-133735285D01*
X117091761Y-133830523D01*
X117187000Y-133925761D01*
X117329857Y-133973380D01*
X117567952Y-133973380D01*
X116663190Y-132973380D02*
X115996523Y-132973380D01*
X116425095Y-133973380D01*
X239549809Y-82260000D02*
X238984123Y-81694315D01*
X238849436Y-81829002D01*
X238795561Y-81936751D01*
X238795561Y-82044501D01*
X238822499Y-82125313D01*
X238903311Y-82260000D01*
X238984123Y-82340812D01*
X239118810Y-82421624D01*
X239199622Y-82448562D01*
X239307372Y-82448562D01*
X239415122Y-82394687D01*
X239549809Y-82260000D01*
X238364563Y-82690999D02*
X238741687Y-83068122D01*
X238283751Y-82340812D02*
X238822499Y-82610186D01*
X238472312Y-82960373D01*
X237771940Y-82906498D02*
X237718065Y-82960373D01*
X237691128Y-83041185D01*
X237691128Y-83095060D01*
X237718065Y-83175872D01*
X237798877Y-83310559D01*
X237933564Y-83445246D01*
X238068251Y-83526058D01*
X238149064Y-83552995D01*
X238202938Y-83552995D01*
X238283751Y-83526058D01*
X238337625Y-83472183D01*
X238364563Y-83391371D01*
X238364563Y-83337496D01*
X238337625Y-83256684D01*
X238256813Y-83121997D01*
X238122126Y-82987310D01*
X237987439Y-82906498D01*
X237906627Y-82879560D01*
X237852752Y-82879560D01*
X237771940Y-82906498D01*
X201449809Y-120360000D02*
X200884123Y-119794315D01*
X200749436Y-119929002D01*
X200695561Y-120036751D01*
X200695561Y-120144501D01*
X200722499Y-120225313D01*
X200803311Y-120360000D01*
X200884123Y-120440812D01*
X201018810Y-120521624D01*
X201099622Y-120548562D01*
X201207372Y-120548562D01*
X201315122Y-120494687D01*
X201449809Y-120360000D01*
X200372312Y-120306125D02*
X200022126Y-120656311D01*
X200426187Y-120683249D01*
X200345375Y-120764061D01*
X200318438Y-120844873D01*
X200318438Y-120898748D01*
X200345375Y-120979560D01*
X200480062Y-121114247D01*
X200560874Y-121141185D01*
X200614749Y-121141185D01*
X200695561Y-121114247D01*
X200857186Y-120952623D01*
X200884123Y-120871811D01*
X200884123Y-120817936D01*
X199671940Y-121006498D02*
X199618065Y-121060373D01*
X199591128Y-121141185D01*
X199591128Y-121195060D01*
X199618065Y-121275872D01*
X199698877Y-121410559D01*
X199833564Y-121545246D01*
X199968251Y-121626058D01*
X200049064Y-121652995D01*
X200102938Y-121652995D01*
X200183751Y-121626058D01*
X200237625Y-121572183D01*
X200264563Y-121491371D01*
X200264563Y-121437496D01*
X200237625Y-121356684D01*
X200156813Y-121221997D01*
X200022126Y-121087310D01*
X199887439Y-121006498D01*
X199806627Y-120979560D01*
X199752752Y-120979560D01*
X199671940Y-121006498D01*
X67830435Y-120629374D02*
X67264749Y-120063689D01*
X67130062Y-120198376D01*
X67076187Y-120306125D01*
X67076187Y-120413875D01*
X67103125Y-120494687D01*
X67183937Y-120629374D01*
X67264749Y-120710186D01*
X67399436Y-120790999D01*
X67480248Y-120817936D01*
X67587998Y-120817936D01*
X67695748Y-120764061D01*
X67830435Y-120629374D01*
X66779876Y-120656311D02*
X66726001Y-120656311D01*
X66645189Y-120683249D01*
X66510502Y-120817936D01*
X66483564Y-120898748D01*
X66483564Y-120952623D01*
X66510502Y-121033435D01*
X66564377Y-121087310D01*
X66672126Y-121141185D01*
X67318624Y-121141185D01*
X66968438Y-121491371D01*
X163349808Y-82260000D02*
X162784122Y-81694315D01*
X162649435Y-81829002D01*
X162595560Y-81936751D01*
X162595560Y-82044501D01*
X162622498Y-82125313D01*
X162703310Y-82260000D01*
X162784122Y-82340812D01*
X162918809Y-82421624D01*
X162999621Y-82448562D01*
X163107371Y-82448562D01*
X163215121Y-82394687D01*
X163349808Y-82260000D01*
X162299249Y-82286937D02*
X162245374Y-82286937D01*
X162164562Y-82313875D01*
X162029875Y-82448562D01*
X162002937Y-82529374D01*
X162002937Y-82583249D01*
X162029875Y-82664061D01*
X162083750Y-82717936D01*
X162191499Y-82771811D01*
X162837997Y-82771811D01*
X162487811Y-83121997D01*
X161625814Y-83229747D02*
X162002937Y-83606870D01*
X161545002Y-82879560D02*
X162083750Y-83148934D01*
X161733563Y-83499121D01*
X67830435Y-101579375D02*
X67264749Y-101013690D01*
X67130062Y-101148377D01*
X67076187Y-101256126D01*
X67076187Y-101363876D01*
X67103125Y-101444688D01*
X67183937Y-101579375D01*
X67264749Y-101660187D01*
X67399436Y-101741000D01*
X67480248Y-101767937D01*
X67587998Y-101767937D01*
X67695748Y-101714062D01*
X67830435Y-101579375D01*
X66752938Y-101525500D02*
X66402752Y-101875687D01*
X66806813Y-101902624D01*
X66726001Y-101983436D01*
X66699064Y-102064248D01*
X66699064Y-102118123D01*
X66726001Y-102198935D01*
X66860688Y-102333622D01*
X66941500Y-102360560D01*
X66995375Y-102360560D01*
X67076187Y-102333622D01*
X67237812Y-102171998D01*
X67264749Y-102091186D01*
X67264749Y-102037311D01*
X220499809Y-101310000D02*
X219934123Y-100744315D01*
X219799436Y-100879002D01*
X219745561Y-100986751D01*
X219745561Y-101094501D01*
X219772499Y-101175313D01*
X219853311Y-101310000D01*
X219934123Y-101390812D01*
X220068810Y-101471624D01*
X220149622Y-101498562D01*
X220257372Y-101498562D01*
X220365122Y-101444687D01*
X220499809Y-101310000D01*
X219422312Y-101256125D02*
X219072126Y-101606311D01*
X219476187Y-101633249D01*
X219395375Y-101714061D01*
X219368438Y-101794873D01*
X219368438Y-101848748D01*
X219395375Y-101929560D01*
X219530062Y-102064247D01*
X219610874Y-102091185D01*
X219664749Y-102091185D01*
X219745561Y-102064247D01*
X219907186Y-101902623D01*
X219934123Y-101821811D01*
X219934123Y-101767936D01*
X218560316Y-102118122D02*
X218829690Y-101848748D01*
X219126001Y-102091185D01*
X219072126Y-102091185D01*
X218991314Y-102118122D01*
X218856627Y-102252809D01*
X218829690Y-102333621D01*
X218829690Y-102387496D01*
X218856627Y-102468308D01*
X218991314Y-102602995D01*
X219072126Y-102629933D01*
X219126001Y-102629933D01*
X219206813Y-102602995D01*
X219341500Y-102468308D01*
X219368438Y-102387496D01*
X219368438Y-102333621D01*
X144299809Y-101310000D02*
X143734123Y-100744315D01*
X143599436Y-100879002D01*
X143545561Y-100986751D01*
X143545561Y-101094501D01*
X143572499Y-101175313D01*
X143653311Y-101310000D01*
X143734123Y-101390812D01*
X143868810Y-101471624D01*
X143949622Y-101498562D01*
X144057372Y-101498562D01*
X144165122Y-101444687D01*
X144299809Y-101310000D01*
X143437812Y-102171997D02*
X143761061Y-101848748D01*
X143599436Y-102010373D02*
X143033751Y-101444687D01*
X143168438Y-101471624D01*
X143276187Y-101471624D01*
X143357000Y-101444687D01*
X143168438Y-102441371D02*
X143060688Y-102549121D01*
X142979876Y-102576058D01*
X142926001Y-102576058D01*
X142791314Y-102549121D01*
X142656627Y-102468308D01*
X142441128Y-102252809D01*
X142414190Y-102171997D01*
X142414190Y-102118122D01*
X142441128Y-102037310D01*
X142548877Y-101929560D01*
X142629690Y-101902623D01*
X142683564Y-101902623D01*
X142764377Y-101929560D01*
X142899064Y-102064247D01*
X142926001Y-102145060D01*
X142926001Y-102198934D01*
X142899064Y-102279747D01*
X142791314Y-102387496D01*
X142710502Y-102414434D01*
X142656627Y-102414434D01*
X142575815Y-102387496D01*
X239549809Y-101310000D02*
X238984123Y-100744315D01*
X238849436Y-100879002D01*
X238795561Y-100986751D01*
X238795561Y-101094501D01*
X238822499Y-101175313D01*
X238903311Y-101310000D01*
X238984123Y-101390812D01*
X239118810Y-101471624D01*
X239199622Y-101498562D01*
X239307372Y-101498562D01*
X239415122Y-101444687D01*
X239549809Y-101310000D01*
X238472312Y-101256125D02*
X238122126Y-101606311D01*
X238526187Y-101633249D01*
X238445375Y-101714061D01*
X238418438Y-101794873D01*
X238418438Y-101848748D01*
X238445375Y-101929560D01*
X238580062Y-102064247D01*
X238660874Y-102091185D01*
X238714749Y-102091185D01*
X238795561Y-102064247D01*
X238957186Y-101902623D01*
X238984123Y-101821811D01*
X238984123Y-101767936D01*
X238418438Y-102441371D02*
X238310688Y-102549121D01*
X238229876Y-102576058D01*
X238176001Y-102576058D01*
X238041314Y-102549121D01*
X237906627Y-102468308D01*
X237691128Y-102252809D01*
X237664190Y-102171997D01*
X237664190Y-102118122D01*
X237691128Y-102037310D01*
X237798877Y-101929560D01*
X237879690Y-101902623D01*
X237933564Y-101902623D01*
X238014377Y-101929560D01*
X238149064Y-102064247D01*
X238176001Y-102145060D01*
X238176001Y-102198934D01*
X238149064Y-102279747D01*
X238041314Y-102387496D01*
X237960502Y-102414434D01*
X237906627Y-102414434D01*
X237825815Y-102387496D01*
X125249809Y-120360000D02*
X124684123Y-119794315D01*
X124549436Y-119929002D01*
X124495561Y-120036751D01*
X124495561Y-120144501D01*
X124522499Y-120225313D01*
X124603311Y-120360000D01*
X124684123Y-120440812D01*
X124818810Y-120521624D01*
X124899622Y-120548562D01*
X125007372Y-120548562D01*
X125115122Y-120494687D01*
X125249809Y-120360000D01*
X124387812Y-121221997D02*
X124711061Y-120898748D01*
X124549436Y-121060373D02*
X123983751Y-120494687D01*
X124118438Y-120521624D01*
X124226187Y-120521624D01*
X124307000Y-120494687D01*
X123525815Y-121329747D02*
X123902938Y-121706870D01*
X123445003Y-120979560D02*
X123983751Y-121248934D01*
X123633564Y-121599121D01*
X86880436Y-82529374D02*
X86314750Y-81963689D01*
X86180063Y-82098376D01*
X86126188Y-82206125D01*
X86126188Y-82313875D01*
X86153126Y-82394687D01*
X86233938Y-82529374D01*
X86314750Y-82610186D01*
X86449437Y-82690999D01*
X86530249Y-82717936D01*
X86637999Y-82717936D01*
X86745749Y-82664061D01*
X86880436Y-82529374D01*
X85910689Y-82852623D02*
X85937626Y-82771811D01*
X85937626Y-82717936D01*
X85910689Y-82637124D01*
X85883752Y-82610186D01*
X85802939Y-82583249D01*
X85749065Y-82583249D01*
X85668252Y-82610186D01*
X85560503Y-82717936D01*
X85533565Y-82798748D01*
X85533565Y-82852623D01*
X85560503Y-82933435D01*
X85587440Y-82960373D01*
X85668252Y-82987310D01*
X85722127Y-82987310D01*
X85802939Y-82960373D01*
X85910689Y-82852623D01*
X85991501Y-82825686D01*
X86045376Y-82825686D01*
X86126188Y-82852623D01*
X86233938Y-82960373D01*
X86260875Y-83041185D01*
X86260875Y-83095060D01*
X86233938Y-83175872D01*
X86126188Y-83283621D01*
X86045376Y-83310559D01*
X85991501Y-83310559D01*
X85910689Y-83283621D01*
X85802939Y-83175872D01*
X85776002Y-83095060D01*
X85776002Y-83041185D01*
X85802939Y-82960373D01*
X182399809Y-101310001D02*
X181834123Y-100744316D01*
X181699436Y-100879003D01*
X181645561Y-100986752D01*
X181645561Y-101094502D01*
X181672499Y-101175314D01*
X181753311Y-101310001D01*
X181834123Y-101390813D01*
X181968810Y-101471625D01*
X182049622Y-101498563D01*
X182157372Y-101498563D01*
X182265122Y-101444688D01*
X182399809Y-101310001D01*
X181349250Y-101336938D02*
X181295375Y-101336938D01*
X181214563Y-101363876D01*
X181079876Y-101498563D01*
X181052938Y-101579375D01*
X181052938Y-101633250D01*
X181079876Y-101714062D01*
X181133751Y-101767937D01*
X181241500Y-101821812D01*
X181887998Y-101821812D01*
X181537812Y-102171998D01*
X180783564Y-101794874D02*
X180406441Y-102171998D01*
X181214563Y-102495247D01*
X156906047Y-102883380D02*
X157382238Y-102883380D01*
X157382238Y-101883380D01*
X156572714Y-102359571D02*
X156239380Y-102359571D01*
X156096523Y-102883380D02*
X156572714Y-102883380D01*
X156572714Y-101883380D01*
X156096523Y-101883380D01*
X155667952Y-102883380D02*
X155667952Y-101883380D01*
X155429857Y-101883380D01*
X155287000Y-101931000D01*
X155191761Y-102026238D01*
X155144142Y-102121476D01*
X155096523Y-102311952D01*
X155096523Y-102454809D01*
X155144142Y-102645285D01*
X155191761Y-102740523D01*
X155287000Y-102835761D01*
X155429857Y-102883380D01*
X155667952Y-102883380D01*
X154763190Y-101883380D02*
X154144142Y-101883380D01*
X154477476Y-102264333D01*
X154334619Y-102264333D01*
X154239380Y-102311952D01*
X154191761Y-102359571D01*
X154144142Y-102454809D01*
X154144142Y-102692904D01*
X154191761Y-102788142D01*
X154239380Y-102835761D01*
X154334619Y-102883380D01*
X154620333Y-102883380D01*
X154715571Y-102835761D01*
X154763190Y-102788142D01*
X125249809Y-82260000D02*
X124684123Y-81694315D01*
X124549436Y-81829002D01*
X124495561Y-81936751D01*
X124495561Y-82044501D01*
X124522499Y-82125313D01*
X124603311Y-82260000D01*
X124684123Y-82340812D01*
X124818810Y-82421624D01*
X124899622Y-82448562D01*
X125007372Y-82448562D01*
X125115122Y-82394687D01*
X125249809Y-82260000D01*
X124387812Y-83121997D02*
X124711061Y-82798748D01*
X124549436Y-82960373D02*
X123983751Y-82394687D01*
X124118438Y-82421624D01*
X124226187Y-82421624D01*
X124307000Y-82394687D01*
X123337253Y-83041185D02*
X123445003Y-82933435D01*
X123525815Y-82906498D01*
X123579690Y-82906498D01*
X123714377Y-82933435D01*
X123849064Y-83014247D01*
X124064563Y-83229747D01*
X124091500Y-83310559D01*
X124091500Y-83364434D01*
X124064563Y-83445246D01*
X123956813Y-83552995D01*
X123876001Y-83579933D01*
X123822126Y-83579933D01*
X123741314Y-83552995D01*
X123606627Y-83418308D01*
X123579690Y-83337496D01*
X123579690Y-83283621D01*
X123606627Y-83202809D01*
X123714377Y-83095060D01*
X123795189Y-83068122D01*
X123849064Y-83068122D01*
X123929876Y-83095060D01*
X233582238Y-133973380D02*
X234058428Y-133973380D01*
X234058428Y-132973380D01*
X233248904Y-133449571D02*
X232915571Y-133449571D01*
X232772714Y-133973380D02*
X233248904Y-133973380D01*
X233248904Y-132973380D01*
X232772714Y-132973380D01*
X232344142Y-133973380D02*
X232344142Y-132973380D01*
X232106047Y-132973380D01*
X231963190Y-133021000D01*
X231867952Y-133116238D01*
X231820333Y-133211476D01*
X231772714Y-133401952D01*
X231772714Y-133544809D01*
X231820333Y-133735285D01*
X231867952Y-133830523D01*
X231963190Y-133925761D01*
X232106047Y-133973380D01*
X232344142Y-133973380D01*
X230820333Y-133973380D02*
X231391761Y-133973380D01*
X231106047Y-133973380D02*
X231106047Y-132973380D01*
X231201285Y-133116238D01*
X231296523Y-133211476D01*
X231391761Y-133259095D01*
X230201285Y-132973380D02*
X230106047Y-132973380D01*
X230010809Y-133021000D01*
X229963190Y-133068619D01*
X229915571Y-133163857D01*
X229867952Y-133354333D01*
X229867952Y-133592428D01*
X229915571Y-133782904D01*
X229963190Y-133878142D01*
X230010809Y-133925761D01*
X230106047Y-133973380D01*
X230201285Y-133973380D01*
X230296523Y-133925761D01*
X230344142Y-133878142D01*
X230391761Y-133782904D01*
X230439380Y-133592428D01*
X230439380Y-133354333D01*
X230391761Y-133163857D01*
X230344142Y-133068619D01*
X230296523Y-133021000D01*
X230201285Y-132973380D01*
X106199809Y-82260000D02*
X105634123Y-81694315D01*
X105499436Y-81829002D01*
X105445561Y-81936751D01*
X105445561Y-82044501D01*
X105472499Y-82125313D01*
X105553311Y-82260000D01*
X105634123Y-82340812D01*
X105768810Y-82421624D01*
X105849622Y-82448562D01*
X105957372Y-82448562D01*
X106065122Y-82394687D01*
X106199809Y-82260000D01*
X105337812Y-83121997D02*
X105661061Y-82798748D01*
X105499436Y-82960373D02*
X104933751Y-82394687D01*
X105068438Y-82421624D01*
X105176187Y-82421624D01*
X105257000Y-82394687D01*
X104610502Y-82825686D02*
X104556627Y-82825686D01*
X104475815Y-82852623D01*
X104341128Y-82987310D01*
X104314190Y-83068122D01*
X104314190Y-83121997D01*
X104341128Y-83202809D01*
X104395003Y-83256684D01*
X104502752Y-83310559D01*
X105149250Y-83310559D01*
X104799064Y-83660745D01*
X195006047Y-102883380D02*
X195482238Y-102883380D01*
X195482238Y-101883380D01*
X194672714Y-102359571D02*
X194339380Y-102359571D01*
X194196523Y-102883380D02*
X194672714Y-102883380D01*
X194672714Y-101883380D01*
X194196523Y-101883380D01*
X193767952Y-102883380D02*
X193767952Y-101883380D01*
X193529857Y-101883380D01*
X193387000Y-101931000D01*
X193291761Y-102026238D01*
X193244142Y-102121476D01*
X193196523Y-102311952D01*
X193196523Y-102454809D01*
X193244142Y-102645285D01*
X193291761Y-102740523D01*
X193387000Y-102835761D01*
X193529857Y-102883380D01*
X193767952Y-102883380D01*
X192815571Y-101978619D02*
X192767952Y-101931000D01*
X192672714Y-101883380D01*
X192434619Y-101883380D01*
X192339380Y-101931000D01*
X192291761Y-101978619D01*
X192244142Y-102073857D01*
X192244142Y-102169095D01*
X192291761Y-102311952D01*
X192863190Y-102883380D01*
X192244142Y-102883380D01*
X106199809Y-101310000D02*
X105634123Y-100744315D01*
X105499436Y-100879002D01*
X105445561Y-100986751D01*
X105445561Y-101094501D01*
X105472499Y-101175313D01*
X105553311Y-101310000D01*
X105634123Y-101390812D01*
X105768810Y-101471624D01*
X105849622Y-101498562D01*
X105957372Y-101498562D01*
X106065122Y-101444687D01*
X106199809Y-101310000D01*
X105337812Y-102171997D02*
X105661061Y-101848748D01*
X105499436Y-102010373D02*
X104933751Y-101444687D01*
X105068438Y-101471624D01*
X105176187Y-101471624D01*
X105257000Y-101444687D01*
X104799064Y-102710745D02*
X105122312Y-102387496D01*
X104960688Y-102549121D02*
X104395003Y-101983435D01*
X104529690Y-102010373D01*
X104637439Y-102010373D01*
X104718251Y-101983435D01*
X125249809Y-101310000D02*
X124684123Y-100744315D01*
X124549436Y-100879002D01*
X124495561Y-100986751D01*
X124495561Y-101094501D01*
X124522499Y-101175313D01*
X124603311Y-101310000D01*
X124684123Y-101390812D01*
X124818810Y-101471624D01*
X124899622Y-101498562D01*
X125007372Y-101498562D01*
X125115122Y-101444687D01*
X125249809Y-101310000D01*
X124387812Y-102171997D02*
X124711061Y-101848748D01*
X124549436Y-102010373D02*
X123983751Y-101444687D01*
X124118438Y-101471624D01*
X124226187Y-101471624D01*
X124307000Y-101444687D01*
X123310316Y-102118122D02*
X123579690Y-101848748D01*
X123876001Y-102091185D01*
X123822126Y-102091185D01*
X123741314Y-102118122D01*
X123606627Y-102252809D01*
X123579690Y-102333621D01*
X123579690Y-102387496D01*
X123606627Y-102468308D01*
X123741314Y-102602995D01*
X123822126Y-102629933D01*
X123876001Y-102629933D01*
X123956813Y-102602995D01*
X124091500Y-102468308D01*
X124118438Y-102387496D01*
X124118438Y-102333621D01*
X239549809Y-139410001D02*
X238984123Y-138844316D01*
X238849436Y-138979003D01*
X238795561Y-139086752D01*
X238795561Y-139194502D01*
X238822499Y-139275314D01*
X238903311Y-139410001D01*
X238984123Y-139490813D01*
X239118810Y-139571625D01*
X239199622Y-139598563D01*
X239307372Y-139598563D01*
X239415122Y-139544688D01*
X239549809Y-139410001D01*
X238472312Y-139356126D02*
X238122126Y-139706312D01*
X238526187Y-139733250D01*
X238445375Y-139814062D01*
X238418438Y-139894874D01*
X238418438Y-139948749D01*
X238445375Y-140029561D01*
X238580062Y-140164248D01*
X238660874Y-140191186D01*
X238714749Y-140191186D01*
X238795561Y-140164248D01*
X238957186Y-140002624D01*
X238984123Y-139921812D01*
X238984123Y-139867937D01*
X237933564Y-139894874D02*
X237556441Y-140271998D01*
X238364563Y-140595247D01*
X86880435Y-101579375D02*
X86314749Y-101013690D01*
X86180062Y-101148377D01*
X86126187Y-101256126D01*
X86126187Y-101363876D01*
X86153125Y-101444688D01*
X86233937Y-101579375D01*
X86314749Y-101660187D01*
X86449436Y-101741000D01*
X86530248Y-101767937D01*
X86637998Y-101767937D01*
X86745748Y-101714062D01*
X86880435Y-101579375D01*
X85802938Y-101525500D02*
X85425815Y-101902624D01*
X86233937Y-102225873D01*
X220499808Y-120360000D02*
X219934122Y-119794315D01*
X219799435Y-119929002D01*
X219745560Y-120036751D01*
X219745560Y-120144501D01*
X219772498Y-120225313D01*
X219853310Y-120360000D01*
X219934122Y-120440812D01*
X220068809Y-120521624D01*
X220149621Y-120548562D01*
X220257371Y-120548562D01*
X220365121Y-120494687D01*
X220499808Y-120360000D01*
X219422311Y-120306125D02*
X219072125Y-120656311D01*
X219476186Y-120683249D01*
X219395374Y-120764061D01*
X219368437Y-120844873D01*
X219368437Y-120898748D01*
X219395374Y-120979560D01*
X219530061Y-121114247D01*
X219610873Y-121141185D01*
X219664748Y-121141185D01*
X219745560Y-121114247D01*
X219907185Y-120952623D01*
X219934122Y-120871811D01*
X219934122Y-120817936D01*
X218775814Y-121329747D02*
X219152937Y-121706870D01*
X218695002Y-120979560D02*
X219233750Y-121248934D01*
X218883563Y-121599121D01*
X201449809Y-101310001D02*
X200884123Y-100744316D01*
X200749436Y-100879003D01*
X200695561Y-100986752D01*
X200695561Y-101094502D01*
X200722499Y-101175314D01*
X200803311Y-101310001D01*
X200884123Y-101390813D01*
X201018810Y-101471625D01*
X201099622Y-101498563D01*
X201207372Y-101498563D01*
X201315122Y-101444688D01*
X201449809Y-101310001D01*
X200372312Y-101256126D02*
X200022126Y-101606312D01*
X200426187Y-101633250D01*
X200345375Y-101714062D01*
X200318438Y-101794874D01*
X200318438Y-101848749D01*
X200345375Y-101929561D01*
X200480062Y-102064248D01*
X200560874Y-102091186D01*
X200614749Y-102091186D01*
X200695561Y-102064248D01*
X200857186Y-101902624D01*
X200884123Y-101821812D01*
X200884123Y-101767937D01*
X200049064Y-102710746D02*
X200372312Y-102387497D01*
X200210688Y-102549122D02*
X199645003Y-101983436D01*
X199779690Y-102010374D01*
X199887439Y-102010374D01*
X199968251Y-101983436D01*
X125249809Y-139410001D02*
X124684123Y-138844316D01*
X124549436Y-138979003D01*
X124495561Y-139086752D01*
X124495561Y-139194502D01*
X124522499Y-139275314D01*
X124603311Y-139410001D01*
X124684123Y-139490813D01*
X124818810Y-139571625D01*
X124899622Y-139598563D01*
X125007372Y-139598563D01*
X125115122Y-139544688D01*
X125249809Y-139410001D01*
X124387812Y-140271998D02*
X124711061Y-139948749D01*
X124549436Y-140110374D02*
X123983751Y-139544688D01*
X124118438Y-139571625D01*
X124226187Y-139571625D01*
X124306999Y-139544688D01*
X123633564Y-139894874D02*
X123283378Y-140245061D01*
X123687439Y-140271998D01*
X123606627Y-140352810D01*
X123579690Y-140433622D01*
X123579690Y-140487497D01*
X123606627Y-140568309D01*
X123741314Y-140702996D01*
X123822126Y-140729934D01*
X123876001Y-140729934D01*
X123956813Y-140702996D01*
X124118438Y-140541372D01*
X124145375Y-140460560D01*
X124145375Y-140406685D01*
X201449809Y-139410000D02*
X200884123Y-138844315D01*
X200749436Y-138979002D01*
X200695561Y-139086751D01*
X200695561Y-139194501D01*
X200722499Y-139275313D01*
X200803311Y-139410000D01*
X200884123Y-139490812D01*
X201018810Y-139571624D01*
X201099622Y-139598562D01*
X201207372Y-139598562D01*
X201315122Y-139544687D01*
X201449809Y-139410000D01*
X200399250Y-139436937D02*
X200345375Y-139436937D01*
X200264563Y-139463875D01*
X200129876Y-139598562D01*
X200102938Y-139679374D01*
X200102938Y-139733249D01*
X200129876Y-139814061D01*
X200183751Y-139867936D01*
X200291500Y-139921811D01*
X200937998Y-139921811D01*
X200587812Y-140271997D01*
X200318438Y-140541371D02*
X200210688Y-140649121D01*
X200129876Y-140676058D01*
X200076001Y-140676058D01*
X199941314Y-140649121D01*
X199806627Y-140568308D01*
X199591128Y-140352809D01*
X199564190Y-140271997D01*
X199564190Y-140218122D01*
X199591128Y-140137310D01*
X199698877Y-140029560D01*
X199779690Y-140002623D01*
X199833564Y-140002623D01*
X199914377Y-140029560D01*
X200049064Y-140164247D01*
X200076001Y-140245060D01*
X200076001Y-140298934D01*
X200049064Y-140379747D01*
X199941314Y-140487496D01*
X199860502Y-140514434D01*
X199806627Y-140514434D01*
X199725815Y-140487496D01*
X86880435Y-120629374D02*
X86314749Y-120063689D01*
X86180062Y-120198376D01*
X86126187Y-120306125D01*
X86126187Y-120413875D01*
X86153125Y-120494687D01*
X86233937Y-120629374D01*
X86314749Y-120710186D01*
X86449436Y-120790999D01*
X86530248Y-120817936D01*
X86637998Y-120817936D01*
X86745748Y-120764061D01*
X86880435Y-120629374D01*
X85506627Y-120871811D02*
X85614377Y-120764061D01*
X85695189Y-120737124D01*
X85749064Y-120737124D01*
X85883751Y-120764061D01*
X86018438Y-120844873D01*
X86233937Y-121060373D01*
X86260874Y-121141185D01*
X86260874Y-121195060D01*
X86233937Y-121275872D01*
X86126187Y-121383621D01*
X86045375Y-121410559D01*
X85991500Y-121410559D01*
X85910688Y-121383621D01*
X85776001Y-121248934D01*
X85749064Y-121168122D01*
X85749064Y-121114247D01*
X85776001Y-121033435D01*
X85883751Y-120925686D01*
X85964563Y-120898748D01*
X86018438Y-120898748D01*
X86099250Y-120925686D01*
X163349809Y-120360000D02*
X162784123Y-119794315D01*
X162649436Y-119929002D01*
X162595561Y-120036751D01*
X162595561Y-120144501D01*
X162622499Y-120225313D01*
X162703311Y-120360000D01*
X162784123Y-120440812D01*
X162918810Y-120521624D01*
X162999622Y-120548562D01*
X163107372Y-120548562D01*
X163215122Y-120494687D01*
X163349809Y-120360000D01*
X162299250Y-120386937D02*
X162245375Y-120386937D01*
X162164563Y-120413875D01*
X162029876Y-120548562D01*
X162002938Y-120629374D01*
X162002938Y-120683249D01*
X162029876Y-120764061D01*
X162083751Y-120817936D01*
X162191500Y-120871811D01*
X162837998Y-120871811D01*
X162487812Y-121221997D01*
X161760502Y-120925686D02*
X161706627Y-120925686D01*
X161625815Y-120952623D01*
X161491128Y-121087310D01*
X161464190Y-121168122D01*
X161464190Y-121221997D01*
X161491128Y-121302809D01*
X161545003Y-121356684D01*
X161652752Y-121410559D01*
X162299250Y-121410559D01*
X161949064Y-121760745D01*
X105930435Y-139679374D02*
X105364749Y-139113689D01*
X105230062Y-139248376D01*
X105176187Y-139356125D01*
X105176187Y-139463875D01*
X105203125Y-139544687D01*
X105283937Y-139679374D01*
X105364749Y-139760186D01*
X105499436Y-139840999D01*
X105580248Y-139867936D01*
X105687998Y-139867936D01*
X105795748Y-139814061D01*
X105930435Y-139679374D01*
X105337812Y-140271997D02*
X105230062Y-140379747D01*
X105149250Y-140406684D01*
X105095375Y-140406684D01*
X104960688Y-140379747D01*
X104826001Y-140298934D01*
X104610502Y-140083435D01*
X104583564Y-140002623D01*
X104583564Y-139948748D01*
X104610502Y-139867936D01*
X104718251Y-139760186D01*
X104799064Y-139733249D01*
X104852938Y-139733249D01*
X104933751Y-139760186D01*
X105068438Y-139894873D01*
X105095375Y-139975686D01*
X105095375Y-140029560D01*
X105068438Y-140110373D01*
X104960688Y-140218122D01*
X104879876Y-140245060D01*
X104826001Y-140245060D01*
X104745189Y-140218122D01*
X233106047Y-102883380D02*
X233582238Y-102883380D01*
X233582238Y-101883380D01*
X232772714Y-102359571D02*
X232439380Y-102359571D01*
X232296523Y-102883380D02*
X232772714Y-102883380D01*
X232772714Y-101883380D01*
X232296523Y-101883380D01*
X231867952Y-102883380D02*
X231867952Y-101883380D01*
X231629857Y-101883380D01*
X231487000Y-101931000D01*
X231391761Y-102026238D01*
X231344142Y-102121476D01*
X231296523Y-102311952D01*
X231296523Y-102454809D01*
X231344142Y-102645285D01*
X231391761Y-102740523D01*
X231487000Y-102835761D01*
X231629857Y-102883380D01*
X231867952Y-102883380D01*
X230344142Y-102883380D02*
X230915571Y-102883380D01*
X230629857Y-102883380D02*
X230629857Y-101883380D01*
X230725095Y-102026238D01*
X230820333Y-102121476D01*
X230915571Y-102169095D01*
X239549809Y-120360000D02*
X238984123Y-119794315D01*
X238849436Y-119929002D01*
X238795561Y-120036751D01*
X238795561Y-120144501D01*
X238822499Y-120225313D01*
X238903311Y-120360000D01*
X238984123Y-120440812D01*
X239118810Y-120521624D01*
X239199622Y-120548562D01*
X239307372Y-120548562D01*
X239415122Y-120494687D01*
X239549809Y-120360000D01*
X238472312Y-120306125D02*
X238122126Y-120656311D01*
X238526187Y-120683249D01*
X238445375Y-120764061D01*
X238418438Y-120844873D01*
X238418438Y-120898748D01*
X238445375Y-120979560D01*
X238580062Y-121114247D01*
X238660874Y-121141185D01*
X238714749Y-121141185D01*
X238795561Y-121114247D01*
X238957186Y-120952623D01*
X238984123Y-120871811D01*
X238984123Y-120817936D01*
X238041314Y-121221997D02*
X238068251Y-121141185D01*
X238068251Y-121087310D01*
X238041314Y-121006498D01*
X238014377Y-120979560D01*
X237933564Y-120952623D01*
X237879690Y-120952623D01*
X237798877Y-120979560D01*
X237691128Y-121087310D01*
X237664190Y-121168122D01*
X237664190Y-121221997D01*
X237691128Y-121302809D01*
X237718065Y-121329747D01*
X237798877Y-121356684D01*
X237852752Y-121356684D01*
X237933564Y-121329747D01*
X238041314Y-121221997D01*
X238122126Y-121195060D01*
X238176001Y-121195060D01*
X238256813Y-121221997D01*
X238364563Y-121329747D01*
X238391500Y-121410559D01*
X238391500Y-121464434D01*
X238364563Y-121545246D01*
X238256813Y-121652995D01*
X238176001Y-121679933D01*
X238122126Y-121679933D01*
X238041314Y-121652995D01*
X237933564Y-121545246D01*
X237906627Y-121464434D01*
X237906627Y-121410559D01*
X237933564Y-121329747D01*
X220499809Y-82260000D02*
X219934123Y-81694315D01*
X219799436Y-81829002D01*
X219745561Y-81936751D01*
X219745561Y-82044501D01*
X219772499Y-82125313D01*
X219853311Y-82260000D01*
X219934123Y-82340812D01*
X220068810Y-82421624D01*
X220149622Y-82448562D01*
X220257372Y-82448562D01*
X220365122Y-82394687D01*
X220499809Y-82260000D01*
X219422312Y-82206125D02*
X219072126Y-82556311D01*
X219476187Y-82583249D01*
X219395375Y-82664061D01*
X219368438Y-82744873D01*
X219368438Y-82798748D01*
X219395375Y-82879560D01*
X219530062Y-83014247D01*
X219610874Y-83041185D01*
X219664749Y-83041185D01*
X219745561Y-83014247D01*
X219907186Y-82852623D01*
X219934123Y-82771811D01*
X219934123Y-82717936D01*
X218587253Y-83041185D02*
X218695003Y-82933435D01*
X218775815Y-82906498D01*
X218829690Y-82906498D01*
X218964377Y-82933435D01*
X219099064Y-83014247D01*
X219314563Y-83229747D01*
X219341500Y-83310559D01*
X219341500Y-83364434D01*
X219314563Y-83445246D01*
X219206813Y-83552995D01*
X219126001Y-83579933D01*
X219072126Y-83579933D01*
X218991314Y-83552995D01*
X218856627Y-83418308D01*
X218829690Y-83337496D01*
X218829690Y-83283621D01*
X218856627Y-83202809D01*
X218964377Y-83095060D01*
X219045189Y-83068122D01*
X219099064Y-83068122D01*
X219179876Y-83095060D01*
X163349809Y-139410000D02*
X162784123Y-138844315D01*
X162649436Y-138979002D01*
X162595561Y-139086751D01*
X162595561Y-139194501D01*
X162622499Y-139275313D01*
X162703311Y-139410000D01*
X162784123Y-139490812D01*
X162918810Y-139571624D01*
X162999622Y-139598562D01*
X163107372Y-139598562D01*
X163215122Y-139544687D01*
X163349809Y-139410000D01*
X162299250Y-139436937D02*
X162245375Y-139436937D01*
X162164563Y-139463875D01*
X162029876Y-139598562D01*
X162002938Y-139679374D01*
X162002938Y-139733249D01*
X162029876Y-139814061D01*
X162083751Y-139867936D01*
X162191500Y-139921811D01*
X162837998Y-139921811D01*
X162487812Y-140271997D01*
X161949064Y-140810745D02*
X162272312Y-140487496D01*
X162110688Y-140649121D02*
X161545003Y-140083435D01*
X161679690Y-140110373D01*
X161787439Y-140110373D01*
X161868251Y-140083435D01*
X144299809Y-120360000D02*
X143734123Y-119794315D01*
X143599436Y-119929002D01*
X143545561Y-120036751D01*
X143545561Y-120144501D01*
X143572499Y-120225313D01*
X143653311Y-120360000D01*
X143734123Y-120440812D01*
X143868810Y-120521624D01*
X143949622Y-120548562D01*
X144057372Y-120548562D01*
X144165122Y-120494687D01*
X144299809Y-120360000D01*
X143437812Y-121221997D02*
X143761061Y-120898748D01*
X143599436Y-121060373D02*
X143033751Y-120494687D01*
X143168438Y-120521624D01*
X143276187Y-120521624D01*
X143357000Y-120494687D01*
X142791314Y-121221997D02*
X142818251Y-121141185D01*
X142818251Y-121087310D01*
X142791314Y-121006498D01*
X142764377Y-120979560D01*
X142683564Y-120952623D01*
X142629690Y-120952623D01*
X142548877Y-120979560D01*
X142441128Y-121087310D01*
X142414190Y-121168122D01*
X142414190Y-121221997D01*
X142441128Y-121302809D01*
X142468065Y-121329747D01*
X142548877Y-121356684D01*
X142602752Y-121356684D01*
X142683564Y-121329747D01*
X142791314Y-121221997D01*
X142872126Y-121195060D01*
X142926001Y-121195060D01*
X143006813Y-121221997D01*
X143114563Y-121329747D01*
X143141500Y-121410559D01*
X143141500Y-121464434D01*
X143114563Y-121545246D01*
X143006813Y-121652995D01*
X142926001Y-121679933D01*
X142872126Y-121679933D01*
X142791314Y-121652995D01*
X142683564Y-121545246D01*
X142656627Y-121464434D01*
X142656627Y-121410559D01*
X142683564Y-121329747D01*
X220499808Y-139410000D02*
X219934122Y-138844315D01*
X219799435Y-138979002D01*
X219745560Y-139086751D01*
X219745560Y-139194501D01*
X219772498Y-139275313D01*
X219853310Y-139410000D01*
X219934122Y-139490812D01*
X220068809Y-139571624D01*
X220149621Y-139598562D01*
X220257371Y-139598562D01*
X220365121Y-139544687D01*
X220499808Y-139410000D01*
X219422311Y-139356125D02*
X219072125Y-139706311D01*
X219476186Y-139733249D01*
X219395374Y-139814061D01*
X219368437Y-139894873D01*
X219368437Y-139948748D01*
X219395374Y-140029560D01*
X219530061Y-140164247D01*
X219610873Y-140191185D01*
X219664748Y-140191185D01*
X219745560Y-140164247D01*
X219907185Y-140002623D01*
X219934122Y-139921811D01*
X219934122Y-139867936D01*
X218883563Y-139894873D02*
X218533377Y-140245060D01*
X218937438Y-140271997D01*
X218856626Y-140352809D01*
X218829689Y-140433621D01*
X218829689Y-140487496D01*
X218856626Y-140568308D01*
X218991313Y-140702995D01*
X219072125Y-140729933D01*
X219126000Y-140729933D01*
X219206812Y-140702995D01*
X219368437Y-140541371D01*
X219395374Y-140460559D01*
X219395374Y-140406684D01*
X106199809Y-120360000D02*
X105634123Y-119794315D01*
X105499436Y-119929002D01*
X105445561Y-120036751D01*
X105445561Y-120144501D01*
X105472499Y-120225313D01*
X105553311Y-120360000D01*
X105634123Y-120440812D01*
X105768810Y-120521624D01*
X105849622Y-120548562D01*
X105957372Y-120548562D01*
X106065122Y-120494687D01*
X106199809Y-120360000D01*
X105337812Y-121221997D02*
X105661061Y-120898748D01*
X105499436Y-121060373D02*
X104933751Y-120494687D01*
X105068438Y-120521624D01*
X105176187Y-120521624D01*
X105257000Y-120494687D01*
X104421940Y-121006498D02*
X104368065Y-121060373D01*
X104341128Y-121141185D01*
X104341128Y-121195060D01*
X104368065Y-121275872D01*
X104448877Y-121410559D01*
X104583564Y-121545246D01*
X104718251Y-121626058D01*
X104799064Y-121652995D01*
X104852938Y-121652995D01*
X104933751Y-121626058D01*
X104987625Y-121572183D01*
X105014563Y-121491371D01*
X105014563Y-121437496D01*
X104987625Y-121356684D01*
X104906813Y-121221997D01*
X104772126Y-121087310D01*
X104637439Y-121006498D01*
X104556627Y-120979560D01*
X104502752Y-120979560D01*
X104421940Y-121006498D01*
X182399809Y-139410000D02*
X181834123Y-138844315D01*
X181699436Y-138979002D01*
X181645561Y-139086751D01*
X181645561Y-139194501D01*
X181672499Y-139275313D01*
X181753311Y-139410000D01*
X181834123Y-139490812D01*
X181968810Y-139571624D01*
X182049622Y-139598562D01*
X182157372Y-139598562D01*
X182265122Y-139544687D01*
X182399809Y-139410000D01*
X181349250Y-139436937D02*
X181295375Y-139436937D01*
X181214563Y-139463875D01*
X181079876Y-139598562D01*
X181052938Y-139679374D01*
X181052938Y-139733249D01*
X181079876Y-139814061D01*
X181133751Y-139867936D01*
X181241500Y-139921811D01*
X181887998Y-139921811D01*
X181537812Y-140271997D01*
X180460316Y-140218122D02*
X180729690Y-139948748D01*
X181026001Y-140191185D01*
X180972126Y-140191185D01*
X180891314Y-140218122D01*
X180756627Y-140352809D01*
X180729690Y-140433621D01*
X180729690Y-140487496D01*
X180756627Y-140568308D01*
X180891314Y-140702995D01*
X180972126Y-140729933D01*
X181026001Y-140729933D01*
X181106813Y-140702995D01*
X181241500Y-140568308D01*
X181268438Y-140487496D01*
X181268438Y-140433621D01*
X144299809Y-82260000D02*
X143734123Y-81694315D01*
X143599436Y-81829002D01*
X143545561Y-81936751D01*
X143545561Y-82044501D01*
X143572499Y-82125313D01*
X143653311Y-82260000D01*
X143734123Y-82340812D01*
X143868810Y-82421624D01*
X143949622Y-82448562D01*
X144057372Y-82448562D01*
X144165122Y-82394687D01*
X144299809Y-82260000D01*
X143249250Y-82286937D02*
X143195375Y-82286937D01*
X143114563Y-82313875D01*
X142979876Y-82448562D01*
X142952938Y-82529374D01*
X142952938Y-82583249D01*
X142979876Y-82664061D01*
X143033751Y-82717936D01*
X143141500Y-82771811D01*
X143787998Y-82771811D01*
X143437812Y-83121997D01*
X142521940Y-82906498D02*
X142468065Y-82960373D01*
X142441128Y-83041185D01*
X142441128Y-83095060D01*
X142468065Y-83175872D01*
X142548877Y-83310559D01*
X142683564Y-83445246D01*
X142818251Y-83526058D01*
X142899064Y-83552995D01*
X142952938Y-83552995D01*
X143033751Y-83526058D01*
X143087625Y-83472183D01*
X143114563Y-83391371D01*
X143114563Y-83337496D01*
X143087625Y-83256684D01*
X143006813Y-83121997D01*
X142872126Y-82987310D01*
X142737439Y-82906498D01*
X142656627Y-82879560D01*
X142602752Y-82879560D01*
X142521940Y-82906498D01*
X182399809Y-120360000D02*
X181834123Y-119794315D01*
X181699436Y-119929002D01*
X181645561Y-120036751D01*
X181645561Y-120144501D01*
X181672499Y-120225313D01*
X181753311Y-120360000D01*
X181834123Y-120440812D01*
X181968810Y-120521624D01*
X182049622Y-120548562D01*
X182157372Y-120548562D01*
X182265122Y-120494687D01*
X182399809Y-120360000D01*
X181349250Y-120386937D02*
X181295375Y-120386937D01*
X181214563Y-120413875D01*
X181079876Y-120548562D01*
X181052938Y-120629374D01*
X181052938Y-120683249D01*
X181079876Y-120764061D01*
X181133751Y-120817936D01*
X181241500Y-120871811D01*
X181887998Y-120871811D01*
X181537812Y-121221997D01*
X180487253Y-121141185D02*
X180595003Y-121033435D01*
X180675815Y-121006498D01*
X180729690Y-121006498D01*
X180864377Y-121033435D01*
X180999064Y-121114247D01*
X181214563Y-121329747D01*
X181241500Y-121410559D01*
X181241500Y-121464434D01*
X181214563Y-121545246D01*
X181106813Y-121652995D01*
X181026001Y-121679933D01*
X180972126Y-121679933D01*
X180891314Y-121652995D01*
X180756627Y-121518308D01*
X180729690Y-121437496D01*
X180729690Y-121383621D01*
X180756627Y-121302809D01*
X180864377Y-121195060D01*
X180945189Y-121168122D01*
X180999064Y-121168122D01*
X181079876Y-121195060D01*
X195006047Y-133973380D02*
X195482238Y-133973380D01*
X195482238Y-132973380D01*
X194672714Y-133449571D02*
X194339380Y-133449571D01*
X194196523Y-133973380D02*
X194672714Y-133973380D01*
X194672714Y-132973380D01*
X194196523Y-132973380D01*
X193767952Y-133973380D02*
X193767952Y-132973380D01*
X193529857Y-132973380D01*
X193387000Y-133021000D01*
X193291761Y-133116238D01*
X193244142Y-133211476D01*
X193196523Y-133401952D01*
X193196523Y-133544809D01*
X193244142Y-133735285D01*
X193291761Y-133830523D01*
X193387000Y-133925761D01*
X193529857Y-133973380D01*
X193767952Y-133973380D01*
X192720333Y-133973380D02*
X192529857Y-133973380D01*
X192434619Y-133925761D01*
X192387000Y-133878142D01*
X192291761Y-133735285D01*
X192244142Y-133544809D01*
X192244142Y-133163857D01*
X192291761Y-133068619D01*
X192339380Y-133021000D01*
X192434619Y-132973380D01*
X192625095Y-132973380D01*
X192720333Y-133021000D01*
X192767952Y-133068619D01*
X192815571Y-133163857D01*
X192815571Y-133401952D01*
X192767952Y-133497190D01*
X192720333Y-133544809D01*
X192625095Y-133592428D01*
X192434619Y-133592428D01*
X192339380Y-133544809D01*
X192291761Y-133497190D01*
X192244142Y-133401952D01*
X182399809Y-82260001D02*
X181834123Y-81694316D01*
X181699436Y-81829003D01*
X181645561Y-81936752D01*
X181645561Y-82044502D01*
X181672499Y-82125314D01*
X181753311Y-82260001D01*
X181834123Y-82340813D01*
X181968810Y-82421625D01*
X182049622Y-82448563D01*
X182157372Y-82448563D01*
X182265122Y-82394688D01*
X182399809Y-82260001D01*
X181349250Y-82286938D02*
X181295375Y-82286938D01*
X181214563Y-82313876D01*
X181079876Y-82448563D01*
X181052938Y-82529375D01*
X181052938Y-82583250D01*
X181079876Y-82664062D01*
X181133751Y-82717937D01*
X181241500Y-82771812D01*
X181887998Y-82771812D01*
X181537812Y-83121998D01*
X180891314Y-83121998D02*
X180918251Y-83041186D01*
X180918251Y-82987311D01*
X180891314Y-82906499D01*
X180864377Y-82879561D01*
X180783564Y-82852624D01*
X180729690Y-82852624D01*
X180648877Y-82879561D01*
X180541128Y-82987311D01*
X180514190Y-83068123D01*
X180514190Y-83121998D01*
X180541128Y-83202810D01*
X180568065Y-83229748D01*
X180648877Y-83256685D01*
X180702752Y-83256685D01*
X180783564Y-83229748D01*
X180891314Y-83121998D01*
X180972126Y-83095061D01*
X181026001Y-83095061D01*
X181106813Y-83121998D01*
X181214563Y-83229748D01*
X181241500Y-83310560D01*
X181241500Y-83364435D01*
X181214563Y-83445247D01*
X181106813Y-83552996D01*
X181026001Y-83579934D01*
X180972126Y-83579934D01*
X180891314Y-83552996D01*
X180783564Y-83445247D01*
X180756627Y-83364435D01*
X180756627Y-83310560D01*
X180783564Y-83229748D01*
X156906047Y-133973380D02*
X157382238Y-133973380D01*
X157382238Y-132973380D01*
X156572714Y-133449571D02*
X156239380Y-133449571D01*
X156096523Y-133973380D02*
X156572714Y-133973380D01*
X156572714Y-132973380D01*
X156096523Y-132973380D01*
X155667952Y-133973380D02*
X155667952Y-132973380D01*
X155429857Y-132973380D01*
X155287000Y-133021000D01*
X155191761Y-133116238D01*
X155144142Y-133211476D01*
X155096523Y-133401952D01*
X155096523Y-133544809D01*
X155144142Y-133735285D01*
X155191761Y-133830523D01*
X155287000Y-133925761D01*
X155429857Y-133973380D01*
X155667952Y-133973380D01*
X154525095Y-133401952D02*
X154620333Y-133354333D01*
X154667952Y-133306714D01*
X154715571Y-133211476D01*
X154715571Y-133163857D01*
X154667952Y-133068619D01*
X154620333Y-133021000D01*
X154525095Y-132973380D01*
X154334619Y-132973380D01*
X154239380Y-133021000D01*
X154191761Y-133068619D01*
X154144142Y-133163857D01*
X154144142Y-133211476D01*
X154191761Y-133306714D01*
X154239380Y-133354333D01*
X154334619Y-133401952D01*
X154525095Y-133401952D01*
X154620333Y-133449571D01*
X154667952Y-133497190D01*
X154715571Y-133592428D01*
X154715571Y-133782904D01*
X154667952Y-133878142D01*
X154620333Y-133925761D01*
X154525095Y-133973380D01*
X154334619Y-133973380D01*
X154239380Y-133925761D01*
X154191761Y-133878142D01*
X154144142Y-133782904D01*
X154144142Y-133592428D01*
X154191761Y-133497190D01*
X154239380Y-133449571D01*
X154334619Y-133401952D01*
X67830435Y-139679374D02*
X67264749Y-139113689D01*
X67130062Y-139248376D01*
X67076187Y-139356125D01*
X67076187Y-139463875D01*
X67103125Y-139544687D01*
X67183937Y-139679374D01*
X67264749Y-139760186D01*
X67399436Y-139840999D01*
X67480248Y-139867936D01*
X67587998Y-139867936D01*
X67695748Y-139814061D01*
X67830435Y-139679374D01*
X66968438Y-140541371D02*
X67291687Y-140218122D01*
X67130062Y-140379747D02*
X66564377Y-139814061D01*
X66699064Y-139840999D01*
X66806813Y-139840999D01*
X66887625Y-139814061D01*
X201449809Y-82260000D02*
X200884123Y-81694315D01*
X200749436Y-81829002D01*
X200695561Y-81936751D01*
X200695561Y-82044501D01*
X200722499Y-82125313D01*
X200803311Y-82260000D01*
X200884123Y-82340812D01*
X201018810Y-82421624D01*
X201099622Y-82448562D01*
X201207372Y-82448562D01*
X201315122Y-82394687D01*
X201449809Y-82260000D01*
X200372312Y-82206125D02*
X200022126Y-82556311D01*
X200426187Y-82583249D01*
X200345375Y-82664061D01*
X200318438Y-82744873D01*
X200318438Y-82798748D01*
X200345375Y-82879560D01*
X200480062Y-83014247D01*
X200560874Y-83041185D01*
X200614749Y-83041185D01*
X200695561Y-83014247D01*
X200857186Y-82852623D01*
X200884123Y-82771811D01*
X200884123Y-82717936D01*
X199860502Y-82825686D02*
X199806627Y-82825686D01*
X199725815Y-82852623D01*
X199591128Y-82987310D01*
X199564190Y-83068122D01*
X199564190Y-83121997D01*
X199591128Y-83202809D01*
X199645003Y-83256684D01*
X199752752Y-83310559D01*
X200399250Y-83310559D01*
X200049064Y-83660745D01*
X144299809Y-139410000D02*
X143734123Y-138844315D01*
X143599436Y-138979002D01*
X143545561Y-139086751D01*
X143545561Y-139194501D01*
X143572499Y-139275313D01*
X143653311Y-139410000D01*
X143734123Y-139490812D01*
X143868810Y-139571624D01*
X143949622Y-139598562D01*
X144057372Y-139598562D01*
X144165122Y-139544687D01*
X144299809Y-139410000D01*
X143437812Y-140271997D02*
X143761061Y-139948748D01*
X143599436Y-140110373D02*
X143033751Y-139544687D01*
X143168438Y-139571624D01*
X143276187Y-139571624D01*
X143356999Y-139544687D01*
X142683564Y-139894873D02*
X142306441Y-140271997D01*
X143114563Y-140595246D01*
X67830434Y-82529374D02*
X67264748Y-81963689D01*
X67130061Y-82098376D01*
X67076186Y-82206125D01*
X67076186Y-82313875D01*
X67103124Y-82394687D01*
X67183936Y-82529374D01*
X67264748Y-82610186D01*
X67399435Y-82690999D01*
X67480247Y-82717936D01*
X67587997Y-82717936D01*
X67695747Y-82664061D01*
X67830434Y-82529374D01*
X66645188Y-82960373D02*
X67022311Y-83337496D01*
X66564376Y-82610186D02*
X67103124Y-82879560D01*
X66752937Y-83229747D01*
X86880435Y-139679374D02*
X86314749Y-139113689D01*
X86180062Y-139248376D01*
X86126187Y-139356125D01*
X86126187Y-139463875D01*
X86153125Y-139544687D01*
X86233937Y-139679374D01*
X86314749Y-139760186D01*
X86449436Y-139840999D01*
X86530248Y-139867936D01*
X86637998Y-139867936D01*
X86745748Y-139814061D01*
X86880435Y-139679374D01*
X85479690Y-139948748D02*
X85749064Y-139679374D01*
X86045375Y-139921811D01*
X85991500Y-139921811D01*
X85910688Y-139948748D01*
X85776001Y-140083435D01*
X85749064Y-140164247D01*
X85749064Y-140218122D01*
X85776001Y-140298934D01*
X85910688Y-140433621D01*
X85991500Y-140460559D01*
X86045375Y-140460559D01*
X86126187Y-140433621D01*
X86260874Y-140298934D01*
X86287812Y-140218122D01*
X86287812Y-140164247D01*
X80706047Y-102883380D02*
X81182238Y-102883380D01*
X81182238Y-101883380D01*
X80372714Y-102359571D02*
X80039380Y-102359571D01*
X79896523Y-102883380D02*
X80372714Y-102883380D01*
X80372714Y-101883380D01*
X79896523Y-101883380D01*
X79467952Y-102883380D02*
X79467952Y-101883380D01*
X79229857Y-101883380D01*
X79087000Y-101931000D01*
X78991761Y-102026238D01*
X78944142Y-102121476D01*
X78896523Y-102311952D01*
X78896523Y-102454809D01*
X78944142Y-102645285D01*
X78991761Y-102740523D01*
X79087000Y-102835761D01*
X79229857Y-102883380D01*
X79467952Y-102883380D01*
X77991761Y-101883380D02*
X78467952Y-101883380D01*
X78515571Y-102359571D01*
X78467952Y-102311952D01*
X78372714Y-102264333D01*
X78134619Y-102264333D01*
X78039380Y-102311952D01*
X77991761Y-102359571D01*
X77944142Y-102454809D01*
X77944142Y-102692904D01*
X77991761Y-102788142D01*
X78039380Y-102835761D01*
X78134619Y-102883380D01*
X78372714Y-102883380D01*
X78467952Y-102835761D01*
X78515571Y-102788142D01*
D12*
X156893734Y-63099463D02*
X157159825Y-62106399D01*
X157261228Y-62008351D01*
X157346979Y-61968718D01*
X157502829Y-61947869D01*
X157783223Y-62023000D01*
X157907768Y-62118981D01*
X157962214Y-62196180D01*
X158001008Y-62331794D01*
X157734918Y-63324857D01*
X159535689Y-62492572D02*
X158694505Y-62267177D01*
X159115097Y-62379875D02*
X158786397Y-63606600D01*
X158693157Y-63393788D01*
X158584264Y-63239391D01*
X158459719Y-63143410D01*
D11*
X80706047Y-133973380D02*
X81182238Y-133973380D01*
X81182238Y-132973380D01*
X80372714Y-133449571D02*
X80039380Y-133449571D01*
X79896523Y-133973380D02*
X80372714Y-133973380D01*
X80372714Y-132973380D01*
X79896523Y-132973380D01*
X79467952Y-133973380D02*
X79467952Y-132973380D01*
X79229857Y-132973380D01*
X79087000Y-133021000D01*
X78991761Y-133116238D01*
X78944142Y-133211476D01*
X78896523Y-133401952D01*
X78896523Y-133544809D01*
X78944142Y-133735285D01*
X78991761Y-133830523D01*
X79087000Y-133925761D01*
X79229857Y-133973380D01*
X79467952Y-133973380D01*
X78039380Y-132973380D02*
X78229857Y-132973380D01*
X78325095Y-133021000D01*
X78372714Y-133068619D01*
X78467952Y-133211476D01*
X78515571Y-133401952D01*
X78515571Y-133782904D01*
X78467952Y-133878142D01*
X78420333Y-133925761D01*
X78325095Y-133973380D01*
X78134619Y-133973380D01*
X78039380Y-133925761D01*
X77991761Y-133878142D01*
X77944142Y-133782904D01*
X77944142Y-133544809D01*
X77991761Y-133449571D01*
X78039380Y-133401952D01*
X78134619Y-133354333D01*
X78325095Y-133354333D01*
X78420333Y-133401952D01*
X78467952Y-133449571D01*
X78515571Y-133544809D01*
X216647000Y-150761000D02*
X216647000Y-151361000D01*
X222147000Y-153361000D02*
X221647000Y-152861000D01*
X221147000Y-146661000D02*
X216647000Y-146661000D01*
X225647000Y-152861000D02*
X225147000Y-153361000D01*
X225147000Y-148861000D02*
X222647000Y-148861000D01*
X221647000Y-151861000D02*
X221647000Y-152861000D01*
X225147000Y-153361000D02*
X222147000Y-153361000D01*
X225647000Y-149361000D02*
X225147000Y-148861000D01*
X221147000Y-147361000D02*
X221147000Y-146661000D01*
X216647000Y-151361000D02*
X221147000Y-151361000D01*
X216647000Y-146661000D02*
X216647000Y-147161000D01*
X221147000Y-147361000D02*
G75*
G03*
X222647000Y-148861000I1500001J1D01*
G01*
X221647000Y-151861000D02*
G75*
G03*
X221147000Y-151361000I-500001J-1D01*
G01*
X225647001Y-111261000D02*
X225147001Y-110761000D01*
X225647001Y-114761000D02*
X225147001Y-115261000D01*
X216647001Y-112661000D02*
X216647001Y-113261000D01*
X216647001Y-108561000D02*
X216647001Y-109061000D01*
X221147001Y-108561000D02*
X216647001Y-108561000D01*
X221147001Y-109261000D02*
X221147001Y-108561000D01*
X222147001Y-115261000D02*
X221647001Y-114761000D01*
X225147001Y-115261000D02*
X222147001Y-115261000D01*
X216647001Y-113261000D02*
X221147001Y-113261000D01*
X225147001Y-110761000D02*
X222647001Y-110761000D01*
X221647001Y-113761000D02*
X221647001Y-114761000D01*
X221147001Y-109261000D02*
G75*
G03*
X222647001Y-110761000I1500001J1D01*
G01*
X221647001Y-113761000D02*
G75*
G03*
X221147001Y-113261000I-500001J-1D01*
G01*
X140447000Y-112661000D02*
X140447000Y-113261000D01*
X148947000Y-110761000D02*
X146447000Y-110761000D01*
X144947000Y-108561000D02*
X140447000Y-108561000D01*
X145447000Y-113761000D02*
X145447000Y-114761000D01*
X145947000Y-115261000D02*
X145447000Y-114761000D01*
X140447000Y-108561000D02*
X140447000Y-109061000D01*
X149447000Y-114761000D02*
X148947000Y-115261000D01*
X140447000Y-113261000D02*
X144947000Y-113261000D01*
X149447000Y-111261000D02*
X148947000Y-110761000D01*
X144947000Y-109261000D02*
X144947000Y-108561000D01*
X148947000Y-115261000D02*
X145947000Y-115261000D01*
X145447000Y-113761000D02*
G75*
G03*
X144947000Y-113261000I-500001J-1D01*
G01*
X144947000Y-109261000D02*
G75*
G03*
X146447000Y-110761000I1500001J1D01*
G01*
X240197000Y-146661000D02*
X235697000Y-146661000D01*
X235697000Y-151361000D02*
X240197000Y-151361000D01*
X241197000Y-153361000D02*
X240697000Y-152861000D01*
X244197000Y-153361000D02*
X241197000Y-153361000D01*
X244197000Y-148861000D02*
X241697000Y-148861000D01*
X235697000Y-146661000D02*
X235697000Y-147161000D01*
X235697000Y-150761000D02*
X235697000Y-151361000D01*
X240197000Y-147361000D02*
X240197000Y-146661000D01*
X244697000Y-152861000D02*
X244197000Y-153361000D01*
X244697000Y-149361000D02*
X244197000Y-148861000D01*
X240697000Y-151861000D02*
X240697000Y-152861000D01*
X240697000Y-151861000D02*
G75*
G03*
X240197000Y-151361000I-500001J-1D01*
G01*
X240197000Y-147361000D02*
G75*
G03*
X241697000Y-148861000I1500001J1D01*
G01*
X130397000Y-95711000D02*
X129897000Y-96211000D01*
X121397000Y-89511000D02*
X121397000Y-90011000D01*
X121397000Y-93611000D02*
X121397000Y-94211000D01*
X126897000Y-96211000D02*
X126397000Y-95711000D01*
X125897000Y-89511000D02*
X121397000Y-89511000D01*
X129897000Y-96211000D02*
X126897000Y-96211000D01*
X129897000Y-91711000D02*
X127397000Y-91711000D01*
X121397000Y-94211000D02*
X125897000Y-94211000D01*
X125897000Y-90211000D02*
X125897000Y-89511000D01*
X130397000Y-92211000D02*
X129897000Y-91711000D01*
X126397000Y-94711000D02*
X126397000Y-95711000D01*
X126397000Y-94711000D02*
G75*
G03*
X125897000Y-94211000I-500001J-1D01*
G01*
X125897000Y-90211000D02*
G75*
G03*
X127397000Y-91711000I1500001J1D01*
G01*
X129897000Y-134311000D02*
X126897000Y-134311000D01*
X130397000Y-133811000D02*
X129897000Y-134311000D01*
X121397000Y-127611000D02*
X121397000Y-128111000D01*
X125897000Y-128311000D02*
X125897000Y-127611000D01*
X121397000Y-132311000D02*
X125897000Y-132311000D01*
X126397000Y-132811000D02*
X126397000Y-133811000D01*
X126897000Y-134311000D02*
X126397000Y-133811000D01*
X121397000Y-131711000D02*
X121397000Y-132311000D01*
X125897000Y-127611000D02*
X121397000Y-127611000D01*
X130397000Y-130311000D02*
X129897000Y-129811000D01*
X129897000Y-129811000D02*
X127397000Y-129811000D01*
X125897000Y-128311000D02*
G75*
G03*
X127397000Y-129811000I1500001J1D01*
G01*
X126397000Y-132811000D02*
G75*
G03*
X125897000Y-132311000I-500001J-1D01*
G01*
X125897000Y-146661000D02*
X121397000Y-146661000D01*
X129897000Y-148861000D02*
X127397000Y-148861000D01*
X121397000Y-150761000D02*
X121397000Y-151361000D01*
X126897000Y-153361000D02*
X126397000Y-152861000D01*
X121397000Y-151361000D02*
X125897000Y-151361000D01*
X121397000Y-146661000D02*
X121397000Y-147161000D01*
X130397000Y-152861000D02*
X129897000Y-153361000D01*
X125897000Y-147361000D02*
X125897000Y-146661000D01*
X130397000Y-149361000D02*
X129897000Y-148861000D01*
X126397000Y-151861000D02*
X126397000Y-152861000D01*
X129897000Y-153361000D02*
X126897000Y-153361000D01*
X126397000Y-151861000D02*
G75*
G03*
X125897000Y-151361000I-500001J-1D01*
G01*
X125897000Y-147361000D02*
G75*
G03*
X127397000Y-148861000I1500001J1D01*
G01*
X184047000Y-96211000D02*
X183547000Y-95711000D01*
X187047000Y-96211000D02*
X184047000Y-96211000D01*
X187047000Y-91711000D02*
X184547000Y-91711000D01*
X178547000Y-89511000D02*
X178547000Y-90011000D01*
X178547000Y-94211000D02*
X183047000Y-94211000D01*
X187547000Y-92211000D02*
X187047000Y-91711000D01*
X187547000Y-95711000D02*
X187047000Y-96211000D01*
X183047000Y-89511000D02*
X178547000Y-89511000D01*
X178547000Y-93611000D02*
X178547000Y-94211000D01*
X183047000Y-90211000D02*
X183047000Y-89511000D01*
X183547000Y-94711000D02*
X183547000Y-95711000D01*
X183547000Y-94711000D02*
G75*
G03*
X183047000Y-94211000I-500001J-1D01*
G01*
X183047000Y-90211000D02*
G75*
G03*
X184547000Y-91711000I1500001J1D01*
G01*
X178547000Y-113261000D02*
X183047000Y-113261000D01*
X183047000Y-109261000D02*
X183047000Y-108561000D01*
X178547000Y-108561000D02*
X178547000Y-109061000D01*
X187547000Y-114761000D02*
X187047000Y-115261000D01*
X187047000Y-110761000D02*
X184547000Y-110761000D01*
X187547000Y-111261000D02*
X187047000Y-110761000D01*
X183547000Y-113761000D02*
X183547000Y-114761000D01*
X183047000Y-108561000D02*
X178547000Y-108561000D01*
X184047000Y-115261000D02*
X183547000Y-114761000D01*
X187047000Y-115261000D02*
X184047000Y-115261000D01*
X178547000Y-112661000D02*
X178547000Y-113261000D01*
X183047000Y-109261000D02*
G75*
G03*
X184547000Y-110761000I1500001J1D01*
G01*
X183547000Y-113761000D02*
G75*
G03*
X183047000Y-113261000I-500001J-1D01*
G01*
X202597000Y-94711000D02*
X202597000Y-95711000D01*
X206097000Y-91711000D02*
X203597000Y-91711000D01*
X202097000Y-90211000D02*
X202097000Y-89511000D01*
X197597000Y-93611000D02*
X197597000Y-94211000D01*
X197597000Y-89511000D02*
X197597000Y-90011000D01*
X206597000Y-95711000D02*
X206097000Y-96211000D01*
X203097000Y-96211000D02*
X202597000Y-95711000D01*
X202097000Y-89511000D02*
X197597000Y-89511000D01*
X206597000Y-92211000D02*
X206097000Y-91711000D01*
X206097000Y-96211000D02*
X203097000Y-96211000D01*
X197597000Y-94211000D02*
X202097000Y-94211000D01*
X202597000Y-94711000D02*
G75*
G03*
X202097000Y-94211000I-500001J-1D01*
G01*
X202097000Y-90211000D02*
G75*
G03*
X203597000Y-91711000I1500001J1D01*
G01*
X144947000Y-128311000D02*
X144947000Y-127611000D01*
X145947000Y-134311000D02*
X145447000Y-133811000D01*
X140447000Y-132311000D02*
X144947000Y-132311000D01*
X148947000Y-129811000D02*
X146447000Y-129811000D01*
X140447000Y-131711000D02*
X140447000Y-132311000D01*
X144947000Y-127611000D02*
X140447000Y-127611000D01*
X145447000Y-132811000D02*
X145447000Y-133811000D01*
X148947000Y-134311000D02*
X145947000Y-134311000D01*
X149447000Y-133811000D02*
X148947000Y-134311000D01*
X140447000Y-127611000D02*
X140447000Y-128111000D01*
X149447000Y-130311000D02*
X148947000Y-129811000D01*
X144947000Y-128311000D02*
G75*
G03*
X146447000Y-129811000I1500001J1D01*
G01*
X145447000Y-132811000D02*
G75*
G03*
X144947000Y-132311000I-500001J-1D01*
G01*
X102347001Y-108561000D02*
X102347001Y-109061000D01*
X106847001Y-109261000D02*
X106847001Y-108561000D01*
X111347001Y-111261000D02*
X110847001Y-110761000D01*
X110847001Y-110761000D02*
X108347001Y-110761000D01*
X102347001Y-112661000D02*
X102347001Y-113261000D01*
X106847001Y-108561000D02*
X102347001Y-108561000D01*
X110847001Y-115261000D02*
X107847001Y-115261000D01*
X107847001Y-115261000D02*
X107347001Y-114761000D01*
X102347001Y-113261000D02*
X106847001Y-113261000D01*
X111347001Y-114761000D02*
X110847001Y-115261000D01*
X107347001Y-113761000D02*
X107347001Y-114761000D01*
X107347001Y-113761000D02*
G75*
G03*
X106847001Y-113261000I-500001J-1D01*
G01*
X106847001Y-109261000D02*
G75*
G03*
X108347001Y-110761000I1500001J1D01*
G01*
X244697000Y-130311000D02*
X244197000Y-129811000D01*
X240197000Y-127611000D02*
X235697000Y-127611000D01*
X240697000Y-132811000D02*
X240697000Y-133811000D01*
X235697000Y-131711000D02*
X235697000Y-132311000D01*
X235697000Y-132311000D02*
X240197000Y-132311000D01*
X244197000Y-134311000D02*
X241197000Y-134311000D01*
X244197000Y-129811000D02*
X241697000Y-129811000D01*
X235697000Y-127611000D02*
X235697000Y-128111000D01*
X244697000Y-133811000D02*
X244197000Y-134311000D01*
X241197000Y-134311000D02*
X240697000Y-133811000D01*
X240197000Y-128311000D02*
X240197000Y-127611000D01*
X240197000Y-128311000D02*
G75*
G03*
X241697000Y-129811000I1500001J1D01*
G01*
X240697000Y-132811000D02*
G75*
G03*
X240197000Y-132311000I-500001J-1D01*
G01*
X83297000Y-132311001D02*
X87797000Y-132311001D01*
X88797000Y-134311001D02*
X88297000Y-133811001D01*
X87797000Y-128311001D02*
X87797000Y-127611001D01*
X83297000Y-127611001D02*
X83297000Y-128111001D01*
X92297000Y-130311001D02*
X91797000Y-129811001D01*
X91797000Y-129811001D02*
X89297000Y-129811001D01*
X91797000Y-134311001D02*
X88797000Y-134311001D01*
X87797000Y-127611001D02*
X83297000Y-127611001D01*
X92297000Y-133811001D02*
X91797000Y-134311001D01*
X83297000Y-131711001D02*
X83297000Y-132311001D01*
X88297000Y-132811001D02*
X88297000Y-133811001D01*
X88297000Y-132811001D02*
G75*
G03*
X87797000Y-132311001I-500001J-1D01*
G01*
X87797000Y-128311001D02*
G75*
G03*
X89297000Y-129811001I1500001J1D01*
G01*
X107347000Y-151861000D02*
X107347000Y-152861000D01*
X102347000Y-150761000D02*
X102347000Y-151361000D01*
X107847000Y-153361000D02*
X107347000Y-152861000D01*
X110847000Y-148861000D02*
X108347000Y-148861000D01*
X111347000Y-149361000D02*
X110847000Y-148861000D01*
X111347000Y-152861000D02*
X110847000Y-153361000D01*
X102347000Y-151361000D02*
X106847000Y-151361000D01*
X106847000Y-147361000D02*
X106847000Y-146661000D01*
X106847000Y-146661000D02*
X102347000Y-146661000D01*
X102347000Y-146661000D02*
X102347000Y-147161000D01*
X110847000Y-153361000D02*
X107847000Y-153361000D01*
X106847000Y-147361000D02*
G75*
G03*
X108347000Y-148861000I1500001J1D01*
G01*
X107347000Y-151861000D02*
G75*
G03*
X106847000Y-151361000I-500001J-1D01*
G01*
X102347000Y-89511000D02*
X102347000Y-90011000D01*
X110847000Y-91711000D02*
X108347000Y-91711000D01*
X102347000Y-93611000D02*
X102347000Y-94211000D01*
X111347000Y-92211000D02*
X110847000Y-91711000D01*
X102347000Y-94211000D02*
X106847000Y-94211000D01*
X106847000Y-90211000D02*
X106847000Y-89511000D01*
X107847000Y-96211000D02*
X107347000Y-95711000D01*
X111347000Y-95711000D02*
X110847000Y-96211000D01*
X107347000Y-94711000D02*
X107347000Y-95711000D01*
X110847000Y-96211000D02*
X107847000Y-96211000D01*
X106847000Y-89511000D02*
X102347000Y-89511000D01*
X107347000Y-94711000D02*
G75*
G03*
X106847000Y-94211000I-500001J-1D01*
G01*
X106847000Y-90211000D02*
G75*
G03*
X108347000Y-91711000I1500001J1D01*
G01*
X87797000Y-146661000D02*
X83297000Y-146661000D01*
X91797000Y-153361000D02*
X88797000Y-153361000D01*
X83297000Y-151361000D02*
X87797000Y-151361000D01*
X92297000Y-149361000D02*
X91797000Y-148861000D01*
X91797000Y-148861000D02*
X89297000Y-148861000D01*
X83297000Y-150761000D02*
X83297000Y-151361000D01*
X88297000Y-151861000D02*
X88297000Y-152861000D01*
X92297000Y-152861000D02*
X91797000Y-153361000D01*
X83297000Y-146661000D02*
X83297000Y-147161000D01*
X87797000Y-147361000D02*
X87797000Y-146661000D01*
X88797000Y-153361000D02*
X88297000Y-152861000D01*
X88297000Y-151861000D02*
G75*
G03*
X87797000Y-151361000I-500001J-1D01*
G01*
X87797000Y-147361000D02*
G75*
G03*
X89297000Y-148861000I1500001J1D01*
G01*
X240697000Y-94711000D02*
X240697000Y-95711000D01*
X235697000Y-93611000D02*
X235697000Y-94211000D01*
X244697000Y-95711000D02*
X244197000Y-96211000D01*
X240197000Y-90211000D02*
X240197000Y-89511000D01*
X240197000Y-89511000D02*
X235697000Y-89511000D01*
X244697000Y-92211000D02*
X244197000Y-91711000D01*
X244197000Y-91711000D02*
X241697000Y-91711000D01*
X235697000Y-89511000D02*
X235697000Y-90011000D01*
X244197000Y-96211000D02*
X241197000Y-96211000D01*
X241197000Y-96211000D02*
X240697000Y-95711000D01*
X235697000Y-94211000D02*
X240197000Y-94211000D01*
X240697000Y-94711000D02*
G75*
G03*
X240197000Y-94211000I-500001J-1D01*
G01*
X240197000Y-90211000D02*
G75*
G03*
X241697000Y-91711000I1500001J1D01*
G01*
X168497000Y-133811000D02*
X167997000Y-134311000D01*
X159497000Y-132311000D02*
X163997000Y-132311000D01*
X163997000Y-127611000D02*
X159497000Y-127611000D01*
X164997000Y-134311000D02*
X164497000Y-133811000D01*
X164497000Y-132811000D02*
X164497000Y-133811000D01*
X168497000Y-130311000D02*
X167997000Y-129811000D01*
X167997000Y-134311000D02*
X164997000Y-134311000D01*
X167997000Y-129811000D02*
X165497000Y-129811000D01*
X163997000Y-128311000D02*
X163997000Y-127611000D01*
X159497000Y-127611000D02*
X159497000Y-128111000D01*
X159497000Y-131711000D02*
X159497000Y-132311000D01*
X163997000Y-128311000D02*
G75*
G03*
X165497000Y-129811000I1500001J1D01*
G01*
X164497000Y-132811000D02*
G75*
G03*
X163997000Y-132311000I-500001J-1D01*
G01*
X149447000Y-92211000D02*
X148947000Y-91711000D01*
X145947000Y-96211000D02*
X145447000Y-95711000D01*
X140447000Y-93611000D02*
X140447000Y-94211000D01*
X140447000Y-89511000D02*
X140447000Y-90011000D01*
X148947000Y-96211000D02*
X145947000Y-96211000D01*
X145447000Y-94711000D02*
X145447000Y-95711000D01*
X144947000Y-90211000D02*
X144947000Y-89511000D01*
X140447000Y-94211000D02*
X144947000Y-94211000D01*
X149447000Y-95711000D02*
X148947000Y-96211000D01*
X148947000Y-91711000D02*
X146447000Y-91711000D01*
X144947000Y-89511000D02*
X140447000Y-89511000D01*
X144947000Y-90211000D02*
G75*
G03*
X146447000Y-91711000I1500001J1D01*
G01*
X145447000Y-94711000D02*
G75*
G03*
X144947000Y-94211000I-500001J-1D01*
G01*
X148947000Y-148861000D02*
X146447000Y-148861000D01*
X149447000Y-149361000D02*
X148947000Y-148861000D01*
X140447000Y-150761000D02*
X140447000Y-151361000D01*
X144947000Y-147361000D02*
X144947000Y-146661000D01*
X145947000Y-153361000D02*
X145447000Y-152861000D01*
X140447000Y-146661000D02*
X140447000Y-147161000D01*
X148947000Y-153361000D02*
X145947000Y-153361000D01*
X140447000Y-151361000D02*
X144947000Y-151361000D01*
X145447000Y-151861000D02*
X145447000Y-152861000D01*
X144947000Y-146661000D02*
X140447000Y-146661000D01*
X149447000Y-152861000D02*
X148947000Y-153361000D01*
X144947000Y-147361000D02*
G75*
G03*
X146447000Y-148861000I1500001J1D01*
G01*
X145447000Y-151861000D02*
G75*
G03*
X144947000Y-151361000I-500001J-1D01*
G01*
X92296999Y-111261000D02*
X91796999Y-110761000D01*
X91796999Y-115261000D02*
X88796999Y-115261000D01*
X88296999Y-113761000D02*
X88296999Y-114761000D01*
X92296999Y-114761000D02*
X91796999Y-115261000D01*
X87796999Y-108561000D02*
X83296999Y-108561000D01*
X83296999Y-113261000D02*
X87796999Y-113261000D01*
X87796999Y-109261000D02*
X87796999Y-108561000D01*
X88796999Y-115261000D02*
X88296999Y-114761000D01*
X91796999Y-110761000D02*
X89296999Y-110761000D01*
X83296999Y-112661000D02*
X83296999Y-113261000D01*
X83296999Y-108561000D02*
X83296999Y-109061000D01*
X88296999Y-113761000D02*
G75*
G03*
X87796999Y-113261000I-500001J-1D01*
G01*
X87796999Y-109261000D02*
G75*
G03*
X89296999Y-110761000I1500001J1D01*
G01*
X164997000Y-153361000D02*
X164497000Y-152861000D01*
X163997000Y-146661000D02*
X159497000Y-146661000D01*
X159497000Y-146661000D02*
X159497000Y-147161000D01*
X167997000Y-148861000D02*
X165497000Y-148861000D01*
X164497000Y-151861000D02*
X164497000Y-152861000D01*
X159497000Y-151361000D02*
X163997000Y-151361000D01*
X167997000Y-153361000D02*
X164997000Y-153361000D01*
X163997000Y-147361000D02*
X163997000Y-146661000D01*
X168497000Y-152861000D02*
X167997000Y-153361000D01*
X159497000Y-150761000D02*
X159497000Y-151361000D01*
X168497000Y-149361000D02*
X167997000Y-148861000D01*
X163997000Y-147361000D02*
G75*
G03*
X165497000Y-148861000I1500001J1D01*
G01*
X164497000Y-151861000D02*
G75*
G03*
X163997000Y-151361000I-500001J-1D01*
G01*
X187547000Y-152861000D02*
X187047000Y-153361000D01*
X178547000Y-150761000D02*
X178547000Y-151361000D01*
X178547000Y-151361000D02*
X183047000Y-151361000D01*
X183547000Y-151861000D02*
X183547000Y-152861000D01*
X187047000Y-148861000D02*
X184547000Y-148861000D01*
X178547000Y-146661000D02*
X178547000Y-147161000D01*
X184047000Y-153361000D02*
X183547000Y-152861000D01*
X187047000Y-153361000D02*
X184047000Y-153361000D01*
X183047000Y-146661000D02*
X178547000Y-146661000D01*
X187547000Y-149361000D02*
X187047000Y-148861000D01*
X183047000Y-147361000D02*
X183047000Y-146661000D01*
X183047000Y-147361000D02*
G75*
G03*
X184547000Y-148861000I1500001J1D01*
G01*
X183547000Y-151861000D02*
G75*
G03*
X183047000Y-151361000I-500001J-1D01*
G01*
X130397000Y-114761000D02*
X129897000Y-115261000D01*
X125897000Y-109261000D02*
X125897000Y-108561000D01*
X121397000Y-108561000D02*
X121397000Y-109061000D01*
X125897000Y-108561000D02*
X121397000Y-108561000D01*
X126397000Y-113761000D02*
X126397000Y-114761000D01*
X121397000Y-112661000D02*
X121397000Y-113261000D01*
X130397000Y-111261000D02*
X129897000Y-110761000D01*
X129897000Y-115261000D02*
X126897000Y-115261000D01*
X121397000Y-113261000D02*
X125897000Y-113261000D01*
X129897000Y-110761000D02*
X127397000Y-110761000D01*
X126897000Y-115261000D02*
X126397000Y-114761000D01*
X125897000Y-109261000D02*
G75*
G03*
X127397000Y-110761000I1500001J1D01*
G01*
X126397000Y-113761000D02*
G75*
G03*
X125897000Y-113261000I-500001J-1D01*
G01*
X92297000Y-95711000D02*
X91797000Y-96211000D01*
X83297000Y-94211000D02*
X87797000Y-94211000D01*
X87797000Y-89511000D02*
X83297000Y-89511000D01*
X91797000Y-91711000D02*
X89297000Y-91711000D01*
X87797000Y-90211000D02*
X87797000Y-89511000D01*
X83297000Y-89511000D02*
X83297000Y-90011000D01*
X83297000Y-93611000D02*
X83297000Y-94211000D01*
X88797000Y-96211000D02*
X88297000Y-95711000D01*
X92297000Y-92211000D02*
X91797000Y-91711000D01*
X91797000Y-96211000D02*
X88797000Y-96211000D01*
X88297000Y-94711000D02*
X88297000Y-95711000D01*
X87797000Y-90211000D02*
G75*
G03*
X89297000Y-91711000I1500001J1D01*
G01*
X88297000Y-94711000D02*
G75*
G03*
X87797000Y-94211000I-500001J-1D01*
G01*
X202097000Y-146661000D02*
X197597000Y-146661000D01*
X197597000Y-151361000D02*
X202097000Y-151361000D01*
X206597000Y-152861000D02*
X206097000Y-153361000D01*
X197597000Y-150761000D02*
X197597000Y-151361000D01*
X206097000Y-148861000D02*
X203597000Y-148861000D01*
X197597000Y-146661000D02*
X197597000Y-147161000D01*
X202597000Y-151861000D02*
X202597000Y-152861000D01*
X203097000Y-153361000D02*
X202597000Y-152861000D01*
X206597000Y-149361000D02*
X206097000Y-148861000D01*
X202097000Y-147361000D02*
X202097000Y-146661000D01*
X206097000Y-153361000D02*
X203097000Y-153361000D01*
X202097000Y-147361000D02*
G75*
G03*
X203597000Y-148861000I1500001J1D01*
G01*
X202597000Y-151861000D02*
G75*
G03*
X202097000Y-151361000I-500001J-1D01*
G01*
X235697000Y-113261000D02*
X240197000Y-113261000D01*
X244697000Y-111261000D02*
X244197000Y-110761000D01*
X244197000Y-115261000D02*
X241197000Y-115261000D01*
X235697000Y-108561000D02*
X235697000Y-109061000D01*
X240197000Y-109261000D02*
X240197000Y-108561000D01*
X240197000Y-108561000D02*
X235697000Y-108561000D01*
X240697000Y-113761000D02*
X240697000Y-114761000D01*
X244697000Y-114761000D02*
X244197000Y-115261000D01*
X244197000Y-110761000D02*
X241697000Y-110761000D01*
X241197000Y-115261000D02*
X240697000Y-114761000D01*
X235697000Y-112661000D02*
X235697000Y-113261000D01*
X240197000Y-109261000D02*
G75*
G03*
X241697000Y-110761000I1500001J1D01*
G01*
X240697000Y-113761000D02*
G75*
G03*
X240197000Y-113261000I-500001J-1D01*
G01*
X159497000Y-108561000D02*
X159497000Y-109061000D01*
X159497000Y-113261000D02*
X163997000Y-113261000D01*
X164497000Y-113761000D02*
X164497000Y-114761000D01*
X163997000Y-109261000D02*
X163997000Y-108561000D01*
X168497000Y-114761000D02*
X167997000Y-115261000D01*
X164997000Y-115261000D02*
X164497000Y-114761000D01*
X167997000Y-110761000D02*
X165497000Y-110761000D01*
X159497000Y-112661000D02*
X159497000Y-113261000D01*
X168497000Y-111261000D02*
X167997000Y-110761000D01*
X167997000Y-115261000D02*
X164997000Y-115261000D01*
X163997000Y-108561000D02*
X159497000Y-108561000D01*
X164497000Y-113761000D02*
G75*
G03*
X163997000Y-113261000I-500001J-1D01*
G01*
X163997000Y-109261000D02*
G75*
G03*
X165497000Y-110761000I1500001J1D01*
G01*
X159497000Y-94211000D02*
X163997000Y-94211000D01*
X164497000Y-94711000D02*
X164497000Y-95711000D01*
X167997000Y-91711000D02*
X165497000Y-91711000D01*
X159497000Y-89511000D02*
X159497000Y-90011000D01*
X163997000Y-90211000D02*
X163997000Y-89511000D01*
X167997000Y-96211000D02*
X164997000Y-96211000D01*
X168497000Y-95711000D02*
X167997000Y-96211000D01*
X164997000Y-96211000D02*
X164497000Y-95711000D01*
X159497000Y-93611000D02*
X159497000Y-94211000D01*
X168497000Y-92211000D02*
X167997000Y-91711000D01*
X163997000Y-89511000D02*
X159497000Y-89511000D01*
X163997000Y-90211000D02*
G75*
G03*
X165497000Y-91711000I1500001J1D01*
G01*
X164497000Y-94711000D02*
G75*
G03*
X163997000Y-94211000I-500001J-1D01*
G01*
X206597000Y-130311001D02*
X206097000Y-129811001D01*
X206097000Y-134311001D02*
X203097000Y-134311001D01*
X203097000Y-134311001D02*
X202597000Y-133811001D01*
X202597000Y-132811001D02*
X202597000Y-133811001D01*
X197597000Y-131711001D02*
X197597000Y-132311001D01*
X197597000Y-132311001D02*
X202097000Y-132311001D01*
X206597000Y-133811001D02*
X206097000Y-134311001D01*
X206097000Y-129811001D02*
X203597000Y-129811001D01*
X202097000Y-128311001D02*
X202097000Y-127611001D01*
X197597000Y-127611001D02*
X197597000Y-128111001D01*
X202097000Y-127611001D02*
X197597000Y-127611001D01*
X202597000Y-132811001D02*
G75*
G03*
X202097000Y-132311001I-500001J-1D01*
G01*
X202097000Y-128311001D02*
G75*
G03*
X203597000Y-129811001I1500001J1D01*
G01*
X110847000Y-129811001D02*
X108347000Y-129811001D01*
X102347000Y-127611001D02*
X102347000Y-128111001D01*
X111347000Y-133811001D02*
X110847000Y-134311001D01*
X110847000Y-134311001D02*
X107847000Y-134311001D01*
X102347000Y-132311001D02*
X106847000Y-132311001D01*
X107847000Y-134311001D02*
X107347000Y-133811001D01*
X111347000Y-130311001D02*
X110847000Y-129811001D01*
X106847000Y-127611001D02*
X102347000Y-127611001D01*
X107347000Y-132811001D02*
X107347000Y-133811001D01*
X106847000Y-128311001D02*
X106847000Y-127611001D01*
X102347000Y-131711001D02*
X102347000Y-132311001D01*
X106847000Y-128311001D02*
G75*
G03*
X108347000Y-129811001I1500001J1D01*
G01*
X107347000Y-132811001D02*
G75*
G03*
X106847000Y-132311001I-500001J-1D01*
G01*
X225647000Y-133811001D02*
X225147000Y-134311001D01*
X225647000Y-130311001D02*
X225147000Y-129811001D01*
X221647000Y-132811001D02*
X221647000Y-133811001D01*
X221147000Y-128311001D02*
X221147000Y-127611001D01*
X222147000Y-134311001D02*
X221647000Y-133811001D01*
X216647000Y-132311001D02*
X221147000Y-132311001D01*
X216647000Y-131711001D02*
X216647000Y-132311001D01*
X225147000Y-129811001D02*
X222647000Y-129811001D01*
X221147000Y-127611001D02*
X216647000Y-127611001D01*
X225147000Y-134311001D02*
X222147000Y-134311001D01*
X216647000Y-127611001D02*
X216647000Y-128111001D01*
X221647000Y-132811001D02*
G75*
G03*
X221147000Y-132311001I-500001J-1D01*
G01*
X221147000Y-128311001D02*
G75*
G03*
X222647000Y-129811001I1500001J1D01*
G01*
X72747000Y-153361000D02*
X69747000Y-153361000D01*
X73247000Y-149361000D02*
X72747000Y-148861000D01*
X64247000Y-150761000D02*
X64247000Y-151361000D01*
X72747000Y-148861000D02*
X70247000Y-148861000D01*
X68747000Y-146661000D02*
X64247000Y-146661000D01*
X64247000Y-151361000D02*
X68747000Y-151361000D01*
X73247000Y-152861000D02*
X72747000Y-153361000D01*
X69747000Y-153361000D02*
X69247000Y-152861000D01*
X68747000Y-147361000D02*
X68747000Y-146661000D01*
X64247000Y-146661000D02*
X64247000Y-147161000D01*
X69247000Y-151861000D02*
X69247000Y-152861000D01*
X68747000Y-147361000D02*
G75*
G03*
X70247000Y-148861000I1500001J1D01*
G01*
X69247000Y-151861000D02*
G75*
G03*
X68747000Y-151361000I-500001J-1D01*
G01*
X216647000Y-89511000D02*
X216647000Y-90011000D01*
X221147000Y-89511000D02*
X216647000Y-89511000D01*
X216647000Y-94211000D02*
X221147000Y-94211000D01*
X221647000Y-94711000D02*
X221647000Y-95711000D01*
X222147000Y-96211000D02*
X221647000Y-95711000D01*
X216647000Y-93611000D02*
X216647000Y-94211000D01*
X225647000Y-92211000D02*
X225147000Y-91711000D01*
X221147000Y-90211000D02*
X221147000Y-89511000D01*
X225147000Y-96211000D02*
X222147000Y-96211000D01*
X225147000Y-91711000D02*
X222647000Y-91711000D01*
X225647000Y-95711000D02*
X225147000Y-96211000D01*
X221647000Y-94711000D02*
G75*
G03*
X221147000Y-94211000I-500001J-1D01*
G01*
X221147000Y-90211000D02*
G75*
G03*
X222647000Y-91711000I1500001J1D01*
G01*
X68747000Y-90211000D02*
X68747000Y-89511000D01*
X64247000Y-94211000D02*
X68747000Y-94211000D01*
X64247000Y-93611000D02*
X64247000Y-94211000D01*
X73247000Y-95711000D02*
X72747000Y-96211000D01*
X72747000Y-91711000D02*
X70247000Y-91711000D01*
X64247000Y-89511000D02*
X64247000Y-90011000D01*
X68747000Y-89511000D02*
X64247000Y-89511000D01*
X72747000Y-96211000D02*
X69747000Y-96211000D01*
X73247000Y-92211000D02*
X72747000Y-91711000D01*
X69247000Y-94711000D02*
X69247000Y-95711000D01*
X69747000Y-96211000D02*
X69247000Y-95711000D01*
X69247000Y-94711000D02*
G75*
G03*
X68747000Y-94211000I-500001J-1D01*
G01*
X68747000Y-90211000D02*
G75*
G03*
X70247000Y-91711000I1500001J1D01*
G01*
X206596999Y-111261000D02*
X206096999Y-110761000D01*
X197596999Y-112661000D02*
X197596999Y-113261000D01*
X206096999Y-115261000D02*
X203096999Y-115261000D01*
X206096999Y-110761000D02*
X203596999Y-110761000D01*
X202096999Y-108561000D02*
X197596999Y-108561000D01*
X202596999Y-113761000D02*
X202596999Y-114761000D01*
X203096999Y-115261000D02*
X202596999Y-114761000D01*
X202096999Y-109261000D02*
X202096999Y-108561000D01*
X206596999Y-114761000D02*
X206096999Y-115261000D01*
X197596999Y-108561000D02*
X197596999Y-109061000D01*
X197596999Y-113261000D02*
X202096999Y-113261000D01*
X202596999Y-113761000D02*
G75*
G03*
X202096999Y-113261000I-500001J-1D01*
G01*
X202096999Y-109261000D02*
G75*
G03*
X203596999Y-110761000I1500001J1D01*
G01*
X187047000Y-134311000D02*
X184047000Y-134311000D01*
X187547000Y-133811000D02*
X187047000Y-134311000D01*
X178547000Y-127611000D02*
X178547000Y-128111000D01*
X178547000Y-132311000D02*
X183047000Y-132311000D01*
X187547000Y-130311000D02*
X187047000Y-129811000D01*
X183047000Y-127611000D02*
X178547000Y-127611000D01*
X183047000Y-128311000D02*
X183047000Y-127611000D01*
X184047000Y-134311000D02*
X183547000Y-133811000D01*
X178547000Y-131711000D02*
X178547000Y-132311000D01*
X187047000Y-129811000D02*
X184547000Y-129811000D01*
X183547000Y-132811000D02*
X183547000Y-133811000D01*
X183547000Y-132811000D02*
G75*
G03*
X183047000Y-132311000I-500001J-1D01*
G01*
X183047000Y-128311000D02*
G75*
G03*
X184547000Y-129811000I1500001J1D01*
G01*
X64247000Y-131711000D02*
X64247000Y-132311000D01*
X72747000Y-129811000D02*
X70247000Y-129811000D01*
X69247000Y-132811000D02*
X69247000Y-133811000D01*
X72747000Y-134311000D02*
X69747000Y-134311000D01*
X68747000Y-128311000D02*
X68747000Y-127611000D01*
X64247000Y-132311000D02*
X68747000Y-132311000D01*
X73247000Y-130311000D02*
X72747000Y-129811000D01*
X64247000Y-127611000D02*
X64247000Y-128111000D01*
X68747000Y-127611000D02*
X64247000Y-127611000D01*
X73247000Y-133811000D02*
X72747000Y-134311000D01*
X69747000Y-134311000D02*
X69247000Y-133811000D01*
X69247000Y-132811000D02*
G75*
G03*
X68747000Y-132311000I-500001J-1D01*
G01*
X68747000Y-128311000D02*
G75*
G03*
X70247000Y-129811000I1500001J1D01*
G01*
X72747000Y-115261000D02*
X69747000Y-115261000D01*
X73247000Y-114761000D02*
X72747000Y-115261000D01*
X68747000Y-109261000D02*
X68747000Y-108561000D01*
X69747000Y-115261000D02*
X69247000Y-114761000D01*
X73247000Y-111261000D02*
X72747000Y-110761000D01*
X69247000Y-113761000D02*
X69247000Y-114761000D01*
X64247000Y-113261000D02*
X68747000Y-113261000D01*
X68747000Y-108561000D02*
X64247000Y-108561000D01*
X72747000Y-110761000D02*
X70247000Y-110761000D01*
X64247000Y-112661000D02*
X64247000Y-113261000D01*
X64247000Y-108561000D02*
X64247000Y-109061000D01*
X68747000Y-109261000D02*
G75*
G03*
X70247000Y-110761000I1500001J1D01*
G01*
X69247000Y-113761000D02*
G75*
G03*
X68747000Y-113261000I-500001J-1D01*
G01*
D13*
X161646860Y-104198196D02*
X159949804Y-102501140D01*
X161275629Y-104569427D02*
X159578573Y-102872371D01*
X163538371Y-98912573D02*
X159578573Y-102872371D01*
X161275629Y-104569427D02*
X165235427Y-100609629D01*
X161399373Y-104445683D02*
X159702317Y-102748627D01*
X161523117Y-104321940D02*
X159826060Y-102624883D01*
X161788282Y-104056775D02*
X160091225Y-102359718D01*
X161717571Y-104127485D02*
X160020515Y-102430429D01*
X165235427Y-100609629D02*
X163538371Y-98912573D01*
D14*
X114037000Y-101681000D02*
X121337000Y-101681000D01*
X121337000Y-96181000D02*
X121337000Y-97331000D01*
X114037000Y-96181000D02*
X121337000Y-96181000D01*
X121337000Y-139771000D02*
X114037000Y-139771000D01*
X114037000Y-139771000D02*
X114037000Y-138621000D01*
X121337000Y-134271000D02*
X114037000Y-134271000D01*
D13*
X237723117Y-85271939D02*
X236026060Y-83574882D01*
X241435427Y-81559628D02*
X239738371Y-79862572D01*
X237475629Y-85519426D02*
X235778573Y-83822370D01*
X237988282Y-85006774D02*
X236291225Y-83309717D01*
X239738371Y-79862572D02*
X235778573Y-83822370D01*
X237846860Y-85148195D02*
X236149804Y-83451139D01*
X237599373Y-85395682D02*
X235902317Y-83698626D01*
X237917571Y-85077484D02*
X236220515Y-83380428D01*
X237475629Y-85519426D02*
X241435427Y-81559628D01*
X201638371Y-117962572D02*
X197678573Y-121922370D01*
X199623117Y-123371939D02*
X197926060Y-121674882D01*
X199817571Y-123177484D02*
X198120515Y-121480428D01*
X199888282Y-123106774D02*
X198191225Y-121409717D01*
X199375629Y-123619426D02*
X197678573Y-121922370D01*
X199746860Y-123248195D02*
X198049804Y-121551139D01*
X199375629Y-123619426D02*
X203335427Y-119659628D01*
X203335427Y-119659628D02*
X201638371Y-117962572D01*
X199499373Y-123495682D02*
X197802317Y-121798626D01*
X66025629Y-123619426D02*
X69985427Y-119659628D01*
X66396860Y-123248195D02*
X64699804Y-121551139D01*
X66273117Y-123371939D02*
X64576060Y-121674882D01*
X69985427Y-119659628D02*
X68288371Y-117962572D01*
X66467571Y-123177484D02*
X64770515Y-121480428D01*
X68288371Y-117962572D02*
X64328573Y-121922370D01*
X66025629Y-123619426D02*
X64328573Y-121922370D01*
X66538282Y-123106774D02*
X64841225Y-121409717D01*
X66149373Y-123495682D02*
X64452317Y-121798626D01*
X161399372Y-85395682D02*
X159702316Y-83698626D01*
X165235426Y-81559628D02*
X163538370Y-79862572D01*
X161275628Y-85519426D02*
X165235426Y-81559628D01*
X161788281Y-85006774D02*
X160091224Y-83309717D01*
X161717570Y-85077484D02*
X160020514Y-83380428D01*
X161646859Y-85148195D02*
X159949803Y-83451139D01*
X163538370Y-79862572D02*
X159578572Y-83822370D01*
X161523116Y-85271939D02*
X159826059Y-83574882D01*
X161275628Y-85519426D02*
X159578572Y-83822370D01*
X66149373Y-104445683D02*
X64452317Y-102748627D01*
X66025629Y-104569427D02*
X64328573Y-102872371D01*
X69985427Y-100609629D02*
X68288371Y-98912573D01*
X66467571Y-104127485D02*
X64770515Y-102430429D01*
X68288371Y-98912573D02*
X64328573Y-102872371D01*
X66025629Y-104569427D02*
X69985427Y-100609629D01*
X66273117Y-104321940D02*
X64576060Y-102624883D01*
X66538282Y-104056775D02*
X64841225Y-102359718D01*
X66396860Y-104198196D02*
X64699804Y-102501140D01*
X218425629Y-104569426D02*
X222385427Y-100609628D01*
X222385427Y-100609628D02*
X220688371Y-98912572D01*
X218796860Y-104198195D02*
X217099804Y-102501139D01*
X218867571Y-104127484D02*
X217170515Y-102430428D01*
X220688371Y-98912572D02*
X216728573Y-102872370D01*
X218425629Y-104569426D02*
X216728573Y-102872370D01*
X218938282Y-104056774D02*
X217241225Y-102359717D01*
X218673117Y-104321939D02*
X216976060Y-102624882D01*
X218549373Y-104445682D02*
X216852317Y-102748626D01*
X142596860Y-104198195D02*
X140899804Y-102501139D01*
X142225629Y-104569426D02*
X140528573Y-102872370D01*
X146185427Y-100609628D02*
X144488371Y-98912572D01*
X144488371Y-98912572D02*
X140528573Y-102872370D01*
X142349373Y-104445682D02*
X140652317Y-102748626D01*
X142738282Y-104056774D02*
X141041225Y-102359717D01*
X142667571Y-104127484D02*
X140970515Y-102430428D01*
X142473117Y-104321939D02*
X140776060Y-102624882D01*
X142225629Y-104569426D02*
X146185427Y-100609628D01*
X241435427Y-100609628D02*
X239738371Y-98912572D01*
X237599373Y-104445682D02*
X235902317Y-102748626D01*
X237475629Y-104569426D02*
X235778573Y-102872370D01*
X239738371Y-98912572D02*
X235778573Y-102872370D01*
X237988282Y-104056774D02*
X236291225Y-102359717D01*
X237917571Y-104127484D02*
X236220515Y-102430428D01*
X237846860Y-104198195D02*
X236149804Y-102501139D01*
X237475629Y-104569426D02*
X241435427Y-100609628D01*
X237723117Y-104321939D02*
X236026060Y-102624882D01*
X123299373Y-123495682D02*
X121602317Y-121798626D01*
X123546860Y-123248195D02*
X121849804Y-121551139D01*
X123175629Y-123619426D02*
X127135427Y-119659628D01*
X123688282Y-123106774D02*
X121991225Y-121409717D01*
X123617571Y-123177484D02*
X121920515Y-121480428D01*
X125438371Y-117962572D02*
X121478573Y-121922370D01*
X127135427Y-119659628D02*
X125438371Y-117962572D01*
X123175629Y-123619426D02*
X121478573Y-121922370D01*
X123423117Y-123371939D02*
X121726060Y-121674882D01*
X85075630Y-85519426D02*
X83378574Y-83822370D01*
X85588283Y-85006774D02*
X83891226Y-83309717D01*
X85075630Y-85519426D02*
X89035428Y-81559628D01*
X85323118Y-85271939D02*
X83626061Y-83574882D01*
X85446861Y-85148195D02*
X83749805Y-83451139D01*
X89035428Y-81559628D02*
X87338372Y-79862572D01*
X85199374Y-85395682D02*
X83502318Y-83698626D01*
X87338372Y-79862572D02*
X83378574Y-83822370D01*
X85517572Y-85077484D02*
X83820516Y-83380428D01*
X180767571Y-104127485D02*
X179070515Y-102430429D01*
X180696860Y-104198196D02*
X178999804Y-102501140D01*
X180838282Y-104056775D02*
X179141225Y-102359718D01*
X180325629Y-104569427D02*
X178628573Y-102872371D01*
X180449373Y-104445683D02*
X178752317Y-102748627D01*
X184285427Y-100609629D02*
X182588371Y-98912573D01*
X182588371Y-98912573D02*
X178628573Y-102872371D01*
X180573117Y-104321940D02*
X178876060Y-102624883D01*
X180325629Y-104569427D02*
X184285427Y-100609629D01*
D14*
X152137000Y-101681000D02*
X159437000Y-101681000D01*
X159437000Y-96181000D02*
X159437000Y-97331000D01*
X152137000Y-96181000D02*
X159437000Y-96181000D01*
D13*
X123688282Y-85006774D02*
X121991225Y-83309717D01*
X125438371Y-79862572D02*
X121478573Y-83822370D01*
X127135427Y-81559628D02*
X125438371Y-79862572D01*
X123617571Y-85077484D02*
X121920515Y-83380428D01*
X123423117Y-85271939D02*
X121726060Y-83574882D01*
X123175629Y-85519426D02*
X121478573Y-83822370D01*
X123546860Y-85148195D02*
X121849804Y-83451139D01*
X123175629Y-85519426D02*
X127135427Y-81559628D01*
X123299373Y-85395682D02*
X121602317Y-83698626D01*
D14*
X235637000Y-134271000D02*
X228337000Y-134271000D01*
X235637000Y-139771000D02*
X228337000Y-139771000D01*
X228337000Y-139771000D02*
X228337000Y-138621000D01*
D13*
X104249373Y-85395682D02*
X102552317Y-83698626D01*
X104638282Y-85006774D02*
X102941225Y-83309717D01*
X108085427Y-81559628D02*
X106388371Y-79862572D01*
X104496860Y-85148195D02*
X102799804Y-83451139D01*
X104125629Y-85519426D02*
X102428573Y-83822370D01*
X106388371Y-79862572D02*
X102428573Y-83822370D01*
X104125629Y-85519426D02*
X108085427Y-81559628D01*
X104567571Y-85077484D02*
X102870515Y-83380428D01*
X104373117Y-85271939D02*
X102676060Y-83574882D01*
D14*
X190237000Y-96181000D02*
X197537000Y-96181000D01*
X197537000Y-96181000D02*
X197537000Y-97331000D01*
X190237000Y-101681000D02*
X197537000Y-101681000D01*
D13*
X104373117Y-104321939D02*
X102676060Y-102624882D01*
X106388371Y-98912572D02*
X102428573Y-102872370D01*
X104496860Y-104198195D02*
X102799804Y-102501139D01*
X104125629Y-104569426D02*
X102428573Y-102872370D01*
X104567571Y-104127484D02*
X102870515Y-102430428D01*
X104249373Y-104445682D02*
X102552317Y-102748626D01*
X104638282Y-104056774D02*
X102941225Y-102359717D01*
X104125629Y-104569426D02*
X108085427Y-100609628D01*
X108085427Y-100609628D02*
X106388371Y-98912572D01*
X123299373Y-104445682D02*
X121602317Y-102748626D01*
X125438371Y-98912572D02*
X121478573Y-102872370D01*
X123617571Y-104127484D02*
X121920515Y-102430428D01*
X123175629Y-104569426D02*
X127135427Y-100609628D01*
X127135427Y-100609628D02*
X125438371Y-98912572D01*
X123423117Y-104321939D02*
X121726060Y-102624882D01*
X123175629Y-104569426D02*
X121478573Y-102872370D01*
X123688282Y-104056774D02*
X121991225Y-102359717D01*
X123546860Y-104198195D02*
X121849804Y-102501139D01*
X237599373Y-142545683D02*
X235902317Y-140848627D01*
X237475629Y-142669427D02*
X235778573Y-140972371D01*
X237988282Y-142156775D02*
X236291225Y-140459718D01*
X237723117Y-142421940D02*
X236026060Y-140724883D01*
X239738371Y-137012573D02*
X235778573Y-140972371D01*
X237846860Y-142298196D02*
X236149804Y-140601140D01*
X237917571Y-142227485D02*
X236220515Y-140530429D01*
X241435427Y-138709629D02*
X239738371Y-137012573D01*
X237475629Y-142669427D02*
X241435427Y-138709629D01*
X85075629Y-104569427D02*
X83378573Y-102872371D01*
X85323117Y-104321940D02*
X83626060Y-102624883D01*
X85588282Y-104056775D02*
X83891225Y-102359718D01*
X85517571Y-104127485D02*
X83820515Y-102430429D01*
X89035427Y-100609629D02*
X87338371Y-98912573D01*
X87338371Y-98912573D02*
X83378573Y-102872371D01*
X85446860Y-104198196D02*
X83749804Y-102501140D01*
X85199373Y-104445683D02*
X83502317Y-102748627D01*
X85075629Y-104569427D02*
X89035427Y-100609629D01*
X218425628Y-123619426D02*
X222385426Y-119659628D01*
X220688370Y-117962572D02*
X216728572Y-121922370D01*
X218867570Y-123177484D02*
X217170514Y-121480428D01*
X218549372Y-123495682D02*
X216852316Y-121798626D01*
X218425628Y-123619426D02*
X216728572Y-121922370D01*
X218796859Y-123248195D02*
X217099803Y-121551139D01*
X222385426Y-119659628D02*
X220688370Y-117962572D01*
X218673116Y-123371939D02*
X216976059Y-121674882D01*
X218938281Y-123106774D02*
X217241224Y-121409717D01*
X199817571Y-104127485D02*
X198120515Y-102430429D01*
X199746860Y-104198196D02*
X198049804Y-102501140D01*
X199375629Y-104569427D02*
X197678573Y-102872371D01*
X199888282Y-104056775D02*
X198191225Y-102359718D01*
X201638371Y-98912573D02*
X197678573Y-102872371D01*
X199375629Y-104569427D02*
X203335427Y-100609629D01*
X199499373Y-104445683D02*
X197802317Y-102748627D01*
X203335427Y-100609629D02*
X201638371Y-98912573D01*
X199623117Y-104321940D02*
X197926060Y-102624883D01*
X123299373Y-142545683D02*
X121602317Y-140848627D01*
X123423117Y-142421940D02*
X121726060Y-140724883D01*
X123546860Y-142298196D02*
X121849804Y-140601140D01*
X125438371Y-137012573D02*
X121478573Y-140972371D01*
X127135427Y-138709629D02*
X125438371Y-137012573D01*
X123617571Y-142227485D02*
X121920515Y-140530429D01*
X123175629Y-142669427D02*
X127135427Y-138709629D01*
X123688282Y-142156775D02*
X121991225Y-140459718D01*
X123175629Y-142669427D02*
X121478573Y-140972371D01*
X203335427Y-138709628D02*
X201638371Y-137012572D01*
X199375629Y-142669426D02*
X197678573Y-140972370D01*
X199817571Y-142227484D02*
X198120515Y-140530428D01*
X199746860Y-142298195D02*
X198049804Y-140601139D01*
X199375629Y-142669426D02*
X203335427Y-138709628D01*
X199623117Y-142421939D02*
X197926060Y-140724882D01*
X199499373Y-142545682D02*
X197802317Y-140848626D01*
X199888282Y-142156774D02*
X198191225Y-140459717D01*
X201638371Y-137012572D02*
X197678573Y-140972370D01*
X87338371Y-117962572D02*
X83378573Y-121922370D01*
X89035427Y-119659628D02*
X87338371Y-117962572D01*
X85517571Y-123177484D02*
X83820515Y-121480428D01*
X85323117Y-123371939D02*
X83626060Y-121674882D01*
X85199373Y-123495682D02*
X83502317Y-121798626D01*
X85075629Y-123619426D02*
X83378573Y-121922370D01*
X85446860Y-123248195D02*
X83749804Y-121551139D01*
X85588282Y-123106774D02*
X83891225Y-121409717D01*
X85075629Y-123619426D02*
X89035427Y-119659628D01*
X165235427Y-119659628D02*
X163538371Y-117962572D01*
X163538371Y-117962572D02*
X159578573Y-121922370D01*
X161788282Y-123106774D02*
X160091225Y-121409717D01*
X161523117Y-123371939D02*
X159826060Y-121674882D01*
X161275629Y-123619426D02*
X165235427Y-119659628D01*
X161646860Y-123248195D02*
X159949804Y-121551139D01*
X161275629Y-123619426D02*
X159578573Y-121922370D01*
X161399373Y-123495682D02*
X159702317Y-121798626D01*
X161717571Y-123177484D02*
X160020515Y-121480428D01*
X104373117Y-142421939D02*
X102676060Y-140724882D01*
X106388371Y-137012572D02*
X102428573Y-140972370D01*
X104125629Y-142669426D02*
X102428573Y-140972370D01*
X104496860Y-142298195D02*
X102799804Y-140601139D01*
X104249373Y-142545682D02*
X102552317Y-140848626D01*
X108085427Y-138709628D02*
X106388371Y-137012572D01*
X104638282Y-142156774D02*
X102941225Y-140459717D01*
X104567571Y-142227484D02*
X102870515Y-140530428D01*
X104125629Y-142669426D02*
X108085427Y-138709628D01*
D14*
X228337000Y-101681000D02*
X235637000Y-101681000D01*
X228337000Y-96181000D02*
X235637000Y-96181000D01*
X235637000Y-96181000D02*
X235637000Y-97331000D01*
D13*
X237846860Y-123248195D02*
X236149804Y-121551139D01*
X237917571Y-123177484D02*
X236220515Y-121480428D01*
X241435427Y-119659628D02*
X239738371Y-117962572D01*
X239738371Y-117962572D02*
X235778573Y-121922370D01*
X237988282Y-123106774D02*
X236291225Y-121409717D01*
X237475629Y-123619426D02*
X241435427Y-119659628D01*
X237599373Y-123495682D02*
X235902317Y-121798626D01*
X237475629Y-123619426D02*
X235778573Y-121922370D01*
X237723117Y-123371939D02*
X236026060Y-121674882D01*
X218549373Y-85395682D02*
X216852317Y-83698626D01*
X218425629Y-85519426D02*
X222385427Y-81559628D01*
X218425629Y-85519426D02*
X216728573Y-83822370D01*
X218867571Y-85077484D02*
X217170515Y-83380428D01*
X218938282Y-85006774D02*
X217241225Y-83309717D01*
X218796860Y-85148195D02*
X217099804Y-83451139D01*
X220688371Y-79862572D02*
X216728573Y-83822370D01*
X222385427Y-81559628D02*
X220688371Y-79862572D01*
X218673117Y-85271939D02*
X216976060Y-83574882D01*
X161275629Y-142669426D02*
X159578573Y-140972370D01*
X163538371Y-137012572D02*
X159578573Y-140972370D01*
X161523117Y-142421939D02*
X159826060Y-140724882D01*
X165235427Y-138709628D02*
X163538371Y-137012572D01*
X161646860Y-142298195D02*
X159949804Y-140601139D01*
X161399373Y-142545682D02*
X159702317Y-140848626D01*
X161717571Y-142227484D02*
X160020515Y-140530428D01*
X161275629Y-142669426D02*
X165235427Y-138709628D01*
X161788282Y-142156774D02*
X160091225Y-140459717D01*
X142225629Y-123619426D02*
X146185427Y-119659628D01*
X142225629Y-123619426D02*
X140528573Y-121922370D01*
X142349373Y-123495682D02*
X140652317Y-121798626D01*
X144488371Y-117962572D02*
X140528573Y-121922370D01*
X142596860Y-123248195D02*
X140899804Y-121551139D01*
X146185427Y-119659628D02*
X144488371Y-117962572D01*
X142738282Y-123106774D02*
X141041225Y-121409717D01*
X142667571Y-123177484D02*
X140970515Y-121480428D01*
X142473117Y-123371939D02*
X140776060Y-121674882D01*
X218549372Y-142545682D02*
X216852316Y-140848626D01*
X220688370Y-137012572D02*
X216728572Y-140972370D01*
X222385426Y-138709628D02*
X220688370Y-137012572D01*
X218796859Y-142298195D02*
X217099803Y-140601139D01*
X218938281Y-142156774D02*
X217241224Y-140459717D01*
X218867570Y-142227484D02*
X217170514Y-140530428D01*
X218425628Y-142669426D02*
X222385426Y-138709628D01*
X218673116Y-142421939D02*
X216976059Y-140724882D01*
X218425628Y-142669426D02*
X216728572Y-140972370D01*
X106388371Y-117962572D02*
X102428573Y-121922370D01*
X104125629Y-123619426D02*
X108085427Y-119659628D01*
X104567571Y-123177484D02*
X102870515Y-121480428D01*
X104125629Y-123619426D02*
X102428573Y-121922370D01*
X104496860Y-123248195D02*
X102799804Y-121551139D01*
X108085427Y-119659628D02*
X106388371Y-117962572D01*
X104249373Y-123495682D02*
X102552317Y-121798626D01*
X104638282Y-123106774D02*
X102941225Y-121409717D01*
X104373117Y-123371939D02*
X102676060Y-121674882D01*
X182588371Y-137012572D02*
X178628573Y-140972370D01*
X180325629Y-142669426D02*
X184285427Y-138709628D01*
X180767571Y-142227484D02*
X179070515Y-140530428D01*
X180696860Y-142298195D02*
X178999804Y-140601139D01*
X180325629Y-142669426D02*
X178628573Y-140972370D01*
X180573117Y-142421939D02*
X178876060Y-140724882D01*
X184285427Y-138709628D02*
X182588371Y-137012572D01*
X180449373Y-142545682D02*
X178752317Y-140848626D01*
X180838282Y-142156774D02*
X179141225Y-140459717D01*
X142349373Y-85395682D02*
X140652317Y-83698626D01*
X142225629Y-85519426D02*
X140528573Y-83822370D01*
X144488371Y-79862572D02*
X140528573Y-83822370D01*
X142596860Y-85148195D02*
X140899804Y-83451139D01*
X142738282Y-85006774D02*
X141041225Y-83309717D01*
X142667571Y-85077484D02*
X140970515Y-83380428D01*
X146185427Y-81559628D02*
X144488371Y-79862572D01*
X142473117Y-85271939D02*
X140776060Y-83574882D01*
X142225629Y-85519426D02*
X146185427Y-81559628D01*
X180696860Y-123248195D02*
X178999804Y-121551139D01*
X180767571Y-123177484D02*
X179070515Y-121480428D01*
X180573117Y-123371939D02*
X178876060Y-121674882D01*
X180325629Y-123619426D02*
X178628573Y-121922370D01*
X180449373Y-123495682D02*
X178752317Y-121798626D01*
X184285427Y-119659628D02*
X182588371Y-117962572D01*
X182588371Y-117962572D02*
X178628573Y-121922370D01*
X180325629Y-123619426D02*
X184285427Y-119659628D01*
X180838282Y-123106774D02*
X179141225Y-121409717D01*
D14*
X197537000Y-139771000D02*
X190237000Y-139771000D01*
X197537000Y-134271000D02*
X190237000Y-134271000D01*
X190237000Y-139771000D02*
X190237000Y-138621000D01*
D13*
X180767571Y-85077485D02*
X179070515Y-83380429D01*
X180573117Y-85271940D02*
X178876060Y-83574883D01*
X180838282Y-85006775D02*
X179141225Y-83309718D01*
X180325629Y-85519427D02*
X178628573Y-83822371D01*
X184285427Y-81559629D02*
X182588371Y-79862573D01*
X180325629Y-85519427D02*
X184285427Y-81559629D01*
X180449373Y-85395683D02*
X178752317Y-83698627D01*
X182588371Y-79862573D02*
X178628573Y-83822371D01*
X180696860Y-85148196D02*
X178999804Y-83451140D01*
D14*
X159437000Y-139771000D02*
X152137000Y-139771000D01*
X152137000Y-139771000D02*
X152137000Y-138621000D01*
X159437000Y-134271000D02*
X152137000Y-134271000D01*
D13*
X66025629Y-142669426D02*
X64328573Y-140972370D01*
X68288371Y-137012572D02*
X64328573Y-140972370D01*
X66149373Y-142545682D02*
X64452317Y-140848626D01*
X66467571Y-142227484D02*
X64770515Y-140530428D01*
X69985427Y-138709628D02*
X68288371Y-137012572D01*
X66538282Y-142156774D02*
X64841225Y-140459717D01*
X66396860Y-142298195D02*
X64699804Y-140601139D01*
X66025629Y-142669426D02*
X69985427Y-138709628D01*
X66273117Y-142421939D02*
X64576060Y-140724882D01*
X203335427Y-81559628D02*
X201638371Y-79862572D01*
X199375629Y-85519426D02*
X203335427Y-81559628D01*
X199623117Y-85271939D02*
X197926060Y-83574882D01*
X199375629Y-85519426D02*
X197678573Y-83822370D01*
X199746860Y-85148195D02*
X198049804Y-83451139D01*
X199888282Y-85006774D02*
X198191225Y-83309717D01*
X199499373Y-85395682D02*
X197802317Y-83698626D01*
X201638371Y-79862572D02*
X197678573Y-83822370D01*
X199817571Y-85077484D02*
X198120515Y-83380428D01*
X146185427Y-138709628D02*
X144488371Y-137012572D01*
X142225629Y-142669426D02*
X140528573Y-140972370D01*
X142596860Y-142298195D02*
X140899804Y-140601139D01*
X142473117Y-142421939D02*
X140776060Y-140724882D01*
X142667571Y-142227484D02*
X140970515Y-140530428D01*
X142349373Y-142545682D02*
X140652317Y-140848626D01*
X142225629Y-142669426D02*
X146185427Y-138709628D01*
X142738282Y-142156774D02*
X141041225Y-140459717D01*
X144488371Y-137012572D02*
X140528573Y-140972370D01*
X66467570Y-85077484D02*
X64770514Y-83380428D01*
X66538281Y-85006774D02*
X64841224Y-83309717D01*
X66396859Y-85148195D02*
X64699803Y-83451139D01*
X66025628Y-85519426D02*
X69985426Y-81559628D01*
X68288370Y-79862572D02*
X64328572Y-83822370D01*
X66025628Y-85519426D02*
X64328572Y-83822370D01*
X69985426Y-81559628D02*
X68288370Y-79862572D01*
X66273116Y-85271939D02*
X64576059Y-83574882D01*
X66149372Y-85395682D02*
X64452316Y-83698626D01*
X85517571Y-142227484D02*
X83820515Y-140530428D01*
X85446860Y-142298195D02*
X83749804Y-140601139D01*
X85075629Y-142669426D02*
X83378573Y-140972370D01*
X89035427Y-138709628D02*
X87338371Y-137012572D01*
X85199373Y-142545682D02*
X83502317Y-140848626D01*
X87338371Y-137012572D02*
X83378573Y-140972370D01*
X85323117Y-142421939D02*
X83626060Y-140724882D01*
X85075629Y-142669426D02*
X89035427Y-138709628D01*
X85588282Y-142156774D02*
X83891225Y-140459717D01*
D14*
X83237000Y-96181000D02*
X83237000Y-97331000D01*
X75937000Y-101681000D02*
X83237000Y-101681000D01*
X75937000Y-96181000D02*
X83237000Y-96181000D01*
X83237000Y-139771000D02*
X75937000Y-139771000D01*
X83237000Y-134271000D02*
X75937000Y-134271000D01*
X75937000Y-139771000D02*
X75937000Y-138621000D01*
D15*
X159649284Y-104498716D03*
D16*
X165164716Y-98983284D03*
D15*
X235849284Y-85448715D03*
D16*
X241364716Y-79933283D03*
D15*
X197749284Y-123548715D03*
D16*
X203264716Y-118033283D03*
D15*
X64399284Y-123548715D03*
D16*
X69914716Y-118033283D03*
D15*
X159649283Y-85448715D03*
D16*
X165164715Y-79933283D03*
D15*
X64399284Y-104498716D03*
D16*
X69914716Y-98983284D03*
D15*
X216799284Y-104498715D03*
D16*
X222314716Y-98983283D03*
D15*
X140599284Y-104498715D03*
D16*
X146114716Y-98983283D03*
D15*
X235849284Y-104498715D03*
D16*
X241364716Y-98983283D03*
D15*
X121549284Y-123548715D03*
D16*
X127064716Y-118033283D03*
D15*
X83449285Y-85448715D03*
D16*
X88964717Y-79933283D03*
D15*
X178699284Y-104498716D03*
D16*
X184214716Y-98983284D03*
D15*
X121549284Y-85448715D03*
D16*
X127064716Y-79933283D03*
D15*
X102499284Y-85448715D03*
D16*
X108014716Y-79933283D03*
D15*
X102499284Y-104498715D03*
D16*
X108014716Y-98983283D03*
D15*
X121549284Y-104498715D03*
D16*
X127064716Y-98983283D03*
D15*
X235849284Y-142598716D03*
D16*
X241364716Y-137083284D03*
D15*
X83449284Y-104498716D03*
D16*
X88964716Y-98983284D03*
D15*
X216799283Y-123548715D03*
D16*
X222314715Y-118033283D03*
D15*
X197749284Y-104498716D03*
D16*
X203264716Y-98983284D03*
D15*
X121549284Y-142598716D03*
D16*
X127064716Y-137083284D03*
D15*
X197749284Y-142598715D03*
D16*
X203264716Y-137083283D03*
D15*
X83449284Y-123548715D03*
D16*
X88964716Y-118033283D03*
D15*
X159649284Y-123548715D03*
D16*
X165164716Y-118033283D03*
D15*
X102499284Y-142598715D03*
D16*
X108014716Y-137083283D03*
D15*
X235849284Y-123548715D03*
D16*
X241364716Y-118033283D03*
D15*
X216799284Y-85448715D03*
D16*
X222314716Y-79933283D03*
D15*
X159649284Y-142598715D03*
D16*
X165164716Y-137083283D03*
D15*
X140599284Y-123548715D03*
D16*
X146114716Y-118033283D03*
D15*
X216799283Y-142598715D03*
D16*
X222314715Y-137083283D03*
D15*
X102499284Y-123548715D03*
D16*
X108014716Y-118033283D03*
D15*
X178699284Y-142598715D03*
D16*
X184214716Y-137083283D03*
D15*
X140599284Y-85448715D03*
D16*
X146114716Y-79933283D03*
D15*
X178699284Y-123548715D03*
D16*
X184214716Y-118033283D03*
D15*
X178699284Y-85448716D03*
D16*
X184214716Y-79933284D03*
D15*
X64399284Y-142598715D03*
D16*
X69914716Y-137083283D03*
D15*
X197749284Y-85448715D03*
D16*
X203264716Y-79933283D03*
D15*
X140599284Y-142598715D03*
D16*
X146114716Y-137083283D03*
D15*
X64399283Y-85448715D03*
D16*
X69914715Y-79933283D03*
D15*
X83449284Y-142598715D03*
D16*
X88964716Y-137083283D03*
%LPC*%
D17*
X218147000Y-145161000D03*
X218567000Y-145161000D03*
D18*
X218647000Y-148911000D03*
X223647000Y-151111000D03*
D17*
X228727000Y-145161000D03*
X229147000Y-145161000D03*
D19*
X223647000Y-145161000D03*
D20*
X226187000Y-140081000D03*
D21*
X226922000Y-151111000D03*
D20*
X219837000Y-142621000D03*
D21*
X215372000Y-148911000D03*
D17*
X229147001Y-107061000D03*
D18*
X218647001Y-110811000D03*
D17*
X228727001Y-107061000D03*
X218147001Y-107061000D03*
X218567001Y-107061000D03*
D19*
X223647001Y-107061000D03*
D18*
X223647001Y-113011000D03*
D20*
X226187001Y-101981000D03*
D21*
X226922001Y-113011000D03*
X215372001Y-110811000D03*
D20*
X219837001Y-104521000D03*
D18*
X142447000Y-110811000D03*
X147447000Y-113011000D03*
D17*
X142367000Y-107061000D03*
X152527000Y-107061000D03*
X141947000Y-107061000D03*
D19*
X147447000Y-107061000D03*
D17*
X152947000Y-107061000D03*
D20*
X149987000Y-101981000D03*
D21*
X150722000Y-113011000D03*
X139172000Y-110811000D03*
D20*
X143637000Y-104521000D03*
D18*
X242697000Y-151111000D03*
D17*
X237197000Y-145161000D03*
X247777000Y-145161000D03*
X237617000Y-145161000D03*
X248197000Y-145161000D03*
D18*
X237697000Y-148911000D03*
D19*
X242697000Y-145161000D03*
D21*
X245972000Y-151111000D03*
D20*
X245237000Y-140081000D03*
X238887000Y-142621000D03*
D21*
X234422000Y-148911000D03*
D18*
X128397000Y-93961000D03*
X123397000Y-91761000D03*
D19*
X128397000Y-88011000D03*
D17*
X133897000Y-88011000D03*
X123317000Y-88011000D03*
X133477000Y-88011000D03*
X122897000Y-88011000D03*
D20*
X130937000Y-82931000D03*
D21*
X131672000Y-93961000D03*
X120122000Y-91761000D03*
D20*
X124587000Y-85471000D03*
D18*
X128397000Y-132061000D03*
X123397000Y-129861000D03*
D17*
X123317000Y-126111000D03*
X133477000Y-126111000D03*
X122897000Y-126111000D03*
D19*
X128397000Y-126111000D03*
D17*
X133897000Y-126111000D03*
D21*
X131672000Y-132061000D03*
D20*
X130937000Y-121031000D03*
X124587000Y-123571000D03*
D21*
X120122000Y-129861000D03*
D22*
X188214000Y-74676000D03*
D17*
X122897000Y-145161000D03*
X133477000Y-145161000D03*
X123317000Y-145161000D03*
X133897000Y-145161000D03*
D19*
X128397000Y-145161000D03*
D18*
X128397000Y-151111000D03*
X123397000Y-148911000D03*
D20*
X130937000Y-140081000D03*
D21*
X131672000Y-151111000D03*
D20*
X124587000Y-142621000D03*
D21*
X120122000Y-148911000D03*
D18*
X185547000Y-93961000D03*
X180547000Y-91761000D03*
D17*
X180047000Y-88011000D03*
X190627000Y-88011000D03*
X191047000Y-88011000D03*
D19*
X185547000Y-88011000D03*
D17*
X180467000Y-88011000D03*
D21*
X188822000Y-93961000D03*
D20*
X188087000Y-82931000D03*
X181737000Y-85471000D03*
D21*
X177272000Y-91761000D03*
D17*
X190627000Y-107061000D03*
X180047000Y-107061000D03*
D18*
X185547000Y-113011000D03*
D17*
X191047000Y-107061000D03*
D19*
X185547000Y-107061000D03*
D17*
X180467000Y-107061000D03*
D18*
X180547000Y-110811000D03*
D20*
X188087000Y-101981000D03*
D21*
X188822000Y-113011000D03*
D20*
X181737000Y-104521000D03*
D21*
X177272000Y-110811000D03*
D18*
X199597000Y-91761000D03*
D17*
X199097000Y-88011000D03*
D19*
X204597000Y-88011000D03*
D17*
X209677000Y-88011000D03*
D18*
X204597000Y-93961000D03*
D17*
X199517000Y-88011000D03*
X210097000Y-88011000D03*
D20*
X207137000Y-82931000D03*
D21*
X207872000Y-93961000D03*
X196322000Y-91761000D03*
D20*
X200787000Y-85471000D03*
D19*
X147447000Y-126111000D03*
D18*
X147447000Y-132061000D03*
D17*
X152947000Y-126111000D03*
D18*
X142447000Y-129861000D03*
D17*
X141947000Y-126111000D03*
X142367000Y-126111000D03*
X152527000Y-126111000D03*
D21*
X150722000Y-132061000D03*
D20*
X149987000Y-121031000D03*
D21*
X139172000Y-129861000D03*
D20*
X143637000Y-123571000D03*
D17*
X104267001Y-107061000D03*
X114427001Y-107061000D03*
X103847001Y-107061000D03*
D18*
X109347001Y-113011000D03*
D17*
X114847001Y-107061000D03*
D19*
X109347001Y-107061000D03*
D18*
X104347001Y-110811000D03*
D20*
X111887001Y-101981000D03*
D21*
X112622001Y-113011000D03*
D20*
X105537001Y-104521000D03*
D21*
X101072001Y-110811000D03*
D17*
X237617000Y-126111000D03*
D18*
X237697000Y-129861000D03*
D19*
X242697000Y-126111000D03*
D17*
X247777000Y-126111000D03*
X237197000Y-126111000D03*
D18*
X242697000Y-132061000D03*
D17*
X248197000Y-126111000D03*
D21*
X245972000Y-132061000D03*
D20*
X245237000Y-121031000D03*
D21*
X234422000Y-129861000D03*
D20*
X238887000Y-123571000D03*
D18*
X85297000Y-129861001D03*
D17*
X95377000Y-126111001D03*
D19*
X90297000Y-126111001D03*
D17*
X85217000Y-126111001D03*
X84797000Y-126111001D03*
X95797000Y-126111001D03*
D18*
X90297000Y-132061001D03*
D21*
X93572000Y-132061001D03*
D20*
X92837000Y-121031001D03*
D21*
X82022000Y-129861001D03*
D20*
X86487000Y-123571001D03*
D18*
X104347000Y-148911000D03*
D19*
X109347000Y-145161000D03*
D18*
X109347000Y-151111000D03*
D17*
X114427000Y-145161000D03*
X114847000Y-145161000D03*
X104267000Y-145161000D03*
X103847000Y-145161000D03*
D20*
X111887000Y-140081000D03*
D21*
X112622000Y-151111000D03*
D20*
X105537000Y-142621000D03*
D21*
X101072000Y-148911000D03*
D17*
X104267000Y-88011000D03*
D18*
X109347000Y-93961000D03*
D17*
X103847000Y-88011000D03*
X114847000Y-88011000D03*
X114427000Y-88011000D03*
D18*
X104347000Y-91761000D03*
D19*
X109347000Y-88011000D03*
D21*
X112622000Y-93961000D03*
D20*
X111887000Y-82931000D03*
D21*
X101072000Y-91761000D03*
D20*
X105537000Y-85471000D03*
D17*
X95797000Y-145161000D03*
D19*
X90297000Y-145161000D03*
D18*
X90297000Y-151111000D03*
X85297000Y-148911000D03*
D17*
X84797000Y-145161000D03*
X85217000Y-145161000D03*
X95377000Y-145161000D03*
D21*
X93572000Y-151111000D03*
D20*
X92837000Y-140081000D03*
D21*
X82022000Y-148911000D03*
D20*
X86487000Y-142621000D03*
D22*
X214122000Y-97536000D03*
D18*
X237697000Y-91761000D03*
D17*
X247777000Y-88011000D03*
D19*
X242697000Y-88011000D03*
D17*
X237197000Y-88011000D03*
D18*
X242697000Y-93961000D03*
D17*
X248197000Y-88011000D03*
X237617000Y-88011000D03*
D20*
X245237000Y-82931000D03*
D21*
X245972000Y-93961000D03*
D20*
X238887000Y-85471000D03*
D21*
X234422000Y-91761000D03*
D17*
X171577000Y-126111000D03*
X171997000Y-126111000D03*
D18*
X166497000Y-132061000D03*
X161497000Y-129861000D03*
D19*
X166497000Y-126111000D03*
D17*
X160997000Y-126111000D03*
X161417000Y-126111000D03*
D21*
X169772000Y-132061000D03*
D20*
X169037000Y-121031000D03*
D21*
X158222000Y-129861000D03*
D20*
X162687000Y-123571000D03*
D18*
X142447000Y-91761000D03*
D19*
X147447000Y-88011000D03*
D17*
X152947000Y-88011000D03*
X142367000Y-88011000D03*
X141947000Y-88011000D03*
D18*
X147447000Y-93961000D03*
D17*
X152527000Y-88011000D03*
D20*
X149987000Y-82931000D03*
D21*
X150722000Y-93961000D03*
X139172000Y-91761000D03*
D20*
X143637000Y-85471000D03*
D17*
X142367000Y-145161000D03*
X152527000Y-145161000D03*
D18*
X147447000Y-151111000D03*
X142447000Y-148911000D03*
D17*
X152947000Y-145161000D03*
X141947000Y-145161000D03*
D19*
X147447000Y-145161000D03*
D21*
X150722000Y-151111000D03*
D20*
X149987000Y-140081000D03*
X143637000Y-142621000D03*
D21*
X139172000Y-148911000D03*
D17*
X95376999Y-107061000D03*
D18*
X90296999Y-113011000D03*
X85296999Y-110811000D03*
D17*
X95796999Y-107061000D03*
X84796999Y-107061000D03*
D19*
X90296999Y-107061000D03*
D17*
X85216999Y-107061000D03*
D21*
X93571999Y-113011000D03*
D20*
X92836999Y-101981000D03*
D21*
X82021999Y-110811000D03*
D20*
X86486999Y-104521000D03*
D22*
X214122000Y-135636000D03*
D17*
X161417000Y-145161000D03*
D19*
X166497000Y-145161000D03*
D17*
X171997000Y-145161000D03*
X160997000Y-145161000D03*
X171577000Y-145161000D03*
D18*
X166497000Y-151111000D03*
X161497000Y-148911000D03*
D20*
X169037000Y-140081000D03*
D21*
X169772000Y-151111000D03*
X158222000Y-148911000D03*
D20*
X162687000Y-142621000D03*
D18*
X180547000Y-148911000D03*
D17*
X191047000Y-145161000D03*
X180047000Y-145161000D03*
X180467000Y-145161000D03*
D18*
X185547000Y-151111000D03*
D17*
X190627000Y-145161000D03*
D19*
X185547000Y-145161000D03*
D21*
X188822000Y-151111000D03*
D20*
X188087000Y-140081000D03*
D21*
X177272000Y-148911000D03*
D20*
X181737000Y-142621000D03*
D19*
X128397000Y-107061000D03*
D17*
X122897000Y-107061000D03*
X133897000Y-107061000D03*
X123317000Y-107061000D03*
D18*
X123397000Y-110811000D03*
D17*
X133477000Y-107061000D03*
D18*
X128397000Y-113011000D03*
D20*
X130937000Y-101981000D03*
D21*
X131672000Y-113011000D03*
X120122000Y-110811000D03*
D20*
X124587000Y-104521000D03*
D17*
X95377000Y-88011000D03*
D19*
X90297000Y-88011000D03*
D17*
X85217000Y-88011000D03*
X95797000Y-88011000D03*
X84797000Y-88011000D03*
D18*
X85297000Y-91761000D03*
X90297000Y-93961000D03*
D21*
X93572000Y-93961000D03*
D20*
X92837000Y-82931000D03*
D21*
X82022000Y-91761000D03*
D20*
X86487000Y-85471000D03*
D17*
X199097000Y-145161000D03*
D18*
X199597000Y-148911000D03*
D19*
X204597000Y-145161000D03*
D17*
X199517000Y-145161000D03*
D18*
X204597000Y-151111000D03*
D17*
X210097000Y-145161000D03*
X209677000Y-145161000D03*
D20*
X207137000Y-140081000D03*
D21*
X207872000Y-151111000D03*
X196322000Y-148911000D03*
D20*
X200787000Y-142621000D03*
D17*
X237617000Y-107061000D03*
X247777000Y-107061000D03*
D18*
X242697000Y-113011000D03*
D19*
X242697000Y-107061000D03*
D17*
X248197000Y-107061000D03*
X237197000Y-107061000D03*
D18*
X237697000Y-110811000D03*
D21*
X245972000Y-113011000D03*
D20*
X245237000Y-101981000D03*
D21*
X234422000Y-110811000D03*
D20*
X238887000Y-104521000D03*
D19*
X166497000Y-107061000D03*
D18*
X161497000Y-110811000D03*
D17*
X171577000Y-107061000D03*
X160997000Y-107061000D03*
X171997000Y-107061000D03*
X161417000Y-107061000D03*
D18*
X166497000Y-113011000D03*
D20*
X169037000Y-101981000D03*
D21*
X169772000Y-113011000D03*
X158222000Y-110811000D03*
D20*
X162687000Y-104521000D03*
D18*
X161497000Y-91761000D03*
D17*
X161417000Y-88011000D03*
X171997000Y-88011000D03*
D19*
X166497000Y-88011000D03*
D17*
X160997000Y-88011000D03*
X171577000Y-88011000D03*
D18*
X166497000Y-93961000D03*
D20*
X169037000Y-82931000D03*
D21*
X169772000Y-93961000D03*
D20*
X162687000Y-85471000D03*
D21*
X158222000Y-91761000D03*
D17*
X199097000Y-126111001D03*
D18*
X204597000Y-132061001D03*
X199597000Y-129861001D03*
D17*
X209677000Y-126111001D03*
X210097000Y-126111001D03*
X199517000Y-126111001D03*
D19*
X204597000Y-126111001D03*
D21*
X207872000Y-132061001D03*
D20*
X207137000Y-121031001D03*
D21*
X196322000Y-129861001D03*
D20*
X200787000Y-123571001D03*
D18*
X109347000Y-132061001D03*
D17*
X104267000Y-126111001D03*
X114427000Y-126111001D03*
X114847000Y-126111001D03*
X103847000Y-126111001D03*
D19*
X109347000Y-126111001D03*
D18*
X104347000Y-129861001D03*
D21*
X112622000Y-132061001D03*
D20*
X111887000Y-121031001D03*
D21*
X101072000Y-129861001D03*
D20*
X105537000Y-123571001D03*
D17*
X228727000Y-126111001D03*
X218567000Y-126111001D03*
D19*
X223647000Y-126111001D03*
D17*
X229147000Y-126111001D03*
D18*
X218647000Y-129861001D03*
X223647000Y-132061001D03*
D17*
X218147000Y-126111001D03*
D20*
X226187000Y-121031001D03*
D21*
X226922000Y-132061001D03*
D20*
X219837000Y-123571001D03*
D21*
X215372000Y-129861001D03*
D22*
X156972000Y-116586000D03*
D18*
X66247000Y-148911000D03*
D17*
X66167000Y-145161000D03*
X76327000Y-145161000D03*
X76747000Y-145161000D03*
D18*
X71247000Y-151111000D03*
D17*
X65747000Y-145161000D03*
D19*
X71247000Y-145161000D03*
D21*
X74522000Y-151111000D03*
D20*
X73787000Y-140081000D03*
D21*
X62972000Y-148911000D03*
D20*
X67437000Y-142621000D03*
D17*
X228727000Y-88011000D03*
D19*
X223647000Y-88011000D03*
D18*
X223647000Y-93961000D03*
D17*
X229147000Y-88011000D03*
X218567000Y-88011000D03*
X218147000Y-88011000D03*
D18*
X218647000Y-91761000D03*
D21*
X226922000Y-93961000D03*
D20*
X226187000Y-82931000D03*
D21*
X215372000Y-91761000D03*
D20*
X219837000Y-85471000D03*
D17*
X76327000Y-88011000D03*
D18*
X66247000Y-91761000D03*
D19*
X71247000Y-88011000D03*
D17*
X66167000Y-88011000D03*
X76747000Y-88011000D03*
X65747000Y-88011000D03*
D18*
X71247000Y-93961000D03*
D21*
X74522000Y-93961000D03*
D20*
X73787000Y-82931000D03*
X67437000Y-85471000D03*
D21*
X62972000Y-91761000D03*
D17*
X210096999Y-107061000D03*
X209676999Y-107061000D03*
D18*
X204596999Y-113011000D03*
D17*
X199516999Y-107061000D03*
D19*
X204596999Y-107061000D03*
D17*
X199096999Y-107061000D03*
D18*
X199596999Y-110811000D03*
D20*
X207136999Y-101981000D03*
D21*
X207871999Y-113011000D03*
X196321999Y-110811000D03*
D20*
X200786999Y-104521000D03*
D22*
X99822000Y-97536000D03*
D18*
X180547000Y-129861000D03*
D17*
X191047000Y-126111000D03*
X180047000Y-126111000D03*
D19*
X185547000Y-126111000D03*
D18*
X185547000Y-132061000D03*
D17*
X190627000Y-126111000D03*
X180467000Y-126111000D03*
D21*
X188822000Y-132061000D03*
D20*
X188087000Y-121031000D03*
D21*
X177272000Y-129861000D03*
D20*
X181737000Y-123571000D03*
D18*
X66247000Y-129861000D03*
D19*
X71247000Y-126111000D03*
D17*
X65747000Y-126111000D03*
D18*
X71247000Y-132061000D03*
D17*
X76327000Y-126111000D03*
X66167000Y-126111000D03*
X76747000Y-126111000D03*
D21*
X74522000Y-132061000D03*
D20*
X73787000Y-121031000D03*
D21*
X62972000Y-129861000D03*
D20*
X67437000Y-123571000D03*
D17*
X65747000Y-107061000D03*
D18*
X66247000Y-110811000D03*
D17*
X66167000Y-107061000D03*
X76327000Y-107061000D03*
X76747000Y-107061000D03*
D19*
X71247000Y-107061000D03*
D18*
X71247000Y-113011000D03*
D21*
X74522000Y-113011000D03*
D20*
X73787000Y-101981000D03*
X67437000Y-104521000D03*
D21*
X62972000Y-110811000D03*
D23*
X184964000Y-70068000D03*
X191464000Y-70068000D03*
X184964000Y-65568000D03*
X191464000Y-65568000D03*
D22*
X99822000Y-135636000D03*
D15*
X159649284Y-104498716D03*
D16*
X165164716Y-98983284D03*
D24*
X120137000Y-97331000D03*
X120137000Y-100531000D03*
X115237000Y-100531000D03*
X115237000Y-97331000D03*
X115237000Y-138621000D03*
X115237000Y-135421000D03*
X120137000Y-135421000D03*
X120137000Y-138621000D03*
D15*
X235849284Y-85448715D03*
D16*
X241364716Y-79933283D03*
D15*
X197749284Y-123548715D03*
D16*
X203264716Y-118033283D03*
D15*
X64399284Y-123548715D03*
D16*
X69914716Y-118033283D03*
D15*
X159649283Y-85448715D03*
D16*
X165164715Y-79933283D03*
D15*
X64399284Y-104498716D03*
D16*
X69914716Y-98983284D03*
D15*
X216799284Y-104498715D03*
D16*
X222314716Y-98983283D03*
D15*
X140599284Y-104498715D03*
D16*
X146114716Y-98983283D03*
D15*
X235849284Y-104498715D03*
D16*
X241364716Y-98983283D03*
D15*
X121549284Y-123548715D03*
D16*
X127064716Y-118033283D03*
D15*
X83449285Y-85448715D03*
D16*
X88964717Y-79933283D03*
D15*
X178699284Y-104498716D03*
D16*
X184214716Y-98983284D03*
D24*
X158237000Y-97331000D03*
X158237000Y-100531000D03*
X153337000Y-100531000D03*
X153337000Y-97331000D03*
D15*
X121549284Y-85448715D03*
D16*
X127064716Y-79933283D03*
D24*
X229537000Y-138621000D03*
X229537000Y-135421000D03*
X234437000Y-135421000D03*
X234437000Y-138621000D03*
D15*
X102499284Y-85448715D03*
D16*
X108014716Y-79933283D03*
D24*
X196337000Y-97331000D03*
X196337000Y-100531000D03*
X191437000Y-100531000D03*
X191437000Y-97331000D03*
D15*
X102499284Y-104498715D03*
D16*
X108014716Y-98983283D03*
D15*
X121549284Y-104498715D03*
D16*
X127064716Y-98983283D03*
D15*
X235849284Y-142598716D03*
D16*
X241364716Y-137083284D03*
D15*
X83449284Y-104498716D03*
D16*
X88964716Y-98983284D03*
D15*
X216799283Y-123548715D03*
D16*
X222314715Y-118033283D03*
D15*
X197749284Y-104498716D03*
D16*
X203264716Y-98983284D03*
D15*
X121549284Y-142598716D03*
D16*
X127064716Y-137083284D03*
D15*
X197749284Y-142598715D03*
D16*
X203264716Y-137083283D03*
D15*
X83449284Y-123548715D03*
D16*
X88964716Y-118033283D03*
D15*
X159649284Y-123548715D03*
D16*
X165164716Y-118033283D03*
D15*
X102499284Y-142598715D03*
D16*
X108014716Y-137083283D03*
D24*
X234437000Y-97331000D03*
X234437000Y-100531000D03*
X229537000Y-100531000D03*
X229537000Y-97331000D03*
D15*
X235849284Y-123548715D03*
D16*
X241364716Y-118033283D03*
D15*
X216799284Y-85448715D03*
D16*
X222314716Y-79933283D03*
D15*
X159649284Y-142598715D03*
D16*
X165164716Y-137083283D03*
D15*
X140599284Y-123548715D03*
D16*
X146114716Y-118033283D03*
D15*
X216799283Y-142598715D03*
D16*
X222314715Y-137083283D03*
D15*
X102499284Y-123548715D03*
D16*
X108014716Y-118033283D03*
D15*
X178699284Y-142598715D03*
D16*
X184214716Y-137083283D03*
D15*
X140599284Y-85448715D03*
D16*
X146114716Y-79933283D03*
D15*
X178699284Y-123548715D03*
D16*
X184214716Y-118033283D03*
D24*
X191437000Y-138621000D03*
X191437000Y-135421000D03*
X196337000Y-135421000D03*
X196337000Y-138621000D03*
D15*
X178699284Y-85448716D03*
D16*
X184214716Y-79933284D03*
D24*
X153337000Y-138621000D03*
X153337000Y-135421000D03*
X158237000Y-135421000D03*
X158237000Y-138621000D03*
D15*
X64399284Y-142598715D03*
D16*
X69914716Y-137083283D03*
D15*
X197749284Y-85448715D03*
D16*
X203264716Y-79933283D03*
D15*
X140599284Y-142598715D03*
D16*
X146114716Y-137083283D03*
D15*
X64399283Y-85448715D03*
D16*
X69914715Y-79933283D03*
D15*
X83449284Y-142598715D03*
D16*
X88964716Y-137083283D03*
D24*
X82037000Y-97331000D03*
X82037000Y-100531000D03*
X77137000Y-100531000D03*
X77137000Y-97331000D03*
D25*
X146435236Y-52757397D03*
X148888688Y-53414797D03*
X151342139Y-54072199D03*
X153795590Y-54729598D03*
X156249043Y-55386999D03*
X158702494Y-56044399D03*
X161155946Y-56701799D03*
X163609398Y-57359200D03*
X166062850Y-58016600D03*
X168516300Y-58674000D03*
X170969752Y-59331401D03*
X173423204Y-59988801D03*
X169483978Y-74690191D03*
X167030527Y-74032792D03*
X164577075Y-73375390D03*
X162123622Y-72717991D03*
X159670173Y-72060591D03*
X157216720Y-71403190D03*
X154763269Y-70745790D03*
X152309817Y-70088389D03*
X149856365Y-69430989D03*
X147402913Y-68773589D03*
X144949462Y-68116188D03*
X142496012Y-67458788D03*
D24*
X77137000Y-138621000D03*
X77137000Y-135421000D03*
X82037000Y-135421000D03*
X82037000Y-138621000D03*
M02*
