G04 #@! TF.GenerationSoftware,KiCad,Pcbnew,6.0.7-f9a2dced07~116~ubuntu20.04.1*
G04 #@! TF.CreationDate,2022-09-22T21:10:25+08:00*
G04 #@! TF.ProjectId,V4,56342e6b-6963-4616-945f-706362585858,rev?*
G04 #@! TF.SameCoordinates,Original*
G04 #@! TF.FileFunction,Legend,Top*
G04 #@! TF.FilePolarity,Positive*
%FSLAX46Y46*%
G04 Gerber Fmt 4.6, Leading zero omitted, Abs format (unit mm)*
G04 Created by KiCad (PCBNEW 6.0.7-f9a2dced07~116~ubuntu20.04.1) date 2022-09-22 21:10:25*
%MOMM*%
%LPD*%
G01*
G04 APERTURE LIST*
G04 Aperture macros list*
%AMRotRect*
0 Rectangle, with rotation*
0 The origin of the aperture is its center*
0 $1 length*
0 $2 width*
0 $3 Rotation angle, in degrees counterclockwise*
0 Add horizontal line*
21,1,$1,$2,0,0,$3*%
G04 Aperture macros list end*
G04 #@! TA.AperFunction,Profile*
%ADD10C,0.050000*%
G04 #@! TD*
%ADD11C,1.000000*%
%ADD12C,0.150000*%
%ADD13C,0.120000*%
%ADD14C,1.701800*%
%ADD15C,3.000000*%
%ADD16C,3.987800*%
%ADD17C,2.286000*%
%ADD18C,5.000000*%
%ADD19C,2.000000*%
%ADD20RotRect,1.600000X1.600000X45.000000*%
%ADD21C,1.600000*%
%ADD22C,1.524000*%
G04 APERTURE END LIST*
D10*
X59436000Y-154686000D02*
X59436000Y-78486000D01*
X59436000Y-154686000D02*
G75*
G03*
X61722000Y-156972000I2286000J0D01*
G01*
X134962250Y-76200000D02*
X131178300Y-76200000D01*
X134962250Y-76200047D02*
G75*
G03*
X136434319Y-75070441I-50J1524047D01*
G01*
X60960000Y-76200000D02*
G75*
G03*
X59436000Y-77724000I0J-1524000D01*
G01*
X61722000Y-76200000D02*
X131178300Y-76200000D01*
X61722000Y-76200000D02*
X60960000Y-76200000D01*
X252222000Y-156972000D02*
X61722000Y-156972000D01*
X254507993Y-79667100D02*
G75*
G03*
X253365350Y-78179844I-1523993J11700D01*
G01*
X252222000Y-156972000D02*
G75*
G03*
X254508000Y-154686000I0J2286000D01*
G01*
X59436000Y-77724000D02*
X59436000Y-78486000D01*
X145016441Y-49147744D02*
X151738470Y-50953142D01*
X145016443Y-49147735D02*
G75*
G03*
X143149931Y-50225373I-394443J-1472065D01*
G01*
X254507999Y-79667100D02*
X254508000Y-154686000D01*
X151738470Y-50953142D02*
X253365350Y-78179844D01*
X143149931Y-50225373D02*
X136434319Y-75070441D01*
D11*
X198624355Y-71402224D02*
X197630715Y-68671035D01*
X195864567Y-70662741D02*
X197158663Y-65833112D01*
X198998521Y-66326100D01*
X199396862Y-66679330D01*
X199565221Y-66970936D01*
X199671956Y-67492524D01*
X199487086Y-68182471D01*
X199133856Y-68580812D01*
X198842250Y-68749171D01*
X198320662Y-68855906D01*
X196480803Y-68362917D01*
X200525838Y-71665230D02*
X201154161Y-72080083D01*
X202304073Y-72388201D01*
X202825661Y-72281466D01*
X203117267Y-72113107D01*
X203470497Y-71714766D01*
X203593744Y-71254801D01*
X203487009Y-70733213D01*
X203318650Y-70441607D01*
X202920309Y-70088378D01*
X202062003Y-69611901D01*
X201663662Y-69258672D01*
X201495303Y-68967066D01*
X201388568Y-68445477D01*
X201511815Y-67985513D01*
X201865045Y-67587172D01*
X202156650Y-67418813D01*
X202678239Y-67312078D01*
X203828150Y-67620196D01*
X204456474Y-68035049D01*
X207593667Y-73805544D02*
X205293843Y-73189308D01*
X206587938Y-68359679D01*
X209343302Y-72795391D02*
X211643126Y-73411627D01*
X208513596Y-74052038D02*
X211417568Y-69653774D01*
X211733349Y-74914768D01*
X213947373Y-70331633D02*
X216707161Y-71071116D01*
X214033172Y-75531004D02*
X215327267Y-70701375D01*
X217700802Y-73802305D02*
X219310678Y-74233670D01*
X219322766Y-76948346D02*
X217022943Y-76332110D01*
X218317038Y-71502481D01*
X220616861Y-72118717D01*
D12*
X202999977Y-74311924D02*
X203125642Y-74394894D01*
X203159313Y-74453215D01*
X203180660Y-74557533D01*
X203143686Y-74695522D01*
X203073040Y-74775191D01*
X203014719Y-74808862D01*
X202910401Y-74830209D01*
X202542430Y-74731612D01*
X202801249Y-73765686D01*
X203123224Y-73851959D01*
X203202892Y-73922605D01*
X203236564Y-73980926D01*
X203257911Y-74085244D01*
X203233262Y-74177237D01*
X203162616Y-74256905D01*
X203104295Y-74290577D01*
X202999977Y-74311924D01*
X202678002Y-74225651D01*
X203588909Y-74321831D02*
X203646345Y-75027405D01*
X204048873Y-74445078D02*
X203646345Y-75027405D01*
X203492728Y-75232738D01*
X203434407Y-75266410D01*
X203330090Y-75287757D01*
X204268948Y-75095633D02*
X204302620Y-75153955D01*
X204244299Y-75187626D01*
X204210627Y-75129305D01*
X204268948Y-75095633D01*
X204244299Y-75187626D01*
X204404520Y-74589672D02*
X204438192Y-74647993D01*
X204379871Y-74681665D01*
X204346199Y-74623344D01*
X204404520Y-74589672D01*
X204379871Y-74681665D01*
X205975005Y-74616091D02*
X205790134Y-75306038D01*
X205707164Y-75431703D01*
X205590521Y-75499047D01*
X205440207Y-75508069D01*
X205348214Y-75483419D01*
X206556447Y-75757866D02*
X206452129Y-75779213D01*
X206268144Y-75729914D01*
X206188475Y-75659268D01*
X206167128Y-75554950D01*
X206265726Y-75186978D01*
X206336372Y-75107310D01*
X206440690Y-75085963D01*
X206624676Y-75135262D01*
X206704344Y-75205908D01*
X206725691Y-75310226D01*
X206701041Y-75402219D01*
X206216427Y-75370964D01*
X207004087Y-75927109D02*
X207176633Y-75283159D01*
X207127334Y-75467145D02*
X207197980Y-75387476D01*
X207256301Y-75353805D01*
X207360619Y-75332458D01*
X207452612Y-75357107D01*
X208108002Y-76222902D02*
X207556045Y-76075006D01*
X207832024Y-76148954D02*
X208090843Y-75183028D01*
X207961875Y-75296368D01*
X207845233Y-75363712D01*
X207740915Y-75385059D01*
X208710144Y-75447567D02*
X208768465Y-75413896D01*
X208872783Y-75392549D01*
X209102765Y-75454172D01*
X209182433Y-75524818D01*
X209216105Y-75583139D01*
X209237452Y-75687457D01*
X209212802Y-75779450D01*
X209129832Y-75905114D01*
X208429978Y-76309175D01*
X209027932Y-76469397D01*
X209608726Y-75589744D02*
X210206680Y-75749965D01*
X209786107Y-76031664D01*
X209924096Y-76068638D01*
X210003765Y-76139284D01*
X210037436Y-76197605D01*
X210058783Y-76301923D01*
X209997160Y-76531905D01*
X209926514Y-76611573D01*
X209868193Y-76645245D01*
X209763875Y-76666592D01*
X209487896Y-76592644D01*
X209408228Y-76521998D01*
X209374556Y-76463677D01*
X210328158Y-76768492D02*
X210407826Y-76839138D01*
X210591812Y-76888437D01*
X210696129Y-76867090D01*
X210766775Y-76787422D01*
X210779100Y-76741425D01*
X210757753Y-76637108D01*
X210678085Y-76566462D01*
X210540095Y-76529488D01*
X210460427Y-76458842D01*
X210439080Y-76354524D01*
X210451405Y-76308528D01*
X210522051Y-76228859D01*
X210626368Y-76207512D01*
X210764358Y-76244487D01*
X210844026Y-76315132D01*
X211524066Y-77088935D02*
X211419748Y-77110282D01*
X211235762Y-77060983D01*
X211156094Y-76990337D01*
X211134747Y-76886020D01*
X211233345Y-76518048D01*
X211303991Y-76438380D01*
X211408308Y-76417033D01*
X211592294Y-76466331D01*
X211671962Y-76536977D01*
X211693309Y-76641295D01*
X211668660Y-76733288D01*
X211184046Y-76702034D01*
X212477667Y-77393751D02*
X211925709Y-77245854D01*
X212201688Y-77319802D02*
X212460507Y-76353876D01*
X212331540Y-76467216D01*
X212214898Y-76534560D01*
X212110580Y-76555907D01*
X213079808Y-76618415D02*
X213138129Y-76584744D01*
X213242447Y-76563397D01*
X213472429Y-76625020D01*
X213552098Y-76695666D01*
X213585769Y-76753987D01*
X213607116Y-76858305D01*
X213582467Y-76950298D01*
X213499496Y-77075963D01*
X212799642Y-77480024D01*
X213397596Y-77640245D01*
X186880666Y-68222761D02*
X187023523Y-68270380D01*
X187261619Y-68270380D01*
X187356857Y-68222761D01*
X187404476Y-68175142D01*
X187452095Y-68079904D01*
X187452095Y-67984666D01*
X187404476Y-67889428D01*
X187356857Y-67841809D01*
X187261619Y-67794190D01*
X187071142Y-67746571D01*
X186975904Y-67698952D01*
X186928285Y-67651333D01*
X186880666Y-67556095D01*
X186880666Y-67460857D01*
X186928285Y-67365619D01*
X186975904Y-67318000D01*
X187071142Y-67270380D01*
X187309238Y-67270380D01*
X187452095Y-67318000D01*
X187785428Y-67270380D02*
X188023523Y-68270380D01*
X188214000Y-67556095D01*
X188404476Y-68270380D01*
X188642571Y-67270380D01*
X189547333Y-68270380D02*
X188975904Y-68270380D01*
X189261619Y-68270380D02*
X189261619Y-67270380D01*
X189166380Y-67413238D01*
X189071142Y-67508476D01*
X188975904Y-67556095D01*
X230647000Y-138161000D02*
X229647000Y-138161000D01*
X229647000Y-152161000D02*
X230647000Y-152161000D01*
X216647000Y-139161000D02*
X216647000Y-138161000D01*
X230647000Y-151161000D02*
X230647000Y-152161000D01*
X230647000Y-138161000D02*
X230647000Y-139161000D01*
D13*
X233172000Y-154686000D02*
X214122000Y-154686000D01*
X214122000Y-154686000D02*
X214122000Y-135636000D01*
X214122000Y-135636000D02*
X233172000Y-135636000D01*
D12*
X216647000Y-152161000D02*
X217647000Y-152161000D01*
X230647000Y-152161000D02*
X229647000Y-152161000D01*
D13*
X233172000Y-135636000D02*
X233172000Y-154686000D01*
D12*
X217647000Y-138161000D02*
X216647000Y-138161000D01*
X216647000Y-152161000D02*
X216647000Y-151161000D01*
X217647001Y-100061000D02*
X216647001Y-100061000D01*
X230647001Y-113061000D02*
X230647001Y-114061000D01*
D13*
X233172001Y-116586000D02*
X214122001Y-116586000D01*
X214122001Y-97536000D02*
X233172001Y-97536000D01*
D12*
X230647001Y-100061000D02*
X229647001Y-100061000D01*
D13*
X233172001Y-97536000D02*
X233172001Y-116586000D01*
D12*
X216647001Y-101061000D02*
X216647001Y-100061000D01*
X216647001Y-114061000D02*
X216647001Y-113061000D01*
D13*
X214122001Y-116586000D02*
X214122001Y-97536000D01*
D12*
X216647001Y-114061000D02*
X217647001Y-114061000D01*
X230647001Y-100061000D02*
X230647001Y-101061000D01*
X230647001Y-114061000D02*
X229647001Y-114061000D01*
X229647001Y-114061000D02*
X230647001Y-114061000D01*
D13*
X156972000Y-97536000D02*
X156972000Y-116586000D01*
D12*
X140447000Y-101061000D02*
X140447000Y-100061000D01*
X140447000Y-114061000D02*
X141447000Y-114061000D01*
X154447000Y-113061000D02*
X154447000Y-114061000D01*
D13*
X137922000Y-116586000D02*
X137922000Y-97536000D01*
X156972000Y-116586000D02*
X137922000Y-116586000D01*
D12*
X140447000Y-114061000D02*
X140447000Y-113061000D01*
X154447000Y-114061000D02*
X153447000Y-114061000D01*
X154447000Y-100061000D02*
X153447000Y-100061000D01*
D13*
X137922000Y-97536000D02*
X156972000Y-97536000D01*
D12*
X154447000Y-100061000D02*
X154447000Y-101061000D01*
X141447000Y-100061000D02*
X140447000Y-100061000D01*
X153447000Y-114061000D02*
X154447000Y-114061000D01*
X248697000Y-152161000D02*
X249697000Y-152161000D01*
D13*
X252222000Y-154686000D02*
X233172000Y-154686000D01*
D12*
X235697000Y-139161000D02*
X235697000Y-138161000D01*
X236697000Y-138161000D02*
X235697000Y-138161000D01*
D13*
X252222000Y-135636000D02*
X252222000Y-154686000D01*
X233172000Y-154686000D02*
X233172000Y-135636000D01*
D12*
X249697000Y-152161000D02*
X248697000Y-152161000D01*
X249697000Y-138161000D02*
X248697000Y-138161000D01*
X249697000Y-151161000D02*
X249697000Y-152161000D01*
X235697000Y-152161000D02*
X236697000Y-152161000D01*
X249697000Y-138161000D02*
X249697000Y-139161000D01*
X235697000Y-152161000D02*
X235697000Y-151161000D01*
D13*
X233172000Y-135636000D02*
X252222000Y-135636000D01*
D12*
X135397000Y-81011000D02*
X135397000Y-82011000D01*
D13*
X118872000Y-97536000D02*
X118872000Y-78486000D01*
X118872000Y-78486000D02*
X137922000Y-78486000D01*
D12*
X121397000Y-95011000D02*
X122397000Y-95011000D01*
X134397000Y-95011000D02*
X135397000Y-95011000D01*
D13*
X137922000Y-78486000D02*
X137922000Y-97536000D01*
D12*
X121397000Y-82011000D02*
X121397000Y-81011000D01*
X135397000Y-81011000D02*
X134397000Y-81011000D01*
X135397000Y-95011000D02*
X134397000Y-95011000D01*
X121397000Y-95011000D02*
X121397000Y-94011000D01*
X135397000Y-94011000D02*
X135397000Y-95011000D01*
D13*
X137922000Y-97536000D02*
X118872000Y-97536000D01*
D12*
X122397000Y-81011000D02*
X121397000Y-81011000D01*
D13*
X118872000Y-116586000D02*
X137922000Y-116586000D01*
D12*
X135397000Y-119111000D02*
X135397000Y-120111000D01*
X134397000Y-133111000D02*
X135397000Y-133111000D01*
X121397000Y-120111000D02*
X121397000Y-119111000D01*
X135397000Y-133111000D02*
X134397000Y-133111000D01*
X135397000Y-119111000D02*
X134397000Y-119111000D01*
D13*
X137922000Y-135636000D02*
X118872000Y-135636000D01*
D12*
X122397000Y-119111000D02*
X121397000Y-119111000D01*
X135397000Y-132111000D02*
X135397000Y-133111000D01*
X121397000Y-133111000D02*
X122397000Y-133111000D01*
D13*
X137922000Y-116586000D02*
X137922000Y-135636000D01*
X118872000Y-135636000D02*
X118872000Y-116586000D01*
D12*
X121397000Y-133111000D02*
X121397000Y-132111000D01*
X135397000Y-138161000D02*
X134397000Y-138161000D01*
D13*
X137922000Y-154686000D02*
X118872000Y-154686000D01*
D12*
X121397000Y-152161000D02*
X121397000Y-151161000D01*
X135397000Y-138161000D02*
X135397000Y-139161000D01*
X121397000Y-152161000D02*
X122397000Y-152161000D01*
X121397000Y-139161000D02*
X121397000Y-138161000D01*
D13*
X118872000Y-135636000D02*
X137922000Y-135636000D01*
D12*
X135397000Y-152161000D02*
X134397000Y-152161000D01*
D13*
X118872000Y-154686000D02*
X118872000Y-135636000D01*
D12*
X135397000Y-151161000D02*
X135397000Y-152161000D01*
X134397000Y-152161000D02*
X135397000Y-152161000D01*
D13*
X137922000Y-135636000D02*
X137922000Y-154686000D01*
D12*
X122397000Y-138161000D02*
X121397000Y-138161000D01*
X178547000Y-95011000D02*
X179547000Y-95011000D01*
X192547000Y-81011000D02*
X191547000Y-81011000D01*
D13*
X195072000Y-78486000D02*
X195072000Y-97536000D01*
X195072000Y-97536000D02*
X176022000Y-97536000D01*
D12*
X192547000Y-81011000D02*
X192547000Y-82011000D01*
X179547000Y-81011000D02*
X178547000Y-81011000D01*
D13*
X176022000Y-78486000D02*
X195072000Y-78486000D01*
D12*
X178547000Y-95011000D02*
X178547000Y-94011000D01*
X178547000Y-82011000D02*
X178547000Y-81011000D01*
X191547000Y-95011000D02*
X192547000Y-95011000D01*
X192547000Y-95011000D02*
X191547000Y-95011000D01*
X192547000Y-94011000D02*
X192547000Y-95011000D01*
D13*
X176022000Y-97536000D02*
X176022000Y-78486000D01*
D12*
X178547000Y-114061000D02*
X178547000Y-113061000D01*
X192547000Y-113061000D02*
X192547000Y-114061000D01*
X191547000Y-114061000D02*
X192547000Y-114061000D01*
D13*
X176022000Y-97536000D02*
X195072000Y-97536000D01*
X195072000Y-97536000D02*
X195072000Y-116586000D01*
D12*
X192547000Y-114061000D02*
X191547000Y-114061000D01*
X192547000Y-100061000D02*
X192547000Y-101061000D01*
X192547000Y-100061000D02*
X191547000Y-100061000D01*
X178547000Y-101061000D02*
X178547000Y-100061000D01*
X179547000Y-100061000D02*
X178547000Y-100061000D01*
D13*
X176022000Y-116586000D02*
X176022000Y-97536000D01*
D12*
X178547000Y-114061000D02*
X179547000Y-114061000D01*
D13*
X195072000Y-116586000D02*
X176022000Y-116586000D01*
X195072000Y-78486000D02*
X214122000Y-78486000D01*
D12*
X211597000Y-81011000D02*
X210597000Y-81011000D01*
X211597000Y-95011000D02*
X210597000Y-95011000D01*
D13*
X195072000Y-97536000D02*
X195072000Y-78486000D01*
D12*
X197597000Y-95011000D02*
X198597000Y-95011000D01*
X197597000Y-95011000D02*
X197597000Y-94011000D01*
X197597000Y-82011000D02*
X197597000Y-81011000D01*
D13*
X214122000Y-78486000D02*
X214122000Y-97536000D01*
D12*
X211597000Y-81011000D02*
X211597000Y-82011000D01*
X198597000Y-81011000D02*
X197597000Y-81011000D01*
D13*
X214122000Y-97536000D02*
X195072000Y-97536000D01*
D12*
X210597000Y-95011000D02*
X211597000Y-95011000D01*
X211597000Y-94011000D02*
X211597000Y-95011000D01*
X154447000Y-119111000D02*
X154447000Y-120111000D01*
D13*
X137922000Y-116586000D02*
X156972000Y-116586000D01*
X156972000Y-135636000D02*
X137922000Y-135636000D01*
X156972000Y-116586000D02*
X156972000Y-135636000D01*
D12*
X154447000Y-133111000D02*
X153447000Y-133111000D01*
X140447000Y-120111000D02*
X140447000Y-119111000D01*
D13*
X137922000Y-135636000D02*
X137922000Y-116586000D01*
D12*
X154447000Y-119111000D02*
X153447000Y-119111000D01*
X140447000Y-133111000D02*
X141447000Y-133111000D01*
X153447000Y-133111000D02*
X154447000Y-133111000D01*
X141447000Y-119111000D02*
X140447000Y-119111000D01*
X154447000Y-132111000D02*
X154447000Y-133111000D01*
X140447000Y-133111000D02*
X140447000Y-132111000D01*
X116347001Y-100061000D02*
X115347001Y-100061000D01*
X102347001Y-114061000D02*
X103347001Y-114061000D01*
D13*
X118872001Y-97536000D02*
X118872001Y-116586000D01*
D12*
X116347001Y-114061000D02*
X115347001Y-114061000D01*
D13*
X118872001Y-116586000D02*
X99822001Y-116586000D01*
D12*
X116347001Y-100061000D02*
X116347001Y-101061000D01*
X102347001Y-114061000D02*
X102347001Y-113061000D01*
X116347001Y-113061000D02*
X116347001Y-114061000D01*
X115347001Y-114061000D02*
X116347001Y-114061000D01*
D13*
X99822001Y-97536000D02*
X118872001Y-97536000D01*
X99822001Y-116586000D02*
X99822001Y-97536000D01*
D12*
X103347001Y-100061000D02*
X102347001Y-100061000D01*
X102347001Y-101061000D02*
X102347001Y-100061000D01*
X236697000Y-119111000D02*
X235697000Y-119111000D01*
X235697000Y-120111000D02*
X235697000Y-119111000D01*
X248697000Y-133111000D02*
X249697000Y-133111000D01*
X235697000Y-133111000D02*
X235697000Y-132111000D01*
X249697000Y-132111000D02*
X249697000Y-133111000D01*
X249697000Y-119111000D02*
X249697000Y-120111000D01*
D13*
X233172000Y-135636000D02*
X233172000Y-116586000D01*
X233172000Y-116586000D02*
X252222000Y-116586000D01*
D12*
X249697000Y-133111000D02*
X248697000Y-133111000D01*
X249697000Y-119111000D02*
X248697000Y-119111000D01*
X235697000Y-133111000D02*
X236697000Y-133111000D01*
D13*
X252222000Y-116586000D02*
X252222000Y-135636000D01*
X252222000Y-135636000D02*
X233172000Y-135636000D01*
X99822000Y-135636001D02*
X80772000Y-135636001D01*
D12*
X97297000Y-133111001D02*
X96297000Y-133111001D01*
D13*
X99822000Y-116586001D02*
X99822000Y-135636001D01*
D12*
X83297000Y-133111001D02*
X83297000Y-132111001D01*
X96297000Y-133111001D02*
X97297000Y-133111001D01*
X83297000Y-133111001D02*
X84297000Y-133111001D01*
D13*
X80772000Y-135636001D02*
X80772000Y-116586001D01*
D12*
X84297000Y-119111001D02*
X83297000Y-119111001D01*
X83297000Y-120111001D02*
X83297000Y-119111001D01*
X97297000Y-119111001D02*
X96297000Y-119111001D01*
D13*
X80772000Y-116586001D02*
X99822000Y-116586001D01*
D12*
X97297000Y-132111001D02*
X97297000Y-133111001D01*
X97297000Y-119111001D02*
X97297000Y-120111001D01*
X116347000Y-138161000D02*
X115347000Y-138161000D01*
X116347000Y-152161000D02*
X115347000Y-152161000D01*
X115347000Y-152161000D02*
X116347000Y-152161000D01*
X102347000Y-152161000D02*
X103347000Y-152161000D01*
D13*
X99822000Y-135636000D02*
X118872000Y-135636000D01*
D12*
X103347000Y-138161000D02*
X102347000Y-138161000D01*
D13*
X118872000Y-154686000D02*
X99822000Y-154686000D01*
X118872000Y-135636000D02*
X118872000Y-154686000D01*
X99822000Y-154686000D02*
X99822000Y-135636000D01*
D12*
X116347000Y-138161000D02*
X116347000Y-139161000D01*
X102347000Y-139161000D02*
X102347000Y-138161000D01*
X116347000Y-151161000D02*
X116347000Y-152161000D01*
X102347000Y-152161000D02*
X102347000Y-151161000D01*
X102347000Y-95011000D02*
X103347000Y-95011000D01*
X116347000Y-81011000D02*
X115347000Y-81011000D01*
X116347000Y-95011000D02*
X115347000Y-95011000D01*
X102347000Y-95011000D02*
X102347000Y-94011000D01*
X103347000Y-81011000D02*
X102347000Y-81011000D01*
X116347000Y-94011000D02*
X116347000Y-95011000D01*
D13*
X118872000Y-97536000D02*
X99822000Y-97536000D01*
X99822000Y-78486000D02*
X118872000Y-78486000D01*
X99822000Y-97536000D02*
X99822000Y-78486000D01*
D12*
X116347000Y-81011000D02*
X116347000Y-82011000D01*
X115347000Y-95011000D02*
X116347000Y-95011000D01*
D13*
X118872000Y-78486000D02*
X118872000Y-97536000D01*
D12*
X102347000Y-82011000D02*
X102347000Y-81011000D01*
X83297000Y-139161000D02*
X83297000Y-138161000D01*
X83297000Y-152161000D02*
X84297000Y-152161000D01*
D13*
X80772000Y-154686000D02*
X80772000Y-135636000D01*
D12*
X96297000Y-152161000D02*
X97297000Y-152161000D01*
X97297000Y-138161000D02*
X96297000Y-138161000D01*
D13*
X80772000Y-135636000D02*
X99822000Y-135636000D01*
D12*
X84297000Y-138161000D02*
X83297000Y-138161000D01*
X97297000Y-151161000D02*
X97297000Y-152161000D01*
X83297000Y-152161000D02*
X83297000Y-151161000D01*
D13*
X99822000Y-135636000D02*
X99822000Y-154686000D01*
D12*
X97297000Y-138161000D02*
X97297000Y-139161000D01*
X97297000Y-152161000D02*
X96297000Y-152161000D01*
D13*
X99822000Y-154686000D02*
X80772000Y-154686000D01*
X233172000Y-78486000D02*
X252222000Y-78486000D01*
D12*
X235697000Y-95011000D02*
X236697000Y-95011000D01*
D13*
X252222000Y-97536000D02*
X233172000Y-97536000D01*
D12*
X235697000Y-95011000D02*
X235697000Y-94011000D01*
X248697000Y-95011000D02*
X249697000Y-95011000D01*
X249697000Y-81011000D02*
X249697000Y-82011000D01*
X236697000Y-81011000D02*
X235697000Y-81011000D01*
D13*
X233172000Y-97536000D02*
X233172000Y-78486000D01*
D12*
X249697000Y-94011000D02*
X249697000Y-95011000D01*
X249697000Y-81011000D02*
X248697000Y-81011000D01*
D13*
X252222000Y-78486000D02*
X252222000Y-97536000D01*
D12*
X235697000Y-82011000D02*
X235697000Y-81011000D01*
X249697000Y-95011000D02*
X248697000Y-95011000D01*
X173497000Y-133111000D02*
X172497000Y-133111000D01*
X160497000Y-119111000D02*
X159497000Y-119111000D01*
D13*
X156972000Y-135636000D02*
X156972000Y-116586000D01*
D12*
X173497000Y-132111000D02*
X173497000Y-133111000D01*
X159497000Y-133111000D02*
X160497000Y-133111000D01*
D13*
X176022000Y-135636000D02*
X156972000Y-135636000D01*
X156972000Y-116586000D02*
X176022000Y-116586000D01*
X176022000Y-116586000D02*
X176022000Y-135636000D01*
D12*
X159497000Y-120111000D02*
X159497000Y-119111000D01*
X159497000Y-133111000D02*
X159497000Y-132111000D01*
X173497000Y-119111000D02*
X173497000Y-120111000D01*
X173497000Y-119111000D02*
X172497000Y-119111000D01*
X172497000Y-133111000D02*
X173497000Y-133111000D01*
X154447000Y-81011000D02*
X154447000Y-82011000D01*
X140447000Y-95011000D02*
X141447000Y-95011000D01*
D13*
X137922000Y-78486000D02*
X156972000Y-78486000D01*
D12*
X153447000Y-95011000D02*
X154447000Y-95011000D01*
D13*
X137922000Y-97536000D02*
X137922000Y-78486000D01*
D12*
X140447000Y-95011000D02*
X140447000Y-94011000D01*
D13*
X156972000Y-97536000D02*
X137922000Y-97536000D01*
X156972000Y-78486000D02*
X156972000Y-97536000D01*
D12*
X154447000Y-95011000D02*
X153447000Y-95011000D01*
X140447000Y-82011000D02*
X140447000Y-81011000D01*
X154447000Y-81011000D02*
X153447000Y-81011000D01*
X154447000Y-94011000D02*
X154447000Y-95011000D01*
X141447000Y-81011000D02*
X140447000Y-81011000D01*
D13*
X156972000Y-135636000D02*
X156972000Y-154686000D01*
D12*
X140447000Y-152161000D02*
X140447000Y-151161000D01*
X154447000Y-151161000D02*
X154447000Y-152161000D01*
D13*
X137922000Y-135636000D02*
X156972000Y-135636000D01*
D12*
X154447000Y-138161000D02*
X154447000Y-139161000D01*
X141447000Y-138161000D02*
X140447000Y-138161000D01*
X140447000Y-139161000D02*
X140447000Y-138161000D01*
X153447000Y-152161000D02*
X154447000Y-152161000D01*
D13*
X156972000Y-154686000D02*
X137922000Y-154686000D01*
D12*
X154447000Y-138161000D02*
X153447000Y-138161000D01*
X154447000Y-152161000D02*
X153447000Y-152161000D01*
D13*
X137922000Y-154686000D02*
X137922000Y-135636000D01*
D12*
X140447000Y-152161000D02*
X141447000Y-152161000D01*
X97296999Y-114061000D02*
X96296999Y-114061000D01*
X96296999Y-114061000D02*
X97296999Y-114061000D01*
X97296999Y-113061000D02*
X97296999Y-114061000D01*
X83296999Y-114061000D02*
X83296999Y-113061000D01*
D13*
X80771999Y-97536000D02*
X99821999Y-97536000D01*
D12*
X97296999Y-100061000D02*
X96296999Y-100061000D01*
D13*
X99821999Y-97536000D02*
X99821999Y-116586000D01*
X80771999Y-116586000D02*
X80771999Y-97536000D01*
D12*
X97296999Y-100061000D02*
X97296999Y-101061000D01*
X83296999Y-101061000D02*
X83296999Y-100061000D01*
X83296999Y-114061000D02*
X84296999Y-114061000D01*
X84296999Y-100061000D02*
X83296999Y-100061000D01*
D13*
X99821999Y-116586000D02*
X80771999Y-116586000D01*
D12*
X173497000Y-151161000D02*
X173497000Y-152161000D01*
D13*
X176022000Y-154686000D02*
X156972000Y-154686000D01*
D12*
X160497000Y-138161000D02*
X159497000Y-138161000D01*
X159497000Y-152161000D02*
X159497000Y-151161000D01*
X159497000Y-152161000D02*
X160497000Y-152161000D01*
X159497000Y-139161000D02*
X159497000Y-138161000D01*
X173497000Y-138161000D02*
X173497000Y-139161000D01*
X173497000Y-138161000D02*
X172497000Y-138161000D01*
D13*
X176022000Y-135636000D02*
X176022000Y-154686000D01*
X156972000Y-135636000D02*
X176022000Y-135636000D01*
D12*
X172497000Y-152161000D02*
X173497000Y-152161000D01*
X173497000Y-152161000D02*
X172497000Y-152161000D01*
D13*
X156972000Y-154686000D02*
X156972000Y-135636000D01*
D12*
X192547000Y-138161000D02*
X192547000Y-139161000D01*
D13*
X195072000Y-154686000D02*
X176022000Y-154686000D01*
D12*
X178547000Y-139161000D02*
X178547000Y-138161000D01*
X179547000Y-138161000D02*
X178547000Y-138161000D01*
X191547000Y-152161000D02*
X192547000Y-152161000D01*
D13*
X195072000Y-135636000D02*
X195072000Y-154686000D01*
X176022000Y-154686000D02*
X176022000Y-135636000D01*
D12*
X192547000Y-138161000D02*
X191547000Y-138161000D01*
D13*
X176022000Y-135636000D02*
X195072000Y-135636000D01*
D12*
X192547000Y-151161000D02*
X192547000Y-152161000D01*
X192547000Y-152161000D02*
X191547000Y-152161000D01*
X178547000Y-152161000D02*
X179547000Y-152161000D01*
X178547000Y-152161000D02*
X178547000Y-151161000D01*
X121397000Y-114061000D02*
X122397000Y-114061000D01*
X121397000Y-114061000D02*
X121397000Y-113061000D01*
D13*
X118872000Y-97536000D02*
X137922000Y-97536000D01*
D12*
X135397000Y-100061000D02*
X135397000Y-101061000D01*
D13*
X137922000Y-97536000D02*
X137922000Y-116586000D01*
D12*
X135397000Y-113061000D02*
X135397000Y-114061000D01*
X122397000Y-100061000D02*
X121397000Y-100061000D01*
D13*
X118872000Y-116586000D02*
X118872000Y-97536000D01*
D12*
X135397000Y-114061000D02*
X134397000Y-114061000D01*
X121397000Y-101061000D02*
X121397000Y-100061000D01*
D13*
X137922000Y-116586000D02*
X118872000Y-116586000D01*
D12*
X134397000Y-114061000D02*
X135397000Y-114061000D01*
X135397000Y-100061000D02*
X134397000Y-100061000D01*
X97297000Y-81011000D02*
X97297000Y-82011000D01*
X96297000Y-95011000D02*
X97297000Y-95011000D01*
X83297000Y-82011000D02*
X83297000Y-81011000D01*
D13*
X80772000Y-97536000D02*
X80772000Y-78486000D01*
D12*
X97297000Y-81011000D02*
X96297000Y-81011000D01*
X97297000Y-95011000D02*
X96297000Y-95011000D01*
D13*
X80772000Y-78486000D02*
X99822000Y-78486000D01*
D12*
X97297000Y-94011000D02*
X97297000Y-95011000D01*
X84297000Y-81011000D02*
X83297000Y-81011000D01*
X83297000Y-95011000D02*
X83297000Y-94011000D01*
D13*
X99822000Y-78486000D02*
X99822000Y-97536000D01*
D12*
X83297000Y-95011000D02*
X84297000Y-95011000D01*
D13*
X99822000Y-97536000D02*
X80772000Y-97536000D01*
D12*
X197597000Y-152161000D02*
X197597000Y-151161000D01*
X211597000Y-138161000D02*
X211597000Y-139161000D01*
X198597000Y-138161000D02*
X197597000Y-138161000D01*
X210597000Y-152161000D02*
X211597000Y-152161000D01*
X211597000Y-152161000D02*
X210597000Y-152161000D01*
D13*
X214122000Y-154686000D02*
X195072000Y-154686000D01*
X195072000Y-154686000D02*
X195072000Y-135636000D01*
D12*
X197597000Y-139161000D02*
X197597000Y-138161000D01*
X211597000Y-138161000D02*
X210597000Y-138161000D01*
D13*
X195072000Y-135636000D02*
X214122000Y-135636000D01*
D12*
X197597000Y-152161000D02*
X198597000Y-152161000D01*
X211597000Y-151161000D02*
X211597000Y-152161000D01*
D13*
X214122000Y-135636000D02*
X214122000Y-154686000D01*
D12*
X235697000Y-114061000D02*
X235697000Y-113061000D01*
X235697000Y-114061000D02*
X236697000Y-114061000D01*
X236697000Y-100061000D02*
X235697000Y-100061000D01*
D13*
X252222000Y-97536000D02*
X252222000Y-116586000D01*
X252222000Y-116586000D02*
X233172000Y-116586000D01*
D12*
X248697000Y-114061000D02*
X249697000Y-114061000D01*
D13*
X233172000Y-116586000D02*
X233172000Y-97536000D01*
D12*
X235697000Y-101061000D02*
X235697000Y-100061000D01*
X249697000Y-114061000D02*
X248697000Y-114061000D01*
X249697000Y-113061000D02*
X249697000Y-114061000D01*
X249697000Y-100061000D02*
X249697000Y-101061000D01*
X249697000Y-100061000D02*
X248697000Y-100061000D01*
D13*
X233172000Y-97536000D02*
X252222000Y-97536000D01*
D12*
X159497000Y-114061000D02*
X160497000Y-114061000D01*
X173497000Y-113061000D02*
X173497000Y-114061000D01*
D13*
X156972000Y-116586000D02*
X156972000Y-97536000D01*
X176022000Y-97536000D02*
X176022000Y-116586000D01*
D12*
X173497000Y-100061000D02*
X173497000Y-101061000D01*
X160497000Y-100061000D02*
X159497000Y-100061000D01*
D13*
X156972000Y-97536000D02*
X176022000Y-97536000D01*
D12*
X159497000Y-101061000D02*
X159497000Y-100061000D01*
X159497000Y-114061000D02*
X159497000Y-113061000D01*
X173497000Y-100061000D02*
X172497000Y-100061000D01*
X172497000Y-114061000D02*
X173497000Y-114061000D01*
D13*
X176022000Y-116586000D02*
X156972000Y-116586000D01*
D12*
X173497000Y-114061000D02*
X172497000Y-114061000D01*
X173497000Y-95011000D02*
X172497000Y-95011000D01*
X160497000Y-81011000D02*
X159497000Y-81011000D01*
X172497000Y-95011000D02*
X173497000Y-95011000D01*
D13*
X156972000Y-78486000D02*
X176022000Y-78486000D01*
D12*
X173497000Y-94011000D02*
X173497000Y-95011000D01*
X159497000Y-95011000D02*
X160497000Y-95011000D01*
D13*
X176022000Y-97536000D02*
X156972000Y-97536000D01*
D12*
X159497000Y-95011000D02*
X159497000Y-94011000D01*
X159497000Y-82011000D02*
X159497000Y-81011000D01*
D13*
X156972000Y-97536000D02*
X156972000Y-78486000D01*
D12*
X173497000Y-81011000D02*
X173497000Y-82011000D01*
X173497000Y-81011000D02*
X172497000Y-81011000D01*
D13*
X176022000Y-78486000D02*
X176022000Y-97536000D01*
D12*
X197597000Y-133111001D02*
X197597000Y-132111001D01*
X211597000Y-133111001D02*
X210597000Y-133111001D01*
D13*
X214122000Y-116586001D02*
X214122000Y-135636001D01*
D12*
X197597000Y-120111001D02*
X197597000Y-119111001D01*
D13*
X195072000Y-135636001D02*
X195072000Y-116586001D01*
X214122000Y-135636001D02*
X195072000Y-135636001D01*
D12*
X211597000Y-119111001D02*
X210597000Y-119111001D01*
X211597000Y-119111001D02*
X211597000Y-120111001D01*
X198597000Y-119111001D02*
X197597000Y-119111001D01*
D13*
X195072000Y-116586001D02*
X214122000Y-116586001D01*
D12*
X197597000Y-133111001D02*
X198597000Y-133111001D01*
X210597000Y-133111001D02*
X211597000Y-133111001D01*
X211597000Y-132111001D02*
X211597000Y-133111001D01*
X102347000Y-133111001D02*
X102347000Y-132111001D01*
D13*
X118872000Y-116586001D02*
X118872000Y-135636001D01*
D12*
X116347000Y-119111001D02*
X115347000Y-119111001D01*
D13*
X99822000Y-116586001D02*
X118872000Y-116586001D01*
D12*
X102347000Y-120111001D02*
X102347000Y-119111001D01*
X116347000Y-132111001D02*
X116347000Y-133111001D01*
X116347000Y-133111001D02*
X115347000Y-133111001D01*
D13*
X99822000Y-135636001D02*
X99822000Y-116586001D01*
D12*
X116347000Y-119111001D02*
X116347000Y-120111001D01*
X103347000Y-119111001D02*
X102347000Y-119111001D01*
D13*
X118872000Y-135636001D02*
X99822000Y-135636001D01*
D12*
X115347000Y-133111001D02*
X116347000Y-133111001D01*
X102347000Y-133111001D02*
X103347000Y-133111001D01*
X230647000Y-119111001D02*
X229647000Y-119111001D01*
D13*
X214122000Y-116586001D02*
X233172000Y-116586001D01*
D12*
X230647000Y-132111001D02*
X230647000Y-133111001D01*
X217647000Y-119111001D02*
X216647000Y-119111001D01*
D13*
X233172000Y-116586001D02*
X233172000Y-135636001D01*
X214122000Y-135636001D02*
X214122000Y-116586001D01*
D12*
X230647000Y-133111001D02*
X229647000Y-133111001D01*
X229647000Y-133111001D02*
X230647000Y-133111001D01*
X216647000Y-120111001D02*
X216647000Y-119111001D01*
X230647000Y-119111001D02*
X230647000Y-120111001D01*
X216647000Y-133111001D02*
X216647000Y-132111001D01*
X216647000Y-133111001D02*
X217647000Y-133111001D01*
D13*
X233172000Y-135636001D02*
X214122000Y-135636001D01*
D12*
X64247000Y-152161000D02*
X65247000Y-152161000D01*
D13*
X61722000Y-135636000D02*
X80772000Y-135636000D01*
D12*
X78247000Y-152161000D02*
X77247000Y-152161000D01*
D13*
X80772000Y-135636000D02*
X80772000Y-154686000D01*
D12*
X78247000Y-151161000D02*
X78247000Y-152161000D01*
D13*
X80772000Y-154686000D02*
X61722000Y-154686000D01*
D12*
X78247000Y-138161000D02*
X78247000Y-139161000D01*
X78247000Y-138161000D02*
X77247000Y-138161000D01*
X77247000Y-152161000D02*
X78247000Y-152161000D01*
X65247000Y-138161000D02*
X64247000Y-138161000D01*
X64247000Y-152161000D02*
X64247000Y-151161000D01*
X64247000Y-139161000D02*
X64247000Y-138161000D01*
D13*
X61722000Y-154686000D02*
X61722000Y-135636000D01*
X214122000Y-78486000D02*
X233172000Y-78486000D01*
X214122000Y-97536000D02*
X214122000Y-78486000D01*
D12*
X230647000Y-81011000D02*
X229647000Y-81011000D01*
X230647000Y-81011000D02*
X230647000Y-82011000D01*
X217647000Y-81011000D02*
X216647000Y-81011000D01*
D13*
X233172000Y-97536000D02*
X214122000Y-97536000D01*
D12*
X216647000Y-95011000D02*
X217647000Y-95011000D01*
X216647000Y-95011000D02*
X216647000Y-94011000D01*
X216647000Y-82011000D02*
X216647000Y-81011000D01*
X229647000Y-95011000D02*
X230647000Y-95011000D01*
D13*
X233172000Y-78486000D02*
X233172000Y-97536000D01*
D12*
X230647000Y-95011000D02*
X229647000Y-95011000D01*
X230647000Y-94011000D02*
X230647000Y-95011000D01*
X78247000Y-95011000D02*
X77247000Y-95011000D01*
D13*
X80772000Y-97536000D02*
X61722000Y-97536000D01*
D12*
X78247000Y-81011000D02*
X78247000Y-82011000D01*
X64247000Y-82011000D02*
X64247000Y-81011000D01*
D13*
X61722000Y-78486000D02*
X80772000Y-78486000D01*
D12*
X77247000Y-95011000D02*
X78247000Y-95011000D01*
X65247000Y-81011000D02*
X64247000Y-81011000D01*
X64247000Y-95011000D02*
X65247000Y-95011000D01*
X78247000Y-94011000D02*
X78247000Y-95011000D01*
X78247000Y-81011000D02*
X77247000Y-81011000D01*
D13*
X80772000Y-78486000D02*
X80772000Y-97536000D01*
X61722000Y-97536000D02*
X61722000Y-78486000D01*
D12*
X64247000Y-95011000D02*
X64247000Y-94011000D01*
X211596999Y-100061000D02*
X210596999Y-100061000D01*
X197596999Y-101061000D02*
X197596999Y-100061000D01*
X211596999Y-100061000D02*
X211596999Y-101061000D01*
X197596999Y-114061000D02*
X198596999Y-114061000D01*
D13*
X195071999Y-97536000D02*
X214121999Y-97536000D01*
D12*
X210596999Y-114061000D02*
X211596999Y-114061000D01*
X211596999Y-113061000D02*
X211596999Y-114061000D01*
D13*
X214121999Y-97536000D02*
X214121999Y-116586000D01*
D12*
X198596999Y-100061000D02*
X197596999Y-100061000D01*
X197596999Y-114061000D02*
X197596999Y-113061000D01*
X211596999Y-114061000D02*
X210596999Y-114061000D01*
D13*
X214121999Y-116586000D02*
X195071999Y-116586000D01*
X195071999Y-116586000D02*
X195071999Y-97536000D01*
D12*
X191547000Y-133111000D02*
X192547000Y-133111000D01*
D13*
X176022000Y-135636000D02*
X176022000Y-116586000D01*
X195072000Y-116586000D02*
X195072000Y-135636000D01*
X195072000Y-135636000D02*
X176022000Y-135636000D01*
D12*
X192547000Y-132111000D02*
X192547000Y-133111000D01*
X192547000Y-119111000D02*
X191547000Y-119111000D01*
X179547000Y-119111000D02*
X178547000Y-119111000D01*
D13*
X176022000Y-116586000D02*
X195072000Y-116586000D01*
D12*
X178547000Y-133111000D02*
X178547000Y-132111000D01*
X192547000Y-133111000D02*
X191547000Y-133111000D01*
X178547000Y-120111000D02*
X178547000Y-119111000D01*
X178547000Y-133111000D02*
X179547000Y-133111000D01*
X192547000Y-119111000D02*
X192547000Y-120111000D01*
D13*
X80772000Y-135636000D02*
X61722000Y-135636000D01*
D12*
X64247000Y-120111000D02*
X64247000Y-119111000D01*
X78247000Y-133111000D02*
X77247000Y-133111000D01*
X78247000Y-119111000D02*
X77247000Y-119111000D01*
D13*
X61722000Y-116586000D02*
X80772000Y-116586000D01*
D12*
X78247000Y-132111000D02*
X78247000Y-133111000D01*
X64247000Y-133111000D02*
X65247000Y-133111000D01*
D13*
X61722000Y-135636000D02*
X61722000Y-116586000D01*
D12*
X77247000Y-133111000D02*
X78247000Y-133111000D01*
X64247000Y-133111000D02*
X64247000Y-132111000D01*
X65247000Y-119111000D02*
X64247000Y-119111000D01*
D13*
X80772000Y-116586000D02*
X80772000Y-135636000D01*
D12*
X78247000Y-119111000D02*
X78247000Y-120111000D01*
X78247000Y-100061000D02*
X78247000Y-101061000D01*
X64247000Y-101061000D02*
X64247000Y-100061000D01*
D13*
X61722000Y-97536000D02*
X80772000Y-97536000D01*
D12*
X77247000Y-114061000D02*
X78247000Y-114061000D01*
D13*
X80772000Y-116586000D02*
X61722000Y-116586000D01*
D12*
X64247000Y-114061000D02*
X64247000Y-113061000D01*
X78247000Y-114061000D02*
X77247000Y-114061000D01*
D13*
X80772000Y-97536000D02*
X80772000Y-116586000D01*
D12*
X65247000Y-100061000D02*
X64247000Y-100061000D01*
X78247000Y-100061000D02*
X77247000Y-100061000D01*
X78247000Y-113061000D02*
X78247000Y-114061000D01*
X64247000Y-114061000D02*
X65247000Y-114061000D01*
D13*
X61722000Y-116586000D02*
X61722000Y-97536000D01*
X184714000Y-67068000D02*
X184714000Y-68568000D01*
X185964000Y-71068000D02*
X190464000Y-71068000D01*
X190464000Y-64568000D02*
X185964000Y-64568000D01*
X191714000Y-68568000D02*
X191714000Y-67068000D01*
%LPC*%
D14*
X218147000Y-145161000D03*
X218567000Y-145161000D03*
D15*
X218647000Y-148911000D03*
X223647000Y-151111000D03*
D14*
X228727000Y-145161000D03*
X229147000Y-145161000D03*
D16*
X223647000Y-145161000D03*
D17*
X226187000Y-140081000D03*
X219837000Y-142621000D03*
D14*
X229147001Y-107061000D03*
D15*
X218647001Y-110811000D03*
D14*
X228727001Y-107061000D03*
X218147001Y-107061000D03*
X218567001Y-107061000D03*
D16*
X223647001Y-107061000D03*
D15*
X223647001Y-113011000D03*
D17*
X226187001Y-101981000D03*
X219837001Y-104521000D03*
D15*
X142447000Y-110811000D03*
X147447000Y-113011000D03*
D14*
X142367000Y-107061000D03*
X152527000Y-107061000D03*
X141947000Y-107061000D03*
D16*
X147447000Y-107061000D03*
D14*
X152947000Y-107061000D03*
D17*
X149987000Y-101981000D03*
X143637000Y-104521000D03*
D15*
X242697000Y-151111000D03*
D14*
X237197000Y-145161000D03*
X247777000Y-145161000D03*
X237617000Y-145161000D03*
X248197000Y-145161000D03*
D15*
X237697000Y-148911000D03*
D16*
X242697000Y-145161000D03*
D17*
X245237000Y-140081000D03*
X238887000Y-142621000D03*
D15*
X128397000Y-93961000D03*
X123397000Y-91761000D03*
D16*
X128397000Y-88011000D03*
D14*
X133897000Y-88011000D03*
X123317000Y-88011000D03*
X133477000Y-88011000D03*
X122897000Y-88011000D03*
D17*
X130937000Y-82931000D03*
X124587000Y-85471000D03*
D15*
X128397000Y-132061000D03*
X123397000Y-129861000D03*
D14*
X123317000Y-126111000D03*
X133477000Y-126111000D03*
X122897000Y-126111000D03*
D16*
X128397000Y-126111000D03*
D14*
X133897000Y-126111000D03*
D17*
X130937000Y-121031000D03*
X124587000Y-123571000D03*
D18*
X188214000Y-74676000D03*
D14*
X122897000Y-145161000D03*
X133477000Y-145161000D03*
X123317000Y-145161000D03*
X133897000Y-145161000D03*
D16*
X128397000Y-145161000D03*
D15*
X128397000Y-151111000D03*
X123397000Y-148911000D03*
D17*
X130937000Y-140081000D03*
X124587000Y-142621000D03*
D15*
X185547000Y-93961000D03*
X180547000Y-91761000D03*
D14*
X180047000Y-88011000D03*
X190627000Y-88011000D03*
X191047000Y-88011000D03*
D16*
X185547000Y-88011000D03*
D14*
X180467000Y-88011000D03*
D17*
X188087000Y-82931000D03*
X181737000Y-85471000D03*
D14*
X190627000Y-107061000D03*
X180047000Y-107061000D03*
D15*
X185547000Y-113011000D03*
D14*
X191047000Y-107061000D03*
D16*
X185547000Y-107061000D03*
D14*
X180467000Y-107061000D03*
D15*
X180547000Y-110811000D03*
D17*
X188087000Y-101981000D03*
X181737000Y-104521000D03*
D15*
X199597000Y-91761000D03*
D14*
X199097000Y-88011000D03*
D16*
X204597000Y-88011000D03*
D14*
X209677000Y-88011000D03*
D15*
X204597000Y-93961000D03*
D14*
X199517000Y-88011000D03*
X210097000Y-88011000D03*
D17*
X207137000Y-82931000D03*
X200787000Y-85471000D03*
D16*
X147447000Y-126111000D03*
D15*
X147447000Y-132061000D03*
D14*
X152947000Y-126111000D03*
D15*
X142447000Y-129861000D03*
D14*
X141947000Y-126111000D03*
X142367000Y-126111000D03*
X152527000Y-126111000D03*
D17*
X149987000Y-121031000D03*
X143637000Y-123571000D03*
D14*
X104267001Y-107061000D03*
X114427001Y-107061000D03*
X103847001Y-107061000D03*
D15*
X109347001Y-113011000D03*
D14*
X114847001Y-107061000D03*
D16*
X109347001Y-107061000D03*
D15*
X104347001Y-110811000D03*
D17*
X111887001Y-101981000D03*
X105537001Y-104521000D03*
D14*
X237617000Y-126111000D03*
D15*
X237697000Y-129861000D03*
D16*
X242697000Y-126111000D03*
D14*
X247777000Y-126111000D03*
X237197000Y-126111000D03*
D15*
X242697000Y-132061000D03*
D14*
X248197000Y-126111000D03*
D17*
X245237000Y-121031000D03*
X238887000Y-123571000D03*
D15*
X85297000Y-129861001D03*
D14*
X95377000Y-126111001D03*
D16*
X90297000Y-126111001D03*
D14*
X85217000Y-126111001D03*
X84797000Y-126111001D03*
X95797000Y-126111001D03*
D15*
X90297000Y-132061001D03*
D17*
X92837000Y-121031001D03*
X86487000Y-123571001D03*
D15*
X104347000Y-148911000D03*
D16*
X109347000Y-145161000D03*
D15*
X109347000Y-151111000D03*
D14*
X114427000Y-145161000D03*
X114847000Y-145161000D03*
X104267000Y-145161000D03*
X103847000Y-145161000D03*
D17*
X111887000Y-140081000D03*
X105537000Y-142621000D03*
D14*
X104267000Y-88011000D03*
D15*
X109347000Y-93961000D03*
D14*
X103847000Y-88011000D03*
X114847000Y-88011000D03*
X114427000Y-88011000D03*
D15*
X104347000Y-91761000D03*
D16*
X109347000Y-88011000D03*
D17*
X111887000Y-82931000D03*
X105537000Y-85471000D03*
D14*
X95797000Y-145161000D03*
D16*
X90297000Y-145161000D03*
D15*
X90297000Y-151111000D03*
X85297000Y-148911000D03*
D14*
X84797000Y-145161000D03*
X85217000Y-145161000D03*
X95377000Y-145161000D03*
D17*
X92837000Y-140081000D03*
X86487000Y-142621000D03*
D18*
X214122000Y-97536000D03*
D15*
X237697000Y-91761000D03*
D14*
X247777000Y-88011000D03*
D16*
X242697000Y-88011000D03*
D14*
X237197000Y-88011000D03*
D15*
X242697000Y-93961000D03*
D14*
X248197000Y-88011000D03*
X237617000Y-88011000D03*
D17*
X245237000Y-82931000D03*
X238887000Y-85471000D03*
D14*
X171577000Y-126111000D03*
X171997000Y-126111000D03*
D15*
X166497000Y-132061000D03*
X161497000Y-129861000D03*
D16*
X166497000Y-126111000D03*
D14*
X160997000Y-126111000D03*
X161417000Y-126111000D03*
D17*
X169037000Y-121031000D03*
X162687000Y-123571000D03*
D15*
X142447000Y-91761000D03*
D16*
X147447000Y-88011000D03*
D14*
X152947000Y-88011000D03*
X142367000Y-88011000D03*
X141947000Y-88011000D03*
D15*
X147447000Y-93961000D03*
D14*
X152527000Y-88011000D03*
D17*
X149987000Y-82931000D03*
X143637000Y-85471000D03*
D14*
X142367000Y-145161000D03*
X152527000Y-145161000D03*
D15*
X147447000Y-151111000D03*
X142447000Y-148911000D03*
D14*
X152947000Y-145161000D03*
X141947000Y-145161000D03*
D16*
X147447000Y-145161000D03*
D17*
X149987000Y-140081000D03*
X143637000Y-142621000D03*
D14*
X95376999Y-107061000D03*
D15*
X90296999Y-113011000D03*
X85296999Y-110811000D03*
D14*
X95796999Y-107061000D03*
X84796999Y-107061000D03*
D16*
X90296999Y-107061000D03*
D14*
X85216999Y-107061000D03*
D17*
X92836999Y-101981000D03*
X86486999Y-104521000D03*
D18*
X214122000Y-135636000D03*
D14*
X161417000Y-145161000D03*
D16*
X166497000Y-145161000D03*
D14*
X171997000Y-145161000D03*
X160997000Y-145161000D03*
X171577000Y-145161000D03*
D15*
X166497000Y-151111000D03*
X161497000Y-148911000D03*
D17*
X169037000Y-140081000D03*
X162687000Y-142621000D03*
D15*
X180547000Y-148911000D03*
D14*
X191047000Y-145161000D03*
X180047000Y-145161000D03*
X180467000Y-145161000D03*
D15*
X185547000Y-151111000D03*
D14*
X190627000Y-145161000D03*
D16*
X185547000Y-145161000D03*
D17*
X188087000Y-140081000D03*
X181737000Y-142621000D03*
D16*
X128397000Y-107061000D03*
D14*
X122897000Y-107061000D03*
X133897000Y-107061000D03*
X123317000Y-107061000D03*
D15*
X123397000Y-110811000D03*
D14*
X133477000Y-107061000D03*
D15*
X128397000Y-113011000D03*
D17*
X130937000Y-101981000D03*
X124587000Y-104521000D03*
D14*
X95377000Y-88011000D03*
D16*
X90297000Y-88011000D03*
D14*
X85217000Y-88011000D03*
X95797000Y-88011000D03*
X84797000Y-88011000D03*
D15*
X85297000Y-91761000D03*
X90297000Y-93961000D03*
D17*
X92837000Y-82931000D03*
X86487000Y-85471000D03*
D14*
X199097000Y-145161000D03*
D15*
X199597000Y-148911000D03*
D16*
X204597000Y-145161000D03*
D14*
X199517000Y-145161000D03*
D15*
X204597000Y-151111000D03*
D14*
X210097000Y-145161000D03*
X209677000Y-145161000D03*
D17*
X207137000Y-140081000D03*
X200787000Y-142621000D03*
D14*
X237617000Y-107061000D03*
X247777000Y-107061000D03*
D15*
X242697000Y-113011000D03*
D16*
X242697000Y-107061000D03*
D14*
X248197000Y-107061000D03*
X237197000Y-107061000D03*
D15*
X237697000Y-110811000D03*
D17*
X245237000Y-101981000D03*
X238887000Y-104521000D03*
D16*
X166497000Y-107061000D03*
D15*
X161497000Y-110811000D03*
D14*
X171577000Y-107061000D03*
X160997000Y-107061000D03*
X171997000Y-107061000D03*
X161417000Y-107061000D03*
D15*
X166497000Y-113011000D03*
D17*
X169037000Y-101981000D03*
X162687000Y-104521000D03*
D15*
X161497000Y-91761000D03*
D14*
X161417000Y-88011000D03*
X171997000Y-88011000D03*
D16*
X166497000Y-88011000D03*
D14*
X160997000Y-88011000D03*
X171577000Y-88011000D03*
D15*
X166497000Y-93961000D03*
D17*
X169037000Y-82931000D03*
X162687000Y-85471000D03*
D14*
X199097000Y-126111001D03*
D15*
X204597000Y-132061001D03*
X199597000Y-129861001D03*
D14*
X209677000Y-126111001D03*
X210097000Y-126111001D03*
X199517000Y-126111001D03*
D16*
X204597000Y-126111001D03*
D17*
X207137000Y-121031001D03*
X200787000Y-123571001D03*
D15*
X109347000Y-132061001D03*
D14*
X104267000Y-126111001D03*
X114427000Y-126111001D03*
X114847000Y-126111001D03*
X103847000Y-126111001D03*
D16*
X109347000Y-126111001D03*
D15*
X104347000Y-129861001D03*
D17*
X111887000Y-121031001D03*
X105537000Y-123571001D03*
D14*
X228727000Y-126111001D03*
X218567000Y-126111001D03*
D16*
X223647000Y-126111001D03*
D14*
X229147000Y-126111001D03*
D15*
X218647000Y-129861001D03*
X223647000Y-132061001D03*
D14*
X218147000Y-126111001D03*
D17*
X226187000Y-121031001D03*
X219837000Y-123571001D03*
D18*
X156972000Y-116586000D03*
D15*
X66247000Y-148911000D03*
D14*
X66167000Y-145161000D03*
X76327000Y-145161000D03*
X76747000Y-145161000D03*
D15*
X71247000Y-151111000D03*
D14*
X65747000Y-145161000D03*
D16*
X71247000Y-145161000D03*
D17*
X73787000Y-140081000D03*
X67437000Y-142621000D03*
D14*
X228727000Y-88011000D03*
D16*
X223647000Y-88011000D03*
D15*
X223647000Y-93961000D03*
D14*
X229147000Y-88011000D03*
X218567000Y-88011000D03*
X218147000Y-88011000D03*
D15*
X218647000Y-91761000D03*
D17*
X226187000Y-82931000D03*
X219837000Y-85471000D03*
D14*
X76327000Y-88011000D03*
D15*
X66247000Y-91761000D03*
D16*
X71247000Y-88011000D03*
D14*
X66167000Y-88011000D03*
X76747000Y-88011000D03*
X65747000Y-88011000D03*
D15*
X71247000Y-93961000D03*
D17*
X73787000Y-82931000D03*
X67437000Y-85471000D03*
D14*
X210096999Y-107061000D03*
X209676999Y-107061000D03*
D15*
X204596999Y-113011000D03*
D14*
X199516999Y-107061000D03*
D16*
X204596999Y-107061000D03*
D14*
X199096999Y-107061000D03*
D15*
X199596999Y-110811000D03*
D17*
X207136999Y-101981000D03*
X200786999Y-104521000D03*
D18*
X99822000Y-97536000D03*
D15*
X180547000Y-129861000D03*
D14*
X191047000Y-126111000D03*
X180047000Y-126111000D03*
D16*
X185547000Y-126111000D03*
D15*
X185547000Y-132061000D03*
D14*
X190627000Y-126111000D03*
X180467000Y-126111000D03*
D17*
X188087000Y-121031000D03*
X181737000Y-123571000D03*
D15*
X66247000Y-129861000D03*
D16*
X71247000Y-126111000D03*
D14*
X65747000Y-126111000D03*
D15*
X71247000Y-132061000D03*
D14*
X76327000Y-126111000D03*
X66167000Y-126111000D03*
X76747000Y-126111000D03*
D17*
X73787000Y-121031000D03*
X67437000Y-123571000D03*
D14*
X65747000Y-107061000D03*
D15*
X66247000Y-110811000D03*
D14*
X66167000Y-107061000D03*
X76327000Y-107061000D03*
X76747000Y-107061000D03*
D16*
X71247000Y-107061000D03*
D15*
X71247000Y-113011000D03*
D17*
X73787000Y-101981000D03*
X67437000Y-104521000D03*
D19*
X191464000Y-65568000D03*
X184964000Y-65568000D03*
X191464000Y-70068000D03*
X184964000Y-70068000D03*
D18*
X99822000Y-135636000D03*
D20*
X159649284Y-104498716D03*
D21*
X165164716Y-98983284D03*
D20*
X235849284Y-85448715D03*
D21*
X241364716Y-79933283D03*
D20*
X197749284Y-123548715D03*
D21*
X203264716Y-118033283D03*
D20*
X64399284Y-123548715D03*
D21*
X69914716Y-118033283D03*
D20*
X159649283Y-85448715D03*
D21*
X165164715Y-79933283D03*
D20*
X64399284Y-104498716D03*
D21*
X69914716Y-98983284D03*
D20*
X216799284Y-104498715D03*
D21*
X222314716Y-98983283D03*
D20*
X140599284Y-104498715D03*
D21*
X146114716Y-98983283D03*
D20*
X235849284Y-104498715D03*
D21*
X241364716Y-98983283D03*
D20*
X121549284Y-123548715D03*
D21*
X127064716Y-118033283D03*
D20*
X83449285Y-85448715D03*
D21*
X88964717Y-79933283D03*
D20*
X178699284Y-104498716D03*
D21*
X184214716Y-98983284D03*
D20*
X121549284Y-85448715D03*
D21*
X127064716Y-79933283D03*
D20*
X102499284Y-85448715D03*
D21*
X108014716Y-79933283D03*
D20*
X102499284Y-104498715D03*
D21*
X108014716Y-98983283D03*
D20*
X121549284Y-104498715D03*
D21*
X127064716Y-98983283D03*
D20*
X235849284Y-142598716D03*
D21*
X241364716Y-137083284D03*
D20*
X83449284Y-104498716D03*
D21*
X88964716Y-98983284D03*
D20*
X216799283Y-123548715D03*
D21*
X222314715Y-118033283D03*
D20*
X197749284Y-104498716D03*
D21*
X203264716Y-98983284D03*
D20*
X121549284Y-142598716D03*
D21*
X127064716Y-137083284D03*
D20*
X197749284Y-142598715D03*
D21*
X203264716Y-137083283D03*
D20*
X83449284Y-123548715D03*
D21*
X88964716Y-118033283D03*
D20*
X159649284Y-123548715D03*
D21*
X165164716Y-118033283D03*
D20*
X102499284Y-142598715D03*
D21*
X108014716Y-137083283D03*
D20*
X235849284Y-123548715D03*
D21*
X241364716Y-118033283D03*
D20*
X216799284Y-85448715D03*
D21*
X222314716Y-79933283D03*
D20*
X159649284Y-142598715D03*
D21*
X165164716Y-137083283D03*
D20*
X140599284Y-123548715D03*
D21*
X146114716Y-118033283D03*
D20*
X216799283Y-142598715D03*
D21*
X222314715Y-137083283D03*
D20*
X102499284Y-123548715D03*
D21*
X108014716Y-118033283D03*
D20*
X178699284Y-142598715D03*
D21*
X184214716Y-137083283D03*
D20*
X140599284Y-85448715D03*
D21*
X146114716Y-79933283D03*
D20*
X178699284Y-123548715D03*
D21*
X184214716Y-118033283D03*
D20*
X178699284Y-85448716D03*
D21*
X184214716Y-79933284D03*
D20*
X64399284Y-142598715D03*
D21*
X69914716Y-137083283D03*
D20*
X197749284Y-85448715D03*
D21*
X203264716Y-79933283D03*
D20*
X140599284Y-142598715D03*
D21*
X146114716Y-137083283D03*
D20*
X64399283Y-85448715D03*
D21*
X69914715Y-79933283D03*
D20*
X83449284Y-142598715D03*
D21*
X88964716Y-137083283D03*
D22*
X146435236Y-52757397D03*
X148888688Y-53414797D03*
X151342139Y-54072199D03*
X153795590Y-54729598D03*
X156249043Y-55386999D03*
X158702494Y-56044399D03*
X161155946Y-56701799D03*
X163609398Y-57359200D03*
X166062850Y-58016600D03*
X168516300Y-58674000D03*
X170969752Y-59331401D03*
X173423204Y-59988801D03*
X169483978Y-74690191D03*
X167030527Y-74032792D03*
X164577075Y-73375390D03*
X162123622Y-72717991D03*
X159670173Y-72060591D03*
X157216720Y-71403190D03*
X154763269Y-70745790D03*
X152309817Y-70088389D03*
X149856365Y-69430989D03*
X147402913Y-68773589D03*
X144949462Y-68116188D03*
X142496012Y-67458788D03*
M02*
