G04 #@! TF.GenerationSoftware,KiCad,Pcbnew,6.0.7-f9a2dced07~116~ubuntu20.04.1*
G04 #@! TF.CreationDate,2022-09-22T19:19:26+08:00*
G04 #@! TF.ProjectId,V4,56342e6b-6963-4616-945f-706362585858,rev?*
G04 #@! TF.SameCoordinates,Original*
G04 #@! TF.FileFunction,Soldermask,Top*
G04 #@! TF.FilePolarity,Negative*
%FSLAX46Y46*%
G04 Gerber Fmt 4.6, Leading zero omitted, Abs format (unit mm)*
G04 Created by KiCad (PCBNEW 6.0.7-f9a2dced07~116~ubuntu20.04.1) date 2022-09-22 19:19:26*
%MOMM*%
%LPD*%
G01*
G04 APERTURE LIST*
G04 Aperture macros list*
%AMRotRect*
0 Rectangle, with rotation*
0 The origin of the aperture is its center*
0 $1 length*
0 $2 width*
0 $3 Rotation angle, in degrees counterclockwise*
0 Add horizontal line*
21,1,$1,$2,0,0,$3*%
G04 Aperture macros list end*
G04 #@! TA.AperFunction,Profile*
%ADD10C,0.050000*%
G04 #@! TD*
%ADD11C,1.701800*%
%ADD12C,3.000000*%
%ADD13C,3.987800*%
%ADD14C,2.286000*%
%ADD15C,5.000000*%
%ADD16C,2.000000*%
%ADD17RotRect,1.600000X1.600000X45.000000*%
%ADD18C,1.600000*%
%ADD19C,1.524000*%
G04 APERTURE END LIST*
D10*
X59436000Y-154686000D02*
X59436000Y-78486000D01*
X59436000Y-154686000D02*
G75*
G03*
X61722000Y-156972000I2286000J0D01*
G01*
X134962250Y-76200000D02*
X131178300Y-76200000D01*
X134962250Y-76200047D02*
G75*
G03*
X136434319Y-75070441I-50J1524047D01*
G01*
X60960000Y-76200000D02*
G75*
G03*
X59436000Y-77724000I0J-1524000D01*
G01*
X61722000Y-76200000D02*
X131178300Y-76200000D01*
X61722000Y-76200000D02*
X60960000Y-76200000D01*
X252222000Y-156972000D02*
X61722000Y-156972000D01*
X254507993Y-79667100D02*
G75*
G03*
X253365350Y-78179844I-1523993J11700D01*
G01*
X252222000Y-156972000D02*
G75*
G03*
X254508000Y-154686000I0J2286000D01*
G01*
X59436000Y-77724000D02*
X59436000Y-78486000D01*
X145016441Y-49147744D02*
X151738470Y-50953142D01*
X145016443Y-49147735D02*
G75*
G03*
X143149931Y-50225373I-394443J-1472065D01*
G01*
X254507999Y-79667100D02*
X254508000Y-154686000D01*
X151738470Y-50953142D02*
X253365350Y-78179844D01*
X143149931Y-50225373D02*
X136434319Y-75070441D01*
D11*
X218147000Y-145161000D03*
X218567000Y-145161000D03*
D12*
X218647000Y-148911000D03*
X223647000Y-151111000D03*
D11*
X228727000Y-145161000D03*
X229147000Y-145161000D03*
D13*
X223647000Y-145161000D03*
D14*
X226187000Y-140081000D03*
X219837000Y-142621000D03*
D11*
X229147001Y-107061000D03*
D12*
X218647001Y-110811000D03*
D11*
X228727001Y-107061000D03*
X218147001Y-107061000D03*
X218567001Y-107061000D03*
D13*
X223647001Y-107061000D03*
D12*
X223647001Y-113011000D03*
D14*
X226187001Y-101981000D03*
X219837001Y-104521000D03*
D12*
X142447000Y-110811000D03*
X147447000Y-113011000D03*
D11*
X142367000Y-107061000D03*
X152527000Y-107061000D03*
X141947000Y-107061000D03*
D13*
X147447000Y-107061000D03*
D11*
X152947000Y-107061000D03*
D14*
X149987000Y-101981000D03*
X143637000Y-104521000D03*
D12*
X242697000Y-151111000D03*
D11*
X237197000Y-145161000D03*
X247777000Y-145161000D03*
X237617000Y-145161000D03*
X248197000Y-145161000D03*
D12*
X237697000Y-148911000D03*
D13*
X242697000Y-145161000D03*
D14*
X245237000Y-140081000D03*
X238887000Y-142621000D03*
D12*
X128397000Y-93961000D03*
X123397000Y-91761000D03*
D13*
X128397000Y-88011000D03*
D11*
X133897000Y-88011000D03*
X123317000Y-88011000D03*
X133477000Y-88011000D03*
X122897000Y-88011000D03*
D14*
X130937000Y-82931000D03*
X124587000Y-85471000D03*
D12*
X128397000Y-132061000D03*
X123397000Y-129861000D03*
D11*
X123317000Y-126111000D03*
X133477000Y-126111000D03*
X122897000Y-126111000D03*
D13*
X128397000Y-126111000D03*
D11*
X133897000Y-126111000D03*
D14*
X130937000Y-121031000D03*
X124587000Y-123571000D03*
D15*
X188214000Y-74676000D03*
D11*
X122897000Y-145161000D03*
X133477000Y-145161000D03*
X123317000Y-145161000D03*
X133897000Y-145161000D03*
D13*
X128397000Y-145161000D03*
D12*
X128397000Y-151111000D03*
X123397000Y-148911000D03*
D14*
X130937000Y-140081000D03*
X124587000Y-142621000D03*
D12*
X185547000Y-93961000D03*
X180547000Y-91761000D03*
D11*
X180047000Y-88011000D03*
X190627000Y-88011000D03*
X191047000Y-88011000D03*
D13*
X185547000Y-88011000D03*
D11*
X180467000Y-88011000D03*
D14*
X188087000Y-82931000D03*
X181737000Y-85471000D03*
D11*
X190627000Y-107061000D03*
X180047000Y-107061000D03*
D12*
X185547000Y-113011000D03*
D11*
X191047000Y-107061000D03*
D13*
X185547000Y-107061000D03*
D11*
X180467000Y-107061000D03*
D12*
X180547000Y-110811000D03*
D14*
X188087000Y-101981000D03*
X181737000Y-104521000D03*
D12*
X199597000Y-91761000D03*
D11*
X199097000Y-88011000D03*
D13*
X204597000Y-88011000D03*
D11*
X209677000Y-88011000D03*
D12*
X204597000Y-93961000D03*
D11*
X199517000Y-88011000D03*
X210097000Y-88011000D03*
D14*
X207137000Y-82931000D03*
X200787000Y-85471000D03*
D13*
X147447000Y-126111000D03*
D12*
X147447000Y-132061000D03*
D11*
X152947000Y-126111000D03*
D12*
X142447000Y-129861000D03*
D11*
X141947000Y-126111000D03*
X142367000Y-126111000D03*
X152527000Y-126111000D03*
D14*
X149987000Y-121031000D03*
X143637000Y-123571000D03*
D11*
X104267001Y-107061000D03*
X114427001Y-107061000D03*
X103847001Y-107061000D03*
D12*
X109347001Y-113011000D03*
D11*
X114847001Y-107061000D03*
D13*
X109347001Y-107061000D03*
D12*
X104347001Y-110811000D03*
D14*
X111887001Y-101981000D03*
X105537001Y-104521000D03*
D11*
X237617000Y-126111000D03*
D12*
X237697000Y-129861000D03*
D13*
X242697000Y-126111000D03*
D11*
X247777000Y-126111000D03*
X237197000Y-126111000D03*
D12*
X242697000Y-132061000D03*
D11*
X248197000Y-126111000D03*
D14*
X245237000Y-121031000D03*
X238887000Y-123571000D03*
D12*
X85297000Y-129861001D03*
D11*
X95377000Y-126111001D03*
D13*
X90297000Y-126111001D03*
D11*
X85217000Y-126111001D03*
X84797000Y-126111001D03*
X95797000Y-126111001D03*
D12*
X90297000Y-132061001D03*
D14*
X92837000Y-121031001D03*
X86487000Y-123571001D03*
D12*
X104347000Y-148911000D03*
D13*
X109347000Y-145161000D03*
D12*
X109347000Y-151111000D03*
D11*
X114427000Y-145161000D03*
X114847000Y-145161000D03*
X104267000Y-145161000D03*
X103847000Y-145161000D03*
D14*
X111887000Y-140081000D03*
X105537000Y-142621000D03*
D11*
X104267000Y-88011000D03*
D12*
X109347000Y-93961000D03*
D11*
X103847000Y-88011000D03*
X114847000Y-88011000D03*
X114427000Y-88011000D03*
D12*
X104347000Y-91761000D03*
D13*
X109347000Y-88011000D03*
D14*
X111887000Y-82931000D03*
X105537000Y-85471000D03*
D11*
X95797000Y-145161000D03*
D13*
X90297000Y-145161000D03*
D12*
X90297000Y-151111000D03*
X85297000Y-148911000D03*
D11*
X84797000Y-145161000D03*
X85217000Y-145161000D03*
X95377000Y-145161000D03*
D14*
X92837000Y-140081000D03*
X86487000Y-142621000D03*
D15*
X214122000Y-97536000D03*
D12*
X237697000Y-91761000D03*
D11*
X247777000Y-88011000D03*
D13*
X242697000Y-88011000D03*
D11*
X237197000Y-88011000D03*
D12*
X242697000Y-93961000D03*
D11*
X248197000Y-88011000D03*
X237617000Y-88011000D03*
D14*
X245237000Y-82931000D03*
X238887000Y-85471000D03*
D11*
X171577000Y-126111000D03*
X171997000Y-126111000D03*
D12*
X166497000Y-132061000D03*
X161497000Y-129861000D03*
D13*
X166497000Y-126111000D03*
D11*
X160997000Y-126111000D03*
X161417000Y-126111000D03*
D14*
X169037000Y-121031000D03*
X162687000Y-123571000D03*
D12*
X142447000Y-91761000D03*
D13*
X147447000Y-88011000D03*
D11*
X152947000Y-88011000D03*
X142367000Y-88011000D03*
X141947000Y-88011000D03*
D12*
X147447000Y-93961000D03*
D11*
X152527000Y-88011000D03*
D14*
X149987000Y-82931000D03*
X143637000Y-85471000D03*
D11*
X142367000Y-145161000D03*
X152527000Y-145161000D03*
D12*
X147447000Y-151111000D03*
X142447000Y-148911000D03*
D11*
X152947000Y-145161000D03*
X141947000Y-145161000D03*
D13*
X147447000Y-145161000D03*
D14*
X149987000Y-140081000D03*
X143637000Y-142621000D03*
D11*
X95376999Y-107061000D03*
D12*
X90296999Y-113011000D03*
X85296999Y-110811000D03*
D11*
X95796999Y-107061000D03*
X84796999Y-107061000D03*
D13*
X90296999Y-107061000D03*
D11*
X85216999Y-107061000D03*
D14*
X92836999Y-101981000D03*
X86486999Y-104521000D03*
D15*
X214122000Y-135636000D03*
D11*
X161417000Y-145161000D03*
D13*
X166497000Y-145161000D03*
D11*
X171997000Y-145161000D03*
X160997000Y-145161000D03*
X171577000Y-145161000D03*
D12*
X166497000Y-151111000D03*
X161497000Y-148911000D03*
D14*
X169037000Y-140081000D03*
X162687000Y-142621000D03*
D12*
X180547000Y-148911000D03*
D11*
X191047000Y-145161000D03*
X180047000Y-145161000D03*
X180467000Y-145161000D03*
D12*
X185547000Y-151111000D03*
D11*
X190627000Y-145161000D03*
D13*
X185547000Y-145161000D03*
D14*
X188087000Y-140081000D03*
X181737000Y-142621000D03*
D13*
X128397000Y-107061000D03*
D11*
X122897000Y-107061000D03*
X133897000Y-107061000D03*
X123317000Y-107061000D03*
D12*
X123397000Y-110811000D03*
D11*
X133477000Y-107061000D03*
D12*
X128397000Y-113011000D03*
D14*
X130937000Y-101981000D03*
X124587000Y-104521000D03*
D11*
X95377000Y-88011000D03*
D13*
X90297000Y-88011000D03*
D11*
X85217000Y-88011000D03*
X95797000Y-88011000D03*
X84797000Y-88011000D03*
D12*
X85297000Y-91761000D03*
X90297000Y-93961000D03*
D14*
X92837000Y-82931000D03*
X86487000Y-85471000D03*
D11*
X199097000Y-145161000D03*
D12*
X199597000Y-148911000D03*
D13*
X204597000Y-145161000D03*
D11*
X199517000Y-145161000D03*
D12*
X204597000Y-151111000D03*
D11*
X210097000Y-145161000D03*
X209677000Y-145161000D03*
D14*
X207137000Y-140081000D03*
X200787000Y-142621000D03*
D11*
X237617000Y-107061000D03*
X247777000Y-107061000D03*
D12*
X242697000Y-113011000D03*
D13*
X242697000Y-107061000D03*
D11*
X248197000Y-107061000D03*
X237197000Y-107061000D03*
D12*
X237697000Y-110811000D03*
D14*
X245237000Y-101981000D03*
X238887000Y-104521000D03*
D13*
X166497000Y-107061000D03*
D12*
X161497000Y-110811000D03*
D11*
X171577000Y-107061000D03*
X160997000Y-107061000D03*
X171997000Y-107061000D03*
X161417000Y-107061000D03*
D12*
X166497000Y-113011000D03*
D14*
X169037000Y-101981000D03*
X162687000Y-104521000D03*
D12*
X161497000Y-91761000D03*
D11*
X161417000Y-88011000D03*
X171997000Y-88011000D03*
D13*
X166497000Y-88011000D03*
D11*
X160997000Y-88011000D03*
X171577000Y-88011000D03*
D12*
X166497000Y-93961000D03*
D14*
X169037000Y-82931000D03*
X162687000Y-85471000D03*
D11*
X199097000Y-126111001D03*
D12*
X204597000Y-132061001D03*
X199597000Y-129861001D03*
D11*
X209677000Y-126111001D03*
X210097000Y-126111001D03*
X199517000Y-126111001D03*
D13*
X204597000Y-126111001D03*
D14*
X207137000Y-121031001D03*
X200787000Y-123571001D03*
D12*
X109347000Y-132061001D03*
D11*
X104267000Y-126111001D03*
X114427000Y-126111001D03*
X114847000Y-126111001D03*
X103847000Y-126111001D03*
D13*
X109347000Y-126111001D03*
D12*
X104347000Y-129861001D03*
D14*
X111887000Y-121031001D03*
X105537000Y-123571001D03*
D11*
X228727000Y-126111001D03*
X218567000Y-126111001D03*
D13*
X223647000Y-126111001D03*
D11*
X229147000Y-126111001D03*
D12*
X218647000Y-129861001D03*
X223647000Y-132061001D03*
D11*
X218147000Y-126111001D03*
D14*
X226187000Y-121031001D03*
X219837000Y-123571001D03*
D15*
X156972000Y-116586000D03*
D12*
X66247000Y-148911000D03*
D11*
X66167000Y-145161000D03*
X76327000Y-145161000D03*
X76747000Y-145161000D03*
D12*
X71247000Y-151111000D03*
D11*
X65747000Y-145161000D03*
D13*
X71247000Y-145161000D03*
D14*
X73787000Y-140081000D03*
X67437000Y-142621000D03*
D11*
X228727000Y-88011000D03*
D13*
X223647000Y-88011000D03*
D12*
X223647000Y-93961000D03*
D11*
X229147000Y-88011000D03*
X218567000Y-88011000D03*
X218147000Y-88011000D03*
D12*
X218647000Y-91761000D03*
D14*
X226187000Y-82931000D03*
X219837000Y-85471000D03*
D11*
X76327000Y-88011000D03*
D12*
X66247000Y-91761000D03*
D13*
X71247000Y-88011000D03*
D11*
X66167000Y-88011000D03*
X76747000Y-88011000D03*
X65747000Y-88011000D03*
D12*
X71247000Y-93961000D03*
D14*
X73787000Y-82931000D03*
X67437000Y-85471000D03*
D11*
X210096999Y-107061000D03*
X209676999Y-107061000D03*
D12*
X204596999Y-113011000D03*
D11*
X199516999Y-107061000D03*
D13*
X204596999Y-107061000D03*
D11*
X199096999Y-107061000D03*
D12*
X199596999Y-110811000D03*
D14*
X207136999Y-101981000D03*
X200786999Y-104521000D03*
D15*
X99822000Y-97536000D03*
D12*
X180547000Y-129861000D03*
D11*
X191047000Y-126111000D03*
X180047000Y-126111000D03*
D13*
X185547000Y-126111000D03*
D12*
X185547000Y-132061000D03*
D11*
X190627000Y-126111000D03*
X180467000Y-126111000D03*
D14*
X188087000Y-121031000D03*
X181737000Y-123571000D03*
D12*
X66247000Y-129861000D03*
D13*
X71247000Y-126111000D03*
D11*
X65747000Y-126111000D03*
D12*
X71247000Y-132061000D03*
D11*
X76327000Y-126111000D03*
X66167000Y-126111000D03*
X76747000Y-126111000D03*
D14*
X73787000Y-121031000D03*
X67437000Y-123571000D03*
D11*
X65747000Y-107061000D03*
D12*
X66247000Y-110811000D03*
D11*
X66167000Y-107061000D03*
X76327000Y-107061000D03*
X76747000Y-107061000D03*
D13*
X71247000Y-107061000D03*
D12*
X71247000Y-113011000D03*
D14*
X73787000Y-101981000D03*
X67437000Y-104521000D03*
D16*
X184964000Y-70068000D03*
X191464000Y-70068000D03*
X184964000Y-65568000D03*
X191464000Y-65568000D03*
D15*
X99822000Y-135636000D03*
D17*
X159649284Y-104498716D03*
D18*
X165164716Y-98983284D03*
D17*
X235849284Y-85448715D03*
D18*
X241364716Y-79933283D03*
D17*
X197749284Y-123548715D03*
D18*
X203264716Y-118033283D03*
D17*
X64399284Y-123548715D03*
D18*
X69914716Y-118033283D03*
D17*
X159649283Y-85448715D03*
D18*
X165164715Y-79933283D03*
D17*
X64399284Y-104498716D03*
D18*
X69914716Y-98983284D03*
D17*
X216799284Y-104498715D03*
D18*
X222314716Y-98983283D03*
D17*
X140599284Y-104498715D03*
D18*
X146114716Y-98983283D03*
D17*
X235849284Y-104498715D03*
D18*
X241364716Y-98983283D03*
D17*
X121549284Y-123548715D03*
D18*
X127064716Y-118033283D03*
D17*
X83449285Y-85448715D03*
D18*
X88964717Y-79933283D03*
D17*
X178699284Y-104498716D03*
D18*
X184214716Y-98983284D03*
D17*
X121549284Y-85448715D03*
D18*
X127064716Y-79933283D03*
D17*
X102499284Y-85448715D03*
D18*
X108014716Y-79933283D03*
D17*
X102499284Y-104498715D03*
D18*
X108014716Y-98983283D03*
D17*
X121549284Y-104498715D03*
D18*
X127064716Y-98983283D03*
D17*
X235849284Y-142598716D03*
D18*
X241364716Y-137083284D03*
D17*
X83449284Y-104498716D03*
D18*
X88964716Y-98983284D03*
D17*
X216799283Y-123548715D03*
D18*
X222314715Y-118033283D03*
D17*
X197749284Y-104498716D03*
D18*
X203264716Y-98983284D03*
D17*
X121549284Y-142598716D03*
D18*
X127064716Y-137083284D03*
D17*
X197749284Y-142598715D03*
D18*
X203264716Y-137083283D03*
D17*
X83449284Y-123548715D03*
D18*
X88964716Y-118033283D03*
D17*
X159649284Y-123548715D03*
D18*
X165164716Y-118033283D03*
D17*
X102499284Y-142598715D03*
D18*
X108014716Y-137083283D03*
D17*
X235849284Y-123548715D03*
D18*
X241364716Y-118033283D03*
D17*
X216799284Y-85448715D03*
D18*
X222314716Y-79933283D03*
D17*
X159649284Y-142598715D03*
D18*
X165164716Y-137083283D03*
D17*
X140599284Y-123548715D03*
D18*
X146114716Y-118033283D03*
D17*
X216799283Y-142598715D03*
D18*
X222314715Y-137083283D03*
D17*
X102499284Y-123548715D03*
D18*
X108014716Y-118033283D03*
D17*
X178699284Y-142598715D03*
D18*
X184214716Y-137083283D03*
D17*
X140599284Y-85448715D03*
D18*
X146114716Y-79933283D03*
D17*
X178699284Y-123548715D03*
D18*
X184214716Y-118033283D03*
D17*
X178699284Y-85448716D03*
D18*
X184214716Y-79933284D03*
D17*
X64399284Y-142598715D03*
D18*
X69914716Y-137083283D03*
D17*
X197749284Y-85448715D03*
D18*
X203264716Y-79933283D03*
D17*
X140599284Y-142598715D03*
D18*
X146114716Y-137083283D03*
D17*
X64399283Y-85448715D03*
D18*
X69914715Y-79933283D03*
D17*
X83449284Y-142598715D03*
D18*
X88964716Y-137083283D03*
D19*
X146435236Y-52757397D03*
X148888688Y-53414797D03*
X151342139Y-54072199D03*
X153795590Y-54729598D03*
X156249043Y-55386999D03*
X158702494Y-56044399D03*
X161155946Y-56701799D03*
X163609398Y-57359200D03*
X166062850Y-58016600D03*
X168516300Y-58674000D03*
X170969752Y-59331401D03*
X173423204Y-59988801D03*
X169483978Y-74690191D03*
X167030527Y-74032792D03*
X164577075Y-73375390D03*
X162123622Y-72717991D03*
X159670173Y-72060591D03*
X157216720Y-71403190D03*
X154763269Y-70745790D03*
X152309817Y-70088389D03*
X149856365Y-69430989D03*
X147402913Y-68773589D03*
X144949462Y-68116188D03*
X142496012Y-67458788D03*
M02*
