M48
; DRILL file {KiCad 6.0.7-f9a2dced07~116~ubuntu20.04.1} date Thu 22 Sep 2022 07:19:29 PM
; FORMAT={-:-/ absolute / metric / decimal}
; #@! TF.CreationDate,2022-09-22T19:19:29+08:00
; #@! TF.GenerationSoftware,Kicad,Pcbnew,6.0.7-f9a2dced07~116~ubuntu20.04.1
; #@! TF.FileFunction,NonPlated,1,2,NPTH
FMAT,2
METRIC
; #@! TA.AperFunction,NonPlated,NPTH,ComponentDrill
T1C1.702
; #@! TA.AperFunction,NonPlated,NPTH,ComponentDrill
T2C2.200
; #@! TA.AperFunction,NonPlated,NPTH,ComponentDrill
T3C3.000
; #@! TA.AperFunction,NonPlated,NPTH,ComponentDrill
T4C3.988
%
G90
G05
T1
X65.747Y-88.011
X65.747Y-107.061
X65.747Y-126.111
X65.747Y-145.161
X66.167Y-88.011
X66.167Y-107.061
X66.167Y-126.111
X66.167Y-145.161
X76.327Y-88.011
X76.327Y-107.061
X76.327Y-126.111
X76.327Y-145.161
X76.747Y-88.011
X76.747Y-107.061
X76.747Y-126.111
X76.747Y-145.161
X84.797Y-107.061
X84.797Y-88.011
X84.797Y-126.111
X84.797Y-145.161
X85.217Y-107.061
X85.217Y-88.011
X85.217Y-126.111
X85.217Y-145.161
X95.377Y-107.061
X95.377Y-88.011
X95.377Y-126.111
X95.377Y-145.161
X95.797Y-107.061
X95.797Y-88.011
X95.797Y-126.111
X95.797Y-145.161
X103.847Y-88.011
X103.847Y-126.111
X103.847Y-145.161
X103.847Y-107.061
X104.267Y-88.011
X104.267Y-126.111
X104.267Y-145.161
X104.267Y-107.061
X114.427Y-88.011
X114.427Y-126.111
X114.427Y-145.161
X114.427Y-107.061
X114.847Y-88.011
X114.847Y-126.111
X114.847Y-145.161
X114.847Y-107.061
X122.897Y-88.011
X122.897Y-107.061
X122.897Y-126.111
X122.897Y-145.161
X123.317Y-88.011
X123.317Y-107.061
X123.317Y-126.111
X123.317Y-145.161
X133.477Y-88.011
X133.477Y-107.061
X133.477Y-126.111
X133.477Y-145.161
X133.897Y-88.011
X133.897Y-107.061
X133.897Y-126.111
X133.897Y-145.161
X141.947Y-88.011
X141.947Y-107.061
X141.947Y-126.111
X141.947Y-145.161
X142.367Y-88.011
X142.367Y-107.061
X142.367Y-126.111
X142.367Y-145.161
X152.527Y-88.011
X152.527Y-107.061
X152.527Y-126.111
X152.527Y-145.161
X152.947Y-88.011
X152.947Y-107.061
X152.947Y-126.111
X152.947Y-145.161
X160.997Y-88.011
X160.997Y-107.061
X160.997Y-126.111
X160.997Y-145.161
X161.417Y-88.011
X161.417Y-107.061
X161.417Y-126.111
X161.417Y-145.161
X171.577Y-88.011
X171.577Y-107.061
X171.577Y-126.111
X171.577Y-145.161
X171.997Y-88.011
X171.997Y-107.061
X171.997Y-126.111
X171.997Y-145.161
X180.047Y-88.011
X180.047Y-107.061
X180.047Y-126.111
X180.047Y-145.161
X180.467Y-88.011
X180.467Y-107.061
X180.467Y-126.111
X180.467Y-145.161
X190.627Y-88.011
X190.627Y-107.061
X190.627Y-126.111
X190.627Y-145.161
X191.047Y-88.011
X191.047Y-107.061
X191.047Y-126.111
X191.047Y-145.161
X199.097Y-107.061
X199.097Y-88.011
X199.097Y-126.111
X199.097Y-145.161
X199.517Y-107.061
X199.517Y-88.011
X199.517Y-126.111
X199.517Y-145.161
X209.677Y-107.061
X209.677Y-88.011
X209.677Y-126.111
X209.677Y-145.161
X210.097Y-107.061
X210.097Y-88.011
X210.097Y-126.111
X210.097Y-145.161
X218.147Y-88.011
X218.147Y-126.111
X218.147Y-145.161
X218.147Y-107.061
X218.567Y-88.011
X218.567Y-126.111
X218.567Y-145.161
X218.567Y-107.061
X228.727Y-88.011
X228.727Y-126.111
X228.727Y-145.161
X228.727Y-107.061
X229.147Y-88.011
X229.147Y-126.111
X229.147Y-145.161
X229.147Y-107.061
X237.197Y-88.011
X237.197Y-107.061
X237.197Y-126.111
X237.197Y-145.161
X237.617Y-88.011
X237.617Y-107.061
X237.617Y-126.111
X237.617Y-145.161
X247.777Y-88.011
X247.777Y-107.061
X247.777Y-126.111
X247.777Y-145.161
X248.197Y-88.011
X248.197Y-107.061
X248.197Y-126.111
X248.197Y-145.161
T2
X99.822Y-97.536
X99.822Y-135.636
X156.972Y-116.586
X188.214Y-74.676
X214.122Y-97.536
X214.122Y-135.636
T3
X66.247Y-91.761
X66.247Y-110.811
X66.247Y-129.861
X66.247Y-148.911
X71.247Y-93.961
X71.247Y-113.011
X71.247Y-132.061
X71.247Y-151.111
X85.297Y-110.811
X85.297Y-91.761
X85.297Y-129.861
X85.297Y-148.911
X90.297Y-113.011
X90.297Y-93.961
X90.297Y-132.061
X90.297Y-151.111
X104.347Y-91.761
X104.347Y-129.861
X104.347Y-148.911
X104.347Y-110.811
X109.347Y-93.961
X109.347Y-132.061
X109.347Y-151.111
X109.347Y-113.011
X123.397Y-91.761
X123.397Y-110.811
X123.397Y-129.861
X123.397Y-148.911
X128.397Y-93.961
X128.397Y-113.011
X128.397Y-132.061
X128.397Y-151.111
X142.447Y-91.761
X142.447Y-110.811
X142.447Y-129.861
X142.447Y-148.911
X147.447Y-93.961
X147.447Y-113.011
X147.447Y-132.061
X147.447Y-151.111
X161.497Y-91.761
X161.497Y-110.811
X161.497Y-129.861
X161.497Y-148.911
X166.497Y-93.961
X166.497Y-113.011
X166.497Y-132.061
X166.497Y-151.111
X180.547Y-91.761
X180.547Y-110.811
X180.547Y-129.861
X180.547Y-148.911
X185.547Y-93.961
X185.547Y-113.011
X185.547Y-132.061
X185.547Y-151.111
X199.597Y-110.811
X199.597Y-91.761
X199.597Y-129.861
X199.597Y-148.911
X204.597Y-113.011
X204.597Y-93.961
X204.597Y-132.061
X204.597Y-151.111
X218.647Y-91.761
X218.647Y-129.861
X218.647Y-148.911
X218.647Y-110.811
X223.647Y-93.961
X223.647Y-132.061
X223.647Y-151.111
X223.647Y-113.011
X237.697Y-91.761
X237.697Y-110.811
X237.697Y-129.861
X237.697Y-148.911
X242.697Y-93.961
X242.697Y-113.011
X242.697Y-132.061
X242.697Y-151.111
T4
X71.247Y-88.011
X71.247Y-107.061
X71.247Y-126.111
X71.247Y-145.161
X90.297Y-107.061
X90.297Y-88.011
X90.297Y-126.111
X90.297Y-145.161
X109.347Y-88.011
X109.347Y-126.111
X109.347Y-145.161
X109.347Y-107.061
X128.397Y-88.011
X128.397Y-107.061
X128.397Y-126.111
X128.397Y-145.161
X147.447Y-88.011
X147.447Y-107.061
X147.447Y-126.111
X147.447Y-145.161
X166.497Y-88.011
X166.497Y-107.061
X166.497Y-126.111
X166.497Y-145.161
X185.547Y-88.011
X185.547Y-107.061
X185.547Y-126.111
X185.547Y-145.161
X204.597Y-107.061
X204.597Y-88.011
X204.597Y-126.111
X204.597Y-145.161
X223.647Y-88.011
X223.647Y-126.111
X223.647Y-145.161
X223.647Y-107.061
X242.697Y-88.011
X242.697Y-107.061
X242.697Y-126.111
X242.697Y-145.161
T0
M30
