  0
SECTION
  2
HEADER
  9
$ANGBASE
  50
0.0
  9
$ANGDIR
  70
1
  9
$MEASUREMENT
  70
1
  0
ENDSEC
  0
SECTION
  2
TABLES
  0
TABLE
  2
LTYPE
  70
4
  0
LTYPE
  5
40F
  2
CONTINUOUS
  70
0
  3
Solid line
  72
65
  73
0
  40
0.0
  0
LTYPE
  5
410
  2
DASHDOT
 70
0
  3
Dash Dot ____ _ ____ _
 72
65
 73
4
 40
2.0
 49
1.25
 49
-0.25
 49
0.25
 49
-0.25
  0
LTYPE
  5
411
  2
DASHED
 70
0
  3
Dashed __ __ __ __ __
 72
65
 73
2
 40
0.75
 49
0.5
 49
-0.25
  0
LTYPE
  5
43B
  2
DOTTED
 70
0
  3
Dotted .  .  .  .
 72
65
 73
2
 40
0.2
 49
0.0
 49
-0.2
  0
ENDTAB
  0
TABLE
  2
STYLE
  70
4
  0
STYLE
  2
KICAD
  70
0
  40
0
  41
1
  42
1
  50
0
  71
0
  3
isocp.shx
  0
STYLE
  2
KICADB
  70
0
  40
0
  41
1
  42
1
  50
0
  71
0
  3
isocp.shx
  0
STYLE
  2
KICADI
  70
0
  40
0
  41
1
  42
1
  50
15
  71
0
  3
isocp.shx
  0
STYLE
  2
KICADBI
  70
0
  40
0
  41
1
  42
1
  50
15
  71
0
  3
isocp.shx
  0
ENDTAB
  0
TABLE
  2
LAYER
  70
1
  0
LAYER
  2
BLACK
  70
0
  62
7
  6
CONTINUOUS
  0
ENDTAB
  0
ENDSEC
  0
SECTION
  2
ENTITIES
0
LINE
8
BLACK
6
CONTINUOUS
10
254.543
20
-78.4506
11
254.558
21
-78.486
0
LINE
8
BLACK
6
CONTINUOUS
10
254.558
20
-78.486
11
254.558
21
-154.686
0
LINE
8
BLACK
6
CONTINUOUS
10
254.558
20
-154.686
11
254.543
21
-154.721
0
LINE
8
BLACK
6
CONTINUOUS
10
254.543
20
-154.721
11
252.257
21
-157.007
0
LINE
8
BLACK
6
CONTINUOUS
10
252.257
20
-157.007
11
252.222
21
-157.022
0
LINE
8
BLACK
6
CONTINUOUS
10
252.222
20
-157.022
11
61.722
21
-157.022
0
LINE
8
BLACK
6
CONTINUOUS
10
61.722
20
-157.022
11
61.6866
21
-157.007
0
LINE
8
BLACK
6
CONTINUOUS
10
61.6866
20
-157.007
11
59.4006
21
-154.721
0
LINE
8
BLACK
6
CONTINUOUS
10
59.4006
20
-154.721
11
59.386
21
-154.686
0
LINE
8
BLACK
6
CONTINUOUS
10
59.386
20
-154.686
11
59.386
21
-78.486
0
LINE
8
BLACK
6
CONTINUOUS
10
59.386
20
-78.486
11
59.4006
21
-78.4506
0
LINE
8
BLACK
6
CONTINUOUS
10
59.4006
20
-78.4506
11
61.6866
21
-76.1646
0
LINE
8
BLACK
6
CONTINUOUS
10
61.6866
20
-76.1646
11
61.722
21
-76.15
0
LINE
8
BLACK
6
CONTINUOUS
10
61.722
20
-76.15
11
134.853
21
-76.15
0
LINE
8
BLACK
6
CONTINUOUS
10
134.853
20
-76.15
11
137.11
21
-73.8933
0
LINE
8
BLACK
6
CONTINUOUS
10
137.11
20
-73.8933
11
137.11
21
-57.531
0
LINE
8
BLACK
6
CONTINUOUS
10
137.11
20
-57.531
11
137.125
21
-57.4956
0
LINE
8
BLACK
6
CONTINUOUS
10
137.125
20
-57.4956
11
139.411
21
-55.2096
0
LINE
8
BLACK
6
CONTINUOUS
10
139.411
20
-55.2096
11
139.446
21
-55.195
0
LINE
8
BLACK
6
CONTINUOUS
10
139.446
20
-55.195
11
175.26
21
-55.195
0
LINE
8
BLACK
6
CONTINUOUS
10
175.26
20
-55.195
11
175.295
21
-55.2096
0
LINE
8
BLACK
6
CONTINUOUS
10
175.295
20
-55.2096
11
196.236
21
-76.15
0
LINE
8
BLACK
6
CONTINUOUS
10
196.236
20
-76.15
11
252.222
21
-76.15
0
LINE
8
BLACK
6
CONTINUOUS
10
252.222
20
-76.15
11
252.257
21
-76.1646
0
LINE
8
BLACK
6
CONTINUOUS
10
252.257
20
-76.1646
11
254.543
21
-78.4506
0
LINE
8
BLACK
6
CONTINUOUS
10
59.486
20
-78.5067
11
59.486
21
-154.665
0
LINE
8
BLACK
6
CONTINUOUS
10
59.486
20
-154.665
11
61.7427
21
-156.922
0
LINE
8
BLACK
6
CONTINUOUS
10
61.7427
20
-156.922
11
252.201
21
-156.922
0
LINE
8
BLACK
6
CONTINUOUS
10
252.201
20
-156.922
11
254.458
21
-154.665
0
LINE
8
BLACK
6
CONTINUOUS
10
254.458
20
-154.665
11
254.458
21
-78.5067
0
LINE
8
BLACK
6
CONTINUOUS
10
254.458
20
-78.5067
11
252.201
21
-76.25
0
LINE
8
BLACK
6
CONTINUOUS
10
252.201
20
-76.25
11
196.215
21
-76.25
0
LINE
8
BLACK
6
CONTINUOUS
10
196.215
20
-76.25
11
196.18
21
-76.2354
0
LINE
8
BLACK
6
CONTINUOUS
10
196.18
20
-76.2354
11
175.239
21
-55.295
0
LINE
8
BLACK
6
CONTINUOUS
10
175.239
20
-55.295
11
139.467
21
-55.295
0
LINE
8
BLACK
6
CONTINUOUS
10
139.467
20
-55.295
11
137.21
21
-57.5517
0
LINE
8
BLACK
6
CONTINUOUS
10
137.21
20
-57.5517
11
137.21
21
-73.914
0
LINE
8
BLACK
6
CONTINUOUS
10
137.21
20
-73.914
11
137.195
21
-73.9494
0
LINE
8
BLACK
6
CONTINUOUS
10
137.195
20
-73.9494
11
134.909
21
-76.2354
0
LINE
8
BLACK
6
CONTINUOUS
10
134.909
20
-76.2354
11
134.874
21
-76.25
0
LINE
8
BLACK
6
CONTINUOUS
10
134.874
20
-76.25
11
61.7427
21
-76.25
0
LINE
8
BLACK
6
CONTINUOUS
10
61.7427
20
-76.25
11
59.486
21
-78.5067
  0
ENDSEC
  0
EOF
