G04 #@! TF.GenerationSoftware,KiCad,Pcbnew,6.0.7-f9a2dced07~116~ubuntu20.04.1*
G04 #@! TF.CreationDate,2022-09-18T13:16:26+08:00*
G04 #@! TF.ProjectId,keyboard v3,6b657962-6f61-4726-9420-76332e6b6963,rev?*
G04 #@! TF.SameCoordinates,Original*
G04 #@! TF.FileFunction,Legend,Top*
G04 #@! TF.FilePolarity,Positive*
%FSLAX46Y46*%
G04 Gerber Fmt 4.6, Leading zero omitted, Abs format (unit mm)*
G04 Created by KiCad (PCBNEW 6.0.7-f9a2dced07~116~ubuntu20.04.1) date 2022-09-18 13:16:26*
%MOMM*%
%LPD*%
G01*
G04 APERTURE LIST*
G04 Aperture macros list*
%AMRotRect*
0 Rectangle, with rotation*
0 The origin of the aperture is its center*
0 $1 length*
0 $2 width*
0 $3 Rotation angle, in degrees counterclockwise*
0 Add horizontal line*
21,1,$1,$2,0,0,$3*%
G04 Aperture macros list end*
%ADD10C,0.200000*%
%ADD11C,0.150000*%
%ADD12C,0.120000*%
%ADD13RotRect,1.600000X1.600000X45.000000*%
%ADD14C,1.600000*%
%ADD15C,1.701800*%
%ADD16C,3.000000*%
%ADD17C,3.987800*%
%ADD18C,2.286000*%
%ADD19C,5.000000*%
%ADD20C,2.000000*%
G04 APERTURE END LIST*
D10*
X223077142Y-53952857D02*
X223291428Y-54024285D01*
X223362857Y-54095714D01*
X223434285Y-54238571D01*
X223434285Y-54452857D01*
X223362857Y-54595714D01*
X223291428Y-54667142D01*
X223148571Y-54738571D01*
X222577142Y-54738571D01*
X222577142Y-53238571D01*
X223077142Y-53238571D01*
X223220000Y-53310000D01*
X223291428Y-53381428D01*
X223362857Y-53524285D01*
X223362857Y-53667142D01*
X223291428Y-53810000D01*
X223220000Y-53881428D01*
X223077142Y-53952857D01*
X222577142Y-53952857D01*
X223934285Y-53738571D02*
X224291428Y-54738571D01*
X224648571Y-53738571D02*
X224291428Y-54738571D01*
X224148571Y-55095714D01*
X224077142Y-55167142D01*
X223934285Y-55238571D01*
X225220000Y-54595714D02*
X225291428Y-54667142D01*
X225220000Y-54738571D01*
X225148571Y-54667142D01*
X225220000Y-54595714D01*
X225220000Y-54738571D01*
X225220000Y-53810000D02*
X225291428Y-53881428D01*
X225220000Y-53952857D01*
X225148571Y-53881428D01*
X225220000Y-53810000D01*
X225220000Y-53952857D01*
X227505714Y-53238571D02*
X227505714Y-54310000D01*
X227434285Y-54524285D01*
X227291428Y-54667142D01*
X227077142Y-54738571D01*
X226934285Y-54738571D01*
X228791428Y-54667142D02*
X228648571Y-54738571D01*
X228362857Y-54738571D01*
X228220000Y-54667142D01*
X228148571Y-54524285D01*
X228148571Y-53952857D01*
X228220000Y-53810000D01*
X228362857Y-53738571D01*
X228648571Y-53738571D01*
X228791428Y-53810000D01*
X228862857Y-53952857D01*
X228862857Y-54095714D01*
X228148571Y-54238571D01*
X229505714Y-54738571D02*
X229505714Y-53738571D01*
X229505714Y-54024285D02*
X229577142Y-53881428D01*
X229648571Y-53810000D01*
X229791428Y-53738571D01*
X229934285Y-53738571D01*
X231220000Y-54738571D02*
X230362857Y-54738571D01*
X230791428Y-54738571D02*
X230791428Y-53238571D01*
X230648571Y-53452857D01*
X230505714Y-53595714D01*
X230362857Y-53667142D01*
X231791428Y-53381428D02*
X231862857Y-53310000D01*
X232005714Y-53238571D01*
X232362857Y-53238571D01*
X232505714Y-53310000D01*
X232577142Y-53381428D01*
X232648571Y-53524285D01*
X232648571Y-53667142D01*
X232577142Y-53881428D01*
X231720000Y-54738571D01*
X232648571Y-54738571D01*
X233148571Y-53238571D02*
X234077142Y-53238571D01*
X233577142Y-53810000D01*
X233791428Y-53810000D01*
X233934285Y-53881428D01*
X234005714Y-53952857D01*
X234077142Y-54095714D01*
X234077142Y-54452857D01*
X234005714Y-54595714D01*
X233934285Y-54667142D01*
X233791428Y-54738571D01*
X233362857Y-54738571D01*
X233220000Y-54667142D01*
X233148571Y-54595714D01*
X234648571Y-54667142D02*
X234791428Y-54738571D01*
X235077142Y-54738571D01*
X235220000Y-54667142D01*
X235291428Y-54524285D01*
X235291428Y-54452857D01*
X235220000Y-54310000D01*
X235077142Y-54238571D01*
X234862857Y-54238571D01*
X234720000Y-54167142D01*
X234648571Y-54024285D01*
X234648571Y-53952857D01*
X234720000Y-53810000D01*
X234862857Y-53738571D01*
X235077142Y-53738571D01*
X235220000Y-53810000D01*
X236505714Y-54667142D02*
X236362857Y-54738571D01*
X236077142Y-54738571D01*
X235934285Y-54667142D01*
X235862857Y-54524285D01*
X235862857Y-53952857D01*
X235934285Y-53810000D01*
X236077142Y-53738571D01*
X236362857Y-53738571D01*
X236505714Y-53810000D01*
X236577142Y-53952857D01*
X236577142Y-54095714D01*
X235862857Y-54238571D01*
X238005714Y-54738571D02*
X237148571Y-54738571D01*
X237577142Y-54738571D02*
X237577142Y-53238571D01*
X237434285Y-53452857D01*
X237291428Y-53595714D01*
X237148571Y-53667142D01*
X238577142Y-53381428D02*
X238648571Y-53310000D01*
X238791428Y-53238571D01*
X239148571Y-53238571D01*
X239291428Y-53310000D01*
X239362857Y-53381428D01*
X239434285Y-53524285D01*
X239434285Y-53667142D01*
X239362857Y-53881428D01*
X238505714Y-54738571D01*
X239434285Y-54738571D01*
D11*
X211513035Y-52094761D02*
X211763035Y-50094761D01*
X212251130Y-51523333D01*
X213096369Y-50094761D01*
X212846369Y-52094761D01*
X213798750Y-52094761D02*
X213965416Y-50761428D01*
X214048750Y-50094761D02*
X213941607Y-50190000D01*
X214024940Y-50285238D01*
X214132083Y-50190000D01*
X214048750Y-50094761D01*
X214024940Y-50285238D01*
X214917797Y-50761428D02*
X214751130Y-52094761D01*
X214893988Y-50951904D02*
X215001130Y-50856666D01*
X215203511Y-50761428D01*
X215489226Y-50761428D01*
X215667797Y-50856666D01*
X215739226Y-51047142D01*
X215608273Y-52094761D01*
X216727321Y-50761428D02*
X216560654Y-52094761D01*
X216703511Y-50951904D02*
X216810654Y-50856666D01*
X217013035Y-50761428D01*
X217298750Y-50761428D01*
X217477321Y-50856666D01*
X217548750Y-51047142D01*
X217417797Y-52094761D01*
X218370178Y-52094761D02*
X218536845Y-50761428D01*
X218620178Y-50094761D02*
X218513035Y-50190000D01*
X218596369Y-50285238D01*
X218703511Y-50190000D01*
X218620178Y-50094761D01*
X218596369Y-50285238D01*
X220846369Y-52094761D02*
X221096369Y-50094761D01*
X221989226Y-52094761D02*
X221274940Y-50951904D01*
X222239226Y-50094761D02*
X220953511Y-51237619D01*
X223620178Y-51999523D02*
X223417797Y-52094761D01*
X223036845Y-52094761D01*
X222858273Y-51999523D01*
X222786845Y-51809047D01*
X222882083Y-51047142D01*
X223001130Y-50856666D01*
X223203511Y-50761428D01*
X223584464Y-50761428D01*
X223763035Y-50856666D01*
X223834464Y-51047142D01*
X223810654Y-51237619D01*
X222834464Y-51428095D01*
X224536845Y-50761428D02*
X224846369Y-52094761D01*
X225489226Y-50761428D02*
X224846369Y-52094761D01*
X224596369Y-52570952D01*
X224489226Y-52666190D01*
X224286845Y-52761428D01*
X226084464Y-52094761D02*
X226334464Y-50094761D01*
X226239226Y-50856666D02*
X226441607Y-50761428D01*
X226822559Y-50761428D01*
X227001130Y-50856666D01*
X227084464Y-50951904D01*
X227155892Y-51142380D01*
X227084464Y-51713809D01*
X226965416Y-51904285D01*
X226858273Y-51999523D01*
X226655892Y-52094761D01*
X226274940Y-52094761D01*
X226096369Y-51999523D01*
X228179702Y-52094761D02*
X228001130Y-51999523D01*
X227917797Y-51904285D01*
X227846369Y-51713809D01*
X227917797Y-51142380D01*
X228036845Y-50951904D01*
X228143988Y-50856666D01*
X228346369Y-50761428D01*
X228632083Y-50761428D01*
X228810654Y-50856666D01*
X228893988Y-50951904D01*
X228965416Y-51142380D01*
X228893988Y-51713809D01*
X228774940Y-51904285D01*
X228667797Y-51999523D01*
X228465416Y-52094761D01*
X228179702Y-52094761D01*
X230560654Y-52094761D02*
X230691607Y-51047142D01*
X230620178Y-50856666D01*
X230441607Y-50761428D01*
X230060654Y-50761428D01*
X229858273Y-50856666D01*
X230572559Y-51999523D02*
X230370178Y-52094761D01*
X229893988Y-52094761D01*
X229715416Y-51999523D01*
X229643988Y-51809047D01*
X229667797Y-51618571D01*
X229786845Y-51428095D01*
X229989226Y-51332857D01*
X230465416Y-51332857D01*
X230667797Y-51237619D01*
X231513035Y-52094761D02*
X231679702Y-50761428D01*
X231632083Y-51142380D02*
X231751130Y-50951904D01*
X231858273Y-50856666D01*
X232060654Y-50761428D01*
X232251130Y-50761428D01*
X233608273Y-52094761D02*
X233858273Y-50094761D01*
X233620178Y-51999523D02*
X233417797Y-52094761D01*
X233036845Y-52094761D01*
X232858273Y-51999523D01*
X232774940Y-51904285D01*
X232703511Y-51713809D01*
X232774940Y-51142380D01*
X232893988Y-50951904D01*
X233001130Y-50856666D01*
X233203511Y-50761428D01*
X233584464Y-50761428D01*
X233763035Y-50856666D01*
X116856639Y-62873435D02*
X116290954Y-62307749D01*
X116425641Y-62173062D01*
X116533390Y-62119187D01*
X116641140Y-62119187D01*
X116721952Y-62146125D01*
X116856639Y-62226937D01*
X116937451Y-62307749D01*
X117018264Y-62442436D01*
X117045201Y-62523248D01*
X117045201Y-62630998D01*
X116991326Y-62738748D01*
X116856639Y-62873435D01*
X116802764Y-61795938D02*
X117179888Y-61418815D01*
X117503137Y-62226937D01*
X109113051Y-62873435D02*
X108547366Y-62307749D01*
X108682053Y-62173062D01*
X108789802Y-62119187D01*
X108897552Y-62119187D01*
X108978364Y-62146125D01*
X109113051Y-62226937D01*
X109193863Y-62307749D01*
X109274676Y-62442436D01*
X109301613Y-62523248D01*
X109301613Y-62630998D01*
X109247738Y-62738748D01*
X109113051Y-62873435D01*
X109382425Y-61472690D02*
X109113051Y-61742064D01*
X109355488Y-62038375D01*
X109355488Y-61984500D01*
X109382425Y-61903688D01*
X109517112Y-61769001D01*
X109597924Y-61742064D01*
X109651799Y-61742064D01*
X109732611Y-61769001D01*
X109867298Y-61903688D01*
X109894236Y-61984500D01*
X109894236Y-62038375D01*
X109867298Y-62119187D01*
X109732611Y-62253874D01*
X109651799Y-62280812D01*
X109597924Y-62280812D01*
X213382115Y-63142809D02*
X212816430Y-62577123D01*
X212951117Y-62442436D01*
X213058866Y-62388561D01*
X213166616Y-62388561D01*
X213247428Y-62415499D01*
X213382115Y-62496311D01*
X213462927Y-62577123D01*
X213543739Y-62711810D01*
X213570677Y-62792622D01*
X213570677Y-62900372D01*
X213516802Y-63008122D01*
X213382115Y-63142809D01*
X213328240Y-62065312D02*
X213678426Y-61715126D01*
X213705364Y-62119187D01*
X213786176Y-62038375D01*
X213866988Y-62011438D01*
X213920863Y-62011438D01*
X214001675Y-62038375D01*
X214136362Y-62173062D01*
X214163300Y-62253874D01*
X214163300Y-62307749D01*
X214136362Y-62388561D01*
X213974738Y-62550186D01*
X213893926Y-62577123D01*
X213840051Y-62577123D01*
X213947801Y-61553502D02*
X213947801Y-61499627D01*
X213974738Y-61418815D01*
X214109425Y-61284128D01*
X214190237Y-61257190D01*
X214244112Y-61257190D01*
X214324924Y-61284128D01*
X214378799Y-61338003D01*
X214432674Y-61445752D01*
X214432674Y-62092250D01*
X214782860Y-61742064D01*
X105241257Y-62873435D02*
X104675572Y-62307749D01*
X104810259Y-62173062D01*
X104918008Y-62119187D01*
X105025758Y-62119187D01*
X105106570Y-62146125D01*
X105241257Y-62226937D01*
X105322069Y-62307749D01*
X105402882Y-62442436D01*
X105429819Y-62523248D01*
X105429819Y-62630998D01*
X105375944Y-62738748D01*
X105241257Y-62873435D01*
X105672256Y-61688189D02*
X106049379Y-62065312D01*
X105322069Y-61607377D02*
X105591443Y-62146125D01*
X105941630Y-61795938D01*
X197894939Y-63142809D02*
X197329254Y-62577123D01*
X197463941Y-62442436D01*
X197571690Y-62388561D01*
X197679440Y-62388561D01*
X197760252Y-62415499D01*
X197894939Y-62496311D01*
X197975751Y-62577123D01*
X198056563Y-62711810D01*
X198083501Y-62792622D01*
X198083501Y-62900372D01*
X198029626Y-63008122D01*
X197894939Y-63142809D01*
X197921876Y-62092250D02*
X197921876Y-62038375D01*
X197948814Y-61957563D01*
X198083501Y-61822876D01*
X198164313Y-61795938D01*
X198218188Y-61795938D01*
X198299000Y-61822876D01*
X198352875Y-61876751D01*
X198406750Y-61984500D01*
X198406750Y-62630998D01*
X198756936Y-62280812D01*
X198756936Y-61634314D02*
X198676124Y-61661251D01*
X198622249Y-61661251D01*
X198541437Y-61634314D01*
X198514499Y-61607377D01*
X198487562Y-61526564D01*
X198487562Y-61472690D01*
X198514499Y-61391877D01*
X198622249Y-61284128D01*
X198703061Y-61257190D01*
X198756936Y-61257190D01*
X198837748Y-61284128D01*
X198864686Y-61311065D01*
X198891623Y-61391877D01*
X198891623Y-61445752D01*
X198864686Y-61526564D01*
X198756936Y-61634314D01*
X198729999Y-61715126D01*
X198729999Y-61769001D01*
X198756936Y-61849813D01*
X198864686Y-61957563D01*
X198945498Y-61984500D01*
X198999373Y-61984500D01*
X199080185Y-61957563D01*
X199187934Y-61849813D01*
X199214872Y-61769001D01*
X199214872Y-61715126D01*
X199187934Y-61634314D01*
X199080185Y-61526564D01*
X198999373Y-61499627D01*
X198945498Y-61499627D01*
X198864686Y-61526564D01*
X143689823Y-63142809D02*
X143124138Y-62577123D01*
X143258825Y-62442436D01*
X143366574Y-62388561D01*
X143474324Y-62388561D01*
X143555136Y-62415499D01*
X143689823Y-62496311D01*
X143770635Y-62577123D01*
X143851447Y-62711810D01*
X143878385Y-62792622D01*
X143878385Y-62900372D01*
X143824510Y-63008122D01*
X143689823Y-63142809D01*
X144551820Y-62280812D02*
X144228571Y-62604061D01*
X144390196Y-62442436D02*
X143824510Y-61876751D01*
X143851447Y-62011438D01*
X143851447Y-62119187D01*
X143824510Y-62200000D01*
X144659570Y-61418815D02*
X145036693Y-61795938D01*
X144309383Y-61338003D02*
X144578757Y-61876751D01*
X144928944Y-61526564D01*
X151433411Y-63142809D02*
X150867726Y-62577123D01*
X151002413Y-62442436D01*
X151110162Y-62388561D01*
X151217912Y-62388561D01*
X151298724Y-62415499D01*
X151433411Y-62496311D01*
X151514223Y-62577123D01*
X151595035Y-62711810D01*
X151621973Y-62792622D01*
X151621973Y-62900372D01*
X151568098Y-63008122D01*
X151433411Y-63142809D01*
X152295408Y-62280812D02*
X151972159Y-62604061D01*
X152133784Y-62442436D02*
X151568098Y-61876751D01*
X151595035Y-62011438D01*
X151595035Y-62119187D01*
X151568098Y-62200000D01*
X152214596Y-61230253D02*
X152106846Y-61338003D01*
X152079909Y-61418815D01*
X152079909Y-61472690D01*
X152106846Y-61607377D01*
X152187658Y-61742064D01*
X152403158Y-61957563D01*
X152483970Y-61984500D01*
X152537845Y-61984500D01*
X152618657Y-61957563D01*
X152726406Y-61849813D01*
X152753344Y-61769001D01*
X152753344Y-61715126D01*
X152726406Y-61634314D01*
X152591719Y-61499627D01*
X152510907Y-61472690D01*
X152457032Y-61472690D01*
X152376220Y-61499627D01*
X152268471Y-61607377D01*
X152241533Y-61688189D01*
X152241533Y-61742064D01*
X152268471Y-61822876D01*
X166920587Y-63142809D02*
X166354902Y-62577123D01*
X166489589Y-62442436D01*
X166597338Y-62388561D01*
X166705088Y-62388561D01*
X166785900Y-62415499D01*
X166920587Y-62496311D01*
X167001399Y-62577123D01*
X167082211Y-62711810D01*
X167109149Y-62792622D01*
X167109149Y-62900372D01*
X167055274Y-63008122D01*
X166920587Y-63142809D01*
X166947524Y-62092250D02*
X166947524Y-62038375D01*
X166974462Y-61957563D01*
X167109149Y-61822876D01*
X167189961Y-61795938D01*
X167243836Y-61795938D01*
X167324648Y-61822876D01*
X167378523Y-61876751D01*
X167432398Y-61984500D01*
X167432398Y-62630998D01*
X167782584Y-62280812D01*
X167567085Y-61364940D02*
X167620960Y-61311065D01*
X167701772Y-61284128D01*
X167755647Y-61284128D01*
X167836459Y-61311065D01*
X167971146Y-61391877D01*
X168105833Y-61526564D01*
X168186645Y-61661251D01*
X168213582Y-61742064D01*
X168213582Y-61795938D01*
X168186645Y-61876751D01*
X168132770Y-61930625D01*
X168051958Y-61957563D01*
X167998083Y-61957563D01*
X167917271Y-61930625D01*
X167782584Y-61849813D01*
X167647897Y-61715126D01*
X167567085Y-61580439D01*
X167540147Y-61499627D01*
X167540147Y-61445752D01*
X167567085Y-61364940D01*
X120728433Y-62873435D02*
X120162748Y-62307749D01*
X120297435Y-62173062D01*
X120405184Y-62119187D01*
X120512934Y-62119187D01*
X120593746Y-62146125D01*
X120728433Y-62226937D01*
X120809245Y-62307749D01*
X120890058Y-62442436D01*
X120916995Y-62523248D01*
X120916995Y-62630998D01*
X120863120Y-62738748D01*
X120728433Y-62873435D01*
X121051682Y-61903688D02*
X120970870Y-61930625D01*
X120916995Y-61930625D01*
X120836183Y-61903688D01*
X120809245Y-61876751D01*
X120782308Y-61795938D01*
X120782308Y-61742064D01*
X120809245Y-61661251D01*
X120916995Y-61553502D01*
X120997807Y-61526564D01*
X121051682Y-61526564D01*
X121132494Y-61553502D01*
X121159432Y-61580439D01*
X121186369Y-61661251D01*
X121186369Y-61715126D01*
X121159432Y-61795938D01*
X121051682Y-61903688D01*
X121024745Y-61984500D01*
X121024745Y-62038375D01*
X121051682Y-62119187D01*
X121159432Y-62226937D01*
X121240244Y-62253874D01*
X121294119Y-62253874D01*
X121374931Y-62226937D01*
X121482680Y-62119187D01*
X121509618Y-62038375D01*
X121509618Y-61984500D01*
X121482680Y-61903688D01*
X121374931Y-61795938D01*
X121294119Y-61769001D01*
X121240244Y-61769001D01*
X121159432Y-61795938D01*
X224997497Y-63142809D02*
X224431812Y-62577123D01*
X224566499Y-62442436D01*
X224674248Y-62388561D01*
X224781998Y-62388561D01*
X224862810Y-62415499D01*
X224997497Y-62496311D01*
X225078309Y-62577123D01*
X225159121Y-62711810D01*
X225186059Y-62792622D01*
X225186059Y-62900372D01*
X225132184Y-63008122D01*
X224997497Y-63142809D01*
X224943622Y-62065312D02*
X225293808Y-61715126D01*
X225320746Y-62119187D01*
X225401558Y-62038375D01*
X225482370Y-62011438D01*
X225536245Y-62011438D01*
X225617057Y-62038375D01*
X225751744Y-62173062D01*
X225778682Y-62253874D01*
X225778682Y-62307749D01*
X225751744Y-62388561D01*
X225590120Y-62550186D01*
X225509308Y-62577123D01*
X225455433Y-62577123D01*
X225805619Y-61203316D02*
X225536245Y-61472690D01*
X225778682Y-61769001D01*
X225778682Y-61715126D01*
X225805619Y-61634314D01*
X225940306Y-61499627D01*
X226021118Y-61472690D01*
X226074993Y-61472690D01*
X226155805Y-61499627D01*
X226290492Y-61634314D01*
X226317430Y-61715126D01*
X226317430Y-61769001D01*
X226290492Y-61849813D01*
X226155805Y-61984500D01*
X226074993Y-62011438D01*
X226021118Y-62011438D01*
X228869291Y-63142809D02*
X228303606Y-62577123D01*
X228438293Y-62442436D01*
X228546042Y-62388561D01*
X228653792Y-62388561D01*
X228734604Y-62415499D01*
X228869291Y-62496311D01*
X228950103Y-62577123D01*
X229030915Y-62711810D01*
X229057853Y-62792622D01*
X229057853Y-62900372D01*
X229003978Y-63008122D01*
X228869291Y-63142809D01*
X228815416Y-62065312D02*
X229165602Y-61715126D01*
X229192540Y-62119187D01*
X229273352Y-62038375D01*
X229354164Y-62011438D01*
X229408039Y-62011438D01*
X229488851Y-62038375D01*
X229623538Y-62173062D01*
X229650476Y-62253874D01*
X229650476Y-62307749D01*
X229623538Y-62388561D01*
X229461914Y-62550186D01*
X229381102Y-62577123D01*
X229327227Y-62577123D01*
X229650476Y-61230253D02*
X229542726Y-61338003D01*
X229515789Y-61418815D01*
X229515789Y-61472690D01*
X229542726Y-61607377D01*
X229623538Y-61742064D01*
X229839038Y-61957563D01*
X229919850Y-61984500D01*
X229973725Y-61984500D01*
X230054537Y-61957563D01*
X230162286Y-61849813D01*
X230189224Y-61769001D01*
X230189224Y-61715126D01*
X230162286Y-61634314D01*
X230027599Y-61499627D01*
X229946787Y-61472690D01*
X229892912Y-61472690D01*
X229812100Y-61499627D01*
X229704351Y-61607377D01*
X229677413Y-61688189D01*
X229677413Y-61742064D01*
X229704351Y-61822876D01*
X205638527Y-63142809D02*
X205072842Y-62577123D01*
X205207529Y-62442436D01*
X205315278Y-62388561D01*
X205423028Y-62388561D01*
X205503840Y-62415499D01*
X205638527Y-62496311D01*
X205719339Y-62577123D01*
X205800151Y-62711810D01*
X205827089Y-62792622D01*
X205827089Y-62900372D01*
X205773214Y-63008122D01*
X205638527Y-63142809D01*
X205584652Y-62065312D02*
X205934838Y-61715126D01*
X205961776Y-62119187D01*
X206042588Y-62038375D01*
X206123400Y-62011438D01*
X206177275Y-62011438D01*
X206258087Y-62038375D01*
X206392774Y-62173062D01*
X206419712Y-62253874D01*
X206419712Y-62307749D01*
X206392774Y-62388561D01*
X206231150Y-62550186D01*
X206150338Y-62577123D01*
X206096463Y-62577123D01*
X206285025Y-61364940D02*
X206338900Y-61311065D01*
X206419712Y-61284128D01*
X206473587Y-61284128D01*
X206554399Y-61311065D01*
X206689086Y-61391877D01*
X206823773Y-61526564D01*
X206904585Y-61661251D01*
X206931522Y-61742064D01*
X206931522Y-61795938D01*
X206904585Y-61876751D01*
X206850710Y-61930625D01*
X206769898Y-61957563D01*
X206716023Y-61957563D01*
X206635211Y-61930625D01*
X206500524Y-61849813D01*
X206365837Y-61715126D01*
X206285025Y-61580439D01*
X206258087Y-61499627D01*
X206258087Y-61445752D01*
X206285025Y-61364940D01*
X159176999Y-63142809D02*
X158611314Y-62577123D01*
X158746001Y-62442436D01*
X158853750Y-62388561D01*
X158961500Y-62388561D01*
X159042312Y-62415499D01*
X159176999Y-62496311D01*
X159257811Y-62577123D01*
X159338623Y-62711810D01*
X159365561Y-62792622D01*
X159365561Y-62900372D01*
X159311686Y-63008122D01*
X159176999Y-63142809D01*
X160038996Y-62280812D02*
X159715747Y-62604061D01*
X159877372Y-62442436D02*
X159311686Y-61876751D01*
X159338623Y-62011438D01*
X159338623Y-62119187D01*
X159311686Y-62200000D01*
X160038996Y-61634314D02*
X159958184Y-61661251D01*
X159904309Y-61661251D01*
X159823497Y-61634314D01*
X159796559Y-61607377D01*
X159769622Y-61526564D01*
X159769622Y-61472690D01*
X159796559Y-61391877D01*
X159904309Y-61284128D01*
X159985121Y-61257190D01*
X160038996Y-61257190D01*
X160119808Y-61284128D01*
X160146746Y-61311065D01*
X160173683Y-61391877D01*
X160173683Y-61445752D01*
X160146746Y-61526564D01*
X160038996Y-61634314D01*
X160012059Y-61715126D01*
X160012059Y-61769001D01*
X160038996Y-61849813D01*
X160146746Y-61957563D01*
X160227558Y-61984500D01*
X160281433Y-61984500D01*
X160362245Y-61957563D01*
X160469994Y-61849813D01*
X160496932Y-61769001D01*
X160496932Y-61715126D01*
X160469994Y-61634314D01*
X160362245Y-61526564D01*
X160281433Y-61499627D01*
X160227558Y-61499627D01*
X160146746Y-61526564D01*
X232741085Y-63142809D02*
X232175400Y-62577123D01*
X232310087Y-62442436D01*
X232417836Y-62388561D01*
X232525586Y-62388561D01*
X232606398Y-62415499D01*
X232741085Y-62496311D01*
X232821897Y-62577123D01*
X232902709Y-62711810D01*
X232929647Y-62792622D01*
X232929647Y-62900372D01*
X232875772Y-63008122D01*
X232741085Y-63142809D01*
X232687210Y-62065312D02*
X233037396Y-61715126D01*
X233064334Y-62119187D01*
X233145146Y-62038375D01*
X233225958Y-62011438D01*
X233279833Y-62011438D01*
X233360645Y-62038375D01*
X233495332Y-62173062D01*
X233522270Y-62253874D01*
X233522270Y-62307749D01*
X233495332Y-62388561D01*
X233333708Y-62550186D01*
X233252896Y-62577123D01*
X233199021Y-62577123D01*
X233225958Y-61526564D02*
X233603082Y-61149441D01*
X233926331Y-61957563D01*
X128202647Y-63142809D02*
X127636962Y-62577123D01*
X127771649Y-62442436D01*
X127879398Y-62388561D01*
X127987148Y-62388561D01*
X128067960Y-62415499D01*
X128202647Y-62496311D01*
X128283459Y-62577123D01*
X128364271Y-62711810D01*
X128391209Y-62792622D01*
X128391209Y-62900372D01*
X128337334Y-63008122D01*
X128202647Y-63142809D01*
X129064644Y-62280812D02*
X128741395Y-62604061D01*
X128903020Y-62442436D02*
X128337334Y-61876751D01*
X128364271Y-62011438D01*
X128364271Y-62119187D01*
X128337334Y-62200000D01*
X128849145Y-61364940D02*
X128903020Y-61311065D01*
X128983832Y-61284128D01*
X129037707Y-61284128D01*
X129118519Y-61311065D01*
X129253206Y-61391877D01*
X129387893Y-61526564D01*
X129468705Y-61661251D01*
X129495642Y-61742064D01*
X129495642Y-61795938D01*
X129468705Y-61876751D01*
X129414830Y-61930625D01*
X129334018Y-61957563D01*
X129280143Y-61957563D01*
X129199331Y-61930625D01*
X129064644Y-61849813D01*
X128929957Y-61715126D01*
X128849145Y-61580439D01*
X128822207Y-61499627D01*
X128822207Y-61445752D01*
X128849145Y-61364940D01*
X155305205Y-63142809D02*
X154739520Y-62577123D01*
X154874207Y-62442436D01*
X154981956Y-62388561D01*
X155089706Y-62388561D01*
X155170518Y-62415499D01*
X155305205Y-62496311D01*
X155386017Y-62577123D01*
X155466829Y-62711810D01*
X155493767Y-62792622D01*
X155493767Y-62900372D01*
X155439892Y-63008122D01*
X155305205Y-63142809D01*
X156167202Y-62280812D02*
X155843953Y-62604061D01*
X156005578Y-62442436D02*
X155439892Y-61876751D01*
X155466829Y-62011438D01*
X155466829Y-62119187D01*
X155439892Y-62200000D01*
X155790078Y-61526564D02*
X156167202Y-61149441D01*
X156490451Y-61957563D01*
X217253909Y-63142809D02*
X216688224Y-62577123D01*
X216822911Y-62442436D01*
X216930660Y-62388561D01*
X217038410Y-62388561D01*
X217119222Y-62415499D01*
X217253909Y-62496311D01*
X217334721Y-62577123D01*
X217415533Y-62711810D01*
X217442471Y-62792622D01*
X217442471Y-62900372D01*
X217388596Y-63008122D01*
X217253909Y-63142809D01*
X217200034Y-62065312D02*
X217550220Y-61715126D01*
X217577158Y-62119187D01*
X217657970Y-62038375D01*
X217738782Y-62011438D01*
X217792657Y-62011438D01*
X217873469Y-62038375D01*
X218008156Y-62173062D01*
X218035094Y-62253874D01*
X218035094Y-62307749D01*
X218008156Y-62388561D01*
X217846532Y-62550186D01*
X217765720Y-62577123D01*
X217711845Y-62577123D01*
X217738782Y-61526564D02*
X218088969Y-61176378D01*
X218115906Y-61580439D01*
X218196718Y-61499627D01*
X218277530Y-61472690D01*
X218331405Y-61472690D01*
X218412217Y-61499627D01*
X218546904Y-61634314D01*
X218573842Y-61715126D01*
X218573842Y-61769001D01*
X218546904Y-61849813D01*
X218385280Y-62011438D01*
X218304468Y-62038375D01*
X218250593Y-62038375D01*
X236612879Y-63142809D02*
X236047194Y-62577123D01*
X236181881Y-62442436D01*
X236289630Y-62388561D01*
X236397380Y-62388561D01*
X236478192Y-62415499D01*
X236612879Y-62496311D01*
X236693691Y-62577123D01*
X236774503Y-62711810D01*
X236801441Y-62792622D01*
X236801441Y-62900372D01*
X236747566Y-63008122D01*
X236612879Y-63142809D01*
X236559004Y-62065312D02*
X236909190Y-61715126D01*
X236936128Y-62119187D01*
X237016940Y-62038375D01*
X237097752Y-62011438D01*
X237151627Y-62011438D01*
X237232439Y-62038375D01*
X237367126Y-62173062D01*
X237394064Y-62253874D01*
X237394064Y-62307749D01*
X237367126Y-62388561D01*
X237205502Y-62550186D01*
X237124690Y-62577123D01*
X237070815Y-62577123D01*
X237474876Y-61634314D02*
X237394064Y-61661251D01*
X237340189Y-61661251D01*
X237259377Y-61634314D01*
X237232439Y-61607377D01*
X237205502Y-61526564D01*
X237205502Y-61472690D01*
X237232439Y-61391877D01*
X237340189Y-61284128D01*
X237421001Y-61257190D01*
X237474876Y-61257190D01*
X237555688Y-61284128D01*
X237582626Y-61311065D01*
X237609563Y-61391877D01*
X237609563Y-61445752D01*
X237582626Y-61526564D01*
X237474876Y-61634314D01*
X237447939Y-61715126D01*
X237447939Y-61769001D01*
X237474876Y-61849813D01*
X237582626Y-61957563D01*
X237663438Y-61984500D01*
X237717313Y-61984500D01*
X237798125Y-61957563D01*
X237905874Y-61849813D01*
X237932812Y-61769001D01*
X237932812Y-61715126D01*
X237905874Y-61634314D01*
X237798125Y-61526564D01*
X237717313Y-61499627D01*
X237663438Y-61499627D01*
X237582626Y-61526564D01*
X147561617Y-63142809D02*
X146995932Y-62577123D01*
X147130619Y-62442436D01*
X147238368Y-62388561D01*
X147346118Y-62388561D01*
X147426930Y-62415499D01*
X147561617Y-62496311D01*
X147642429Y-62577123D01*
X147723241Y-62711810D01*
X147750179Y-62792622D01*
X147750179Y-62900372D01*
X147696304Y-63008122D01*
X147561617Y-63142809D01*
X148423614Y-62280812D02*
X148100365Y-62604061D01*
X148261990Y-62442436D02*
X147696304Y-61876751D01*
X147723241Y-62011438D01*
X147723241Y-62119187D01*
X147696304Y-62200000D01*
X148369739Y-61203316D02*
X148100365Y-61472690D01*
X148342802Y-61769001D01*
X148342802Y-61715126D01*
X148369739Y-61634314D01*
X148504426Y-61499627D01*
X148585238Y-61472690D01*
X148639113Y-61472690D01*
X148719925Y-61499627D01*
X148854612Y-61634314D01*
X148881550Y-61715126D01*
X148881550Y-61769001D01*
X148854612Y-61849813D01*
X148719925Y-61984500D01*
X148639113Y-62011438D01*
X148585238Y-62011438D01*
X139818029Y-63142809D02*
X139252344Y-62577123D01*
X139387031Y-62442436D01*
X139494780Y-62388561D01*
X139602530Y-62388561D01*
X139683342Y-62415499D01*
X139818029Y-62496311D01*
X139898841Y-62577123D01*
X139979653Y-62711810D01*
X140006591Y-62792622D01*
X140006591Y-62900372D01*
X139952716Y-63008122D01*
X139818029Y-63142809D01*
X140680026Y-62280812D02*
X140356777Y-62604061D01*
X140518402Y-62442436D02*
X139952716Y-61876751D01*
X139979653Y-62011438D01*
X139979653Y-62119187D01*
X139952716Y-62200000D01*
X140302902Y-61526564D02*
X140653089Y-61176378D01*
X140680026Y-61580439D01*
X140760838Y-61499627D01*
X140841650Y-61472690D01*
X140895525Y-61472690D01*
X140976337Y-61499627D01*
X141111024Y-61634314D01*
X141137962Y-61715126D01*
X141137962Y-61769001D01*
X141111024Y-61849813D01*
X140949400Y-62011438D01*
X140868588Y-62038375D01*
X140814713Y-62038375D01*
X194023145Y-63142809D02*
X193457460Y-62577123D01*
X193592147Y-62442436D01*
X193699896Y-62388561D01*
X193807646Y-62388561D01*
X193888458Y-62415499D01*
X194023145Y-62496311D01*
X194103957Y-62577123D01*
X194184769Y-62711810D01*
X194211707Y-62792622D01*
X194211707Y-62900372D01*
X194157832Y-63008122D01*
X194023145Y-63142809D01*
X194050082Y-62092250D02*
X194050082Y-62038375D01*
X194077020Y-61957563D01*
X194211707Y-61822876D01*
X194292519Y-61795938D01*
X194346394Y-61795938D01*
X194427206Y-61822876D01*
X194481081Y-61876751D01*
X194534956Y-61984500D01*
X194534956Y-62630998D01*
X194885142Y-62280812D01*
X194508018Y-61526564D02*
X194885142Y-61149441D01*
X195208391Y-61957563D01*
X209510321Y-63142809D02*
X208944636Y-62577123D01*
X209079323Y-62442436D01*
X209187072Y-62388561D01*
X209294822Y-62388561D01*
X209375634Y-62415499D01*
X209510321Y-62496311D01*
X209591133Y-62577123D01*
X209671945Y-62711810D01*
X209698883Y-62792622D01*
X209698883Y-62900372D01*
X209645008Y-63008122D01*
X209510321Y-63142809D01*
X209456446Y-62065312D02*
X209806632Y-61715126D01*
X209833570Y-62119187D01*
X209914382Y-62038375D01*
X209995194Y-62011438D01*
X210049069Y-62011438D01*
X210129881Y-62038375D01*
X210264568Y-62173062D01*
X210291506Y-62253874D01*
X210291506Y-62307749D01*
X210264568Y-62388561D01*
X210102944Y-62550186D01*
X210022132Y-62577123D01*
X209968257Y-62577123D01*
X210911066Y-61742064D02*
X210587817Y-62065312D01*
X210749442Y-61903688D02*
X210183756Y-61338003D01*
X210210694Y-61472690D01*
X210210694Y-61580439D01*
X210183756Y-61661251D01*
X244356467Y-63142809D02*
X243790782Y-62577123D01*
X243925469Y-62442436D01*
X244033218Y-62388561D01*
X244140968Y-62388561D01*
X244221780Y-62415499D01*
X244356467Y-62496311D01*
X244437279Y-62577123D01*
X244518091Y-62711810D01*
X244545029Y-62792622D01*
X244545029Y-62900372D01*
X244491154Y-63008122D01*
X244356467Y-63142809D01*
X244787466Y-61957563D02*
X245164589Y-62334687D01*
X244437279Y-61876751D02*
X244706653Y-62415499D01*
X245056840Y-62065312D01*
X245002965Y-61364940D02*
X245056840Y-61311065D01*
X245137652Y-61284128D01*
X245191527Y-61284128D01*
X245272339Y-61311065D01*
X245407026Y-61391877D01*
X245541713Y-61526564D01*
X245622525Y-61661251D01*
X245649462Y-61742064D01*
X245649462Y-61795938D01*
X245622525Y-61876751D01*
X245568650Y-61930625D01*
X245487838Y-61957563D01*
X245433963Y-61957563D01*
X245353151Y-61930625D01*
X245218464Y-61849813D01*
X245083777Y-61715126D01*
X245002965Y-61580439D01*
X244976027Y-61499627D01*
X244976027Y-61445752D01*
X245002965Y-61364940D01*
X97497669Y-62873435D02*
X96931984Y-62307749D01*
X97066671Y-62173062D01*
X97174420Y-62119187D01*
X97282170Y-62119187D01*
X97362982Y-62146125D01*
X97497669Y-62226937D01*
X97578481Y-62307749D01*
X97659294Y-62442436D01*
X97686231Y-62523248D01*
X97686231Y-62630998D01*
X97632356Y-62738748D01*
X97497669Y-62873435D01*
X97524606Y-61822876D02*
X97524606Y-61769001D01*
X97551544Y-61688189D01*
X97686231Y-61553502D01*
X97767043Y-61526564D01*
X97820918Y-61526564D01*
X97901730Y-61553502D01*
X97955605Y-61607377D01*
X98009480Y-61715126D01*
X98009480Y-62361624D01*
X98359666Y-62011438D01*
X112984845Y-62873435D02*
X112419160Y-62307749D01*
X112553847Y-62173062D01*
X112661596Y-62119187D01*
X112769346Y-62119187D01*
X112850158Y-62146125D01*
X112984845Y-62226937D01*
X113065657Y-62307749D01*
X113146470Y-62442436D01*
X113173407Y-62523248D01*
X113173407Y-62630998D01*
X113119532Y-62738748D01*
X112984845Y-62873435D01*
X113227282Y-61499627D02*
X113119532Y-61607377D01*
X113092595Y-61688189D01*
X113092595Y-61742064D01*
X113119532Y-61876751D01*
X113200344Y-62011438D01*
X113415844Y-62226937D01*
X113496656Y-62253874D01*
X113550531Y-62253874D01*
X113631343Y-62226937D01*
X113739092Y-62119187D01*
X113766030Y-62038375D01*
X113766030Y-61984500D01*
X113739092Y-61903688D01*
X113604405Y-61769001D01*
X113523593Y-61742064D01*
X113469718Y-61742064D01*
X113388906Y-61769001D01*
X113281157Y-61876751D01*
X113254219Y-61957563D01*
X113254219Y-62011438D01*
X113281157Y-62092250D01*
X174664175Y-63142809D02*
X174098490Y-62577123D01*
X174233177Y-62442436D01*
X174340926Y-62388561D01*
X174448676Y-62388561D01*
X174529488Y-62415499D01*
X174664175Y-62496311D01*
X174744987Y-62577123D01*
X174825799Y-62711810D01*
X174852737Y-62792622D01*
X174852737Y-62900372D01*
X174798862Y-63008122D01*
X174664175Y-63142809D01*
X174691112Y-62092250D02*
X174691112Y-62038375D01*
X174718050Y-61957563D01*
X174852737Y-61822876D01*
X174933549Y-61795938D01*
X174987424Y-61795938D01*
X175068236Y-61822876D01*
X175122111Y-61876751D01*
X175175986Y-61984500D01*
X175175986Y-62630998D01*
X175526172Y-62280812D01*
X175229861Y-61553502D02*
X175229861Y-61499627D01*
X175256798Y-61418815D01*
X175391485Y-61284128D01*
X175472297Y-61257190D01*
X175526172Y-61257190D01*
X175606984Y-61284128D01*
X175660859Y-61338003D01*
X175714734Y-61445752D01*
X175714734Y-62092250D01*
X176064920Y-61742064D01*
X124600227Y-62873435D02*
X124034542Y-62307749D01*
X124169229Y-62173062D01*
X124276978Y-62119187D01*
X124384728Y-62119187D01*
X124465540Y-62146125D01*
X124600227Y-62226937D01*
X124681039Y-62307749D01*
X124761852Y-62442436D01*
X124788789Y-62523248D01*
X124788789Y-62630998D01*
X124734914Y-62738748D01*
X124600227Y-62873435D01*
X125192850Y-62280812D02*
X125300600Y-62173062D01*
X125327537Y-62092250D01*
X125327537Y-62038375D01*
X125300600Y-61903688D01*
X125219787Y-61769001D01*
X125004288Y-61553502D01*
X124923476Y-61526564D01*
X124869601Y-61526564D01*
X124788789Y-61553502D01*
X124681039Y-61661251D01*
X124654102Y-61742064D01*
X124654102Y-61795938D01*
X124681039Y-61876751D01*
X124815726Y-62011438D01*
X124896539Y-62038375D01*
X124950413Y-62038375D01*
X125031226Y-62011438D01*
X125138975Y-61903688D01*
X125165913Y-61822876D01*
X125165913Y-61769001D01*
X125138975Y-61688189D01*
X201766733Y-63142809D02*
X201201048Y-62577123D01*
X201335735Y-62442436D01*
X201443484Y-62388561D01*
X201551234Y-62388561D01*
X201632046Y-62415499D01*
X201766733Y-62496311D01*
X201847545Y-62577123D01*
X201928357Y-62711810D01*
X201955295Y-62792622D01*
X201955295Y-62900372D01*
X201901420Y-63008122D01*
X201766733Y-63142809D01*
X201793670Y-62092250D02*
X201793670Y-62038375D01*
X201820608Y-61957563D01*
X201955295Y-61822876D01*
X202036107Y-61795938D01*
X202089982Y-61795938D01*
X202170794Y-61822876D01*
X202224669Y-61876751D01*
X202278544Y-61984500D01*
X202278544Y-62630998D01*
X202628730Y-62280812D01*
X202898104Y-62011438D02*
X203005854Y-61903688D01*
X203032791Y-61822876D01*
X203032791Y-61769001D01*
X203005854Y-61634314D01*
X202925041Y-61499627D01*
X202709542Y-61284128D01*
X202628730Y-61257190D01*
X202574855Y-61257190D01*
X202494043Y-61284128D01*
X202386293Y-61391877D01*
X202359356Y-61472690D01*
X202359356Y-61526564D01*
X202386293Y-61607377D01*
X202520980Y-61742064D01*
X202601793Y-61769001D01*
X202655667Y-61769001D01*
X202736480Y-61742064D01*
X202844229Y-61634314D01*
X202871167Y-61553502D01*
X202871167Y-61499627D01*
X202844229Y-61418815D01*
X170792381Y-63142809D02*
X170226696Y-62577123D01*
X170361383Y-62442436D01*
X170469132Y-62388561D01*
X170576882Y-62388561D01*
X170657694Y-62415499D01*
X170792381Y-62496311D01*
X170873193Y-62577123D01*
X170954005Y-62711810D01*
X170980943Y-62792622D01*
X170980943Y-62900372D01*
X170927068Y-63008122D01*
X170792381Y-63142809D01*
X170819318Y-62092250D02*
X170819318Y-62038375D01*
X170846256Y-61957563D01*
X170980943Y-61822876D01*
X171061755Y-61795938D01*
X171115630Y-61795938D01*
X171196442Y-61822876D01*
X171250317Y-61876751D01*
X171304192Y-61984500D01*
X171304192Y-62630998D01*
X171654378Y-62280812D01*
X172193126Y-61742064D02*
X171869877Y-62065312D01*
X172031502Y-61903688D02*
X171465816Y-61338003D01*
X171492754Y-61472690D01*
X171492754Y-61580439D01*
X171465816Y-61661251D01*
X93625875Y-62873435D02*
X93060190Y-62307749D01*
X93194877Y-62173062D01*
X93302626Y-62119187D01*
X93410376Y-62119187D01*
X93491188Y-62146125D01*
X93625875Y-62226937D01*
X93706687Y-62307749D01*
X93787500Y-62442436D01*
X93814437Y-62523248D01*
X93814437Y-62630998D01*
X93760562Y-62738748D01*
X93625875Y-62873435D01*
X94487872Y-62011438D02*
X94164623Y-62334687D01*
X94326248Y-62173062D02*
X93760562Y-61607377D01*
X93787500Y-61742064D01*
X93787500Y-61849813D01*
X93760562Y-61930625D01*
X221125703Y-63142809D02*
X220560018Y-62577123D01*
X220694705Y-62442436D01*
X220802454Y-62388561D01*
X220910204Y-62388561D01*
X220991016Y-62415499D01*
X221125703Y-62496311D01*
X221206515Y-62577123D01*
X221287327Y-62711810D01*
X221314265Y-62792622D01*
X221314265Y-62900372D01*
X221260390Y-63008122D01*
X221125703Y-63142809D01*
X221071828Y-62065312D02*
X221422014Y-61715126D01*
X221448952Y-62119187D01*
X221529764Y-62038375D01*
X221610576Y-62011438D01*
X221664451Y-62011438D01*
X221745263Y-62038375D01*
X221879950Y-62173062D01*
X221906888Y-62253874D01*
X221906888Y-62307749D01*
X221879950Y-62388561D01*
X221718326Y-62550186D01*
X221637514Y-62577123D01*
X221583639Y-62577123D01*
X222095450Y-61418815D02*
X222472573Y-61795938D01*
X221745263Y-61338003D02*
X222014637Y-61876751D01*
X222364824Y-61526564D01*
X178535969Y-63142809D02*
X177970284Y-62577123D01*
X178104971Y-62442436D01*
X178212720Y-62388561D01*
X178320470Y-62388561D01*
X178401282Y-62415499D01*
X178535969Y-62496311D01*
X178616781Y-62577123D01*
X178697593Y-62711810D01*
X178724531Y-62792622D01*
X178724531Y-62900372D01*
X178670656Y-63008122D01*
X178535969Y-63142809D01*
X178562906Y-62092250D02*
X178562906Y-62038375D01*
X178589844Y-61957563D01*
X178724531Y-61822876D01*
X178805343Y-61795938D01*
X178859218Y-61795938D01*
X178940030Y-61822876D01*
X178993905Y-61876751D01*
X179047780Y-61984500D01*
X179047780Y-62630998D01*
X179397966Y-62280812D01*
X179020842Y-61526564D02*
X179371029Y-61176378D01*
X179397966Y-61580439D01*
X179478778Y-61499627D01*
X179559590Y-61472690D01*
X179613465Y-61472690D01*
X179694277Y-61499627D01*
X179828964Y-61634314D01*
X179855902Y-61715126D01*
X179855902Y-61769001D01*
X179828964Y-61849813D01*
X179667340Y-62011438D01*
X179586528Y-62038375D01*
X179532653Y-62038375D01*
X190151351Y-63142809D02*
X189585666Y-62577123D01*
X189720353Y-62442436D01*
X189828102Y-62388561D01*
X189935852Y-62388561D01*
X190016664Y-62415499D01*
X190151351Y-62496311D01*
X190232163Y-62577123D01*
X190312975Y-62711810D01*
X190339913Y-62792622D01*
X190339913Y-62900372D01*
X190286038Y-63008122D01*
X190151351Y-63142809D01*
X190178288Y-62092250D02*
X190178288Y-62038375D01*
X190205226Y-61957563D01*
X190339913Y-61822876D01*
X190420725Y-61795938D01*
X190474600Y-61795938D01*
X190555412Y-61822876D01*
X190609287Y-61876751D01*
X190663162Y-61984500D01*
X190663162Y-62630998D01*
X191013348Y-62280812D01*
X190932536Y-61230253D02*
X190824786Y-61338003D01*
X190797849Y-61418815D01*
X190797849Y-61472690D01*
X190824786Y-61607377D01*
X190905598Y-61742064D01*
X191121098Y-61957563D01*
X191201910Y-61984500D01*
X191255785Y-61984500D01*
X191336597Y-61957563D01*
X191444346Y-61849813D01*
X191471284Y-61769001D01*
X191471284Y-61715126D01*
X191444346Y-61634314D01*
X191309659Y-61499627D01*
X191228847Y-61472690D01*
X191174972Y-61472690D01*
X191094160Y-61499627D01*
X190986411Y-61607377D01*
X190959473Y-61688189D01*
X190959473Y-61742064D01*
X190986411Y-61822876D01*
X101369463Y-62873435D02*
X100803778Y-62307749D01*
X100938465Y-62173062D01*
X101046214Y-62119187D01*
X101153964Y-62119187D01*
X101234776Y-62146125D01*
X101369463Y-62226937D01*
X101450275Y-62307749D01*
X101531088Y-62442436D01*
X101558025Y-62523248D01*
X101558025Y-62630998D01*
X101504150Y-62738748D01*
X101369463Y-62873435D01*
X101315588Y-61795938D02*
X101665775Y-61445752D01*
X101692712Y-61849813D01*
X101773524Y-61769001D01*
X101854336Y-61742064D01*
X101908211Y-61742064D01*
X101989023Y-61769001D01*
X102123710Y-61903688D01*
X102150648Y-61984500D01*
X102150648Y-62038375D01*
X102123710Y-62119187D01*
X101962086Y-62280812D01*
X101881274Y-62307749D01*
X101827399Y-62307749D01*
X240484673Y-63142809D02*
X239918988Y-62577123D01*
X240053675Y-62442436D01*
X240161424Y-62388561D01*
X240269174Y-62388561D01*
X240349986Y-62415499D01*
X240484673Y-62496311D01*
X240565485Y-62577123D01*
X240646297Y-62711810D01*
X240673235Y-62792622D01*
X240673235Y-62900372D01*
X240619360Y-63008122D01*
X240484673Y-63142809D01*
X240430798Y-62065312D02*
X240780984Y-61715126D01*
X240807922Y-62119187D01*
X240888734Y-62038375D01*
X240969546Y-62011438D01*
X241023421Y-62011438D01*
X241104233Y-62038375D01*
X241238920Y-62173062D01*
X241265858Y-62253874D01*
X241265858Y-62307749D01*
X241238920Y-62388561D01*
X241077296Y-62550186D01*
X240996484Y-62577123D01*
X240942609Y-62577123D01*
X241616044Y-62011438D02*
X241723794Y-61903688D01*
X241750731Y-61822876D01*
X241750731Y-61769001D01*
X241723794Y-61634314D01*
X241642981Y-61499627D01*
X241427482Y-61284128D01*
X241346670Y-61257190D01*
X241292795Y-61257190D01*
X241211983Y-61284128D01*
X241104233Y-61391877D01*
X241077296Y-61472690D01*
X241077296Y-61526564D01*
X241104233Y-61607377D01*
X241238920Y-61742064D01*
X241319733Y-61769001D01*
X241373607Y-61769001D01*
X241454420Y-61742064D01*
X241562169Y-61634314D01*
X241589107Y-61553502D01*
X241589107Y-61499627D01*
X241562169Y-61418815D01*
X135946235Y-63142809D02*
X135380550Y-62577123D01*
X135515237Y-62442436D01*
X135622986Y-62388561D01*
X135730736Y-62388561D01*
X135811548Y-62415499D01*
X135946235Y-62496311D01*
X136027047Y-62577123D01*
X136107859Y-62711810D01*
X136134797Y-62792622D01*
X136134797Y-62900372D01*
X136080922Y-63008122D01*
X135946235Y-63142809D01*
X136808232Y-62280812D02*
X136484983Y-62604061D01*
X136646608Y-62442436D02*
X136080922Y-61876751D01*
X136107859Y-62011438D01*
X136107859Y-62119187D01*
X136080922Y-62200000D01*
X136511921Y-61553502D02*
X136511921Y-61499627D01*
X136538858Y-61418815D01*
X136673545Y-61284128D01*
X136754357Y-61257190D01*
X136808232Y-61257190D01*
X136889044Y-61284128D01*
X136942919Y-61338003D01*
X136996794Y-61445752D01*
X136996794Y-62092250D01*
X137346980Y-61742064D01*
X132074441Y-63142809D02*
X131508756Y-62577123D01*
X131643443Y-62442436D01*
X131751192Y-62388561D01*
X131858942Y-62388561D01*
X131939754Y-62415499D01*
X132074441Y-62496311D01*
X132155253Y-62577123D01*
X132236065Y-62711810D01*
X132263003Y-62792622D01*
X132263003Y-62900372D01*
X132209128Y-63008122D01*
X132074441Y-63142809D01*
X132936438Y-62280812D02*
X132613189Y-62604061D01*
X132774814Y-62442436D02*
X132209128Y-61876751D01*
X132236065Y-62011438D01*
X132236065Y-62119187D01*
X132209128Y-62200000D01*
X133475186Y-61742064D02*
X133151937Y-62065312D01*
X133313562Y-61903688D02*
X132747876Y-61338003D01*
X132774814Y-61472690D01*
X132774814Y-61580439D01*
X132747876Y-61661251D01*
X182407763Y-63142809D02*
X181842078Y-62577123D01*
X181976765Y-62442436D01*
X182084514Y-62388561D01*
X182192264Y-62388561D01*
X182273076Y-62415499D01*
X182407763Y-62496311D01*
X182488575Y-62577123D01*
X182569387Y-62711810D01*
X182596325Y-62792622D01*
X182596325Y-62900372D01*
X182542450Y-63008122D01*
X182407763Y-63142809D01*
X182434700Y-62092250D02*
X182434700Y-62038375D01*
X182461638Y-61957563D01*
X182596325Y-61822876D01*
X182677137Y-61795938D01*
X182731012Y-61795938D01*
X182811824Y-61822876D01*
X182865699Y-61876751D01*
X182919574Y-61984500D01*
X182919574Y-62630998D01*
X183269760Y-62280812D01*
X183377510Y-61418815D02*
X183754633Y-61795938D01*
X183027323Y-61338003D02*
X183296697Y-61876751D01*
X183646884Y-61526564D01*
X186279557Y-63142809D02*
X185713872Y-62577123D01*
X185848559Y-62442436D01*
X185956308Y-62388561D01*
X186064058Y-62388561D01*
X186144870Y-62415499D01*
X186279557Y-62496311D01*
X186360369Y-62577123D01*
X186441181Y-62711810D01*
X186468119Y-62792622D01*
X186468119Y-62900372D01*
X186414244Y-63008122D01*
X186279557Y-63142809D01*
X186306494Y-62092250D02*
X186306494Y-62038375D01*
X186333432Y-61957563D01*
X186468119Y-61822876D01*
X186548931Y-61795938D01*
X186602806Y-61795938D01*
X186683618Y-61822876D01*
X186737493Y-61876751D01*
X186791368Y-61984500D01*
X186791368Y-62630998D01*
X187141554Y-62280812D01*
X187087679Y-61203316D02*
X186818305Y-61472690D01*
X187060742Y-61769001D01*
X187060742Y-61715126D01*
X187087679Y-61634314D01*
X187222366Y-61499627D01*
X187303178Y-61472690D01*
X187357053Y-61472690D01*
X187437865Y-61499627D01*
X187572552Y-61634314D01*
X187599490Y-61715126D01*
X187599490Y-61769001D01*
X187572552Y-61849813D01*
X187437865Y-61984500D01*
X187357053Y-62011438D01*
X187303178Y-62011438D01*
X163048793Y-63142809D02*
X162483108Y-62577123D01*
X162617795Y-62442436D01*
X162725544Y-62388561D01*
X162833294Y-62388561D01*
X162914106Y-62415499D01*
X163048793Y-62496311D01*
X163129605Y-62577123D01*
X163210417Y-62711810D01*
X163237355Y-62792622D01*
X163237355Y-62900372D01*
X163183480Y-63008122D01*
X163048793Y-63142809D01*
X163910790Y-62280812D02*
X163587541Y-62604061D01*
X163749166Y-62442436D02*
X163183480Y-61876751D01*
X163210417Y-62011438D01*
X163210417Y-62119187D01*
X163183480Y-62200000D01*
X164180164Y-62011438D02*
X164287914Y-61903688D01*
X164314851Y-61822876D01*
X164314851Y-61769001D01*
X164287914Y-61634314D01*
X164207101Y-61499627D01*
X163991602Y-61284128D01*
X163910790Y-61257190D01*
X163856915Y-61257190D01*
X163776103Y-61284128D01*
X163668353Y-61391877D01*
X163641416Y-61472690D01*
X163641416Y-61526564D01*
X163668353Y-61607377D01*
X163803040Y-61742064D01*
X163883853Y-61769001D01*
X163937727Y-61769001D01*
X164018540Y-61742064D01*
X164126289Y-61634314D01*
X164153227Y-61553502D01*
X164153227Y-61499627D01*
X164126289Y-61418815D01*
X60987500Y-89500000D02*
X60987500Y-88500000D01*
D12*
X58462500Y-85975000D02*
X77512500Y-85975000D01*
D11*
X60987500Y-102500000D02*
X61987500Y-102500000D01*
X74987500Y-101500000D02*
X74987500Y-102500000D01*
X74987500Y-88500000D02*
X74987500Y-89500000D01*
D12*
X77512500Y-105025000D02*
X58462500Y-105025000D01*
X58462500Y-105025000D02*
X58462500Y-85975000D01*
D11*
X73987500Y-102500000D02*
X74987500Y-102500000D01*
X61987500Y-88500000D02*
X60987500Y-88500000D01*
X60987500Y-102500000D02*
X60987500Y-101500000D01*
X74987500Y-88500000D02*
X73987500Y-88500000D01*
X74987500Y-102500000D02*
X73987500Y-102500000D01*
D12*
X77512500Y-85975000D02*
X77512500Y-105025000D01*
D10*
X114631779Y-62889429D02*
X116328835Y-64586485D01*
X119846691Y-61068629D02*
X115886893Y-65028427D01*
X118149635Y-59371573D02*
X119846691Y-61068629D01*
X114437324Y-63083883D02*
X116134381Y-64780940D01*
X114313581Y-63207627D02*
X116010637Y-64904683D01*
X114189837Y-63331371D02*
X115886893Y-65028427D01*
X114561068Y-62960140D02*
X116258124Y-64657196D01*
X114189837Y-63331371D02*
X118149635Y-59371573D01*
X114702489Y-62818718D02*
X116399546Y-64515775D01*
D12*
X191812500Y-105025000D02*
X191812500Y-124075000D01*
D11*
X189287500Y-120550000D02*
X189287500Y-121550000D01*
X189287500Y-107550000D02*
X188287500Y-107550000D01*
X176287500Y-107550000D02*
X175287500Y-107550000D01*
X188287500Y-121550000D02*
X189287500Y-121550000D01*
X175287500Y-108550000D02*
X175287500Y-107550000D01*
D12*
X191812500Y-124075000D02*
X172762500Y-124075000D01*
D11*
X189287500Y-121550000D02*
X188287500Y-121550000D01*
X175287500Y-121550000D02*
X175287500Y-120550000D01*
X175287500Y-121550000D02*
X176287500Y-121550000D01*
D12*
X172762500Y-124075000D02*
X172762500Y-105025000D01*
X172762500Y-105025000D02*
X191812500Y-105025000D01*
D11*
X189287500Y-107550000D02*
X189287500Y-108550000D01*
D12*
X153712500Y-124075000D02*
X153712500Y-143125000D01*
D11*
X151187500Y-140600000D02*
X150187500Y-140600000D01*
D12*
X134662500Y-124075000D02*
X153712500Y-124075000D01*
D11*
X151187500Y-139600000D02*
X151187500Y-140600000D01*
X150187500Y-140600000D02*
X151187500Y-140600000D01*
X137187500Y-140600000D02*
X137187500Y-139600000D01*
D12*
X134662500Y-143125000D02*
X134662500Y-124075000D01*
D11*
X151187500Y-126600000D02*
X151187500Y-127600000D01*
D12*
X153712500Y-143125000D02*
X134662500Y-143125000D01*
D11*
X137187500Y-140600000D02*
X138187500Y-140600000D01*
X137187500Y-127600000D02*
X137187500Y-126600000D01*
X138187500Y-126600000D02*
X137187500Y-126600000D01*
X151187500Y-126600000D02*
X150187500Y-126600000D01*
X119137500Y-107550000D02*
X118137500Y-107550000D01*
X132137500Y-107550000D02*
X131137500Y-107550000D01*
X118137500Y-121550000D02*
X119137500Y-121550000D01*
D12*
X115612500Y-105025000D02*
X134662500Y-105025000D01*
D11*
X118137500Y-121550000D02*
X118137500Y-120550000D01*
X132137500Y-107550000D02*
X132137500Y-108550000D01*
X118137500Y-108550000D02*
X118137500Y-107550000D01*
D12*
X134662500Y-105025000D02*
X134662500Y-124075000D01*
D11*
X132137500Y-121550000D02*
X131137500Y-121550000D01*
D12*
X115612500Y-124075000D02*
X115612500Y-105025000D01*
D11*
X131137500Y-121550000D02*
X132137500Y-121550000D01*
D12*
X134662500Y-124075000D02*
X115612500Y-124075000D01*
D11*
X132137500Y-120550000D02*
X132137500Y-121550000D01*
X175287500Y-102500000D02*
X176287500Y-102500000D01*
X175287500Y-89500000D02*
X175287500Y-88500000D01*
D12*
X191812500Y-85975000D02*
X191812500Y-105025000D01*
X191812500Y-105025000D02*
X172762500Y-105025000D01*
D11*
X188287500Y-102500000D02*
X189287500Y-102500000D01*
D12*
X172762500Y-105025000D02*
X172762500Y-85975000D01*
X172762500Y-85975000D02*
X191812500Y-85975000D01*
D11*
X189287500Y-101500000D02*
X189287500Y-102500000D01*
X189287500Y-88500000D02*
X189287500Y-89500000D01*
X189287500Y-88500000D02*
X188287500Y-88500000D01*
X189287500Y-102500000D02*
X188287500Y-102500000D01*
X175287500Y-102500000D02*
X175287500Y-101500000D01*
X176287500Y-88500000D02*
X175287500Y-88500000D01*
D10*
X106817480Y-62960140D02*
X108514536Y-64657196D01*
X106958901Y-62818718D02*
X108655958Y-64515775D01*
X106446249Y-63331371D02*
X110406047Y-59371573D01*
X112103103Y-61068629D02*
X108143305Y-65028427D01*
X106888191Y-62889429D02*
X108585247Y-64586485D01*
X106569993Y-63207627D02*
X108267049Y-64904683D01*
X106693736Y-63083883D02*
X108390793Y-64780940D01*
X106446249Y-63331371D02*
X108143305Y-65028427D01*
X110406047Y-59371573D02*
X112103103Y-61068629D01*
D11*
X94037500Y-126600000D02*
X93037500Y-126600000D01*
X94037500Y-139600000D02*
X94037500Y-140600000D01*
D12*
X96562500Y-124075000D02*
X96562500Y-143125000D01*
X77512500Y-143125000D02*
X77512500Y-124075000D01*
X77512500Y-124075000D02*
X96562500Y-124075000D01*
D11*
X94037500Y-126600000D02*
X94037500Y-127600000D01*
X80037500Y-140600000D02*
X81037500Y-140600000D01*
X94037500Y-140600000D02*
X93037500Y-140600000D01*
X93037500Y-140600000D02*
X94037500Y-140600000D01*
X81037500Y-126600000D02*
X80037500Y-126600000D01*
X80037500Y-140600000D02*
X80037500Y-139600000D01*
X80037500Y-127600000D02*
X80037500Y-126600000D01*
D12*
X96562500Y-143125000D02*
X77512500Y-143125000D01*
D10*
X211232174Y-63083883D02*
X212929231Y-64780940D01*
X210984687Y-63331371D02*
X214944485Y-59371573D01*
X214944485Y-59371573D02*
X216641541Y-61068629D01*
X210984687Y-63331371D02*
X212681743Y-65028427D01*
X216641541Y-61068629D02*
X212681743Y-65028427D01*
X211108431Y-63207627D02*
X212805487Y-64904683D01*
X211355918Y-62960140D02*
X213052974Y-64657196D01*
X211426629Y-62889429D02*
X213123685Y-64586485D01*
X211497339Y-62818718D02*
X213194396Y-64515775D01*
D11*
X232437500Y-108550000D02*
X232437500Y-107550000D01*
X245437500Y-121550000D02*
X246437500Y-121550000D01*
D12*
X229912500Y-124075000D02*
X229912500Y-105025000D01*
D11*
X246437500Y-107550000D02*
X246437500Y-108550000D01*
X246437500Y-120550000D02*
X246437500Y-121550000D01*
D12*
X248962500Y-124075000D02*
X229912500Y-124075000D01*
D11*
X233437500Y-107550000D02*
X232437500Y-107550000D01*
X232437500Y-121550000D02*
X233437500Y-121550000D01*
X246437500Y-121550000D02*
X245437500Y-121550000D01*
X232437500Y-121550000D02*
X232437500Y-120550000D01*
D12*
X248962500Y-105025000D02*
X248962500Y-124075000D01*
D11*
X246437500Y-107550000D02*
X245437500Y-107550000D01*
D12*
X229912500Y-105025000D02*
X248962500Y-105025000D01*
D11*
X132137500Y-126600000D02*
X131137500Y-126600000D01*
X119137500Y-126600000D02*
X118137500Y-126600000D01*
X118137500Y-140600000D02*
X119137500Y-140600000D01*
X118137500Y-127600000D02*
X118137500Y-126600000D01*
D12*
X134662500Y-124075000D02*
X134662500Y-143125000D01*
D11*
X132137500Y-140600000D02*
X131137500Y-140600000D01*
X118137500Y-140600000D02*
X118137500Y-139600000D01*
D12*
X134662500Y-143125000D02*
X115612500Y-143125000D01*
D11*
X131137500Y-140600000D02*
X132137500Y-140600000D01*
X132137500Y-126600000D02*
X132137500Y-127600000D01*
D12*
X115612500Y-124075000D02*
X134662500Y-124075000D01*
X115612500Y-143125000D02*
X115612500Y-124075000D01*
D11*
X132137500Y-139600000D02*
X132137500Y-140600000D01*
X214387500Y-69450000D02*
X213387500Y-69450000D01*
X226387500Y-83450000D02*
X227387500Y-83450000D01*
X227387500Y-69450000D02*
X226387500Y-69450000D01*
D12*
X210862500Y-66925000D02*
X229912500Y-66925000D01*
X210862500Y-85975000D02*
X210862500Y-66925000D01*
D11*
X213387500Y-70450000D02*
X213387500Y-69450000D01*
X227387500Y-83450000D02*
X226387500Y-83450000D01*
X213387500Y-83450000D02*
X213387500Y-82450000D01*
D12*
X229912500Y-85975000D02*
X210862500Y-85975000D01*
D11*
X227387500Y-69450000D02*
X227387500Y-70450000D01*
X213387500Y-83450000D02*
X214387500Y-83450000D01*
X227387500Y-82450000D02*
X227387500Y-83450000D01*
D12*
X229912500Y-66925000D02*
X229912500Y-85975000D01*
D11*
X169237500Y-83450000D02*
X170237500Y-83450000D01*
D12*
X153712500Y-66925000D02*
X172762500Y-66925000D01*
D11*
X156237500Y-83450000D02*
X157237500Y-83450000D01*
D12*
X153712500Y-85975000D02*
X153712500Y-66925000D01*
D11*
X156237500Y-83450000D02*
X156237500Y-82450000D01*
X156237500Y-70450000D02*
X156237500Y-69450000D01*
D12*
X172762500Y-66925000D02*
X172762500Y-85975000D01*
D11*
X170237500Y-69450000D02*
X169237500Y-69450000D01*
X157237500Y-69450000D02*
X156237500Y-69450000D01*
X170237500Y-69450000D02*
X170237500Y-70450000D01*
X170237500Y-82450000D02*
X170237500Y-83450000D01*
D12*
X172762500Y-85975000D02*
X153712500Y-85975000D01*
D11*
X170237500Y-83450000D02*
X169237500Y-83450000D01*
D12*
X191812500Y-143125000D02*
X172762500Y-143125000D01*
D11*
X189287500Y-140600000D02*
X188287500Y-140600000D01*
X175287500Y-140600000D02*
X175287500Y-139600000D01*
X189287500Y-126600000D02*
X189287500Y-127600000D01*
X189287500Y-139600000D02*
X189287500Y-140600000D01*
X189287500Y-126600000D02*
X188287500Y-126600000D01*
D12*
X191812500Y-124075000D02*
X191812500Y-143125000D01*
X172762500Y-124075000D02*
X191812500Y-124075000D01*
D11*
X176287500Y-126600000D02*
X175287500Y-126600000D01*
D12*
X172762500Y-143125000D02*
X172762500Y-124075000D01*
D11*
X175287500Y-127600000D02*
X175287500Y-126600000D01*
X188287500Y-140600000D02*
X189287500Y-140600000D01*
X175287500Y-140600000D02*
X176287500Y-140600000D01*
X207337500Y-83450000D02*
X208337500Y-83450000D01*
X195337500Y-69450000D02*
X194337500Y-69450000D01*
X194337500Y-83450000D02*
X195337500Y-83450000D01*
X194337500Y-70450000D02*
X194337500Y-69450000D01*
X208337500Y-69450000D02*
X208337500Y-70450000D01*
X208337500Y-69450000D02*
X207337500Y-69450000D01*
D12*
X191812500Y-66925000D02*
X210862500Y-66925000D01*
X210862500Y-85975000D02*
X191812500Y-85975000D01*
D11*
X208337500Y-82450000D02*
X208337500Y-83450000D01*
D12*
X210862500Y-66925000D02*
X210862500Y-85975000D01*
X191812500Y-85975000D02*
X191812500Y-66925000D01*
D11*
X194337500Y-83450000D02*
X194337500Y-82450000D01*
X208337500Y-83450000D02*
X207337500Y-83450000D01*
D10*
X102945686Y-62960140D02*
X104642742Y-64657196D01*
X103016397Y-62889429D02*
X104713453Y-64586485D01*
X106534253Y-59371573D02*
X108231309Y-61068629D01*
X102574455Y-63331371D02*
X104271511Y-65028427D01*
X103087107Y-62818718D02*
X104784164Y-64515775D01*
X102821942Y-63083883D02*
X104518999Y-64780940D01*
X102574455Y-63331371D02*
X106534253Y-59371573D01*
X108231309Y-61068629D02*
X104271511Y-65028427D01*
X102698199Y-63207627D02*
X104395255Y-64904683D01*
D11*
X73987500Y-121550000D02*
X74987500Y-121550000D01*
X74987500Y-121550000D02*
X73987500Y-121550000D01*
X74987500Y-107550000D02*
X73987500Y-107550000D01*
D12*
X58462500Y-124075000D02*
X58462500Y-105025000D01*
D11*
X74987500Y-120550000D02*
X74987500Y-121550000D01*
X60987500Y-121550000D02*
X60987500Y-120550000D01*
D12*
X77512500Y-105025000D02*
X77512500Y-124075000D01*
X77512500Y-124075000D02*
X58462500Y-124075000D01*
X58462500Y-105025000D02*
X77512500Y-105025000D01*
D11*
X60987500Y-108550000D02*
X60987500Y-107550000D01*
X61987500Y-107550000D02*
X60987500Y-107550000D01*
X74987500Y-107550000D02*
X74987500Y-108550000D01*
X60987500Y-121550000D02*
X61987500Y-121550000D01*
D10*
X195744998Y-63083883D02*
X197442055Y-64780940D01*
X195621255Y-63207627D02*
X197318311Y-64904683D01*
X201154365Y-61068629D02*
X197194567Y-65028427D01*
X195497511Y-63331371D02*
X199457309Y-59371573D01*
X196010163Y-62818718D02*
X197707220Y-64515775D01*
X199457309Y-59371573D02*
X201154365Y-61068629D01*
X195939453Y-62889429D02*
X197636509Y-64586485D01*
X195497511Y-63331371D02*
X197194567Y-65028427D01*
X195868742Y-62960140D02*
X197565798Y-64657196D01*
D12*
X172762500Y-85975000D02*
X172762500Y-105025000D01*
D11*
X156237500Y-102500000D02*
X157237500Y-102500000D01*
D12*
X153712500Y-85975000D02*
X172762500Y-85975000D01*
D11*
X156237500Y-102500000D02*
X156237500Y-101500000D01*
X170237500Y-101500000D02*
X170237500Y-102500000D01*
X170237500Y-102500000D02*
X169237500Y-102500000D01*
D12*
X153712500Y-105025000D02*
X153712500Y-85975000D01*
D11*
X157237500Y-88500000D02*
X156237500Y-88500000D01*
X156237500Y-89500000D02*
X156237500Y-88500000D01*
X170237500Y-88500000D02*
X170237500Y-89500000D01*
X169237500Y-102500000D02*
X170237500Y-102500000D01*
D12*
X172762500Y-105025000D02*
X153712500Y-105025000D01*
D11*
X170237500Y-88500000D02*
X169237500Y-88500000D01*
D12*
X210862500Y-143125000D02*
X191812500Y-143125000D01*
X191812500Y-143125000D02*
X191812500Y-124075000D01*
D11*
X195337500Y-126600000D02*
X194337500Y-126600000D01*
X208337500Y-126600000D02*
X208337500Y-127600000D01*
X207337500Y-140600000D02*
X208337500Y-140600000D01*
D12*
X191812500Y-124075000D02*
X210862500Y-124075000D01*
D11*
X194337500Y-127600000D02*
X194337500Y-126600000D01*
D12*
X210862500Y-124075000D02*
X210862500Y-143125000D01*
D11*
X208337500Y-139600000D02*
X208337500Y-140600000D01*
X208337500Y-140600000D02*
X207337500Y-140600000D01*
X208337500Y-126600000D02*
X207337500Y-126600000D01*
X194337500Y-140600000D02*
X195337500Y-140600000D01*
X194337500Y-140600000D02*
X194337500Y-139600000D01*
X208337500Y-88500000D02*
X207337500Y-88500000D01*
X208337500Y-101500000D02*
X208337500Y-102500000D01*
X195337500Y-88500000D02*
X194337500Y-88500000D01*
D12*
X191812500Y-85975000D02*
X210862500Y-85975000D01*
D11*
X207337500Y-102500000D02*
X208337500Y-102500000D01*
X194337500Y-102500000D02*
X195337500Y-102500000D01*
X208337500Y-102500000D02*
X207337500Y-102500000D01*
X208337500Y-88500000D02*
X208337500Y-89500000D01*
D12*
X210862500Y-105025000D02*
X191812500Y-105025000D01*
D11*
X194337500Y-89500000D02*
X194337500Y-88500000D01*
X194337500Y-102500000D02*
X194337500Y-101500000D01*
D12*
X210862500Y-85975000D02*
X210862500Y-105025000D01*
X191812500Y-105025000D02*
X191812500Y-85975000D01*
D10*
X141805047Y-62818718D02*
X143502104Y-64515775D01*
X141734337Y-62889429D02*
X143431393Y-64586485D01*
X141416139Y-63207627D02*
X143113195Y-64904683D01*
X141292395Y-63331371D02*
X145252193Y-59371573D01*
X141539882Y-63083883D02*
X143236939Y-64780940D01*
X141292395Y-63331371D02*
X142989451Y-65028427D01*
X146949249Y-61068629D02*
X142989451Y-65028427D01*
X141663626Y-62960140D02*
X143360682Y-64657196D01*
X145252193Y-59371573D02*
X146949249Y-61068629D01*
X149548635Y-62818718D02*
X151245692Y-64515775D01*
X149477925Y-62889429D02*
X151174981Y-64586485D01*
X154692837Y-61068629D02*
X150733039Y-65028427D01*
X149159727Y-63207627D02*
X150856783Y-64904683D01*
X149035983Y-63331371D02*
X152995781Y-59371573D01*
X149283470Y-63083883D02*
X150980527Y-64780940D01*
X152995781Y-59371573D02*
X154692837Y-61068629D01*
X149035983Y-63331371D02*
X150733039Y-65028427D01*
X149407214Y-62960140D02*
X151104270Y-64657196D01*
X170180013Y-61068629D02*
X166220215Y-65028427D01*
X168482957Y-59371573D02*
X170180013Y-61068629D01*
X164523159Y-63331371D02*
X166220215Y-65028427D01*
X164770646Y-63083883D02*
X166467703Y-64780940D01*
X164646903Y-63207627D02*
X166343959Y-64904683D01*
X164965101Y-62889429D02*
X166662157Y-64586485D01*
X165035811Y-62818718D02*
X166732868Y-64515775D01*
X164894390Y-62960140D02*
X166591446Y-64657196D01*
X164523159Y-63331371D02*
X168482957Y-59371573D01*
X118432862Y-62960140D02*
X120129918Y-64657196D01*
X118309118Y-63083883D02*
X120006175Y-64780940D01*
X118061631Y-63331371D02*
X119758687Y-65028427D01*
X118185375Y-63207627D02*
X119882431Y-64904683D01*
X118061631Y-63331371D02*
X122021429Y-59371573D01*
X118574283Y-62818718D02*
X120271340Y-64515775D01*
X123718485Y-61068629D02*
X119758687Y-65028427D01*
X122021429Y-59371573D02*
X123718485Y-61068629D01*
X118503573Y-62889429D02*
X120200629Y-64586485D01*
X222847556Y-63083883D02*
X224544613Y-64780940D01*
X228256923Y-61068629D02*
X224297125Y-65028427D01*
X223042011Y-62889429D02*
X224739067Y-64586485D01*
X222723813Y-63207627D02*
X224420869Y-64904683D01*
X226559867Y-59371573D02*
X228256923Y-61068629D01*
X222971300Y-62960140D02*
X224668356Y-64657196D01*
X222600069Y-63331371D02*
X226559867Y-59371573D01*
X222600069Y-63331371D02*
X224297125Y-65028427D01*
X223112721Y-62818718D02*
X224809778Y-64515775D01*
X226984515Y-62818718D02*
X228681572Y-64515775D01*
X226913805Y-62889429D02*
X228610861Y-64586485D01*
X232128717Y-61068629D02*
X228168919Y-65028427D01*
X230431661Y-59371573D02*
X232128717Y-61068629D01*
X226471863Y-63331371D02*
X230431661Y-59371573D01*
X226595607Y-63207627D02*
X228292663Y-64904683D01*
X226719350Y-63083883D02*
X228416407Y-64780940D01*
X226843094Y-62960140D02*
X228540150Y-64657196D01*
X226471863Y-63331371D02*
X228168919Y-65028427D01*
X207200897Y-59371573D02*
X208897953Y-61068629D01*
X203488586Y-63083883D02*
X205185643Y-64780940D01*
X203241099Y-63331371D02*
X204938155Y-65028427D01*
X208897953Y-61068629D02*
X204938155Y-65028427D01*
X203364843Y-63207627D02*
X205061899Y-64904683D01*
X203683041Y-62889429D02*
X205380097Y-64586485D01*
X203241099Y-63331371D02*
X207200897Y-59371573D01*
X203612330Y-62960140D02*
X205309386Y-64657196D01*
X203753751Y-62818718D02*
X205450808Y-64515775D01*
D11*
X132137500Y-83450000D02*
X131137500Y-83450000D01*
D12*
X115612500Y-85975000D02*
X115612500Y-66925000D01*
D11*
X132137500Y-69450000D02*
X131137500Y-69450000D01*
X118137500Y-83450000D02*
X119137500Y-83450000D01*
X119137500Y-69450000D02*
X118137500Y-69450000D01*
X132137500Y-69450000D02*
X132137500Y-70450000D01*
X118137500Y-70450000D02*
X118137500Y-69450000D01*
D12*
X134662500Y-85975000D02*
X115612500Y-85975000D01*
D11*
X118137500Y-83450000D02*
X118137500Y-82450000D01*
X131137500Y-83450000D02*
X132137500Y-83450000D01*
D12*
X134662500Y-66925000D02*
X134662500Y-85975000D01*
D11*
X132137500Y-82450000D02*
X132137500Y-83450000D01*
D12*
X115612500Y-66925000D02*
X134662500Y-66925000D01*
D10*
X156779571Y-63331371D02*
X158476627Y-65028427D01*
X157150802Y-62960140D02*
X158847858Y-64657196D01*
X160739369Y-59371573D02*
X162436425Y-61068629D01*
X157027058Y-63083883D02*
X158724115Y-64780940D01*
X157221513Y-62889429D02*
X158918569Y-64586485D01*
X156903315Y-63207627D02*
X158600371Y-64904683D01*
X157292223Y-62818718D02*
X158989280Y-64515775D01*
X162436425Y-61068629D02*
X158476627Y-65028427D01*
X156779571Y-63331371D02*
X160739369Y-59371573D01*
D12*
X115612500Y-124075000D02*
X115612500Y-143125000D01*
D11*
X113087500Y-140600000D02*
X112087500Y-140600000D01*
X99087500Y-127600000D02*
X99087500Y-126600000D01*
X113087500Y-139600000D02*
X113087500Y-140600000D01*
X113087500Y-126600000D02*
X112087500Y-126600000D01*
X99087500Y-140600000D02*
X100087500Y-140600000D01*
D12*
X115612500Y-143125000D02*
X96562500Y-143125000D01*
D11*
X99087500Y-140600000D02*
X99087500Y-139600000D01*
D12*
X96562500Y-124075000D02*
X115612500Y-124075000D01*
X96562500Y-143125000D02*
X96562500Y-124075000D01*
D11*
X112087500Y-140600000D02*
X113087500Y-140600000D01*
X100087500Y-126600000D02*
X99087500Y-126600000D01*
X113087500Y-126600000D02*
X113087500Y-127600000D01*
D10*
X230343657Y-63331371D02*
X232040713Y-65028427D01*
X230591144Y-63083883D02*
X232288201Y-64780940D01*
X230785599Y-62889429D02*
X232482655Y-64586485D01*
X230714888Y-62960140D02*
X232411944Y-64657196D01*
X230856309Y-62818718D02*
X232553366Y-64515775D01*
X230467401Y-63207627D02*
X232164457Y-64904683D01*
X236000511Y-61068629D02*
X232040713Y-65028427D01*
X230343657Y-63331371D02*
X234303455Y-59371573D01*
X234303455Y-59371573D02*
X236000511Y-61068629D01*
X129765017Y-59371573D02*
X131462073Y-61068629D01*
X126317871Y-62818718D02*
X128014928Y-64515775D01*
X125928963Y-63207627D02*
X127626019Y-64904683D01*
X125805219Y-63331371D02*
X127502275Y-65028427D01*
X126176450Y-62960140D02*
X127873506Y-64657196D01*
X126052706Y-63083883D02*
X127749763Y-64780940D01*
X125805219Y-63331371D02*
X129765017Y-59371573D01*
X131462073Y-61068629D02*
X127502275Y-65028427D01*
X126247161Y-62889429D02*
X127944217Y-64586485D01*
D11*
X246437500Y-139600000D02*
X246437500Y-140600000D01*
X232437500Y-140600000D02*
X232437500Y-139600000D01*
X246437500Y-126600000D02*
X245437500Y-126600000D01*
D12*
X248962500Y-143125000D02*
X229912500Y-143125000D01*
D11*
X232437500Y-140600000D02*
X233437500Y-140600000D01*
X246437500Y-140600000D02*
X245437500Y-140600000D01*
X233437500Y-126600000D02*
X232437500Y-126600000D01*
X246437500Y-126600000D02*
X246437500Y-127600000D01*
X232437500Y-127600000D02*
X232437500Y-126600000D01*
D12*
X229912500Y-124075000D02*
X248962500Y-124075000D01*
D11*
X245437500Y-140600000D02*
X246437500Y-140600000D01*
D12*
X229912500Y-143125000D02*
X229912500Y-124075000D01*
X248962500Y-124075000D02*
X248962500Y-143125000D01*
X134662500Y-105025000D02*
X134662500Y-85975000D01*
D11*
X150187500Y-102500000D02*
X151187500Y-102500000D01*
D12*
X134662500Y-85975000D02*
X153712500Y-85975000D01*
D11*
X137187500Y-102500000D02*
X138187500Y-102500000D01*
X137187500Y-89500000D02*
X137187500Y-88500000D01*
X138187500Y-88500000D02*
X137187500Y-88500000D01*
X137187500Y-102500000D02*
X137187500Y-101500000D01*
X151187500Y-102500000D02*
X150187500Y-102500000D01*
X151187500Y-88500000D02*
X151187500Y-89500000D01*
D12*
X153712500Y-105025000D02*
X134662500Y-105025000D01*
D11*
X151187500Y-88500000D02*
X150187500Y-88500000D01*
D12*
X153712500Y-85975000D02*
X153712500Y-105025000D01*
D11*
X151187500Y-101500000D02*
X151187500Y-102500000D01*
D10*
X153155264Y-63083883D02*
X154852321Y-64780940D01*
X153420429Y-62818718D02*
X155117486Y-64515775D01*
X156867575Y-59371573D02*
X158564631Y-61068629D01*
X158564631Y-61068629D02*
X154604833Y-65028427D01*
X152907777Y-63331371D02*
X154604833Y-65028427D01*
X153031521Y-63207627D02*
X154728577Y-64904683D01*
X153349719Y-62889429D02*
X155046775Y-64586485D01*
X152907777Y-63331371D02*
X156867575Y-59371573D01*
X153279008Y-62960140D02*
X154976064Y-64657196D01*
X214856481Y-63331371D02*
X218816279Y-59371573D01*
X214856481Y-63331371D02*
X216553537Y-65028427D01*
X215369133Y-62818718D02*
X217066190Y-64515775D01*
X218816279Y-59371573D02*
X220513335Y-61068629D01*
X215103968Y-63083883D02*
X216801025Y-64780940D01*
X220513335Y-61068629D02*
X216553537Y-65028427D01*
X215227712Y-62960140D02*
X216924768Y-64657196D01*
X215298423Y-62889429D02*
X216995479Y-64586485D01*
X214980225Y-63207627D02*
X216677281Y-64904683D01*
D11*
X137187500Y-70450000D02*
X137187500Y-69450000D01*
X138187500Y-69450000D02*
X137187500Y-69450000D01*
X151187500Y-69450000D02*
X150187500Y-69450000D01*
D12*
X134662500Y-66925000D02*
X153712500Y-66925000D01*
X153712500Y-66925000D02*
X153712500Y-85975000D01*
D11*
X151187500Y-82450000D02*
X151187500Y-83450000D01*
X151187500Y-83450000D02*
X150187500Y-83450000D01*
D12*
X134662500Y-85975000D02*
X134662500Y-66925000D01*
D11*
X137187500Y-83450000D02*
X137187500Y-82450000D01*
X150187500Y-83450000D02*
X151187500Y-83450000D01*
X151187500Y-69450000D02*
X151187500Y-70450000D01*
D12*
X153712500Y-85975000D02*
X134662500Y-85975000D01*
D11*
X137187500Y-83450000D02*
X138187500Y-83450000D01*
X112087500Y-121550000D02*
X113087500Y-121550000D01*
X113087500Y-121550000D02*
X112087500Y-121550000D01*
X113087500Y-107550000D02*
X112087500Y-107550000D01*
D12*
X96562500Y-105025000D02*
X115612500Y-105025000D01*
D11*
X113087500Y-107550000D02*
X113087500Y-108550000D01*
D12*
X115612500Y-124075000D02*
X96562500Y-124075000D01*
D11*
X100087500Y-107550000D02*
X99087500Y-107550000D01*
X99087500Y-121550000D02*
X99087500Y-120550000D01*
X99087500Y-108550000D02*
X99087500Y-107550000D01*
D12*
X96562500Y-124075000D02*
X96562500Y-105025000D01*
X115612500Y-105025000D02*
X115612500Y-124075000D01*
D11*
X113087500Y-120550000D02*
X113087500Y-121550000D01*
X99087500Y-121550000D02*
X100087500Y-121550000D01*
D10*
X234215451Y-63331371D02*
X238175249Y-59371573D01*
X234215451Y-63331371D02*
X235912507Y-65028427D01*
X238175249Y-59371573D02*
X239872305Y-61068629D01*
X234657393Y-62889429D02*
X236354449Y-64586485D01*
X234339195Y-63207627D02*
X236036251Y-64904683D01*
X234462938Y-63083883D02*
X236159995Y-64780940D01*
X234586682Y-62960140D02*
X236283738Y-64657196D01*
X234728103Y-62818718D02*
X236425160Y-64515775D01*
X239872305Y-61068629D02*
X235912507Y-65028427D01*
X145164189Y-63331371D02*
X149123987Y-59371573D01*
X145287933Y-63207627D02*
X146984989Y-64904683D01*
X145535420Y-62960140D02*
X147232476Y-64657196D01*
X145676841Y-62818718D02*
X147373898Y-64515775D01*
X145411676Y-63083883D02*
X147108733Y-64780940D01*
X149123987Y-59371573D02*
X150821043Y-61068629D01*
X150821043Y-61068629D02*
X146861245Y-65028427D01*
X145164189Y-63331371D02*
X146861245Y-65028427D01*
X145606131Y-62889429D02*
X147303187Y-64586485D01*
X141380399Y-59371573D02*
X143077455Y-61068629D01*
X137791832Y-62960140D02*
X139488888Y-64657196D01*
X137420601Y-63331371D02*
X141380399Y-59371573D01*
X137544345Y-63207627D02*
X139241401Y-64904683D01*
X137862543Y-62889429D02*
X139559599Y-64586485D01*
X137933253Y-62818718D02*
X139630310Y-64515775D01*
X137668088Y-63083883D02*
X139365145Y-64780940D01*
X143077455Y-61068629D02*
X139117657Y-65028427D01*
X137420601Y-63331371D02*
X139117657Y-65028427D01*
D12*
X248962500Y-66925000D02*
X248962500Y-85975000D01*
D11*
X246437500Y-69450000D02*
X246437500Y-70450000D01*
D12*
X229912500Y-85975000D02*
X229912500Y-66925000D01*
D11*
X245437500Y-83450000D02*
X246437500Y-83450000D01*
X246437500Y-82450000D02*
X246437500Y-83450000D01*
X246437500Y-83450000D02*
X245437500Y-83450000D01*
X232437500Y-70450000D02*
X232437500Y-69450000D01*
X233437500Y-69450000D02*
X232437500Y-69450000D01*
X232437500Y-83450000D02*
X232437500Y-82450000D01*
D12*
X229912500Y-66925000D02*
X248962500Y-66925000D01*
D11*
X232437500Y-83450000D02*
X233437500Y-83450000D01*
X246437500Y-69450000D02*
X245437500Y-69450000D01*
D12*
X248962500Y-85975000D02*
X229912500Y-85975000D01*
D11*
X94037500Y-88500000D02*
X93037500Y-88500000D01*
X80037500Y-102500000D02*
X80037500Y-101500000D01*
D12*
X96562500Y-105025000D02*
X77512500Y-105025000D01*
D11*
X94037500Y-88500000D02*
X94037500Y-89500000D01*
D12*
X77512500Y-85975000D02*
X96562500Y-85975000D01*
D11*
X81037500Y-88500000D02*
X80037500Y-88500000D01*
X94037500Y-101500000D02*
X94037500Y-102500000D01*
X80037500Y-102500000D02*
X81037500Y-102500000D01*
X94037500Y-102500000D02*
X93037500Y-102500000D01*
X93037500Y-102500000D02*
X94037500Y-102500000D01*
X80037500Y-89500000D02*
X80037500Y-88500000D01*
D12*
X77512500Y-105025000D02*
X77512500Y-85975000D01*
X96562500Y-85975000D02*
X96562500Y-105025000D01*
X210862500Y-124075000D02*
X210862500Y-105025000D01*
D11*
X227387500Y-120550000D02*
X227387500Y-121550000D01*
D12*
X210862500Y-105025000D02*
X229912500Y-105025000D01*
D11*
X226387500Y-121550000D02*
X227387500Y-121550000D01*
D12*
X229912500Y-124075000D02*
X210862500Y-124075000D01*
D11*
X227387500Y-107550000D02*
X227387500Y-108550000D01*
X214387500Y-107550000D02*
X213387500Y-107550000D01*
X213387500Y-121550000D02*
X214387500Y-121550000D01*
X213387500Y-121550000D02*
X213387500Y-120550000D01*
X213387500Y-108550000D02*
X213387500Y-107550000D01*
X227387500Y-121550000D02*
X226387500Y-121550000D01*
D12*
X229912500Y-105025000D02*
X229912500Y-124075000D01*
D11*
X227387500Y-107550000D02*
X226387500Y-107550000D01*
D10*
X197282571Y-61068629D02*
X193322773Y-65028427D01*
X191749461Y-63207627D02*
X193446517Y-64904683D01*
X191873204Y-63083883D02*
X193570261Y-64780940D01*
X192067659Y-62889429D02*
X193764715Y-64586485D01*
X191625717Y-63331371D02*
X195585515Y-59371573D01*
X191625717Y-63331371D02*
X193322773Y-65028427D01*
X191996948Y-62960140D02*
X193694004Y-64657196D01*
X192138369Y-62818718D02*
X193835426Y-64515775D01*
X195585515Y-59371573D02*
X197282571Y-61068629D01*
D11*
X150187500Y-121550000D02*
X151187500Y-121550000D01*
X137187500Y-121550000D02*
X138187500Y-121550000D01*
X138187500Y-107550000D02*
X137187500Y-107550000D01*
D12*
X134662500Y-105025000D02*
X153712500Y-105025000D01*
D11*
X137187500Y-121550000D02*
X137187500Y-120550000D01*
X151187500Y-107550000D02*
X150187500Y-107550000D01*
X151187500Y-121550000D02*
X150187500Y-121550000D01*
D12*
X134662500Y-124075000D02*
X134662500Y-105025000D01*
D11*
X151187500Y-120550000D02*
X151187500Y-121550000D01*
D12*
X153712500Y-124075000D02*
X134662500Y-124075000D01*
D11*
X151187500Y-107550000D02*
X151187500Y-108550000D01*
D12*
X153712500Y-105025000D02*
X153712500Y-124075000D01*
D11*
X137187500Y-108550000D02*
X137187500Y-107550000D01*
D12*
X229912500Y-85975000D02*
X229912500Y-105025000D01*
D11*
X227387500Y-101500000D02*
X227387500Y-102500000D01*
X227387500Y-88500000D02*
X227387500Y-89500000D01*
X213387500Y-102500000D02*
X213387500Y-101500000D01*
D12*
X229912500Y-105025000D02*
X210862500Y-105025000D01*
D11*
X227387500Y-88500000D02*
X226387500Y-88500000D01*
X214387500Y-88500000D02*
X213387500Y-88500000D01*
X213387500Y-89500000D02*
X213387500Y-88500000D01*
D12*
X210862500Y-85975000D02*
X229912500Y-85975000D01*
D11*
X227387500Y-102500000D02*
X226387500Y-102500000D01*
X213387500Y-102500000D02*
X214387500Y-102500000D01*
D12*
X210862500Y-105025000D02*
X210862500Y-85975000D01*
D11*
X226387500Y-102500000D02*
X227387500Y-102500000D01*
X74987500Y-140600000D02*
X73987500Y-140600000D01*
D12*
X77512500Y-124075000D02*
X77512500Y-143125000D01*
D11*
X74987500Y-139600000D02*
X74987500Y-140600000D01*
D12*
X58462500Y-143125000D02*
X58462500Y-124075000D01*
X58462500Y-124075000D02*
X77512500Y-124075000D01*
D11*
X60987500Y-127600000D02*
X60987500Y-126600000D01*
X74987500Y-126600000D02*
X74987500Y-127600000D01*
X61987500Y-126600000D02*
X60987500Y-126600000D01*
X73987500Y-140600000D02*
X74987500Y-140600000D01*
X60987500Y-140600000D02*
X60987500Y-139600000D01*
X74987500Y-126600000D02*
X73987500Y-126600000D01*
D12*
X77512500Y-143125000D02*
X58462500Y-143125000D01*
D11*
X60987500Y-140600000D02*
X61987500Y-140600000D01*
D10*
X207484124Y-62960140D02*
X209181180Y-64657196D01*
X207112893Y-63331371D02*
X208809949Y-65028427D01*
X211072691Y-59371573D02*
X212769747Y-61068629D01*
X207236637Y-63207627D02*
X208933693Y-64904683D01*
X207360380Y-63083883D02*
X209057437Y-64780940D01*
X207554835Y-62889429D02*
X209251891Y-64586485D01*
X207625545Y-62818718D02*
X209322602Y-64515775D01*
X212769747Y-61068629D02*
X208809949Y-65028427D01*
X207112893Y-63331371D02*
X211072691Y-59371573D01*
X245918837Y-59371573D02*
X247615893Y-61068629D01*
X247615893Y-61068629D02*
X243656095Y-65028427D01*
X242400981Y-62889429D02*
X244098037Y-64586485D01*
X242082783Y-63207627D02*
X243779839Y-64904683D01*
X242206526Y-63083883D02*
X243903583Y-64780940D01*
X241959039Y-63331371D02*
X245918837Y-59371573D01*
X242471691Y-62818718D02*
X244168748Y-64515775D01*
X241959039Y-63331371D02*
X243656095Y-65028427D01*
X242330270Y-62960140D02*
X244027326Y-64657196D01*
X94954611Y-63207627D02*
X96651667Y-64904683D01*
X95272809Y-62889429D02*
X96969865Y-64586485D01*
X98790665Y-59371573D02*
X100487721Y-61068629D01*
X100487721Y-61068629D02*
X96527923Y-65028427D01*
X94830867Y-63331371D02*
X96527923Y-65028427D01*
X95343519Y-62818718D02*
X97040576Y-64515775D01*
X95202098Y-62960140D02*
X96899154Y-64657196D01*
X94830867Y-63331371D02*
X98790665Y-59371573D01*
X95078354Y-63083883D02*
X96775411Y-64780940D01*
X110689274Y-62960140D02*
X112386330Y-64657196D01*
X110441787Y-63207627D02*
X112138843Y-64904683D01*
X110318043Y-63331371D02*
X114277841Y-59371573D01*
X110830695Y-62818718D02*
X112527752Y-64515775D01*
X110759985Y-62889429D02*
X112457041Y-64586485D01*
X115974897Y-61068629D02*
X112015099Y-65028427D01*
X114277841Y-59371573D02*
X115974897Y-61068629D01*
X110565530Y-63083883D02*
X112262587Y-64780940D01*
X110318043Y-63331371D02*
X112015099Y-65028427D01*
D12*
X77512500Y-105025000D02*
X96562500Y-105025000D01*
X96562500Y-124075000D02*
X77512500Y-124075000D01*
D11*
X94037500Y-120550000D02*
X94037500Y-121550000D01*
D12*
X77512500Y-124075000D02*
X77512500Y-105025000D01*
D11*
X93037500Y-121550000D02*
X94037500Y-121550000D01*
D12*
X96562500Y-105025000D02*
X96562500Y-124075000D01*
D11*
X80037500Y-108550000D02*
X80037500Y-107550000D01*
X94037500Y-121550000D02*
X93037500Y-121550000D01*
X94037500Y-107550000D02*
X93037500Y-107550000D01*
X80037500Y-121550000D02*
X80037500Y-120550000D01*
X80037500Y-121550000D02*
X81037500Y-121550000D01*
X94037500Y-107550000D02*
X94037500Y-108550000D01*
X81037500Y-107550000D02*
X80037500Y-107550000D01*
D10*
X172266747Y-63331371D02*
X176226545Y-59371573D01*
X172390491Y-63207627D02*
X174087547Y-64904683D01*
X177923601Y-61068629D02*
X173963803Y-65028427D01*
X172637978Y-62960140D02*
X174335034Y-64657196D01*
X172779399Y-62818718D02*
X174476456Y-64515775D01*
X172266747Y-63331371D02*
X173963803Y-65028427D01*
X176226545Y-59371573D02*
X177923601Y-61068629D01*
X172514234Y-63083883D02*
X174211291Y-64780940D01*
X172708689Y-62889429D02*
X174405745Y-64586485D01*
D11*
X60987500Y-83450000D02*
X61987500Y-83450000D01*
D12*
X58462500Y-66925000D02*
X77512500Y-66925000D01*
D11*
X74987500Y-83450000D02*
X73987500Y-83450000D01*
D12*
X77512500Y-66925000D02*
X77512500Y-85975000D01*
D11*
X74987500Y-82450000D02*
X74987500Y-83450000D01*
D12*
X77512500Y-85975000D02*
X58462500Y-85975000D01*
D11*
X74987500Y-69450000D02*
X74987500Y-70450000D01*
X74987500Y-69450000D02*
X73987500Y-69450000D01*
X73987500Y-83450000D02*
X74987500Y-83450000D01*
X61987500Y-69450000D02*
X60987500Y-69450000D01*
X60987500Y-83450000D02*
X60987500Y-82450000D01*
X60987500Y-70450000D02*
X60987500Y-69450000D01*
D12*
X58462500Y-85975000D02*
X58462500Y-66925000D01*
D10*
X122446077Y-62818718D02*
X124143134Y-64515775D01*
X122304656Y-62960140D02*
X124001712Y-64657196D01*
X121933425Y-63331371D02*
X123630481Y-65028427D01*
X122057169Y-63207627D02*
X123754225Y-64904683D01*
X122375367Y-62889429D02*
X124072423Y-64586485D01*
X122180912Y-63083883D02*
X123877969Y-64780940D01*
X127590279Y-61068629D02*
X123630481Y-65028427D01*
X125893223Y-59371573D02*
X127590279Y-61068629D01*
X121933425Y-63331371D02*
X125893223Y-59371573D01*
X199369305Y-63331371D02*
X201066361Y-65028427D01*
X199369305Y-63331371D02*
X203329103Y-59371573D01*
X203329103Y-59371573D02*
X205026159Y-61068629D01*
X199811247Y-62889429D02*
X201508303Y-64586485D01*
X199616792Y-63083883D02*
X201313849Y-64780940D01*
X199740536Y-62960140D02*
X201437592Y-64657196D01*
X205026159Y-61068629D02*
X201066361Y-65028427D01*
X199881957Y-62818718D02*
X201579014Y-64515775D01*
X199493049Y-63207627D02*
X201190105Y-64904683D01*
D11*
X119137500Y-88500000D02*
X118137500Y-88500000D01*
X132137500Y-101500000D02*
X132137500Y-102500000D01*
D12*
X134662500Y-85975000D02*
X134662500Y-105025000D01*
X115612500Y-85975000D02*
X134662500Y-85975000D01*
D11*
X132137500Y-88500000D02*
X131137500Y-88500000D01*
X118137500Y-102500000D02*
X119137500Y-102500000D01*
X132137500Y-102500000D02*
X131137500Y-102500000D01*
X131137500Y-102500000D02*
X132137500Y-102500000D01*
D12*
X134662500Y-105025000D02*
X115612500Y-105025000D01*
D11*
X118137500Y-102500000D02*
X118137500Y-101500000D01*
D12*
X115612500Y-105025000D02*
X115612500Y-85975000D01*
D11*
X132137500Y-88500000D02*
X132137500Y-89500000D01*
X118137500Y-89500000D02*
X118137500Y-88500000D01*
X56007500Y-53681420D02*
X58547500Y-53681420D01*
X58547500Y-48601420D02*
X89027500Y-48601420D01*
X56007500Y-61301420D02*
X56007500Y-53681420D01*
X58547500Y-66381420D02*
X58547500Y-61301420D01*
X58547500Y-66381420D02*
X89027500Y-66381420D01*
X58547500Y-53681420D02*
X58547500Y-48601420D01*
X89027500Y-48601420D02*
X89027500Y-66381420D01*
X58547500Y-61301420D02*
X56007500Y-61301420D01*
D10*
X168642440Y-63083883D02*
X170339497Y-64780940D01*
X168766184Y-62960140D02*
X170463240Y-64657196D01*
X168518697Y-63207627D02*
X170215753Y-64904683D01*
X168836895Y-62889429D02*
X170533951Y-64586485D01*
X174051807Y-61068629D02*
X170092009Y-65028427D01*
X172354751Y-59371573D02*
X174051807Y-61068629D01*
X168394953Y-63331371D02*
X172354751Y-59371573D01*
X168907605Y-62818718D02*
X170604662Y-64515775D01*
X168394953Y-63331371D02*
X170092009Y-65028427D01*
X90959073Y-63331371D02*
X92656129Y-65028427D01*
X96615927Y-61068629D02*
X92656129Y-65028427D01*
X91082817Y-63207627D02*
X92779873Y-64904683D01*
X91401015Y-62889429D02*
X93098071Y-64586485D01*
X94918871Y-59371573D02*
X96615927Y-61068629D01*
X91471725Y-62818718D02*
X93168782Y-64515775D01*
X91330304Y-62960140D02*
X93027360Y-64657196D01*
X90959073Y-63331371D02*
X94918871Y-59371573D01*
X91206560Y-63083883D02*
X92903617Y-64780940D01*
D11*
X170237500Y-126600000D02*
X169237500Y-126600000D01*
X170237500Y-139600000D02*
X170237500Y-140600000D01*
X157237500Y-126600000D02*
X156237500Y-126600000D01*
D12*
X153712500Y-143125000D02*
X153712500Y-124075000D01*
D11*
X170237500Y-126600000D02*
X170237500Y-127600000D01*
X170237500Y-140600000D02*
X169237500Y-140600000D01*
D12*
X172762500Y-143125000D02*
X153712500Y-143125000D01*
D11*
X156237500Y-140600000D02*
X156237500Y-139600000D01*
D12*
X153712500Y-124075000D02*
X172762500Y-124075000D01*
D11*
X156237500Y-140600000D02*
X157237500Y-140600000D01*
X169237500Y-140600000D02*
X170237500Y-140600000D01*
D12*
X172762500Y-124075000D02*
X172762500Y-143125000D01*
D11*
X156237500Y-127600000D02*
X156237500Y-126600000D01*
X156237500Y-121550000D02*
X156237500Y-120550000D01*
X157237500Y-107550000D02*
X156237500Y-107550000D01*
X170237500Y-120550000D02*
X170237500Y-121550000D01*
X170237500Y-121550000D02*
X169237500Y-121550000D01*
D12*
X172762500Y-124075000D02*
X153712500Y-124075000D01*
X153712500Y-124075000D02*
X153712500Y-105025000D01*
D11*
X156237500Y-121550000D02*
X157237500Y-121550000D01*
X170237500Y-107550000D02*
X169237500Y-107550000D01*
D12*
X172762500Y-105025000D02*
X172762500Y-124075000D01*
X153712500Y-105025000D02*
X172762500Y-105025000D01*
D11*
X169237500Y-121550000D02*
X170237500Y-121550000D01*
X170237500Y-107550000D02*
X170237500Y-108550000D01*
X156237500Y-108550000D02*
X156237500Y-107550000D01*
D10*
X219170217Y-62889429D02*
X220867273Y-64586485D01*
X218852019Y-63207627D02*
X220549075Y-64904683D01*
X218728275Y-63331371D02*
X220425331Y-65028427D01*
X222688073Y-59371573D02*
X224385129Y-61068629D01*
X219240927Y-62818718D02*
X220937984Y-64515775D01*
X218728275Y-63331371D02*
X222688073Y-59371573D01*
X219099506Y-62960140D02*
X220796562Y-64657196D01*
X224385129Y-61068629D02*
X220425331Y-65028427D01*
X218975762Y-63083883D02*
X220672819Y-64780940D01*
D11*
X189287500Y-82450000D02*
X189287500Y-83450000D01*
D12*
X191812500Y-85975000D02*
X172762500Y-85975000D01*
D11*
X189287500Y-69450000D02*
X189287500Y-70450000D01*
X175287500Y-70450000D02*
X175287500Y-69450000D01*
D12*
X172762500Y-66925000D02*
X191812500Y-66925000D01*
D11*
X188287500Y-83450000D02*
X189287500Y-83450000D01*
D12*
X191812500Y-66925000D02*
X191812500Y-85975000D01*
D11*
X189287500Y-69450000D02*
X188287500Y-69450000D01*
X176287500Y-69450000D02*
X175287500Y-69450000D01*
X189287500Y-83450000D02*
X188287500Y-83450000D01*
X175287500Y-83450000D02*
X176287500Y-83450000D01*
X175287500Y-83450000D02*
X175287500Y-82450000D01*
D12*
X172762500Y-85975000D02*
X172762500Y-66925000D01*
D10*
X176651193Y-62818718D02*
X178348250Y-64515775D01*
X180098339Y-59371573D02*
X181795395Y-61068629D01*
X176138541Y-63331371D02*
X177835597Y-65028427D01*
X176262285Y-63207627D02*
X177959341Y-64904683D01*
X176386028Y-63083883D02*
X178083085Y-64780940D01*
X176580483Y-62889429D02*
X178277539Y-64586485D01*
X176138541Y-63331371D02*
X180098339Y-59371573D01*
X181795395Y-61068629D02*
X177835597Y-65028427D01*
X176509772Y-62960140D02*
X178206828Y-64657196D01*
X187877667Y-63207627D02*
X189574723Y-64904683D01*
X187753923Y-63331371D02*
X191713721Y-59371573D01*
X188266575Y-62818718D02*
X189963632Y-64515775D01*
X187753923Y-63331371D02*
X189450979Y-65028427D01*
X188195865Y-62889429D02*
X189892921Y-64586485D01*
X188125154Y-62960140D02*
X189822210Y-64657196D01*
X193410777Y-61068629D02*
X189450979Y-65028427D01*
X191713721Y-59371573D02*
X193410777Y-61068629D01*
X188001410Y-63083883D02*
X189698467Y-64780940D01*
D11*
X113087500Y-101500000D02*
X113087500Y-102500000D01*
D12*
X96562500Y-105025000D02*
X96562500Y-85975000D01*
X115612500Y-105025000D02*
X96562500Y-105025000D01*
X115612500Y-85975000D02*
X115612500Y-105025000D01*
D11*
X113087500Y-102500000D02*
X112087500Y-102500000D01*
X100087500Y-88500000D02*
X99087500Y-88500000D01*
X99087500Y-89500000D02*
X99087500Y-88500000D01*
D12*
X96562500Y-85975000D02*
X115612500Y-85975000D01*
D11*
X99087500Y-102500000D02*
X100087500Y-102500000D01*
X99087500Y-102500000D02*
X99087500Y-101500000D01*
X112087500Y-102500000D02*
X113087500Y-102500000D01*
X113087500Y-88500000D02*
X112087500Y-88500000D01*
X113087500Y-88500000D02*
X113087500Y-89500000D01*
X113087500Y-82450000D02*
X113087500Y-83450000D01*
X113087500Y-69450000D02*
X112087500Y-69450000D01*
X113087500Y-83450000D02*
X112087500Y-83450000D01*
X99087500Y-83450000D02*
X99087500Y-82450000D01*
D12*
X96562500Y-85975000D02*
X96562500Y-66925000D01*
D11*
X112087500Y-83450000D02*
X113087500Y-83450000D01*
X100087500Y-69450000D02*
X99087500Y-69450000D01*
D12*
X96562500Y-66925000D02*
X115612500Y-66925000D01*
D11*
X99087500Y-83450000D02*
X100087500Y-83450000D01*
D12*
X115612500Y-85975000D02*
X96562500Y-85975000D01*
D11*
X113087500Y-69450000D02*
X113087500Y-70450000D01*
X99087500Y-70450000D02*
X99087500Y-69450000D01*
D12*
X115612500Y-66925000D02*
X115612500Y-85975000D01*
X96562500Y-85975000D02*
X77512500Y-85975000D01*
D11*
X80037500Y-70450000D02*
X80037500Y-69450000D01*
X94037500Y-69450000D02*
X93037500Y-69450000D01*
X94037500Y-83450000D02*
X93037500Y-83450000D01*
X81037500Y-69450000D02*
X80037500Y-69450000D01*
X80037500Y-83450000D02*
X80037500Y-82450000D01*
X94037500Y-82450000D02*
X94037500Y-83450000D01*
X93037500Y-83450000D02*
X94037500Y-83450000D01*
D12*
X77512500Y-66925000D02*
X96562500Y-66925000D01*
D11*
X80037500Y-83450000D02*
X81037500Y-83450000D01*
D12*
X96562500Y-66925000D02*
X96562500Y-85975000D01*
D11*
X94037500Y-69450000D02*
X94037500Y-70450000D01*
D12*
X77512500Y-85975000D02*
X77512500Y-66925000D01*
D10*
X99144603Y-62889429D02*
X100841659Y-64586485D01*
X98826405Y-63207627D02*
X100523461Y-64904683D01*
X102662459Y-59371573D02*
X104359515Y-61068629D01*
X104359515Y-61068629D02*
X100399717Y-65028427D01*
X98702661Y-63331371D02*
X102662459Y-59371573D01*
X98950148Y-63083883D02*
X100647205Y-64780940D01*
X99215313Y-62818718D02*
X100912370Y-64515775D01*
X99073892Y-62960140D02*
X100770948Y-64657196D01*
X98702661Y-63331371D02*
X100399717Y-65028427D01*
D11*
X246437500Y-88500000D02*
X245437500Y-88500000D01*
X246437500Y-102500000D02*
X245437500Y-102500000D01*
X246437500Y-101500000D02*
X246437500Y-102500000D01*
X232437500Y-102500000D02*
X233437500Y-102500000D01*
D12*
X229912500Y-85975000D02*
X248962500Y-85975000D01*
X229912500Y-105025000D02*
X229912500Y-85975000D01*
D11*
X246437500Y-88500000D02*
X246437500Y-89500000D01*
X232437500Y-89500000D02*
X232437500Y-88500000D01*
X245437500Y-102500000D02*
X246437500Y-102500000D01*
D12*
X248962500Y-105025000D02*
X229912500Y-105025000D01*
X248962500Y-85975000D02*
X248962500Y-105025000D01*
D11*
X232437500Y-102500000D02*
X232437500Y-101500000D01*
X233437500Y-88500000D02*
X232437500Y-88500000D01*
D10*
X242047043Y-59371573D02*
X243744099Y-61068629D01*
X238529187Y-62889429D02*
X240226243Y-64586485D01*
X238087245Y-63331371D02*
X242047043Y-59371573D01*
X238458476Y-62960140D02*
X240155532Y-64657196D01*
X238334732Y-63083883D02*
X240031789Y-64780940D01*
X238210989Y-63207627D02*
X239908045Y-64904683D01*
X238599897Y-62818718D02*
X240296954Y-64515775D01*
X243744099Y-61068629D02*
X239784301Y-65028427D01*
X238087245Y-63331371D02*
X239784301Y-65028427D01*
X133920038Y-62960140D02*
X135617094Y-64657196D01*
X133672551Y-63207627D02*
X135369607Y-64904683D01*
X139205661Y-61068629D02*
X135245863Y-65028427D01*
X133548807Y-63331371D02*
X137508605Y-59371573D01*
X134061459Y-62818718D02*
X135758516Y-64515775D01*
X133796294Y-63083883D02*
X135493351Y-64780940D01*
X133548807Y-63331371D02*
X135245863Y-65028427D01*
X137508605Y-59371573D02*
X139205661Y-61068629D01*
X133990749Y-62889429D02*
X135687805Y-64586485D01*
D11*
X226387500Y-140600000D02*
X227387500Y-140600000D01*
D12*
X229912500Y-143125000D02*
X210862500Y-143125000D01*
D11*
X213387500Y-140600000D02*
X214387500Y-140600000D01*
X214387500Y-126600000D02*
X213387500Y-126600000D01*
X227387500Y-126600000D02*
X227387500Y-127600000D01*
X227387500Y-139600000D02*
X227387500Y-140600000D01*
X227387500Y-126600000D02*
X226387500Y-126600000D01*
D12*
X210862500Y-143125000D02*
X210862500Y-124075000D01*
D11*
X213387500Y-127600000D02*
X213387500Y-126600000D01*
D12*
X229912500Y-124075000D02*
X229912500Y-143125000D01*
X210862500Y-124075000D02*
X229912500Y-124075000D01*
D11*
X213387500Y-140600000D02*
X213387500Y-139600000D01*
X227387500Y-140600000D02*
X226387500Y-140600000D01*
D10*
X130189665Y-62818718D02*
X131886722Y-64515775D01*
X129677013Y-63331371D02*
X133636811Y-59371573D01*
X129800757Y-63207627D02*
X131497813Y-64904683D01*
X130048244Y-62960140D02*
X131745300Y-64657196D01*
X129677013Y-63331371D02*
X131374069Y-65028427D01*
X129924500Y-63083883D02*
X131621557Y-64780940D01*
X133636811Y-59371573D02*
X135333867Y-61068629D01*
X135333867Y-61068629D02*
X131374069Y-65028427D01*
X130118955Y-62889429D02*
X131816011Y-64586485D01*
X180134079Y-63207627D02*
X181831135Y-64904683D01*
X180257822Y-63083883D02*
X181954879Y-64780940D01*
X183970133Y-59371573D02*
X185667189Y-61068629D01*
X180452277Y-62889429D02*
X182149333Y-64586485D01*
X180381566Y-62960140D02*
X182078622Y-64657196D01*
X185667189Y-61068629D02*
X181707391Y-65028427D01*
X180010335Y-63331371D02*
X181707391Y-65028427D01*
X180010335Y-63331371D02*
X183970133Y-59371573D01*
X180522987Y-62818718D02*
X182220044Y-64515775D01*
X189538983Y-61068629D02*
X185579185Y-65028427D01*
X184324071Y-62889429D02*
X186021127Y-64586485D01*
X187841927Y-59371573D02*
X189538983Y-61068629D01*
X184394781Y-62818718D02*
X186091838Y-64515775D01*
X183882129Y-63331371D02*
X185579185Y-65028427D01*
X184253360Y-62960140D02*
X185950416Y-64657196D01*
X183882129Y-63331371D02*
X187841927Y-59371573D01*
X184129616Y-63083883D02*
X185826673Y-64780940D01*
X184005873Y-63207627D02*
X185702929Y-64904683D01*
D11*
X208337500Y-107550000D02*
X208337500Y-108550000D01*
D12*
X210862500Y-105025000D02*
X210862500Y-124075000D01*
D11*
X194337500Y-108550000D02*
X194337500Y-107550000D01*
D12*
X191812500Y-105025000D02*
X210862500Y-105025000D01*
D11*
X208337500Y-107550000D02*
X207337500Y-107550000D01*
D12*
X210862500Y-124075000D02*
X191812500Y-124075000D01*
D11*
X207337500Y-121550000D02*
X208337500Y-121550000D01*
X194337500Y-121550000D02*
X194337500Y-120550000D01*
X194337500Y-121550000D02*
X195337500Y-121550000D01*
D12*
X191812500Y-124075000D02*
X191812500Y-105025000D01*
D11*
X208337500Y-121550000D02*
X207337500Y-121550000D01*
X195337500Y-107550000D02*
X194337500Y-107550000D01*
X208337500Y-120550000D02*
X208337500Y-121550000D01*
D10*
X166308219Y-61068629D02*
X162348421Y-65028427D01*
X160651365Y-63331371D02*
X162348421Y-65028427D01*
X161022596Y-62960140D02*
X162719652Y-64657196D01*
X160775109Y-63207627D02*
X162472165Y-64904683D01*
X160651365Y-63331371D02*
X164611163Y-59371573D01*
X161093307Y-62889429D02*
X162790363Y-64586485D01*
X160898852Y-63083883D02*
X162595909Y-64780940D01*
X164611163Y-59371573D02*
X166308219Y-61068629D01*
X161164017Y-62818718D02*
X162861074Y-64515775D01*
D13*
X114260548Y-64957716D03*
D14*
X119775980Y-59442284D03*
D13*
X106516960Y-64957716D03*
D14*
X112032392Y-59442284D03*
D13*
X211055398Y-64957716D03*
D14*
X216570830Y-59442284D03*
D13*
X102645166Y-64957716D03*
D14*
X108160598Y-59442284D03*
D13*
X195568222Y-64957716D03*
D14*
X201083654Y-59442284D03*
D13*
X141363106Y-64957716D03*
D14*
X146878538Y-59442284D03*
D13*
X149106694Y-64957716D03*
D14*
X154622126Y-59442284D03*
D13*
X164593870Y-64957716D03*
D14*
X170109302Y-59442284D03*
D13*
X118132342Y-64957716D03*
D14*
X123647774Y-59442284D03*
D13*
X222670780Y-64957716D03*
D14*
X228186212Y-59442284D03*
D13*
X226542574Y-64957716D03*
D14*
X232058006Y-59442284D03*
D13*
X203311810Y-64957716D03*
D14*
X208827242Y-59442284D03*
D13*
X156850282Y-64957716D03*
D14*
X162365714Y-59442284D03*
D13*
X230414368Y-64957716D03*
D14*
X235929800Y-59442284D03*
D13*
X125875930Y-64957716D03*
D14*
X131391362Y-59442284D03*
D13*
X152978488Y-64957716D03*
D14*
X158493920Y-59442284D03*
D13*
X214927192Y-64957716D03*
D14*
X220442624Y-59442284D03*
D13*
X234286162Y-64957716D03*
D14*
X239801594Y-59442284D03*
D13*
X145234900Y-64957716D03*
D14*
X150750332Y-59442284D03*
D13*
X137491312Y-64957716D03*
D14*
X143006744Y-59442284D03*
D13*
X191696428Y-64957716D03*
D14*
X197211860Y-59442284D03*
D13*
X207183604Y-64957716D03*
D14*
X212699036Y-59442284D03*
D13*
X242029750Y-64957716D03*
D14*
X247545182Y-59442284D03*
D13*
X94901578Y-64957716D03*
D14*
X100417010Y-59442284D03*
D13*
X110388754Y-64957716D03*
D14*
X115904186Y-59442284D03*
D13*
X172337458Y-64957716D03*
D14*
X177852890Y-59442284D03*
D13*
X122004136Y-64957716D03*
D14*
X127519568Y-59442284D03*
D13*
X199440016Y-64957716D03*
D14*
X204955448Y-59442284D03*
D13*
X168465664Y-64957716D03*
D14*
X173981096Y-59442284D03*
D13*
X91029784Y-64957716D03*
D14*
X96545216Y-59442284D03*
D13*
X218798986Y-64957716D03*
D14*
X224314418Y-59442284D03*
D13*
X176209252Y-64957716D03*
D14*
X181724684Y-59442284D03*
D13*
X187824634Y-64957716D03*
D14*
X193340066Y-59442284D03*
D13*
X98773372Y-64957716D03*
D14*
X104288804Y-59442284D03*
D13*
X238157956Y-64957716D03*
D14*
X243673388Y-59442284D03*
D13*
X133619518Y-64957716D03*
D14*
X139134950Y-59442284D03*
D13*
X129747724Y-64957716D03*
D14*
X135263156Y-59442284D03*
D13*
X180081046Y-64957716D03*
D14*
X185596478Y-59442284D03*
D13*
X183952840Y-64957716D03*
D14*
X189468272Y-59442284D03*
D13*
X160722076Y-64957716D03*
D14*
X166237508Y-59442284D03*
%LPC*%
D15*
X62487500Y-95500000D03*
X73067500Y-95500000D03*
D16*
X62987500Y-99250000D03*
D17*
X67987500Y-95500000D03*
D15*
X73487500Y-95500000D03*
X62907500Y-95500000D03*
D16*
X67987500Y-101450000D03*
D18*
X70527500Y-90420000D03*
X64177500Y-92960000D03*
D13*
X114260548Y-64957716D03*
D14*
X119775980Y-59442284D03*
D15*
X177207500Y-114550000D03*
D17*
X182287500Y-114550000D03*
D15*
X187367500Y-114550000D03*
D16*
X182287500Y-120500000D03*
D15*
X187787500Y-114550000D03*
X176787500Y-114550000D03*
D16*
X177287500Y-118300000D03*
D18*
X184827500Y-109470000D03*
X178477500Y-112010000D03*
D15*
X139107500Y-133600000D03*
D17*
X144187500Y-133600000D03*
D16*
X144187500Y-139550000D03*
D15*
X149267500Y-133600000D03*
X149687500Y-133600000D03*
X138687500Y-133600000D03*
D16*
X139187500Y-137350000D03*
D18*
X146727500Y-128520000D03*
X140377500Y-131060000D03*
D15*
X130217500Y-114550000D03*
X119637500Y-114550000D03*
X120057500Y-114550000D03*
D16*
X125137500Y-120500000D03*
D15*
X130637500Y-114550000D03*
D16*
X120137500Y-118300000D03*
D17*
X125137500Y-114550000D03*
D18*
X127677500Y-109470000D03*
X121327500Y-112010000D03*
D19*
X96567500Y-124080000D03*
X210867500Y-85990000D03*
D16*
X182287500Y-101450000D03*
D15*
X187367500Y-95500000D03*
X176787500Y-95500000D03*
X187787500Y-95500000D03*
X177207500Y-95500000D03*
D17*
X182287500Y-95500000D03*
D16*
X177287500Y-99250000D03*
D18*
X184827500Y-90420000D03*
X178477500Y-92960000D03*
D13*
X106516960Y-64957716D03*
D14*
X112032392Y-59442284D03*
D16*
X82037500Y-137350000D03*
D15*
X92117500Y-133600000D03*
X81537500Y-133600000D03*
D17*
X87037500Y-133600000D03*
D15*
X92537500Y-133600000D03*
X81957500Y-133600000D03*
D16*
X87037500Y-139550000D03*
D18*
X89577500Y-128520000D03*
X83227500Y-131060000D03*
D13*
X211055398Y-64957716D03*
D14*
X216570830Y-59442284D03*
D15*
X234357500Y-114550000D03*
D16*
X234437500Y-118300000D03*
D15*
X233937500Y-114550000D03*
D16*
X239437500Y-120500000D03*
D15*
X244937500Y-114550000D03*
X244517500Y-114550000D03*
D17*
X239437500Y-114550000D03*
D18*
X241977500Y-109470000D03*
X235627500Y-112010000D03*
D19*
X67037500Y-59000000D03*
D15*
X119637500Y-133600000D03*
X130217500Y-133600000D03*
X120057500Y-133600000D03*
D16*
X125137500Y-139550000D03*
D17*
X125137500Y-133600000D03*
D15*
X130637500Y-133600000D03*
D16*
X120137500Y-137350000D03*
D18*
X127677500Y-128520000D03*
X121327500Y-131060000D03*
D16*
X220387500Y-82400000D03*
D15*
X225467500Y-76450000D03*
X215307500Y-76450000D03*
D17*
X220387500Y-76450000D03*
D15*
X214887500Y-76450000D03*
X225887500Y-76450000D03*
D16*
X215387500Y-80200000D03*
D18*
X222927500Y-71370000D03*
X216577500Y-73910000D03*
D15*
X168317500Y-76450000D03*
D16*
X163237500Y-82400000D03*
X158237500Y-80200000D03*
D15*
X168737500Y-76450000D03*
X158157500Y-76450000D03*
X157737500Y-76450000D03*
D17*
X163237500Y-76450000D03*
D18*
X165777500Y-71370000D03*
X159427500Y-73910000D03*
D16*
X177287500Y-137350000D03*
D15*
X177207500Y-133600000D03*
D17*
X182287500Y-133600000D03*
D15*
X187787500Y-133600000D03*
D16*
X182287500Y-139550000D03*
D15*
X176787500Y-133600000D03*
X187367500Y-133600000D03*
D18*
X184827500Y-128520000D03*
X178477500Y-131060000D03*
D15*
X206837500Y-76450000D03*
X195837500Y-76450000D03*
D16*
X196337500Y-80200000D03*
D17*
X201337500Y-76450000D03*
D15*
X196257500Y-76450000D03*
D16*
X201337500Y-82400000D03*
D15*
X206417500Y-76450000D03*
D18*
X203877500Y-71370000D03*
X197527500Y-73910000D03*
D13*
X102645166Y-64957716D03*
D14*
X108160598Y-59442284D03*
D15*
X62487500Y-114550000D03*
X73487500Y-114550000D03*
X73067500Y-114550000D03*
X62907500Y-114550000D03*
D17*
X67987500Y-114550000D03*
D16*
X62987500Y-118300000D03*
X67987500Y-120500000D03*
D18*
X70527500Y-109470000D03*
X64177500Y-112010000D03*
D13*
X195568222Y-64957716D03*
D14*
X201083654Y-59442284D03*
D16*
X163237500Y-101450000D03*
D15*
X157737500Y-95500000D03*
X168737500Y-95500000D03*
X168317500Y-95500000D03*
D16*
X158237500Y-99250000D03*
D17*
X163237500Y-95500000D03*
D15*
X158157500Y-95500000D03*
D18*
X165777500Y-90420000D03*
X159427500Y-92960000D03*
D17*
X201337500Y-133600000D03*
D16*
X201337500Y-139550000D03*
X196337500Y-137350000D03*
D15*
X195837500Y-133600000D03*
X196257500Y-133600000D03*
X206417500Y-133600000D03*
X206837500Y-133600000D03*
D18*
X203877500Y-128520000D03*
X197527500Y-131060000D03*
D19*
X210867500Y-124070000D03*
D17*
X201337500Y-95500000D03*
D15*
X195837500Y-95500000D03*
X206417500Y-95500000D03*
D16*
X196337500Y-99250000D03*
X201337500Y-101450000D03*
D15*
X206837500Y-95500000D03*
X196257500Y-95500000D03*
D18*
X203877500Y-90420000D03*
X197527500Y-92960000D03*
D13*
X141363106Y-64957716D03*
D14*
X146878538Y-59442284D03*
D13*
X149106694Y-64957716D03*
D14*
X154622126Y-59442284D03*
D13*
X164593870Y-64957716D03*
D14*
X170109302Y-59442284D03*
D13*
X118132342Y-64957716D03*
D14*
X123647774Y-59442284D03*
D13*
X222670780Y-64957716D03*
D14*
X228186212Y-59442284D03*
D13*
X226542574Y-64957716D03*
D14*
X232058006Y-59442284D03*
D13*
X203311810Y-64957716D03*
D14*
X208827242Y-59442284D03*
D16*
X120137500Y-80200000D03*
D15*
X130217500Y-76450000D03*
D16*
X125137500Y-82400000D03*
D15*
X119637500Y-76450000D03*
X130637500Y-76450000D03*
D17*
X125137500Y-76450000D03*
D15*
X120057500Y-76450000D03*
D18*
X127677500Y-71370000D03*
X121327500Y-73910000D03*
D13*
X156850282Y-64957716D03*
D14*
X162365714Y-59442284D03*
D15*
X100587500Y-133600000D03*
X101007500Y-133600000D03*
D16*
X106087500Y-139550000D03*
D17*
X106087500Y-133600000D03*
D15*
X111587500Y-133600000D03*
D16*
X101087500Y-137350000D03*
D15*
X111167500Y-133600000D03*
D18*
X108627500Y-128520000D03*
X102277500Y-131060000D03*
D13*
X230414368Y-64957716D03*
D14*
X235929800Y-59442284D03*
D13*
X125875930Y-64957716D03*
D14*
X131391362Y-59442284D03*
D19*
X153717500Y-105020000D03*
D15*
X244517500Y-133600000D03*
D16*
X234437500Y-137350000D03*
X239437500Y-139550000D03*
D15*
X234357500Y-133600000D03*
D17*
X239437500Y-133600000D03*
D15*
X244937500Y-133600000D03*
X233937500Y-133600000D03*
D18*
X241977500Y-128520000D03*
X235627500Y-131060000D03*
D19*
X192037500Y-53500000D03*
D16*
X144187500Y-101450000D03*
D15*
X139107500Y-95500000D03*
D17*
X144187500Y-95500000D03*
D15*
X149267500Y-95500000D03*
X138687500Y-95500000D03*
X149687500Y-95500000D03*
D16*
X139187500Y-99250000D03*
D18*
X146727500Y-90420000D03*
X140377500Y-92960000D03*
D13*
X152978488Y-64957716D03*
D14*
X158493920Y-59442284D03*
D13*
X214927192Y-64957716D03*
D14*
X220442624Y-59442284D03*
D15*
X138687500Y-76450000D03*
X149267500Y-76450000D03*
D17*
X144187500Y-76450000D03*
D15*
X139107500Y-76450000D03*
D16*
X144187500Y-82400000D03*
D15*
X149687500Y-76450000D03*
D16*
X139187500Y-80200000D03*
D18*
X146727500Y-71370000D03*
X140377500Y-73910000D03*
D15*
X111167500Y-114550000D03*
D16*
X101087500Y-118300000D03*
X106087500Y-120500000D03*
D15*
X101007500Y-114550000D03*
D17*
X106087500Y-114550000D03*
D15*
X100587500Y-114550000D03*
X111587500Y-114550000D03*
D18*
X108627500Y-109470000D03*
X102277500Y-112010000D03*
D13*
X234286162Y-64957716D03*
D14*
X239801594Y-59442284D03*
D13*
X145234900Y-64957716D03*
D14*
X150750332Y-59442284D03*
D13*
X137491312Y-64957716D03*
D14*
X143006744Y-59442284D03*
D15*
X244517500Y-76450000D03*
D17*
X239437500Y-76450000D03*
D16*
X239437500Y-82400000D03*
X234437500Y-80200000D03*
D15*
X234357500Y-76450000D03*
X244937500Y-76450000D03*
X233937500Y-76450000D03*
D18*
X241977500Y-71370000D03*
X235627500Y-73910000D03*
D15*
X81537500Y-95500000D03*
D16*
X87037500Y-101450000D03*
X82037500Y-99250000D03*
D15*
X92537500Y-95500000D03*
X81957500Y-95500000D03*
D17*
X87037500Y-95500000D03*
D15*
X92117500Y-95500000D03*
D18*
X89577500Y-90420000D03*
X83227500Y-92960000D03*
D16*
X215387500Y-118300000D03*
D15*
X214887500Y-114550000D03*
X225467500Y-114550000D03*
D16*
X220387500Y-120500000D03*
D15*
X225887500Y-114550000D03*
X215307500Y-114550000D03*
D17*
X220387500Y-114550000D03*
D18*
X222927500Y-109470000D03*
X216577500Y-112010000D03*
D13*
X191696428Y-64957716D03*
D14*
X197211860Y-59442284D03*
D15*
X138687500Y-114550000D03*
D16*
X144187500Y-120500000D03*
D15*
X139107500Y-114550000D03*
D16*
X139187500Y-118300000D03*
D15*
X149267500Y-114550000D03*
X149687500Y-114550000D03*
D17*
X144187500Y-114550000D03*
D18*
X146727500Y-109470000D03*
X140377500Y-112010000D03*
D15*
X225467500Y-95500000D03*
D16*
X215387500Y-99250000D03*
D17*
X220387500Y-95500000D03*
D16*
X220387500Y-101450000D03*
D15*
X215307500Y-95500000D03*
X214887500Y-95500000D03*
X225887500Y-95500000D03*
D18*
X222927500Y-90420000D03*
X216577500Y-92960000D03*
D16*
X62987500Y-137350000D03*
D17*
X67987500Y-133600000D03*
D15*
X73487500Y-133600000D03*
X62487500Y-133600000D03*
X62907500Y-133600000D03*
X73067500Y-133600000D03*
D16*
X67987500Y-139550000D03*
D18*
X70527500Y-128520000D03*
X64177500Y-131060000D03*
D19*
X244537500Y-53500000D03*
D13*
X207183604Y-64957716D03*
D14*
X212699036Y-59442284D03*
D13*
X242029750Y-64957716D03*
D14*
X247545182Y-59442284D03*
D13*
X94901578Y-64957716D03*
D14*
X100417010Y-59442284D03*
D13*
X110388754Y-64957716D03*
D14*
X115904186Y-59442284D03*
D16*
X82037500Y-118300000D03*
D17*
X87037500Y-114550000D03*
D15*
X92117500Y-114550000D03*
X92537500Y-114550000D03*
X81957500Y-114550000D03*
D16*
X87037500Y-120500000D03*
D15*
X81537500Y-114550000D03*
D18*
X89577500Y-109470000D03*
X83227500Y-112010000D03*
D13*
X172337458Y-64957716D03*
D14*
X177852890Y-59442284D03*
D16*
X62987500Y-80200000D03*
D15*
X62907500Y-76450000D03*
X73067500Y-76450000D03*
X73487500Y-76450000D03*
D16*
X67987500Y-82400000D03*
D15*
X62487500Y-76450000D03*
D17*
X67987500Y-76450000D03*
D18*
X70527500Y-71370000D03*
X64177500Y-73910000D03*
D13*
X122004136Y-64957716D03*
D14*
X127519568Y-59442284D03*
D19*
X96577500Y-85970000D03*
D13*
X199440016Y-64957716D03*
D14*
X204955448Y-59442284D03*
D16*
X120137500Y-99250000D03*
D15*
X130637500Y-95500000D03*
D17*
X125137500Y-95500000D03*
D15*
X130217500Y-95500000D03*
X119637500Y-95500000D03*
X120057500Y-95500000D03*
D16*
X125137500Y-101450000D03*
D18*
X127677500Y-90420000D03*
X121327500Y-92960000D03*
D13*
X168465664Y-64957716D03*
D14*
X173981096Y-59442284D03*
D13*
X91029784Y-64957716D03*
D14*
X96545216Y-59442284D03*
D16*
X163237500Y-139550000D03*
D17*
X163237500Y-133600000D03*
D15*
X168317500Y-133600000D03*
X157737500Y-133600000D03*
X168737500Y-133600000D03*
X158157500Y-133600000D03*
D16*
X158237500Y-137350000D03*
D18*
X165777500Y-128520000D03*
X159427500Y-131060000D03*
D16*
X158237500Y-118300000D03*
D15*
X168737500Y-114550000D03*
X158157500Y-114550000D03*
D16*
X163237500Y-120500000D03*
D15*
X157737500Y-114550000D03*
D17*
X163237500Y-114550000D03*
D15*
X168317500Y-114550000D03*
D18*
X165777500Y-109470000D03*
X159427500Y-112010000D03*
D13*
X218798986Y-64957716D03*
D14*
X224314418Y-59442284D03*
D15*
X187787500Y-76450000D03*
X177207500Y-76450000D03*
D16*
X177287500Y-80200000D03*
D17*
X182287500Y-76450000D03*
D15*
X187367500Y-76450000D03*
D16*
X182287500Y-82400000D03*
D15*
X176787500Y-76450000D03*
D18*
X184827500Y-71370000D03*
X178477500Y-73910000D03*
D13*
X176209252Y-64957716D03*
D14*
X181724684Y-59442284D03*
D13*
X187824634Y-64957716D03*
D14*
X193340066Y-59442284D03*
D15*
X101007500Y-95500000D03*
D17*
X106087500Y-95500000D03*
D16*
X106087500Y-101450000D03*
D15*
X111167500Y-95500000D03*
D16*
X101087500Y-99250000D03*
D15*
X100587500Y-95500000D03*
X111587500Y-95500000D03*
D18*
X108627500Y-90420000D03*
X102277500Y-92960000D03*
D15*
X100587500Y-76450000D03*
X111167500Y-76450000D03*
X111587500Y-76450000D03*
D16*
X101087500Y-80200000D03*
D17*
X106087500Y-76450000D03*
D16*
X106087500Y-82400000D03*
D15*
X101007500Y-76450000D03*
D18*
X108627500Y-71370000D03*
X102277500Y-73910000D03*
D16*
X87037500Y-82400000D03*
D15*
X92537500Y-76450000D03*
X81537500Y-76450000D03*
X92117500Y-76450000D03*
X81957500Y-76450000D03*
D16*
X82037500Y-80200000D03*
D17*
X87037500Y-76450000D03*
D18*
X89577500Y-71370000D03*
X83227500Y-73910000D03*
D13*
X98773372Y-64957716D03*
D14*
X104288804Y-59442284D03*
D15*
X233937500Y-95500000D03*
X244937500Y-95500000D03*
D16*
X239437500Y-101450000D03*
D15*
X244517500Y-95500000D03*
D17*
X239437500Y-95500000D03*
D16*
X234437500Y-99250000D03*
D15*
X234357500Y-95500000D03*
D18*
X241977500Y-90420000D03*
X235627500Y-92960000D03*
D13*
X238157956Y-64957716D03*
D14*
X243673388Y-59442284D03*
D13*
X133619518Y-64957716D03*
D14*
X139134950Y-59442284D03*
D15*
X215307500Y-133600000D03*
D16*
X220387500Y-139550000D03*
D15*
X225887500Y-133600000D03*
D16*
X215387500Y-137350000D03*
D17*
X220387500Y-133600000D03*
D15*
X225467500Y-133600000D03*
X214887500Y-133600000D03*
D18*
X222927500Y-128520000D03*
X216577500Y-131060000D03*
D13*
X129747724Y-64957716D03*
D14*
X135263156Y-59442284D03*
D13*
X180081046Y-64957716D03*
D14*
X185596478Y-59442284D03*
D13*
X183952840Y-64957716D03*
D14*
X189468272Y-59442284D03*
D15*
X196257500Y-114550000D03*
X206837500Y-114550000D03*
D16*
X201337500Y-120500000D03*
D17*
X201337500Y-114550000D03*
D15*
X206417500Y-114550000D03*
D16*
X196337500Y-118300000D03*
D15*
X195837500Y-114550000D03*
D18*
X203877500Y-109470000D03*
X197527500Y-112010000D03*
D13*
X160722076Y-64957716D03*
D14*
X166237508Y-59442284D03*
D20*
X92437500Y-49600000D03*
X92437500Y-56100000D03*
X96937500Y-56100000D03*
X96937500Y-49600000D03*
M02*
