G04 #@! TF.GenerationSoftware,KiCad,Pcbnew,6.0.7-f9a2dced07~116~ubuntu20.04.1*
G04 #@! TF.CreationDate,2022-09-18T13:16:26+08:00*
G04 #@! TF.ProjectId,keyboard v3,6b657962-6f61-4726-9420-76332e6b6963,rev?*
G04 #@! TF.SameCoordinates,Original*
G04 #@! TF.FileFunction,Copper,L2,Bot*
G04 #@! TF.FilePolarity,Positive*
%FSLAX46Y46*%
G04 Gerber Fmt 4.6, Leading zero omitted, Abs format (unit mm)*
G04 Created by KiCad (PCBNEW 6.0.7-f9a2dced07~116~ubuntu20.04.1) date 2022-09-18 13:16:26*
%MOMM*%
%LPD*%
G01*
G04 APERTURE LIST*
G04 Aperture macros list*
%AMRotRect*
0 Rectangle, with rotation*
0 The origin of the aperture is its center*
0 $1 length*
0 $2 width*
0 $3 Rotation angle, in degrees counterclockwise*
0 Add horizontal line*
21,1,$1,$2,0,0,$3*%
G04 Aperture macros list end*
G04 #@! TA.AperFunction,ComponentPad*
%ADD10C,2.286000*%
G04 #@! TD*
G04 #@! TA.AperFunction,SMDPad,CuDef*
%ADD11R,2.600000X2.600000*%
G04 #@! TD*
G04 #@! TA.AperFunction,ComponentPad*
%ADD12RotRect,1.600000X1.600000X45.000000*%
G04 #@! TD*
G04 #@! TA.AperFunction,ComponentPad*
%ADD13C,1.600000*%
G04 #@! TD*
G04 #@! TA.AperFunction,WasherPad*
%ADD14C,5.000000*%
G04 #@! TD*
G04 #@! TA.AperFunction,ComponentPad*
%ADD15R,1.600000X1.600000*%
G04 #@! TD*
G04 #@! TA.AperFunction,SMDPad,CuDef*
%ADD16R,1.500000X1.000000*%
G04 #@! TD*
G04 #@! TA.AperFunction,ComponentPad*
%ADD17C,2.000000*%
G04 #@! TD*
G04 #@! TA.AperFunction,ViaPad*
%ADD18C,0.800000*%
G04 #@! TD*
G04 #@! TA.AperFunction,Conductor*
%ADD19C,0.300000*%
G04 #@! TD*
G04 #@! TA.AperFunction,Conductor*
%ADD20C,0.400000*%
G04 #@! TD*
G04 #@! TA.AperFunction,Conductor*
%ADD21C,0.800000*%
G04 #@! TD*
G04 APERTURE END LIST*
D10*
X70527500Y-90420000D03*
D11*
X71262500Y-101450000D03*
D10*
X64177500Y-92960000D03*
D11*
X59712500Y-99250000D03*
D12*
X114260548Y-64957716D03*
D13*
X119775980Y-59442284D03*
D11*
X185562500Y-120500000D03*
D10*
X184827500Y-109470000D03*
D11*
X174012500Y-118300000D03*
D10*
X178477500Y-112010000D03*
D11*
X147462500Y-139550000D03*
D10*
X146727500Y-128520000D03*
X140377500Y-131060000D03*
D11*
X135912500Y-137350000D03*
X128412500Y-120500000D03*
D10*
X127677500Y-109470000D03*
D11*
X116862500Y-118300000D03*
D10*
X121327500Y-112010000D03*
D14*
X96567500Y-124080000D03*
X210867500Y-85990000D03*
D11*
X185562500Y-101450000D03*
D10*
X184827500Y-90420000D03*
D11*
X174012500Y-99250000D03*
D10*
X178477500Y-92960000D03*
D12*
X106516960Y-64957716D03*
D13*
X112032392Y-59442284D03*
D11*
X90312500Y-139550000D03*
D10*
X89577500Y-128520000D03*
D11*
X78762500Y-137350000D03*
D10*
X83227500Y-131060000D03*
D12*
X211055398Y-64957716D03*
D13*
X216570830Y-59442284D03*
D10*
X241977500Y-109470000D03*
D11*
X242712500Y-120500000D03*
D10*
X235627500Y-112010000D03*
D11*
X231162500Y-118300000D03*
D14*
X67037500Y-59000000D03*
D11*
X128412500Y-139550000D03*
D10*
X127677500Y-128520000D03*
X121327500Y-131060000D03*
D11*
X116862500Y-137350000D03*
X223662500Y-82400000D03*
D10*
X222927500Y-71370000D03*
D11*
X212112500Y-80200000D03*
D10*
X216577500Y-73910000D03*
D11*
X166512500Y-82400000D03*
D10*
X165777500Y-71370000D03*
D11*
X154962500Y-80200000D03*
D10*
X159427500Y-73910000D03*
D11*
X185562500Y-139550000D03*
D10*
X184827500Y-128520000D03*
X178477500Y-131060000D03*
D11*
X174012500Y-137350000D03*
D10*
X203877500Y-71370000D03*
D11*
X204612500Y-82400000D03*
X193062500Y-80200000D03*
D10*
X197527500Y-73910000D03*
D12*
X102645166Y-64957716D03*
D13*
X108160598Y-59442284D03*
D11*
X71262500Y-120500000D03*
D10*
X70527500Y-109470000D03*
D11*
X59712500Y-118300000D03*
D10*
X64177500Y-112010000D03*
D12*
X195568222Y-64957716D03*
D13*
X201083654Y-59442284D03*
D11*
X166512500Y-101450000D03*
D10*
X165777500Y-90420000D03*
X159427500Y-92960000D03*
D11*
X154962500Y-99250000D03*
X204612500Y-139550000D03*
D10*
X203877500Y-128520000D03*
X197527500Y-131060000D03*
D11*
X193062500Y-137350000D03*
D14*
X210867500Y-124070000D03*
D11*
X204612500Y-101450000D03*
D10*
X203877500Y-90420000D03*
D11*
X193062500Y-99250000D03*
D10*
X197527500Y-92960000D03*
D12*
X141363106Y-64957716D03*
D13*
X146878538Y-59442284D03*
D12*
X149106694Y-64957716D03*
D13*
X154622126Y-59442284D03*
D12*
X164593870Y-64957716D03*
D13*
X170109302Y-59442284D03*
D12*
X118132342Y-64957716D03*
D13*
X123647774Y-59442284D03*
D12*
X222670780Y-64957716D03*
D13*
X228186212Y-59442284D03*
D12*
X226542574Y-64957716D03*
D13*
X232058006Y-59442284D03*
D12*
X203311810Y-64957716D03*
D13*
X208827242Y-59442284D03*
D11*
X128412500Y-82400000D03*
D10*
X127677500Y-71370000D03*
D11*
X116862500Y-80200000D03*
D10*
X121327500Y-73910000D03*
D12*
X156850282Y-64957716D03*
D13*
X162365714Y-59442284D03*
D11*
X109362500Y-139550000D03*
D10*
X108627500Y-128520000D03*
D11*
X97812500Y-137350000D03*
D10*
X102277500Y-131060000D03*
D12*
X230414368Y-64957716D03*
D13*
X235929800Y-59442284D03*
D12*
X125875930Y-64957716D03*
D13*
X131391362Y-59442284D03*
D14*
X153717500Y-105020000D03*
D10*
X241977500Y-128520000D03*
D11*
X242712500Y-139550000D03*
X231162500Y-137350000D03*
D10*
X235627500Y-131060000D03*
D14*
X192037500Y-53500000D03*
D10*
X146727500Y-90420000D03*
D11*
X147462500Y-101450000D03*
D10*
X140377500Y-92960000D03*
D11*
X135912500Y-99250000D03*
D12*
X152978488Y-64957716D03*
D13*
X158493920Y-59442284D03*
D12*
X214927192Y-64957716D03*
D13*
X220442624Y-59442284D03*
D10*
X146727500Y-71370000D03*
D11*
X147462500Y-82400000D03*
D10*
X140377500Y-73910000D03*
D11*
X135912500Y-80200000D03*
D10*
X108627500Y-109470000D03*
D11*
X109362500Y-120500000D03*
X97812500Y-118300000D03*
D10*
X102277500Y-112010000D03*
D12*
X234286162Y-64957716D03*
D13*
X239801594Y-59442284D03*
D12*
X145234900Y-64957716D03*
D13*
X150750332Y-59442284D03*
D12*
X137491312Y-64957716D03*
D13*
X143006744Y-59442284D03*
D10*
X241977500Y-71370000D03*
D11*
X242712500Y-82400000D03*
X231162500Y-80200000D03*
D10*
X235627500Y-73910000D03*
X89577500Y-90420000D03*
D11*
X90312500Y-101450000D03*
X78762500Y-99250000D03*
D10*
X83227500Y-92960000D03*
D11*
X223662500Y-120500000D03*
D10*
X222927500Y-109470000D03*
D11*
X212112500Y-118300000D03*
D10*
X216577500Y-112010000D03*
D12*
X191696428Y-64957716D03*
D13*
X197211860Y-59442284D03*
D10*
X146727500Y-109470000D03*
D11*
X147462500Y-120500000D03*
X135912500Y-118300000D03*
D10*
X140377500Y-112010000D03*
X222927500Y-90420000D03*
D11*
X223662500Y-101450000D03*
D10*
X216577500Y-92960000D03*
D11*
X212112500Y-99250000D03*
D10*
X70527500Y-128520000D03*
D11*
X71262500Y-139550000D03*
D10*
X64177500Y-131060000D03*
D11*
X59712500Y-137350000D03*
D14*
X244537500Y-53500000D03*
D12*
X207183604Y-64957716D03*
D13*
X212699036Y-59442284D03*
D12*
X242029750Y-64957716D03*
D13*
X247545182Y-59442284D03*
D12*
X94901578Y-64957716D03*
D13*
X100417010Y-59442284D03*
D12*
X110388754Y-64957716D03*
D13*
X115904186Y-59442284D03*
D10*
X89577500Y-109470000D03*
D11*
X90312500Y-120500000D03*
X78762500Y-118300000D03*
D10*
X83227500Y-112010000D03*
D12*
X172337458Y-64957716D03*
D13*
X177852890Y-59442284D03*
D11*
X71262500Y-82400000D03*
D10*
X70527500Y-71370000D03*
D11*
X59712500Y-80200000D03*
D10*
X64177500Y-73910000D03*
D12*
X122004136Y-64957716D03*
D13*
X127519568Y-59442284D03*
D14*
X96577500Y-85970000D03*
D12*
X199440016Y-64957716D03*
D13*
X204955448Y-59442284D03*
D10*
X127677500Y-90420000D03*
D11*
X128412500Y-101450000D03*
D10*
X121327500Y-92960000D03*
D11*
X116862500Y-99250000D03*
D15*
X59817500Y-65111420D03*
D13*
X62357500Y-65111420D03*
X64897500Y-65111420D03*
X67437500Y-65111420D03*
X69977500Y-65111420D03*
X72517500Y-65111420D03*
X75057500Y-65111420D03*
X77597500Y-65111420D03*
X80137500Y-65111420D03*
X82677500Y-65111420D03*
X85217500Y-65111420D03*
X87757500Y-65111420D03*
X87757500Y-49871420D03*
X85217500Y-49871420D03*
X82677500Y-49871420D03*
X80137500Y-49871420D03*
X77597500Y-49871420D03*
X75057500Y-49871420D03*
X72517500Y-49871420D03*
X69977500Y-49871420D03*
X67437500Y-49871420D03*
X64897500Y-49871420D03*
X62357500Y-49871420D03*
X59817500Y-49871420D03*
D12*
X168465664Y-64957716D03*
D13*
X173981096Y-59442284D03*
D12*
X91029784Y-64957716D03*
D13*
X96545216Y-59442284D03*
D11*
X166512500Y-139550000D03*
D10*
X165777500Y-128520000D03*
D11*
X154962500Y-137350000D03*
D10*
X159427500Y-131060000D03*
D11*
X166512500Y-120500000D03*
D10*
X165777500Y-109470000D03*
D11*
X154962500Y-118300000D03*
D10*
X159427500Y-112010000D03*
D12*
X218798986Y-64957716D03*
D13*
X224314418Y-59442284D03*
D10*
X184827500Y-71370000D03*
D11*
X185562500Y-82400000D03*
X174012500Y-80200000D03*
D10*
X178477500Y-73910000D03*
D12*
X176209252Y-64957716D03*
D13*
X181724684Y-59442284D03*
D12*
X187824634Y-64957716D03*
D13*
X193340066Y-59442284D03*
D10*
X108627500Y-90420000D03*
D11*
X109362500Y-101450000D03*
X97812500Y-99250000D03*
D10*
X102277500Y-92960000D03*
D11*
X109362500Y-82400000D03*
D10*
X108627500Y-71370000D03*
D11*
X97812500Y-80200000D03*
D10*
X102277500Y-73910000D03*
D11*
X90312500Y-82400000D03*
D10*
X89577500Y-71370000D03*
D11*
X78762500Y-80200000D03*
D10*
X83227500Y-73910000D03*
D12*
X98773372Y-64957716D03*
D13*
X104288804Y-59442284D03*
D10*
X241977500Y-90420000D03*
D11*
X242712500Y-101450000D03*
D10*
X235627500Y-92960000D03*
D11*
X231162500Y-99250000D03*
D12*
X238157956Y-64957716D03*
D13*
X243673388Y-59442284D03*
D12*
X133619518Y-64957716D03*
D13*
X139134950Y-59442284D03*
D10*
X222927500Y-128520000D03*
D11*
X223662500Y-139550000D03*
X212112500Y-137350000D03*
D10*
X216577500Y-131060000D03*
D12*
X129747724Y-64957716D03*
D13*
X135263156Y-59442284D03*
D12*
X180081046Y-64957716D03*
D13*
X185596478Y-59442284D03*
D12*
X183952840Y-64957716D03*
D13*
X189468272Y-59442284D03*
D11*
X204612500Y-120500000D03*
D10*
X203877500Y-109470000D03*
D11*
X193062500Y-118300000D03*
D10*
X197527500Y-112010000D03*
D12*
X160722076Y-64957716D03*
D13*
X166237508Y-59442284D03*
D16*
X194262500Y-125000000D03*
X194262500Y-128200000D03*
X189362500Y-128200000D03*
X189362500Y-125000000D03*
X118012500Y-125000000D03*
X118012500Y-128200000D03*
X113112500Y-128200000D03*
X113112500Y-125000000D03*
X232387500Y-125000000D03*
X232387500Y-128200000D03*
X227487500Y-128200000D03*
X227487500Y-125000000D03*
X227487500Y-90200000D03*
X227487500Y-87000000D03*
X232387500Y-87000000D03*
X232387500Y-90200000D03*
X79887500Y-125000000D03*
X79887500Y-128200000D03*
X74987500Y-128200000D03*
X74987500Y-125000000D03*
X156137500Y-125000000D03*
X156137500Y-128200000D03*
X151237500Y-128200000D03*
X151237500Y-125000000D03*
X151237500Y-90200000D03*
X151237500Y-87000000D03*
X156137500Y-87000000D03*
X156137500Y-90200000D03*
D17*
X92437500Y-49600000D03*
X92437500Y-56100000D03*
X96937500Y-56100000D03*
X96937500Y-49600000D03*
D16*
X113112500Y-90200000D03*
X113112500Y-87000000D03*
X118012500Y-87000000D03*
X118012500Y-90200000D03*
X74987500Y-90200000D03*
X74987500Y-87000000D03*
X79887500Y-87000000D03*
X79887500Y-90200000D03*
X189362500Y-90200000D03*
X189362500Y-87000000D03*
X194262500Y-87000000D03*
X194262500Y-90200000D03*
D18*
X68100000Y-62900000D03*
X61347997Y-92960000D03*
X59630000Y-110330000D03*
X66480000Y-130730000D03*
X78762500Y-134437500D03*
X153087500Y-97180000D03*
X155097500Y-115210000D03*
X154277500Y-134000000D03*
X172107500Y-77220000D03*
X174077500Y-96520000D03*
X173767500Y-114590000D03*
X173777500Y-134020000D03*
X190887500Y-79760000D03*
X191987500Y-96510000D03*
X192937500Y-114560000D03*
X192717500Y-133600000D03*
X212367500Y-94650000D03*
X212197500Y-115420000D03*
X211937500Y-134610000D03*
X230647500Y-95590000D03*
X231227500Y-114260000D03*
X229927500Y-140060000D03*
X89170000Y-74759500D03*
X109280000Y-97940000D03*
X204340000Y-98280000D03*
X90520000Y-98890000D03*
X222990000Y-98040000D03*
X166670000Y-98060000D03*
X184710000Y-97720000D03*
X67600000Y-89900000D03*
X62900000Y-90000000D03*
X242510000Y-136660000D03*
X90290000Y-136260000D03*
X61500000Y-90100000D03*
X65520000Y-89680000D03*
X64480000Y-55110000D03*
X72850000Y-97120000D03*
X70840000Y-97140000D03*
D19*
X96545216Y-59442284D02*
X108160598Y-59442284D01*
X96545216Y-59442284D02*
X74939784Y-59442284D01*
X69977500Y-54480000D02*
X69977500Y-49871420D01*
X74939784Y-59442284D02*
X69977500Y-54480000D01*
X59897997Y-75360000D02*
X58500000Y-75360000D01*
X68100000Y-62900000D02*
X59528920Y-62900000D01*
X58500000Y-75360000D02*
X58500000Y-78987500D01*
X58500000Y-63928920D02*
X58500000Y-75360000D01*
X58500000Y-78987500D02*
X59712500Y-80200000D01*
X64177500Y-73910000D02*
X61347997Y-73910000D01*
X59528920Y-62900000D02*
X58500000Y-63928920D01*
X61347997Y-73910000D02*
X59897997Y-75360000D01*
X61347997Y-92960000D02*
X59712500Y-94595497D01*
X59712500Y-94595497D02*
X59712500Y-99250000D01*
X61150000Y-112010000D02*
X59712500Y-113447500D01*
X64177500Y-112010000D02*
X61150000Y-112010000D01*
X59712500Y-113447500D02*
X59712500Y-118300000D01*
X61150000Y-111850000D02*
X61150000Y-112010000D01*
X59630000Y-110330000D02*
X61150000Y-111850000D01*
X66480000Y-130730000D02*
X64507500Y-130730000D01*
X59712500Y-133797500D02*
X59712500Y-137350000D01*
X62450000Y-131060000D02*
X59712500Y-133797500D01*
X64177500Y-131060000D02*
X62450000Y-131060000D01*
X110780108Y-58190000D02*
X112032392Y-59442284D01*
X72517500Y-49871420D02*
X72517500Y-52340000D01*
X78367500Y-58190000D02*
X110780108Y-58190000D01*
X72517500Y-52340000D02*
X78367500Y-58190000D01*
X112032392Y-59442284D02*
X123647774Y-59442284D01*
X78762500Y-76837500D02*
X81690000Y-73910000D01*
X78762500Y-76837500D02*
X78762500Y-80200000D01*
X106516960Y-64957716D02*
X97564676Y-73910000D01*
X97564676Y-73910000D02*
X83227500Y-73910000D01*
X81690000Y-73910000D02*
X83227500Y-73910000D01*
X78762500Y-94437500D02*
X78762500Y-99250000D01*
X80240000Y-92960000D02*
X78762500Y-94437500D01*
X83227500Y-92960000D02*
X80240000Y-92960000D01*
X78762500Y-115137500D02*
X78762500Y-118300000D01*
D20*
X81890000Y-112010000D02*
X78762500Y-115137500D01*
X83227500Y-112010000D02*
X81890000Y-112010000D01*
D19*
X78762500Y-134437500D02*
X78762500Y-137350000D01*
X125627284Y-57550000D02*
X127519568Y-59442284D01*
X75057500Y-49871420D02*
X82736080Y-57550000D01*
X82736080Y-57550000D02*
X125627284Y-57550000D01*
X127519568Y-59442284D02*
X139134950Y-59442284D01*
X108487500Y-67700000D02*
X102277500Y-73910000D01*
X119261852Y-67700000D02*
X108487500Y-67700000D01*
X101190000Y-73910000D02*
X97812500Y-77287500D01*
X102277500Y-73910000D02*
X101190000Y-73910000D01*
X122004136Y-64957716D02*
X119261852Y-67700000D01*
X97812500Y-77287500D02*
X97812500Y-80200000D01*
X97812500Y-99250000D02*
X97812500Y-96012500D01*
X97812500Y-96012500D02*
X100865000Y-92960000D01*
X102277500Y-92960000D02*
X100865000Y-92960000D01*
X102277500Y-112010000D02*
X99447997Y-112010000D01*
X97812500Y-113645497D02*
X97812500Y-118300000D01*
X99447997Y-112010000D02*
X97812500Y-113645497D01*
X102277500Y-131060000D02*
X101134500Y-132203000D01*
X98100000Y-133166599D02*
X98100000Y-137062500D01*
X99063599Y-132203000D02*
X98100000Y-133166599D01*
X101134500Y-132203000D02*
X99063599Y-132203000D01*
X82286080Y-54560000D02*
X77597500Y-49871420D01*
X143006744Y-59442284D02*
X154622126Y-59442284D01*
X97448110Y-54560000D02*
X82286080Y-54560000D01*
X139014460Y-55450000D02*
X98338110Y-55450000D01*
X143006744Y-59442284D02*
X139014460Y-55450000D01*
X98338110Y-55450000D02*
X97448110Y-54560000D01*
X118497997Y-73910000D02*
X116862500Y-75545497D01*
X117200000Y-68300000D02*
X116862500Y-68637500D01*
X132900000Y-68300000D02*
X117200000Y-68300000D01*
X116862500Y-68637500D02*
X116862500Y-80200000D01*
X116862500Y-75545497D02*
X116862500Y-80200000D01*
X137491312Y-64957716D02*
X136242284Y-64957716D01*
X136242284Y-64957716D02*
X132900000Y-68300000D01*
X121327500Y-73910000D02*
X118497997Y-73910000D01*
X116862500Y-95162500D02*
X116862500Y-99250000D01*
X119065000Y-92960000D02*
X116862500Y-95162500D01*
X121327500Y-92960000D02*
X119065000Y-92960000D01*
X121327500Y-112010000D02*
X119990000Y-112010000D01*
X119990000Y-112010000D02*
X116862500Y-115137500D01*
X116862500Y-115137500D02*
X116862500Y-118300000D01*
X121327500Y-131060000D02*
X119840000Y-131060000D01*
X119840000Y-131060000D02*
X116862500Y-134037500D01*
X116862500Y-134037500D02*
X116862500Y-137350000D01*
X100677500Y-53960000D02*
X83997500Y-53960000D01*
X153917500Y-54865864D02*
X153917500Y-54860000D01*
X83997500Y-53960000D02*
X83997500Y-53731420D01*
X153917500Y-54860000D02*
X153387500Y-54330000D01*
X104287500Y-50350000D02*
X100677500Y-53960000D01*
X158493920Y-59442284D02*
X170109302Y-59442284D01*
X109477500Y-50430000D02*
X109477500Y-50350000D01*
X153387500Y-54330000D02*
X113377500Y-54330000D01*
X158493920Y-59442284D02*
X153917500Y-54865864D01*
X109477500Y-50350000D02*
X104287500Y-50350000D01*
X83997500Y-53731420D02*
X80137500Y-49871420D01*
X113377500Y-54330000D02*
X109477500Y-50430000D01*
X135912500Y-74907500D02*
X135912500Y-80200000D01*
X136910000Y-73910000D02*
X140377500Y-73910000D01*
X149386204Y-68550000D02*
X136580000Y-68550000D01*
X152978488Y-64957716D02*
X149386204Y-68550000D01*
X136580000Y-68550000D02*
X135912500Y-69217500D01*
X135912500Y-74907500D02*
X136910000Y-73910000D01*
X135912500Y-69217500D02*
X135912500Y-74907500D01*
X135912500Y-99250000D02*
X135912500Y-94595497D01*
X137547997Y-92960000D02*
X140377500Y-92960000D01*
X135912500Y-94595497D02*
X137547997Y-92960000D01*
X135912500Y-113645497D02*
X135912500Y-118300000D01*
X137547997Y-112010000D02*
X135912500Y-113645497D01*
X140377500Y-112010000D02*
X137547997Y-112010000D01*
X135912500Y-132695497D02*
X135912500Y-137350000D01*
X137547997Y-131060000D02*
X135912500Y-132695497D01*
X140377500Y-131060000D02*
X137547997Y-131060000D01*
X117637500Y-49750000D02*
X120717500Y-52830000D01*
X86166080Y-53360000D02*
X100337500Y-53360000D01*
X167368812Y-52830000D02*
X173981096Y-59442284D01*
X100337500Y-53360000D02*
X103947500Y-49750000D01*
X173981096Y-59442284D02*
X185596478Y-59442284D01*
X103947500Y-49750000D02*
X117637500Y-49750000D01*
X82677500Y-49871420D02*
X86166080Y-53360000D01*
X120717500Y-52830000D02*
X167368812Y-52830000D01*
X168465664Y-64957716D02*
X163403380Y-70020000D01*
X157447500Y-70020000D02*
X154962500Y-72505000D01*
X163403380Y-70020000D02*
X157447500Y-70020000D01*
X157447500Y-70020000D02*
X157447500Y-71930000D01*
X157447500Y-71930000D02*
X159427500Y-73910000D01*
X154962500Y-72505000D02*
X154962500Y-80200000D01*
X157307500Y-92960000D02*
X159427500Y-92960000D01*
X153087500Y-97180000D02*
X153087500Y-97375000D01*
X153087500Y-97180000D02*
X157307500Y-92960000D01*
X153087500Y-97375000D02*
X154962500Y-99250000D01*
X158297500Y-112010000D02*
X159427500Y-112010000D01*
X155097500Y-115210000D02*
X158297500Y-112010000D01*
X154962500Y-115345000D02*
X154962500Y-118300000D01*
X155097500Y-115210000D02*
X154962500Y-115345000D01*
X154962500Y-133247500D02*
X157150000Y-131060000D01*
X154962500Y-134685000D02*
X154962500Y-137350000D01*
X154962500Y-134685000D02*
X154962500Y-133247500D01*
X154277500Y-134000000D02*
X154962500Y-134685000D01*
X157150000Y-131060000D02*
X159427500Y-131060000D01*
X189468272Y-59442284D02*
X201083654Y-59442284D01*
X174257500Y-56900000D02*
X186925988Y-56900000D01*
X88106080Y-52760000D02*
X100088972Y-52760000D01*
X186925988Y-56900000D02*
X189468272Y-59442284D01*
X103698972Y-49150000D02*
X121867500Y-49150000D01*
X100088972Y-52760000D02*
X103698972Y-49150000D01*
X85217500Y-49871420D02*
X88106080Y-52760000D01*
X124517500Y-51800000D02*
X169157500Y-51800000D01*
X121867500Y-49150000D02*
X124517500Y-51800000D01*
X169157500Y-51800000D02*
X174257500Y-56900000D01*
X172107500Y-77220000D02*
X172107500Y-78295000D01*
X178477500Y-73910000D02*
X175417500Y-73910000D01*
X175417500Y-73910000D02*
X172107500Y-77220000D01*
X172107500Y-78295000D02*
X174012500Y-80200000D01*
X174077500Y-96520000D02*
X174077500Y-94530497D01*
X174077500Y-94530497D02*
X175647997Y-92960000D01*
X174077500Y-96520000D02*
X174077500Y-99185000D01*
X175647997Y-92960000D02*
X178477500Y-92960000D01*
X173767500Y-114590000D02*
X176347500Y-112010000D01*
X176347500Y-112010000D02*
X178477500Y-112010000D01*
X174012500Y-114835000D02*
X174012500Y-118300000D01*
X173767500Y-114590000D02*
X174012500Y-114835000D01*
X173777500Y-132930497D02*
X175647997Y-131060000D01*
X173777500Y-134020000D02*
X173777500Y-132930497D01*
X174012500Y-134255000D02*
X174012500Y-137350000D01*
X173777500Y-134020000D02*
X174012500Y-134255000D01*
X175647997Y-131060000D02*
X178477500Y-131060000D01*
X89366080Y-51480000D02*
X99277500Y-51480000D01*
X204955448Y-59442284D02*
X216570830Y-59442284D01*
X99277500Y-51480000D02*
X102697500Y-48060000D01*
X102697500Y-48060000D02*
X193573164Y-48060000D01*
X193573164Y-48060000D02*
X204955448Y-59442284D01*
X87757500Y-49871420D02*
X89366080Y-51480000D01*
X193062500Y-76159797D02*
X193062500Y-80200000D01*
X197527500Y-73910000D02*
X195312297Y-73910000D01*
X190887500Y-79760000D02*
X192622500Y-79760000D01*
X195312297Y-73910000D02*
X193062500Y-76159797D01*
X196384500Y-94103000D02*
X193554997Y-94103000D01*
X193062500Y-97585000D02*
X193062500Y-99250000D01*
X193062500Y-94595497D02*
X193062500Y-99250000D01*
X191987500Y-96510000D02*
X193062500Y-97585000D01*
X193554997Y-94103000D02*
X193062500Y-94595497D01*
X197527500Y-92960000D02*
X196384500Y-94103000D01*
X195487500Y-112010000D02*
X197527500Y-112010000D01*
X192937500Y-114560000D02*
X195487500Y-112010000D01*
X193062500Y-114685000D02*
X193062500Y-118300000D01*
X192937500Y-114560000D02*
X193062500Y-114685000D01*
X194697997Y-131060000D02*
X197527500Y-131060000D01*
X192717500Y-133040497D02*
X194697997Y-131060000D01*
X192717500Y-133600000D02*
X192717500Y-133040497D01*
X193062500Y-133945000D02*
X193062500Y-137350000D01*
X192717500Y-133600000D02*
X193062500Y-133945000D01*
X220442624Y-59442284D02*
X232058006Y-59442284D01*
X85217500Y-65111420D02*
X87608920Y-62720000D01*
X87608920Y-62720000D02*
X217164908Y-62720000D01*
X217164908Y-62720000D02*
X220442624Y-59442284D01*
X216577500Y-73910000D02*
X214660000Y-73910000D01*
X214927192Y-64957716D02*
X211217500Y-68667408D01*
X211217500Y-77352500D02*
X211217500Y-79305000D01*
X214660000Y-73910000D02*
X211217500Y-77352500D01*
X211217500Y-68667408D02*
X211217500Y-77352500D01*
X212112500Y-94905000D02*
X212112500Y-99250000D01*
X212367500Y-94650000D02*
X212112500Y-94905000D01*
X216577500Y-92960000D02*
X214057500Y-92960000D01*
X214057500Y-92960000D02*
X212367500Y-94650000D01*
X212197500Y-115420000D02*
X212197500Y-118215000D01*
X213747997Y-112010000D02*
X216577500Y-112010000D01*
X212197500Y-113560497D02*
X213747997Y-112010000D01*
X212197500Y-115420000D02*
X212197500Y-113560497D01*
X211937500Y-134610000D02*
X211937500Y-137175000D01*
X87757500Y-65111420D02*
X89492575Y-63376345D01*
X231995739Y-63376345D02*
X235929800Y-59442284D01*
X89492575Y-63376345D02*
X231995739Y-63376345D01*
X235929800Y-59442284D02*
X247545182Y-59442284D01*
X231920000Y-73910000D02*
X230414368Y-75415632D01*
X230414368Y-64957716D02*
X230414368Y-75415632D01*
X230414368Y-75415632D02*
X230414368Y-79451868D01*
X235627500Y-73910000D02*
X231920000Y-73910000D01*
X231162500Y-96105000D02*
X231162500Y-99250000D01*
X235627500Y-92960000D02*
X234307500Y-92960000D01*
X230647500Y-95590000D02*
X231162500Y-96105000D01*
X234307500Y-92960000D02*
X231162500Y-96105000D01*
X231162500Y-114325000D02*
X231162500Y-118300000D01*
X235627500Y-112010000D02*
X233477500Y-112010000D01*
X233477500Y-112010000D02*
X231227500Y-114260000D01*
X231227500Y-114260000D02*
X231162500Y-114325000D01*
X229927500Y-140060000D02*
X231162500Y-138825000D01*
X231162500Y-138825000D02*
X231162500Y-137350000D01*
X235627500Y-131060000D02*
X232797997Y-131060000D01*
X232797997Y-131060000D02*
X231162500Y-132695497D01*
X231162500Y-132695497D02*
X231162500Y-137350000D01*
X75057500Y-65111420D02*
X75057500Y-69397500D01*
X127677500Y-71370000D02*
X127677500Y-81665000D01*
X111312501Y-84350001D02*
X99437501Y-84350001D01*
X130362501Y-84350001D02*
X111312501Y-84350001D01*
X75057500Y-78605000D02*
X71262500Y-82400000D01*
X75057500Y-69397500D02*
X75057500Y-78605000D01*
X97487500Y-82400000D02*
X90312500Y-82400000D01*
X185562500Y-82400000D02*
X185562500Y-72105000D01*
X187512501Y-84350001D02*
X168462501Y-84350001D01*
X70527500Y-71370000D02*
X72500000Y-69397500D01*
X72500000Y-69397500D02*
X75057500Y-69397500D01*
X187512501Y-84350001D02*
X185562500Y-82400000D01*
X88362499Y-84350001D02*
X73212501Y-84350001D01*
X149412501Y-84350001D02*
X147462500Y-82400000D01*
X204612500Y-82400000D02*
X202662499Y-84350001D01*
X225612501Y-84350001D02*
X223662500Y-82400000D01*
X89170000Y-74759500D02*
X90312500Y-75902000D01*
X108627500Y-71370000D02*
X108627500Y-81665000D01*
X168462501Y-84350001D02*
X166512500Y-82400000D01*
X242712500Y-82400000D02*
X240762499Y-84350001D01*
X202662499Y-84350001D02*
X187512501Y-84350001D01*
X149412501Y-84350001D02*
X130362501Y-84350001D01*
X166512500Y-82400000D02*
X166512500Y-72105000D01*
X241977500Y-71370000D02*
X241977500Y-81665000D01*
X111312501Y-84350001D02*
X109362500Y-82400000D01*
X90312500Y-75902000D02*
X90312500Y-82400000D01*
X203877500Y-71370000D02*
X203877500Y-81665000D01*
X99437501Y-84350001D02*
X97487500Y-82400000D01*
X225612501Y-84350001D02*
X213611565Y-84350001D01*
X168462501Y-84350001D02*
X149412501Y-84350001D01*
X211661564Y-82400000D02*
X204612500Y-82400000D01*
X185562500Y-72105000D02*
X184827500Y-71370000D01*
X146727500Y-71370000D02*
X146727500Y-81665000D01*
X213611565Y-84350001D02*
X211661564Y-82400000D01*
X90312500Y-82400000D02*
X88362499Y-84350001D01*
X130362501Y-84350001D02*
X128412500Y-82400000D01*
X240762499Y-84350001D02*
X225612501Y-84350001D01*
X166512500Y-72105000D02*
X165777500Y-71370000D01*
X222927500Y-71370000D02*
X222927500Y-81665000D01*
X73212501Y-84350001D02*
X71262500Y-82400000D01*
X145112500Y-103800000D02*
X147462500Y-101450000D01*
X204340000Y-98280000D02*
X204612500Y-98552500D01*
X71740000Y-93710000D02*
X71740000Y-98960000D01*
X72040000Y-93410000D02*
X71740000Y-93710000D01*
X151800000Y-102300000D02*
X152300000Y-101800000D01*
X71262500Y-92652867D02*
X71282867Y-92652867D01*
X73000000Y-103800000D02*
X87962500Y-103800000D01*
X126062500Y-103800000D02*
X145112500Y-103800000D01*
X241977500Y-90420000D02*
X241977500Y-100715000D01*
X164062500Y-103900000D02*
X183112500Y-103900000D01*
X185562500Y-98572500D02*
X185562500Y-101450000D01*
X157000000Y-103600000D02*
X157000000Y-103900000D01*
X109280000Y-97940000D02*
X109362500Y-98022500D01*
X223662500Y-98712500D02*
X223662500Y-101450000D01*
X166670000Y-98060000D02*
X166512500Y-98217500D01*
X184710000Y-97720000D02*
X185562500Y-98572500D01*
X126062500Y-103800000D02*
X128412500Y-101450000D01*
X128412500Y-91155000D02*
X127677500Y-90420000D01*
X67600000Y-89900000D02*
X68509633Y-89900000D01*
X157000000Y-103900000D02*
X164062500Y-103900000D01*
X146612500Y-102300000D02*
X151800000Y-102300000D01*
X68509633Y-89900000D02*
X71262500Y-92652867D01*
X166512500Y-98217500D02*
X166512500Y-101450000D01*
X164062500Y-103900000D02*
X166512500Y-101450000D01*
X202662499Y-103400001D02*
X204612500Y-101450000D01*
X147462500Y-101450000D02*
X147462500Y-91155000D01*
X183612499Y-103400001D02*
X202662499Y-103400001D01*
X71262500Y-99437500D02*
X71262500Y-101450000D01*
X90520000Y-98890000D02*
X90520000Y-101242500D01*
X204612500Y-98552500D02*
X204612500Y-101450000D01*
X71282867Y-92652867D02*
X72040000Y-93410000D01*
X87962500Y-103800000D02*
X107012500Y-103800000D01*
X128412500Y-101450000D02*
X128412500Y-91155000D01*
X147462500Y-91155000D02*
X146727500Y-90420000D01*
X71740000Y-98960000D02*
X71262500Y-99437500D01*
X183112500Y-103900000D02*
X183612499Y-103400001D01*
X107012500Y-103800000D02*
X126062500Y-103800000D01*
X107012500Y-103800000D02*
X109362500Y-101450000D01*
X155200000Y-101800000D02*
X157000000Y-103600000D01*
X109362500Y-98022500D02*
X109362500Y-101450000D01*
X240762499Y-103400001D02*
X242712500Y-101450000D01*
X202662499Y-103400001D02*
X221712499Y-103400001D01*
X221712499Y-103400001D02*
X223662500Y-101450000D01*
X222990000Y-98040000D02*
X223662500Y-98712500D01*
X145112500Y-103800000D02*
X146612500Y-102300000D01*
X87962500Y-103800000D02*
X90312500Y-101450000D01*
X152300000Y-101800000D02*
X155200000Y-101800000D01*
X221712499Y-103400001D02*
X240762499Y-103400001D01*
X183112500Y-103900000D02*
X185562500Y-101450000D01*
X71262500Y-102062500D02*
X73000000Y-103800000D01*
X147462500Y-120500000D02*
X147462500Y-110205000D01*
X65132684Y-94817316D02*
X64790000Y-95160000D01*
X204612500Y-110205000D02*
X203877500Y-109470000D01*
X204612500Y-120500000D02*
X204612500Y-110205000D01*
X168612500Y-122600000D02*
X149562500Y-122600000D01*
X73662500Y-122900000D02*
X71262500Y-120500000D01*
X70527500Y-112812998D02*
X71132251Y-113417749D01*
X65132684Y-94757316D02*
X65132684Y-94817316D01*
X71132251Y-113417749D02*
X71262500Y-113547999D01*
X204612500Y-122412500D02*
X204612500Y-120500000D01*
X207200000Y-123000000D02*
X205200000Y-123000000D01*
X95100000Y-120800000D02*
X93000000Y-122900000D01*
X186400000Y-122600000D02*
X168612500Y-122600000D01*
X66310000Y-92000000D02*
X66310000Y-93580000D01*
X205200000Y-123000000D02*
X194800000Y-123000000D01*
X212200000Y-120800000D02*
X209400000Y-120800000D01*
X194800000Y-123000000D02*
X194400000Y-122600000D01*
X93000000Y-122900000D02*
X92712500Y-122900000D01*
X127677500Y-109470000D02*
X127677500Y-119765000D01*
X225900000Y-122500000D02*
X213900000Y-122500000D01*
X147462500Y-110205000D02*
X146727500Y-109470000D01*
X90312500Y-120500000D02*
X90312500Y-110205000D01*
X242712500Y-122100000D02*
X242312500Y-122500000D01*
X64310000Y-90000000D02*
X66310000Y-92000000D01*
X63460000Y-105745499D02*
X71132251Y-113417749D01*
X149562500Y-122600000D02*
X147462500Y-120500000D01*
X213900000Y-122500000D02*
X212200000Y-120800000D01*
X64990000Y-100170000D02*
X63460000Y-101700000D01*
X130512500Y-122600000D02*
X128412500Y-120500000D01*
X209400000Y-120800000D02*
X207200000Y-123000000D01*
X99800000Y-122600000D02*
X98000000Y-120800000D01*
X111462500Y-122600000D02*
X99800000Y-122600000D01*
X241977500Y-109470000D02*
X241977500Y-119765000D01*
X90312500Y-110205000D02*
X89577500Y-109470000D01*
X62900000Y-90000000D02*
X64310000Y-90000000D01*
X64790000Y-95160000D02*
X64990000Y-95360000D01*
X92712500Y-122900000D02*
X90312500Y-120500000D01*
X185562500Y-121762500D02*
X185562500Y-120500000D01*
X111462500Y-122600000D02*
X109362500Y-120500000D01*
X70527500Y-109470000D02*
X70527500Y-112812998D01*
X92712500Y-122900000D02*
X73662500Y-122900000D01*
X205200000Y-123000000D02*
X204612500Y-122412500D01*
X130512500Y-122600000D02*
X111462500Y-122600000D01*
X66310000Y-93580000D02*
X65132684Y-94757316D01*
X184827500Y-109470000D02*
X184827500Y-119765000D01*
X64990000Y-95360000D02*
X64990000Y-100170000D01*
X71262500Y-113547999D02*
X71262500Y-120500000D01*
X108627500Y-109470000D02*
X108627500Y-119765000D01*
X242312500Y-122500000D02*
X225900000Y-122500000D01*
X225900000Y-122500000D02*
X223900000Y-120500000D01*
X98000000Y-120800000D02*
X95100000Y-120800000D01*
X242712500Y-120500000D02*
X242712500Y-122100000D01*
X186400000Y-122600000D02*
X185562500Y-121762500D01*
X165777500Y-109470000D02*
X165777500Y-119765000D01*
X168612500Y-122600000D02*
X166512500Y-120500000D01*
X194400000Y-122600000D02*
X186400000Y-122600000D01*
X222927500Y-109470000D02*
X222927500Y-119765000D01*
X149562500Y-122600000D02*
X130512500Y-122600000D01*
X63460000Y-101700000D02*
X63460000Y-105745499D01*
X125662500Y-142300000D02*
X144712500Y-142300000D01*
X182831250Y-142281250D02*
X201881250Y-142281250D01*
X201881250Y-142281250D02*
X220931250Y-142281250D01*
X242510000Y-136660000D02*
X242510000Y-139347500D01*
X222927500Y-128520000D02*
X222927500Y-138815000D01*
X201881250Y-142281250D02*
X204612500Y-139550000D01*
X61500000Y-90100000D02*
X57337500Y-94262500D01*
X125662500Y-142300000D02*
X128412500Y-139550000D01*
X87562500Y-142300000D02*
X90312500Y-139550000D01*
X108627500Y-132077500D02*
X109362500Y-132812500D01*
X184827500Y-128520000D02*
X184827500Y-138815000D01*
X87562500Y-142300000D02*
X106612500Y-142300000D01*
X166512500Y-139550000D02*
X166512500Y-129255000D01*
X71262500Y-132762500D02*
X71262500Y-139550000D01*
X70527500Y-128520000D02*
X70527500Y-132027500D01*
X203877500Y-128520000D02*
X203877500Y-138815000D01*
X106612500Y-142300000D02*
X109362500Y-139550000D01*
X144712500Y-142300000D02*
X163762500Y-142300000D01*
X220931250Y-142281250D02*
X223662500Y-139550000D01*
X90290000Y-136260000D02*
X90312500Y-136282500D01*
X127677500Y-128520000D02*
X127677500Y-138815000D01*
X57337500Y-131362500D02*
X57581869Y-131606869D01*
X63300000Y-128520000D02*
X70527500Y-128520000D01*
X108627500Y-128520000D02*
X108627500Y-132077500D01*
X220931250Y-142281250D02*
X239981250Y-142281250D01*
X57337500Y-94262500D02*
X57337500Y-131362500D01*
X144712500Y-142300000D02*
X147462500Y-139550000D01*
X163781250Y-142281250D02*
X166512500Y-139550000D01*
X70527500Y-132027500D02*
X71262500Y-132762500D01*
X146727500Y-128520000D02*
X146727500Y-138815000D01*
X163762500Y-142300000D02*
X163781250Y-142281250D01*
X182831250Y-142281250D02*
X185562500Y-139550000D01*
X74012500Y-142300000D02*
X87562500Y-142300000D01*
X106612500Y-142300000D02*
X125662500Y-142300000D01*
X90312500Y-136282500D02*
X90312500Y-139550000D01*
X163781250Y-142281250D02*
X182831250Y-142281250D01*
X109362500Y-132812500D02*
X109362500Y-139550000D01*
X57581869Y-131606869D02*
X60213131Y-131606869D01*
X166512500Y-129255000D02*
X165777500Y-128520000D01*
X60213131Y-131606869D02*
X63300000Y-128520000D01*
X239981250Y-142281250D02*
X242712500Y-139550000D01*
X71262500Y-139550000D02*
X74012500Y-142300000D01*
X65490000Y-75420000D02*
X65490000Y-83992500D01*
X59817500Y-65111420D02*
X65787500Y-71081420D01*
X65787500Y-71081420D02*
X65787500Y-75122500D01*
X65787500Y-75122500D02*
X65490000Y-75420000D01*
X65490000Y-83992500D02*
X68497500Y-87000000D01*
X68497500Y-87000000D02*
X74987500Y-87000000D01*
X66168920Y-48600000D02*
X64897500Y-49871420D01*
X91437500Y-48600000D02*
X66168920Y-48600000D01*
X92437500Y-49600000D02*
X91437500Y-48600000D01*
X86210000Y-90200000D02*
X88240000Y-88170000D01*
X93060000Y-90350000D02*
X99970000Y-90350000D01*
X90880000Y-88170000D02*
X93060000Y-90350000D01*
X99970000Y-90350000D02*
X103320000Y-87000000D01*
X88240000Y-88170000D02*
X90880000Y-88170000D01*
X79887500Y-90200000D02*
X86210000Y-90200000D01*
X103320000Y-87000000D02*
X113112500Y-87000000D01*
X121440000Y-86820000D02*
X121620000Y-87000000D01*
X121620000Y-87000000D02*
X151237500Y-87000000D01*
X119862500Y-88425000D02*
X119862500Y-88397500D01*
X119862500Y-88397500D02*
X121440000Y-86820000D01*
X119862500Y-88425000D02*
X118087500Y-90200000D01*
X189362500Y-87000000D02*
X187937500Y-88425000D01*
X158212500Y-88425000D02*
X156437500Y-90200000D01*
X187937500Y-88425000D02*
X158212500Y-88425000D01*
X227487500Y-87000000D02*
X218860000Y-87000000D01*
X200180000Y-88160000D02*
X198140000Y-90200000D01*
X204790000Y-88160000D02*
X200180000Y-88160000D01*
X206830000Y-90200000D02*
X204790000Y-88160000D01*
X218860000Y-87000000D02*
X215660000Y-90200000D01*
X215660000Y-90200000D02*
X206830000Y-90200000D01*
X198140000Y-90200000D02*
X194262500Y-90200000D01*
X247700000Y-88560000D02*
X245640000Y-86500000D01*
X232387500Y-128200000D02*
X238210000Y-128200000D01*
X245640000Y-86500000D02*
X236087500Y-86500000D01*
X240150000Y-126260000D02*
X245060000Y-126260000D01*
X247700000Y-123620000D02*
X247700000Y-88560000D01*
X245060000Y-126260000D02*
X247700000Y-123620000D01*
X238210000Y-128200000D02*
X240150000Y-126260000D01*
X236087500Y-86500000D02*
X232387500Y-90200000D01*
X216920000Y-125000000D02*
X227487500Y-125000000D01*
X213280000Y-128640000D02*
X216920000Y-125000000D01*
X197761459Y-124701041D02*
X205738959Y-124701041D01*
X194262500Y-128200000D02*
X197761459Y-124701041D01*
X209677918Y-128640000D02*
X213280000Y-128640000D01*
X205738959Y-124701041D02*
X209677918Y-128640000D01*
X159337500Y-125000000D02*
X189362500Y-125000000D01*
X156137500Y-128200000D02*
X159337500Y-125000000D01*
X122180000Y-124880000D02*
X122300000Y-125000000D01*
X118012500Y-128200000D02*
X121332500Y-124880000D01*
X121332500Y-124880000D02*
X122180000Y-124880000D01*
X122300000Y-125000000D02*
X151237500Y-125000000D01*
X88550000Y-130210000D02*
X97970000Y-130210000D01*
X79887500Y-128200000D02*
X86540000Y-128200000D01*
X97970000Y-130210000D02*
X103180000Y-125000000D01*
X103180000Y-125000000D02*
X113112500Y-125000000D01*
X86540000Y-128200000D02*
X88550000Y-130210000D01*
D21*
X116812500Y-85800000D02*
X154937500Y-85800000D01*
X187232500Y-126070000D02*
X189362500Y-128200000D01*
X225617500Y-126330000D02*
X227487500Y-128200000D01*
X114312500Y-129400000D02*
X119462500Y-129400000D01*
X158287500Y-128700000D02*
X162510000Y-128700000D01*
X151237500Y-128200000D02*
X152437500Y-129400000D01*
X100737500Y-85800000D02*
X116812500Y-85800000D01*
X217460000Y-126330000D02*
X225617500Y-126330000D01*
X113112500Y-128200000D02*
X114312500Y-129400000D01*
X162510000Y-128700000D02*
X164000000Y-127210000D01*
X216630000Y-85380000D02*
X212660000Y-89350000D01*
X152437500Y-129400000D02*
X157587500Y-129400000D01*
X196852500Y-128260000D02*
X196852500Y-127557500D01*
X241440000Y-131250000D02*
X244317500Y-131250000D01*
X212660000Y-89350000D02*
X209030000Y-89350000D01*
X230767500Y-85380000D02*
X216630000Y-85380000D01*
X196852500Y-127557500D02*
X198858959Y-125551041D01*
X229587500Y-130050000D02*
X233990000Y-130050000D01*
X244317500Y-131250000D02*
X249787500Y-125780000D01*
X234187499Y-85200001D02*
X232387500Y-87000000D01*
X99350000Y-131130000D02*
X104190000Y-126290000D01*
X57587500Y-84400000D02*
X57587500Y-59721420D01*
X234930000Y-129110000D02*
X239300000Y-129110000D01*
X79887500Y-87000000D02*
X78547500Y-88340000D01*
X193062500Y-85800000D02*
X194262500Y-87000000D01*
X79887500Y-87000000D02*
X92437500Y-87000000D01*
X209260000Y-129510000D02*
X214280000Y-129510000D01*
X227737500Y-128200000D02*
X229587500Y-130050000D01*
X99447500Y-89350000D02*
X100737500Y-88060000D01*
X214280000Y-129510000D02*
X217460000Y-126330000D01*
X154937500Y-85800000D02*
X193062500Y-85800000D01*
X205440000Y-85760000D02*
X193102500Y-85760000D01*
X94787500Y-89350000D02*
X99447500Y-89350000D01*
X164960000Y-126070000D02*
X187232500Y-126070000D01*
X118012500Y-87000000D02*
X116812500Y-85800000D01*
X74987500Y-128200000D02*
X76187500Y-129400000D01*
X205301041Y-125551041D02*
X209260000Y-129510000D01*
X239300000Y-129110000D02*
X241440000Y-131250000D01*
X119462500Y-129400000D02*
X122612500Y-126250000D01*
X193102500Y-85760000D02*
X193062500Y-85800000D01*
X76187500Y-129400000D02*
X81337500Y-129400000D01*
X92437500Y-87000000D02*
X94787500Y-89350000D01*
X157587500Y-129400000D02*
X158287500Y-128700000D01*
X104190000Y-126290000D02*
X111202500Y-126290000D01*
X61527500Y-88340000D02*
X57587500Y-84400000D01*
X189362500Y-128200000D02*
X190562500Y-129400000D01*
X198858959Y-125551041D02*
X205301041Y-125551041D01*
X209030000Y-89350000D02*
X205440000Y-85760000D01*
X164000000Y-127210000D02*
X164000000Y-127030000D01*
X81337500Y-129400000D02*
X81527500Y-129210000D01*
X100737500Y-88060000D02*
X100737500Y-85800000D01*
X111202500Y-126290000D02*
X113112500Y-128200000D01*
X57587500Y-59721420D02*
X67437500Y-49871420D01*
X154937500Y-85800000D02*
X156137500Y-87000000D01*
X249787500Y-87627500D02*
X247360002Y-85200002D01*
X78547500Y-88340000D02*
X61527500Y-88340000D01*
X81527500Y-129210000D02*
X86200000Y-129210000D01*
X122612500Y-126250000D02*
X149287500Y-126250000D01*
X149287500Y-126250000D02*
X151237500Y-128200000D01*
X233990000Y-130050000D02*
X234930000Y-129110000D01*
X195712500Y-129400000D02*
X196852500Y-128260000D01*
X164000000Y-127030000D02*
X164960000Y-126070000D01*
X86200000Y-129210000D02*
X88120000Y-131130000D01*
X232387500Y-87000000D02*
X230767500Y-85380000D01*
X88120000Y-131130000D02*
X99350000Y-131130000D01*
X247360002Y-85200002D02*
X234187499Y-85200001D01*
X190562500Y-129400000D02*
X195712500Y-129400000D01*
X249787500Y-125780000D02*
X249787500Y-87627500D01*
X193062500Y-123800000D02*
X154937500Y-123800000D01*
X209945000Y-127705000D02*
X212115000Y-127705000D01*
X67444215Y-65111420D02*
X70328670Y-62226965D01*
X154937500Y-123800000D02*
X116812500Y-123800000D01*
X75281418Y-97120000D02*
X76767500Y-95633918D01*
X111622500Y-123760000D02*
X111662500Y-123800000D01*
X187170000Y-91400000D02*
X186020000Y-92550000D01*
X219340000Y-92550000D02*
X217900000Y-91110000D01*
X179410000Y-90410000D02*
X169310000Y-90410000D01*
X242212500Y-125000000D02*
X246600000Y-120612500D01*
X84227000Y-91117000D02*
X81373000Y-91117000D01*
D19*
X95337500Y-48000000D02*
X64228920Y-48000000D01*
D21*
X80510000Y-91980000D02*
X76767500Y-91980000D01*
X194262500Y-125000000D02*
X193062500Y-123800000D01*
X111140000Y-91400000D02*
X110090000Y-92450000D01*
X223880000Y-92550000D02*
X219340000Y-92550000D01*
X246700000Y-89560000D02*
X245420000Y-88280000D01*
X72850000Y-97120000D02*
X75281418Y-97120000D01*
X118012500Y-125000000D02*
X116812500Y-123800000D01*
D19*
X96937500Y-49600000D02*
X95337500Y-48000000D01*
D21*
X67401383Y-91889301D02*
X68959301Y-91889301D01*
X87980000Y-125290000D02*
X93030000Y-125290000D01*
X206180000Y-91110000D02*
X204810000Y-92480000D01*
X79887500Y-125000000D02*
X82237500Y-127350000D01*
X93030000Y-125290000D02*
X95070000Y-127330000D01*
X232387500Y-125000000D02*
X242212500Y-125000000D01*
X105050000Y-92450000D02*
X103380000Y-90780000D01*
X81373000Y-91117000D02*
X80510000Y-91980000D01*
X186020000Y-92550000D02*
X181550000Y-92550000D01*
X70840000Y-93770000D02*
X70840000Y-97140000D01*
X246600000Y-94800000D02*
X246700000Y-94700000D01*
X70328670Y-57199999D02*
X68238671Y-55110000D01*
X156420000Y-92410000D02*
X153447500Y-92410000D01*
X194740000Y-92200000D02*
X191362500Y-92200000D01*
X227487500Y-90200000D02*
X226357500Y-91330000D01*
X225030000Y-91400000D02*
X223880000Y-92550000D01*
X65520000Y-89680000D02*
X65520000Y-90007918D01*
X151237500Y-90200000D02*
X153447500Y-92410000D01*
X68238671Y-55110000D02*
X64480000Y-55110000D01*
X114312500Y-91400000D02*
X113112500Y-90200000D01*
X156137500Y-125000000D02*
X154937500Y-123800000D01*
X114312500Y-91400000D02*
X119462500Y-91400000D01*
X85920000Y-127350000D02*
X87980000Y-125290000D01*
X226287500Y-91400000D02*
X225030000Y-91400000D01*
X101240000Y-90780000D02*
X99730000Y-92290000D01*
X82237500Y-127350000D02*
X85920000Y-127350000D01*
X217900000Y-91110000D02*
X206180000Y-91110000D01*
X119462500Y-91400000D02*
X122542500Y-88320000D01*
X234180000Y-91400000D02*
X226287500Y-91400000D01*
X246600000Y-120612500D02*
X246600000Y-94800000D01*
X231187500Y-123800000D02*
X232387500Y-125000000D01*
X189362500Y-90200000D02*
X188162500Y-91400000D01*
X191362500Y-92200000D02*
X189362500Y-90200000D01*
X76767500Y-95633918D02*
X76767500Y-91980000D01*
X101790000Y-123760000D02*
X111622500Y-123760000D01*
X99730000Y-92290000D02*
X85400000Y-92290000D01*
X206090000Y-123850000D02*
X209945000Y-127705000D01*
X161800000Y-90950000D02*
X157880000Y-90950000D01*
X76767500Y-91980000D02*
X74987500Y-90200000D01*
X157880000Y-90950000D02*
X156420000Y-92410000D01*
X65520000Y-90007918D02*
X67401383Y-91889301D01*
D19*
X64228920Y-48000000D02*
X62357500Y-49871420D01*
D21*
X122542500Y-88320000D02*
X149357500Y-88320000D01*
X199020000Y-91090000D02*
X195850000Y-91090000D01*
X70328670Y-62226965D02*
X70328670Y-57199999D01*
X193062500Y-123800000D02*
X193112500Y-123850000D01*
X166900000Y-92820000D02*
X163670000Y-92820000D01*
X195850000Y-91090000D02*
X194740000Y-92200000D01*
X101790000Y-124410000D02*
X101790000Y-123760000D01*
X193112500Y-123850000D02*
X206090000Y-123850000D01*
X163670000Y-92820000D02*
X161800000Y-90950000D01*
X110090000Y-92450000D02*
X105050000Y-92450000D01*
X103380000Y-90780000D02*
X101240000Y-90780000D01*
X245420000Y-88280000D02*
X237300000Y-88280000D01*
X200410000Y-92480000D02*
X199020000Y-91090000D01*
X114312500Y-91400000D02*
X111140000Y-91400000D01*
X226357500Y-91330000D02*
X226287500Y-91400000D01*
X149357500Y-88320000D02*
X151237500Y-90200000D01*
X188162500Y-91400000D02*
X187170000Y-91400000D01*
X95070000Y-127330000D02*
X98870000Y-127330000D01*
X181550000Y-92550000D02*
X179410000Y-90410000D01*
X169310000Y-90410000D02*
X166900000Y-92820000D01*
X216020000Y-123800000D02*
X231187500Y-123800000D01*
X212115000Y-127705000D02*
X216020000Y-123800000D01*
X246700000Y-94700000D02*
X246700000Y-89560000D01*
X111662500Y-123800000D02*
X116812500Y-123800000D01*
X68959301Y-91889301D02*
X70840000Y-93770000D01*
X237300000Y-88280000D02*
X234180000Y-91400000D01*
X98870000Y-127330000D02*
X101790000Y-124410000D01*
X85400000Y-92290000D02*
X84227000Y-91117000D01*
X204810000Y-92480000D02*
X200410000Y-92480000D01*
M02*
