  0
SECTION
  2
HEADER
  9
$ANGBASE
  50
0.0
  9
$ANGDIR
  70
1
  9
$MEASUREMENT
  70
1
  0
ENDSEC
  0
SECTION
  2
TABLES
  0
TABLE
  2
LTYPE
  70
4
  0
LTYPE
  5
40F
  2
CONTINUOUS
  70
0
  3
Solid line
  72
65
  73
0
  40
0.0
  0
LTYPE
  5
410
  2
DASHDOT
 70
0
  3
Dash Dot ____ _ ____ _
 72
65
 73
4
 40
2.0
 49
1.25
 49
-0.25
 49
0.25
 49
-0.25
  0
LTYPE
  5
411
  2
DASHED
 70
0
  3
Dashed __ __ __ __ __
 72
65
 73
2
 40
0.75
 49
0.5
 49
-0.25
  0
LTYPE
  5
43B
  2
DOTTED
 70
0
  3
Dotted .  .  .  .
 72
65
 73
2
 40
0.2
 49
0.0
 49
-0.2
  0
ENDTAB
  0
TABLE
  2
STYLE
  70
4
  0
STYLE
  2
KICAD
  70
0
  40
0
  41
1
  42
1
  50
0
  71
0
  3
isocp.shx
  0
STYLE
  2
KICADB
  70
0
  40
0
  41
1
  42
1
  50
0
  71
0
  3
isocp.shx
  0
STYLE
  2
KICADI
  70
0
  40
0
  41
1
  42
1
  50
15
  71
0
  3
isocp.shx
  0
STYLE
  2
KICADBI
  70
0
  40
0
  41
1
  42
1
  50
15
  71
0
  3
isocp.shx
  0
ENDTAB
  0
TABLE
  2
LAYER
  70
1
  0
LAYER
  2
BLACK
  70
0
  62
7
  6
CONTINUOUS
  0
ENDTAB
  0
ENDSEC
  0
SECTION
  2
ENTITIES
0
LINE
8
BLACK
6
CONTINUOUS
10
94.872
20
-152.411
11
92.272
21
-152.411
0
LINE
8
BLACK
6
CONTINUOUS
10
92.272
20
-152.411
11
92.272
21
-149.811
0
LINE
8
BLACK
6
CONTINUOUS
10
92.272
20
-149.811
11
94.872
21
-149.811
0
LINE
8
BLACK
6
CONTINUOUS
10
94.872
20
-149.811
11
94.872
21
-152.411
0
LINE
8
BLACK
6
CONTINUOUS
10
247.272
20
-152.411
11
244.672
21
-152.411
0
LINE
8
BLACK
6
CONTINUOUS
10
244.672
20
-152.411
11
244.672
21
-149.811
0
LINE
8
BLACK
6
CONTINUOUS
10
244.672
20
-149.811
11
247.272
21
-149.811
0
LINE
8
BLACK
6
CONTINUOUS
10
247.272
20
-149.811
11
247.272
21
-152.411
0
LINE
8
BLACK
6
CONTINUOUS
10
228.222
20
-152.411
11
225.622
21
-152.411
0
LINE
8
BLACK
6
CONTINUOUS
10
225.622
20
-152.411
11
225.622
21
-149.811
0
LINE
8
BLACK
6
CONTINUOUS
10
225.622
20
-149.811
11
228.222
21
-149.811
0
LINE
8
BLACK
6
CONTINUOUS
10
228.222
20
-149.811
11
228.222
21
-152.411
0
LINE
8
BLACK
6
CONTINUOUS
10
209.172
20
-152.411
11
206.572
21
-152.411
0
LINE
8
BLACK
6
CONTINUOUS
10
206.572
20
-152.411
11
206.572
21
-149.811
0
LINE
8
BLACK
6
CONTINUOUS
10
206.572
20
-149.811
11
209.172
21
-149.811
0
LINE
8
BLACK
6
CONTINUOUS
10
209.172
20
-149.811
11
209.172
21
-152.411
0
LINE
8
BLACK
6
CONTINUOUS
10
190.122
20
-152.411
11
187.522
21
-152.411
0
LINE
8
BLACK
6
CONTINUOUS
10
187.522
20
-152.411
11
187.522
21
-149.811
0
LINE
8
BLACK
6
CONTINUOUS
10
187.522
20
-149.811
11
190.122
21
-149.811
0
LINE
8
BLACK
6
CONTINUOUS
10
190.122
20
-149.811
11
190.122
21
-152.411
0
LINE
8
BLACK
6
CONTINUOUS
10
171.072
20
-152.411
11
168.472
21
-152.411
0
LINE
8
BLACK
6
CONTINUOUS
10
168.472
20
-152.411
11
168.472
21
-149.811
0
LINE
8
BLACK
6
CONTINUOUS
10
168.472
20
-149.811
11
171.072
21
-149.811
0
LINE
8
BLACK
6
CONTINUOUS
10
171.072
20
-149.811
11
171.072
21
-152.411
0
LINE
8
BLACK
6
CONTINUOUS
10
152.022
20
-152.411
11
149.422
21
-152.411
0
LINE
8
BLACK
6
CONTINUOUS
10
149.422
20
-152.411
11
149.422
21
-149.811
0
LINE
8
BLACK
6
CONTINUOUS
10
149.422
20
-149.811
11
152.022
21
-149.811
0
LINE
8
BLACK
6
CONTINUOUS
10
152.022
20
-149.811
11
152.022
21
-152.411
0
LINE
8
BLACK
6
CONTINUOUS
10
132.972
20
-152.411
11
130.372
21
-152.411
0
LINE
8
BLACK
6
CONTINUOUS
10
130.372
20
-152.411
11
130.372
21
-149.811
0
LINE
8
BLACK
6
CONTINUOUS
10
130.372
20
-149.811
11
132.972
21
-149.811
0
LINE
8
BLACK
6
CONTINUOUS
10
132.972
20
-149.811
11
132.972
21
-152.411
0
LINE
8
BLACK
6
CONTINUOUS
10
113.922
20
-152.411
11
111.322
21
-152.411
0
LINE
8
BLACK
6
CONTINUOUS
10
111.322
20
-152.411
11
111.322
21
-149.811
0
LINE
8
BLACK
6
CONTINUOUS
10
111.322
20
-149.811
11
113.922
21
-149.811
0
LINE
8
BLACK
6
CONTINUOUS
10
113.922
20
-149.811
11
113.922
21
-152.411
0
LINE
8
BLACK
6
CONTINUOUS
10
75.822
20
-152.411
11
73.222
21
-152.411
0
LINE
8
BLACK
6
CONTINUOUS
10
73.222
20
-152.411
11
73.222
21
-149.811
0
LINE
8
BLACK
6
CONTINUOUS
10
73.222
20
-149.811
11
75.822
21
-149.811
0
LINE
8
BLACK
6
CONTINUOUS
10
75.822
20
-149.811
11
75.822
21
-152.411
0
LINE
8
BLACK
6
CONTINUOUS
10
140.472
20
-150.211
11
137.872
21
-150.211
0
LINE
8
BLACK
6
CONTINUOUS
10
137.872
20
-150.211
11
137.872
21
-147.611
0
LINE
8
BLACK
6
CONTINUOUS
10
137.872
20
-147.611
11
140.472
21
-147.611
0
LINE
8
BLACK
6
CONTINUOUS
10
140.472
20
-147.611
11
140.472
21
-150.211
0
LINE
8
BLACK
6
CONTINUOUS
10
121.422
20
-150.211
11
118.822
21
-150.211
0
LINE
8
BLACK
6
CONTINUOUS
10
118.822
20
-150.211
11
118.822
21
-147.611
0
LINE
8
BLACK
6
CONTINUOUS
10
118.822
20
-147.611
11
121.422
21
-147.611
0
LINE
8
BLACK
6
CONTINUOUS
10
121.422
20
-147.611
11
121.422
21
-150.211
0
LINE
8
BLACK
6
CONTINUOUS
10
159.522
20
-150.211
11
156.922
21
-150.211
0
LINE
8
BLACK
6
CONTINUOUS
10
156.922
20
-150.211
11
156.922
21
-147.611
0
LINE
8
BLACK
6
CONTINUOUS
10
156.922
20
-147.611
11
159.522
21
-147.611
0
LINE
8
BLACK
6
CONTINUOUS
10
159.522
20
-147.611
11
159.522
21
-150.211
0
LINE
8
BLACK
6
CONTINUOUS
10
178.572
20
-150.211
11
175.972
21
-150.211
0
LINE
8
BLACK
6
CONTINUOUS
10
175.972
20
-150.211
11
175.972
21
-147.611
0
LINE
8
BLACK
6
CONTINUOUS
10
175.972
20
-147.611
11
178.572
21
-147.611
0
LINE
8
BLACK
6
CONTINUOUS
10
178.572
20
-147.611
11
178.572
21
-150.211
0
LINE
8
BLACK
6
CONTINUOUS
10
102.372
20
-150.211
11
99.772
21
-150.211
0
LINE
8
BLACK
6
CONTINUOUS
10
99.772
20
-150.211
11
99.772
21
-147.611
0
LINE
8
BLACK
6
CONTINUOUS
10
99.772
20
-147.611
11
102.372
21
-147.611
0
LINE
8
BLACK
6
CONTINUOUS
10
102.372
20
-147.611
11
102.372
21
-150.211
0
LINE
8
BLACK
6
CONTINUOUS
10
197.622
20
-150.211
11
195.022
21
-150.211
0
LINE
8
BLACK
6
CONTINUOUS
10
195.022
20
-150.211
11
195.022
21
-147.611
0
LINE
8
BLACK
6
CONTINUOUS
10
195.022
20
-147.611
11
197.622
21
-147.611
0
LINE
8
BLACK
6
CONTINUOUS
10
197.622
20
-147.611
11
197.622
21
-150.211
0
LINE
8
BLACK
6
CONTINUOUS
10
216.672
20
-150.211
11
214.072
21
-150.211
0
LINE
8
BLACK
6
CONTINUOUS
10
214.072
20
-150.211
11
214.072
21
-147.611
0
LINE
8
BLACK
6
CONTINUOUS
10
214.072
20
-147.611
11
216.672
21
-147.611
0
LINE
8
BLACK
6
CONTINUOUS
10
216.672
20
-147.611
11
216.672
21
-150.211
0
LINE
8
BLACK
6
CONTINUOUS
10
64.272
20
-150.211
11
61.672
21
-150.211
0
LINE
8
BLACK
6
CONTINUOUS
10
61.672
20
-150.211
11
61.672
21
-147.611
0
LINE
8
BLACK
6
CONTINUOUS
10
61.672
20
-147.611
11
64.272
21
-147.611
0
LINE
8
BLACK
6
CONTINUOUS
10
64.272
20
-147.611
11
64.272
21
-150.211
0
LINE
8
BLACK
6
CONTINUOUS
10
235.722
20
-150.211
11
233.122
21
-150.211
0
LINE
8
BLACK
6
CONTINUOUS
10
233.122
20
-150.211
11
233.122
21
-147.611
0
LINE
8
BLACK
6
CONTINUOUS
10
233.122
20
-147.611
11
235.722
21
-147.611
0
LINE
8
BLACK
6
CONTINUOUS
10
235.722
20
-147.611
11
235.722
21
-150.211
0
LINE
8
BLACK
6
CONTINUOUS
10
83.322
20
-150.211
11
80.722
21
-150.211
0
LINE
8
BLACK
6
CONTINUOUS
10
80.722
20
-150.211
11
80.722
21
-147.611
0
LINE
8
BLACK
6
CONTINUOUS
10
80.722
20
-147.611
11
83.322
21
-147.611
0
LINE
8
BLACK
6
CONTINUOUS
10
83.322
20
-147.611
11
83.322
21
-150.211
0
LINE
8
BLACK
6
CONTINUOUS
10
77.887
20
-139.121
11
76.387
21
-139.121
0
LINE
8
BLACK
6
CONTINUOUS
10
76.387
20
-139.121
11
76.387
21
-138.121
0
LINE
8
BLACK
6
CONTINUOUS
10
76.387
20
-138.121
11
77.887
21
-138.121
0
LINE
8
BLACK
6
CONTINUOUS
10
77.887
20
-138.121
11
77.887
21
-139.121
0
LINE
8
BLACK
6
CONTINUOUS
10
230.287
20
-139.121
11
228.787
21
-139.121
0
LINE
8
BLACK
6
CONTINUOUS
10
228.787
20
-139.121
11
228.787
21
-138.121
0
LINE
8
BLACK
6
CONTINUOUS
10
228.787
20
-138.121
11
230.287
21
-138.121
0
LINE
8
BLACK
6
CONTINUOUS
10
230.287
20
-138.121
11
230.287
21
-139.121
0
LINE
8
BLACK
6
CONTINUOUS
10
235.187
20
-139.121
11
233.687
21
-139.121
0
LINE
8
BLACK
6
CONTINUOUS
10
233.687
20
-139.121
11
233.687
21
-138.121
0
LINE
8
BLACK
6
CONTINUOUS
10
233.687
20
-138.121
11
235.187
21
-138.121
0
LINE
8
BLACK
6
CONTINUOUS
10
235.187
20
-138.121
11
235.187
21
-139.121
0
LINE
8
BLACK
6
CONTINUOUS
10
197.087
20
-139.121
11
195.587
21
-139.121
0
LINE
8
BLACK
6
CONTINUOUS
10
195.587
20
-139.121
11
195.587
21
-138.121
0
LINE
8
BLACK
6
CONTINUOUS
10
195.587
20
-138.121
11
197.087
21
-138.121
0
LINE
8
BLACK
6
CONTINUOUS
10
197.087
20
-138.121
11
197.087
21
-139.121
0
LINE
8
BLACK
6
CONTINUOUS
10
192.187
20
-139.121
11
190.687
21
-139.121
0
LINE
8
BLACK
6
CONTINUOUS
10
190.687
20
-139.121
11
190.687
21
-138.121
0
LINE
8
BLACK
6
CONTINUOUS
10
190.687
20
-138.121
11
192.187
21
-138.121
0
LINE
8
BLACK
6
CONTINUOUS
10
192.187
20
-138.121
11
192.187
21
-139.121
0
LINE
8
BLACK
6
CONTINUOUS
10
158.987
20
-139.121
11
157.487
21
-139.121
0
LINE
8
BLACK
6
CONTINUOUS
10
157.487
20
-139.121
11
157.487
21
-138.121
0
LINE
8
BLACK
6
CONTINUOUS
10
157.487
20
-138.121
11
158.987
21
-138.121
0
LINE
8
BLACK
6
CONTINUOUS
10
158.987
20
-138.121
11
158.987
21
-139.121
0
LINE
8
BLACK
6
CONTINUOUS
10
154.087
20
-139.121
11
152.587
21
-139.121
0
LINE
8
BLACK
6
CONTINUOUS
10
152.587
20
-139.121
11
152.587
21
-138.121
0
LINE
8
BLACK
6
CONTINUOUS
10
152.587
20
-138.121
11
154.087
21
-138.121
0
LINE
8
BLACK
6
CONTINUOUS
10
154.087
20
-138.121
11
154.087
21
-139.121
0
LINE
8
BLACK
6
CONTINUOUS
10
115.987
20
-139.121
11
114.487
21
-139.121
0
LINE
8
BLACK
6
CONTINUOUS
10
114.487
20
-139.121
11
114.487
21
-138.121
0
LINE
8
BLACK
6
CONTINUOUS
10
114.487
20
-138.121
11
115.987
21
-138.121
0
LINE
8
BLACK
6
CONTINUOUS
10
115.987
20
-138.121
11
115.987
21
-139.121
0
LINE
8
BLACK
6
CONTINUOUS
10
120.887
20
-139.121
11
119.387
21
-139.121
0
LINE
8
BLACK
6
CONTINUOUS
10
119.387
20
-139.121
11
119.387
21
-138.121
0
LINE
8
BLACK
6
CONTINUOUS
10
119.387
20
-138.121
11
120.887
21
-138.121
0
LINE
8
BLACK
6
CONTINUOUS
10
120.887
20
-138.121
11
120.887
21
-139.121
0
LINE
8
BLACK
6
CONTINUOUS
10
82.787
20
-139.121
11
81.287
21
-139.121
0
LINE
8
BLACK
6
CONTINUOUS
10
81.287
20
-139.121
11
81.287
21
-138.121
0
LINE
8
BLACK
6
CONTINUOUS
10
81.287
20
-138.121
11
82.787
21
-138.121
0
LINE
8
BLACK
6
CONTINUOUS
10
82.787
20
-138.121
11
82.787
21
-139.121
0
LINE
8
BLACK
6
CONTINUOUS
10
77.887
20
-135.921
11
76.387
21
-135.921
0
LINE
8
BLACK
6
CONTINUOUS
10
76.387
20
-135.921
11
76.387
21
-134.921
0
LINE
8
BLACK
6
CONTINUOUS
10
76.387
20
-134.921
11
77.887
21
-134.921
0
LINE
8
BLACK
6
CONTINUOUS
10
77.887
20
-134.921
11
77.887
21
-135.921
0
LINE
8
BLACK
6
CONTINUOUS
10
158.987
20
-135.921
11
157.487
21
-135.921
0
LINE
8
BLACK
6
CONTINUOUS
10
157.487
20
-135.921
11
157.487
21
-134.921
0
LINE
8
BLACK
6
CONTINUOUS
10
157.487
20
-134.921
11
158.987
21
-134.921
0
LINE
8
BLACK
6
CONTINUOUS
10
158.987
20
-134.921
11
158.987
21
-135.921
0
LINE
8
BLACK
6
CONTINUOUS
10
154.087
20
-135.921
11
152.587
21
-135.921
0
LINE
8
BLACK
6
CONTINUOUS
10
152.587
20
-135.921
11
152.587
21
-134.921
0
LINE
8
BLACK
6
CONTINUOUS
10
152.587
20
-134.921
11
154.087
21
-134.921
0
LINE
8
BLACK
6
CONTINUOUS
10
154.087
20
-134.921
11
154.087
21
-135.921
0
LINE
8
BLACK
6
CONTINUOUS
10
192.187
20
-135.921
11
190.687
21
-135.921
0
LINE
8
BLACK
6
CONTINUOUS
10
190.687
20
-135.921
11
190.687
21
-134.921
0
LINE
8
BLACK
6
CONTINUOUS
10
190.687
20
-134.921
11
192.187
21
-134.921
0
LINE
8
BLACK
6
CONTINUOUS
10
192.187
20
-134.921
11
192.187
21
-135.921
0
LINE
8
BLACK
6
CONTINUOUS
10
115.987
20
-135.921
11
114.487
21
-135.921
0
LINE
8
BLACK
6
CONTINUOUS
10
114.487
20
-135.921
11
114.487
21
-134.921
0
LINE
8
BLACK
6
CONTINUOUS
10
114.487
20
-134.921
11
115.987
21
-134.921
0
LINE
8
BLACK
6
CONTINUOUS
10
115.987
20
-134.921
11
115.987
21
-135.921
0
LINE
8
BLACK
6
CONTINUOUS
10
120.887
20
-135.921
11
119.387
21
-135.921
0
LINE
8
BLACK
6
CONTINUOUS
10
119.387
20
-135.921
11
119.387
21
-134.921
0
LINE
8
BLACK
6
CONTINUOUS
10
119.387
20
-134.921
11
120.887
21
-134.921
0
LINE
8
BLACK
6
CONTINUOUS
10
120.887
20
-134.921
11
120.887
21
-135.921
0
LINE
8
BLACK
6
CONTINUOUS
10
197.087
20
-135.921
11
195.587
21
-135.921
0
LINE
8
BLACK
6
CONTINUOUS
10
195.587
20
-135.921
11
195.587
21
-134.921
0
LINE
8
BLACK
6
CONTINUOUS
10
195.587
20
-134.921
11
197.087
21
-134.921
0
LINE
8
BLACK
6
CONTINUOUS
10
197.087
20
-134.921
11
197.087
21
-135.921
0
LINE
8
BLACK
6
CONTINUOUS
10
82.787
20
-135.921
11
81.287
21
-135.921
0
LINE
8
BLACK
6
CONTINUOUS
10
81.287
20
-135.921
11
81.287
21
-134.921
0
LINE
8
BLACK
6
CONTINUOUS
10
81.287
20
-134.921
11
82.787
21
-134.921
0
LINE
8
BLACK
6
CONTINUOUS
10
82.787
20
-134.921
11
82.787
21
-135.921
0
LINE
8
BLACK
6
CONTINUOUS
10
235.187
20
-135.921
11
233.687
21
-135.921
0
LINE
8
BLACK
6
CONTINUOUS
10
233.687
20
-135.921
11
233.687
21
-134.921
0
LINE
8
BLACK
6
CONTINUOUS
10
233.687
20
-134.921
11
235.187
21
-134.921
0
LINE
8
BLACK
6
CONTINUOUS
10
235.187
20
-134.921
11
235.187
21
-135.921
0
LINE
8
BLACK
6
CONTINUOUS
10
230.287
20
-135.921
11
228.787
21
-135.921
0
LINE
8
BLACK
6
CONTINUOUS
10
228.787
20
-135.921
11
228.787
21
-134.921
0
LINE
8
BLACK
6
CONTINUOUS
10
228.787
20
-134.921
11
230.287
21
-134.921
0
LINE
8
BLACK
6
CONTINUOUS
10
230.287
20
-134.921
11
230.287
21
-135.921
0
LINE
8
BLACK
6
CONTINUOUS
10
209.172
20
-133.361
11
206.572
21
-133.361
0
LINE
8
BLACK
6
CONTINUOUS
10
206.572
20
-133.361
11
206.572
21
-130.761
0
LINE
8
BLACK
6
CONTINUOUS
10
206.572
20
-130.761
11
209.172
21
-130.761
0
LINE
8
BLACK
6
CONTINUOUS
10
209.172
20
-130.761
11
209.172
21
-133.361
0
LINE
8
BLACK
6
CONTINUOUS
10
94.872
20
-133.361
11
92.272
21
-133.361
0
LINE
8
BLACK
6
CONTINUOUS
10
92.272
20
-133.361
11
92.272
21
-130.761
0
LINE
8
BLACK
6
CONTINUOUS
10
92.272
20
-130.761
11
94.872
21
-130.761
0
LINE
8
BLACK
6
CONTINUOUS
10
94.872
20
-130.761
11
94.872
21
-133.361
0
LINE
8
BLACK
6
CONTINUOUS
10
113.922
20
-133.361
11
111.322
21
-133.361
0
LINE
8
BLACK
6
CONTINUOUS
10
111.322
20
-133.361
11
111.322
21
-130.761
0
LINE
8
BLACK
6
CONTINUOUS
10
111.322
20
-130.761
11
113.922
21
-130.761
0
LINE
8
BLACK
6
CONTINUOUS
10
113.922
20
-130.761
11
113.922
21
-133.361
0
LINE
8
BLACK
6
CONTINUOUS
10
228.222
20
-133.361
11
225.622
21
-133.361
0
LINE
8
BLACK
6
CONTINUOUS
10
225.622
20
-133.361
11
225.622
21
-130.761
0
LINE
8
BLACK
6
CONTINUOUS
10
225.622
20
-130.761
11
228.222
21
-130.761
0
LINE
8
BLACK
6
CONTINUOUS
10
228.222
20
-130.761
11
228.222
21
-133.361
0
LINE
8
BLACK
6
CONTINUOUS
10
75.822
20
-133.361
11
73.222
21
-133.361
0
LINE
8
BLACK
6
CONTINUOUS
10
73.222
20
-133.361
11
73.222
21
-130.761
0
LINE
8
BLACK
6
CONTINUOUS
10
73.222
20
-130.761
11
75.822
21
-130.761
0
LINE
8
BLACK
6
CONTINUOUS
10
75.822
20
-130.761
11
75.822
21
-133.361
0
LINE
8
BLACK
6
CONTINUOUS
10
132.972
20
-133.361
11
130.372
21
-133.361
0
LINE
8
BLACK
6
CONTINUOUS
10
130.372
20
-133.361
11
130.372
21
-130.761
0
LINE
8
BLACK
6
CONTINUOUS
10
130.372
20
-130.761
11
132.972
21
-130.761
0
LINE
8
BLACK
6
CONTINUOUS
10
132.972
20
-130.761
11
132.972
21
-133.361
0
LINE
8
BLACK
6
CONTINUOUS
10
190.122
20
-133.361
11
187.522
21
-133.361
0
LINE
8
BLACK
6
CONTINUOUS
10
187.522
20
-133.361
11
187.522
21
-130.761
0
LINE
8
BLACK
6
CONTINUOUS
10
187.522
20
-130.761
11
190.122
21
-130.761
0
LINE
8
BLACK
6
CONTINUOUS
10
190.122
20
-130.761
11
190.122
21
-133.361
0
LINE
8
BLACK
6
CONTINUOUS
10
152.022
20
-133.361
11
149.422
21
-133.361
0
LINE
8
BLACK
6
CONTINUOUS
10
149.422
20
-133.361
11
149.422
21
-130.761
0
LINE
8
BLACK
6
CONTINUOUS
10
149.422
20
-130.761
11
152.022
21
-130.761
0
LINE
8
BLACK
6
CONTINUOUS
10
152.022
20
-130.761
11
152.022
21
-133.361
0
LINE
8
BLACK
6
CONTINUOUS
10
247.272
20
-133.361
11
244.672
21
-133.361
0
LINE
8
BLACK
6
CONTINUOUS
10
244.672
20
-133.361
11
244.672
21
-130.761
0
LINE
8
BLACK
6
CONTINUOUS
10
244.672
20
-130.761
11
247.272
21
-130.761
0
LINE
8
BLACK
6
CONTINUOUS
10
247.272
20
-130.761
11
247.272
21
-133.361
0
LINE
8
BLACK
6
CONTINUOUS
10
171.072
20
-133.361
11
168.472
21
-133.361
0
LINE
8
BLACK
6
CONTINUOUS
10
168.472
20
-133.361
11
168.472
21
-130.761
0
LINE
8
BLACK
6
CONTINUOUS
10
168.472
20
-130.761
11
171.072
21
-130.761
0
LINE
8
BLACK
6
CONTINUOUS
10
171.072
20
-130.761
11
171.072
21
-133.361
0
LINE
8
BLACK
6
CONTINUOUS
10
83.322
20
-131.161
11
80.722
21
-131.161
0
LINE
8
BLACK
6
CONTINUOUS
10
80.722
20
-131.161
11
80.722
21
-128.561
0
LINE
8
BLACK
6
CONTINUOUS
10
80.722
20
-128.561
11
83.322
21
-128.561
0
LINE
8
BLACK
6
CONTINUOUS
10
83.322
20
-128.561
11
83.322
21
-131.161
0
LINE
8
BLACK
6
CONTINUOUS
10
216.672
20
-131.161
11
214.072
21
-131.161
0
LINE
8
BLACK
6
CONTINUOUS
10
214.072
20
-131.161
11
214.072
21
-128.561
0
LINE
8
BLACK
6
CONTINUOUS
10
214.072
20
-128.561
11
216.672
21
-128.561
0
LINE
8
BLACK
6
CONTINUOUS
10
216.672
20
-128.561
11
216.672
21
-131.161
0
LINE
8
BLACK
6
CONTINUOUS
10
197.622
20
-131.161
11
195.022
21
-131.161
0
LINE
8
BLACK
6
CONTINUOUS
10
195.022
20
-131.161
11
195.022
21
-128.561
0
LINE
8
BLACK
6
CONTINUOUS
10
195.022
20
-128.561
11
197.622
21
-128.561
0
LINE
8
BLACK
6
CONTINUOUS
10
197.622
20
-128.561
11
197.622
21
-131.161
0
LINE
8
BLACK
6
CONTINUOUS
10
102.372
20
-131.161
11
99.772
21
-131.161
0
LINE
8
BLACK
6
CONTINUOUS
10
99.772
20
-131.161
11
99.772
21
-128.561
0
LINE
8
BLACK
6
CONTINUOUS
10
99.772
20
-128.561
11
102.372
21
-128.561
0
LINE
8
BLACK
6
CONTINUOUS
10
102.372
20
-128.561
11
102.372
21
-131.161
0
LINE
8
BLACK
6
CONTINUOUS
10
235.722
20
-131.161
11
233.122
21
-131.161
0
LINE
8
BLACK
6
CONTINUOUS
10
233.122
20
-131.161
11
233.122
21
-128.561
0
LINE
8
BLACK
6
CONTINUOUS
10
233.122
20
-128.561
11
235.722
21
-128.561
0
LINE
8
BLACK
6
CONTINUOUS
10
235.722
20
-128.561
11
235.722
21
-131.161
0
LINE
8
BLACK
6
CONTINUOUS
10
140.472
20
-131.161
11
137.872
21
-131.161
0
LINE
8
BLACK
6
CONTINUOUS
10
137.872
20
-131.161
11
137.872
21
-128.561
0
LINE
8
BLACK
6
CONTINUOUS
10
137.872
20
-128.561
11
140.472
21
-128.561
0
LINE
8
BLACK
6
CONTINUOUS
10
140.472
20
-128.561
11
140.472
21
-131.161
0
LINE
8
BLACK
6
CONTINUOUS
10
178.572
20
-131.161
11
175.972
21
-131.161
0
LINE
8
BLACK
6
CONTINUOUS
10
175.972
20
-131.161
11
175.972
21
-128.561
0
LINE
8
BLACK
6
CONTINUOUS
10
175.972
20
-128.561
11
178.572
21
-128.561
0
LINE
8
BLACK
6
CONTINUOUS
10
178.572
20
-128.561
11
178.572
21
-131.161
0
LINE
8
BLACK
6
CONTINUOUS
10
159.522
20
-131.161
11
156.922
21
-131.161
0
LINE
8
BLACK
6
CONTINUOUS
10
156.922
20
-131.161
11
156.922
21
-128.561
0
LINE
8
BLACK
6
CONTINUOUS
10
156.922
20
-128.561
11
159.522
21
-128.561
0
LINE
8
BLACK
6
CONTINUOUS
10
159.522
20
-128.561
11
159.522
21
-131.161
0
LINE
8
BLACK
6
CONTINUOUS
10
121.422
20
-131.161
11
118.822
21
-131.161
0
LINE
8
BLACK
6
CONTINUOUS
10
118.822
20
-131.161
11
118.822
21
-128.561
0
LINE
8
BLACK
6
CONTINUOUS
10
118.822
20
-128.561
11
121.422
21
-128.561
0
LINE
8
BLACK
6
CONTINUOUS
10
121.422
20
-128.561
11
121.422
21
-131.161
0
LINE
8
BLACK
6
CONTINUOUS
10
64.272
20
-131.161
11
61.672
21
-131.161
0
LINE
8
BLACK
6
CONTINUOUS
10
61.672
20
-131.161
11
61.672
21
-128.561
0
LINE
8
BLACK
6
CONTINUOUS
10
61.672
20
-128.561
11
64.272
21
-128.561
0
LINE
8
BLACK
6
CONTINUOUS
10
64.272
20
-128.561
11
64.272
21
-131.161
0
LINE
8
BLACK
6
CONTINUOUS
10
94.872
20
-114.311
11
92.272
21
-114.311
0
LINE
8
BLACK
6
CONTINUOUS
10
92.272
20
-114.311
11
92.272
21
-111.711
0
LINE
8
BLACK
6
CONTINUOUS
10
92.272
20
-111.711
11
94.872
21
-111.711
0
LINE
8
BLACK
6
CONTINUOUS
10
94.872
20
-111.711
11
94.872
21
-114.311
0
LINE
8
BLACK
6
CONTINUOUS
10
152.022
20
-114.311
11
149.422
21
-114.311
0
LINE
8
BLACK
6
CONTINUOUS
10
149.422
20
-114.311
11
149.422
21
-111.711
0
LINE
8
BLACK
6
CONTINUOUS
10
149.422
20
-111.711
11
152.022
21
-111.711
0
LINE
8
BLACK
6
CONTINUOUS
10
152.022
20
-111.711
11
152.022
21
-114.311
0
LINE
8
BLACK
6
CONTINUOUS
10
132.972
20
-114.311
11
130.372
21
-114.311
0
LINE
8
BLACK
6
CONTINUOUS
10
130.372
20
-114.311
11
130.372
21
-111.711
0
LINE
8
BLACK
6
CONTINUOUS
10
130.372
20
-111.711
11
132.972
21
-111.711
0
LINE
8
BLACK
6
CONTINUOUS
10
132.972
20
-111.711
11
132.972
21
-114.311
0
LINE
8
BLACK
6
CONTINUOUS
10
190.122
20
-114.311
11
187.522
21
-114.311
0
LINE
8
BLACK
6
CONTINUOUS
10
187.522
20
-114.311
11
187.522
21
-111.711
0
LINE
8
BLACK
6
CONTINUOUS
10
187.522
20
-111.711
11
190.122
21
-111.711
0
LINE
8
BLACK
6
CONTINUOUS
10
190.122
20
-111.711
11
190.122
21
-114.311
0
LINE
8
BLACK
6
CONTINUOUS
10
171.072
20
-114.311
11
168.472
21
-114.311
0
LINE
8
BLACK
6
CONTINUOUS
10
168.472
20
-114.311
11
168.472
21
-111.711
0
LINE
8
BLACK
6
CONTINUOUS
10
168.472
20
-111.711
11
171.072
21
-111.711
0
LINE
8
BLACK
6
CONTINUOUS
10
171.072
20
-111.711
11
171.072
21
-114.311
0
LINE
8
BLACK
6
CONTINUOUS
10
209.172
20
-114.311
11
206.572
21
-114.311
0
LINE
8
BLACK
6
CONTINUOUS
10
206.572
20
-114.311
11
206.572
21
-111.711
0
LINE
8
BLACK
6
CONTINUOUS
10
206.572
20
-111.711
11
209.172
21
-111.711
0
LINE
8
BLACK
6
CONTINUOUS
10
209.172
20
-111.711
11
209.172
21
-114.311
0
LINE
8
BLACK
6
CONTINUOUS
10
247.272
20
-114.311
11
244.672
21
-114.311
0
LINE
8
BLACK
6
CONTINUOUS
10
244.672
20
-114.311
11
244.672
21
-111.711
0
LINE
8
BLACK
6
CONTINUOUS
10
244.672
20
-111.711
11
247.272
21
-111.711
0
LINE
8
BLACK
6
CONTINUOUS
10
247.272
20
-111.711
11
247.272
21
-114.311
0
LINE
8
BLACK
6
CONTINUOUS
10
75.822
20
-114.311
11
73.222
21
-114.311
0
LINE
8
BLACK
6
CONTINUOUS
10
73.222
20
-114.311
11
73.222
21
-111.711
0
LINE
8
BLACK
6
CONTINUOUS
10
73.222
20
-111.711
11
75.822
21
-111.711
0
LINE
8
BLACK
6
CONTINUOUS
10
75.822
20
-111.711
11
75.822
21
-114.311
0
LINE
8
BLACK
6
CONTINUOUS
10
228.222
20
-114.311
11
225.622
21
-114.311
0
LINE
8
BLACK
6
CONTINUOUS
10
225.622
20
-114.311
11
225.622
21
-111.711
0
LINE
8
BLACK
6
CONTINUOUS
10
225.622
20
-111.711
11
228.222
21
-111.711
0
LINE
8
BLACK
6
CONTINUOUS
10
228.222
20
-111.711
11
228.222
21
-114.311
0
LINE
8
BLACK
6
CONTINUOUS
10
113.922
20
-114.311
11
111.322
21
-114.311
0
LINE
8
BLACK
6
CONTINUOUS
10
111.322
20
-114.311
11
111.322
21
-111.711
0
LINE
8
BLACK
6
CONTINUOUS
10
111.322
20
-111.711
11
113.922
21
-111.711
0
LINE
8
BLACK
6
CONTINUOUS
10
113.922
20
-111.711
11
113.922
21
-114.311
0
LINE
8
BLACK
6
CONTINUOUS
10
197.622
20
-112.111
11
195.022
21
-112.111
0
LINE
8
BLACK
6
CONTINUOUS
10
195.022
20
-112.111
11
195.022
21
-109.511
0
LINE
8
BLACK
6
CONTINUOUS
10
195.022
20
-109.511
11
197.622
21
-109.511
0
LINE
8
BLACK
6
CONTINUOUS
10
197.622
20
-109.511
11
197.622
21
-112.111
0
LINE
8
BLACK
6
CONTINUOUS
10
83.322
20
-112.111
11
80.722
21
-112.111
0
LINE
8
BLACK
6
CONTINUOUS
10
80.722
20
-112.111
11
80.722
21
-109.511
0
LINE
8
BLACK
6
CONTINUOUS
10
80.722
20
-109.511
11
83.322
21
-109.511
0
LINE
8
BLACK
6
CONTINUOUS
10
83.322
20
-109.511
11
83.322
21
-112.111
0
LINE
8
BLACK
6
CONTINUOUS
10
140.472
20
-112.111
11
137.872
21
-112.111
0
LINE
8
BLACK
6
CONTINUOUS
10
137.872
20
-112.111
11
137.872
21
-109.511
0
LINE
8
BLACK
6
CONTINUOUS
10
137.872
20
-109.511
11
140.472
21
-109.511
0
LINE
8
BLACK
6
CONTINUOUS
10
140.472
20
-109.511
11
140.472
21
-112.111
0
LINE
8
BLACK
6
CONTINUOUS
10
235.722
20
-112.111
11
233.122
21
-112.111
0
LINE
8
BLACK
6
CONTINUOUS
10
233.122
20
-112.111
11
233.122
21
-109.511
0
LINE
8
BLACK
6
CONTINUOUS
10
233.122
20
-109.511
11
235.722
21
-109.511
0
LINE
8
BLACK
6
CONTINUOUS
10
235.722
20
-109.511
11
235.722
21
-112.111
0
LINE
8
BLACK
6
CONTINUOUS
10
159.522
20
-112.111
11
156.922
21
-112.111
0
LINE
8
BLACK
6
CONTINUOUS
10
156.922
20
-112.111
11
156.922
21
-109.511
0
LINE
8
BLACK
6
CONTINUOUS
10
156.922
20
-109.511
11
159.522
21
-109.511
0
LINE
8
BLACK
6
CONTINUOUS
10
159.522
20
-109.511
11
159.522
21
-112.111
0
LINE
8
BLACK
6
CONTINUOUS
10
102.372
20
-112.111
11
99.772
21
-112.111
0
LINE
8
BLACK
6
CONTINUOUS
10
99.772
20
-112.111
11
99.772
21
-109.511
0
LINE
8
BLACK
6
CONTINUOUS
10
99.772
20
-109.511
11
102.372
21
-109.511
0
LINE
8
BLACK
6
CONTINUOUS
10
102.372
20
-109.511
11
102.372
21
-112.111
0
LINE
8
BLACK
6
CONTINUOUS
10
216.672
20
-112.111
11
214.072
21
-112.111
0
LINE
8
BLACK
6
CONTINUOUS
10
214.072
20
-112.111
11
214.072
21
-109.511
0
LINE
8
BLACK
6
CONTINUOUS
10
214.072
20
-109.511
11
216.672
21
-109.511
0
LINE
8
BLACK
6
CONTINUOUS
10
216.672
20
-109.511
11
216.672
21
-112.111
0
LINE
8
BLACK
6
CONTINUOUS
10
178.572
20
-112.111
11
175.972
21
-112.111
0
LINE
8
BLACK
6
CONTINUOUS
10
175.972
20
-112.111
11
175.972
21
-109.511
0
LINE
8
BLACK
6
CONTINUOUS
10
175.972
20
-109.511
11
178.572
21
-109.511
0
LINE
8
BLACK
6
CONTINUOUS
10
178.572
20
-109.511
11
178.572
21
-112.111
0
LINE
8
BLACK
6
CONTINUOUS
10
64.272
20
-112.111
11
61.672
21
-112.111
0
LINE
8
BLACK
6
CONTINUOUS
10
61.672
20
-112.111
11
61.672
21
-109.511
0
LINE
8
BLACK
6
CONTINUOUS
10
61.672
20
-109.511
11
64.272
21
-109.511
0
LINE
8
BLACK
6
CONTINUOUS
10
64.272
20
-109.511
11
64.272
21
-112.111
0
LINE
8
BLACK
6
CONTINUOUS
10
121.422
20
-112.111
11
118.822
21
-112.111
0
LINE
8
BLACK
6
CONTINUOUS
10
118.822
20
-112.111
11
118.822
21
-109.511
0
LINE
8
BLACK
6
CONTINUOUS
10
118.822
20
-109.511
11
121.422
21
-109.511
0
LINE
8
BLACK
6
CONTINUOUS
10
121.422
20
-109.511
11
121.422
21
-112.111
0
LINE
8
BLACK
6
CONTINUOUS
10
82.787
20
-101.031
11
81.287
21
-101.031
0
LINE
8
BLACK
6
CONTINUOUS
10
81.287
20
-101.031
11
81.287
21
-100.031
0
LINE
8
BLACK
6
CONTINUOUS
10
81.287
20
-100.031
11
82.787
21
-100.031
0
LINE
8
BLACK
6
CONTINUOUS
10
82.787
20
-100.031
11
82.787
21
-101.031
0
LINE
8
BLACK
6
CONTINUOUS
10
77.887
20
-101.031
11
76.387
21
-101.031
0
LINE
8
BLACK
6
CONTINUOUS
10
76.387
20
-101.031
11
76.387
21
-100.031
0
LINE
8
BLACK
6
CONTINUOUS
10
76.387
20
-100.031
11
77.887
21
-100.031
0
LINE
8
BLACK
6
CONTINUOUS
10
77.887
20
-100.031
11
77.887
21
-101.031
0
LINE
8
BLACK
6
CONTINUOUS
10
158.987
20
-101.031
11
157.487
21
-101.031
0
LINE
8
BLACK
6
CONTINUOUS
10
157.487
20
-101.031
11
157.487
21
-100.031
0
LINE
8
BLACK
6
CONTINUOUS
10
157.487
20
-100.031
11
158.987
21
-100.031
0
LINE
8
BLACK
6
CONTINUOUS
10
158.987
20
-100.031
11
158.987
21
-101.031
0
LINE
8
BLACK
6
CONTINUOUS
10
154.087
20
-101.031
11
152.587
21
-101.031
0
LINE
8
BLACK
6
CONTINUOUS
10
152.587
20
-101.031
11
152.587
21
-100.031
0
LINE
8
BLACK
6
CONTINUOUS
10
152.587
20
-100.031
11
154.087
21
-100.031
0
LINE
8
BLACK
6
CONTINUOUS
10
154.087
20
-100.031
11
154.087
21
-101.031
0
LINE
8
BLACK
6
CONTINUOUS
10
197.087
20
-101.031
11
195.587
21
-101.031
0
LINE
8
BLACK
6
CONTINUOUS
10
195.587
20
-101.031
11
195.587
21
-100.031
0
LINE
8
BLACK
6
CONTINUOUS
10
195.587
20
-100.031
11
197.087
21
-100.031
0
LINE
8
BLACK
6
CONTINUOUS
10
197.087
20
-100.031
11
197.087
21
-101.031
0
LINE
8
BLACK
6
CONTINUOUS
10
192.187
20
-101.031
11
190.687
21
-101.031
0
LINE
8
BLACK
6
CONTINUOUS
10
190.687
20
-101.031
11
190.687
21
-100.031
0
LINE
8
BLACK
6
CONTINUOUS
10
190.687
20
-100.031
11
192.187
21
-100.031
0
LINE
8
BLACK
6
CONTINUOUS
10
192.187
20
-100.031
11
192.187
21
-101.031
0
LINE
8
BLACK
6
CONTINUOUS
10
235.187
20
-101.031
11
233.687
21
-101.031
0
LINE
8
BLACK
6
CONTINUOUS
10
233.687
20
-101.031
11
233.687
21
-100.031
0
LINE
8
BLACK
6
CONTINUOUS
10
233.687
20
-100.031
11
235.187
21
-100.031
0
LINE
8
BLACK
6
CONTINUOUS
10
235.187
20
-100.031
11
235.187
21
-101.031
0
LINE
8
BLACK
6
CONTINUOUS
10
120.887
20
-101.031
11
119.387
21
-101.031
0
LINE
8
BLACK
6
CONTINUOUS
10
119.387
20
-101.031
11
119.387
21
-100.031
0
LINE
8
BLACK
6
CONTINUOUS
10
119.387
20
-100.031
11
120.887
21
-100.031
0
LINE
8
BLACK
6
CONTINUOUS
10
120.887
20
-100.031
11
120.887
21
-101.031
0
LINE
8
BLACK
6
CONTINUOUS
10
230.287
20
-101.031
11
228.787
21
-101.031
0
LINE
8
BLACK
6
CONTINUOUS
10
228.787
20
-101.031
11
228.787
21
-100.031
0
LINE
8
BLACK
6
CONTINUOUS
10
228.787
20
-100.031
11
230.287
21
-100.031
0
LINE
8
BLACK
6
CONTINUOUS
10
230.287
20
-100.031
11
230.287
21
-101.031
0
LINE
8
BLACK
6
CONTINUOUS
10
115.987
20
-101.031
11
114.487
21
-101.031
0
LINE
8
BLACK
6
CONTINUOUS
10
114.487
20
-101.031
11
114.487
21
-100.031
0
LINE
8
BLACK
6
CONTINUOUS
10
114.487
20
-100.031
11
115.987
21
-100.031
0
LINE
8
BLACK
6
CONTINUOUS
10
115.987
20
-100.031
11
115.987
21
-101.031
0
LINE
8
BLACK
6
CONTINUOUS
10
115.987
20
-97.831
11
114.487
21
-97.831
0
LINE
8
BLACK
6
CONTINUOUS
10
114.487
20
-97.831
11
114.487
21
-96.831
0
LINE
8
BLACK
6
CONTINUOUS
10
114.487
20
-96.831
11
115.987
21
-96.831
0
LINE
8
BLACK
6
CONTINUOUS
10
115.987
20
-96.831
11
115.987
21
-97.831
0
LINE
8
BLACK
6
CONTINUOUS
10
158.987
20
-97.831
11
157.487
21
-97.831
0
LINE
8
BLACK
6
CONTINUOUS
10
157.487
20
-97.831
11
157.487
21
-96.831
0
LINE
8
BLACK
6
CONTINUOUS
10
157.487
20
-96.831
11
158.987
21
-96.831
0
LINE
8
BLACK
6
CONTINUOUS
10
158.987
20
-96.831
11
158.987
21
-97.831
0
LINE
8
BLACK
6
CONTINUOUS
10
154.087
20
-97.831
11
152.587
21
-97.831
0
LINE
8
BLACK
6
CONTINUOUS
10
152.587
20
-97.831
11
152.587
21
-96.831
0
LINE
8
BLACK
6
CONTINUOUS
10
152.587
20
-96.831
11
154.087
21
-96.831
0
LINE
8
BLACK
6
CONTINUOUS
10
154.087
20
-96.831
11
154.087
21
-97.831
0
LINE
8
BLACK
6
CONTINUOUS
10
197.087
20
-97.831
11
195.587
21
-97.831
0
LINE
8
BLACK
6
CONTINUOUS
10
195.587
20
-97.831
11
195.587
21
-96.831
0
LINE
8
BLACK
6
CONTINUOUS
10
195.587
20
-96.831
11
197.087
21
-96.831
0
LINE
8
BLACK
6
CONTINUOUS
10
197.087
20
-96.831
11
197.087
21
-97.831
0
LINE
8
BLACK
6
CONTINUOUS
10
192.187
20
-97.831
11
190.687
21
-97.831
0
LINE
8
BLACK
6
CONTINUOUS
10
190.687
20
-97.831
11
190.687
21
-96.831
0
LINE
8
BLACK
6
CONTINUOUS
10
190.687
20
-96.831
11
192.187
21
-96.831
0
LINE
8
BLACK
6
CONTINUOUS
10
192.187
20
-96.831
11
192.187
21
-97.831
0
LINE
8
BLACK
6
CONTINUOUS
10
235.187
20
-97.831
11
233.687
21
-97.831
0
LINE
8
BLACK
6
CONTINUOUS
10
233.687
20
-97.831
11
233.687
21
-96.831
0
LINE
8
BLACK
6
CONTINUOUS
10
233.687
20
-96.831
11
235.187
21
-96.831
0
LINE
8
BLACK
6
CONTINUOUS
10
235.187
20
-96.831
11
235.187
21
-97.831
0
LINE
8
BLACK
6
CONTINUOUS
10
230.287
20
-97.831
11
228.787
21
-97.831
0
LINE
8
BLACK
6
CONTINUOUS
10
228.787
20
-97.831
11
228.787
21
-96.831
0
LINE
8
BLACK
6
CONTINUOUS
10
228.787
20
-96.831
11
230.287
21
-96.831
0
LINE
8
BLACK
6
CONTINUOUS
10
230.287
20
-96.831
11
230.287
21
-97.831
0
LINE
8
BLACK
6
CONTINUOUS
10
82.787
20
-97.831
11
81.287
21
-97.831
0
LINE
8
BLACK
6
CONTINUOUS
10
81.287
20
-97.831
11
81.287
21
-96.831
0
LINE
8
BLACK
6
CONTINUOUS
10
81.287
20
-96.831
11
82.787
21
-96.831
0
LINE
8
BLACK
6
CONTINUOUS
10
82.787
20
-96.831
11
82.787
21
-97.831
0
LINE
8
BLACK
6
CONTINUOUS
10
77.887
20
-97.831
11
76.387
21
-97.831
0
LINE
8
BLACK
6
CONTINUOUS
10
76.387
20
-97.831
11
76.387
21
-96.831
0
LINE
8
BLACK
6
CONTINUOUS
10
76.387
20
-96.831
11
77.887
21
-96.831
0
LINE
8
BLACK
6
CONTINUOUS
10
77.887
20
-96.831
11
77.887
21
-97.831
0
LINE
8
BLACK
6
CONTINUOUS
10
120.887
20
-97.831
11
119.387
21
-97.831
0
LINE
8
BLACK
6
CONTINUOUS
10
119.387
20
-97.831
11
119.387
21
-96.831
0
LINE
8
BLACK
6
CONTINUOUS
10
119.387
20
-96.831
11
120.887
21
-96.831
0
LINE
8
BLACK
6
CONTINUOUS
10
120.887
20
-96.831
11
120.887
21
-97.831
0
LINE
8
BLACK
6
CONTINUOUS
10
190.122
20
-95.261
11
187.522
21
-95.261
0
LINE
8
BLACK
6
CONTINUOUS
10
187.522
20
-95.261
11
187.522
21
-92.661
0
LINE
8
BLACK
6
CONTINUOUS
10
187.522
20
-92.661
11
190.122
21
-92.661
0
LINE
8
BLACK
6
CONTINUOUS
10
190.122
20
-92.661
11
190.122
21
-95.261
0
LINE
8
BLACK
6
CONTINUOUS
10
152.022
20
-95.261
11
149.422
21
-95.261
0
LINE
8
BLACK
6
CONTINUOUS
10
149.422
20
-95.261
11
149.422
21
-92.661
0
LINE
8
BLACK
6
CONTINUOUS
10
149.422
20
-92.661
11
152.022
21
-92.661
0
LINE
8
BLACK
6
CONTINUOUS
10
152.022
20
-92.661
11
152.022
21
-95.261
0
LINE
8
BLACK
6
CONTINUOUS
10
171.072
20
-95.261
11
168.472
21
-95.261
0
LINE
8
BLACK
6
CONTINUOUS
10
168.472
20
-95.261
11
168.472
21
-92.661
0
LINE
8
BLACK
6
CONTINUOUS
10
168.472
20
-92.661
11
171.072
21
-92.661
0
LINE
8
BLACK
6
CONTINUOUS
10
171.072
20
-92.661
11
171.072
21
-95.261
0
LINE
8
BLACK
6
CONTINUOUS
10
75.822
20
-95.261
11
73.222
21
-95.261
0
LINE
8
BLACK
6
CONTINUOUS
10
73.222
20
-95.261
11
73.222
21
-92.661
0
LINE
8
BLACK
6
CONTINUOUS
10
73.222
20
-92.661
11
75.822
21
-92.661
0
LINE
8
BLACK
6
CONTINUOUS
10
75.822
20
-92.661
11
75.822
21
-95.261
0
LINE
8
BLACK
6
CONTINUOUS
10
132.972
20
-95.261
11
130.372
21
-95.261
0
LINE
8
BLACK
6
CONTINUOUS
10
130.372
20
-95.261
11
130.372
21
-92.661
0
LINE
8
BLACK
6
CONTINUOUS
10
130.372
20
-92.661
11
132.972
21
-92.661
0
LINE
8
BLACK
6
CONTINUOUS
10
132.972
20
-92.661
11
132.972
21
-95.261
0
LINE
8
BLACK
6
CONTINUOUS
10
113.922
20
-95.261
11
111.322
21
-95.261
0
LINE
8
BLACK
6
CONTINUOUS
10
111.322
20
-95.261
11
111.322
21
-92.661
0
LINE
8
BLACK
6
CONTINUOUS
10
111.322
20
-92.661
11
113.922
21
-92.661
0
LINE
8
BLACK
6
CONTINUOUS
10
113.922
20
-92.661
11
113.922
21
-95.261
0
LINE
8
BLACK
6
CONTINUOUS
10
94.872
20
-95.261
11
92.272
21
-95.261
0
LINE
8
BLACK
6
CONTINUOUS
10
92.272
20
-95.261
11
92.272
21
-92.661
0
LINE
8
BLACK
6
CONTINUOUS
10
92.272
20
-92.661
11
94.872
21
-92.661
0
LINE
8
BLACK
6
CONTINUOUS
10
94.872
20
-92.661
11
94.872
21
-95.261
0
LINE
8
BLACK
6
CONTINUOUS
10
209.172
20
-95.261
11
206.572
21
-95.261
0
LINE
8
BLACK
6
CONTINUOUS
10
206.572
20
-95.261
11
206.572
21
-92.661
0
LINE
8
BLACK
6
CONTINUOUS
10
206.572
20
-92.661
11
209.172
21
-92.661
0
LINE
8
BLACK
6
CONTINUOUS
10
209.172
20
-92.661
11
209.172
21
-95.261
0
LINE
8
BLACK
6
CONTINUOUS
10
247.272
20
-95.261
11
244.672
21
-95.261
0
LINE
8
BLACK
6
CONTINUOUS
10
244.672
20
-95.261
11
244.672
21
-92.661
0
LINE
8
BLACK
6
CONTINUOUS
10
244.672
20
-92.661
11
247.272
21
-92.661
0
LINE
8
BLACK
6
CONTINUOUS
10
247.272
20
-92.661
11
247.272
21
-95.261
0
LINE
8
BLACK
6
CONTINUOUS
10
228.222
20
-95.261
11
225.622
21
-95.261
0
LINE
8
BLACK
6
CONTINUOUS
10
225.622
20
-95.261
11
225.622
21
-92.661
0
LINE
8
BLACK
6
CONTINUOUS
10
225.622
20
-92.661
11
228.222
21
-92.661
0
LINE
8
BLACK
6
CONTINUOUS
10
228.222
20
-92.661
11
228.222
21
-95.261
0
LINE
8
BLACK
6
CONTINUOUS
10
83.322
20
-93.061
11
80.722
21
-93.061
0
LINE
8
BLACK
6
CONTINUOUS
10
80.722
20
-93.061
11
80.722
21
-90.461
0
LINE
8
BLACK
6
CONTINUOUS
10
80.722
20
-90.461
11
83.322
21
-90.461
0
LINE
8
BLACK
6
CONTINUOUS
10
83.322
20
-90.461
11
83.322
21
-93.061
0
LINE
8
BLACK
6
CONTINUOUS
10
197.622
20
-93.061
11
195.022
21
-93.061
0
LINE
8
BLACK
6
CONTINUOUS
10
195.022
20
-93.061
11
195.022
21
-90.461
0
LINE
8
BLACK
6
CONTINUOUS
10
195.022
20
-90.461
11
197.622
21
-90.461
0
LINE
8
BLACK
6
CONTINUOUS
10
197.622
20
-90.461
11
197.622
21
-93.061
0
LINE
8
BLACK
6
CONTINUOUS
10
121.422
20
-93.061
11
118.822
21
-93.061
0
LINE
8
BLACK
6
CONTINUOUS
10
118.822
20
-93.061
11
118.822
21
-90.461
0
LINE
8
BLACK
6
CONTINUOUS
10
118.822
20
-90.461
11
121.422
21
-90.461
0
LINE
8
BLACK
6
CONTINUOUS
10
121.422
20
-90.461
11
121.422
21
-93.061
0
LINE
8
BLACK
6
CONTINUOUS
10
216.672
20
-93.061
11
214.072
21
-93.061
0
LINE
8
BLACK
6
CONTINUOUS
10
214.072
20
-93.061
11
214.072
21
-90.461
0
LINE
8
BLACK
6
CONTINUOUS
10
214.072
20
-90.461
11
216.672
21
-90.461
0
LINE
8
BLACK
6
CONTINUOUS
10
216.672
20
-90.461
11
216.672
21
-93.061
0
LINE
8
BLACK
6
CONTINUOUS
10
64.272
20
-93.061
11
61.672
21
-93.061
0
LINE
8
BLACK
6
CONTINUOUS
10
61.672
20
-93.061
11
61.672
21
-90.461
0
LINE
8
BLACK
6
CONTINUOUS
10
61.672
20
-90.461
11
64.272
21
-90.461
0
LINE
8
BLACK
6
CONTINUOUS
10
64.272
20
-90.461
11
64.272
21
-93.061
0
LINE
8
BLACK
6
CONTINUOUS
10
178.572
20
-93.061
11
175.972
21
-93.061
0
LINE
8
BLACK
6
CONTINUOUS
10
175.972
20
-93.061
11
175.972
21
-90.461
0
LINE
8
BLACK
6
CONTINUOUS
10
175.972
20
-90.461
11
178.572
21
-90.461
0
LINE
8
BLACK
6
CONTINUOUS
10
178.572
20
-90.461
11
178.572
21
-93.061
0
LINE
8
BLACK
6
CONTINUOUS
10
235.722
20
-93.061
11
233.122
21
-93.061
0
LINE
8
BLACK
6
CONTINUOUS
10
233.122
20
-93.061
11
233.122
21
-90.461
0
LINE
8
BLACK
6
CONTINUOUS
10
233.122
20
-90.461
11
235.722
21
-90.461
0
LINE
8
BLACK
6
CONTINUOUS
10
235.722
20
-90.461
11
235.722
21
-93.061
0
LINE
8
BLACK
6
CONTINUOUS
10
140.472
20
-93.061
11
137.872
21
-93.061
0
LINE
8
BLACK
6
CONTINUOUS
10
137.872
20
-93.061
11
137.872
21
-90.461
0
LINE
8
BLACK
6
CONTINUOUS
10
137.872
20
-90.461
11
140.472
21
-90.461
0
LINE
8
BLACK
6
CONTINUOUS
10
140.472
20
-90.461
11
140.472
21
-93.061
0
LINE
8
BLACK
6
CONTINUOUS
10
159.522
20
-93.061
11
156.922
21
-93.061
0
LINE
8
BLACK
6
CONTINUOUS
10
156.922
20
-93.061
11
156.922
21
-90.461
0
LINE
8
BLACK
6
CONTINUOUS
10
156.922
20
-90.461
11
159.522
21
-90.461
0
LINE
8
BLACK
6
CONTINUOUS
10
159.522
20
-90.461
11
159.522
21
-93.061
0
LINE
8
BLACK
6
CONTINUOUS
10
102.372
20
-93.061
11
99.772
21
-93.061
0
LINE
8
BLACK
6
CONTINUOUS
10
99.772
20
-93.061
11
99.772
21
-90.461
0
LINE
8
BLACK
6
CONTINUOUS
10
99.772
20
-90.461
11
102.372
21
-90.461
0
LINE
8
BLACK
6
CONTINUOUS
10
102.372
20
-90.461
11
102.372
21
-93.061
  0
ENDSEC
  0
EOF
