M48
; DRILL file {KiCad 6.0.7-f9a2dced07~116~ubuntu20.04.1} date Sun 18 Sep 2022 01:17:51 PM
; FORMAT={-:-/ absolute / metric / decimal}
; #@! TF.CreationDate,2022-09-18T13:17:51+08:00
; #@! TF.GenerationSoftware,Kicad,Pcbnew,6.0.7-f9a2dced07~116~ubuntu20.04.1
; #@! TF.FileFunction,NonPlated,1,2,NPTH
FMAT,2
METRIC
; #@! TA.AperFunction,NonPlated,NPTH,ComponentDrill
T1C1.702
; #@! TA.AperFunction,NonPlated,NPTH,ComponentDrill
T2C2.200
; #@! TA.AperFunction,NonPlated,NPTH,ComponentDrill
T3C3.000
; #@! TA.AperFunction,NonPlated,NPTH,ComponentDrill
T4C3.988
%
G90
G05
T1
X62.487Y-76.45
X62.487Y-95.5
X62.487Y-114.55
X62.487Y-133.6
X62.907Y-76.45
X62.907Y-95.5
X62.907Y-114.55
X62.907Y-133.6
X73.067Y-76.45
X73.067Y-95.5
X73.067Y-114.55
X73.067Y-133.6
X73.487Y-76.45
X73.487Y-95.5
X73.487Y-114.55
X73.487Y-133.6
X81.537Y-76.45
X81.537Y-95.5
X81.537Y-114.55
X81.537Y-133.6
X81.957Y-76.45
X81.957Y-95.5
X81.957Y-114.55
X81.957Y-133.6
X92.117Y-76.45
X92.117Y-95.5
X92.117Y-114.55
X92.117Y-133.6
X92.537Y-76.45
X92.537Y-95.5
X92.537Y-114.55
X92.537Y-133.6
X100.587Y-76.45
X100.587Y-95.5
X100.587Y-114.55
X100.587Y-133.6
X101.007Y-76.45
X101.007Y-95.5
X101.007Y-114.55
X101.007Y-133.6
X111.167Y-76.45
X111.167Y-95.5
X111.167Y-114.55
X111.167Y-133.6
X111.587Y-76.45
X111.587Y-95.5
X111.587Y-114.55
X111.587Y-133.6
X119.637Y-76.45
X119.637Y-95.5
X119.637Y-114.55
X119.637Y-133.6
X120.057Y-76.45
X120.057Y-95.5
X120.057Y-114.55
X120.057Y-133.6
X130.218Y-76.45
X130.218Y-95.5
X130.218Y-114.55
X130.218Y-133.6
X130.637Y-76.45
X130.637Y-95.5
X130.637Y-114.55
X130.637Y-133.6
X138.688Y-76.45
X138.688Y-95.5
X138.688Y-114.55
X138.688Y-133.6
X139.107Y-76.45
X139.107Y-95.5
X139.107Y-114.55
X139.107Y-133.6
X149.267Y-76.45
X149.267Y-95.5
X149.267Y-114.55
X149.267Y-133.6
X149.688Y-76.45
X149.688Y-95.5
X149.688Y-114.55
X149.688Y-133.6
X157.737Y-76.45
X157.737Y-95.5
X157.737Y-114.55
X157.737Y-133.6
X158.157Y-76.45
X158.157Y-95.5
X158.157Y-114.55
X158.157Y-133.6
X168.317Y-76.45
X168.317Y-95.5
X168.317Y-114.55
X168.317Y-133.6
X168.737Y-76.45
X168.737Y-95.5
X168.737Y-114.55
X168.737Y-133.6
X176.787Y-76.45
X176.787Y-95.5
X176.787Y-114.55
X176.787Y-133.6
X177.207Y-76.45
X177.207Y-95.5
X177.207Y-114.55
X177.207Y-133.6
X187.367Y-76.45
X187.367Y-95.5
X187.367Y-114.55
X187.367Y-133.6
X187.787Y-76.45
X187.787Y-95.5
X187.787Y-114.55
X187.787Y-133.6
X195.837Y-76.45
X195.837Y-95.5
X195.837Y-114.55
X195.837Y-133.6
X196.257Y-76.45
X196.257Y-95.5
X196.257Y-114.55
X196.257Y-133.6
X206.417Y-76.45
X206.417Y-95.5
X206.417Y-114.55
X206.417Y-133.6
X206.837Y-76.45
X206.837Y-95.5
X206.837Y-114.55
X206.837Y-133.6
X214.887Y-76.45
X214.887Y-95.5
X214.887Y-114.55
X214.887Y-133.6
X215.307Y-76.45
X215.307Y-95.5
X215.307Y-114.55
X215.307Y-133.6
X225.468Y-76.45
X225.468Y-95.5
X225.468Y-114.55
X225.468Y-133.6
X225.887Y-76.45
X225.887Y-95.5
X225.887Y-114.55
X225.887Y-133.6
X233.938Y-76.45
X233.938Y-95.5
X233.938Y-114.55
X233.938Y-133.6
X234.357Y-76.45
X234.357Y-95.5
X234.357Y-114.55
X234.357Y-133.6
X244.517Y-76.45
X244.517Y-95.5
X244.517Y-114.55
X244.517Y-133.6
X244.938Y-76.45
X244.938Y-95.5
X244.938Y-114.55
X244.938Y-133.6
T2
X67.037Y-59.0
X96.567Y-124.08
X96.578Y-85.97
X153.718Y-105.02
X192.037Y-53.5
X210.867Y-85.99
X210.867Y-124.07
X244.537Y-53.5
T3
X62.987Y-80.2
X62.987Y-99.25
X62.987Y-118.3
X62.987Y-137.35
X67.987Y-82.4
X67.987Y-101.45
X67.987Y-120.5
X67.987Y-139.55
X82.037Y-80.2
X82.037Y-99.25
X82.037Y-118.3
X82.037Y-137.35
X87.037Y-82.4
X87.037Y-101.45
X87.037Y-120.5
X87.037Y-139.55
X101.087Y-80.2
X101.087Y-99.25
X101.087Y-118.3
X101.087Y-137.35
X106.087Y-82.4
X106.087Y-101.45
X106.087Y-120.5
X106.087Y-139.55
X120.137Y-80.2
X120.137Y-99.25
X120.137Y-118.3
X120.137Y-137.35
X125.137Y-82.4
X125.137Y-101.45
X125.137Y-120.5
X125.137Y-139.55
X139.188Y-80.2
X139.188Y-99.25
X139.188Y-118.3
X139.188Y-137.35
X144.188Y-82.4
X144.188Y-101.45
X144.188Y-120.5
X144.188Y-139.55
X158.237Y-80.2
X158.237Y-99.25
X158.237Y-118.3
X158.237Y-137.35
X163.237Y-82.4
X163.237Y-101.45
X163.237Y-120.5
X163.237Y-139.55
X177.287Y-80.2
X177.287Y-99.25
X177.287Y-118.3
X177.287Y-137.35
X182.287Y-82.4
X182.287Y-101.45
X182.287Y-120.5
X182.287Y-139.55
X196.337Y-80.2
X196.337Y-99.25
X196.337Y-118.3
X196.337Y-137.35
X201.337Y-82.4
X201.337Y-101.45
X201.337Y-120.5
X201.337Y-139.55
X215.387Y-80.2
X215.387Y-99.25
X215.387Y-118.3
X215.387Y-137.35
X220.387Y-82.4
X220.387Y-101.45
X220.387Y-120.5
X220.387Y-139.55
X234.438Y-80.2
X234.438Y-99.25
X234.438Y-118.3
X234.438Y-137.35
X239.438Y-82.4
X239.438Y-101.45
X239.438Y-120.5
X239.438Y-139.55
T4
X67.987Y-76.45
X67.987Y-95.5
X67.987Y-114.55
X67.987Y-133.6
X87.037Y-76.45
X87.037Y-95.5
X87.037Y-114.55
X87.037Y-133.6
X106.087Y-76.45
X106.087Y-95.5
X106.087Y-114.55
X106.087Y-133.6
X125.137Y-76.45
X125.137Y-95.5
X125.137Y-114.55
X125.137Y-133.6
X144.188Y-76.45
X144.188Y-95.5
X144.188Y-114.55
X144.188Y-133.6
X163.237Y-76.45
X163.237Y-95.5
X163.237Y-114.55
X163.237Y-133.6
X182.287Y-76.45
X182.287Y-95.5
X182.287Y-114.55
X182.287Y-133.6
X201.337Y-76.45
X201.337Y-95.5
X201.337Y-114.55
X201.337Y-133.6
X220.387Y-76.45
X220.387Y-95.5
X220.387Y-114.55
X220.387Y-133.6
X239.438Y-76.45
X239.438Y-95.5
X239.438Y-114.55
X239.438Y-133.6
T0
M30
