M48
; DRILL file {KiCad 6.0.7-f9a2dced07~116~ubuntu20.04.1} date Sun 18 Sep 2022 01:17:51 PM
; FORMAT={-:-/ absolute / metric / decimal}
; #@! TF.CreationDate,2022-09-18T13:17:51+08:00
; #@! TF.GenerationSoftware,Kicad,Pcbnew,6.0.7-f9a2dced07~116~ubuntu20.04.1
; #@! TF.FileFunction,Plated,1,2,PTH
FMAT,2
METRIC
; #@! TA.AperFunction,Plated,PTH,ViaDrill
T1C0.400
; #@! TA.AperFunction,Plated,PTH,ComponentDrill
T2C0.700
; #@! TA.AperFunction,Plated,PTH,ComponentDrill
T3C1.100
; #@! TA.AperFunction,Plated,PTH,ComponentDrill
T4C1.499
%
G90
G05
T1
X59.63Y-110.33
X61.348Y-92.96
X61.5Y-90.1
X62.9Y-90.0
X64.48Y-55.11
X65.52Y-89.68
X66.48Y-130.73
X67.6Y-89.9
X68.1Y-62.9
X70.84Y-97.14
X72.85Y-97.12
X78.763Y-134.438
X89.17Y-74.76
X90.29Y-136.26
X90.52Y-98.89
X109.28Y-97.94
X153.088Y-97.18
X154.278Y-134.0
X155.097Y-115.21
X166.67Y-98.06
X172.107Y-77.22
X173.767Y-114.59
X173.778Y-134.02
X174.077Y-96.52
X184.71Y-97.72
X190.887Y-79.76
X191.987Y-96.51
X192.718Y-133.6
X192.938Y-114.56
X204.34Y-98.28
X211.938Y-134.61
X212.197Y-115.42
X212.367Y-94.65
X222.99Y-98.04
X229.927Y-140.06
X230.647Y-95.59
X231.227Y-114.26
X242.51Y-136.66
T2
X91.03Y-64.958
X94.902Y-64.958
X96.545Y-59.442
X98.773Y-64.958
X100.417Y-59.442
X102.645Y-64.958
X104.289Y-59.442
X106.517Y-64.958
X108.161Y-59.442
X110.389Y-64.958
X112.032Y-59.442
X114.261Y-64.958
X115.904Y-59.442
X118.132Y-64.958
X119.776Y-59.442
X122.004Y-64.958
X123.648Y-59.442
X125.876Y-64.958
X127.52Y-59.442
X129.748Y-64.958
X131.391Y-59.442
X133.62Y-64.958
X135.263Y-59.442
X137.491Y-64.958
X139.135Y-59.442
X141.363Y-64.958
X143.007Y-59.442
X145.235Y-64.958
X146.879Y-59.442
X149.107Y-64.958
X150.75Y-59.442
X152.978Y-64.958
X154.622Y-59.442
X156.85Y-64.958
X158.494Y-59.442
X160.722Y-64.958
X162.366Y-59.442
X164.594Y-64.958
X166.238Y-59.442
X168.466Y-64.958
X170.109Y-59.442
X172.337Y-64.958
X173.981Y-59.442
X176.209Y-64.958
X177.853Y-59.442
X180.081Y-64.958
X181.725Y-59.442
X183.953Y-64.958
X185.596Y-59.442
X187.825Y-64.958
X189.468Y-59.442
X191.696Y-64.958
X193.34Y-59.442
X195.568Y-64.958
X197.212Y-59.442
X199.44Y-64.958
X201.084Y-59.442
X203.312Y-64.958
X204.955Y-59.442
X207.184Y-64.958
X208.827Y-59.442
X211.055Y-64.958
X212.699Y-59.442
X214.927Y-64.958
X216.571Y-59.442
X218.799Y-64.958
X220.443Y-59.442
X222.671Y-64.958
X224.314Y-59.442
X226.543Y-64.958
X228.186Y-59.442
X230.414Y-64.958
X232.058Y-59.442
X234.286Y-64.958
X235.93Y-59.442
X238.158Y-64.958
X239.802Y-59.442
X242.03Y-64.958
X243.673Y-59.442
X247.545Y-59.442
T3
X59.817Y-49.871
X59.817Y-65.111
X62.357Y-49.871
X62.357Y-65.111
X64.897Y-49.871
X64.897Y-65.111
X67.438Y-49.871
X67.438Y-65.111
X69.977Y-49.871
X69.977Y-65.111
X72.517Y-49.871
X72.517Y-65.111
X75.057Y-49.871
X75.057Y-65.111
X77.597Y-49.871
X77.597Y-65.111
X80.138Y-49.871
X80.138Y-65.111
X82.677Y-49.871
X82.677Y-65.111
X85.218Y-49.871
X85.218Y-65.111
X87.757Y-49.871
X87.757Y-65.111
X92.438Y-49.6
X92.438Y-56.1
X96.938Y-49.6
X96.938Y-56.1
T4
X64.177Y-73.91
X64.177Y-92.96
X64.177Y-112.01
X64.177Y-131.06
X70.528Y-71.37
X70.528Y-90.42
X70.528Y-109.47
X70.528Y-128.52
X83.227Y-73.91
X83.227Y-92.96
X83.227Y-112.01
X83.227Y-131.06
X89.578Y-71.37
X89.578Y-90.42
X89.578Y-109.47
X89.578Y-128.52
X102.277Y-73.91
X102.277Y-92.96
X102.277Y-112.01
X102.277Y-131.06
X108.627Y-71.37
X108.627Y-90.42
X108.627Y-109.47
X108.627Y-128.52
X121.328Y-73.91
X121.328Y-92.96
X121.328Y-112.01
X121.328Y-131.06
X127.677Y-71.37
X127.677Y-90.42
X127.677Y-109.47
X127.677Y-128.52
X140.377Y-73.91
X140.377Y-92.96
X140.377Y-112.01
X140.377Y-131.06
X146.727Y-71.37
X146.727Y-90.42
X146.727Y-109.47
X146.727Y-128.52
X159.427Y-73.91
X159.427Y-92.96
X159.427Y-112.01
X159.427Y-131.06
X165.778Y-71.37
X165.778Y-90.42
X165.778Y-109.47
X165.778Y-128.52
X178.477Y-73.91
X178.477Y-92.96
X178.477Y-112.01
X178.477Y-131.06
X184.827Y-71.37
X184.827Y-90.42
X184.827Y-109.47
X184.827Y-128.52
X197.528Y-73.91
X197.528Y-92.96
X197.528Y-112.01
X197.528Y-131.06
X203.877Y-71.37
X203.877Y-90.42
X203.877Y-109.47
X203.877Y-128.52
X216.577Y-73.91
X216.577Y-92.96
X216.577Y-112.01
X216.577Y-131.06
X222.927Y-71.37
X222.927Y-90.42
X222.927Y-109.47
X222.927Y-128.52
X235.627Y-73.91
X235.627Y-92.96
X235.627Y-112.01
X235.627Y-131.06
X241.977Y-71.37
X241.977Y-90.42
X241.977Y-109.47
X241.977Y-128.52
T0
M30
