G04 #@! TF.GenerationSoftware,KiCad,Pcbnew,6.0.7-f9a2dced07~116~ubuntu20.04.1*
G04 #@! TF.CreationDate,2022-09-18T13:16:26+08:00*
G04 #@! TF.ProjectId,keyboard v3,6b657962-6f61-4726-9420-76332e6b6963,rev?*
G04 #@! TF.SameCoordinates,Original*
G04 #@! TF.FileFunction,Legend,Bot*
G04 #@! TF.FilePolarity,Positive*
%FSLAX46Y46*%
G04 Gerber Fmt 4.6, Leading zero omitted, Abs format (unit mm)*
G04 Created by KiCad (PCBNEW 6.0.7-f9a2dced07~116~ubuntu20.04.1) date 2022-09-18 13:16:26*
%MOMM*%
%LPD*%
G01*
G04 APERTURE LIST*
G04 Aperture macros list*
%AMRotRect*
0 Rectangle, with rotation*
0 The origin of the aperture is its center*
0 $1 length*
0 $2 width*
0 $3 Rotation angle, in degrees counterclockwise*
0 Add horizontal line*
21,1,$1,$2,0,0,$3*%
G04 Aperture macros list end*
%ADD10C,0.150000*%
%ADD11C,0.120000*%
%ADD12C,1.701800*%
%ADD13C,3.000000*%
%ADD14C,3.987800*%
%ADD15C,2.286000*%
%ADD16R,2.600000X2.600000*%
%ADD17RotRect,1.600000X1.600000X45.000000*%
%ADD18C,1.600000*%
%ADD19C,5.000000*%
%ADD20R,1.600000X1.600000*%
%ADD21R,1.500000X1.000000*%
%ADD22C,2.000000*%
G04 APERTURE END LIST*
D10*
X68725595Y-92952380D02*
X68725595Y-91952380D01*
X68154166Y-92952380D02*
X68582738Y-92380952D01*
X68154166Y-91952380D02*
X68725595Y-92523809D01*
X67773214Y-92047619D02*
X67725595Y-92000000D01*
X67630357Y-91952380D01*
X67392261Y-91952380D01*
X67297023Y-92000000D01*
X67249404Y-92047619D01*
X67201785Y-92142857D01*
X67201785Y-92238095D01*
X67249404Y-92380952D01*
X67820833Y-92952380D01*
X67201785Y-92952380D01*
X183501785Y-112002380D02*
X183501785Y-111002380D01*
X182930357Y-112002380D02*
X183358928Y-111430952D01*
X182930357Y-111002380D02*
X183501785Y-111573809D01*
X182549404Y-111097619D02*
X182501785Y-111050000D01*
X182406547Y-111002380D01*
X182168452Y-111002380D01*
X182073214Y-111050000D01*
X182025595Y-111097619D01*
X181977976Y-111192857D01*
X181977976Y-111288095D01*
X182025595Y-111430952D01*
X182597023Y-112002380D01*
X181977976Y-112002380D01*
X181644642Y-111002380D02*
X180977976Y-111002380D01*
X181406547Y-112002380D01*
X145401785Y-131052380D02*
X145401785Y-130052380D01*
X144830357Y-131052380D02*
X145258928Y-130480952D01*
X144830357Y-130052380D02*
X145401785Y-130623809D01*
X144449404Y-130147619D02*
X144401785Y-130100000D01*
X144306547Y-130052380D01*
X144068452Y-130052380D01*
X143973214Y-130100000D01*
X143925595Y-130147619D01*
X143877976Y-130242857D01*
X143877976Y-130338095D01*
X143925595Y-130480952D01*
X144497023Y-131052380D01*
X143877976Y-131052380D01*
X143258928Y-130052380D02*
X143163690Y-130052380D01*
X143068452Y-130100000D01*
X143020833Y-130147619D01*
X142973214Y-130242857D01*
X142925595Y-130433333D01*
X142925595Y-130671428D01*
X142973214Y-130861904D01*
X143020833Y-130957142D01*
X143068452Y-131004761D01*
X143163690Y-131052380D01*
X143258928Y-131052380D01*
X143354166Y-131004761D01*
X143401785Y-130957142D01*
X143449404Y-130861904D01*
X143497023Y-130671428D01*
X143497023Y-130433333D01*
X143449404Y-130242857D01*
X143401785Y-130147619D01*
X143354166Y-130100000D01*
X143258928Y-130052380D01*
X126351785Y-112002380D02*
X126351785Y-111002380D01*
X125780357Y-112002380D02*
X126208928Y-111430952D01*
X125780357Y-111002380D02*
X126351785Y-111573809D01*
X124827976Y-112002380D02*
X125399404Y-112002380D01*
X125113690Y-112002380D02*
X125113690Y-111002380D01*
X125208928Y-111145238D01*
X125304166Y-111240476D01*
X125399404Y-111288095D01*
X123923214Y-111002380D02*
X124399404Y-111002380D01*
X124447023Y-111478571D01*
X124399404Y-111430952D01*
X124304166Y-111383333D01*
X124066071Y-111383333D01*
X123970833Y-111430952D01*
X123923214Y-111478571D01*
X123875595Y-111573809D01*
X123875595Y-111811904D01*
X123923214Y-111907142D01*
X123970833Y-111954761D01*
X124066071Y-112002380D01*
X124304166Y-112002380D01*
X124399404Y-111954761D01*
X124447023Y-111907142D01*
X183501785Y-92952380D02*
X183501785Y-91952380D01*
X182930357Y-92952380D02*
X183358928Y-92380952D01*
X182930357Y-91952380D02*
X183501785Y-92523809D01*
X182549404Y-92047619D02*
X182501785Y-92000000D01*
X182406547Y-91952380D01*
X182168452Y-91952380D01*
X182073214Y-92000000D01*
X182025595Y-92047619D01*
X181977976Y-92142857D01*
X181977976Y-92238095D01*
X182025595Y-92380952D01*
X182597023Y-92952380D01*
X181977976Y-92952380D01*
X181120833Y-91952380D02*
X181311309Y-91952380D01*
X181406547Y-92000000D01*
X181454166Y-92047619D01*
X181549404Y-92190476D01*
X181597023Y-92380952D01*
X181597023Y-92761904D01*
X181549404Y-92857142D01*
X181501785Y-92904761D01*
X181406547Y-92952380D01*
X181216071Y-92952380D01*
X181120833Y-92904761D01*
X181073214Y-92857142D01*
X181025595Y-92761904D01*
X181025595Y-92523809D01*
X181073214Y-92428571D01*
X181120833Y-92380952D01*
X181216071Y-92333333D01*
X181406547Y-92333333D01*
X181501785Y-92380952D01*
X181549404Y-92428571D01*
X181597023Y-92523809D01*
X87775595Y-131052380D02*
X87775595Y-130052380D01*
X87204166Y-131052380D02*
X87632738Y-130480952D01*
X87204166Y-130052380D02*
X87775595Y-130623809D01*
X86632738Y-130480952D02*
X86727976Y-130433333D01*
X86775595Y-130385714D01*
X86823214Y-130290476D01*
X86823214Y-130242857D01*
X86775595Y-130147619D01*
X86727976Y-130100000D01*
X86632738Y-130052380D01*
X86442261Y-130052380D01*
X86347023Y-130100000D01*
X86299404Y-130147619D01*
X86251785Y-130242857D01*
X86251785Y-130290476D01*
X86299404Y-130385714D01*
X86347023Y-130433333D01*
X86442261Y-130480952D01*
X86632738Y-130480952D01*
X86727976Y-130528571D01*
X86775595Y-130576190D01*
X86823214Y-130671428D01*
X86823214Y-130861904D01*
X86775595Y-130957142D01*
X86727976Y-131004761D01*
X86632738Y-131052380D01*
X86442261Y-131052380D01*
X86347023Y-131004761D01*
X86299404Y-130957142D01*
X86251785Y-130861904D01*
X86251785Y-130671428D01*
X86299404Y-130576190D01*
X86347023Y-130528571D01*
X86442261Y-130480952D01*
X240651785Y-112002380D02*
X240651785Y-111002380D01*
X240080357Y-112002380D02*
X240508928Y-111430952D01*
X240080357Y-111002380D02*
X240651785Y-111573809D01*
X239747023Y-111002380D02*
X239127976Y-111002380D01*
X239461309Y-111383333D01*
X239318452Y-111383333D01*
X239223214Y-111430952D01*
X239175595Y-111478571D01*
X239127976Y-111573809D01*
X239127976Y-111811904D01*
X239175595Y-111907142D01*
X239223214Y-111954761D01*
X239318452Y-112002380D01*
X239604166Y-112002380D01*
X239699404Y-111954761D01*
X239747023Y-111907142D01*
X238651785Y-112002380D02*
X238461309Y-112002380D01*
X238366071Y-111954761D01*
X238318452Y-111907142D01*
X238223214Y-111764285D01*
X238175595Y-111573809D01*
X238175595Y-111192857D01*
X238223214Y-111097619D01*
X238270833Y-111050000D01*
X238366071Y-111002380D01*
X238556547Y-111002380D01*
X238651785Y-111050000D01*
X238699404Y-111097619D01*
X238747023Y-111192857D01*
X238747023Y-111430952D01*
X238699404Y-111526190D01*
X238651785Y-111573809D01*
X238556547Y-111621428D01*
X238366071Y-111621428D01*
X238270833Y-111573809D01*
X238223214Y-111526190D01*
X238175595Y-111430952D01*
X126351785Y-131052380D02*
X126351785Y-130052380D01*
X125780357Y-131052380D02*
X126208928Y-130480952D01*
X125780357Y-130052380D02*
X126351785Y-130623809D01*
X124827976Y-131052380D02*
X125399404Y-131052380D01*
X125113690Y-131052380D02*
X125113690Y-130052380D01*
X125208928Y-130195238D01*
X125304166Y-130290476D01*
X125399404Y-130338095D01*
X123970833Y-130052380D02*
X124161309Y-130052380D01*
X124256547Y-130100000D01*
X124304166Y-130147619D01*
X124399404Y-130290476D01*
X124447023Y-130480952D01*
X124447023Y-130861904D01*
X124399404Y-130957142D01*
X124351785Y-131004761D01*
X124256547Y-131052380D01*
X124066071Y-131052380D01*
X123970833Y-131004761D01*
X123923214Y-130957142D01*
X123875595Y-130861904D01*
X123875595Y-130623809D01*
X123923214Y-130528571D01*
X123970833Y-130480952D01*
X124066071Y-130433333D01*
X124256547Y-130433333D01*
X124351785Y-130480952D01*
X124399404Y-130528571D01*
X124447023Y-130623809D01*
X221601785Y-73902380D02*
X221601785Y-72902380D01*
X221030357Y-73902380D02*
X221458928Y-73330952D01*
X221030357Y-72902380D02*
X221601785Y-73473809D01*
X220697023Y-72902380D02*
X220077976Y-72902380D01*
X220411309Y-73283333D01*
X220268452Y-73283333D01*
X220173214Y-73330952D01*
X220125595Y-73378571D01*
X220077976Y-73473809D01*
X220077976Y-73711904D01*
X220125595Y-73807142D01*
X220173214Y-73854761D01*
X220268452Y-73902380D01*
X220554166Y-73902380D01*
X220649404Y-73854761D01*
X220697023Y-73807142D01*
X219744642Y-72902380D02*
X219125595Y-72902380D01*
X219458928Y-73283333D01*
X219316071Y-73283333D01*
X219220833Y-73330952D01*
X219173214Y-73378571D01*
X219125595Y-73473809D01*
X219125595Y-73711904D01*
X219173214Y-73807142D01*
X219220833Y-73854761D01*
X219316071Y-73902380D01*
X219601785Y-73902380D01*
X219697023Y-73854761D01*
X219744642Y-73807142D01*
X164451785Y-73902380D02*
X164451785Y-72902380D01*
X163880357Y-73902380D02*
X164308928Y-73330952D01*
X163880357Y-72902380D02*
X164451785Y-73473809D01*
X163499404Y-72997619D02*
X163451785Y-72950000D01*
X163356547Y-72902380D01*
X163118452Y-72902380D01*
X163023214Y-72950000D01*
X162975595Y-72997619D01*
X162927976Y-73092857D01*
X162927976Y-73188095D01*
X162975595Y-73330952D01*
X163547023Y-73902380D01*
X162927976Y-73902380D01*
X161975595Y-73902380D02*
X162547023Y-73902380D01*
X162261309Y-73902380D02*
X162261309Y-72902380D01*
X162356547Y-73045238D01*
X162451785Y-73140476D01*
X162547023Y-73188095D01*
X183501785Y-131052380D02*
X183501785Y-130052380D01*
X182930357Y-131052380D02*
X183358928Y-130480952D01*
X182930357Y-130052380D02*
X183501785Y-130623809D01*
X182549404Y-130147619D02*
X182501785Y-130100000D01*
X182406547Y-130052380D01*
X182168452Y-130052380D01*
X182073214Y-130100000D01*
X182025595Y-130147619D01*
X181977976Y-130242857D01*
X181977976Y-130338095D01*
X182025595Y-130480952D01*
X182597023Y-131052380D01*
X181977976Y-131052380D01*
X181406547Y-130480952D02*
X181501785Y-130433333D01*
X181549404Y-130385714D01*
X181597023Y-130290476D01*
X181597023Y-130242857D01*
X181549404Y-130147619D01*
X181501785Y-130100000D01*
X181406547Y-130052380D01*
X181216071Y-130052380D01*
X181120833Y-130100000D01*
X181073214Y-130147619D01*
X181025595Y-130242857D01*
X181025595Y-130290476D01*
X181073214Y-130385714D01*
X181120833Y-130433333D01*
X181216071Y-130480952D01*
X181406547Y-130480952D01*
X181501785Y-130528571D01*
X181549404Y-130576190D01*
X181597023Y-130671428D01*
X181597023Y-130861904D01*
X181549404Y-130957142D01*
X181501785Y-131004761D01*
X181406547Y-131052380D01*
X181216071Y-131052380D01*
X181120833Y-131004761D01*
X181073214Y-130957142D01*
X181025595Y-130861904D01*
X181025595Y-130671428D01*
X181073214Y-130576190D01*
X181120833Y-130528571D01*
X181216071Y-130480952D01*
X202551785Y-73902380D02*
X202551785Y-72902380D01*
X201980357Y-73902380D02*
X202408928Y-73330952D01*
X201980357Y-72902380D02*
X202551785Y-73473809D01*
X201599404Y-72997619D02*
X201551785Y-72950000D01*
X201456547Y-72902380D01*
X201218452Y-72902380D01*
X201123214Y-72950000D01*
X201075595Y-72997619D01*
X201027976Y-73092857D01*
X201027976Y-73188095D01*
X201075595Y-73330952D01*
X201647023Y-73902380D01*
X201027976Y-73902380D01*
X200551785Y-73902380D02*
X200361309Y-73902380D01*
X200266071Y-73854761D01*
X200218452Y-73807142D01*
X200123214Y-73664285D01*
X200075595Y-73473809D01*
X200075595Y-73092857D01*
X200123214Y-72997619D01*
X200170833Y-72950000D01*
X200266071Y-72902380D01*
X200456547Y-72902380D01*
X200551785Y-72950000D01*
X200599404Y-72997619D01*
X200647023Y-73092857D01*
X200647023Y-73330952D01*
X200599404Y-73426190D01*
X200551785Y-73473809D01*
X200456547Y-73521428D01*
X200266071Y-73521428D01*
X200170833Y-73473809D01*
X200123214Y-73426190D01*
X200075595Y-73330952D01*
X68725595Y-112002380D02*
X68725595Y-111002380D01*
X68154166Y-112002380D02*
X68582738Y-111430952D01*
X68154166Y-111002380D02*
X68725595Y-111573809D01*
X67820833Y-111002380D02*
X67201785Y-111002380D01*
X67535119Y-111383333D01*
X67392261Y-111383333D01*
X67297023Y-111430952D01*
X67249404Y-111478571D01*
X67201785Y-111573809D01*
X67201785Y-111811904D01*
X67249404Y-111907142D01*
X67297023Y-111954761D01*
X67392261Y-112002380D01*
X67677976Y-112002380D01*
X67773214Y-111954761D01*
X67820833Y-111907142D01*
X164451785Y-92952380D02*
X164451785Y-91952380D01*
X163880357Y-92952380D02*
X164308928Y-92380952D01*
X163880357Y-91952380D02*
X164451785Y-92523809D01*
X163499404Y-92047619D02*
X163451785Y-92000000D01*
X163356547Y-91952380D01*
X163118452Y-91952380D01*
X163023214Y-92000000D01*
X162975595Y-92047619D01*
X162927976Y-92142857D01*
X162927976Y-92238095D01*
X162975595Y-92380952D01*
X163547023Y-92952380D01*
X162927976Y-92952380D01*
X162547023Y-92047619D02*
X162499404Y-92000000D01*
X162404166Y-91952380D01*
X162166071Y-91952380D01*
X162070833Y-92000000D01*
X162023214Y-92047619D01*
X161975595Y-92142857D01*
X161975595Y-92238095D01*
X162023214Y-92380952D01*
X162594642Y-92952380D01*
X161975595Y-92952380D01*
X202551785Y-131052380D02*
X202551785Y-130052380D01*
X201980357Y-131052380D02*
X202408928Y-130480952D01*
X201980357Y-130052380D02*
X202551785Y-130623809D01*
X201647023Y-130052380D02*
X201027976Y-130052380D01*
X201361309Y-130433333D01*
X201218452Y-130433333D01*
X201123214Y-130480952D01*
X201075595Y-130528571D01*
X201027976Y-130623809D01*
X201027976Y-130861904D01*
X201075595Y-130957142D01*
X201123214Y-131004761D01*
X201218452Y-131052380D01*
X201504166Y-131052380D01*
X201599404Y-131004761D01*
X201647023Y-130957142D01*
X200647023Y-130147619D02*
X200599404Y-130100000D01*
X200504166Y-130052380D01*
X200266071Y-130052380D01*
X200170833Y-130100000D01*
X200123214Y-130147619D01*
X200075595Y-130242857D01*
X200075595Y-130338095D01*
X200123214Y-130480952D01*
X200694642Y-131052380D01*
X200075595Y-131052380D01*
X202551785Y-92952380D02*
X202551785Y-91952380D01*
X201980357Y-92952380D02*
X202408928Y-92380952D01*
X201980357Y-91952380D02*
X202551785Y-92523809D01*
X201647023Y-91952380D02*
X201027976Y-91952380D01*
X201361309Y-92333333D01*
X201218452Y-92333333D01*
X201123214Y-92380952D01*
X201075595Y-92428571D01*
X201027976Y-92523809D01*
X201027976Y-92761904D01*
X201075595Y-92857142D01*
X201123214Y-92904761D01*
X201218452Y-92952380D01*
X201504166Y-92952380D01*
X201599404Y-92904761D01*
X201647023Y-92857142D01*
X200408928Y-91952380D02*
X200313690Y-91952380D01*
X200218452Y-92000000D01*
X200170833Y-92047619D01*
X200123214Y-92142857D01*
X200075595Y-92333333D01*
X200075595Y-92571428D01*
X200123214Y-92761904D01*
X200170833Y-92857142D01*
X200218452Y-92904761D01*
X200313690Y-92952380D01*
X200408928Y-92952380D01*
X200504166Y-92904761D01*
X200551785Y-92857142D01*
X200599404Y-92761904D01*
X200647023Y-92571428D01*
X200647023Y-92333333D01*
X200599404Y-92142857D01*
X200551785Y-92047619D01*
X200504166Y-92000000D01*
X200408928Y-91952380D01*
X126351785Y-73902380D02*
X126351785Y-72902380D01*
X125780357Y-73902380D02*
X126208928Y-73330952D01*
X125780357Y-72902380D02*
X126351785Y-73473809D01*
X124827976Y-73902380D02*
X125399404Y-73902380D01*
X125113690Y-73902380D02*
X125113690Y-72902380D01*
X125208928Y-73045238D01*
X125304166Y-73140476D01*
X125399404Y-73188095D01*
X124494642Y-72902380D02*
X123875595Y-72902380D01*
X124208928Y-73283333D01*
X124066071Y-73283333D01*
X123970833Y-73330952D01*
X123923214Y-73378571D01*
X123875595Y-73473809D01*
X123875595Y-73711904D01*
X123923214Y-73807142D01*
X123970833Y-73854761D01*
X124066071Y-73902380D01*
X124351785Y-73902380D01*
X124447023Y-73854761D01*
X124494642Y-73807142D01*
X107301785Y-131052380D02*
X107301785Y-130052380D01*
X106730357Y-131052380D02*
X107158928Y-130480952D01*
X106730357Y-130052380D02*
X107301785Y-130623809D01*
X105777976Y-131052380D02*
X106349404Y-131052380D01*
X106063690Y-131052380D02*
X106063690Y-130052380D01*
X106158928Y-130195238D01*
X106254166Y-130290476D01*
X106349404Y-130338095D01*
X105397023Y-130147619D02*
X105349404Y-130100000D01*
X105254166Y-130052380D01*
X105016071Y-130052380D01*
X104920833Y-130100000D01*
X104873214Y-130147619D01*
X104825595Y-130242857D01*
X104825595Y-130338095D01*
X104873214Y-130480952D01*
X105444642Y-131052380D01*
X104825595Y-131052380D01*
X240651785Y-131052380D02*
X240651785Y-130052380D01*
X240080357Y-131052380D02*
X240508928Y-130480952D01*
X240080357Y-130052380D02*
X240651785Y-130623809D01*
X239223214Y-130385714D02*
X239223214Y-131052380D01*
X239461309Y-130004761D02*
X239699404Y-130719047D01*
X239080357Y-130719047D01*
X238508928Y-130052380D02*
X238413690Y-130052380D01*
X238318452Y-130100000D01*
X238270833Y-130147619D01*
X238223214Y-130242857D01*
X238175595Y-130433333D01*
X238175595Y-130671428D01*
X238223214Y-130861904D01*
X238270833Y-130957142D01*
X238318452Y-131004761D01*
X238413690Y-131052380D01*
X238508928Y-131052380D01*
X238604166Y-131004761D01*
X238651785Y-130957142D01*
X238699404Y-130861904D01*
X238747023Y-130671428D01*
X238747023Y-130433333D01*
X238699404Y-130242857D01*
X238651785Y-130147619D01*
X238604166Y-130100000D01*
X238508928Y-130052380D01*
X145401785Y-92952380D02*
X145401785Y-91952380D01*
X144830357Y-92952380D02*
X145258928Y-92380952D01*
X144830357Y-91952380D02*
X145401785Y-92523809D01*
X143877976Y-92952380D02*
X144449404Y-92952380D01*
X144163690Y-92952380D02*
X144163690Y-91952380D01*
X144258928Y-92095238D01*
X144354166Y-92190476D01*
X144449404Y-92238095D01*
X143306547Y-92380952D02*
X143401785Y-92333333D01*
X143449404Y-92285714D01*
X143497023Y-92190476D01*
X143497023Y-92142857D01*
X143449404Y-92047619D01*
X143401785Y-92000000D01*
X143306547Y-91952380D01*
X143116071Y-91952380D01*
X143020833Y-92000000D01*
X142973214Y-92047619D01*
X142925595Y-92142857D01*
X142925595Y-92190476D01*
X142973214Y-92285714D01*
X143020833Y-92333333D01*
X143116071Y-92380952D01*
X143306547Y-92380952D01*
X143401785Y-92428571D01*
X143449404Y-92476190D01*
X143497023Y-92571428D01*
X143497023Y-92761904D01*
X143449404Y-92857142D01*
X143401785Y-92904761D01*
X143306547Y-92952380D01*
X143116071Y-92952380D01*
X143020833Y-92904761D01*
X142973214Y-92857142D01*
X142925595Y-92761904D01*
X142925595Y-92571428D01*
X142973214Y-92476190D01*
X143020833Y-92428571D01*
X143116071Y-92380952D01*
X145401785Y-73902380D02*
X145401785Y-72902380D01*
X144830357Y-73902380D02*
X145258928Y-73330952D01*
X144830357Y-72902380D02*
X145401785Y-73473809D01*
X143877976Y-73902380D02*
X144449404Y-73902380D01*
X144163690Y-73902380D02*
X144163690Y-72902380D01*
X144258928Y-73045238D01*
X144354166Y-73140476D01*
X144449404Y-73188095D01*
X143544642Y-72902380D02*
X142877976Y-72902380D01*
X143306547Y-73902380D01*
X107301785Y-112002380D02*
X107301785Y-111002380D01*
X106730357Y-112002380D02*
X107158928Y-111430952D01*
X106730357Y-111002380D02*
X107301785Y-111573809D01*
X105777976Y-112002380D02*
X106349404Y-112002380D01*
X106063690Y-112002380D02*
X106063690Y-111002380D01*
X106158928Y-111145238D01*
X106254166Y-111240476D01*
X106349404Y-111288095D01*
X104825595Y-112002380D02*
X105397023Y-112002380D01*
X105111309Y-112002380D02*
X105111309Y-111002380D01*
X105206547Y-111145238D01*
X105301785Y-111240476D01*
X105397023Y-111288095D01*
X240651785Y-73902380D02*
X240651785Y-72902380D01*
X240080357Y-73902380D02*
X240508928Y-73330952D01*
X240080357Y-72902380D02*
X240651785Y-73473809D01*
X239747023Y-72902380D02*
X239127976Y-72902380D01*
X239461309Y-73283333D01*
X239318452Y-73283333D01*
X239223214Y-73330952D01*
X239175595Y-73378571D01*
X239127976Y-73473809D01*
X239127976Y-73711904D01*
X239175595Y-73807142D01*
X239223214Y-73854761D01*
X239318452Y-73902380D01*
X239604166Y-73902380D01*
X239699404Y-73854761D01*
X239747023Y-73807142D01*
X238794642Y-72902380D02*
X238127976Y-72902380D01*
X238556547Y-73902380D01*
X87775595Y-92952380D02*
X87775595Y-91952380D01*
X87204166Y-92952380D02*
X87632738Y-92380952D01*
X87204166Y-91952380D02*
X87775595Y-92523809D01*
X86347023Y-91952380D02*
X86537500Y-91952380D01*
X86632738Y-92000000D01*
X86680357Y-92047619D01*
X86775595Y-92190476D01*
X86823214Y-92380952D01*
X86823214Y-92761904D01*
X86775595Y-92857142D01*
X86727976Y-92904761D01*
X86632738Y-92952380D01*
X86442261Y-92952380D01*
X86347023Y-92904761D01*
X86299404Y-92857142D01*
X86251785Y-92761904D01*
X86251785Y-92523809D01*
X86299404Y-92428571D01*
X86347023Y-92380952D01*
X86442261Y-92333333D01*
X86632738Y-92333333D01*
X86727976Y-92380952D01*
X86775595Y-92428571D01*
X86823214Y-92523809D01*
X221601785Y-112002380D02*
X221601785Y-111002380D01*
X221030357Y-112002380D02*
X221458928Y-111430952D01*
X221030357Y-111002380D02*
X221601785Y-111573809D01*
X220697023Y-111002380D02*
X220077976Y-111002380D01*
X220411309Y-111383333D01*
X220268452Y-111383333D01*
X220173214Y-111430952D01*
X220125595Y-111478571D01*
X220077976Y-111573809D01*
X220077976Y-111811904D01*
X220125595Y-111907142D01*
X220173214Y-111954761D01*
X220268452Y-112002380D01*
X220554166Y-112002380D01*
X220649404Y-111954761D01*
X220697023Y-111907142D01*
X219173214Y-111002380D02*
X219649404Y-111002380D01*
X219697023Y-111478571D01*
X219649404Y-111430952D01*
X219554166Y-111383333D01*
X219316071Y-111383333D01*
X219220833Y-111430952D01*
X219173214Y-111478571D01*
X219125595Y-111573809D01*
X219125595Y-111811904D01*
X219173214Y-111907142D01*
X219220833Y-111954761D01*
X219316071Y-112002380D01*
X219554166Y-112002380D01*
X219649404Y-111954761D01*
X219697023Y-111907142D01*
X145401785Y-112002380D02*
X145401785Y-111002380D01*
X144830357Y-112002380D02*
X145258928Y-111430952D01*
X144830357Y-111002380D02*
X145401785Y-111573809D01*
X143877976Y-112002380D02*
X144449404Y-112002380D01*
X144163690Y-112002380D02*
X144163690Y-111002380D01*
X144258928Y-111145238D01*
X144354166Y-111240476D01*
X144449404Y-111288095D01*
X143401785Y-112002380D02*
X143211309Y-112002380D01*
X143116071Y-111954761D01*
X143068452Y-111907142D01*
X142973214Y-111764285D01*
X142925595Y-111573809D01*
X142925595Y-111192857D01*
X142973214Y-111097619D01*
X143020833Y-111050000D01*
X143116071Y-111002380D01*
X143306547Y-111002380D01*
X143401785Y-111050000D01*
X143449404Y-111097619D01*
X143497023Y-111192857D01*
X143497023Y-111430952D01*
X143449404Y-111526190D01*
X143401785Y-111573809D01*
X143306547Y-111621428D01*
X143116071Y-111621428D01*
X143020833Y-111573809D01*
X142973214Y-111526190D01*
X142925595Y-111430952D01*
X221601785Y-92952380D02*
X221601785Y-91952380D01*
X221030357Y-92952380D02*
X221458928Y-92380952D01*
X221030357Y-91952380D02*
X221601785Y-92523809D01*
X220697023Y-91952380D02*
X220077976Y-91952380D01*
X220411309Y-92333333D01*
X220268452Y-92333333D01*
X220173214Y-92380952D01*
X220125595Y-92428571D01*
X220077976Y-92523809D01*
X220077976Y-92761904D01*
X220125595Y-92857142D01*
X220173214Y-92904761D01*
X220268452Y-92952380D01*
X220554166Y-92952380D01*
X220649404Y-92904761D01*
X220697023Y-92857142D01*
X219220833Y-92285714D02*
X219220833Y-92952380D01*
X219458928Y-91904761D02*
X219697023Y-92619047D01*
X219077976Y-92619047D01*
X68725595Y-131052380D02*
X68725595Y-130052380D01*
X68154166Y-131052380D02*
X68582738Y-130480952D01*
X68154166Y-130052380D02*
X68725595Y-130623809D01*
X67297023Y-130385714D02*
X67297023Y-131052380D01*
X67535119Y-130004761D02*
X67773214Y-130719047D01*
X67154166Y-130719047D01*
X87775595Y-112002380D02*
X87775595Y-111002380D01*
X87204166Y-112002380D02*
X87632738Y-111430952D01*
X87204166Y-111002380D02*
X87775595Y-111573809D01*
X86870833Y-111002380D02*
X86204166Y-111002380D01*
X86632738Y-112002380D01*
X68725595Y-73902380D02*
X68725595Y-72902380D01*
X68154166Y-73902380D02*
X68582738Y-73330952D01*
X68154166Y-72902380D02*
X68725595Y-73473809D01*
X67201785Y-73902380D02*
X67773214Y-73902380D01*
X67487500Y-73902380D02*
X67487500Y-72902380D01*
X67582738Y-73045238D01*
X67677976Y-73140476D01*
X67773214Y-73188095D01*
X126351785Y-92952380D02*
X126351785Y-91952380D01*
X125780357Y-92952380D02*
X126208928Y-92380952D01*
X125780357Y-91952380D02*
X126351785Y-92523809D01*
X124827976Y-92952380D02*
X125399404Y-92952380D01*
X125113690Y-92952380D02*
X125113690Y-91952380D01*
X125208928Y-92095238D01*
X125304166Y-92190476D01*
X125399404Y-92238095D01*
X123970833Y-92285714D02*
X123970833Y-92952380D01*
X124208928Y-91904761D02*
X124447023Y-92619047D01*
X123827976Y-92619047D01*
X164451785Y-131052380D02*
X164451785Y-130052380D01*
X163880357Y-131052380D02*
X164308928Y-130480952D01*
X163880357Y-130052380D02*
X164451785Y-130623809D01*
X163499404Y-130147619D02*
X163451785Y-130100000D01*
X163356547Y-130052380D01*
X163118452Y-130052380D01*
X163023214Y-130100000D01*
X162975595Y-130147619D01*
X162927976Y-130242857D01*
X162927976Y-130338095D01*
X162975595Y-130480952D01*
X163547023Y-131052380D01*
X162927976Y-131052380D01*
X162070833Y-130385714D02*
X162070833Y-131052380D01*
X162308928Y-130004761D02*
X162547023Y-130719047D01*
X161927976Y-130719047D01*
X164451785Y-112002380D02*
X164451785Y-111002380D01*
X163880357Y-112002380D02*
X164308928Y-111430952D01*
X163880357Y-111002380D02*
X164451785Y-111573809D01*
X163499404Y-111097619D02*
X163451785Y-111050000D01*
X163356547Y-111002380D01*
X163118452Y-111002380D01*
X163023214Y-111050000D01*
X162975595Y-111097619D01*
X162927976Y-111192857D01*
X162927976Y-111288095D01*
X162975595Y-111430952D01*
X163547023Y-112002380D01*
X162927976Y-112002380D01*
X162594642Y-111002380D02*
X161975595Y-111002380D01*
X162308928Y-111383333D01*
X162166071Y-111383333D01*
X162070833Y-111430952D01*
X162023214Y-111478571D01*
X161975595Y-111573809D01*
X161975595Y-111811904D01*
X162023214Y-111907142D01*
X162070833Y-111954761D01*
X162166071Y-112002380D01*
X162451785Y-112002380D01*
X162547023Y-111954761D01*
X162594642Y-111907142D01*
X183501785Y-73902380D02*
X183501785Y-72902380D01*
X182930357Y-73902380D02*
X183358928Y-73330952D01*
X182930357Y-72902380D02*
X183501785Y-73473809D01*
X182549404Y-72997619D02*
X182501785Y-72950000D01*
X182406547Y-72902380D01*
X182168452Y-72902380D01*
X182073214Y-72950000D01*
X182025595Y-72997619D01*
X181977976Y-73092857D01*
X181977976Y-73188095D01*
X182025595Y-73330952D01*
X182597023Y-73902380D01*
X181977976Y-73902380D01*
X181073214Y-72902380D02*
X181549404Y-72902380D01*
X181597023Y-73378571D01*
X181549404Y-73330952D01*
X181454166Y-73283333D01*
X181216071Y-73283333D01*
X181120833Y-73330952D01*
X181073214Y-73378571D01*
X181025595Y-73473809D01*
X181025595Y-73711904D01*
X181073214Y-73807142D01*
X181120833Y-73854761D01*
X181216071Y-73902380D01*
X181454166Y-73902380D01*
X181549404Y-73854761D01*
X181597023Y-73807142D01*
X107301785Y-92952380D02*
X107301785Y-91952380D01*
X106730357Y-92952380D02*
X107158928Y-92380952D01*
X106730357Y-91952380D02*
X107301785Y-92523809D01*
X105777976Y-92952380D02*
X106349404Y-92952380D01*
X106063690Y-92952380D02*
X106063690Y-91952380D01*
X106158928Y-92095238D01*
X106254166Y-92190476D01*
X106349404Y-92238095D01*
X105158928Y-91952380D02*
X105063690Y-91952380D01*
X104968452Y-92000000D01*
X104920833Y-92047619D01*
X104873214Y-92142857D01*
X104825595Y-92333333D01*
X104825595Y-92571428D01*
X104873214Y-92761904D01*
X104920833Y-92857142D01*
X104968452Y-92904761D01*
X105063690Y-92952380D01*
X105158928Y-92952380D01*
X105254166Y-92904761D01*
X105301785Y-92857142D01*
X105349404Y-92761904D01*
X105397023Y-92571428D01*
X105397023Y-92333333D01*
X105349404Y-92142857D01*
X105301785Y-92047619D01*
X105254166Y-92000000D01*
X105158928Y-91952380D01*
X106825595Y-73902380D02*
X106825595Y-72902380D01*
X106254166Y-73902380D02*
X106682738Y-73330952D01*
X106254166Y-72902380D02*
X106825595Y-73473809D01*
X105777976Y-73902380D02*
X105587500Y-73902380D01*
X105492261Y-73854761D01*
X105444642Y-73807142D01*
X105349404Y-73664285D01*
X105301785Y-73473809D01*
X105301785Y-73092857D01*
X105349404Y-72997619D01*
X105397023Y-72950000D01*
X105492261Y-72902380D01*
X105682738Y-72902380D01*
X105777976Y-72950000D01*
X105825595Y-72997619D01*
X105873214Y-73092857D01*
X105873214Y-73330952D01*
X105825595Y-73426190D01*
X105777976Y-73473809D01*
X105682738Y-73521428D01*
X105492261Y-73521428D01*
X105397023Y-73473809D01*
X105349404Y-73426190D01*
X105301785Y-73330952D01*
X87775595Y-73902380D02*
X87775595Y-72902380D01*
X87204166Y-73902380D02*
X87632738Y-73330952D01*
X87204166Y-72902380D02*
X87775595Y-73473809D01*
X86299404Y-72902380D02*
X86775595Y-72902380D01*
X86823214Y-73378571D01*
X86775595Y-73330952D01*
X86680357Y-73283333D01*
X86442261Y-73283333D01*
X86347023Y-73330952D01*
X86299404Y-73378571D01*
X86251785Y-73473809D01*
X86251785Y-73711904D01*
X86299404Y-73807142D01*
X86347023Y-73854761D01*
X86442261Y-73902380D01*
X86680357Y-73902380D01*
X86775595Y-73854761D01*
X86823214Y-73807142D01*
X240651785Y-92952380D02*
X240651785Y-91952380D01*
X240080357Y-92952380D02*
X240508928Y-92380952D01*
X240080357Y-91952380D02*
X240651785Y-92523809D01*
X239747023Y-91952380D02*
X239127976Y-91952380D01*
X239461309Y-92333333D01*
X239318452Y-92333333D01*
X239223214Y-92380952D01*
X239175595Y-92428571D01*
X239127976Y-92523809D01*
X239127976Y-92761904D01*
X239175595Y-92857142D01*
X239223214Y-92904761D01*
X239318452Y-92952380D01*
X239604166Y-92952380D01*
X239699404Y-92904761D01*
X239747023Y-92857142D01*
X238556547Y-92380952D02*
X238651785Y-92333333D01*
X238699404Y-92285714D01*
X238747023Y-92190476D01*
X238747023Y-92142857D01*
X238699404Y-92047619D01*
X238651785Y-92000000D01*
X238556547Y-91952380D01*
X238366071Y-91952380D01*
X238270833Y-92000000D01*
X238223214Y-92047619D01*
X238175595Y-92142857D01*
X238175595Y-92190476D01*
X238223214Y-92285714D01*
X238270833Y-92333333D01*
X238366071Y-92380952D01*
X238556547Y-92380952D01*
X238651785Y-92428571D01*
X238699404Y-92476190D01*
X238747023Y-92571428D01*
X238747023Y-92761904D01*
X238699404Y-92857142D01*
X238651785Y-92904761D01*
X238556547Y-92952380D01*
X238366071Y-92952380D01*
X238270833Y-92904761D01*
X238223214Y-92857142D01*
X238175595Y-92761904D01*
X238175595Y-92571428D01*
X238223214Y-92476190D01*
X238270833Y-92428571D01*
X238366071Y-92380952D01*
X221601785Y-131052380D02*
X221601785Y-130052380D01*
X221030357Y-131052380D02*
X221458928Y-130480952D01*
X221030357Y-130052380D02*
X221601785Y-130623809D01*
X220697023Y-130052380D02*
X220077976Y-130052380D01*
X220411309Y-130433333D01*
X220268452Y-130433333D01*
X220173214Y-130480952D01*
X220125595Y-130528571D01*
X220077976Y-130623809D01*
X220077976Y-130861904D01*
X220125595Y-130957142D01*
X220173214Y-131004761D01*
X220268452Y-131052380D01*
X220554166Y-131052380D01*
X220649404Y-131004761D01*
X220697023Y-130957142D01*
X219220833Y-130052380D02*
X219411309Y-130052380D01*
X219506547Y-130100000D01*
X219554166Y-130147619D01*
X219649404Y-130290476D01*
X219697023Y-130480952D01*
X219697023Y-130861904D01*
X219649404Y-130957142D01*
X219601785Y-131004761D01*
X219506547Y-131052380D01*
X219316071Y-131052380D01*
X219220833Y-131004761D01*
X219173214Y-130957142D01*
X219125595Y-130861904D01*
X219125595Y-130623809D01*
X219173214Y-130528571D01*
X219220833Y-130480952D01*
X219316071Y-130433333D01*
X219506547Y-130433333D01*
X219601785Y-130480952D01*
X219649404Y-130528571D01*
X219697023Y-130623809D01*
X202551785Y-112002380D02*
X202551785Y-111002380D01*
X201980357Y-112002380D02*
X202408928Y-111430952D01*
X201980357Y-111002380D02*
X202551785Y-111573809D01*
X201647023Y-111002380D02*
X201027976Y-111002380D01*
X201361309Y-111383333D01*
X201218452Y-111383333D01*
X201123214Y-111430952D01*
X201075595Y-111478571D01*
X201027976Y-111573809D01*
X201027976Y-111811904D01*
X201075595Y-111907142D01*
X201123214Y-111954761D01*
X201218452Y-112002380D01*
X201504166Y-112002380D01*
X201599404Y-111954761D01*
X201647023Y-111907142D01*
X200075595Y-112002380D02*
X200647023Y-112002380D01*
X200361309Y-112002380D02*
X200361309Y-111002380D01*
X200456547Y-111145238D01*
X200551785Y-111240476D01*
X200647023Y-111288095D01*
X192931547Y-130552380D02*
X193407738Y-130552380D01*
X193407738Y-129552380D01*
X192598214Y-130028571D02*
X192264880Y-130028571D01*
X192122023Y-130552380D02*
X192598214Y-130552380D01*
X192598214Y-129552380D01*
X192122023Y-129552380D01*
X191693452Y-130552380D02*
X191693452Y-129552380D01*
X191455357Y-129552380D01*
X191312500Y-129600000D01*
X191217261Y-129695238D01*
X191169642Y-129790476D01*
X191122023Y-129980952D01*
X191122023Y-130123809D01*
X191169642Y-130314285D01*
X191217261Y-130409523D01*
X191312500Y-130504761D01*
X191455357Y-130552380D01*
X191693452Y-130552380D01*
X190788690Y-129552380D02*
X190122023Y-129552380D01*
X190550595Y-130552380D01*
X116681547Y-130552380D02*
X117157738Y-130552380D01*
X117157738Y-129552380D01*
X116348214Y-130028571D02*
X116014880Y-130028571D01*
X115872023Y-130552380D02*
X116348214Y-130552380D01*
X116348214Y-129552380D01*
X115872023Y-129552380D01*
X115443452Y-130552380D02*
X115443452Y-129552380D01*
X115205357Y-129552380D01*
X115062500Y-129600000D01*
X114967261Y-129695238D01*
X114919642Y-129790476D01*
X114872023Y-129980952D01*
X114872023Y-130123809D01*
X114919642Y-130314285D01*
X114967261Y-130409523D01*
X115062500Y-130504761D01*
X115205357Y-130552380D01*
X115443452Y-130552380D01*
X114395833Y-130552380D02*
X114205357Y-130552380D01*
X114110119Y-130504761D01*
X114062500Y-130457142D01*
X113967261Y-130314285D01*
X113919642Y-130123809D01*
X113919642Y-129742857D01*
X113967261Y-129647619D01*
X114014880Y-129600000D01*
X114110119Y-129552380D01*
X114300595Y-129552380D01*
X114395833Y-129600000D01*
X114443452Y-129647619D01*
X114491071Y-129742857D01*
X114491071Y-129980952D01*
X114443452Y-130076190D01*
X114395833Y-130123809D01*
X114300595Y-130171428D01*
X114110119Y-130171428D01*
X114014880Y-130123809D01*
X113967261Y-130076190D01*
X113919642Y-129980952D01*
X231056547Y-130552380D02*
X231532738Y-130552380D01*
X231532738Y-129552380D01*
X230723214Y-130028571D02*
X230389880Y-130028571D01*
X230247023Y-130552380D02*
X230723214Y-130552380D01*
X230723214Y-129552380D01*
X230247023Y-129552380D01*
X229818452Y-130552380D02*
X229818452Y-129552380D01*
X229580357Y-129552380D01*
X229437500Y-129600000D01*
X229342261Y-129695238D01*
X229294642Y-129790476D01*
X229247023Y-129980952D01*
X229247023Y-130123809D01*
X229294642Y-130314285D01*
X229342261Y-130409523D01*
X229437500Y-130504761D01*
X229580357Y-130552380D01*
X229818452Y-130552380D01*
X228389880Y-129552380D02*
X228580357Y-129552380D01*
X228675595Y-129600000D01*
X228723214Y-129647619D01*
X228818452Y-129790476D01*
X228866071Y-129980952D01*
X228866071Y-130361904D01*
X228818452Y-130457142D01*
X228770833Y-130504761D01*
X228675595Y-130552380D01*
X228485119Y-130552380D01*
X228389880Y-130504761D01*
X228342261Y-130457142D01*
X228294642Y-130361904D01*
X228294642Y-130123809D01*
X228342261Y-130028571D01*
X228389880Y-129980952D01*
X228485119Y-129933333D01*
X228675595Y-129933333D01*
X228770833Y-129980952D01*
X228818452Y-130028571D01*
X228866071Y-130123809D01*
X231056547Y-85552380D02*
X231532738Y-85552380D01*
X231532738Y-84552380D01*
X230723214Y-85028571D02*
X230389880Y-85028571D01*
X230247023Y-85552380D02*
X230723214Y-85552380D01*
X230723214Y-84552380D01*
X230247023Y-84552380D01*
X229818452Y-85552380D02*
X229818452Y-84552380D01*
X229580357Y-84552380D01*
X229437500Y-84600000D01*
X229342261Y-84695238D01*
X229294642Y-84790476D01*
X229247023Y-84980952D01*
X229247023Y-85123809D01*
X229294642Y-85314285D01*
X229342261Y-85409523D01*
X229437500Y-85504761D01*
X229580357Y-85552380D01*
X229818452Y-85552380D01*
X228342261Y-84552380D02*
X228818452Y-84552380D01*
X228866071Y-85028571D01*
X228818452Y-84980952D01*
X228723214Y-84933333D01*
X228485119Y-84933333D01*
X228389880Y-84980952D01*
X228342261Y-85028571D01*
X228294642Y-85123809D01*
X228294642Y-85361904D01*
X228342261Y-85457142D01*
X228389880Y-85504761D01*
X228485119Y-85552380D01*
X228723214Y-85552380D01*
X228818452Y-85504761D01*
X228866071Y-85457142D01*
X79032738Y-130552380D02*
X79508928Y-130552380D01*
X79508928Y-129552380D01*
X78699404Y-130028571D02*
X78366071Y-130028571D01*
X78223214Y-130552380D02*
X78699404Y-130552380D01*
X78699404Y-129552380D01*
X78223214Y-129552380D01*
X77794642Y-130552380D02*
X77794642Y-129552380D01*
X77556547Y-129552380D01*
X77413690Y-129600000D01*
X77318452Y-129695238D01*
X77270833Y-129790476D01*
X77223214Y-129980952D01*
X77223214Y-130123809D01*
X77270833Y-130314285D01*
X77318452Y-130409523D01*
X77413690Y-130504761D01*
X77556547Y-130552380D01*
X77794642Y-130552380D01*
X76270833Y-130552380D02*
X76842261Y-130552380D01*
X76556547Y-130552380D02*
X76556547Y-129552380D01*
X76651785Y-129695238D01*
X76747023Y-129790476D01*
X76842261Y-129838095D01*
X75651785Y-129552380D02*
X75556547Y-129552380D01*
X75461309Y-129600000D01*
X75413690Y-129647619D01*
X75366071Y-129742857D01*
X75318452Y-129933333D01*
X75318452Y-130171428D01*
X75366071Y-130361904D01*
X75413690Y-130457142D01*
X75461309Y-130504761D01*
X75556547Y-130552380D01*
X75651785Y-130552380D01*
X75747023Y-130504761D01*
X75794642Y-130457142D01*
X75842261Y-130361904D01*
X75889880Y-130171428D01*
X75889880Y-129933333D01*
X75842261Y-129742857D01*
X75794642Y-129647619D01*
X75747023Y-129600000D01*
X75651785Y-129552380D01*
X154806547Y-130552380D02*
X155282738Y-130552380D01*
X155282738Y-129552380D01*
X154473214Y-130028571D02*
X154139880Y-130028571D01*
X153997023Y-130552380D02*
X154473214Y-130552380D01*
X154473214Y-129552380D01*
X153997023Y-129552380D01*
X153568452Y-130552380D02*
X153568452Y-129552380D01*
X153330357Y-129552380D01*
X153187500Y-129600000D01*
X153092261Y-129695238D01*
X153044642Y-129790476D01*
X152997023Y-129980952D01*
X152997023Y-130123809D01*
X153044642Y-130314285D01*
X153092261Y-130409523D01*
X153187500Y-130504761D01*
X153330357Y-130552380D01*
X153568452Y-130552380D01*
X152425595Y-129980952D02*
X152520833Y-129933333D01*
X152568452Y-129885714D01*
X152616071Y-129790476D01*
X152616071Y-129742857D01*
X152568452Y-129647619D01*
X152520833Y-129600000D01*
X152425595Y-129552380D01*
X152235119Y-129552380D01*
X152139880Y-129600000D01*
X152092261Y-129647619D01*
X152044642Y-129742857D01*
X152044642Y-129790476D01*
X152092261Y-129885714D01*
X152139880Y-129933333D01*
X152235119Y-129980952D01*
X152425595Y-129980952D01*
X152520833Y-130028571D01*
X152568452Y-130076190D01*
X152616071Y-130171428D01*
X152616071Y-130361904D01*
X152568452Y-130457142D01*
X152520833Y-130504761D01*
X152425595Y-130552380D01*
X152235119Y-130552380D01*
X152139880Y-130504761D01*
X152092261Y-130457142D01*
X152044642Y-130361904D01*
X152044642Y-130171428D01*
X152092261Y-130076190D01*
X152139880Y-130028571D01*
X152235119Y-129980952D01*
X154806547Y-85552380D02*
X155282738Y-85552380D01*
X155282738Y-84552380D01*
X154473214Y-85028571D02*
X154139880Y-85028571D01*
X153997023Y-85552380D02*
X154473214Y-85552380D01*
X154473214Y-84552380D01*
X153997023Y-84552380D01*
X153568452Y-85552380D02*
X153568452Y-84552380D01*
X153330357Y-84552380D01*
X153187500Y-84600000D01*
X153092261Y-84695238D01*
X153044642Y-84790476D01*
X152997023Y-84980952D01*
X152997023Y-85123809D01*
X153044642Y-85314285D01*
X153092261Y-85409523D01*
X153187500Y-85504761D01*
X153330357Y-85552380D01*
X153568452Y-85552380D01*
X152663690Y-84552380D02*
X152044642Y-84552380D01*
X152377976Y-84933333D01*
X152235119Y-84933333D01*
X152139880Y-84980952D01*
X152092261Y-85028571D01*
X152044642Y-85123809D01*
X152044642Y-85361904D01*
X152092261Y-85457142D01*
X152139880Y-85504761D01*
X152235119Y-85552380D01*
X152520833Y-85552380D01*
X152616071Y-85504761D01*
X152663690Y-85457142D01*
X90842261Y-51516666D02*
X90889880Y-51659523D01*
X90889880Y-51897619D01*
X90842261Y-51992857D01*
X90794642Y-52040476D01*
X90699404Y-52088095D01*
X90604166Y-52088095D01*
X90508928Y-52040476D01*
X90461309Y-51992857D01*
X90413690Y-51897619D01*
X90366071Y-51707142D01*
X90318452Y-51611904D01*
X90270833Y-51564285D01*
X90175595Y-51516666D01*
X90080357Y-51516666D01*
X89985119Y-51564285D01*
X89937500Y-51611904D01*
X89889880Y-51707142D01*
X89889880Y-51945238D01*
X89937500Y-52088095D01*
X89889880Y-52421428D02*
X90889880Y-52659523D01*
X90175595Y-52850000D01*
X90889880Y-53040476D01*
X89889880Y-53278571D01*
X90889880Y-54183333D02*
X90889880Y-53611904D01*
X90889880Y-53897619D02*
X89889880Y-53897619D01*
X90032738Y-53802380D01*
X90127976Y-53707142D01*
X90175595Y-53611904D01*
X116681547Y-85552380D02*
X117157738Y-85552380D01*
X117157738Y-84552380D01*
X116348214Y-85028571D02*
X116014880Y-85028571D01*
X115872023Y-85552380D02*
X116348214Y-85552380D01*
X116348214Y-84552380D01*
X115872023Y-84552380D01*
X115443452Y-85552380D02*
X115443452Y-84552380D01*
X115205357Y-84552380D01*
X115062500Y-84600000D01*
X114967261Y-84695238D01*
X114919642Y-84790476D01*
X114872023Y-84980952D01*
X114872023Y-85123809D01*
X114919642Y-85314285D01*
X114967261Y-85409523D01*
X115062500Y-85504761D01*
X115205357Y-85552380D01*
X115443452Y-85552380D01*
X114491071Y-84647619D02*
X114443452Y-84600000D01*
X114348214Y-84552380D01*
X114110119Y-84552380D01*
X114014880Y-84600000D01*
X113967261Y-84647619D01*
X113919642Y-84742857D01*
X113919642Y-84838095D01*
X113967261Y-84980952D01*
X114538690Y-85552380D01*
X113919642Y-85552380D01*
X78556547Y-85552380D02*
X79032738Y-85552380D01*
X79032738Y-84552380D01*
X78223214Y-85028571D02*
X77889880Y-85028571D01*
X77747023Y-85552380D02*
X78223214Y-85552380D01*
X78223214Y-84552380D01*
X77747023Y-84552380D01*
X77318452Y-85552380D02*
X77318452Y-84552380D01*
X77080357Y-84552380D01*
X76937500Y-84600000D01*
X76842261Y-84695238D01*
X76794642Y-84790476D01*
X76747023Y-84980952D01*
X76747023Y-85123809D01*
X76794642Y-85314285D01*
X76842261Y-85409523D01*
X76937500Y-85504761D01*
X77080357Y-85552380D01*
X77318452Y-85552380D01*
X75794642Y-85552380D02*
X76366071Y-85552380D01*
X76080357Y-85552380D02*
X76080357Y-84552380D01*
X76175595Y-84695238D01*
X76270833Y-84790476D01*
X76366071Y-84838095D01*
X192931547Y-85552380D02*
X193407738Y-85552380D01*
X193407738Y-84552380D01*
X192598214Y-85028571D02*
X192264880Y-85028571D01*
X192122023Y-85552380D02*
X192598214Y-85552380D01*
X192598214Y-84552380D01*
X192122023Y-84552380D01*
X191693452Y-85552380D02*
X191693452Y-84552380D01*
X191455357Y-84552380D01*
X191312500Y-84600000D01*
X191217261Y-84695238D01*
X191169642Y-84790476D01*
X191122023Y-84980952D01*
X191122023Y-85123809D01*
X191169642Y-85314285D01*
X191217261Y-85409523D01*
X191312500Y-85504761D01*
X191455357Y-85552380D01*
X191693452Y-85552380D01*
X190264880Y-84885714D02*
X190264880Y-85552380D01*
X190502976Y-84504761D02*
X190741071Y-85219047D01*
X190122023Y-85219047D01*
X69487500Y-99200000D02*
X66987500Y-99200000D01*
X69987500Y-103200000D02*
X69487500Y-103700000D01*
X66487500Y-103700000D02*
X65987500Y-103200000D01*
X60987500Y-97000000D02*
X60987500Y-97500000D01*
X60987500Y-101100000D02*
X60987500Y-101700000D01*
X60987500Y-101700000D02*
X65487500Y-101700000D01*
X65487500Y-97000000D02*
X60987500Y-97000000D01*
X65987500Y-102200000D02*
X65987500Y-103200000D01*
X69987500Y-99700000D02*
X69487500Y-99200000D01*
X69487500Y-103700000D02*
X66487500Y-103700000D01*
X65487500Y-97700000D02*
X65487500Y-97000000D01*
X65987500Y-102200000D02*
G75*
G03*
X65487500Y-101700000I-500001J-1D01*
G01*
X65487500Y-97700000D02*
G75*
G03*
X66987500Y-99200000I1500001J1D01*
G01*
X184287500Y-122250000D02*
X183787500Y-122750000D01*
X179787500Y-116750000D02*
X179787500Y-116050000D01*
X180287500Y-121250000D02*
X180287500Y-122250000D01*
X184287500Y-118750000D02*
X183787500Y-118250000D01*
X175287500Y-116050000D02*
X175287500Y-116550000D01*
X183787500Y-118250000D02*
X181287500Y-118250000D01*
X175287500Y-120750000D02*
X179787500Y-120750000D01*
X179787500Y-116050000D02*
X175287500Y-116050000D01*
X180787500Y-122750000D02*
X180287500Y-122250000D01*
X183787500Y-122750000D02*
X180787500Y-122750000D01*
X175287500Y-120150000D02*
X175287500Y-120750000D01*
X180287500Y-121250000D02*
G75*
G03*
X179787500Y-120750000I-500001J-1D01*
G01*
X179787500Y-116750000D02*
G75*
G03*
X181287500Y-118250000I1500001J1D01*
G01*
X141687500Y-135100000D02*
X137187500Y-135100000D01*
X142187500Y-140300000D02*
X142187500Y-141300000D01*
X137187500Y-135100000D02*
X137187500Y-135600000D01*
X141687500Y-135800000D02*
X141687500Y-135100000D01*
X137187500Y-139800000D02*
X141687500Y-139800000D01*
X145687500Y-137300000D02*
X143187500Y-137300000D01*
X145687500Y-141800000D02*
X142687500Y-141800000D01*
X146187500Y-137800000D02*
X145687500Y-137300000D01*
X142687500Y-141800000D02*
X142187500Y-141300000D01*
X137187500Y-139200000D02*
X137187500Y-139800000D01*
X146187500Y-141300000D02*
X145687500Y-141800000D01*
X142187500Y-140300000D02*
G75*
G03*
X141687500Y-139800000I-500001J-1D01*
G01*
X141687500Y-135800000D02*
G75*
G03*
X143187500Y-137300000I1500001J1D01*
G01*
X126637500Y-122750000D02*
X123637500Y-122750000D01*
X127137500Y-122250000D02*
X126637500Y-122750000D01*
X127137500Y-118750000D02*
X126637500Y-118250000D01*
X118137500Y-116050000D02*
X118137500Y-116550000D01*
X118137500Y-120750000D02*
X122637500Y-120750000D01*
X122637500Y-116750000D02*
X122637500Y-116050000D01*
X122637500Y-116050000D02*
X118137500Y-116050000D01*
X126637500Y-118250000D02*
X124137500Y-118250000D01*
X118137500Y-120150000D02*
X118137500Y-120750000D01*
X123637500Y-122750000D02*
X123137500Y-122250000D01*
X123137500Y-121250000D02*
X123137500Y-122250000D01*
X122637500Y-116750000D02*
G75*
G03*
X124137500Y-118250000I1500001J1D01*
G01*
X123137500Y-121250000D02*
G75*
G03*
X122637500Y-120750000I-500001J-1D01*
G01*
X180287500Y-102200000D02*
X180287500Y-103200000D01*
X184287500Y-103200000D02*
X183787500Y-103700000D01*
X175287500Y-101100000D02*
X175287500Y-101700000D01*
X179787500Y-97000000D02*
X175287500Y-97000000D01*
X183787500Y-103700000D02*
X180787500Y-103700000D01*
X179787500Y-97700000D02*
X179787500Y-97000000D01*
X175287500Y-97000000D02*
X175287500Y-97500000D01*
X180787500Y-103700000D02*
X180287500Y-103200000D01*
X184287500Y-99700000D02*
X183787500Y-99200000D01*
X183787500Y-99200000D02*
X181287500Y-99200000D01*
X175287500Y-101700000D02*
X179787500Y-101700000D01*
X179787500Y-97700000D02*
G75*
G03*
X181287500Y-99200000I1500001J1D01*
G01*
X180287500Y-102200000D02*
G75*
G03*
X179787500Y-101700000I-500001J-1D01*
G01*
X80037500Y-139800000D02*
X84537500Y-139800000D01*
X85037500Y-140300000D02*
X85037500Y-141300000D01*
X85537500Y-141800000D02*
X85037500Y-141300000D01*
X88537500Y-137300000D02*
X86037500Y-137300000D01*
X84537500Y-135100000D02*
X80037500Y-135100000D01*
X80037500Y-139200000D02*
X80037500Y-139800000D01*
X80037500Y-135100000D02*
X80037500Y-135600000D01*
X88537500Y-141800000D02*
X85537500Y-141800000D01*
X89037500Y-141300000D02*
X88537500Y-141800000D01*
X84537500Y-135800000D02*
X84537500Y-135100000D01*
X89037500Y-137800000D02*
X88537500Y-137300000D01*
X84537500Y-135800000D02*
G75*
G03*
X86037500Y-137300000I1500001J1D01*
G01*
X85037500Y-140300000D02*
G75*
G03*
X84537500Y-139800000I-500001J-1D01*
G01*
X232437500Y-116050000D02*
X232437500Y-116550000D01*
X241437500Y-122250000D02*
X240937500Y-122750000D01*
X241437500Y-118750000D02*
X240937500Y-118250000D01*
X237937500Y-122750000D02*
X237437500Y-122250000D01*
X232437500Y-120750000D02*
X236937500Y-120750000D01*
X232437500Y-120150000D02*
X232437500Y-120750000D01*
X240937500Y-122750000D02*
X237937500Y-122750000D01*
X237437500Y-121250000D02*
X237437500Y-122250000D01*
X236937500Y-116050000D02*
X232437500Y-116050000D01*
X236937500Y-116750000D02*
X236937500Y-116050000D01*
X240937500Y-118250000D02*
X238437500Y-118250000D01*
X237437500Y-121250000D02*
G75*
G03*
X236937500Y-120750000I-500001J-1D01*
G01*
X236937500Y-116750000D02*
G75*
G03*
X238437500Y-118250000I1500001J1D01*
G01*
X118137500Y-139200000D02*
X118137500Y-139800000D01*
X122637500Y-135800000D02*
X122637500Y-135100000D01*
X126637500Y-137300000D02*
X124137500Y-137300000D01*
X127137500Y-141300000D02*
X126637500Y-141800000D01*
X126637500Y-141800000D02*
X123637500Y-141800000D01*
X122637500Y-135100000D02*
X118137500Y-135100000D01*
X118137500Y-139800000D02*
X122637500Y-139800000D01*
X118137500Y-135100000D02*
X118137500Y-135600000D01*
X123637500Y-141800000D02*
X123137500Y-141300000D01*
X127137500Y-137800000D02*
X126637500Y-137300000D01*
X123137500Y-140300000D02*
X123137500Y-141300000D01*
X122637500Y-135800000D02*
G75*
G03*
X124137500Y-137300000I1500001J1D01*
G01*
X123137500Y-140300000D02*
G75*
G03*
X122637500Y-139800000I-500001J-1D01*
G01*
X217887500Y-77950000D02*
X213387500Y-77950000D01*
X213387500Y-77950000D02*
X213387500Y-78450000D01*
X222387500Y-84150000D02*
X221887500Y-84650000D01*
X217887500Y-78650000D02*
X217887500Y-77950000D01*
X218887500Y-84650000D02*
X218387500Y-84150000D01*
X213387500Y-82650000D02*
X217887500Y-82650000D01*
X221887500Y-80150000D02*
X219387500Y-80150000D01*
X218387500Y-83150000D02*
X218387500Y-84150000D01*
X222387500Y-80650000D02*
X221887500Y-80150000D01*
X213387500Y-82050000D02*
X213387500Y-82650000D01*
X221887500Y-84650000D02*
X218887500Y-84650000D01*
X217887500Y-78650000D02*
G75*
G03*
X219387500Y-80150000I1500001J1D01*
G01*
X218387500Y-83150000D02*
G75*
G03*
X217887500Y-82650000I-500001J-1D01*
G01*
X156237500Y-82650000D02*
X160737500Y-82650000D01*
X160737500Y-78650000D02*
X160737500Y-77950000D01*
X161737500Y-84650000D02*
X161237500Y-84150000D01*
X164737500Y-84650000D02*
X161737500Y-84650000D01*
X164737500Y-80150000D02*
X162237500Y-80150000D01*
X156237500Y-77950000D02*
X156237500Y-78450000D01*
X161237500Y-83150000D02*
X161237500Y-84150000D01*
X156237500Y-82050000D02*
X156237500Y-82650000D01*
X165237500Y-80650000D02*
X164737500Y-80150000D01*
X165237500Y-84150000D02*
X164737500Y-84650000D01*
X160737500Y-77950000D02*
X156237500Y-77950000D01*
X161237500Y-83150000D02*
G75*
G03*
X160737500Y-82650000I-500001J-1D01*
G01*
X160737500Y-78650000D02*
G75*
G03*
X162237500Y-80150000I1500001J1D01*
G01*
X175287500Y-139800000D02*
X179787500Y-139800000D01*
X175287500Y-139200000D02*
X175287500Y-139800000D01*
X184287500Y-141300000D02*
X183787500Y-141800000D01*
X180287500Y-140300000D02*
X180287500Y-141300000D01*
X183787500Y-141800000D02*
X180787500Y-141800000D01*
X184287500Y-137800000D02*
X183787500Y-137300000D01*
X180787500Y-141800000D02*
X180287500Y-141300000D01*
X179787500Y-135100000D02*
X175287500Y-135100000D01*
X183787500Y-137300000D02*
X181287500Y-137300000D01*
X175287500Y-135100000D02*
X175287500Y-135600000D01*
X179787500Y-135800000D02*
X179787500Y-135100000D01*
X180287500Y-140300000D02*
G75*
G03*
X179787500Y-139800000I-500001J-1D01*
G01*
X179787500Y-135800000D02*
G75*
G03*
X181287500Y-137300000I1500001J1D01*
G01*
X198837500Y-77950000D02*
X194337500Y-77950000D01*
X203337500Y-84150000D02*
X202837500Y-84650000D01*
X202837500Y-84650000D02*
X199837500Y-84650000D01*
X203337500Y-80650000D02*
X202837500Y-80150000D01*
X199337500Y-83150000D02*
X199337500Y-84150000D01*
X194337500Y-82050000D02*
X194337500Y-82650000D01*
X202837500Y-80150000D02*
X200337500Y-80150000D01*
X198837500Y-78650000D02*
X198837500Y-77950000D01*
X194337500Y-82650000D02*
X198837500Y-82650000D01*
X194337500Y-77950000D02*
X194337500Y-78450000D01*
X199837500Y-84650000D02*
X199337500Y-84150000D01*
X198837500Y-78650000D02*
G75*
G03*
X200337500Y-80150000I1500001J1D01*
G01*
X199337500Y-83150000D02*
G75*
G03*
X198837500Y-82650000I-500001J-1D01*
G01*
X69487500Y-122750000D02*
X66487500Y-122750000D01*
X69987500Y-122250000D02*
X69487500Y-122750000D01*
X65987500Y-121250000D02*
X65987500Y-122250000D01*
X60987500Y-120750000D02*
X65487500Y-120750000D01*
X60987500Y-116050000D02*
X60987500Y-116550000D01*
X60987500Y-120150000D02*
X60987500Y-120750000D01*
X65487500Y-116750000D02*
X65487500Y-116050000D01*
X65487500Y-116050000D02*
X60987500Y-116050000D01*
X69487500Y-118250000D02*
X66987500Y-118250000D01*
X69987500Y-118750000D02*
X69487500Y-118250000D01*
X66487500Y-122750000D02*
X65987500Y-122250000D01*
X65487500Y-116750000D02*
G75*
G03*
X66987500Y-118250000I1500001J1D01*
G01*
X65987500Y-121250000D02*
G75*
G03*
X65487500Y-120750000I-500001J-1D01*
G01*
X164737500Y-99200000D02*
X162237500Y-99200000D01*
X164737500Y-103700000D02*
X161737500Y-103700000D01*
X160737500Y-97700000D02*
X160737500Y-97000000D01*
X161237500Y-102200000D02*
X161237500Y-103200000D01*
X165237500Y-99700000D02*
X164737500Y-99200000D01*
X156237500Y-101100000D02*
X156237500Y-101700000D01*
X156237500Y-101700000D02*
X160737500Y-101700000D01*
X160737500Y-97000000D02*
X156237500Y-97000000D01*
X156237500Y-97000000D02*
X156237500Y-97500000D01*
X165237500Y-103200000D02*
X164737500Y-103700000D01*
X161737500Y-103700000D02*
X161237500Y-103200000D01*
X160737500Y-97700000D02*
G75*
G03*
X162237500Y-99200000I1500001J1D01*
G01*
X161237500Y-102200000D02*
G75*
G03*
X160737500Y-101700000I-500001J-1D01*
G01*
X194337500Y-139200000D02*
X194337500Y-139800000D01*
X202837500Y-137300000D02*
X200337500Y-137300000D01*
X198837500Y-135800000D02*
X198837500Y-135100000D01*
X194337500Y-135100000D02*
X194337500Y-135600000D01*
X202837500Y-141800000D02*
X199837500Y-141800000D01*
X194337500Y-139800000D02*
X198837500Y-139800000D01*
X199337500Y-140300000D02*
X199337500Y-141300000D01*
X203337500Y-137800000D02*
X202837500Y-137300000D01*
X199837500Y-141800000D02*
X199337500Y-141300000D01*
X198837500Y-135100000D02*
X194337500Y-135100000D01*
X203337500Y-141300000D02*
X202837500Y-141800000D01*
X199337500Y-140300000D02*
G75*
G03*
X198837500Y-139800000I-500001J-1D01*
G01*
X198837500Y-135800000D02*
G75*
G03*
X200337500Y-137300000I1500001J1D01*
G01*
X194337500Y-101100000D02*
X194337500Y-101700000D01*
X202837500Y-103700000D02*
X199837500Y-103700000D01*
X203337500Y-99700000D02*
X202837500Y-99200000D01*
X199837500Y-103700000D02*
X199337500Y-103200000D01*
X198837500Y-97700000D02*
X198837500Y-97000000D01*
X199337500Y-102200000D02*
X199337500Y-103200000D01*
X194337500Y-101700000D02*
X198837500Y-101700000D01*
X198837500Y-97000000D02*
X194337500Y-97000000D01*
X202837500Y-99200000D02*
X200337500Y-99200000D01*
X203337500Y-103200000D02*
X202837500Y-103700000D01*
X194337500Y-97000000D02*
X194337500Y-97500000D01*
X199337500Y-102200000D02*
G75*
G03*
X198837500Y-101700000I-500001J-1D01*
G01*
X198837500Y-97700000D02*
G75*
G03*
X200337500Y-99200000I1500001J1D01*
G01*
X122637500Y-77950000D02*
X118137500Y-77950000D01*
X118137500Y-82050000D02*
X118137500Y-82650000D01*
X127137500Y-84150000D02*
X126637500Y-84650000D01*
X118137500Y-77950000D02*
X118137500Y-78450000D01*
X118137500Y-82650000D02*
X122637500Y-82650000D01*
X123137500Y-83150000D02*
X123137500Y-84150000D01*
X126637500Y-84650000D02*
X123637500Y-84650000D01*
X127137500Y-80650000D02*
X126637500Y-80150000D01*
X123637500Y-84650000D02*
X123137500Y-84150000D01*
X126637500Y-80150000D02*
X124137500Y-80150000D01*
X122637500Y-78650000D02*
X122637500Y-77950000D01*
X123137500Y-83150000D02*
G75*
G03*
X122637500Y-82650000I-500001J-1D01*
G01*
X122637500Y-78650000D02*
G75*
G03*
X124137500Y-80150000I1500001J1D01*
G01*
X103587500Y-135800000D02*
X103587500Y-135100000D01*
X99087500Y-135100000D02*
X99087500Y-135600000D01*
X108087500Y-141300000D02*
X107587500Y-141800000D01*
X99087500Y-139800000D02*
X103587500Y-139800000D01*
X104587500Y-141800000D02*
X104087500Y-141300000D01*
X108087500Y-137800000D02*
X107587500Y-137300000D01*
X104087500Y-140300000D02*
X104087500Y-141300000D01*
X99087500Y-139200000D02*
X99087500Y-139800000D01*
X107587500Y-137300000D02*
X105087500Y-137300000D01*
X103587500Y-135100000D02*
X99087500Y-135100000D01*
X107587500Y-141800000D02*
X104587500Y-141800000D01*
X103587500Y-135800000D02*
G75*
G03*
X105087500Y-137300000I1500001J1D01*
G01*
X104087500Y-140300000D02*
G75*
G03*
X103587500Y-139800000I-500001J-1D01*
G01*
X237437500Y-140300000D02*
X237437500Y-141300000D01*
X241437500Y-141300000D02*
X240937500Y-141800000D01*
X236937500Y-135100000D02*
X232437500Y-135100000D01*
X232437500Y-139800000D02*
X236937500Y-139800000D01*
X232437500Y-135100000D02*
X232437500Y-135600000D01*
X232437500Y-139200000D02*
X232437500Y-139800000D01*
X241437500Y-137800000D02*
X240937500Y-137300000D01*
X236937500Y-135800000D02*
X236937500Y-135100000D01*
X240937500Y-137300000D02*
X238437500Y-137300000D01*
X237937500Y-141800000D02*
X237437500Y-141300000D01*
X240937500Y-141800000D02*
X237937500Y-141800000D01*
X237437500Y-140300000D02*
G75*
G03*
X236937500Y-139800000I-500001J-1D01*
G01*
X236937500Y-135800000D02*
G75*
G03*
X238437500Y-137300000I1500001J1D01*
G01*
X141687500Y-97700000D02*
X141687500Y-97000000D01*
X145687500Y-103700000D02*
X142687500Y-103700000D01*
X141687500Y-97000000D02*
X137187500Y-97000000D01*
X145687500Y-99200000D02*
X143187500Y-99200000D01*
X146187500Y-99700000D02*
X145687500Y-99200000D01*
X137187500Y-97000000D02*
X137187500Y-97500000D01*
X137187500Y-101100000D02*
X137187500Y-101700000D01*
X146187500Y-103200000D02*
X145687500Y-103700000D01*
X137187500Y-101700000D02*
X141687500Y-101700000D01*
X142687500Y-103700000D02*
X142187500Y-103200000D01*
X142187500Y-102200000D02*
X142187500Y-103200000D01*
X141687500Y-97700000D02*
G75*
G03*
X143187500Y-99200000I1500001J1D01*
G01*
X142187500Y-102200000D02*
G75*
G03*
X141687500Y-101700000I-500001J-1D01*
G01*
X141687500Y-77950000D02*
X137187500Y-77950000D01*
X137187500Y-77950000D02*
X137187500Y-78450000D01*
X145687500Y-84650000D02*
X142687500Y-84650000D01*
X142187500Y-83150000D02*
X142187500Y-84150000D01*
X146187500Y-80650000D02*
X145687500Y-80150000D01*
X146187500Y-84150000D02*
X145687500Y-84650000D01*
X137187500Y-82650000D02*
X141687500Y-82650000D01*
X137187500Y-82050000D02*
X137187500Y-82650000D01*
X142687500Y-84650000D02*
X142187500Y-84150000D01*
X141687500Y-78650000D02*
X141687500Y-77950000D01*
X145687500Y-80150000D02*
X143187500Y-80150000D01*
X142187500Y-83150000D02*
G75*
G03*
X141687500Y-82650000I-500001J-1D01*
G01*
X141687500Y-78650000D02*
G75*
G03*
X143187500Y-80150000I1500001J1D01*
G01*
X108087500Y-122250000D02*
X107587500Y-122750000D01*
X99087500Y-120150000D02*
X99087500Y-120750000D01*
X104087500Y-121250000D02*
X104087500Y-122250000D01*
X104587500Y-122750000D02*
X104087500Y-122250000D01*
X107587500Y-122750000D02*
X104587500Y-122750000D01*
X103587500Y-116750000D02*
X103587500Y-116050000D01*
X99087500Y-116050000D02*
X99087500Y-116550000D01*
X108087500Y-118750000D02*
X107587500Y-118250000D01*
X103587500Y-116050000D02*
X99087500Y-116050000D01*
X99087500Y-120750000D02*
X103587500Y-120750000D01*
X107587500Y-118250000D02*
X105087500Y-118250000D01*
X103587500Y-116750000D02*
G75*
G03*
X105087500Y-118250000I1500001J1D01*
G01*
X104087500Y-121250000D02*
G75*
G03*
X103587500Y-120750000I-500001J-1D01*
G01*
X237437500Y-83150000D02*
X237437500Y-84150000D01*
X237937500Y-84650000D02*
X237437500Y-84150000D01*
X236937500Y-77950000D02*
X232437500Y-77950000D01*
X232437500Y-82650000D02*
X236937500Y-82650000D01*
X240937500Y-84650000D02*
X237937500Y-84650000D01*
X241437500Y-80650000D02*
X240937500Y-80150000D01*
X232437500Y-82050000D02*
X232437500Y-82650000D01*
X236937500Y-78650000D02*
X236937500Y-77950000D01*
X232437500Y-77950000D02*
X232437500Y-78450000D01*
X240937500Y-80150000D02*
X238437500Y-80150000D01*
X241437500Y-84150000D02*
X240937500Y-84650000D01*
X236937500Y-78650000D02*
G75*
G03*
X238437500Y-80150000I1500001J1D01*
G01*
X237437500Y-83150000D02*
G75*
G03*
X236937500Y-82650000I-500001J-1D01*
G01*
X88537500Y-103700000D02*
X85537500Y-103700000D01*
X89037500Y-99700000D02*
X88537500Y-99200000D01*
X80037500Y-101100000D02*
X80037500Y-101700000D01*
X85037500Y-102200000D02*
X85037500Y-103200000D01*
X84537500Y-97000000D02*
X80037500Y-97000000D01*
X80037500Y-101700000D02*
X84537500Y-101700000D01*
X84537500Y-97700000D02*
X84537500Y-97000000D01*
X88537500Y-99200000D02*
X86037500Y-99200000D01*
X85537500Y-103700000D02*
X85037500Y-103200000D01*
X89037500Y-103200000D02*
X88537500Y-103700000D01*
X80037500Y-97000000D02*
X80037500Y-97500000D01*
X85037500Y-102200000D02*
G75*
G03*
X84537500Y-101700000I-500001J-1D01*
G01*
X84537500Y-97700000D02*
G75*
G03*
X86037500Y-99200000I1500001J1D01*
G01*
X221887500Y-118250000D02*
X219387500Y-118250000D01*
X217887500Y-116050000D02*
X213387500Y-116050000D01*
X218887500Y-122750000D02*
X218387500Y-122250000D01*
X213387500Y-120150000D02*
X213387500Y-120750000D01*
X222387500Y-122250000D02*
X221887500Y-122750000D01*
X217887500Y-116750000D02*
X217887500Y-116050000D01*
X218387500Y-121250000D02*
X218387500Y-122250000D01*
X213387500Y-120750000D02*
X217887500Y-120750000D01*
X222387500Y-118750000D02*
X221887500Y-118250000D01*
X221887500Y-122750000D02*
X218887500Y-122750000D01*
X213387500Y-116050000D02*
X213387500Y-116550000D01*
X218387500Y-121250000D02*
G75*
G03*
X217887500Y-120750000I-500001J-1D01*
G01*
X217887500Y-116750000D02*
G75*
G03*
X219387500Y-118250000I1500001J1D01*
G01*
X142187500Y-121250000D02*
X142187500Y-122250000D01*
X137187500Y-120150000D02*
X137187500Y-120750000D01*
X141687500Y-116750000D02*
X141687500Y-116050000D01*
X145687500Y-122750000D02*
X142687500Y-122750000D01*
X145687500Y-118250000D02*
X143187500Y-118250000D01*
X146187500Y-122250000D02*
X145687500Y-122750000D01*
X141687500Y-116050000D02*
X137187500Y-116050000D01*
X137187500Y-116050000D02*
X137187500Y-116550000D01*
X146187500Y-118750000D02*
X145687500Y-118250000D01*
X137187500Y-120750000D02*
X141687500Y-120750000D01*
X142687500Y-122750000D02*
X142187500Y-122250000D01*
X141687500Y-116750000D02*
G75*
G03*
X143187500Y-118250000I1500001J1D01*
G01*
X142187500Y-121250000D02*
G75*
G03*
X141687500Y-120750000I-500001J-1D01*
G01*
X218387500Y-102200000D02*
X218387500Y-103200000D01*
X222387500Y-103200000D02*
X221887500Y-103700000D01*
X213387500Y-97000000D02*
X213387500Y-97500000D01*
X221887500Y-103700000D02*
X218887500Y-103700000D01*
X218887500Y-103700000D02*
X218387500Y-103200000D01*
X217887500Y-97700000D02*
X217887500Y-97000000D01*
X213387500Y-101700000D02*
X217887500Y-101700000D01*
X221887500Y-99200000D02*
X219387500Y-99200000D01*
X213387500Y-101100000D02*
X213387500Y-101700000D01*
X222387500Y-99700000D02*
X221887500Y-99200000D01*
X217887500Y-97000000D02*
X213387500Y-97000000D01*
X217887500Y-97700000D02*
G75*
G03*
X219387500Y-99200000I1500001J1D01*
G01*
X218387500Y-102200000D02*
G75*
G03*
X217887500Y-101700000I-500001J-1D01*
G01*
X65487500Y-135800000D02*
X65487500Y-135100000D01*
X69487500Y-141800000D02*
X66487500Y-141800000D01*
X60987500Y-139800000D02*
X65487500Y-139800000D01*
X69987500Y-137800000D02*
X69487500Y-137300000D01*
X65487500Y-135100000D02*
X60987500Y-135100000D01*
X65987500Y-140300000D02*
X65987500Y-141300000D01*
X69487500Y-137300000D02*
X66987500Y-137300000D01*
X60987500Y-135100000D02*
X60987500Y-135600000D01*
X60987500Y-139200000D02*
X60987500Y-139800000D01*
X69987500Y-141300000D02*
X69487500Y-141800000D01*
X66487500Y-141800000D02*
X65987500Y-141300000D01*
X65987500Y-140300000D02*
G75*
G03*
X65487500Y-139800000I-500001J-1D01*
G01*
X65487500Y-135800000D02*
G75*
G03*
X66987500Y-137300000I1500001J1D01*
G01*
X80037500Y-120150000D02*
X80037500Y-120750000D01*
X89037500Y-118750000D02*
X88537500Y-118250000D01*
X85037500Y-121250000D02*
X85037500Y-122250000D01*
X80037500Y-116050000D02*
X80037500Y-116550000D01*
X84537500Y-116750000D02*
X84537500Y-116050000D01*
X89037500Y-122250000D02*
X88537500Y-122750000D01*
X80037500Y-120750000D02*
X84537500Y-120750000D01*
X85537500Y-122750000D02*
X85037500Y-122250000D01*
X84537500Y-116050000D02*
X80037500Y-116050000D01*
X88537500Y-118250000D02*
X86037500Y-118250000D01*
X88537500Y-122750000D02*
X85537500Y-122750000D01*
X85037500Y-121250000D02*
G75*
G03*
X84537500Y-120750000I-500001J-1D01*
G01*
X84537500Y-116750000D02*
G75*
G03*
X86037500Y-118250000I1500001J1D01*
G01*
X69487500Y-84650000D02*
X66487500Y-84650000D01*
X69987500Y-80650000D02*
X69487500Y-80150000D01*
X60987500Y-82050000D02*
X60987500Y-82650000D01*
X69487500Y-80150000D02*
X66987500Y-80150000D01*
X65487500Y-77950000D02*
X60987500Y-77950000D01*
X60987500Y-82650000D02*
X65487500Y-82650000D01*
X69987500Y-84150000D02*
X69487500Y-84650000D01*
X66487500Y-84650000D02*
X65987500Y-84150000D01*
X65487500Y-78650000D02*
X65487500Y-77950000D01*
X60987500Y-77950000D02*
X60987500Y-78450000D01*
X65987500Y-83150000D02*
X65987500Y-84150000D01*
X65487500Y-78650000D02*
G75*
G03*
X66987500Y-80150000I1500001J1D01*
G01*
X65987500Y-83150000D02*
G75*
G03*
X65487500Y-82650000I-500001J-1D01*
G01*
X123637500Y-103700000D02*
X123137500Y-103200000D01*
X127137500Y-99700000D02*
X126637500Y-99200000D01*
X118137500Y-101100000D02*
X118137500Y-101700000D01*
X122637500Y-97000000D02*
X118137500Y-97000000D01*
X118137500Y-101700000D02*
X122637500Y-101700000D01*
X118137500Y-97000000D02*
X118137500Y-97500000D01*
X126637500Y-103700000D02*
X123637500Y-103700000D01*
X127137500Y-103200000D02*
X126637500Y-103700000D01*
X123137500Y-102200000D02*
X123137500Y-103200000D01*
X126637500Y-99200000D02*
X124137500Y-99200000D01*
X122637500Y-97700000D02*
X122637500Y-97000000D01*
X122637500Y-97700000D02*
G75*
G03*
X124137500Y-99200000I1500001J1D01*
G01*
X123137500Y-102200000D02*
G75*
G03*
X122637500Y-101700000I-500001J-1D01*
G01*
X156237500Y-139800000D02*
X160737500Y-139800000D01*
X165237500Y-137800000D02*
X164737500Y-137300000D01*
X161237500Y-140300000D02*
X161237500Y-141300000D01*
X160737500Y-135100000D02*
X156237500Y-135100000D01*
X165237500Y-141300000D02*
X164737500Y-141800000D01*
X156237500Y-139200000D02*
X156237500Y-139800000D01*
X156237500Y-135100000D02*
X156237500Y-135600000D01*
X160737500Y-135800000D02*
X160737500Y-135100000D01*
X164737500Y-137300000D02*
X162237500Y-137300000D01*
X164737500Y-141800000D02*
X161737500Y-141800000D01*
X161737500Y-141800000D02*
X161237500Y-141300000D01*
X160737500Y-135800000D02*
G75*
G03*
X162237500Y-137300000I1500001J1D01*
G01*
X161237500Y-140300000D02*
G75*
G03*
X160737500Y-139800000I-500001J-1D01*
G01*
X161237500Y-121250000D02*
X161237500Y-122250000D01*
X164737500Y-122750000D02*
X161737500Y-122750000D01*
X164737500Y-118250000D02*
X162237500Y-118250000D01*
X165237500Y-118750000D02*
X164737500Y-118250000D01*
X165237500Y-122250000D02*
X164737500Y-122750000D01*
X156237500Y-120750000D02*
X160737500Y-120750000D01*
X156237500Y-120150000D02*
X156237500Y-120750000D01*
X160737500Y-116050000D02*
X156237500Y-116050000D01*
X156237500Y-116050000D02*
X156237500Y-116550000D01*
X160737500Y-116750000D02*
X160737500Y-116050000D01*
X161737500Y-122750000D02*
X161237500Y-122250000D01*
X160737500Y-116750000D02*
G75*
G03*
X162237500Y-118250000I1500001J1D01*
G01*
X161237500Y-121250000D02*
G75*
G03*
X160737500Y-120750000I-500001J-1D01*
G01*
X179787500Y-78650000D02*
X179787500Y-77950000D01*
X175287500Y-82650000D02*
X179787500Y-82650000D01*
X184287500Y-80650000D02*
X183787500Y-80150000D01*
X180287500Y-83150000D02*
X180287500Y-84150000D01*
X183787500Y-84650000D02*
X180787500Y-84650000D01*
X180787500Y-84650000D02*
X180287500Y-84150000D01*
X175287500Y-77950000D02*
X175287500Y-78450000D01*
X184287500Y-84150000D02*
X183787500Y-84650000D01*
X183787500Y-80150000D02*
X181287500Y-80150000D01*
X175287500Y-82050000D02*
X175287500Y-82650000D01*
X179787500Y-77950000D02*
X175287500Y-77950000D01*
X179787500Y-78650000D02*
G75*
G03*
X181287500Y-80150000I1500001J1D01*
G01*
X180287500Y-83150000D02*
G75*
G03*
X179787500Y-82650000I-500001J-1D01*
G01*
X104087500Y-102200000D02*
X104087500Y-103200000D01*
X107587500Y-103700000D02*
X104587500Y-103700000D01*
X108087500Y-99700000D02*
X107587500Y-99200000D01*
X99087500Y-101700000D02*
X103587500Y-101700000D01*
X99087500Y-97000000D02*
X99087500Y-97500000D01*
X107587500Y-99200000D02*
X105087500Y-99200000D01*
X99087500Y-101100000D02*
X99087500Y-101700000D01*
X103587500Y-97000000D02*
X99087500Y-97000000D01*
X103587500Y-97700000D02*
X103587500Y-97000000D01*
X108087500Y-103200000D02*
X107587500Y-103700000D01*
X104587500Y-103700000D02*
X104087500Y-103200000D01*
X103587500Y-97700000D02*
G75*
G03*
X105087500Y-99200000I1500001J1D01*
G01*
X104087500Y-102200000D02*
G75*
G03*
X103587500Y-101700000I-500001J-1D01*
G01*
X107587500Y-80150000D02*
X105087500Y-80150000D01*
X99087500Y-77950000D02*
X99087500Y-78450000D01*
X103587500Y-77950000D02*
X99087500Y-77950000D01*
X103587500Y-78650000D02*
X103587500Y-77950000D01*
X104087500Y-83150000D02*
X104087500Y-84150000D01*
X107587500Y-84650000D02*
X104587500Y-84650000D01*
X99087500Y-82650000D02*
X103587500Y-82650000D01*
X108087500Y-80650000D02*
X107587500Y-80150000D01*
X104587500Y-84650000D02*
X104087500Y-84150000D01*
X108087500Y-84150000D02*
X107587500Y-84650000D01*
X99087500Y-82050000D02*
X99087500Y-82650000D01*
X104087500Y-83150000D02*
G75*
G03*
X103587500Y-82650000I-500001J-1D01*
G01*
X103587500Y-78650000D02*
G75*
G03*
X105087500Y-80150000I1500001J1D01*
G01*
X85537500Y-84650000D02*
X85037500Y-84150000D01*
X80037500Y-82050000D02*
X80037500Y-82650000D01*
X84537500Y-78650000D02*
X84537500Y-77950000D01*
X88537500Y-84650000D02*
X85537500Y-84650000D01*
X80037500Y-82650000D02*
X84537500Y-82650000D01*
X88537500Y-80150000D02*
X86037500Y-80150000D01*
X89037500Y-80650000D02*
X88537500Y-80150000D01*
X85037500Y-83150000D02*
X85037500Y-84150000D01*
X89037500Y-84150000D02*
X88537500Y-84650000D01*
X84537500Y-77950000D02*
X80037500Y-77950000D01*
X80037500Y-77950000D02*
X80037500Y-78450000D01*
X85037500Y-83150000D02*
G75*
G03*
X84537500Y-82650000I-500001J-1D01*
G01*
X84537500Y-78650000D02*
G75*
G03*
X86037500Y-80150000I1500001J1D01*
G01*
X232437500Y-101700000D02*
X236937500Y-101700000D01*
X232437500Y-101100000D02*
X232437500Y-101700000D01*
X232437500Y-97000000D02*
X232437500Y-97500000D01*
X241437500Y-103200000D02*
X240937500Y-103700000D01*
X237437500Y-102200000D02*
X237437500Y-103200000D01*
X237937500Y-103700000D02*
X237437500Y-103200000D01*
X236937500Y-97700000D02*
X236937500Y-97000000D01*
X241437500Y-99700000D02*
X240937500Y-99200000D01*
X236937500Y-97000000D02*
X232437500Y-97000000D01*
X240937500Y-103700000D02*
X237937500Y-103700000D01*
X240937500Y-99200000D02*
X238437500Y-99200000D01*
X236937500Y-97700000D02*
G75*
G03*
X238437500Y-99200000I1500001J1D01*
G01*
X237437500Y-102200000D02*
G75*
G03*
X236937500Y-101700000I-500001J-1D01*
G01*
X217887500Y-135800000D02*
X217887500Y-135100000D01*
X213387500Y-135100000D02*
X213387500Y-135600000D01*
X221887500Y-137300000D02*
X219387500Y-137300000D01*
X217887500Y-135100000D02*
X213387500Y-135100000D01*
X218387500Y-140300000D02*
X218387500Y-141300000D01*
X213387500Y-139200000D02*
X213387500Y-139800000D01*
X213387500Y-139800000D02*
X217887500Y-139800000D01*
X221887500Y-141800000D02*
X218887500Y-141800000D01*
X218887500Y-141800000D02*
X218387500Y-141300000D01*
X222387500Y-141300000D02*
X221887500Y-141800000D01*
X222387500Y-137800000D02*
X221887500Y-137300000D01*
X217887500Y-135800000D02*
G75*
G03*
X219387500Y-137300000I1500001J1D01*
G01*
X218387500Y-140300000D02*
G75*
G03*
X217887500Y-139800000I-500001J-1D01*
G01*
X203337500Y-122250000D02*
X202837500Y-122750000D01*
X194337500Y-120750000D02*
X198837500Y-120750000D01*
X199337500Y-121250000D02*
X199337500Y-122250000D01*
X198837500Y-116750000D02*
X198837500Y-116050000D01*
X202837500Y-122750000D02*
X199837500Y-122750000D01*
X199837500Y-122750000D02*
X199337500Y-122250000D01*
X198837500Y-116050000D02*
X194337500Y-116050000D01*
X203337500Y-118750000D02*
X202837500Y-118250000D01*
X194337500Y-120150000D02*
X194337500Y-120750000D01*
X202837500Y-118250000D02*
X200337500Y-118250000D01*
X194337500Y-116050000D02*
X194337500Y-116550000D01*
X199337500Y-121250000D02*
G75*
G03*
X198837500Y-120750000I-500001J-1D01*
G01*
X198837500Y-116750000D02*
G75*
G03*
X200337500Y-118250000I1500001J1D01*
G01*
D11*
X188162500Y-129350000D02*
X195462500Y-129350000D01*
X195462500Y-123850000D02*
X195462500Y-125000000D01*
X188162500Y-123850000D02*
X195462500Y-123850000D01*
X119212500Y-123850000D02*
X119212500Y-125000000D01*
X111912500Y-129350000D02*
X119212500Y-129350000D01*
X111912500Y-123850000D02*
X119212500Y-123850000D01*
X233587500Y-123850000D02*
X233587500Y-125000000D01*
X226287500Y-129350000D02*
X233587500Y-129350000D01*
X226287500Y-123850000D02*
X233587500Y-123850000D01*
X226287500Y-91350000D02*
X226287500Y-90200000D01*
X233587500Y-91350000D02*
X226287500Y-91350000D01*
X233587500Y-85850000D02*
X226287500Y-85850000D01*
X73787500Y-123850000D02*
X81087500Y-123850000D01*
X73787500Y-129350000D02*
X81087500Y-129350000D01*
X81087500Y-123850000D02*
X81087500Y-125000000D01*
X157337500Y-123850000D02*
X157337500Y-125000000D01*
X150037500Y-129350000D02*
X157337500Y-129350000D01*
X150037500Y-123850000D02*
X157337500Y-123850000D01*
X150037500Y-91350000D02*
X150037500Y-90200000D01*
X157337500Y-91350000D02*
X150037500Y-91350000D01*
X157337500Y-85850000D02*
X150037500Y-85850000D01*
X93937500Y-49350000D02*
X95437500Y-49350000D01*
X95437500Y-56350000D02*
X93937500Y-56350000D01*
X91437500Y-55100000D02*
X91437500Y-50600000D01*
X97937500Y-50600000D02*
X97937500Y-55100000D01*
X111912500Y-91350000D02*
X111912500Y-90200000D01*
X119212500Y-91350000D02*
X111912500Y-91350000D01*
X119212500Y-85850000D02*
X111912500Y-85850000D01*
X81087500Y-85850000D02*
X73787500Y-85850000D01*
X81087500Y-91350000D02*
X73787500Y-91350000D01*
X73787500Y-91350000D02*
X73787500Y-90200000D01*
X195462500Y-91350000D02*
X188162500Y-91350000D01*
X188162500Y-91350000D02*
X188162500Y-90200000D01*
X195462500Y-85850000D02*
X188162500Y-85850000D01*
%LPC*%
D12*
X62487500Y-95500000D03*
X73067500Y-95500000D03*
D13*
X62987500Y-99250000D03*
D14*
X67987500Y-95500000D03*
D12*
X73487500Y-95500000D03*
X62907500Y-95500000D03*
D13*
X67987500Y-101450000D03*
D15*
X70527500Y-90420000D03*
D16*
X71262500Y-101450000D03*
D15*
X64177500Y-92960000D03*
D16*
X59712500Y-99250000D03*
D17*
X114260548Y-64957716D03*
D18*
X119775980Y-59442284D03*
D12*
X177207500Y-114550000D03*
D14*
X182287500Y-114550000D03*
D12*
X187367500Y-114550000D03*
D13*
X182287500Y-120500000D03*
D12*
X187787500Y-114550000D03*
X176787500Y-114550000D03*
D13*
X177287500Y-118300000D03*
D16*
X185562500Y-120500000D03*
D15*
X184827500Y-109470000D03*
D16*
X174012500Y-118300000D03*
D15*
X178477500Y-112010000D03*
D12*
X139107500Y-133600000D03*
D14*
X144187500Y-133600000D03*
D13*
X144187500Y-139550000D03*
D12*
X149267500Y-133600000D03*
X149687500Y-133600000D03*
X138687500Y-133600000D03*
D13*
X139187500Y-137350000D03*
D16*
X147462500Y-139550000D03*
D15*
X146727500Y-128520000D03*
X140377500Y-131060000D03*
D16*
X135912500Y-137350000D03*
D12*
X130217500Y-114550000D03*
X119637500Y-114550000D03*
X120057500Y-114550000D03*
D13*
X125137500Y-120500000D03*
D12*
X130637500Y-114550000D03*
D13*
X120137500Y-118300000D03*
D14*
X125137500Y-114550000D03*
D16*
X128412500Y-120500000D03*
D15*
X127677500Y-109470000D03*
D16*
X116862500Y-118300000D03*
D15*
X121327500Y-112010000D03*
D19*
X96567500Y-124080000D03*
X210867500Y-85990000D03*
D13*
X182287500Y-101450000D03*
D12*
X187367500Y-95500000D03*
X176787500Y-95500000D03*
X187787500Y-95500000D03*
X177207500Y-95500000D03*
D14*
X182287500Y-95500000D03*
D13*
X177287500Y-99250000D03*
D16*
X185562500Y-101450000D03*
D15*
X184827500Y-90420000D03*
D16*
X174012500Y-99250000D03*
D15*
X178477500Y-92960000D03*
D17*
X106516960Y-64957716D03*
D18*
X112032392Y-59442284D03*
D13*
X82037500Y-137350000D03*
D12*
X92117500Y-133600000D03*
X81537500Y-133600000D03*
D14*
X87037500Y-133600000D03*
D12*
X92537500Y-133600000D03*
X81957500Y-133600000D03*
D13*
X87037500Y-139550000D03*
D16*
X90312500Y-139550000D03*
D15*
X89577500Y-128520000D03*
D16*
X78762500Y-137350000D03*
D15*
X83227500Y-131060000D03*
D17*
X211055398Y-64957716D03*
D18*
X216570830Y-59442284D03*
D12*
X234357500Y-114550000D03*
D13*
X234437500Y-118300000D03*
D12*
X233937500Y-114550000D03*
D13*
X239437500Y-120500000D03*
D12*
X244937500Y-114550000D03*
X244517500Y-114550000D03*
D14*
X239437500Y-114550000D03*
D15*
X241977500Y-109470000D03*
D16*
X242712500Y-120500000D03*
D15*
X235627500Y-112010000D03*
D16*
X231162500Y-118300000D03*
D19*
X67037500Y-59000000D03*
D12*
X119637500Y-133600000D03*
X130217500Y-133600000D03*
X120057500Y-133600000D03*
D13*
X125137500Y-139550000D03*
D14*
X125137500Y-133600000D03*
D12*
X130637500Y-133600000D03*
D13*
X120137500Y-137350000D03*
D16*
X128412500Y-139550000D03*
D15*
X127677500Y-128520000D03*
X121327500Y-131060000D03*
D16*
X116862500Y-137350000D03*
D13*
X220387500Y-82400000D03*
D12*
X225467500Y-76450000D03*
X215307500Y-76450000D03*
D14*
X220387500Y-76450000D03*
D12*
X214887500Y-76450000D03*
X225887500Y-76450000D03*
D13*
X215387500Y-80200000D03*
D16*
X223662500Y-82400000D03*
D15*
X222927500Y-71370000D03*
D16*
X212112500Y-80200000D03*
D15*
X216577500Y-73910000D03*
D12*
X168317500Y-76450000D03*
D13*
X163237500Y-82400000D03*
X158237500Y-80200000D03*
D12*
X168737500Y-76450000D03*
X158157500Y-76450000D03*
X157737500Y-76450000D03*
D14*
X163237500Y-76450000D03*
D16*
X166512500Y-82400000D03*
D15*
X165777500Y-71370000D03*
D16*
X154962500Y-80200000D03*
D15*
X159427500Y-73910000D03*
D13*
X177287500Y-137350000D03*
D12*
X177207500Y-133600000D03*
D14*
X182287500Y-133600000D03*
D12*
X187787500Y-133600000D03*
D13*
X182287500Y-139550000D03*
D12*
X176787500Y-133600000D03*
X187367500Y-133600000D03*
D16*
X185562500Y-139550000D03*
D15*
X184827500Y-128520000D03*
X178477500Y-131060000D03*
D16*
X174012500Y-137350000D03*
D12*
X206837500Y-76450000D03*
X195837500Y-76450000D03*
D13*
X196337500Y-80200000D03*
D14*
X201337500Y-76450000D03*
D12*
X196257500Y-76450000D03*
D13*
X201337500Y-82400000D03*
D12*
X206417500Y-76450000D03*
D15*
X203877500Y-71370000D03*
D16*
X204612500Y-82400000D03*
X193062500Y-80200000D03*
D15*
X197527500Y-73910000D03*
D17*
X102645166Y-64957716D03*
D18*
X108160598Y-59442284D03*
D12*
X62487500Y-114550000D03*
X73487500Y-114550000D03*
X73067500Y-114550000D03*
X62907500Y-114550000D03*
D14*
X67987500Y-114550000D03*
D13*
X62987500Y-118300000D03*
X67987500Y-120500000D03*
D16*
X71262500Y-120500000D03*
D15*
X70527500Y-109470000D03*
D16*
X59712500Y-118300000D03*
D15*
X64177500Y-112010000D03*
D17*
X195568222Y-64957716D03*
D18*
X201083654Y-59442284D03*
D13*
X163237500Y-101450000D03*
D12*
X157737500Y-95500000D03*
X168737500Y-95500000D03*
X168317500Y-95500000D03*
D13*
X158237500Y-99250000D03*
D14*
X163237500Y-95500000D03*
D12*
X158157500Y-95500000D03*
D16*
X166512500Y-101450000D03*
D15*
X165777500Y-90420000D03*
X159427500Y-92960000D03*
D16*
X154962500Y-99250000D03*
D14*
X201337500Y-133600000D03*
D13*
X201337500Y-139550000D03*
X196337500Y-137350000D03*
D12*
X195837500Y-133600000D03*
X196257500Y-133600000D03*
X206417500Y-133600000D03*
X206837500Y-133600000D03*
D16*
X204612500Y-139550000D03*
D15*
X203877500Y-128520000D03*
X197527500Y-131060000D03*
D16*
X193062500Y-137350000D03*
D19*
X210867500Y-124070000D03*
D14*
X201337500Y-95500000D03*
D12*
X195837500Y-95500000D03*
X206417500Y-95500000D03*
D13*
X196337500Y-99250000D03*
X201337500Y-101450000D03*
D12*
X206837500Y-95500000D03*
X196257500Y-95500000D03*
D16*
X204612500Y-101450000D03*
D15*
X203877500Y-90420000D03*
D16*
X193062500Y-99250000D03*
D15*
X197527500Y-92960000D03*
D17*
X141363106Y-64957716D03*
D18*
X146878538Y-59442284D03*
D17*
X149106694Y-64957716D03*
D18*
X154622126Y-59442284D03*
D17*
X164593870Y-64957716D03*
D18*
X170109302Y-59442284D03*
D17*
X118132342Y-64957716D03*
D18*
X123647774Y-59442284D03*
D17*
X222670780Y-64957716D03*
D18*
X228186212Y-59442284D03*
D17*
X226542574Y-64957716D03*
D18*
X232058006Y-59442284D03*
D17*
X203311810Y-64957716D03*
D18*
X208827242Y-59442284D03*
D13*
X120137500Y-80200000D03*
D12*
X130217500Y-76450000D03*
D13*
X125137500Y-82400000D03*
D12*
X119637500Y-76450000D03*
X130637500Y-76450000D03*
D14*
X125137500Y-76450000D03*
D12*
X120057500Y-76450000D03*
D16*
X128412500Y-82400000D03*
D15*
X127677500Y-71370000D03*
D16*
X116862500Y-80200000D03*
D15*
X121327500Y-73910000D03*
D17*
X156850282Y-64957716D03*
D18*
X162365714Y-59442284D03*
D12*
X100587500Y-133600000D03*
X101007500Y-133600000D03*
D13*
X106087500Y-139550000D03*
D14*
X106087500Y-133600000D03*
D12*
X111587500Y-133600000D03*
D13*
X101087500Y-137350000D03*
D12*
X111167500Y-133600000D03*
D16*
X109362500Y-139550000D03*
D15*
X108627500Y-128520000D03*
D16*
X97812500Y-137350000D03*
D15*
X102277500Y-131060000D03*
D17*
X230414368Y-64957716D03*
D18*
X235929800Y-59442284D03*
D17*
X125875930Y-64957716D03*
D18*
X131391362Y-59442284D03*
D19*
X153717500Y-105020000D03*
D12*
X244517500Y-133600000D03*
D13*
X234437500Y-137350000D03*
X239437500Y-139550000D03*
D12*
X234357500Y-133600000D03*
D14*
X239437500Y-133600000D03*
D12*
X244937500Y-133600000D03*
X233937500Y-133600000D03*
D15*
X241977500Y-128520000D03*
D16*
X242712500Y-139550000D03*
X231162500Y-137350000D03*
D15*
X235627500Y-131060000D03*
D19*
X192037500Y-53500000D03*
D13*
X144187500Y-101450000D03*
D12*
X139107500Y-95500000D03*
D14*
X144187500Y-95500000D03*
D12*
X149267500Y-95500000D03*
X138687500Y-95500000D03*
X149687500Y-95500000D03*
D13*
X139187500Y-99250000D03*
D15*
X146727500Y-90420000D03*
D16*
X147462500Y-101450000D03*
D15*
X140377500Y-92960000D03*
D16*
X135912500Y-99250000D03*
D17*
X152978488Y-64957716D03*
D18*
X158493920Y-59442284D03*
D17*
X214927192Y-64957716D03*
D18*
X220442624Y-59442284D03*
D12*
X138687500Y-76450000D03*
X149267500Y-76450000D03*
D14*
X144187500Y-76450000D03*
D12*
X139107500Y-76450000D03*
D13*
X144187500Y-82400000D03*
D12*
X149687500Y-76450000D03*
D13*
X139187500Y-80200000D03*
D15*
X146727500Y-71370000D03*
D16*
X147462500Y-82400000D03*
D15*
X140377500Y-73910000D03*
D16*
X135912500Y-80200000D03*
D12*
X111167500Y-114550000D03*
D13*
X101087500Y-118300000D03*
X106087500Y-120500000D03*
D12*
X101007500Y-114550000D03*
D14*
X106087500Y-114550000D03*
D12*
X100587500Y-114550000D03*
X111587500Y-114550000D03*
D15*
X108627500Y-109470000D03*
D16*
X109362500Y-120500000D03*
X97812500Y-118300000D03*
D15*
X102277500Y-112010000D03*
D17*
X234286162Y-64957716D03*
D18*
X239801594Y-59442284D03*
D17*
X145234900Y-64957716D03*
D18*
X150750332Y-59442284D03*
D17*
X137491312Y-64957716D03*
D18*
X143006744Y-59442284D03*
D12*
X244517500Y-76450000D03*
D14*
X239437500Y-76450000D03*
D13*
X239437500Y-82400000D03*
X234437500Y-80200000D03*
D12*
X234357500Y-76450000D03*
X244937500Y-76450000D03*
X233937500Y-76450000D03*
D15*
X241977500Y-71370000D03*
D16*
X242712500Y-82400000D03*
X231162500Y-80200000D03*
D15*
X235627500Y-73910000D03*
D12*
X81537500Y-95500000D03*
D13*
X87037500Y-101450000D03*
X82037500Y-99250000D03*
D12*
X92537500Y-95500000D03*
X81957500Y-95500000D03*
D14*
X87037500Y-95500000D03*
D12*
X92117500Y-95500000D03*
D15*
X89577500Y-90420000D03*
D16*
X90312500Y-101450000D03*
X78762500Y-99250000D03*
D15*
X83227500Y-92960000D03*
D13*
X215387500Y-118300000D03*
D12*
X214887500Y-114550000D03*
X225467500Y-114550000D03*
D13*
X220387500Y-120500000D03*
D12*
X225887500Y-114550000D03*
X215307500Y-114550000D03*
D14*
X220387500Y-114550000D03*
D16*
X223662500Y-120500000D03*
D15*
X222927500Y-109470000D03*
D16*
X212112500Y-118300000D03*
D15*
X216577500Y-112010000D03*
D17*
X191696428Y-64957716D03*
D18*
X197211860Y-59442284D03*
D12*
X138687500Y-114550000D03*
D13*
X144187500Y-120500000D03*
D12*
X139107500Y-114550000D03*
D13*
X139187500Y-118300000D03*
D12*
X149267500Y-114550000D03*
X149687500Y-114550000D03*
D14*
X144187500Y-114550000D03*
D15*
X146727500Y-109470000D03*
D16*
X147462500Y-120500000D03*
X135912500Y-118300000D03*
D15*
X140377500Y-112010000D03*
D12*
X225467500Y-95500000D03*
D13*
X215387500Y-99250000D03*
D14*
X220387500Y-95500000D03*
D13*
X220387500Y-101450000D03*
D12*
X215307500Y-95500000D03*
X214887500Y-95500000D03*
X225887500Y-95500000D03*
D15*
X222927500Y-90420000D03*
D16*
X223662500Y-101450000D03*
D15*
X216577500Y-92960000D03*
D16*
X212112500Y-99250000D03*
D13*
X62987500Y-137350000D03*
D14*
X67987500Y-133600000D03*
D12*
X73487500Y-133600000D03*
X62487500Y-133600000D03*
X62907500Y-133600000D03*
X73067500Y-133600000D03*
D13*
X67987500Y-139550000D03*
D15*
X70527500Y-128520000D03*
D16*
X71262500Y-139550000D03*
D15*
X64177500Y-131060000D03*
D16*
X59712500Y-137350000D03*
D19*
X244537500Y-53500000D03*
D17*
X207183604Y-64957716D03*
D18*
X212699036Y-59442284D03*
D17*
X242029750Y-64957716D03*
D18*
X247545182Y-59442284D03*
D17*
X94901578Y-64957716D03*
D18*
X100417010Y-59442284D03*
D17*
X110388754Y-64957716D03*
D18*
X115904186Y-59442284D03*
D13*
X82037500Y-118300000D03*
D14*
X87037500Y-114550000D03*
D12*
X92117500Y-114550000D03*
X92537500Y-114550000D03*
X81957500Y-114550000D03*
D13*
X87037500Y-120500000D03*
D12*
X81537500Y-114550000D03*
D15*
X89577500Y-109470000D03*
D16*
X90312500Y-120500000D03*
X78762500Y-118300000D03*
D15*
X83227500Y-112010000D03*
D17*
X172337458Y-64957716D03*
D18*
X177852890Y-59442284D03*
D13*
X62987500Y-80200000D03*
D12*
X62907500Y-76450000D03*
X73067500Y-76450000D03*
X73487500Y-76450000D03*
D13*
X67987500Y-82400000D03*
D12*
X62487500Y-76450000D03*
D14*
X67987500Y-76450000D03*
D16*
X71262500Y-82400000D03*
D15*
X70527500Y-71370000D03*
D16*
X59712500Y-80200000D03*
D15*
X64177500Y-73910000D03*
D17*
X122004136Y-64957716D03*
D18*
X127519568Y-59442284D03*
D19*
X96577500Y-85970000D03*
D17*
X199440016Y-64957716D03*
D18*
X204955448Y-59442284D03*
D13*
X120137500Y-99250000D03*
D12*
X130637500Y-95500000D03*
D14*
X125137500Y-95500000D03*
D12*
X130217500Y-95500000D03*
X119637500Y-95500000D03*
X120057500Y-95500000D03*
D13*
X125137500Y-101450000D03*
D15*
X127677500Y-90420000D03*
D16*
X128412500Y-101450000D03*
D15*
X121327500Y-92960000D03*
D16*
X116862500Y-99250000D03*
D20*
X59817500Y-65111420D03*
D18*
X62357500Y-65111420D03*
X64897500Y-65111420D03*
X67437500Y-65111420D03*
X69977500Y-65111420D03*
X72517500Y-65111420D03*
X75057500Y-65111420D03*
X77597500Y-65111420D03*
X80137500Y-65111420D03*
X82677500Y-65111420D03*
X85217500Y-65111420D03*
X87757500Y-65111420D03*
X87757500Y-49871420D03*
X85217500Y-49871420D03*
X82677500Y-49871420D03*
X80137500Y-49871420D03*
X77597500Y-49871420D03*
X75057500Y-49871420D03*
X72517500Y-49871420D03*
X69977500Y-49871420D03*
X67437500Y-49871420D03*
X64897500Y-49871420D03*
X62357500Y-49871420D03*
X59817500Y-49871420D03*
D17*
X168465664Y-64957716D03*
D18*
X173981096Y-59442284D03*
D17*
X91029784Y-64957716D03*
D18*
X96545216Y-59442284D03*
D13*
X163237500Y-139550000D03*
D14*
X163237500Y-133600000D03*
D12*
X168317500Y-133600000D03*
X157737500Y-133600000D03*
X168737500Y-133600000D03*
X158157500Y-133600000D03*
D13*
X158237500Y-137350000D03*
D16*
X166512500Y-139550000D03*
D15*
X165777500Y-128520000D03*
D16*
X154962500Y-137350000D03*
D15*
X159427500Y-131060000D03*
D13*
X158237500Y-118300000D03*
D12*
X168737500Y-114550000D03*
X158157500Y-114550000D03*
D13*
X163237500Y-120500000D03*
D12*
X157737500Y-114550000D03*
D14*
X163237500Y-114550000D03*
D12*
X168317500Y-114550000D03*
D16*
X166512500Y-120500000D03*
D15*
X165777500Y-109470000D03*
D16*
X154962500Y-118300000D03*
D15*
X159427500Y-112010000D03*
D17*
X218798986Y-64957716D03*
D18*
X224314418Y-59442284D03*
D12*
X187787500Y-76450000D03*
X177207500Y-76450000D03*
D13*
X177287500Y-80200000D03*
D14*
X182287500Y-76450000D03*
D12*
X187367500Y-76450000D03*
D13*
X182287500Y-82400000D03*
D12*
X176787500Y-76450000D03*
D15*
X184827500Y-71370000D03*
D16*
X185562500Y-82400000D03*
X174012500Y-80200000D03*
D15*
X178477500Y-73910000D03*
D17*
X176209252Y-64957716D03*
D18*
X181724684Y-59442284D03*
D17*
X187824634Y-64957716D03*
D18*
X193340066Y-59442284D03*
D12*
X101007500Y-95500000D03*
D14*
X106087500Y-95500000D03*
D13*
X106087500Y-101450000D03*
D12*
X111167500Y-95500000D03*
D13*
X101087500Y-99250000D03*
D12*
X100587500Y-95500000D03*
X111587500Y-95500000D03*
D15*
X108627500Y-90420000D03*
D16*
X109362500Y-101450000D03*
X97812500Y-99250000D03*
D15*
X102277500Y-92960000D03*
D12*
X100587500Y-76450000D03*
X111167500Y-76450000D03*
X111587500Y-76450000D03*
D13*
X101087500Y-80200000D03*
D14*
X106087500Y-76450000D03*
D13*
X106087500Y-82400000D03*
D12*
X101007500Y-76450000D03*
D16*
X109362500Y-82400000D03*
D15*
X108627500Y-71370000D03*
D16*
X97812500Y-80200000D03*
D15*
X102277500Y-73910000D03*
D13*
X87037500Y-82400000D03*
D12*
X92537500Y-76450000D03*
X81537500Y-76450000D03*
X92117500Y-76450000D03*
X81957500Y-76450000D03*
D13*
X82037500Y-80200000D03*
D14*
X87037500Y-76450000D03*
D16*
X90312500Y-82400000D03*
D15*
X89577500Y-71370000D03*
D16*
X78762500Y-80200000D03*
D15*
X83227500Y-73910000D03*
D17*
X98773372Y-64957716D03*
D18*
X104288804Y-59442284D03*
D12*
X233937500Y-95500000D03*
X244937500Y-95500000D03*
D13*
X239437500Y-101450000D03*
D12*
X244517500Y-95500000D03*
D14*
X239437500Y-95500000D03*
D13*
X234437500Y-99250000D03*
D12*
X234357500Y-95500000D03*
D15*
X241977500Y-90420000D03*
D16*
X242712500Y-101450000D03*
D15*
X235627500Y-92960000D03*
D16*
X231162500Y-99250000D03*
D17*
X238157956Y-64957716D03*
D18*
X243673388Y-59442284D03*
D17*
X133619518Y-64957716D03*
D18*
X139134950Y-59442284D03*
D12*
X215307500Y-133600000D03*
D13*
X220387500Y-139550000D03*
D12*
X225887500Y-133600000D03*
D13*
X215387500Y-137350000D03*
D14*
X220387500Y-133600000D03*
D12*
X225467500Y-133600000D03*
X214887500Y-133600000D03*
D15*
X222927500Y-128520000D03*
D16*
X223662500Y-139550000D03*
X212112500Y-137350000D03*
D15*
X216577500Y-131060000D03*
D17*
X129747724Y-64957716D03*
D18*
X135263156Y-59442284D03*
D17*
X180081046Y-64957716D03*
D18*
X185596478Y-59442284D03*
D17*
X183952840Y-64957716D03*
D18*
X189468272Y-59442284D03*
D12*
X196257500Y-114550000D03*
X206837500Y-114550000D03*
D13*
X201337500Y-120500000D03*
D14*
X201337500Y-114550000D03*
D12*
X206417500Y-114550000D03*
D13*
X196337500Y-118300000D03*
D12*
X195837500Y-114550000D03*
D16*
X204612500Y-120500000D03*
D15*
X203877500Y-109470000D03*
D16*
X193062500Y-118300000D03*
D15*
X197527500Y-112010000D03*
D17*
X160722076Y-64957716D03*
D18*
X166237508Y-59442284D03*
D21*
X194262500Y-125000000D03*
X194262500Y-128200000D03*
X189362500Y-128200000D03*
X189362500Y-125000000D03*
X118012500Y-125000000D03*
X118012500Y-128200000D03*
X113112500Y-128200000D03*
X113112500Y-125000000D03*
X232387500Y-125000000D03*
X232387500Y-128200000D03*
X227487500Y-128200000D03*
X227487500Y-125000000D03*
X227487500Y-90200000D03*
X227487500Y-87000000D03*
X232387500Y-87000000D03*
X232387500Y-90200000D03*
X79887500Y-125000000D03*
X79887500Y-128200000D03*
X74987500Y-128200000D03*
X74987500Y-125000000D03*
X156137500Y-125000000D03*
X156137500Y-128200000D03*
X151237500Y-128200000D03*
X151237500Y-125000000D03*
X151237500Y-90200000D03*
X151237500Y-87000000D03*
X156137500Y-87000000D03*
X156137500Y-90200000D03*
D22*
X92437500Y-49600000D03*
X92437500Y-56100000D03*
X96937500Y-56100000D03*
X96937500Y-49600000D03*
D21*
X113112500Y-90200000D03*
X113112500Y-87000000D03*
X118012500Y-87000000D03*
X118012500Y-90200000D03*
X74987500Y-90200000D03*
X74987500Y-87000000D03*
X79887500Y-87000000D03*
X79887500Y-90200000D03*
X189362500Y-90200000D03*
X189362500Y-87000000D03*
X194262500Y-87000000D03*
X194262500Y-90200000D03*
M02*
