G04 #@! TF.GenerationSoftware,KiCad,Pcbnew,6.0.7-f9a2dced07~116~ubuntu20.04.1*
G04 #@! TF.CreationDate,2022-09-18T13:16:26+08:00*
G04 #@! TF.ProjectId,keyboard v3,6b657962-6f61-4726-9420-76332e6b6963,rev?*
G04 #@! TF.SameCoordinates,Original*
G04 #@! TF.FileFunction,Soldermask,Top*
G04 #@! TF.FilePolarity,Negative*
%FSLAX46Y46*%
G04 Gerber Fmt 4.6, Leading zero omitted, Abs format (unit mm)*
G04 Created by KiCad (PCBNEW 6.0.7-f9a2dced07~116~ubuntu20.04.1) date 2022-09-18 13:16:26*
%MOMM*%
%LPD*%
G01*
G04 APERTURE LIST*
G04 Aperture macros list*
%AMRotRect*
0 Rectangle, with rotation*
0 The origin of the aperture is its center*
0 $1 length*
0 $2 width*
0 $3 Rotation angle, in degrees counterclockwise*
0 Add horizontal line*
21,1,$1,$2,0,0,$3*%
G04 Aperture macros list end*
%ADD10C,1.701800*%
%ADD11C,3.000000*%
%ADD12C,3.987800*%
%ADD13C,2.286000*%
%ADD14RotRect,1.600000X1.600000X45.000000*%
%ADD15C,1.600000*%
%ADD16C,5.000000*%
%ADD17C,2.000000*%
G04 APERTURE END LIST*
D10*
X62487500Y-95500000D03*
X73067500Y-95500000D03*
D11*
X62987500Y-99250000D03*
D12*
X67987500Y-95500000D03*
D10*
X73487500Y-95500000D03*
X62907500Y-95500000D03*
D11*
X67987500Y-101450000D03*
D13*
X70527500Y-90420000D03*
X64177500Y-92960000D03*
D14*
X114260548Y-64957716D03*
D15*
X119775980Y-59442284D03*
D10*
X177207500Y-114550000D03*
D12*
X182287500Y-114550000D03*
D10*
X187367500Y-114550000D03*
D11*
X182287500Y-120500000D03*
D10*
X187787500Y-114550000D03*
X176787500Y-114550000D03*
D11*
X177287500Y-118300000D03*
D13*
X184827500Y-109470000D03*
X178477500Y-112010000D03*
D10*
X139107500Y-133600000D03*
D12*
X144187500Y-133600000D03*
D11*
X144187500Y-139550000D03*
D10*
X149267500Y-133600000D03*
X149687500Y-133600000D03*
X138687500Y-133600000D03*
D11*
X139187500Y-137350000D03*
D13*
X146727500Y-128520000D03*
X140377500Y-131060000D03*
D10*
X130217500Y-114550000D03*
X119637500Y-114550000D03*
X120057500Y-114550000D03*
D11*
X125137500Y-120500000D03*
D10*
X130637500Y-114550000D03*
D11*
X120137500Y-118300000D03*
D12*
X125137500Y-114550000D03*
D13*
X127677500Y-109470000D03*
X121327500Y-112010000D03*
D16*
X96567500Y-124080000D03*
X210867500Y-85990000D03*
D11*
X182287500Y-101450000D03*
D10*
X187367500Y-95500000D03*
X176787500Y-95500000D03*
X187787500Y-95500000D03*
X177207500Y-95500000D03*
D12*
X182287500Y-95500000D03*
D11*
X177287500Y-99250000D03*
D13*
X184827500Y-90420000D03*
X178477500Y-92960000D03*
D14*
X106516960Y-64957716D03*
D15*
X112032392Y-59442284D03*
D11*
X82037500Y-137350000D03*
D10*
X92117500Y-133600000D03*
X81537500Y-133600000D03*
D12*
X87037500Y-133600000D03*
D10*
X92537500Y-133600000D03*
X81957500Y-133600000D03*
D11*
X87037500Y-139550000D03*
D13*
X89577500Y-128520000D03*
X83227500Y-131060000D03*
D14*
X211055398Y-64957716D03*
D15*
X216570830Y-59442284D03*
D10*
X234357500Y-114550000D03*
D11*
X234437500Y-118300000D03*
D10*
X233937500Y-114550000D03*
D11*
X239437500Y-120500000D03*
D10*
X244937500Y-114550000D03*
X244517500Y-114550000D03*
D12*
X239437500Y-114550000D03*
D13*
X241977500Y-109470000D03*
X235627500Y-112010000D03*
D16*
X67037500Y-59000000D03*
D10*
X119637500Y-133600000D03*
X130217500Y-133600000D03*
X120057500Y-133600000D03*
D11*
X125137500Y-139550000D03*
D12*
X125137500Y-133600000D03*
D10*
X130637500Y-133600000D03*
D11*
X120137500Y-137350000D03*
D13*
X127677500Y-128520000D03*
X121327500Y-131060000D03*
D11*
X220387500Y-82400000D03*
D10*
X225467500Y-76450000D03*
X215307500Y-76450000D03*
D12*
X220387500Y-76450000D03*
D10*
X214887500Y-76450000D03*
X225887500Y-76450000D03*
D11*
X215387500Y-80200000D03*
D13*
X222927500Y-71370000D03*
X216577500Y-73910000D03*
D10*
X168317500Y-76450000D03*
D11*
X163237500Y-82400000D03*
X158237500Y-80200000D03*
D10*
X168737500Y-76450000D03*
X158157500Y-76450000D03*
X157737500Y-76450000D03*
D12*
X163237500Y-76450000D03*
D13*
X165777500Y-71370000D03*
X159427500Y-73910000D03*
D11*
X177287500Y-137350000D03*
D10*
X177207500Y-133600000D03*
D12*
X182287500Y-133600000D03*
D10*
X187787500Y-133600000D03*
D11*
X182287500Y-139550000D03*
D10*
X176787500Y-133600000D03*
X187367500Y-133600000D03*
D13*
X184827500Y-128520000D03*
X178477500Y-131060000D03*
D10*
X206837500Y-76450000D03*
X195837500Y-76450000D03*
D11*
X196337500Y-80200000D03*
D12*
X201337500Y-76450000D03*
D10*
X196257500Y-76450000D03*
D11*
X201337500Y-82400000D03*
D10*
X206417500Y-76450000D03*
D13*
X203877500Y-71370000D03*
X197527500Y-73910000D03*
D14*
X102645166Y-64957716D03*
D15*
X108160598Y-59442284D03*
D10*
X62487500Y-114550000D03*
X73487500Y-114550000D03*
X73067500Y-114550000D03*
X62907500Y-114550000D03*
D12*
X67987500Y-114550000D03*
D11*
X62987500Y-118300000D03*
X67987500Y-120500000D03*
D13*
X70527500Y-109470000D03*
X64177500Y-112010000D03*
D14*
X195568222Y-64957716D03*
D15*
X201083654Y-59442284D03*
D11*
X163237500Y-101450000D03*
D10*
X157737500Y-95500000D03*
X168737500Y-95500000D03*
X168317500Y-95500000D03*
D11*
X158237500Y-99250000D03*
D12*
X163237500Y-95500000D03*
D10*
X158157500Y-95500000D03*
D13*
X165777500Y-90420000D03*
X159427500Y-92960000D03*
D12*
X201337500Y-133600000D03*
D11*
X201337500Y-139550000D03*
X196337500Y-137350000D03*
D10*
X195837500Y-133600000D03*
X196257500Y-133600000D03*
X206417500Y-133600000D03*
X206837500Y-133600000D03*
D13*
X203877500Y-128520000D03*
X197527500Y-131060000D03*
D16*
X210867500Y-124070000D03*
D12*
X201337500Y-95500000D03*
D10*
X195837500Y-95500000D03*
X206417500Y-95500000D03*
D11*
X196337500Y-99250000D03*
X201337500Y-101450000D03*
D10*
X206837500Y-95500000D03*
X196257500Y-95500000D03*
D13*
X203877500Y-90420000D03*
X197527500Y-92960000D03*
D14*
X141363106Y-64957716D03*
D15*
X146878538Y-59442284D03*
D14*
X149106694Y-64957716D03*
D15*
X154622126Y-59442284D03*
D14*
X164593870Y-64957716D03*
D15*
X170109302Y-59442284D03*
D14*
X118132342Y-64957716D03*
D15*
X123647774Y-59442284D03*
D14*
X222670780Y-64957716D03*
D15*
X228186212Y-59442284D03*
D14*
X226542574Y-64957716D03*
D15*
X232058006Y-59442284D03*
D14*
X203311810Y-64957716D03*
D15*
X208827242Y-59442284D03*
D11*
X120137500Y-80200000D03*
D10*
X130217500Y-76450000D03*
D11*
X125137500Y-82400000D03*
D10*
X119637500Y-76450000D03*
X130637500Y-76450000D03*
D12*
X125137500Y-76450000D03*
D10*
X120057500Y-76450000D03*
D13*
X127677500Y-71370000D03*
X121327500Y-73910000D03*
D14*
X156850282Y-64957716D03*
D15*
X162365714Y-59442284D03*
D10*
X100587500Y-133600000D03*
X101007500Y-133600000D03*
D11*
X106087500Y-139550000D03*
D12*
X106087500Y-133600000D03*
D10*
X111587500Y-133600000D03*
D11*
X101087500Y-137350000D03*
D10*
X111167500Y-133600000D03*
D13*
X108627500Y-128520000D03*
X102277500Y-131060000D03*
D14*
X230414368Y-64957716D03*
D15*
X235929800Y-59442284D03*
D14*
X125875930Y-64957716D03*
D15*
X131391362Y-59442284D03*
D16*
X153717500Y-105020000D03*
D10*
X244517500Y-133600000D03*
D11*
X234437500Y-137350000D03*
X239437500Y-139550000D03*
D10*
X234357500Y-133600000D03*
D12*
X239437500Y-133600000D03*
D10*
X244937500Y-133600000D03*
X233937500Y-133600000D03*
D13*
X241977500Y-128520000D03*
X235627500Y-131060000D03*
D16*
X192037500Y-53500000D03*
D11*
X144187500Y-101450000D03*
D10*
X139107500Y-95500000D03*
D12*
X144187500Y-95500000D03*
D10*
X149267500Y-95500000D03*
X138687500Y-95500000D03*
X149687500Y-95500000D03*
D11*
X139187500Y-99250000D03*
D13*
X146727500Y-90420000D03*
X140377500Y-92960000D03*
D14*
X152978488Y-64957716D03*
D15*
X158493920Y-59442284D03*
D14*
X214927192Y-64957716D03*
D15*
X220442624Y-59442284D03*
D10*
X138687500Y-76450000D03*
X149267500Y-76450000D03*
D12*
X144187500Y-76450000D03*
D10*
X139107500Y-76450000D03*
D11*
X144187500Y-82400000D03*
D10*
X149687500Y-76450000D03*
D11*
X139187500Y-80200000D03*
D13*
X146727500Y-71370000D03*
X140377500Y-73910000D03*
D10*
X111167500Y-114550000D03*
D11*
X101087500Y-118300000D03*
X106087500Y-120500000D03*
D10*
X101007500Y-114550000D03*
D12*
X106087500Y-114550000D03*
D10*
X100587500Y-114550000D03*
X111587500Y-114550000D03*
D13*
X108627500Y-109470000D03*
X102277500Y-112010000D03*
D14*
X234286162Y-64957716D03*
D15*
X239801594Y-59442284D03*
D14*
X145234900Y-64957716D03*
D15*
X150750332Y-59442284D03*
D14*
X137491312Y-64957716D03*
D15*
X143006744Y-59442284D03*
D10*
X244517500Y-76450000D03*
D12*
X239437500Y-76450000D03*
D11*
X239437500Y-82400000D03*
X234437500Y-80200000D03*
D10*
X234357500Y-76450000D03*
X244937500Y-76450000D03*
X233937500Y-76450000D03*
D13*
X241977500Y-71370000D03*
X235627500Y-73910000D03*
D10*
X81537500Y-95500000D03*
D11*
X87037500Y-101450000D03*
X82037500Y-99250000D03*
D10*
X92537500Y-95500000D03*
X81957500Y-95500000D03*
D12*
X87037500Y-95500000D03*
D10*
X92117500Y-95500000D03*
D13*
X89577500Y-90420000D03*
X83227500Y-92960000D03*
D11*
X215387500Y-118300000D03*
D10*
X214887500Y-114550000D03*
X225467500Y-114550000D03*
D11*
X220387500Y-120500000D03*
D10*
X225887500Y-114550000D03*
X215307500Y-114550000D03*
D12*
X220387500Y-114550000D03*
D13*
X222927500Y-109470000D03*
X216577500Y-112010000D03*
D14*
X191696428Y-64957716D03*
D15*
X197211860Y-59442284D03*
D10*
X138687500Y-114550000D03*
D11*
X144187500Y-120500000D03*
D10*
X139107500Y-114550000D03*
D11*
X139187500Y-118300000D03*
D10*
X149267500Y-114550000D03*
X149687500Y-114550000D03*
D12*
X144187500Y-114550000D03*
D13*
X146727500Y-109470000D03*
X140377500Y-112010000D03*
D10*
X225467500Y-95500000D03*
D11*
X215387500Y-99250000D03*
D12*
X220387500Y-95500000D03*
D11*
X220387500Y-101450000D03*
D10*
X215307500Y-95500000D03*
X214887500Y-95500000D03*
X225887500Y-95500000D03*
D13*
X222927500Y-90420000D03*
X216577500Y-92960000D03*
D11*
X62987500Y-137350000D03*
D12*
X67987500Y-133600000D03*
D10*
X73487500Y-133600000D03*
X62487500Y-133600000D03*
X62907500Y-133600000D03*
X73067500Y-133600000D03*
D11*
X67987500Y-139550000D03*
D13*
X70527500Y-128520000D03*
X64177500Y-131060000D03*
D16*
X244537500Y-53500000D03*
D14*
X207183604Y-64957716D03*
D15*
X212699036Y-59442284D03*
D14*
X242029750Y-64957716D03*
D15*
X247545182Y-59442284D03*
D14*
X94901578Y-64957716D03*
D15*
X100417010Y-59442284D03*
D14*
X110388754Y-64957716D03*
D15*
X115904186Y-59442284D03*
D11*
X82037500Y-118300000D03*
D12*
X87037500Y-114550000D03*
D10*
X92117500Y-114550000D03*
X92537500Y-114550000D03*
X81957500Y-114550000D03*
D11*
X87037500Y-120500000D03*
D10*
X81537500Y-114550000D03*
D13*
X89577500Y-109470000D03*
X83227500Y-112010000D03*
D14*
X172337458Y-64957716D03*
D15*
X177852890Y-59442284D03*
D11*
X62987500Y-80200000D03*
D10*
X62907500Y-76450000D03*
X73067500Y-76450000D03*
X73487500Y-76450000D03*
D11*
X67987500Y-82400000D03*
D10*
X62487500Y-76450000D03*
D12*
X67987500Y-76450000D03*
D13*
X70527500Y-71370000D03*
X64177500Y-73910000D03*
D14*
X122004136Y-64957716D03*
D15*
X127519568Y-59442284D03*
D16*
X96577500Y-85970000D03*
D14*
X199440016Y-64957716D03*
D15*
X204955448Y-59442284D03*
D11*
X120137500Y-99250000D03*
D10*
X130637500Y-95500000D03*
D12*
X125137500Y-95500000D03*
D10*
X130217500Y-95500000D03*
X119637500Y-95500000D03*
X120057500Y-95500000D03*
D11*
X125137500Y-101450000D03*
D13*
X127677500Y-90420000D03*
X121327500Y-92960000D03*
D14*
X168465664Y-64957716D03*
D15*
X173981096Y-59442284D03*
D14*
X91029784Y-64957716D03*
D15*
X96545216Y-59442284D03*
D11*
X163237500Y-139550000D03*
D12*
X163237500Y-133600000D03*
D10*
X168317500Y-133600000D03*
X157737500Y-133600000D03*
X168737500Y-133600000D03*
X158157500Y-133600000D03*
D11*
X158237500Y-137350000D03*
D13*
X165777500Y-128520000D03*
X159427500Y-131060000D03*
D11*
X158237500Y-118300000D03*
D10*
X168737500Y-114550000D03*
X158157500Y-114550000D03*
D11*
X163237500Y-120500000D03*
D10*
X157737500Y-114550000D03*
D12*
X163237500Y-114550000D03*
D10*
X168317500Y-114550000D03*
D13*
X165777500Y-109470000D03*
X159427500Y-112010000D03*
D14*
X218798986Y-64957716D03*
D15*
X224314418Y-59442284D03*
D10*
X187787500Y-76450000D03*
X177207500Y-76450000D03*
D11*
X177287500Y-80200000D03*
D12*
X182287500Y-76450000D03*
D10*
X187367500Y-76450000D03*
D11*
X182287500Y-82400000D03*
D10*
X176787500Y-76450000D03*
D13*
X184827500Y-71370000D03*
X178477500Y-73910000D03*
D14*
X176209252Y-64957716D03*
D15*
X181724684Y-59442284D03*
D14*
X187824634Y-64957716D03*
D15*
X193340066Y-59442284D03*
D10*
X101007500Y-95500000D03*
D12*
X106087500Y-95500000D03*
D11*
X106087500Y-101450000D03*
D10*
X111167500Y-95500000D03*
D11*
X101087500Y-99250000D03*
D10*
X100587500Y-95500000D03*
X111587500Y-95500000D03*
D13*
X108627500Y-90420000D03*
X102277500Y-92960000D03*
D10*
X100587500Y-76450000D03*
X111167500Y-76450000D03*
X111587500Y-76450000D03*
D11*
X101087500Y-80200000D03*
D12*
X106087500Y-76450000D03*
D11*
X106087500Y-82400000D03*
D10*
X101007500Y-76450000D03*
D13*
X108627500Y-71370000D03*
X102277500Y-73910000D03*
D11*
X87037500Y-82400000D03*
D10*
X92537500Y-76450000D03*
X81537500Y-76450000D03*
X92117500Y-76450000D03*
X81957500Y-76450000D03*
D11*
X82037500Y-80200000D03*
D12*
X87037500Y-76450000D03*
D13*
X89577500Y-71370000D03*
X83227500Y-73910000D03*
D14*
X98773372Y-64957716D03*
D15*
X104288804Y-59442284D03*
D10*
X233937500Y-95500000D03*
X244937500Y-95500000D03*
D11*
X239437500Y-101450000D03*
D10*
X244517500Y-95500000D03*
D12*
X239437500Y-95500000D03*
D11*
X234437500Y-99250000D03*
D10*
X234357500Y-95500000D03*
D13*
X241977500Y-90420000D03*
X235627500Y-92960000D03*
D14*
X238157956Y-64957716D03*
D15*
X243673388Y-59442284D03*
D14*
X133619518Y-64957716D03*
D15*
X139134950Y-59442284D03*
D10*
X215307500Y-133600000D03*
D11*
X220387500Y-139550000D03*
D10*
X225887500Y-133600000D03*
D11*
X215387500Y-137350000D03*
D12*
X220387500Y-133600000D03*
D10*
X225467500Y-133600000D03*
X214887500Y-133600000D03*
D13*
X222927500Y-128520000D03*
X216577500Y-131060000D03*
D14*
X129747724Y-64957716D03*
D15*
X135263156Y-59442284D03*
D14*
X180081046Y-64957716D03*
D15*
X185596478Y-59442284D03*
D14*
X183952840Y-64957716D03*
D15*
X189468272Y-59442284D03*
D10*
X196257500Y-114550000D03*
X206837500Y-114550000D03*
D11*
X201337500Y-120500000D03*
D12*
X201337500Y-114550000D03*
D10*
X206417500Y-114550000D03*
D11*
X196337500Y-118300000D03*
D10*
X195837500Y-114550000D03*
D13*
X203877500Y-109470000D03*
X197527500Y-112010000D03*
D14*
X160722076Y-64957716D03*
D15*
X166237508Y-59442284D03*
D17*
X92437500Y-49600000D03*
X92437500Y-56100000D03*
X96937500Y-56100000D03*
X96937500Y-49600000D03*
M02*
