G04 #@! TF.GenerationSoftware,KiCad,Pcbnew,6.0.7-f9a2dced07~116~ubuntu20.04.1*
G04 #@! TF.CreationDate,2022-09-23T22:55:04+08:00*
G04 #@! TF.ProjectId,V4,56342e6b-6963-4616-945f-706362585858,rev?*
G04 #@! TF.SameCoordinates,Original*
G04 #@! TF.FileFunction,Legend,Top*
G04 #@! TF.FilePolarity,Positive*
%FSLAX46Y46*%
G04 Gerber Fmt 4.6, Leading zero omitted, Abs format (unit mm)*
G04 Created by KiCad (PCBNEW 6.0.7-f9a2dced07~116~ubuntu20.04.1) date 2022-09-23 22:55:04*
%MOMM*%
%LPD*%
G01*
G04 APERTURE LIST*
G04 Aperture macros list*
%AMRotRect*
0 Rectangle, with rotation*
0 The origin of the aperture is its center*
0 $1 length*
0 $2 width*
0 $3 Rotation angle, in degrees counterclockwise*
0 Add horizontal line*
21,1,$1,$2,0,0,$3*%
G04 Aperture macros list end*
G04 #@! TA.AperFunction,Profile*
%ADD10C,0.050000*%
G04 #@! TD*
%ADD11C,1.000000*%
%ADD12C,0.150000*%
%ADD13C,0.381000*%
%ADD14C,0.120000*%
%ADD15C,1.752600*%
%ADD16RotRect,1.752600X1.752600X345.000000*%
%ADD17C,1.701800*%
%ADD18C,3.000000*%
%ADD19C,3.987800*%
%ADD20C,2.286000*%
%ADD21C,5.000000*%
%ADD22C,2.000000*%
%ADD23RotRect,1.600000X1.600000X45.000000*%
%ADD24C,1.600000*%
G04 APERTURE END LIST*
D10*
X59436000Y-154686000D02*
X59436000Y-78486000D01*
X59436000Y-154686000D02*
G75*
G03*
X61722000Y-156972000I2286000J0D01*
G01*
X134962250Y-76200000D02*
X131178300Y-76200000D01*
X134962250Y-76200047D02*
G75*
G03*
X136434319Y-75070441I-50J1524047D01*
G01*
X60960000Y-76200000D02*
G75*
G03*
X59436000Y-77724000I0J-1524000D01*
G01*
X61722000Y-76200000D02*
X131178300Y-76200000D01*
X61722000Y-76200000D02*
X60960000Y-76200000D01*
X252222000Y-156972000D02*
X61722000Y-156972000D01*
X254507993Y-79667100D02*
G75*
G03*
X253365350Y-78179844I-1523993J11700D01*
G01*
X252222000Y-156972000D02*
G75*
G03*
X254508000Y-154686000I0J2286000D01*
G01*
X59436000Y-77724000D02*
X59436000Y-78486000D01*
X145016441Y-49147744D02*
X151738470Y-50953142D01*
X145016443Y-49147735D02*
G75*
G03*
X143149931Y-50225373I-394443J-1472065D01*
G01*
X254507999Y-79667100D02*
X254508000Y-154686000D01*
X151738470Y-50953142D02*
X253365350Y-78179844D01*
X143149931Y-50225373D02*
X136434319Y-75070441D01*
D11*
X198624355Y-71402224D02*
X197630715Y-68671035D01*
X195864567Y-70662741D02*
X197158663Y-65833112D01*
X198998521Y-66326100D01*
X199396862Y-66679330D01*
X199565221Y-66970936D01*
X199671956Y-67492524D01*
X199487086Y-68182471D01*
X199133856Y-68580812D01*
X198842250Y-68749171D01*
X198320662Y-68855906D01*
X196480803Y-68362917D01*
X200525838Y-71665230D02*
X201154161Y-72080083D01*
X202304073Y-72388201D01*
X202825661Y-72281466D01*
X203117267Y-72113107D01*
X203470497Y-71714766D01*
X203593744Y-71254801D01*
X203487009Y-70733213D01*
X203318650Y-70441607D01*
X202920309Y-70088378D01*
X202062003Y-69611901D01*
X201663662Y-69258672D01*
X201495303Y-68967066D01*
X201388568Y-68445477D01*
X201511815Y-67985513D01*
X201865045Y-67587172D01*
X202156650Y-67418813D01*
X202678239Y-67312078D01*
X203828150Y-67620196D01*
X204456474Y-68035049D01*
X207593667Y-73805544D02*
X205293843Y-73189308D01*
X206587938Y-68359679D01*
X209343302Y-72795391D02*
X211643126Y-73411627D01*
X208513596Y-74052038D02*
X211417568Y-69653774D01*
X211733349Y-74914768D01*
X213947373Y-70331633D02*
X216707161Y-71071116D01*
X214033172Y-75531004D02*
X215327267Y-70701375D01*
X217700802Y-73802305D02*
X219310678Y-74233670D01*
X219322766Y-76948346D02*
X217022943Y-76332110D01*
X218317038Y-71502481D01*
X220616861Y-72118717D01*
D12*
X202999977Y-74311924D02*
X203125642Y-74394894D01*
X203159313Y-74453215D01*
X203180660Y-74557533D01*
X203143686Y-74695522D01*
X203073040Y-74775191D01*
X203014719Y-74808862D01*
X202910401Y-74830209D01*
X202542430Y-74731612D01*
X202801249Y-73765686D01*
X203123224Y-73851959D01*
X203202892Y-73922605D01*
X203236564Y-73980926D01*
X203257911Y-74085244D01*
X203233262Y-74177237D01*
X203162616Y-74256905D01*
X203104295Y-74290577D01*
X202999977Y-74311924D01*
X202678002Y-74225651D01*
X203588909Y-74321831D02*
X203646345Y-75027405D01*
X204048873Y-74445078D02*
X203646345Y-75027405D01*
X203492728Y-75232738D01*
X203434407Y-75266410D01*
X203330090Y-75287757D01*
X204268948Y-75095633D02*
X204302620Y-75153955D01*
X204244299Y-75187626D01*
X204210627Y-75129305D01*
X204268948Y-75095633D01*
X204244299Y-75187626D01*
X204404520Y-74589672D02*
X204438192Y-74647993D01*
X204379871Y-74681665D01*
X204346199Y-74623344D01*
X204404520Y-74589672D01*
X204379871Y-74681665D01*
X205975005Y-74616091D02*
X205790134Y-75306038D01*
X205707164Y-75431703D01*
X205590521Y-75499047D01*
X205440207Y-75508069D01*
X205348214Y-75483419D01*
X206556447Y-75757866D02*
X206452129Y-75779213D01*
X206268144Y-75729914D01*
X206188475Y-75659268D01*
X206167128Y-75554950D01*
X206265726Y-75186978D01*
X206336372Y-75107310D01*
X206440690Y-75085963D01*
X206624676Y-75135262D01*
X206704344Y-75205908D01*
X206725691Y-75310226D01*
X206701041Y-75402219D01*
X206216427Y-75370964D01*
X207004087Y-75927109D02*
X207176633Y-75283159D01*
X207127334Y-75467145D02*
X207197980Y-75387476D01*
X207256301Y-75353805D01*
X207360619Y-75332458D01*
X207452612Y-75357107D01*
X208108002Y-76222902D02*
X207556045Y-76075006D01*
X207832024Y-76148954D02*
X208090843Y-75183028D01*
X207961875Y-75296368D01*
X207845233Y-75363712D01*
X207740915Y-75385059D01*
X208710144Y-75447567D02*
X208768465Y-75413896D01*
X208872783Y-75392549D01*
X209102765Y-75454172D01*
X209182433Y-75524818D01*
X209216105Y-75583139D01*
X209237452Y-75687457D01*
X209212802Y-75779450D01*
X209129832Y-75905114D01*
X208429978Y-76309175D01*
X209027932Y-76469397D01*
X209608726Y-75589744D02*
X210206680Y-75749965D01*
X209786107Y-76031664D01*
X209924096Y-76068638D01*
X210003765Y-76139284D01*
X210037436Y-76197605D01*
X210058783Y-76301923D01*
X209997160Y-76531905D01*
X209926514Y-76611573D01*
X209868193Y-76645245D01*
X209763875Y-76666592D01*
X209487896Y-76592644D01*
X209408228Y-76521998D01*
X209374556Y-76463677D01*
X210328158Y-76768492D02*
X210407826Y-76839138D01*
X210591812Y-76888437D01*
X210696129Y-76867090D01*
X210766775Y-76787422D01*
X210779100Y-76741425D01*
X210757753Y-76637108D01*
X210678085Y-76566462D01*
X210540095Y-76529488D01*
X210460427Y-76458842D01*
X210439080Y-76354524D01*
X210451405Y-76308528D01*
X210522051Y-76228859D01*
X210626368Y-76207512D01*
X210764358Y-76244487D01*
X210844026Y-76315132D01*
X211524066Y-77088935D02*
X211419748Y-77110282D01*
X211235762Y-77060983D01*
X211156094Y-76990337D01*
X211134747Y-76886020D01*
X211233345Y-76518048D01*
X211303991Y-76438380D01*
X211408308Y-76417033D01*
X211592294Y-76466331D01*
X211671962Y-76536977D01*
X211693309Y-76641295D01*
X211668660Y-76733288D01*
X211184046Y-76702034D01*
X212477667Y-77393751D02*
X211925709Y-77245854D01*
X212201688Y-77319802D02*
X212460507Y-76353876D01*
X212331540Y-76467216D01*
X212214898Y-76534560D01*
X212110580Y-76555907D01*
X213079808Y-76618415D02*
X213138129Y-76584744D01*
X213242447Y-76563397D01*
X213472429Y-76625020D01*
X213552098Y-76695666D01*
X213585769Y-76753987D01*
X213607116Y-76858305D01*
X213582467Y-76950298D01*
X213499496Y-77075963D01*
X212799642Y-77480024D01*
X213397596Y-77640245D01*
X158279561Y-58789275D02*
X157506821Y-58582219D01*
X157556119Y-58398233D01*
X157622496Y-58297702D01*
X157715810Y-58243827D01*
X157799264Y-58226749D01*
X157956312Y-58229391D01*
X158066704Y-58258970D01*
X158204033Y-58335207D01*
X158267767Y-58391723D01*
X158321642Y-58485037D01*
X158328860Y-58605289D01*
X158279561Y-58789275D01*
X157753315Y-57662290D02*
X157773034Y-57588696D01*
X157829551Y-57524961D01*
X157876208Y-57498024D01*
X157959662Y-57480946D01*
X158116711Y-57483588D01*
X158300697Y-57532887D01*
X158438025Y-57609123D01*
X158501760Y-57665640D01*
X158528697Y-57712297D01*
X158545775Y-57795751D01*
X158526056Y-57869345D01*
X158469539Y-57933080D01*
X158422882Y-57960017D01*
X158339428Y-57977095D01*
X158182379Y-57974453D01*
X157998393Y-57925154D01*
X157861064Y-57848918D01*
X157797330Y-57792401D01*
X157770392Y-57745744D01*
X157753315Y-57662290D01*
X155826109Y-58131875D02*
X155053369Y-57924819D01*
X155102667Y-57740833D01*
X155169044Y-57640302D01*
X155262358Y-57586427D01*
X155345812Y-57569349D01*
X155502860Y-57571991D01*
X155613252Y-57601570D01*
X155750581Y-57677807D01*
X155814315Y-57734323D01*
X155868190Y-57827637D01*
X155875408Y-57947889D01*
X155826109Y-58131875D01*
X156141622Y-56954365D02*
X156023305Y-57395931D01*
X156082463Y-57175148D02*
X155309723Y-56968093D01*
X155400395Y-57071266D01*
X155454269Y-57164580D01*
X155471347Y-57248034D01*
X172664521Y-62367640D02*
X172730897Y-62267108D01*
X172777554Y-62240171D01*
X172861008Y-62223093D01*
X172971400Y-62252672D01*
X173035134Y-62309189D01*
X173062072Y-62355846D01*
X173079149Y-62439300D01*
X173000271Y-62733678D01*
X172227531Y-62526622D01*
X172296549Y-62269042D01*
X172353066Y-62205308D01*
X172399723Y-62178370D01*
X172483177Y-62161292D01*
X172556771Y-62181012D01*
X172620506Y-62237529D01*
X172647443Y-62284186D01*
X172664521Y-62367640D01*
X172595502Y-62625220D01*
X172533183Y-61385910D02*
X172434586Y-61753882D01*
X172792698Y-61889277D01*
X172765760Y-61842620D01*
X172748683Y-61759165D01*
X172797982Y-61575180D01*
X172854498Y-61511445D01*
X172901155Y-61484508D01*
X172984609Y-61467430D01*
X173168595Y-61516729D01*
X173232330Y-61573246D01*
X173259267Y-61619903D01*
X173276345Y-61703357D01*
X173227046Y-61887343D01*
X173170529Y-61951077D01*
X173123872Y-61978015D01*
X165639916Y-60761477D02*
X164867176Y-60554421D01*
X164916474Y-60370435D01*
X164982851Y-60269904D01*
X165076165Y-60216029D01*
X165159619Y-60198951D01*
X165316667Y-60201593D01*
X165427059Y-60231172D01*
X165564388Y-60307409D01*
X165628122Y-60363925D01*
X165681997Y-60457239D01*
X165689215Y-60577491D01*
X165639916Y-60761477D01*
X165054511Y-59855275D02*
X165192548Y-59340115D01*
X165876551Y-59878344D01*
X143195341Y-66015317D02*
X142758351Y-66174300D01*
X143077024Y-66456883D02*
X142304283Y-66249828D01*
X142383161Y-65955451D01*
X142439678Y-65891716D01*
X142486335Y-65864779D01*
X142569789Y-65847701D01*
X142680181Y-65877281D01*
X142743915Y-65933797D01*
X142770852Y-65980454D01*
X142787930Y-66063908D01*
X142709052Y-66358286D01*
X143053436Y-65661781D02*
X143152034Y-65293810D01*
X143254500Y-65794534D02*
X142550777Y-65329899D01*
X143392536Y-65279374D01*
X142669095Y-64888333D02*
X143491134Y-64911402D01*
X142978616Y-64616317D01*
X143570012Y-64617025D01*
X142846571Y-64225984D01*
X155131778Y-68917883D02*
X155062760Y-69175463D01*
X155467529Y-69283921D02*
X154694788Y-69076866D01*
X154793386Y-68708894D01*
X154970862Y-68046545D02*
X154872264Y-68414516D01*
X155230376Y-68549911D01*
X155203439Y-68503254D01*
X155186361Y-68419800D01*
X155235660Y-68235814D01*
X155292177Y-68172080D01*
X155338834Y-68145142D01*
X155422288Y-68128065D01*
X155606274Y-68177364D01*
X155670008Y-68233880D01*
X155696946Y-68280537D01*
X155714023Y-68363991D01*
X155664724Y-68547977D01*
X155608208Y-68611712D01*
X155561551Y-68638649D01*
X144336510Y-58665457D02*
X144454827Y-58223891D01*
X145168409Y-58651729D02*
X144395669Y-58444674D01*
X144504126Y-58039905D02*
X145414904Y-57731799D01*
X144642163Y-57524744D02*
X145276867Y-58246960D01*
X144760480Y-57083178D02*
X144780200Y-57009584D01*
X144836717Y-56945849D01*
X144883373Y-56918912D01*
X144966828Y-56901834D01*
X145123876Y-56904476D01*
X145307862Y-56953775D01*
X145445191Y-57030011D01*
X145508925Y-57086528D01*
X145535863Y-57133185D01*
X145552940Y-57216639D01*
X145533221Y-57290233D01*
X145476704Y-57353968D01*
X145430047Y-57380905D01*
X145346593Y-57397983D01*
X145189545Y-57395341D01*
X145005559Y-57346042D01*
X144868230Y-57269806D01*
X144804495Y-57213289D01*
X144777558Y-57166632D01*
X144760480Y-57083178D01*
X145029336Y-55932606D02*
X145845384Y-56861169D01*
X145907892Y-55891941D02*
X145135152Y-55684886D01*
X145184451Y-55500900D01*
X145250827Y-55400368D01*
X145344141Y-55346493D01*
X145427595Y-55329415D01*
X145584644Y-55332057D01*
X145695035Y-55361637D01*
X145832364Y-55437873D01*
X145896099Y-55494390D01*
X145949973Y-55587704D01*
X145957191Y-55707955D01*
X145907892Y-55891941D01*
X145322487Y-54985739D02*
X145450664Y-54507376D01*
X145676023Y-54843834D01*
X145705603Y-54733443D01*
X145762119Y-54669708D01*
X145808776Y-54642771D01*
X145892230Y-54625693D01*
X146076216Y-54674992D01*
X146139951Y-54731509D01*
X146166888Y-54778166D01*
X146183966Y-54861620D01*
X146124807Y-55082403D01*
X146068291Y-55146137D01*
X146021634Y-55173075D01*
X163231187Y-59642790D02*
X163258125Y-59689447D01*
X163265342Y-59809698D01*
X163245623Y-59883293D01*
X163179246Y-59983824D01*
X163085932Y-60037699D01*
X163002478Y-60054777D01*
X162845430Y-60052135D01*
X162735038Y-60022555D01*
X162597709Y-59946319D01*
X162533975Y-59889802D01*
X162480100Y-59796489D01*
X162472882Y-59676237D01*
X162492602Y-59602643D01*
X162558978Y-59502111D01*
X162605635Y-59475174D01*
X162709517Y-58793105D02*
X162670078Y-58940294D01*
X162687155Y-59023748D01*
X162714093Y-59070405D01*
X162804765Y-59173579D01*
X162942094Y-59249815D01*
X163236471Y-59328693D01*
X163319925Y-59311615D01*
X163366582Y-59284678D01*
X163423099Y-59220943D01*
X163462538Y-59073755D01*
X163445460Y-58990301D01*
X163418523Y-58943644D01*
X163354788Y-58887127D01*
X163170802Y-58837828D01*
X163087348Y-58854906D01*
X163040691Y-58881843D01*
X162984175Y-58945578D01*
X162944735Y-59092766D01*
X162961813Y-59176220D01*
X162988750Y-59222877D01*
X163052485Y-59279394D01*
X164930796Y-71602681D02*
X164997172Y-71502149D01*
X165043829Y-71475212D01*
X165127283Y-71458134D01*
X165237675Y-71487713D01*
X165301409Y-71544230D01*
X165328347Y-71590887D01*
X165345424Y-71674341D01*
X165266546Y-71968719D01*
X164493806Y-71761663D01*
X164562824Y-71504083D01*
X164619341Y-71440349D01*
X164665998Y-71413411D01*
X164749452Y-71396333D01*
X164823046Y-71416053D01*
X164886781Y-71472570D01*
X164913718Y-71519227D01*
X164930796Y-71602681D01*
X164861777Y-71860261D01*
X164681141Y-71062517D02*
X164809318Y-70584154D01*
X165034677Y-70920612D01*
X165064257Y-70810221D01*
X165120773Y-70746486D01*
X165167430Y-70719549D01*
X165250884Y-70702471D01*
X165434870Y-70751770D01*
X165498605Y-70808287D01*
X165525542Y-70854944D01*
X165542620Y-70938398D01*
X165483461Y-71159181D01*
X165426944Y-71222915D01*
X165380288Y-71249853D01*
X169837699Y-72917482D02*
X169904075Y-72816950D01*
X169950732Y-72790013D01*
X170034186Y-72772935D01*
X170144578Y-72802514D01*
X170208312Y-72859031D01*
X170235250Y-72905688D01*
X170252327Y-72989142D01*
X170173449Y-73283520D01*
X169400709Y-73076464D01*
X169469727Y-72818884D01*
X169526244Y-72755150D01*
X169572901Y-72728212D01*
X169656355Y-72711134D01*
X169729949Y-72730854D01*
X169793684Y-72787371D01*
X169820621Y-72834028D01*
X169837699Y-72917482D01*
X169768680Y-73175062D01*
X169696502Y-71972549D02*
X169657063Y-72119738D01*
X169674140Y-72203192D01*
X169701078Y-72249849D01*
X169791750Y-72353023D01*
X169929079Y-72429259D01*
X170223456Y-72508137D01*
X170306910Y-72491059D01*
X170353567Y-72464122D01*
X170410084Y-72400387D01*
X170449523Y-72253199D01*
X170432445Y-72169745D01*
X170405508Y-72123088D01*
X170341773Y-72066571D01*
X170157787Y-72017272D01*
X170074333Y-72034350D01*
X170027676Y-72061287D01*
X169971160Y-72125022D01*
X169931720Y-72272210D01*
X169948798Y-72355664D01*
X169975735Y-72402321D01*
X170039470Y-72458838D01*
X152678327Y-68260483D02*
X152609309Y-68518063D01*
X153014078Y-68626521D02*
X152241337Y-68419466D01*
X152339935Y-68051494D01*
X152765131Y-67494960D02*
X153280292Y-67632997D01*
X152421455Y-67600068D02*
X152924114Y-67931950D01*
X153052291Y-67453587D01*
X150178333Y-56638277D02*
X150121816Y-56702011D01*
X150092237Y-56812403D01*
X150099455Y-56932654D01*
X150153329Y-57025968D01*
X150217064Y-57082485D01*
X150354393Y-57158721D01*
X150464784Y-57188300D01*
X150621833Y-57190942D01*
X150705287Y-57173865D01*
X150798601Y-57119990D01*
X150864977Y-57019458D01*
X150884697Y-56945864D01*
X150877479Y-56825612D01*
X150850542Y-56778955D01*
X150592961Y-56709937D01*
X150553522Y-56857126D01*
X151012874Y-56467500D02*
X150240133Y-56260445D01*
X151131191Y-56025934D01*
X150358451Y-55818879D01*
X151229789Y-55657963D02*
X150457048Y-55450907D01*
X150506347Y-55266921D01*
X150572724Y-55166390D01*
X150666038Y-55112515D01*
X150749492Y-55095437D01*
X150906540Y-55098079D01*
X151016932Y-55127659D01*
X151154261Y-55203895D01*
X151217995Y-55260411D01*
X151271870Y-55353725D01*
X151279088Y-55473977D01*
X151229789Y-55657963D01*
X162477344Y-70945280D02*
X162543720Y-70844748D01*
X162590377Y-70817811D01*
X162673831Y-70800733D01*
X162784223Y-70830312D01*
X162847957Y-70886829D01*
X162874895Y-70933486D01*
X162891972Y-71016940D01*
X162813094Y-71311318D01*
X162040354Y-71104262D01*
X162109372Y-70846682D01*
X162165889Y-70782948D01*
X162212546Y-70756010D01*
X162296000Y-70738932D01*
X162369594Y-70758652D01*
X162433329Y-70815169D01*
X162460266Y-70861826D01*
X162477344Y-70945280D01*
X162408325Y-71202860D01*
X163128607Y-70133808D02*
X163010290Y-70575374D01*
X163069448Y-70354591D02*
X162296708Y-70147536D01*
X162387380Y-70250709D01*
X162441254Y-70344023D01*
X162458332Y-70427477D01*
X170211069Y-61710239D02*
X170277445Y-61609707D01*
X170324102Y-61582770D01*
X170407556Y-61565692D01*
X170517948Y-61595271D01*
X170581682Y-61651788D01*
X170608620Y-61698445D01*
X170625697Y-61781899D01*
X170546819Y-62076277D01*
X169774079Y-61869221D01*
X169843097Y-61611641D01*
X169899614Y-61547907D01*
X169946271Y-61520969D01*
X170029725Y-61503891D01*
X170103319Y-61523611D01*
X170167054Y-61580128D01*
X170193991Y-61626785D01*
X170211069Y-61710239D01*
X170142050Y-61967819D01*
X170327452Y-60834324D02*
X170842612Y-60972361D01*
X169983776Y-60939432D02*
X170486434Y-61271315D01*
X170614611Y-60792951D01*
X167698458Y-61273622D02*
X167767476Y-61016042D01*
X168201825Y-61014108D02*
X168103227Y-61382079D01*
X167330486Y-61175024D01*
X167429084Y-60807052D01*
X167606560Y-60144703D02*
X167567121Y-60291892D01*
X167584198Y-60375346D01*
X167611136Y-60422003D01*
X167701808Y-60525177D01*
X167839137Y-60601413D01*
X168133514Y-60680291D01*
X168216968Y-60663214D01*
X168263625Y-60636276D01*
X168320142Y-60572542D01*
X168359581Y-60425353D01*
X168342503Y-60341899D01*
X168315566Y-60295242D01*
X168251831Y-60238725D01*
X168067846Y-60189426D01*
X167984391Y-60206504D01*
X167937735Y-60233441D01*
X167881218Y-60297176D01*
X167841779Y-60444364D01*
X167858856Y-60527819D01*
X167885794Y-60574476D01*
X167949528Y-60630992D01*
X160733013Y-59446676D02*
X159960273Y-59239620D01*
X160009571Y-59055634D01*
X160075948Y-58955103D01*
X160169262Y-58901228D01*
X160252716Y-58884150D01*
X160409764Y-58886792D01*
X160520156Y-58916371D01*
X160657485Y-58992608D01*
X160721219Y-59049124D01*
X160775094Y-59142438D01*
X160782312Y-59262690D01*
X160733013Y-59446676D01*
X160513646Y-58204723D02*
X161028806Y-58342760D01*
X160169970Y-58309831D02*
X160672628Y-58641714D01*
X160800805Y-58163350D01*
X148160022Y-66890029D02*
X148226398Y-66789497D01*
X148275697Y-66605511D01*
X148258619Y-66522057D01*
X148231682Y-66475400D01*
X148167947Y-66418884D01*
X148094353Y-66399164D01*
X148010899Y-66416242D01*
X147964242Y-66443179D01*
X147907725Y-66506914D01*
X147831489Y-66644243D01*
X147774972Y-66707977D01*
X147728315Y-66734915D01*
X147644861Y-66751992D01*
X147571267Y-66732273D01*
X147507532Y-66675756D01*
X147480595Y-66629099D01*
X147463517Y-66545645D01*
X147512816Y-66361659D01*
X147579193Y-66261127D01*
X147601554Y-66030484D02*
X147719871Y-65588918D01*
X148433453Y-66016757D02*
X147660713Y-65809701D01*
X167384247Y-72260081D02*
X167450623Y-72159549D01*
X167497280Y-72132612D01*
X167580734Y-72115534D01*
X167691126Y-72145113D01*
X167754860Y-72201630D01*
X167781798Y-72248287D01*
X167798875Y-72331741D01*
X167719997Y-72626119D01*
X166947257Y-72419063D01*
X167016275Y-72161483D01*
X167072792Y-72097749D01*
X167119449Y-72070811D01*
X167202903Y-72053733D01*
X167276497Y-72073453D01*
X167340232Y-72129970D01*
X167367169Y-72176627D01*
X167384247Y-72260081D01*
X167315228Y-72517661D01*
X167218046Y-71702839D02*
X167191109Y-71656182D01*
X167174031Y-71572728D01*
X167223330Y-71388742D01*
X167279847Y-71325008D01*
X167326504Y-71298070D01*
X167409958Y-71280993D01*
X167483552Y-71300712D01*
X167584084Y-71367089D01*
X167907333Y-71926972D01*
X168035510Y-71448609D01*
X157585230Y-69575284D02*
X157516212Y-69832864D01*
X157920981Y-69941322D02*
X157148240Y-69734267D01*
X157246838Y-69366295D01*
X157414454Y-68740743D02*
X157375015Y-68887932D01*
X157392093Y-68971386D01*
X157419030Y-69018043D01*
X157509702Y-69121216D01*
X157647031Y-69197453D01*
X157941408Y-69276331D01*
X158024862Y-69259253D01*
X158071519Y-69232316D01*
X158128036Y-69168581D01*
X158167475Y-69021392D01*
X158150398Y-68937938D01*
X158123460Y-68891281D01*
X158059726Y-68834765D01*
X157875740Y-68785466D01*
X157792286Y-68802543D01*
X157745629Y-68829481D01*
X157689112Y-68893215D01*
X157649673Y-69040404D01*
X157666750Y-69123858D01*
X157693688Y-69170515D01*
X157757422Y-69227032D01*
X144898060Y-66530719D02*
X144841543Y-66594453D01*
X144811964Y-66704845D01*
X144819182Y-66825096D01*
X144873056Y-66918410D01*
X144936791Y-66974927D01*
X145074120Y-67051163D01*
X145184511Y-67080742D01*
X145341560Y-67083384D01*
X145425014Y-67066307D01*
X145518328Y-67012432D01*
X145584704Y-66911900D01*
X145604424Y-66838306D01*
X145597206Y-66718054D01*
X145570269Y-66671397D01*
X145312688Y-66602379D01*
X145273249Y-66749568D01*
X145732601Y-66359942D02*
X144959860Y-66152887D01*
X145850918Y-65918376D01*
X145078178Y-65711321D01*
X145949516Y-65550405D02*
X145176775Y-65343349D01*
X145226074Y-65159363D01*
X145292451Y-65058832D01*
X145385765Y-65004957D01*
X145469219Y-64987879D01*
X145626267Y-64990521D01*
X145736659Y-65020101D01*
X145873988Y-65096337D01*
X145937722Y-65152853D01*
X145991597Y-65246167D01*
X145998815Y-65366419D01*
X145949516Y-65550405D01*
X152631785Y-57295678D02*
X152575268Y-57359412D01*
X152545689Y-57469804D01*
X152552907Y-57590055D01*
X152606781Y-57683369D01*
X152670516Y-57739886D01*
X152807845Y-57816122D01*
X152918236Y-57845701D01*
X153075285Y-57848343D01*
X153158739Y-57831266D01*
X153252053Y-57777391D01*
X153318429Y-57676859D01*
X153338149Y-57603265D01*
X153330931Y-57483013D01*
X153303994Y-57436356D01*
X153046413Y-57367338D01*
X153006974Y-57514527D01*
X153466326Y-57124901D02*
X152693585Y-56917846D01*
X153584643Y-56683335D01*
X152811903Y-56476280D01*
X153683241Y-56315364D02*
X152910500Y-56108308D01*
X152959799Y-55924322D01*
X153026176Y-55823791D01*
X153119490Y-55769916D01*
X153202944Y-55752838D01*
X153359992Y-55755480D01*
X153470384Y-55785060D01*
X153607713Y-55861296D01*
X153671447Y-55917812D01*
X153725322Y-56011126D01*
X153732540Y-56131378D01*
X153683241Y-56315364D01*
X149649848Y-68277226D02*
X150491607Y-68226701D01*
X149787885Y-67762066D01*
X150674367Y-67250255D02*
X150701305Y-67296912D01*
X150708522Y-67417163D01*
X150688803Y-67490758D01*
X150622426Y-67591289D01*
X150529112Y-67645164D01*
X150445658Y-67662242D01*
X150288610Y-67659600D01*
X150178218Y-67630020D01*
X150040889Y-67553784D01*
X149977155Y-67497267D01*
X149923280Y-67403954D01*
X149916062Y-67283702D01*
X149935782Y-67210108D01*
X150002158Y-67109576D01*
X150048815Y-67082639D01*
X150881422Y-66477514D02*
X150908360Y-66524171D01*
X150915578Y-66644423D01*
X150895858Y-66718017D01*
X150829482Y-66818549D01*
X150736168Y-66872423D01*
X150652714Y-66889501D01*
X150495665Y-66886859D01*
X150385274Y-66857280D01*
X150247945Y-66781044D01*
X150184210Y-66724527D01*
X150130335Y-66631213D01*
X150123117Y-66510962D01*
X150142837Y-66437367D01*
X150209213Y-66336836D01*
X150255870Y-66309898D01*
X148465755Y-56159674D02*
X147693015Y-55952618D01*
X147742313Y-55768632D01*
X147808690Y-55668101D01*
X147902004Y-55614226D01*
X147985458Y-55597148D01*
X148142506Y-55599790D01*
X148252898Y-55629369D01*
X148390227Y-55705606D01*
X148453961Y-55762122D01*
X148507836Y-55855436D01*
X148515054Y-55975688D01*
X148465755Y-56159674D01*
X147963804Y-55236394D02*
X147936867Y-55189737D01*
X147919789Y-55106283D01*
X147969088Y-54922297D01*
X148025605Y-54858563D01*
X148072262Y-54831625D01*
X148155716Y-54814548D01*
X148229310Y-54834267D01*
X148329842Y-54900644D01*
X148653091Y-55460527D01*
X148781268Y-54982164D01*
X160038682Y-70232684D02*
X159969664Y-70490264D01*
X160374433Y-70598722D02*
X159601692Y-70391667D01*
X159700290Y-70023695D01*
X159759449Y-69802912D02*
X159897485Y-69287751D01*
X160581488Y-69825981D01*
X186880666Y-68222761D02*
X187023523Y-68270380D01*
X187261619Y-68270380D01*
X187356857Y-68222761D01*
X187404476Y-68175142D01*
X187452095Y-68079904D01*
X187452095Y-67984666D01*
X187404476Y-67889428D01*
X187356857Y-67841809D01*
X187261619Y-67794190D01*
X187071142Y-67746571D01*
X186975904Y-67698952D01*
X186928285Y-67651333D01*
X186880666Y-67556095D01*
X186880666Y-67460857D01*
X186928285Y-67365619D01*
X186975904Y-67318000D01*
X187071142Y-67270380D01*
X187309238Y-67270380D01*
X187452095Y-67318000D01*
X187785428Y-67270380D02*
X188023523Y-68270380D01*
X188214000Y-67556095D01*
X188404476Y-68270380D01*
X188642571Y-67270380D01*
X189547333Y-68270380D02*
X188975904Y-68270380D01*
X189261619Y-68270380D02*
X189261619Y-67270380D01*
X189166380Y-67413238D01*
X189071142Y-67508476D01*
X188975904Y-67556095D01*
G36*
X147447676Y-66980029D02*
G01*
X147318267Y-67462992D01*
X147221674Y-67437110D01*
X147351084Y-66954147D01*
X147447676Y-66980029D01*
G37*
X147447676Y-66980029D02*
X147318267Y-67462992D01*
X147221674Y-67437110D01*
X147351084Y-66954147D01*
X147447676Y-66980029D01*
G36*
X148123824Y-67161203D02*
G01*
X148097943Y-67257795D01*
X147904757Y-67206031D01*
X147930639Y-67109439D01*
X148123824Y-67161203D01*
G37*
X148123824Y-67161203D02*
X148097943Y-67257795D01*
X147904757Y-67206031D01*
X147930639Y-67109439D01*
X148123824Y-67161203D01*
G36*
X148020297Y-67547573D02*
G01*
X147994415Y-67644165D01*
X147221674Y-67437110D01*
X147247556Y-67340518D01*
X148020297Y-67547573D01*
G37*
X148020297Y-67547573D02*
X147994415Y-67644165D01*
X147221674Y-67437110D01*
X147247556Y-67340518D01*
X148020297Y-67547573D01*
G36*
X147782283Y-67276742D02*
G01*
X147756401Y-67373335D01*
X147659808Y-67347453D01*
X147685690Y-67250860D01*
X147782283Y-67276742D01*
G37*
X147782283Y-67276742D02*
X147756401Y-67373335D01*
X147659808Y-67347453D01*
X147685690Y-67250860D01*
X147782283Y-67276742D01*
G36*
X147640862Y-67031793D02*
G01*
X147614980Y-67128386D01*
X147325202Y-67050740D01*
X147351084Y-66954147D01*
X147640862Y-67031793D01*
G37*
X147640862Y-67031793D02*
X147614980Y-67128386D01*
X147325202Y-67050740D01*
X147351084Y-66954147D01*
X147640862Y-67031793D01*
D13*
X147272373Y-54308242D02*
X147929773Y-51854790D01*
X174917741Y-59086194D02*
X170315938Y-76260355D01*
X143022870Y-50539989D02*
X174917741Y-59086194D01*
X144818921Y-53650841D02*
X147272373Y-54308242D01*
X144818921Y-53650841D02*
X145476322Y-51197390D01*
X138421068Y-67714150D02*
X143022870Y-50539989D01*
X170315938Y-76260355D02*
X138421068Y-67714150D01*
D12*
X230647000Y-138161000D02*
X229647000Y-138161000D01*
X229647000Y-152161000D02*
X230647000Y-152161000D01*
X216647000Y-139161000D02*
X216647000Y-138161000D01*
X230647000Y-151161000D02*
X230647000Y-152161000D01*
X230647000Y-138161000D02*
X230647000Y-139161000D01*
D14*
X233172000Y-154686000D02*
X214122000Y-154686000D01*
X214122000Y-154686000D02*
X214122000Y-135636000D01*
X214122000Y-135636000D02*
X233172000Y-135636000D01*
D12*
X216647000Y-152161000D02*
X217647000Y-152161000D01*
X230647000Y-152161000D02*
X229647000Y-152161000D01*
D14*
X233172000Y-135636000D02*
X233172000Y-154686000D01*
D12*
X217647000Y-138161000D02*
X216647000Y-138161000D01*
X216647000Y-152161000D02*
X216647000Y-151161000D01*
X217647001Y-100061000D02*
X216647001Y-100061000D01*
X230647001Y-113061000D02*
X230647001Y-114061000D01*
D14*
X233172001Y-116586000D02*
X214122001Y-116586000D01*
X214122001Y-97536000D02*
X233172001Y-97536000D01*
D12*
X230647001Y-100061000D02*
X229647001Y-100061000D01*
D14*
X233172001Y-97536000D02*
X233172001Y-116586000D01*
D12*
X216647001Y-101061000D02*
X216647001Y-100061000D01*
X216647001Y-114061000D02*
X216647001Y-113061000D01*
D14*
X214122001Y-116586000D02*
X214122001Y-97536000D01*
D12*
X216647001Y-114061000D02*
X217647001Y-114061000D01*
X230647001Y-100061000D02*
X230647001Y-101061000D01*
X230647001Y-114061000D02*
X229647001Y-114061000D01*
X229647001Y-114061000D02*
X230647001Y-114061000D01*
D14*
X156972000Y-97536000D02*
X156972000Y-116586000D01*
D12*
X140447000Y-101061000D02*
X140447000Y-100061000D01*
X140447000Y-114061000D02*
X141447000Y-114061000D01*
X154447000Y-113061000D02*
X154447000Y-114061000D01*
D14*
X137922000Y-116586000D02*
X137922000Y-97536000D01*
X156972000Y-116586000D02*
X137922000Y-116586000D01*
D12*
X140447000Y-114061000D02*
X140447000Y-113061000D01*
X154447000Y-114061000D02*
X153447000Y-114061000D01*
X154447000Y-100061000D02*
X153447000Y-100061000D01*
D14*
X137922000Y-97536000D02*
X156972000Y-97536000D01*
D12*
X154447000Y-100061000D02*
X154447000Y-101061000D01*
X141447000Y-100061000D02*
X140447000Y-100061000D01*
X153447000Y-114061000D02*
X154447000Y-114061000D01*
X248697000Y-152161000D02*
X249697000Y-152161000D01*
D14*
X252222000Y-154686000D02*
X233172000Y-154686000D01*
D12*
X235697000Y-139161000D02*
X235697000Y-138161000D01*
X236697000Y-138161000D02*
X235697000Y-138161000D01*
D14*
X252222000Y-135636000D02*
X252222000Y-154686000D01*
X233172000Y-154686000D02*
X233172000Y-135636000D01*
D12*
X249697000Y-152161000D02*
X248697000Y-152161000D01*
X249697000Y-138161000D02*
X248697000Y-138161000D01*
X249697000Y-151161000D02*
X249697000Y-152161000D01*
X235697000Y-152161000D02*
X236697000Y-152161000D01*
X249697000Y-138161000D02*
X249697000Y-139161000D01*
X235697000Y-152161000D02*
X235697000Y-151161000D01*
D14*
X233172000Y-135636000D02*
X252222000Y-135636000D01*
D12*
X135397000Y-81011000D02*
X135397000Y-82011000D01*
D14*
X118872000Y-97536000D02*
X118872000Y-78486000D01*
X118872000Y-78486000D02*
X137922000Y-78486000D01*
D12*
X121397000Y-95011000D02*
X122397000Y-95011000D01*
X134397000Y-95011000D02*
X135397000Y-95011000D01*
D14*
X137922000Y-78486000D02*
X137922000Y-97536000D01*
D12*
X121397000Y-82011000D02*
X121397000Y-81011000D01*
X135397000Y-81011000D02*
X134397000Y-81011000D01*
X135397000Y-95011000D02*
X134397000Y-95011000D01*
X121397000Y-95011000D02*
X121397000Y-94011000D01*
X135397000Y-94011000D02*
X135397000Y-95011000D01*
D14*
X137922000Y-97536000D02*
X118872000Y-97536000D01*
D12*
X122397000Y-81011000D02*
X121397000Y-81011000D01*
D14*
X118872000Y-116586000D02*
X137922000Y-116586000D01*
D12*
X135397000Y-119111000D02*
X135397000Y-120111000D01*
X134397000Y-133111000D02*
X135397000Y-133111000D01*
X121397000Y-120111000D02*
X121397000Y-119111000D01*
X135397000Y-133111000D02*
X134397000Y-133111000D01*
X135397000Y-119111000D02*
X134397000Y-119111000D01*
D14*
X137922000Y-135636000D02*
X118872000Y-135636000D01*
D12*
X122397000Y-119111000D02*
X121397000Y-119111000D01*
X135397000Y-132111000D02*
X135397000Y-133111000D01*
X121397000Y-133111000D02*
X122397000Y-133111000D01*
D14*
X137922000Y-116586000D02*
X137922000Y-135636000D01*
X118872000Y-135636000D02*
X118872000Y-116586000D01*
D12*
X121397000Y-133111000D02*
X121397000Y-132111000D01*
X135397000Y-138161000D02*
X134397000Y-138161000D01*
D14*
X137922000Y-154686000D02*
X118872000Y-154686000D01*
D12*
X121397000Y-152161000D02*
X121397000Y-151161000D01*
X135397000Y-138161000D02*
X135397000Y-139161000D01*
X121397000Y-152161000D02*
X122397000Y-152161000D01*
X121397000Y-139161000D02*
X121397000Y-138161000D01*
D14*
X118872000Y-135636000D02*
X137922000Y-135636000D01*
D12*
X135397000Y-152161000D02*
X134397000Y-152161000D01*
D14*
X118872000Y-154686000D02*
X118872000Y-135636000D01*
D12*
X135397000Y-151161000D02*
X135397000Y-152161000D01*
X134397000Y-152161000D02*
X135397000Y-152161000D01*
D14*
X137922000Y-135636000D02*
X137922000Y-154686000D01*
D12*
X122397000Y-138161000D02*
X121397000Y-138161000D01*
X178547000Y-95011000D02*
X179547000Y-95011000D01*
X192547000Y-81011000D02*
X191547000Y-81011000D01*
D14*
X195072000Y-78486000D02*
X195072000Y-97536000D01*
X195072000Y-97536000D02*
X176022000Y-97536000D01*
D12*
X192547000Y-81011000D02*
X192547000Y-82011000D01*
X179547000Y-81011000D02*
X178547000Y-81011000D01*
D14*
X176022000Y-78486000D02*
X195072000Y-78486000D01*
D12*
X178547000Y-95011000D02*
X178547000Y-94011000D01*
X178547000Y-82011000D02*
X178547000Y-81011000D01*
X191547000Y-95011000D02*
X192547000Y-95011000D01*
X192547000Y-95011000D02*
X191547000Y-95011000D01*
X192547000Y-94011000D02*
X192547000Y-95011000D01*
D14*
X176022000Y-97536000D02*
X176022000Y-78486000D01*
D12*
X178547000Y-114061000D02*
X178547000Y-113061000D01*
X192547000Y-113061000D02*
X192547000Y-114061000D01*
X191547000Y-114061000D02*
X192547000Y-114061000D01*
D14*
X176022000Y-97536000D02*
X195072000Y-97536000D01*
X195072000Y-97536000D02*
X195072000Y-116586000D01*
D12*
X192547000Y-114061000D02*
X191547000Y-114061000D01*
X192547000Y-100061000D02*
X192547000Y-101061000D01*
X192547000Y-100061000D02*
X191547000Y-100061000D01*
X178547000Y-101061000D02*
X178547000Y-100061000D01*
X179547000Y-100061000D02*
X178547000Y-100061000D01*
D14*
X176022000Y-116586000D02*
X176022000Y-97536000D01*
D12*
X178547000Y-114061000D02*
X179547000Y-114061000D01*
D14*
X195072000Y-116586000D02*
X176022000Y-116586000D01*
X195072000Y-78486000D02*
X214122000Y-78486000D01*
D12*
X211597000Y-81011000D02*
X210597000Y-81011000D01*
X211597000Y-95011000D02*
X210597000Y-95011000D01*
D14*
X195072000Y-97536000D02*
X195072000Y-78486000D01*
D12*
X197597000Y-95011000D02*
X198597000Y-95011000D01*
X197597000Y-95011000D02*
X197597000Y-94011000D01*
X197597000Y-82011000D02*
X197597000Y-81011000D01*
D14*
X214122000Y-78486000D02*
X214122000Y-97536000D01*
D12*
X211597000Y-81011000D02*
X211597000Y-82011000D01*
X198597000Y-81011000D02*
X197597000Y-81011000D01*
D14*
X214122000Y-97536000D02*
X195072000Y-97536000D01*
D12*
X210597000Y-95011000D02*
X211597000Y-95011000D01*
X211597000Y-94011000D02*
X211597000Y-95011000D01*
X154447000Y-119111000D02*
X154447000Y-120111000D01*
D14*
X137922000Y-116586000D02*
X156972000Y-116586000D01*
X156972000Y-135636000D02*
X137922000Y-135636000D01*
X156972000Y-116586000D02*
X156972000Y-135636000D01*
D12*
X154447000Y-133111000D02*
X153447000Y-133111000D01*
X140447000Y-120111000D02*
X140447000Y-119111000D01*
D14*
X137922000Y-135636000D02*
X137922000Y-116586000D01*
D12*
X154447000Y-119111000D02*
X153447000Y-119111000D01*
X140447000Y-133111000D02*
X141447000Y-133111000D01*
X153447000Y-133111000D02*
X154447000Y-133111000D01*
X141447000Y-119111000D02*
X140447000Y-119111000D01*
X154447000Y-132111000D02*
X154447000Y-133111000D01*
X140447000Y-133111000D02*
X140447000Y-132111000D01*
X116347001Y-100061000D02*
X115347001Y-100061000D01*
X102347001Y-114061000D02*
X103347001Y-114061000D01*
D14*
X118872001Y-97536000D02*
X118872001Y-116586000D01*
D12*
X116347001Y-114061000D02*
X115347001Y-114061000D01*
D14*
X118872001Y-116586000D02*
X99822001Y-116586000D01*
D12*
X116347001Y-100061000D02*
X116347001Y-101061000D01*
X102347001Y-114061000D02*
X102347001Y-113061000D01*
X116347001Y-113061000D02*
X116347001Y-114061000D01*
X115347001Y-114061000D02*
X116347001Y-114061000D01*
D14*
X99822001Y-97536000D02*
X118872001Y-97536000D01*
X99822001Y-116586000D02*
X99822001Y-97536000D01*
D12*
X103347001Y-100061000D02*
X102347001Y-100061000D01*
X102347001Y-101061000D02*
X102347001Y-100061000D01*
X236697000Y-119111000D02*
X235697000Y-119111000D01*
X235697000Y-120111000D02*
X235697000Y-119111000D01*
X248697000Y-133111000D02*
X249697000Y-133111000D01*
X235697000Y-133111000D02*
X235697000Y-132111000D01*
X249697000Y-132111000D02*
X249697000Y-133111000D01*
X249697000Y-119111000D02*
X249697000Y-120111000D01*
D14*
X233172000Y-135636000D02*
X233172000Y-116586000D01*
X233172000Y-116586000D02*
X252222000Y-116586000D01*
D12*
X249697000Y-133111000D02*
X248697000Y-133111000D01*
X249697000Y-119111000D02*
X248697000Y-119111000D01*
X235697000Y-133111000D02*
X236697000Y-133111000D01*
D14*
X252222000Y-116586000D02*
X252222000Y-135636000D01*
X252222000Y-135636000D02*
X233172000Y-135636000D01*
X99822000Y-135636001D02*
X80772000Y-135636001D01*
D12*
X97297000Y-133111001D02*
X96297000Y-133111001D01*
D14*
X99822000Y-116586001D02*
X99822000Y-135636001D01*
D12*
X83297000Y-133111001D02*
X83297000Y-132111001D01*
X96297000Y-133111001D02*
X97297000Y-133111001D01*
X83297000Y-133111001D02*
X84297000Y-133111001D01*
D14*
X80772000Y-135636001D02*
X80772000Y-116586001D01*
D12*
X84297000Y-119111001D02*
X83297000Y-119111001D01*
X83297000Y-120111001D02*
X83297000Y-119111001D01*
X97297000Y-119111001D02*
X96297000Y-119111001D01*
D14*
X80772000Y-116586001D02*
X99822000Y-116586001D01*
D12*
X97297000Y-132111001D02*
X97297000Y-133111001D01*
X97297000Y-119111001D02*
X97297000Y-120111001D01*
X116347000Y-138161000D02*
X115347000Y-138161000D01*
X116347000Y-152161000D02*
X115347000Y-152161000D01*
X115347000Y-152161000D02*
X116347000Y-152161000D01*
X102347000Y-152161000D02*
X103347000Y-152161000D01*
D14*
X99822000Y-135636000D02*
X118872000Y-135636000D01*
D12*
X103347000Y-138161000D02*
X102347000Y-138161000D01*
D14*
X118872000Y-154686000D02*
X99822000Y-154686000D01*
X118872000Y-135636000D02*
X118872000Y-154686000D01*
X99822000Y-154686000D02*
X99822000Y-135636000D01*
D12*
X116347000Y-138161000D02*
X116347000Y-139161000D01*
X102347000Y-139161000D02*
X102347000Y-138161000D01*
X116347000Y-151161000D02*
X116347000Y-152161000D01*
X102347000Y-152161000D02*
X102347000Y-151161000D01*
X102347000Y-95011000D02*
X103347000Y-95011000D01*
X116347000Y-81011000D02*
X115347000Y-81011000D01*
X116347000Y-95011000D02*
X115347000Y-95011000D01*
X102347000Y-95011000D02*
X102347000Y-94011000D01*
X103347000Y-81011000D02*
X102347000Y-81011000D01*
X116347000Y-94011000D02*
X116347000Y-95011000D01*
D14*
X118872000Y-97536000D02*
X99822000Y-97536000D01*
X99822000Y-78486000D02*
X118872000Y-78486000D01*
X99822000Y-97536000D02*
X99822000Y-78486000D01*
D12*
X116347000Y-81011000D02*
X116347000Y-82011000D01*
X115347000Y-95011000D02*
X116347000Y-95011000D01*
D14*
X118872000Y-78486000D02*
X118872000Y-97536000D01*
D12*
X102347000Y-82011000D02*
X102347000Y-81011000D01*
X83297000Y-139161000D02*
X83297000Y-138161000D01*
X83297000Y-152161000D02*
X84297000Y-152161000D01*
D14*
X80772000Y-154686000D02*
X80772000Y-135636000D01*
D12*
X96297000Y-152161000D02*
X97297000Y-152161000D01*
X97297000Y-138161000D02*
X96297000Y-138161000D01*
D14*
X80772000Y-135636000D02*
X99822000Y-135636000D01*
D12*
X84297000Y-138161000D02*
X83297000Y-138161000D01*
X97297000Y-151161000D02*
X97297000Y-152161000D01*
X83297000Y-152161000D02*
X83297000Y-151161000D01*
D14*
X99822000Y-135636000D02*
X99822000Y-154686000D01*
D12*
X97297000Y-138161000D02*
X97297000Y-139161000D01*
X97297000Y-152161000D02*
X96297000Y-152161000D01*
D14*
X99822000Y-154686000D02*
X80772000Y-154686000D01*
X233172000Y-78486000D02*
X252222000Y-78486000D01*
D12*
X235697000Y-95011000D02*
X236697000Y-95011000D01*
D14*
X252222000Y-97536000D02*
X233172000Y-97536000D01*
D12*
X235697000Y-95011000D02*
X235697000Y-94011000D01*
X248697000Y-95011000D02*
X249697000Y-95011000D01*
X249697000Y-81011000D02*
X249697000Y-82011000D01*
X236697000Y-81011000D02*
X235697000Y-81011000D01*
D14*
X233172000Y-97536000D02*
X233172000Y-78486000D01*
D12*
X249697000Y-94011000D02*
X249697000Y-95011000D01*
X249697000Y-81011000D02*
X248697000Y-81011000D01*
D14*
X252222000Y-78486000D02*
X252222000Y-97536000D01*
D12*
X235697000Y-82011000D02*
X235697000Y-81011000D01*
X249697000Y-95011000D02*
X248697000Y-95011000D01*
X173497000Y-133111000D02*
X172497000Y-133111000D01*
X160497000Y-119111000D02*
X159497000Y-119111000D01*
D14*
X156972000Y-135636000D02*
X156972000Y-116586000D01*
D12*
X173497000Y-132111000D02*
X173497000Y-133111000D01*
X159497000Y-133111000D02*
X160497000Y-133111000D01*
D14*
X176022000Y-135636000D02*
X156972000Y-135636000D01*
X156972000Y-116586000D02*
X176022000Y-116586000D01*
X176022000Y-116586000D02*
X176022000Y-135636000D01*
D12*
X159497000Y-120111000D02*
X159497000Y-119111000D01*
X159497000Y-133111000D02*
X159497000Y-132111000D01*
X173497000Y-119111000D02*
X173497000Y-120111000D01*
X173497000Y-119111000D02*
X172497000Y-119111000D01*
X172497000Y-133111000D02*
X173497000Y-133111000D01*
X154447000Y-81011000D02*
X154447000Y-82011000D01*
X140447000Y-95011000D02*
X141447000Y-95011000D01*
D14*
X137922000Y-78486000D02*
X156972000Y-78486000D01*
D12*
X153447000Y-95011000D02*
X154447000Y-95011000D01*
D14*
X137922000Y-97536000D02*
X137922000Y-78486000D01*
D12*
X140447000Y-95011000D02*
X140447000Y-94011000D01*
D14*
X156972000Y-97536000D02*
X137922000Y-97536000D01*
X156972000Y-78486000D02*
X156972000Y-97536000D01*
D12*
X154447000Y-95011000D02*
X153447000Y-95011000D01*
X140447000Y-82011000D02*
X140447000Y-81011000D01*
X154447000Y-81011000D02*
X153447000Y-81011000D01*
X154447000Y-94011000D02*
X154447000Y-95011000D01*
X141447000Y-81011000D02*
X140447000Y-81011000D01*
D14*
X156972000Y-135636000D02*
X156972000Y-154686000D01*
D12*
X140447000Y-152161000D02*
X140447000Y-151161000D01*
X154447000Y-151161000D02*
X154447000Y-152161000D01*
D14*
X137922000Y-135636000D02*
X156972000Y-135636000D01*
D12*
X154447000Y-138161000D02*
X154447000Y-139161000D01*
X141447000Y-138161000D02*
X140447000Y-138161000D01*
X140447000Y-139161000D02*
X140447000Y-138161000D01*
X153447000Y-152161000D02*
X154447000Y-152161000D01*
D14*
X156972000Y-154686000D02*
X137922000Y-154686000D01*
D12*
X154447000Y-138161000D02*
X153447000Y-138161000D01*
X154447000Y-152161000D02*
X153447000Y-152161000D01*
D14*
X137922000Y-154686000D02*
X137922000Y-135636000D01*
D12*
X140447000Y-152161000D02*
X141447000Y-152161000D01*
X97296999Y-114061000D02*
X96296999Y-114061000D01*
X96296999Y-114061000D02*
X97296999Y-114061000D01*
X97296999Y-113061000D02*
X97296999Y-114061000D01*
X83296999Y-114061000D02*
X83296999Y-113061000D01*
D14*
X80771999Y-97536000D02*
X99821999Y-97536000D01*
D12*
X97296999Y-100061000D02*
X96296999Y-100061000D01*
D14*
X99821999Y-97536000D02*
X99821999Y-116586000D01*
X80771999Y-116586000D02*
X80771999Y-97536000D01*
D12*
X97296999Y-100061000D02*
X97296999Y-101061000D01*
X83296999Y-101061000D02*
X83296999Y-100061000D01*
X83296999Y-114061000D02*
X84296999Y-114061000D01*
X84296999Y-100061000D02*
X83296999Y-100061000D01*
D14*
X99821999Y-116586000D02*
X80771999Y-116586000D01*
D12*
X173497000Y-151161000D02*
X173497000Y-152161000D01*
D14*
X176022000Y-154686000D02*
X156972000Y-154686000D01*
D12*
X160497000Y-138161000D02*
X159497000Y-138161000D01*
X159497000Y-152161000D02*
X159497000Y-151161000D01*
X159497000Y-152161000D02*
X160497000Y-152161000D01*
X159497000Y-139161000D02*
X159497000Y-138161000D01*
X173497000Y-138161000D02*
X173497000Y-139161000D01*
X173497000Y-138161000D02*
X172497000Y-138161000D01*
D14*
X176022000Y-135636000D02*
X176022000Y-154686000D01*
X156972000Y-135636000D02*
X176022000Y-135636000D01*
D12*
X172497000Y-152161000D02*
X173497000Y-152161000D01*
X173497000Y-152161000D02*
X172497000Y-152161000D01*
D14*
X156972000Y-154686000D02*
X156972000Y-135636000D01*
D12*
X192547000Y-138161000D02*
X192547000Y-139161000D01*
D14*
X195072000Y-154686000D02*
X176022000Y-154686000D01*
D12*
X178547000Y-139161000D02*
X178547000Y-138161000D01*
X179547000Y-138161000D02*
X178547000Y-138161000D01*
X191547000Y-152161000D02*
X192547000Y-152161000D01*
D14*
X195072000Y-135636000D02*
X195072000Y-154686000D01*
X176022000Y-154686000D02*
X176022000Y-135636000D01*
D12*
X192547000Y-138161000D02*
X191547000Y-138161000D01*
D14*
X176022000Y-135636000D02*
X195072000Y-135636000D01*
D12*
X192547000Y-151161000D02*
X192547000Y-152161000D01*
X192547000Y-152161000D02*
X191547000Y-152161000D01*
X178547000Y-152161000D02*
X179547000Y-152161000D01*
X178547000Y-152161000D02*
X178547000Y-151161000D01*
X121397000Y-114061000D02*
X122397000Y-114061000D01*
X121397000Y-114061000D02*
X121397000Y-113061000D01*
D14*
X118872000Y-97536000D02*
X137922000Y-97536000D01*
D12*
X135397000Y-100061000D02*
X135397000Y-101061000D01*
D14*
X137922000Y-97536000D02*
X137922000Y-116586000D01*
D12*
X135397000Y-113061000D02*
X135397000Y-114061000D01*
X122397000Y-100061000D02*
X121397000Y-100061000D01*
D14*
X118872000Y-116586000D02*
X118872000Y-97536000D01*
D12*
X135397000Y-114061000D02*
X134397000Y-114061000D01*
X121397000Y-101061000D02*
X121397000Y-100061000D01*
D14*
X137922000Y-116586000D02*
X118872000Y-116586000D01*
D12*
X134397000Y-114061000D02*
X135397000Y-114061000D01*
X135397000Y-100061000D02*
X134397000Y-100061000D01*
X97297000Y-81011000D02*
X97297000Y-82011000D01*
X96297000Y-95011000D02*
X97297000Y-95011000D01*
X83297000Y-82011000D02*
X83297000Y-81011000D01*
D14*
X80772000Y-97536000D02*
X80772000Y-78486000D01*
D12*
X97297000Y-81011000D02*
X96297000Y-81011000D01*
X97297000Y-95011000D02*
X96297000Y-95011000D01*
D14*
X80772000Y-78486000D02*
X99822000Y-78486000D01*
D12*
X97297000Y-94011000D02*
X97297000Y-95011000D01*
X84297000Y-81011000D02*
X83297000Y-81011000D01*
X83297000Y-95011000D02*
X83297000Y-94011000D01*
D14*
X99822000Y-78486000D02*
X99822000Y-97536000D01*
D12*
X83297000Y-95011000D02*
X84297000Y-95011000D01*
D14*
X99822000Y-97536000D02*
X80772000Y-97536000D01*
D12*
X197597000Y-152161000D02*
X197597000Y-151161000D01*
X211597000Y-138161000D02*
X211597000Y-139161000D01*
X198597000Y-138161000D02*
X197597000Y-138161000D01*
X210597000Y-152161000D02*
X211597000Y-152161000D01*
X211597000Y-152161000D02*
X210597000Y-152161000D01*
D14*
X214122000Y-154686000D02*
X195072000Y-154686000D01*
X195072000Y-154686000D02*
X195072000Y-135636000D01*
D12*
X197597000Y-139161000D02*
X197597000Y-138161000D01*
X211597000Y-138161000D02*
X210597000Y-138161000D01*
D14*
X195072000Y-135636000D02*
X214122000Y-135636000D01*
D12*
X197597000Y-152161000D02*
X198597000Y-152161000D01*
X211597000Y-151161000D02*
X211597000Y-152161000D01*
D14*
X214122000Y-135636000D02*
X214122000Y-154686000D01*
D12*
X235697000Y-114061000D02*
X235697000Y-113061000D01*
X235697000Y-114061000D02*
X236697000Y-114061000D01*
X236697000Y-100061000D02*
X235697000Y-100061000D01*
D14*
X252222000Y-97536000D02*
X252222000Y-116586000D01*
X252222000Y-116586000D02*
X233172000Y-116586000D01*
D12*
X248697000Y-114061000D02*
X249697000Y-114061000D01*
D14*
X233172000Y-116586000D02*
X233172000Y-97536000D01*
D12*
X235697000Y-101061000D02*
X235697000Y-100061000D01*
X249697000Y-114061000D02*
X248697000Y-114061000D01*
X249697000Y-113061000D02*
X249697000Y-114061000D01*
X249697000Y-100061000D02*
X249697000Y-101061000D01*
X249697000Y-100061000D02*
X248697000Y-100061000D01*
D14*
X233172000Y-97536000D02*
X252222000Y-97536000D01*
D12*
X159497000Y-114061000D02*
X160497000Y-114061000D01*
X173497000Y-113061000D02*
X173497000Y-114061000D01*
D14*
X156972000Y-116586000D02*
X156972000Y-97536000D01*
X176022000Y-97536000D02*
X176022000Y-116586000D01*
D12*
X173497000Y-100061000D02*
X173497000Y-101061000D01*
X160497000Y-100061000D02*
X159497000Y-100061000D01*
D14*
X156972000Y-97536000D02*
X176022000Y-97536000D01*
D12*
X159497000Y-101061000D02*
X159497000Y-100061000D01*
X159497000Y-114061000D02*
X159497000Y-113061000D01*
X173497000Y-100061000D02*
X172497000Y-100061000D01*
X172497000Y-114061000D02*
X173497000Y-114061000D01*
D14*
X176022000Y-116586000D02*
X156972000Y-116586000D01*
D12*
X173497000Y-114061000D02*
X172497000Y-114061000D01*
X173497000Y-95011000D02*
X172497000Y-95011000D01*
X160497000Y-81011000D02*
X159497000Y-81011000D01*
X172497000Y-95011000D02*
X173497000Y-95011000D01*
D14*
X156972000Y-78486000D02*
X176022000Y-78486000D01*
D12*
X173497000Y-94011000D02*
X173497000Y-95011000D01*
X159497000Y-95011000D02*
X160497000Y-95011000D01*
D14*
X176022000Y-97536000D02*
X156972000Y-97536000D01*
D12*
X159497000Y-95011000D02*
X159497000Y-94011000D01*
X159497000Y-82011000D02*
X159497000Y-81011000D01*
D14*
X156972000Y-97536000D02*
X156972000Y-78486000D01*
D12*
X173497000Y-81011000D02*
X173497000Y-82011000D01*
X173497000Y-81011000D02*
X172497000Y-81011000D01*
D14*
X176022000Y-78486000D02*
X176022000Y-97536000D01*
D12*
X197597000Y-133111001D02*
X197597000Y-132111001D01*
X211597000Y-133111001D02*
X210597000Y-133111001D01*
D14*
X214122000Y-116586001D02*
X214122000Y-135636001D01*
D12*
X197597000Y-120111001D02*
X197597000Y-119111001D01*
D14*
X195072000Y-135636001D02*
X195072000Y-116586001D01*
X214122000Y-135636001D02*
X195072000Y-135636001D01*
D12*
X211597000Y-119111001D02*
X210597000Y-119111001D01*
X211597000Y-119111001D02*
X211597000Y-120111001D01*
X198597000Y-119111001D02*
X197597000Y-119111001D01*
D14*
X195072000Y-116586001D02*
X214122000Y-116586001D01*
D12*
X197597000Y-133111001D02*
X198597000Y-133111001D01*
X210597000Y-133111001D02*
X211597000Y-133111001D01*
X211597000Y-132111001D02*
X211597000Y-133111001D01*
X102347000Y-133111001D02*
X102347000Y-132111001D01*
D14*
X118872000Y-116586001D02*
X118872000Y-135636001D01*
D12*
X116347000Y-119111001D02*
X115347000Y-119111001D01*
D14*
X99822000Y-116586001D02*
X118872000Y-116586001D01*
D12*
X102347000Y-120111001D02*
X102347000Y-119111001D01*
X116347000Y-132111001D02*
X116347000Y-133111001D01*
X116347000Y-133111001D02*
X115347000Y-133111001D01*
D14*
X99822000Y-135636001D02*
X99822000Y-116586001D01*
D12*
X116347000Y-119111001D02*
X116347000Y-120111001D01*
X103347000Y-119111001D02*
X102347000Y-119111001D01*
D14*
X118872000Y-135636001D02*
X99822000Y-135636001D01*
D12*
X115347000Y-133111001D02*
X116347000Y-133111001D01*
X102347000Y-133111001D02*
X103347000Y-133111001D01*
X230647000Y-119111001D02*
X229647000Y-119111001D01*
D14*
X214122000Y-116586001D02*
X233172000Y-116586001D01*
D12*
X230647000Y-132111001D02*
X230647000Y-133111001D01*
X217647000Y-119111001D02*
X216647000Y-119111001D01*
D14*
X233172000Y-116586001D02*
X233172000Y-135636001D01*
X214122000Y-135636001D02*
X214122000Y-116586001D01*
D12*
X230647000Y-133111001D02*
X229647000Y-133111001D01*
X229647000Y-133111001D02*
X230647000Y-133111001D01*
X216647000Y-120111001D02*
X216647000Y-119111001D01*
X230647000Y-119111001D02*
X230647000Y-120111001D01*
X216647000Y-133111001D02*
X216647000Y-132111001D01*
X216647000Y-133111001D02*
X217647000Y-133111001D01*
D14*
X233172000Y-135636001D02*
X214122000Y-135636001D01*
D12*
X64247000Y-152161000D02*
X65247000Y-152161000D01*
D14*
X61722000Y-135636000D02*
X80772000Y-135636000D01*
D12*
X78247000Y-152161000D02*
X77247000Y-152161000D01*
D14*
X80772000Y-135636000D02*
X80772000Y-154686000D01*
D12*
X78247000Y-151161000D02*
X78247000Y-152161000D01*
D14*
X80772000Y-154686000D02*
X61722000Y-154686000D01*
D12*
X78247000Y-138161000D02*
X78247000Y-139161000D01*
X78247000Y-138161000D02*
X77247000Y-138161000D01*
X77247000Y-152161000D02*
X78247000Y-152161000D01*
X65247000Y-138161000D02*
X64247000Y-138161000D01*
X64247000Y-152161000D02*
X64247000Y-151161000D01*
X64247000Y-139161000D02*
X64247000Y-138161000D01*
D14*
X61722000Y-154686000D02*
X61722000Y-135636000D01*
X214122000Y-78486000D02*
X233172000Y-78486000D01*
X214122000Y-97536000D02*
X214122000Y-78486000D01*
D12*
X230647000Y-81011000D02*
X229647000Y-81011000D01*
X230647000Y-81011000D02*
X230647000Y-82011000D01*
X217647000Y-81011000D02*
X216647000Y-81011000D01*
D14*
X233172000Y-97536000D02*
X214122000Y-97536000D01*
D12*
X216647000Y-95011000D02*
X217647000Y-95011000D01*
X216647000Y-95011000D02*
X216647000Y-94011000D01*
X216647000Y-82011000D02*
X216647000Y-81011000D01*
X229647000Y-95011000D02*
X230647000Y-95011000D01*
D14*
X233172000Y-78486000D02*
X233172000Y-97536000D01*
D12*
X230647000Y-95011000D02*
X229647000Y-95011000D01*
X230647000Y-94011000D02*
X230647000Y-95011000D01*
X78247000Y-95011000D02*
X77247000Y-95011000D01*
D14*
X80772000Y-97536000D02*
X61722000Y-97536000D01*
D12*
X78247000Y-81011000D02*
X78247000Y-82011000D01*
X64247000Y-82011000D02*
X64247000Y-81011000D01*
D14*
X61722000Y-78486000D02*
X80772000Y-78486000D01*
D12*
X77247000Y-95011000D02*
X78247000Y-95011000D01*
X65247000Y-81011000D02*
X64247000Y-81011000D01*
X64247000Y-95011000D02*
X65247000Y-95011000D01*
X78247000Y-94011000D02*
X78247000Y-95011000D01*
X78247000Y-81011000D02*
X77247000Y-81011000D01*
D14*
X80772000Y-78486000D02*
X80772000Y-97536000D01*
X61722000Y-97536000D02*
X61722000Y-78486000D01*
D12*
X64247000Y-95011000D02*
X64247000Y-94011000D01*
X211596999Y-100061000D02*
X210596999Y-100061000D01*
X197596999Y-101061000D02*
X197596999Y-100061000D01*
X211596999Y-100061000D02*
X211596999Y-101061000D01*
X197596999Y-114061000D02*
X198596999Y-114061000D01*
D14*
X195071999Y-97536000D02*
X214121999Y-97536000D01*
D12*
X210596999Y-114061000D02*
X211596999Y-114061000D01*
X211596999Y-113061000D02*
X211596999Y-114061000D01*
D14*
X214121999Y-97536000D02*
X214121999Y-116586000D01*
D12*
X198596999Y-100061000D02*
X197596999Y-100061000D01*
X197596999Y-114061000D02*
X197596999Y-113061000D01*
X211596999Y-114061000D02*
X210596999Y-114061000D01*
D14*
X214121999Y-116586000D02*
X195071999Y-116586000D01*
X195071999Y-116586000D02*
X195071999Y-97536000D01*
D12*
X191547000Y-133111000D02*
X192547000Y-133111000D01*
D14*
X176022000Y-135636000D02*
X176022000Y-116586000D01*
X195072000Y-116586000D02*
X195072000Y-135636000D01*
X195072000Y-135636000D02*
X176022000Y-135636000D01*
D12*
X192547000Y-132111000D02*
X192547000Y-133111000D01*
X192547000Y-119111000D02*
X191547000Y-119111000D01*
X179547000Y-119111000D02*
X178547000Y-119111000D01*
D14*
X176022000Y-116586000D02*
X195072000Y-116586000D01*
D12*
X178547000Y-133111000D02*
X178547000Y-132111000D01*
X192547000Y-133111000D02*
X191547000Y-133111000D01*
X178547000Y-120111000D02*
X178547000Y-119111000D01*
X178547000Y-133111000D02*
X179547000Y-133111000D01*
X192547000Y-119111000D02*
X192547000Y-120111000D01*
D14*
X80772000Y-135636000D02*
X61722000Y-135636000D01*
D12*
X64247000Y-120111000D02*
X64247000Y-119111000D01*
X78247000Y-133111000D02*
X77247000Y-133111000D01*
X78247000Y-119111000D02*
X77247000Y-119111000D01*
D14*
X61722000Y-116586000D02*
X80772000Y-116586000D01*
D12*
X78247000Y-132111000D02*
X78247000Y-133111000D01*
X64247000Y-133111000D02*
X65247000Y-133111000D01*
D14*
X61722000Y-135636000D02*
X61722000Y-116586000D01*
D12*
X77247000Y-133111000D02*
X78247000Y-133111000D01*
X64247000Y-133111000D02*
X64247000Y-132111000D01*
X65247000Y-119111000D02*
X64247000Y-119111000D01*
D14*
X80772000Y-116586000D02*
X80772000Y-135636000D01*
D12*
X78247000Y-119111000D02*
X78247000Y-120111000D01*
X78247000Y-100061000D02*
X78247000Y-101061000D01*
X64247000Y-101061000D02*
X64247000Y-100061000D01*
D14*
X61722000Y-97536000D02*
X80772000Y-97536000D01*
D12*
X77247000Y-114061000D02*
X78247000Y-114061000D01*
D14*
X80772000Y-116586000D02*
X61722000Y-116586000D01*
D12*
X64247000Y-114061000D02*
X64247000Y-113061000D01*
X78247000Y-114061000D02*
X77247000Y-114061000D01*
D14*
X80772000Y-97536000D02*
X80772000Y-116586000D01*
D12*
X65247000Y-100061000D02*
X64247000Y-100061000D01*
X78247000Y-100061000D02*
X77247000Y-100061000D01*
X78247000Y-113061000D02*
X78247000Y-114061000D01*
X64247000Y-114061000D02*
X65247000Y-114061000D01*
D14*
X61722000Y-116586000D02*
X61722000Y-97536000D01*
X191714000Y-68568000D02*
X191714000Y-67068000D01*
X190464000Y-64568000D02*
X185964000Y-64568000D01*
X185964000Y-71068000D02*
X190464000Y-71068000D01*
X184714000Y-67068000D02*
X184714000Y-68568000D01*
D15*
X142429945Y-67473525D03*
X144883397Y-68130926D03*
X147336848Y-68788326D03*
X149790300Y-69445726D03*
X152243752Y-70103127D03*
X154697203Y-70760527D03*
X157150655Y-71417928D03*
X159604106Y-72075328D03*
X162057558Y-72732728D03*
X164511010Y-73390129D03*
X166964461Y-74047529D03*
X169417913Y-74704929D03*
X173362315Y-59984220D03*
X170908863Y-59326819D03*
X168455412Y-58669419D03*
X166001960Y-58012019D03*
X163548509Y-57354618D03*
X161095057Y-56697218D03*
X158641605Y-56039818D03*
X156188154Y-55382417D03*
X153734702Y-54725017D03*
X151281251Y-54067616D03*
X148827799Y-53410216D03*
D16*
X146374347Y-52752816D03*
%LPC*%
D15*
X142429945Y-67473525D03*
X144883397Y-68130926D03*
X147336848Y-68788326D03*
X149790300Y-69445726D03*
X152243752Y-70103127D03*
X154697203Y-70760527D03*
X157150655Y-71417928D03*
X159604106Y-72075328D03*
X162057558Y-72732728D03*
X164511010Y-73390129D03*
X166964461Y-74047529D03*
X169417913Y-74704929D03*
X173362315Y-59984220D03*
X170908863Y-59326819D03*
X168455412Y-58669419D03*
X166001960Y-58012019D03*
X163548509Y-57354618D03*
X161095057Y-56697218D03*
X158641605Y-56039818D03*
X156188154Y-55382417D03*
X153734702Y-54725017D03*
X151281251Y-54067616D03*
X148827799Y-53410216D03*
D16*
X146374347Y-52752816D03*
D17*
X218147000Y-145161000D03*
X218567000Y-145161000D03*
D18*
X218647000Y-148911000D03*
X223647000Y-151111000D03*
D17*
X228727000Y-145161000D03*
X229147000Y-145161000D03*
D19*
X223647000Y-145161000D03*
D20*
X226187000Y-140081000D03*
X219837000Y-142621000D03*
D17*
X229147001Y-107061000D03*
D18*
X218647001Y-110811000D03*
D17*
X228727001Y-107061000D03*
X218147001Y-107061000D03*
X218567001Y-107061000D03*
D19*
X223647001Y-107061000D03*
D18*
X223647001Y-113011000D03*
D20*
X226187001Y-101981000D03*
X219837001Y-104521000D03*
D18*
X142447000Y-110811000D03*
X147447000Y-113011000D03*
D17*
X142367000Y-107061000D03*
X152527000Y-107061000D03*
X141947000Y-107061000D03*
D19*
X147447000Y-107061000D03*
D17*
X152947000Y-107061000D03*
D20*
X149987000Y-101981000D03*
X143637000Y-104521000D03*
D18*
X242697000Y-151111000D03*
D17*
X237197000Y-145161000D03*
X247777000Y-145161000D03*
X237617000Y-145161000D03*
X248197000Y-145161000D03*
D18*
X237697000Y-148911000D03*
D19*
X242697000Y-145161000D03*
D20*
X245237000Y-140081000D03*
X238887000Y-142621000D03*
D18*
X128397000Y-93961000D03*
X123397000Y-91761000D03*
D19*
X128397000Y-88011000D03*
D17*
X133897000Y-88011000D03*
X123317000Y-88011000D03*
X133477000Y-88011000D03*
X122897000Y-88011000D03*
D20*
X130937000Y-82931000D03*
X124587000Y-85471000D03*
D18*
X128397000Y-132061000D03*
X123397000Y-129861000D03*
D17*
X123317000Y-126111000D03*
X133477000Y-126111000D03*
X122897000Y-126111000D03*
D19*
X128397000Y-126111000D03*
D17*
X133897000Y-126111000D03*
D20*
X130937000Y-121031000D03*
X124587000Y-123571000D03*
D21*
X188214000Y-74676000D03*
D17*
X122897000Y-145161000D03*
X133477000Y-145161000D03*
X123317000Y-145161000D03*
X133897000Y-145161000D03*
D19*
X128397000Y-145161000D03*
D18*
X128397000Y-151111000D03*
X123397000Y-148911000D03*
D20*
X130937000Y-140081000D03*
X124587000Y-142621000D03*
D18*
X185547000Y-93961000D03*
X180547000Y-91761000D03*
D17*
X180047000Y-88011000D03*
X190627000Y-88011000D03*
X191047000Y-88011000D03*
D19*
X185547000Y-88011000D03*
D17*
X180467000Y-88011000D03*
D20*
X188087000Y-82931000D03*
X181737000Y-85471000D03*
D17*
X190627000Y-107061000D03*
X180047000Y-107061000D03*
D18*
X185547000Y-113011000D03*
D17*
X191047000Y-107061000D03*
D19*
X185547000Y-107061000D03*
D17*
X180467000Y-107061000D03*
D18*
X180547000Y-110811000D03*
D20*
X188087000Y-101981000D03*
X181737000Y-104521000D03*
D18*
X199597000Y-91761000D03*
D17*
X199097000Y-88011000D03*
D19*
X204597000Y-88011000D03*
D17*
X209677000Y-88011000D03*
D18*
X204597000Y-93961000D03*
D17*
X199517000Y-88011000D03*
X210097000Y-88011000D03*
D20*
X207137000Y-82931000D03*
X200787000Y-85471000D03*
D19*
X147447000Y-126111000D03*
D18*
X147447000Y-132061000D03*
D17*
X152947000Y-126111000D03*
D18*
X142447000Y-129861000D03*
D17*
X141947000Y-126111000D03*
X142367000Y-126111000D03*
X152527000Y-126111000D03*
D20*
X149987000Y-121031000D03*
X143637000Y-123571000D03*
D17*
X104267001Y-107061000D03*
X114427001Y-107061000D03*
X103847001Y-107061000D03*
D18*
X109347001Y-113011000D03*
D17*
X114847001Y-107061000D03*
D19*
X109347001Y-107061000D03*
D18*
X104347001Y-110811000D03*
D20*
X111887001Y-101981000D03*
X105537001Y-104521000D03*
D17*
X237617000Y-126111000D03*
D18*
X237697000Y-129861000D03*
D19*
X242697000Y-126111000D03*
D17*
X247777000Y-126111000D03*
X237197000Y-126111000D03*
D18*
X242697000Y-132061000D03*
D17*
X248197000Y-126111000D03*
D20*
X245237000Y-121031000D03*
X238887000Y-123571000D03*
D18*
X85297000Y-129861001D03*
D17*
X95377000Y-126111001D03*
D19*
X90297000Y-126111001D03*
D17*
X85217000Y-126111001D03*
X84797000Y-126111001D03*
X95797000Y-126111001D03*
D18*
X90297000Y-132061001D03*
D20*
X92837000Y-121031001D03*
X86487000Y-123571001D03*
D18*
X104347000Y-148911000D03*
D19*
X109347000Y-145161000D03*
D18*
X109347000Y-151111000D03*
D17*
X114427000Y-145161000D03*
X114847000Y-145161000D03*
X104267000Y-145161000D03*
X103847000Y-145161000D03*
D20*
X111887000Y-140081000D03*
X105537000Y-142621000D03*
D17*
X104267000Y-88011000D03*
D18*
X109347000Y-93961000D03*
D17*
X103847000Y-88011000D03*
X114847000Y-88011000D03*
X114427000Y-88011000D03*
D18*
X104347000Y-91761000D03*
D19*
X109347000Y-88011000D03*
D20*
X111887000Y-82931000D03*
X105537000Y-85471000D03*
D17*
X95797000Y-145161000D03*
D19*
X90297000Y-145161000D03*
D18*
X90297000Y-151111000D03*
X85297000Y-148911000D03*
D17*
X84797000Y-145161000D03*
X85217000Y-145161000D03*
X95377000Y-145161000D03*
D20*
X92837000Y-140081000D03*
X86487000Y-142621000D03*
D21*
X214122000Y-97536000D03*
D18*
X237697000Y-91761000D03*
D17*
X247777000Y-88011000D03*
D19*
X242697000Y-88011000D03*
D17*
X237197000Y-88011000D03*
D18*
X242697000Y-93961000D03*
D17*
X248197000Y-88011000D03*
X237617000Y-88011000D03*
D20*
X245237000Y-82931000D03*
X238887000Y-85471000D03*
D17*
X171577000Y-126111000D03*
X171997000Y-126111000D03*
D18*
X166497000Y-132061000D03*
X161497000Y-129861000D03*
D19*
X166497000Y-126111000D03*
D17*
X160997000Y-126111000D03*
X161417000Y-126111000D03*
D20*
X169037000Y-121031000D03*
X162687000Y-123571000D03*
D18*
X142447000Y-91761000D03*
D19*
X147447000Y-88011000D03*
D17*
X152947000Y-88011000D03*
X142367000Y-88011000D03*
X141947000Y-88011000D03*
D18*
X147447000Y-93961000D03*
D17*
X152527000Y-88011000D03*
D20*
X149987000Y-82931000D03*
X143637000Y-85471000D03*
D17*
X142367000Y-145161000D03*
X152527000Y-145161000D03*
D18*
X147447000Y-151111000D03*
X142447000Y-148911000D03*
D17*
X152947000Y-145161000D03*
X141947000Y-145161000D03*
D19*
X147447000Y-145161000D03*
D20*
X149987000Y-140081000D03*
X143637000Y-142621000D03*
D17*
X95376999Y-107061000D03*
D18*
X90296999Y-113011000D03*
X85296999Y-110811000D03*
D17*
X95796999Y-107061000D03*
X84796999Y-107061000D03*
D19*
X90296999Y-107061000D03*
D17*
X85216999Y-107061000D03*
D20*
X92836999Y-101981000D03*
X86486999Y-104521000D03*
D21*
X214122000Y-135636000D03*
D17*
X161417000Y-145161000D03*
D19*
X166497000Y-145161000D03*
D17*
X171997000Y-145161000D03*
X160997000Y-145161000D03*
X171577000Y-145161000D03*
D18*
X166497000Y-151111000D03*
X161497000Y-148911000D03*
D20*
X169037000Y-140081000D03*
X162687000Y-142621000D03*
D18*
X180547000Y-148911000D03*
D17*
X191047000Y-145161000D03*
X180047000Y-145161000D03*
X180467000Y-145161000D03*
D18*
X185547000Y-151111000D03*
D17*
X190627000Y-145161000D03*
D19*
X185547000Y-145161000D03*
D20*
X188087000Y-140081000D03*
X181737000Y-142621000D03*
D19*
X128397000Y-107061000D03*
D17*
X122897000Y-107061000D03*
X133897000Y-107061000D03*
X123317000Y-107061000D03*
D18*
X123397000Y-110811000D03*
D17*
X133477000Y-107061000D03*
D18*
X128397000Y-113011000D03*
D20*
X130937000Y-101981000D03*
X124587000Y-104521000D03*
D17*
X95377000Y-88011000D03*
D19*
X90297000Y-88011000D03*
D17*
X85217000Y-88011000D03*
X95797000Y-88011000D03*
X84797000Y-88011000D03*
D18*
X85297000Y-91761000D03*
X90297000Y-93961000D03*
D20*
X92837000Y-82931000D03*
X86487000Y-85471000D03*
D17*
X199097000Y-145161000D03*
D18*
X199597000Y-148911000D03*
D19*
X204597000Y-145161000D03*
D17*
X199517000Y-145161000D03*
D18*
X204597000Y-151111000D03*
D17*
X210097000Y-145161000D03*
X209677000Y-145161000D03*
D20*
X207137000Y-140081000D03*
X200787000Y-142621000D03*
D17*
X237617000Y-107061000D03*
X247777000Y-107061000D03*
D18*
X242697000Y-113011000D03*
D19*
X242697000Y-107061000D03*
D17*
X248197000Y-107061000D03*
X237197000Y-107061000D03*
D18*
X237697000Y-110811000D03*
D20*
X245237000Y-101981000D03*
X238887000Y-104521000D03*
D19*
X166497000Y-107061000D03*
D18*
X161497000Y-110811000D03*
D17*
X171577000Y-107061000D03*
X160997000Y-107061000D03*
X171997000Y-107061000D03*
X161417000Y-107061000D03*
D18*
X166497000Y-113011000D03*
D20*
X169037000Y-101981000D03*
X162687000Y-104521000D03*
D18*
X161497000Y-91761000D03*
D17*
X161417000Y-88011000D03*
X171997000Y-88011000D03*
D19*
X166497000Y-88011000D03*
D17*
X160997000Y-88011000D03*
X171577000Y-88011000D03*
D18*
X166497000Y-93961000D03*
D20*
X169037000Y-82931000D03*
X162687000Y-85471000D03*
D17*
X199097000Y-126111001D03*
D18*
X204597000Y-132061001D03*
X199597000Y-129861001D03*
D17*
X209677000Y-126111001D03*
X210097000Y-126111001D03*
X199517000Y-126111001D03*
D19*
X204597000Y-126111001D03*
D20*
X207137000Y-121031001D03*
X200787000Y-123571001D03*
D18*
X109347000Y-132061001D03*
D17*
X104267000Y-126111001D03*
X114427000Y-126111001D03*
X114847000Y-126111001D03*
X103847000Y-126111001D03*
D19*
X109347000Y-126111001D03*
D18*
X104347000Y-129861001D03*
D20*
X111887000Y-121031001D03*
X105537000Y-123571001D03*
D17*
X228727000Y-126111001D03*
X218567000Y-126111001D03*
D19*
X223647000Y-126111001D03*
D17*
X229147000Y-126111001D03*
D18*
X218647000Y-129861001D03*
X223647000Y-132061001D03*
D17*
X218147000Y-126111001D03*
D20*
X226187000Y-121031001D03*
X219837000Y-123571001D03*
D21*
X156972000Y-116586000D03*
D18*
X66247000Y-148911000D03*
D17*
X66167000Y-145161000D03*
X76327000Y-145161000D03*
X76747000Y-145161000D03*
D18*
X71247000Y-151111000D03*
D17*
X65747000Y-145161000D03*
D19*
X71247000Y-145161000D03*
D20*
X73787000Y-140081000D03*
X67437000Y-142621000D03*
D17*
X228727000Y-88011000D03*
D19*
X223647000Y-88011000D03*
D18*
X223647000Y-93961000D03*
D17*
X229147000Y-88011000D03*
X218567000Y-88011000D03*
X218147000Y-88011000D03*
D18*
X218647000Y-91761000D03*
D20*
X226187000Y-82931000D03*
X219837000Y-85471000D03*
D17*
X76327000Y-88011000D03*
D18*
X66247000Y-91761000D03*
D19*
X71247000Y-88011000D03*
D17*
X66167000Y-88011000D03*
X76747000Y-88011000D03*
X65747000Y-88011000D03*
D18*
X71247000Y-93961000D03*
D20*
X73787000Y-82931000D03*
X67437000Y-85471000D03*
D17*
X210096999Y-107061000D03*
X209676999Y-107061000D03*
D18*
X204596999Y-113011000D03*
D17*
X199516999Y-107061000D03*
D19*
X204596999Y-107061000D03*
D17*
X199096999Y-107061000D03*
D18*
X199596999Y-110811000D03*
D20*
X207136999Y-101981000D03*
X200786999Y-104521000D03*
D21*
X99822000Y-97536000D03*
D18*
X180547000Y-129861000D03*
D17*
X191047000Y-126111000D03*
X180047000Y-126111000D03*
D19*
X185547000Y-126111000D03*
D18*
X185547000Y-132061000D03*
D17*
X190627000Y-126111000D03*
X180467000Y-126111000D03*
D20*
X188087000Y-121031000D03*
X181737000Y-123571000D03*
D18*
X66247000Y-129861000D03*
D19*
X71247000Y-126111000D03*
D17*
X65747000Y-126111000D03*
D18*
X71247000Y-132061000D03*
D17*
X76327000Y-126111000D03*
X66167000Y-126111000D03*
X76747000Y-126111000D03*
D20*
X73787000Y-121031000D03*
X67437000Y-123571000D03*
D17*
X65747000Y-107061000D03*
D18*
X66247000Y-110811000D03*
D17*
X66167000Y-107061000D03*
X76327000Y-107061000D03*
X76747000Y-107061000D03*
D19*
X71247000Y-107061000D03*
D18*
X71247000Y-113011000D03*
D20*
X73787000Y-101981000D03*
X67437000Y-104521000D03*
D22*
X184964000Y-70068000D03*
X191464000Y-70068000D03*
X184964000Y-65568000D03*
X191464000Y-65568000D03*
D21*
X99822000Y-135636000D03*
D23*
X159649284Y-104498716D03*
D24*
X165164716Y-98983284D03*
D23*
X235849284Y-85448715D03*
D24*
X241364716Y-79933283D03*
D23*
X197749284Y-123548715D03*
D24*
X203264716Y-118033283D03*
D23*
X64399284Y-123548715D03*
D24*
X69914716Y-118033283D03*
D23*
X159649283Y-85448715D03*
D24*
X165164715Y-79933283D03*
D23*
X64399284Y-104498716D03*
D24*
X69914716Y-98983284D03*
D23*
X216799284Y-104498715D03*
D24*
X222314716Y-98983283D03*
D23*
X140599284Y-104498715D03*
D24*
X146114716Y-98983283D03*
D23*
X235849284Y-104498715D03*
D24*
X241364716Y-98983283D03*
D23*
X121549284Y-123548715D03*
D24*
X127064716Y-118033283D03*
D23*
X83449285Y-85448715D03*
D24*
X88964717Y-79933283D03*
D23*
X178699284Y-104498716D03*
D24*
X184214716Y-98983284D03*
D23*
X121549284Y-85448715D03*
D24*
X127064716Y-79933283D03*
D23*
X102499284Y-85448715D03*
D24*
X108014716Y-79933283D03*
D23*
X102499284Y-104498715D03*
D24*
X108014716Y-98983283D03*
D23*
X121549284Y-104498715D03*
D24*
X127064716Y-98983283D03*
D23*
X235849284Y-142598716D03*
D24*
X241364716Y-137083284D03*
D23*
X83449284Y-104498716D03*
D24*
X88964716Y-98983284D03*
D23*
X216799283Y-123548715D03*
D24*
X222314715Y-118033283D03*
D23*
X197749284Y-104498716D03*
D24*
X203264716Y-98983284D03*
D23*
X121549284Y-142598716D03*
D24*
X127064716Y-137083284D03*
D23*
X197749284Y-142598715D03*
D24*
X203264716Y-137083283D03*
D23*
X83449284Y-123548715D03*
D24*
X88964716Y-118033283D03*
D23*
X159649284Y-123548715D03*
D24*
X165164716Y-118033283D03*
D23*
X102499284Y-142598715D03*
D24*
X108014716Y-137083283D03*
D23*
X235849284Y-123548715D03*
D24*
X241364716Y-118033283D03*
D23*
X216799284Y-85448715D03*
D24*
X222314716Y-79933283D03*
D23*
X159649284Y-142598715D03*
D24*
X165164716Y-137083283D03*
D23*
X140599284Y-123548715D03*
D24*
X146114716Y-118033283D03*
D23*
X216799283Y-142598715D03*
D24*
X222314715Y-137083283D03*
D23*
X102499284Y-123548715D03*
D24*
X108014716Y-118033283D03*
D23*
X178699284Y-142598715D03*
D24*
X184214716Y-137083283D03*
D23*
X140599284Y-85448715D03*
D24*
X146114716Y-79933283D03*
D23*
X178699284Y-123548715D03*
D24*
X184214716Y-118033283D03*
D23*
X178699284Y-85448716D03*
D24*
X184214716Y-79933284D03*
D23*
X64399284Y-142598715D03*
D24*
X69914716Y-137083283D03*
D23*
X197749284Y-85448715D03*
D24*
X203264716Y-79933283D03*
D23*
X140599284Y-142598715D03*
D24*
X146114716Y-137083283D03*
D23*
X64399283Y-85448715D03*
D24*
X69914715Y-79933283D03*
D23*
X83449284Y-142598715D03*
D24*
X88964716Y-137083283D03*
M02*
