G04 #@! TF.GenerationSoftware,KiCad,Pcbnew,6.0.7-f9a2dced07~116~ubuntu20.04.1*
G04 #@! TF.CreationDate,2022-09-23T22:55:04+08:00*
G04 #@! TF.ProjectId,V4,56342e6b-6963-4616-945f-706362585858,rev?*
G04 #@! TF.SameCoordinates,Original*
G04 #@! TF.FileFunction,Copper,L1,Top*
G04 #@! TF.FilePolarity,Positive*
%FSLAX46Y46*%
G04 Gerber Fmt 4.6, Leading zero omitted, Abs format (unit mm)*
G04 Created by KiCad (PCBNEW 6.0.7-f9a2dced07~116~ubuntu20.04.1) date 2022-09-23 22:55:04*
%MOMM*%
%LPD*%
G01*
G04 APERTURE LIST*
G04 Aperture macros list*
%AMRotRect*
0 Rectangle, with rotation*
0 The origin of the aperture is its center*
0 $1 length*
0 $2 width*
0 $3 Rotation angle, in degrees counterclockwise*
0 Add horizontal line*
21,1,$1,$2,0,0,$3*%
G04 Aperture macros list end*
G04 #@! TA.AperFunction,Profile*
%ADD10C,0.050000*%
G04 #@! TD*
G04 #@! TA.AperFunction,ComponentPad*
%ADD11C,1.752600*%
G04 #@! TD*
G04 #@! TA.AperFunction,ComponentPad*
%ADD12RotRect,1.752600X1.752600X345.000000*%
G04 #@! TD*
G04 #@! TA.AperFunction,ComponentPad*
%ADD13C,2.286000*%
G04 #@! TD*
G04 #@! TA.AperFunction,WasherPad*
%ADD14C,5.000000*%
G04 #@! TD*
G04 #@! TA.AperFunction,ComponentPad*
%ADD15C,2.000000*%
G04 #@! TD*
G04 #@! TA.AperFunction,ComponentPad*
%ADD16RotRect,1.600000X1.600000X45.000000*%
G04 #@! TD*
G04 #@! TA.AperFunction,ComponentPad*
%ADD17C,1.600000*%
G04 #@! TD*
G04 #@! TA.AperFunction,ViaPad*
%ADD18C,0.800000*%
G04 #@! TD*
G04 #@! TA.AperFunction,Conductor*
%ADD19C,0.300000*%
G04 #@! TD*
G04 #@! TA.AperFunction,Conductor*
%ADD20C,0.800000*%
G04 #@! TD*
G04 APERTURE END LIST*
D10*
X59436000Y-154686000D02*
X59436000Y-78486000D01*
X59436000Y-154686000D02*
G75*
G03*
X61722000Y-156972000I2286000J0D01*
G01*
X134962250Y-76200000D02*
X131178300Y-76200000D01*
X134962250Y-76200047D02*
G75*
G03*
X136434319Y-75070441I-50J1524047D01*
G01*
X60960000Y-76200000D02*
G75*
G03*
X59436000Y-77724000I0J-1524000D01*
G01*
X61722000Y-76200000D02*
X131178300Y-76200000D01*
X61722000Y-76200000D02*
X60960000Y-76200000D01*
X252222000Y-156972000D02*
X61722000Y-156972000D01*
X254507993Y-79667100D02*
G75*
G03*
X253365350Y-78179844I-1523993J11700D01*
G01*
X252222000Y-156972000D02*
G75*
G03*
X254508000Y-154686000I0J2286000D01*
G01*
X59436000Y-77724000D02*
X59436000Y-78486000D01*
X145016441Y-49147744D02*
X151738470Y-50953142D01*
X145016443Y-49147735D02*
G75*
G03*
X143149931Y-50225373I-394443J-1472065D01*
G01*
X254507999Y-79667100D02*
X254508000Y-154686000D01*
X151738470Y-50953142D02*
X253365350Y-78179844D01*
X143149931Y-50225373D02*
X136434319Y-75070441D01*
D11*
X142429945Y-67473525D03*
X144883397Y-68130926D03*
X147336848Y-68788326D03*
X149790300Y-69445726D03*
X152243752Y-70103127D03*
X154697203Y-70760527D03*
X157150655Y-71417928D03*
X159604106Y-72075328D03*
X162057558Y-72732728D03*
X164511010Y-73390129D03*
X166964461Y-74047529D03*
X169417913Y-74704929D03*
X173362315Y-59984220D03*
X170908863Y-59326819D03*
X168455412Y-58669419D03*
X166001960Y-58012019D03*
X163548509Y-57354618D03*
X161095057Y-56697218D03*
X158641605Y-56039818D03*
X156188154Y-55382417D03*
X153734702Y-54725017D03*
X151281251Y-54067616D03*
X148827799Y-53410216D03*
D12*
X146374347Y-52752816D03*
D13*
X226187000Y-140081000D03*
X219837000Y-142621000D03*
X226187001Y-101981000D03*
X219837001Y-104521000D03*
X149987000Y-101981000D03*
X143637000Y-104521000D03*
X245237000Y-140081000D03*
X238887000Y-142621000D03*
X130937000Y-82931000D03*
X124587000Y-85471000D03*
X130937000Y-121031000D03*
X124587000Y-123571000D03*
D14*
X188214000Y-74676000D03*
D13*
X130937000Y-140081000D03*
X124587000Y-142621000D03*
X188087000Y-82931000D03*
X181737000Y-85471000D03*
X188087000Y-101981000D03*
X181737000Y-104521000D03*
X207137000Y-82931000D03*
X200787000Y-85471000D03*
X149987000Y-121031000D03*
X143637000Y-123571000D03*
X111887001Y-101981000D03*
X105537001Y-104521000D03*
X245237000Y-121031000D03*
X238887000Y-123571000D03*
X92837000Y-121031001D03*
X86487000Y-123571001D03*
X111887000Y-140081000D03*
X105537000Y-142621000D03*
X111887000Y-82931000D03*
X105537000Y-85471000D03*
X92837000Y-140081000D03*
X86487000Y-142621000D03*
D14*
X214122000Y-97536000D03*
D13*
X245237000Y-82931000D03*
X238887000Y-85471000D03*
X169037000Y-121031000D03*
X162687000Y-123571000D03*
X149987000Y-82931000D03*
X143637000Y-85471000D03*
X149987000Y-140081000D03*
X143637000Y-142621000D03*
X92836999Y-101981000D03*
X86486999Y-104521000D03*
D14*
X214122000Y-135636000D03*
D13*
X169037000Y-140081000D03*
X162687000Y-142621000D03*
X188087000Y-140081000D03*
X181737000Y-142621000D03*
X130937000Y-101981000D03*
X124587000Y-104521000D03*
X92837000Y-82931000D03*
X86487000Y-85471000D03*
X207137000Y-140081000D03*
X200787000Y-142621000D03*
X245237000Y-101981000D03*
X238887000Y-104521000D03*
X169037000Y-101981000D03*
X162687000Y-104521000D03*
X169037000Y-82931000D03*
X162687000Y-85471000D03*
X207137000Y-121031001D03*
X200787000Y-123571001D03*
X111887000Y-121031001D03*
X105537000Y-123571001D03*
X226187000Y-121031001D03*
X219837000Y-123571001D03*
D14*
X156972000Y-116586000D03*
D13*
X73787000Y-140081000D03*
X67437000Y-142621000D03*
X226187000Y-82931000D03*
X219837000Y-85471000D03*
X73787000Y-82931000D03*
X67437000Y-85471000D03*
X207136999Y-101981000D03*
X200786999Y-104521000D03*
D14*
X99822000Y-97536000D03*
D13*
X188087000Y-121031000D03*
X181737000Y-123571000D03*
X73787000Y-121031000D03*
X67437000Y-123571000D03*
X73787000Y-101981000D03*
X67437000Y-104521000D03*
D15*
X184964000Y-70068000D03*
X191464000Y-70068000D03*
X184964000Y-65568000D03*
X191464000Y-65568000D03*
D14*
X99822000Y-135636000D03*
D16*
X159649284Y-104498716D03*
D17*
X165164716Y-98983284D03*
D16*
X235849284Y-85448715D03*
D17*
X241364716Y-79933283D03*
D16*
X197749284Y-123548715D03*
D17*
X203264716Y-118033283D03*
D16*
X64399284Y-123548715D03*
D17*
X69914716Y-118033283D03*
D16*
X159649283Y-85448715D03*
D17*
X165164715Y-79933283D03*
D16*
X64399284Y-104498716D03*
D17*
X69914716Y-98983284D03*
D16*
X216799284Y-104498715D03*
D17*
X222314716Y-98983283D03*
D16*
X140599284Y-104498715D03*
D17*
X146114716Y-98983283D03*
D16*
X235849284Y-104498715D03*
D17*
X241364716Y-98983283D03*
D16*
X121549284Y-123548715D03*
D17*
X127064716Y-118033283D03*
D16*
X83449285Y-85448715D03*
D17*
X88964717Y-79933283D03*
D16*
X178699284Y-104498716D03*
D17*
X184214716Y-98983284D03*
D16*
X121549284Y-85448715D03*
D17*
X127064716Y-79933283D03*
D16*
X102499284Y-85448715D03*
D17*
X108014716Y-79933283D03*
D16*
X102499284Y-104498715D03*
D17*
X108014716Y-98983283D03*
D16*
X121549284Y-104498715D03*
D17*
X127064716Y-98983283D03*
D16*
X235849284Y-142598716D03*
D17*
X241364716Y-137083284D03*
D16*
X83449284Y-104498716D03*
D17*
X88964716Y-98983284D03*
D16*
X216799283Y-123548715D03*
D17*
X222314715Y-118033283D03*
D16*
X197749284Y-104498716D03*
D17*
X203264716Y-98983284D03*
D16*
X121549284Y-142598716D03*
D17*
X127064716Y-137083284D03*
D16*
X197749284Y-142598715D03*
D17*
X203264716Y-137083283D03*
D16*
X83449284Y-123548715D03*
D17*
X88964716Y-118033283D03*
D16*
X159649284Y-123548715D03*
D17*
X165164716Y-118033283D03*
D16*
X102499284Y-142598715D03*
D17*
X108014716Y-137083283D03*
D16*
X235849284Y-123548715D03*
D17*
X241364716Y-118033283D03*
D16*
X216799284Y-85448715D03*
D17*
X222314716Y-79933283D03*
D16*
X159649284Y-142598715D03*
D17*
X165164716Y-137083283D03*
D16*
X140599284Y-123548715D03*
D17*
X146114716Y-118033283D03*
D16*
X216799283Y-142598715D03*
D17*
X222314715Y-137083283D03*
D16*
X102499284Y-123548715D03*
D17*
X108014716Y-118033283D03*
D16*
X178699284Y-142598715D03*
D17*
X184214716Y-137083283D03*
D16*
X140599284Y-85448715D03*
D17*
X146114716Y-79933283D03*
D16*
X178699284Y-123548715D03*
D17*
X184214716Y-118033283D03*
D16*
X178699284Y-85448716D03*
D17*
X184214716Y-79933284D03*
D16*
X64399284Y-142598715D03*
D17*
X69914716Y-137083283D03*
D16*
X197749284Y-85448715D03*
D17*
X203264716Y-79933283D03*
D16*
X140599284Y-142598715D03*
D17*
X146114716Y-137083283D03*
D16*
X64399283Y-85448715D03*
D17*
X69914715Y-79933283D03*
D16*
X83449284Y-142598715D03*
D17*
X88964716Y-137083283D03*
D18*
X198501000Y-100584000D03*
X219837000Y-97536000D03*
X159639000Y-100584000D03*
X173267500Y-97536000D03*
X121539000Y-100212500D03*
X137986641Y-99918500D03*
X105156000Y-97536000D03*
X83820000Y-100584000D03*
X83820000Y-138684000D03*
X105156000Y-135636000D03*
X121798000Y-138747000D03*
X143134000Y-135699000D03*
X159885916Y-138722171D03*
X181221916Y-135674171D03*
X197998000Y-138747000D03*
X219334000Y-135699000D03*
X78867000Y-100584000D03*
X80772000Y-134493000D03*
X79248000Y-82081000D03*
X79248000Y-77636000D03*
X79291500Y-96055000D03*
X80391000Y-97155000D03*
X80391000Y-81915000D03*
X79672000Y-134493000D03*
D19*
X149987000Y-101981000D02*
X154305000Y-97663000D01*
X154305000Y-97663000D02*
X154305000Y-75445000D01*
X154305000Y-75445000D02*
X155923503Y-73826497D01*
X155923503Y-73826497D02*
X155923503Y-65045095D01*
X155923503Y-65045095D02*
X163609398Y-57359200D01*
X149987000Y-121031000D02*
X149987000Y-117475000D01*
X149987000Y-117475000D02*
X157543500Y-109918500D01*
X157543500Y-109918500D02*
X157543500Y-72759334D01*
X157543500Y-72759334D02*
X158377806Y-71925028D01*
X158377806Y-71925028D02*
X158377806Y-65701644D01*
X158377806Y-65701644D02*
X159017025Y-65062425D01*
X149987000Y-140081000D02*
X157480000Y-140081000D01*
X160401000Y-115443000D02*
X158067913Y-113109913D01*
X157480000Y-140081000D02*
X157734000Y-139827000D01*
X157734000Y-139827000D02*
X157734000Y-120396000D01*
X157734000Y-120396000D02*
X160401000Y-117729000D01*
X160831258Y-66359042D02*
X168516300Y-58674000D01*
X160401000Y-117729000D02*
X160401000Y-115443000D01*
X158067913Y-113109913D02*
X158067913Y-75345772D01*
X158067913Y-75345772D02*
X160831258Y-72582427D01*
X160831258Y-72582427D02*
X160831258Y-66359042D01*
X170154600Y-77457300D02*
X170154600Y-77237668D01*
X170154600Y-77237668D02*
X166964461Y-74047529D01*
X62484000Y-99060000D02*
X62484000Y-118110000D01*
X69914715Y-79933283D02*
X71361998Y-78486000D01*
X62484000Y-84963000D02*
X62484000Y-99060000D01*
X67513717Y-79933283D02*
X62484000Y-84963000D01*
X69914716Y-98983284D02*
X62560716Y-98983284D01*
X69914716Y-118033283D02*
X62560717Y-118033283D01*
X69914715Y-79933283D02*
X67513717Y-79933283D01*
X62484000Y-118110000D02*
X62484000Y-129652567D01*
X62560717Y-118033283D02*
X62484000Y-118110000D01*
X71361998Y-78486000D02*
X144856000Y-78486000D01*
X62560716Y-98983284D02*
X62484000Y-99060000D01*
X151319621Y-71078585D02*
X152309817Y-70088389D01*
X144860000Y-78490000D02*
X151319621Y-72030379D01*
X62484000Y-129652567D02*
X69914716Y-137083283D01*
X151319621Y-72030379D02*
X151319621Y-71078585D01*
X144856000Y-78486000D02*
X144860000Y-78490000D01*
X86715858Y-79781141D02*
X81686141Y-84810858D01*
X81686141Y-117957858D02*
X81686141Y-129500425D01*
X89116857Y-117881141D02*
X81762858Y-117881141D01*
X81762857Y-98831142D02*
X81686141Y-98907858D01*
X81686141Y-98907858D02*
X81686141Y-117957858D01*
X81686141Y-84810858D02*
X81686141Y-98907858D01*
X81686141Y-129500425D02*
X89116857Y-136931141D01*
X89116856Y-79781141D02*
X86715858Y-79781141D01*
X81762858Y-117881141D02*
X81686141Y-117957858D01*
X89116857Y-98831142D02*
X81762857Y-98831142D01*
X117100001Y-99136717D02*
X117100001Y-118186717D01*
X117023284Y-137160000D02*
X108147717Y-137160000D01*
X117100001Y-118186717D02*
X117100001Y-137083283D01*
X108147717Y-118110000D02*
X117023284Y-118110000D01*
X117100001Y-82753717D02*
X117100001Y-99136717D01*
X108147717Y-99060001D02*
X117023285Y-99060001D01*
X117100001Y-137083283D02*
X117023284Y-137160000D01*
X117023284Y-118110000D02*
X117100001Y-118186717D01*
X114356284Y-80010000D02*
X117100001Y-82753717D01*
X108147716Y-80010000D02*
X114356284Y-80010000D01*
X117023285Y-99060001D02*
X117100001Y-99136717D01*
X119786141Y-98907858D02*
X119786141Y-117957858D01*
X124815858Y-79781141D02*
X119786141Y-84810858D01*
X119862858Y-117881141D02*
X119786141Y-117957858D01*
X127216857Y-117881141D02*
X119862858Y-117881141D01*
X127216856Y-79781141D02*
X124815858Y-79781141D01*
X119786141Y-84810858D02*
X119786141Y-98907858D01*
X119786141Y-129500425D02*
X127216857Y-136931141D01*
X127216857Y-98831142D02*
X119862857Y-98831142D01*
X119786141Y-117957858D02*
X119786141Y-129500425D01*
X119862857Y-98831142D02*
X119786141Y-98907858D01*
X146266856Y-79781141D02*
X143865858Y-79781141D01*
X138836141Y-129500425D02*
X146266857Y-136931141D01*
X146266857Y-117881141D02*
X138912858Y-117881141D01*
X138836141Y-84810858D02*
X138836141Y-98907858D01*
X138836141Y-117957858D02*
X138836141Y-129500425D01*
X138836141Y-98907858D02*
X138836141Y-117957858D01*
X146266857Y-98831142D02*
X138912857Y-98831142D01*
X138912857Y-98831142D02*
X138836141Y-98907858D01*
X143865858Y-79781141D02*
X138836141Y-84810858D01*
X138912858Y-117881141D02*
X138836141Y-117957858D01*
X165164715Y-79933283D02*
X171373283Y-79933283D01*
X174117000Y-118110000D02*
X174117000Y-137006566D01*
X174117000Y-99060000D02*
X174117000Y-118110000D01*
X165164716Y-118033283D02*
X174040283Y-118033283D01*
X165164716Y-98983284D02*
X174040284Y-98983284D01*
X174117000Y-137006566D02*
X174040283Y-137083283D01*
X174040283Y-118033283D02*
X174117000Y-118110000D01*
X174117000Y-82677000D02*
X174117000Y-99060000D01*
X174040283Y-137083283D02*
X165164716Y-137083283D01*
X165164715Y-79933283D02*
X165164715Y-75399492D01*
X165164715Y-75399492D02*
X164577075Y-74811852D01*
X174040284Y-98983284D02*
X174117000Y-99060000D01*
X171373283Y-79933283D02*
X174117000Y-82677000D01*
X164577075Y-74811852D02*
X164577075Y-73375390D01*
X183985857Y-98831142D02*
X176631857Y-98831142D01*
X176555141Y-98907858D02*
X176555141Y-117957858D01*
X176631857Y-98831142D02*
X176555141Y-98907858D01*
X176555141Y-117957858D02*
X176555141Y-129500425D01*
X176631858Y-117881141D02*
X176555141Y-117957858D01*
X181584858Y-79781141D02*
X176555141Y-84810858D01*
X183985856Y-79781141D02*
X181584858Y-79781141D01*
X181584858Y-79781141D02*
X172478441Y-79781141D01*
X176555141Y-129500425D02*
X183985857Y-136931141D01*
X172478441Y-79781141D02*
X170154600Y-77457300D01*
X183985857Y-117881141D02*
X176631858Y-117881141D01*
X176555141Y-84810858D02*
X176555141Y-98907858D01*
X203416857Y-117881141D02*
X196062858Y-117881141D01*
X196062857Y-98831142D02*
X195986141Y-98907858D01*
X203416856Y-79781141D02*
X201015858Y-79781141D01*
X195986141Y-84810858D02*
X195986141Y-98907858D01*
X195986141Y-129500425D02*
X203416857Y-136931141D01*
X195986141Y-117957858D02*
X195986141Y-129500425D01*
X195986141Y-98907858D02*
X195986141Y-117957858D01*
X203416857Y-98831142D02*
X196062857Y-98831142D01*
X196062858Y-117881141D02*
X195986141Y-117957858D01*
X201015858Y-79781141D02*
X195986141Y-84810858D01*
X222447716Y-80010000D02*
X228656284Y-80010000D01*
X231400001Y-137083283D02*
X231323284Y-137160000D01*
X215569283Y-79933283D02*
X214022000Y-78386000D01*
X189820000Y-70870000D02*
X189820000Y-64650000D01*
X191280000Y-76210000D02*
X191280000Y-72330000D01*
X174900000Y-61870000D02*
X172096386Y-61870000D01*
X231323285Y-99060001D02*
X231400001Y-99136717D01*
X231400001Y-99136717D02*
X231400001Y-118186717D01*
X231400001Y-118186717D02*
X231400001Y-137083283D01*
X231323284Y-137160000D02*
X222447717Y-137160000D01*
X231323284Y-118110000D02*
X231400001Y-118186717D01*
X214022000Y-78386000D02*
X193456000Y-78386000D01*
X222447717Y-99060001D02*
X231323285Y-99060001D01*
X189820000Y-64650000D02*
X188260000Y-63090000D01*
X172096386Y-61870000D02*
X170969752Y-60743366D01*
X228656284Y-80010000D02*
X231400001Y-82753717D01*
X231400001Y-82753717D02*
X231400001Y-99136717D01*
X170969752Y-60743366D02*
X170969752Y-59331401D01*
X222447717Y-118110000D02*
X231323284Y-118110000D01*
X191280000Y-72330000D02*
X189820000Y-70870000D01*
X222314716Y-79933283D02*
X215569283Y-79933283D01*
X193456000Y-78386000D02*
X191280000Y-76210000D01*
X176120000Y-63090000D02*
X174900000Y-61870000D01*
X188260000Y-63090000D02*
X176120000Y-63090000D01*
X190860000Y-62580000D02*
X183580000Y-62580000D01*
X183580000Y-62580000D02*
X182470000Y-61470000D01*
X174805747Y-60415747D02*
X173850150Y-60415747D01*
X234162858Y-117881141D02*
X234086141Y-117957858D01*
X175860000Y-61470000D02*
X174805747Y-60415747D01*
X241516856Y-79781141D02*
X239115858Y-79781141D01*
X234162857Y-98831142D02*
X234086141Y-98907858D01*
X234086141Y-117957858D02*
X234086141Y-129500425D01*
X182470000Y-61470000D02*
X175860000Y-61470000D01*
X234086141Y-84810858D02*
X234086141Y-98907858D01*
X241516857Y-117881141D02*
X234162858Y-117881141D01*
X193710000Y-77886000D02*
X193710000Y-65430000D01*
X239115858Y-79781141D02*
X234086141Y-84810858D01*
X234619283Y-79933283D02*
X232572000Y-77886000D01*
X234086141Y-129500425D02*
X241516857Y-136931141D01*
X232572000Y-77886000D02*
X193710000Y-77886000D01*
X241516857Y-98831142D02*
X234162857Y-98831142D01*
X234086141Y-98907858D02*
X234086141Y-117957858D01*
X241364716Y-79933283D02*
X234619283Y-79933283D01*
X193710000Y-65430000D02*
X190860000Y-62580000D01*
X173850150Y-60415747D02*
X173423204Y-59988801D01*
X158724600Y-65354850D02*
X166062850Y-58016600D01*
X198501000Y-100584000D02*
X205466297Y-100584000D01*
X212598000Y-100965000D02*
X216408000Y-100965000D01*
X205466297Y-100584000D02*
X206228297Y-99822000D01*
X216408000Y-100965000D02*
X219837000Y-97536000D01*
X206228297Y-99822000D02*
X211455000Y-99822000D01*
X211455000Y-99822000D02*
X212598000Y-100965000D01*
X162687000Y-97536000D02*
X173267500Y-97536000D01*
X159639000Y-100584000D02*
X162687000Y-97536000D01*
X121539000Y-100212500D02*
X121910500Y-100584000D01*
X136779000Y-100965000D02*
X136940141Y-100965000D01*
X128778000Y-100584000D02*
X130683000Y-98679000D01*
X134493000Y-98679000D02*
X136779000Y-100965000D01*
X130683000Y-98679000D02*
X134493000Y-98679000D01*
X136940141Y-100965000D02*
X137986641Y-99918500D01*
X121910500Y-100584000D02*
X128778000Y-100584000D01*
X90785297Y-100584000D02*
X91547297Y-99822000D01*
X96774000Y-99822000D02*
X97917000Y-100965000D01*
X91547297Y-99822000D02*
X96774000Y-99822000D01*
X83820000Y-100584000D02*
X90785297Y-100584000D01*
X97917000Y-100965000D02*
X101727000Y-100965000D01*
X101727000Y-100965000D02*
X105156000Y-97536000D01*
X101727000Y-139065000D02*
X105156000Y-135636000D01*
X90785297Y-138684000D02*
X91547297Y-137922000D01*
X96774000Y-137922000D02*
X97917000Y-139065000D01*
X97917000Y-139065000D02*
X101727000Y-139065000D01*
X83820000Y-138684000D02*
X90785297Y-138684000D01*
X91547297Y-137922000D02*
X96774000Y-137922000D01*
X129525297Y-137985000D02*
X134752000Y-137985000D01*
X134752000Y-137985000D02*
X135895000Y-139128000D01*
X128763297Y-138747000D02*
X129525297Y-137985000D01*
X139705000Y-139128000D02*
X143134000Y-135699000D01*
X135895000Y-139128000D02*
X139705000Y-139128000D01*
X121798000Y-138747000D02*
X128763297Y-138747000D01*
X167613213Y-137960171D02*
X172839916Y-137960171D01*
X166851213Y-138722171D02*
X167613213Y-137960171D01*
X177792916Y-139103171D02*
X181221916Y-135674171D01*
X173982916Y-139103171D02*
X177792916Y-139103171D01*
X172839916Y-137960171D02*
X173982916Y-139103171D01*
X159885916Y-138722171D02*
X166851213Y-138722171D01*
X204963297Y-138747000D02*
X205725297Y-137985000D01*
X205725297Y-137985000D02*
X210952000Y-137985000D01*
X212095000Y-139128000D02*
X215905000Y-139128000D01*
X215905000Y-139128000D02*
X219334000Y-135699000D01*
X210952000Y-137985000D02*
X212095000Y-139128000D01*
X197998000Y-138747000D02*
X204963297Y-138747000D01*
D20*
X78867000Y-100584000D02*
X80772000Y-102489000D01*
X149856365Y-70773635D02*
X149856365Y-69430989D01*
X142994000Y-77636000D02*
X149856365Y-70773635D01*
X79248000Y-77636000D02*
X142994000Y-77636000D01*
X79248000Y-96011500D02*
X79291500Y-96055000D01*
X80772000Y-102489000D02*
X80772000Y-134493000D01*
X79248000Y-82081000D02*
X79248000Y-96011500D01*
X76962000Y-100965000D02*
X76962000Y-99441000D01*
X78867000Y-97536000D02*
X79248000Y-97155000D01*
X76962000Y-99441000D02*
X78867000Y-97536000D01*
X79672000Y-104394000D02*
X79672000Y-103675000D01*
X79672000Y-103675000D02*
X76962000Y-100965000D01*
X79672000Y-134493000D02*
X79672000Y-104394000D01*
X79248000Y-97155000D02*
X80391000Y-97155000D01*
X80391000Y-81915000D02*
X80391000Y-97155000D01*
M02*
