M48
; DRILL file {KiCad 6.0.7-f9a2dced07~116~ubuntu20.04.1} date Thu 22 Sep 2022 09:47:33 PM
; FORMAT={-:-/ absolute / metric / decimal}
; #@! TF.CreationDate,2022-09-22T21:47:33+08:00
; #@! TF.GenerationSoftware,Kicad,Pcbnew,6.0.7-f9a2dced07~116~ubuntu20.04.1
; #@! TF.FileFunction,Plated,1,2,PTH
FMAT,2
METRIC
; #@! TA.AperFunction,Plated,PTH,ViaDrill
T1C0.400
; #@! TA.AperFunction,Plated,PTH,ComponentDrill
T2C0.700
; #@! TA.AperFunction,Plated,PTH,ComponentDrill
T3C0.813
; #@! TA.AperFunction,Plated,PTH,ComponentDrill
T4C1.100
; #@! TA.AperFunction,Plated,PTH,ComponentDrill
T5C1.499
%
G90
G05
T1
X78.867Y-100.584
X79.248Y-77.636
X79.248Y-82.081
X79.291Y-96.055
X79.672Y-134.493
X80.391Y-81.915
X80.391Y-97.155
X80.772Y-134.493
X83.82Y-100.584
X83.82Y-138.684
X105.156Y-97.536
X105.156Y-135.636
X121.539Y-100.212
X121.798Y-138.747
X137.987Y-99.918
X143.134Y-135.699
X159.639Y-100.584
X159.886Y-138.722
X173.267Y-97.536
X181.222Y-135.674
X197.998Y-138.747
X198.501Y-100.584
X219.334Y-135.699
X219.837Y-97.536
T2
X64.399Y-85.449
X64.399Y-104.499
X64.399Y-123.549
X64.399Y-142.599
X69.915Y-79.933
X69.915Y-98.983
X69.915Y-118.033
X69.915Y-137.083
X83.449Y-104.499
X83.449Y-123.549
X83.449Y-142.599
X83.449Y-85.449
X88.965Y-98.983
X88.965Y-118.033
X88.965Y-137.083
X88.965Y-79.933
X102.499Y-85.449
X102.499Y-104.499
X102.499Y-123.549
X102.499Y-142.599
X108.015Y-79.933
X108.015Y-98.983
X108.015Y-118.033
X108.015Y-137.083
X121.549Y-85.449
X121.549Y-104.499
X121.549Y-123.549
X121.549Y-142.599
X127.065Y-79.933
X127.065Y-98.983
X127.065Y-118.033
X127.065Y-137.083
X140.599Y-85.449
X140.599Y-104.499
X140.599Y-123.549
X140.599Y-142.599
X146.115Y-79.933
X146.115Y-98.983
X146.115Y-118.033
X146.115Y-137.083
X159.649Y-85.449
X159.649Y-104.499
X159.649Y-123.549
X159.649Y-142.599
X165.165Y-79.933
X165.165Y-98.983
X165.165Y-118.033
X165.165Y-137.083
X178.699Y-85.449
X178.699Y-104.499
X178.699Y-123.549
X178.699Y-142.599
X184.215Y-79.933
X184.215Y-98.983
X184.215Y-118.033
X184.215Y-137.083
X197.749Y-85.449
X197.749Y-104.499
X197.749Y-123.549
X197.749Y-142.599
X203.265Y-79.933
X203.265Y-98.983
X203.265Y-118.033
X203.265Y-137.083
X216.799Y-123.549
X216.799Y-142.599
X216.799Y-85.449
X216.799Y-104.499
X222.315Y-118.033
X222.315Y-137.083
X222.315Y-79.933
X222.315Y-98.983
X235.849Y-85.449
X235.849Y-104.499
X235.849Y-123.549
X235.849Y-142.599
X241.365Y-79.933
X241.365Y-98.983
X241.365Y-118.033
X241.365Y-137.083
T3
X142.496Y-67.459
X144.949Y-68.116
X146.435Y-52.757
X147.403Y-68.774
X148.889Y-53.415
X149.856Y-69.431
X151.342Y-54.072
X152.31Y-70.088
X153.796Y-54.73
X154.763Y-70.746
X156.249Y-55.387
X157.217Y-71.403
X158.702Y-56.044
X159.67Y-72.061
X161.156Y-56.702
X162.124Y-72.718
X163.609Y-57.359
X164.577Y-73.375
X166.063Y-58.017
X167.031Y-74.033
X168.516Y-58.674
X169.484Y-74.69
X170.97Y-59.331
X173.423Y-59.989
T4
X184.964Y-65.568
X184.964Y-70.068
X191.464Y-65.568
X191.464Y-70.068
T5
X67.437Y-85.471
X67.437Y-104.521
X67.437Y-123.571
X67.437Y-142.621
X73.787Y-82.931
X73.787Y-101.981
X73.787Y-121.031
X73.787Y-140.081
X86.487Y-104.521
X86.487Y-85.471
X86.487Y-123.571
X86.487Y-142.621
X92.837Y-101.981
X92.837Y-82.931
X92.837Y-121.031
X92.837Y-140.081
X105.537Y-85.471
X105.537Y-123.571
X105.537Y-142.621
X105.537Y-104.521
X111.887Y-82.931
X111.887Y-121.031
X111.887Y-140.081
X111.887Y-101.981
X124.587Y-85.471
X124.587Y-104.521
X124.587Y-123.571
X124.587Y-142.621
X130.937Y-82.931
X130.937Y-101.981
X130.937Y-121.031
X130.937Y-140.081
X143.637Y-85.471
X143.637Y-104.521
X143.637Y-123.571
X143.637Y-142.621
X149.987Y-82.931
X149.987Y-101.981
X149.987Y-121.031
X149.987Y-140.081
X162.687Y-85.471
X162.687Y-104.521
X162.687Y-123.571
X162.687Y-142.621
X169.037Y-82.931
X169.037Y-101.981
X169.037Y-121.031
X169.037Y-140.081
X181.737Y-85.471
X181.737Y-104.521
X181.737Y-123.571
X181.737Y-142.621
X188.087Y-82.931
X188.087Y-101.981
X188.087Y-121.031
X188.087Y-140.081
X200.787Y-104.521
X200.787Y-85.471
X200.787Y-123.571
X200.787Y-142.621
X207.137Y-101.981
X207.137Y-82.931
X207.137Y-121.031
X207.137Y-140.081
X219.837Y-85.471
X219.837Y-123.571
X219.837Y-142.621
X219.837Y-104.521
X226.187Y-82.931
X226.187Y-121.031
X226.187Y-140.081
X226.187Y-101.981
X238.887Y-85.471
X238.887Y-104.521
X238.887Y-123.571
X238.887Y-142.621
X245.237Y-82.931
X245.237Y-101.981
X245.237Y-121.031
X245.237Y-140.081
T0
M30
