  0
SECTION
  2
HEADER
  9
$ANGBASE
  50
0.0
  9
$ANGDIR
  70
1
  9
$MEASUREMENT
  70
1
  0
ENDSEC
  0
SECTION
  2
TABLES
  0
TABLE
  2
LTYPE
  70
4
  0
LTYPE
  5
40F
  2
CONTINUOUS
  70
0
  3
Solid line
  72
65
  73
0
  40
0.0
  0
LTYPE
  5
410
  2
DASHDOT
 70
0
  3
Dash Dot ____ _ ____ _
 72
65
 73
4
 40
2.0
 49
1.25
 49
-0.25
 49
0.25
 49
-0.25
  0
LTYPE
  5
411
  2
DASHED
 70
0
  3
Dashed __ __ __ __ __
 72
65
 73
2
 40
0.75
 49
0.5
 49
-0.25
  0
LTYPE
  5
43B
  2
DOTTED
 70
0
  3
Dotted .  .  .  .
 72
65
 73
2
 40
0.2
 49
0.0
 49
-0.2
  0
ENDTAB
  0
TABLE
  2
STYLE
  70
4
  0
STYLE
  2
KICAD
  70
0
  40
0
  41
1
  42
1
  50
0
  71
0
  3
isocp.shx
  0
STYLE
  2
KICADB
  70
0
  40
0
  41
1
  42
1
  50
0
  71
0
  3
isocp.shx
  0
STYLE
  2
KICADI
  70
0
  40
0
  41
1
  42
1
  50
15
  71
0
  3
isocp.shx
  0
STYLE
  2
KICADBI
  70
0
  40
0
  41
1
  42
1
  50
15
  71
0
  3
isocp.shx
  0
ENDTAB
  0
TABLE
  2
LAYER
  70
1
  0
LAYER
  2
BLACK
  70
0
  62
7
  6
CONTINUOUS
  0
ENDTAB
  0
ENDSEC
  0
SECTION
  2
ENTITIES
0
LINE
8
BLACK
6
CONTINUOUS
10
135.103
20
-35.2235
11
135.32
21
-35.2653
0
LINE
8
BLACK
6
CONTINUOUS
10
135.32
20
-35.2653
11
135.32
21
-35.2653
0
LINE
8
BLACK
6
CONTINUOUS
10
135.32
20
-35.2653
11
135.32
21
-35.2653
0
LINE
8
BLACK
6
CONTINUOUS
10
135.32
20
-35.2653
11
135.32
21
-35.2653
0
LINE
8
BLACK
6
CONTINUOUS
10
135.32
20
-35.2653
11
142.042
21
-37.0707
0
LINE
8
BLACK
6
CONTINUOUS
10
142.042
20
-37.0707
11
142.042
21
-37.0707
0
LINE
8
BLACK
6
CONTINUOUS
10
142.042
20
-37.0707
11
142.042
21
-37.0707
0
LINE
8
BLACK
6
CONTINUOUS
10
142.042
20
-37.0707
11
173.819
21
-45.6197
0
LINE
8
BLACK
6
CONTINUOUS
10
173.819
20
-45.6197
11
173.819
21
-45.6198
0
LINE
8
BLACK
6
CONTINUOUS
10
173.819
20
-45.6198
11
173.819
21
-45.6198
0
LINE
8
BLACK
6
CONTINUOUS
10
173.819
20
-45.6198
11
173.826
21
-45.6256
0
LINE
8
BLACK
6
CONTINUOUS
10
173.826
20
-45.6256
11
173.834
21
-45.6313
0
LINE
8
BLACK
6
CONTINUOUS
10
173.834
20
-45.6313
11
173.834
21
-45.6316
0
LINE
8
BLACK
6
CONTINUOUS
10
173.834
20
-45.6316
11
173.834
21
-45.6317
0
LINE
8
BLACK
6
CONTINUOUS
10
173.834
20
-45.6317
11
173.835
21
-45.641
0
LINE
8
BLACK
6
CONTINUOUS
10
173.835
20
-45.641
11
173.836
21
-45.6503
0
LINE
8
BLACK
6
CONTINUOUS
10
173.836
20
-45.6503
11
173.836
21
-45.6505
0
LINE
8
BLACK
6
CONTINUOUS
10
173.836
20
-45.6505
11
173.836
21
-45.6507
0
LINE
8
BLACK
6
CONTINUOUS
10
173.836
20
-45.6507
11
168.388
21
-64.5864
0
LINE
8
BLACK
6
CONTINUOUS
10
168.388
20
-64.5864
11
168.384
21
-64.5913
0
LINE
8
BLACK
6
CONTINUOUS
10
168.384
20
-64.5913
11
168.382
21
-64.5972
0
LINE
8
BLACK
6
CONTINUOUS
10
168.382
20
-64.5972
11
168.378
21
-64.5986
0
LINE
8
BLACK
6
CONTINUOUS
10
168.378
20
-64.5986
11
168.376
21
-64.6014
0
LINE
8
BLACK
6
CONTINUOUS
10
168.376
20
-64.6014
11
168.37
21
-64.6021
0
LINE
8
BLACK
6
CONTINUOUS
10
168.37
20
-64.6021
11
168.364
21
-64.6045
0
LINE
8
BLACK
6
CONTINUOUS
10
168.364
20
-64.6045
11
136.893
21
-64.6224
0
LINE
8
BLACK
6
CONTINUOUS
10
136.893
20
-64.6224
11
136.89
21
-64.6211
0
LINE
8
BLACK
6
CONTINUOUS
10
136.89
20
-64.6211
11
136.887
21
-64.6215
0
LINE
8
BLACK
6
CONTINUOUS
10
136.887
20
-64.6215
11
126.562
21
-61.8605
0
LINE
8
BLACK
6
CONTINUOUS
10
126.562
20
-61.8605
11
126.562
21
-61.8604
0
LINE
8
BLACK
6
CONTINUOUS
10
126.562
20
-61.8604
11
126.562
21
-61.8604
0
LINE
8
BLACK
6
CONTINUOUS
10
126.562
20
-61.8604
11
126.554
21
-61.8545
0
LINE
8
BLACK
6
CONTINUOUS
10
126.554
20
-61.8545
11
126.547
21
-61.8488
0
LINE
8
BLACK
6
CONTINUOUS
10
126.547
20
-61.8488
11
126.547
21
-61.8488
0
LINE
8
BLACK
6
CONTINUOUS
10
126.547
20
-61.8488
11
126.547
21
-61.8488
0
LINE
8
BLACK
6
CONTINUOUS
10
126.547
20
-61.8488
11
126.545
21
-61.8393
0
LINE
8
BLACK
6
CONTINUOUS
10
126.545
20
-61.8393
11
126.544
21
-61.8298
0
LINE
8
BLACK
6
CONTINUOUS
10
126.544
20
-61.8298
11
126.544
21
-61.8298
0
LINE
8
BLACK
6
CONTINUOUS
10
126.544
20
-61.8298
11
126.544
21
-61.8298
0
LINE
8
BLACK
6
CONTINUOUS
10
126.544
20
-61.8298
11
126.709
21
-61.2188
0
LINE
8
BLACK
6
CONTINUOUS
10
126.709
20
-61.2188
11
126.707
21
-61.2056
0
LINE
8
BLACK
6
CONTINUOUS
10
126.707
20
-61.2056
11
133.423
21
-36.3606
0
LINE
8
BLACK
6
CONTINUOUS
10
133.423
20
-36.3606
11
133.423
21
-36.3606
0
LINE
8
BLACK
6
CONTINUOUS
10
133.423
20
-36.3606
11
133.495
21
-36.1518
0
LINE
8
BLACK
6
CONTINUOUS
10
133.495
20
-36.1518
11
133.597
21
-35.9553
0
LINE
8
BLACK
6
CONTINUOUS
10
133.597
20
-35.9553
11
133.725
21
-35.7753
0
LINE
8
BLACK
6
CONTINUOUS
10
133.725
20
-35.7753
11
133.877
21
-35.6153
0
LINE
8
BLACK
6
CONTINUOUS
10
133.877
20
-35.6153
11
134.051
21
-35.4787
0
LINE
8
BLACK
6
CONTINUOUS
10
134.051
20
-35.4787
11
134.242
21
-35.3682
0
LINE
8
BLACK
6
CONTINUOUS
10
134.242
20
-35.3682
11
134.448
21
-35.2861
0
LINE
8
BLACK
6
CONTINUOUS
10
134.448
20
-35.2861
11
134.662
21
-35.234
0
LINE
8
BLACK
6
CONTINUOUS
10
134.662
20
-35.234
11
134.882
21
-35.213
0
LINE
8
BLACK
6
CONTINUOUS
10
134.882
20
-35.213
11
135.103
21
-35.2235
0
LINE
8
BLACK
6
CONTINUOUS
10
134.67
20
-35.2795
11
134.462
21
-35.33
0
LINE
8
BLACK
6
CONTINUOUS
10
134.462
20
-35.33
11
134.263
21
-35.4097
0
LINE
8
BLACK
6
CONTINUOUS
10
134.263
20
-35.4097
11
134.077
21
-35.517
0
LINE
8
BLACK
6
CONTINUOUS
10
134.077
20
-35.517
11
133.908
21
-35.6495
0
LINE
8
BLACK
6
CONTINUOUS
10
133.908
20
-35.6495
11
133.76
21
-35.8047
0
LINE
8
BLACK
6
CONTINUOUS
10
133.76
20
-35.8047
11
133.636
21
-35.9794
0
LINE
8
BLACK
6
CONTINUOUS
10
133.636
20
-35.9794
11
133.538
21
-36.1699
0
LINE
8
BLACK
6
CONTINUOUS
10
133.538
20
-36.1699
11
133.47
21
-36.3651
0
LINE
8
BLACK
6
CONTINUOUS
10
133.47
20
-36.3651
11
133.471
21
-36.3736
0
LINE
8
BLACK
6
CONTINUOUS
10
133.471
20
-36.3736
11
133.471
21
-36.3736
0
LINE
8
BLACK
6
CONTINUOUS
10
133.471
20
-36.3736
11
133.471
21
-36.3736
0
LINE
8
BLACK
6
CONTINUOUS
10
133.471
20
-36.3736
11
126.599
21
-61.8186
0
LINE
8
BLACK
6
CONTINUOUS
10
126.599
20
-61.8186
11
136.897
21
-64.5724
0
LINE
8
BLACK
6
CONTINUOUS
10
136.897
20
-64.5724
11
168.345
21
-64.5545
0
LINE
8
BLACK
6
CONTINUOUS
10
168.345
20
-64.5545
11
173.781
21
-45.6613
0
LINE
8
BLACK
6
CONTINUOUS
10
173.781
20
-45.6613
11
142.029
21
-37.119
0
LINE
8
BLACK
6
CONTINUOUS
10
142.029
20
-37.119
11
142.029
21
-37.119
0
LINE
8
BLACK
6
CONTINUOUS
10
142.029
20
-37.119
11
135.307
21
-35.3136
0
LINE
8
BLACK
6
CONTINUOUS
10
135.307
20
-35.3136
11
135.307
21
-35.3136
0
LINE
8
BLACK
6
CONTINUOUS
10
135.307
20
-35.3136
11
135.307
21
-35.3136
0
LINE
8
BLACK
6
CONTINUOUS
10
135.307
20
-35.3136
11
135.3
21
-35.3084
0
LINE
8
BLACK
6
CONTINUOUS
10
135.3
20
-35.3084
11
135.098
21
-35.2693
0
LINE
8
BLACK
6
CONTINUOUS
10
135.098
20
-35.2693
11
134.883
21
-35.2591
0
LINE
8
BLACK
6
CONTINUOUS
10
134.883
20
-35.2591
11
134.67
21
-35.2795
0
LINE
8
BLACK
6
CONTINUOUS
10
164.897
20
-59.8409
11
164.961
21
-59.6367
0
LINE
8
BLACK
6
CONTINUOUS
10
164.961
20
-59.6367
11
165.06
21
-59.4476
0
LINE
8
BLACK
6
CONTINUOUS
10
165.06
20
-59.4476
11
165.193
21
-59.2797
0
LINE
8
BLACK
6
CONTINUOUS
10
165.193
20
-59.2797
11
165.353
21
-59.1388
0
LINE
8
BLACK
6
CONTINUOUS
10
165.353
20
-59.1388
11
165.537
21
-59.0295
0
LINE
8
BLACK
6
CONTINUOUS
10
165.537
20
-59.0295
11
165.737
21
-58.9555
0
LINE
8
BLACK
6
CONTINUOUS
10
165.737
20
-58.9555
11
165.948
21
-58.9193
0
LINE
8
BLACK
6
CONTINUOUS
10
165.948
20
-58.9193
11
166.162
21
-58.9221
0
LINE
8
BLACK
6
CONTINUOUS
10
166.162
20
-58.9221
11
166.372
21
-58.9638
0
LINE
8
BLACK
6
CONTINUOUS
10
166.372
20
-58.9638
11
166.57
21
-59.043
0
LINE
8
BLACK
6
CONTINUOUS
10
166.57
20
-59.043
11
166.751
21
-59.1571
0
LINE
8
BLACK
6
CONTINUOUS
10
166.751
20
-59.1571
11
166.908
21
-59.3022
0
LINE
8
BLACK
6
CONTINUOUS
10
166.908
20
-59.3022
11
167.036
21
-59.4734
0
LINE
8
BLACK
6
CONTINUOUS
10
167.036
20
-59.4734
11
167.13
21
-59.6651
0
LINE
8
BLACK
6
CONTINUOUS
10
167.13
20
-59.6651
11
167.188
21
-59.8708
0
LINE
8
BLACK
6
CONTINUOUS
10
167.188
20
-59.8708
11
167.208
21
-60.0837
0
LINE
8
BLACK
6
CONTINUOUS
10
167.208
20
-60.0837
11
167.206
21
-60.1448
0
LINE
8
BLACK
6
CONTINUOUS
10
167.206
20
-60.1448
11
167.176
21
-60.3564
0
LINE
8
BLACK
6
CONTINUOUS
10
167.176
20
-60.3564
11
167.107
21
-60.5588
0
LINE
8
BLACK
6
CONTINUOUS
10
167.107
20
-60.5588
11
167.002
21
-60.7453
0
LINE
8
BLACK
6
CONTINUOUS
10
167.002
20
-60.7453
11
166.866
21
-60.9096
0
LINE
8
BLACK
6
CONTINUOUS
10
166.866
20
-60.9096
11
166.701
21
-61.0463
0
LINE
8
BLACK
6
CONTINUOUS
10
166.701
20
-61.0463
11
166.515
21
-61.1507
0
LINE
8
BLACK
6
CONTINUOUS
10
166.515
20
-61.1507
11
166.312
21
-61.2194
0
LINE
8
BLACK
6
CONTINUOUS
10
166.312
20
-61.2194
11
166.101
21
-61.2501
0
LINE
8
BLACK
6
CONTINUOUS
10
166.101
20
-61.2501
11
165.887
21
-61.2417
0
LINE
8
BLACK
6
CONTINUOUS
10
165.887
20
-61.2417
11
165.679
21
-61.1945
0
LINE
8
BLACK
6
CONTINUOUS
10
165.679
20
-61.1945
11
165.482
21
-61.1102
0
LINE
8
BLACK
6
CONTINUOUS
10
165.482
20
-61.1102
11
165.305
21
-60.9914
0
LINE
8
BLACK
6
CONTINUOUS
10
165.305
20
-60.9914
11
165.152
21
-60.8423
0
LINE
8
BLACK
6
CONTINUOUS
10
165.152
20
-60.8423
11
165.028
21
-60.6677
0
LINE
8
BLACK
6
CONTINUOUS
10
165.028
20
-60.6677
11
164.939
21
-60.4736
0
LINE
8
BLACK
6
CONTINUOUS
10
164.939
20
-60.4736
11
164.886
21
-60.2664
0
LINE
8
BLACK
6
CONTINUOUS
10
164.886
20
-60.2664
11
164.872
21
-60.0543
0
LINE
8
BLACK
6
CONTINUOUS
10
164.872
20
-60.0543
11
164.872
21
-60.0531
0
LINE
8
BLACK
6
CONTINUOUS
10
164.872
20
-60.0531
11
164.897
21
-59.8409
0
LINE
8
BLACK
6
CONTINUOUS
10
164.981
20
-60.4585
11
165.067
21
-60.6451
0
LINE
8
BLACK
6
CONTINUOUS
10
165.067
20
-60.6451
11
165.186
21
-60.8129
0
LINE
8
BLACK
6
CONTINUOUS
10
165.186
20
-60.8129
11
165.333
21
-60.9563
0
LINE
8
BLACK
6
CONTINUOUS
10
165.333
20
-60.9563
11
165.504
21
-61.0704
0
LINE
8
BLACK
6
CONTINUOUS
10
165.504
20
-61.0704
11
165.693
21
-61.1515
0
LINE
8
BLACK
6
CONTINUOUS
10
165.693
20
-61.1515
11
165.893
21
-61.1969
0
LINE
8
BLACK
6
CONTINUOUS
10
165.893
20
-61.1969
11
166.099
21
-61.205
0
LINE
8
BLACK
6
CONTINUOUS
10
166.099
20
-61.205
11
166.302
21
-61.1755
0
LINE
8
BLACK
6
CONTINUOUS
10
166.302
20
-61.1755
11
166.496
21
-61.1094
0
LINE
8
BLACK
6
CONTINUOUS
10
166.496
20
-61.1094
11
166.676
21
-61.009
0
LINE
8
BLACK
6
CONTINUOUS
10
166.676
20
-61.009
11
166.834
21
-60.8776
0
LINE
8
BLACK
6
CONTINUOUS
10
166.834
20
-60.8776
11
166.965
21
-60.7197
0
LINE
8
BLACK
6
CONTINUOUS
10
166.965
20
-60.7197
11
167.066
21
-60.5404
0
LINE
8
BLACK
6
CONTINUOUS
10
167.066
20
-60.5404
11
167.132
21
-60.3458
0
LINE
8
BLACK
6
CONTINUOUS
10
167.132
20
-60.3458
11
167.161
21
-60.1425
0
LINE
8
BLACK
6
CONTINUOUS
10
167.161
20
-60.1425
11
167.163
21
-60.0837
0
LINE
8
BLACK
6
CONTINUOUS
10
167.163
20
-60.0837
11
167.144
21
-59.8791
0
LINE
8
BLACK
6
CONTINUOUS
10
167.144
20
-59.8791
11
167.088
21
-59.6813
0
LINE
8
BLACK
6
CONTINUOUS
10
167.088
20
-59.6813
11
166.997
21
-59.497
0
LINE
8
BLACK
6
CONTINUOUS
10
166.997
20
-59.497
11
166.874
21
-59.3324
0
LINE
8
BLACK
6
CONTINUOUS
10
166.874
20
-59.3324
11
166.723
21
-59.1929
0
LINE
8
BLACK
6
CONTINUOUS
10
166.723
20
-59.1929
11
166.55
21
-59.0833
0
LINE
8
BLACK
6
CONTINUOUS
10
166.55
20
-59.0833
11
166.359
21
-59.0071
0
LINE
8
BLACK
6
CONTINUOUS
10
166.359
20
-59.0071
11
166.157
21
-58.9671
0
LINE
8
BLACK
6
CONTINUOUS
10
166.157
20
-58.9671
11
165.952
21
-58.9644
0
LINE
8
BLACK
6
CONTINUOUS
10
165.952
20
-58.9644
11
165.749
21
-58.9992
0
LINE
8
BLACK
6
CONTINUOUS
10
165.749
20
-58.9992
11
165.556
21
-59.0703
0
LINE
8
BLACK
6
CONTINUOUS
10
165.556
20
-59.0703
11
165.38
21
-59.1753
0
LINE
8
BLACK
6
CONTINUOUS
10
165.38
20
-59.1753
11
165.225
21
-59.3108
0
LINE
8
BLACK
6
CONTINUOUS
10
165.225
20
-59.3108
11
165.098
21
-59.4722
0
LINE
8
BLACK
6
CONTINUOUS
10
165.098
20
-59.4722
11
165.002
21
-59.654
0
LINE
8
BLACK
6
CONTINUOUS
10
165.002
20
-59.654
11
164.942
21
-59.8503
0
LINE
8
BLACK
6
CONTINUOUS
10
164.942
20
-59.8503
11
164.917
21
-60.0543
0
LINE
8
BLACK
6
CONTINUOUS
10
164.917
20
-60.0543
11
164.931
21
-60.2593
0
LINE
8
BLACK
6
CONTINUOUS
10
164.931
20
-60.2593
11
164.981
21
-60.4585
0
LINE
8
BLACK
6
CONTINUOUS
10
130.036
20
-59.2313
11
130.099
21
-59.0271
0
LINE
8
BLACK
6
CONTINUOUS
10
130.099
20
-59.0271
11
130.199
21
-58.838
0
LINE
8
BLACK
6
CONTINUOUS
10
130.199
20
-58.838
11
130.331
21
-58.6701
0
LINE
8
BLACK
6
CONTINUOUS
10
130.331
20
-58.6701
11
130.492
21
-58.5292
0
LINE
8
BLACK
6
CONTINUOUS
10
130.492
20
-58.5292
11
130.675
21
-58.4199
0
LINE
8
BLACK
6
CONTINUOUS
10
130.675
20
-58.4199
11
130.876
21
-58.3459
0
LINE
8
BLACK
6
CONTINUOUS
10
130.876
20
-58.3459
11
131.087
21
-58.3097
0
LINE
8
BLACK
6
CONTINUOUS
10
131.087
20
-58.3097
11
131.3
21
-58.3125
0
LINE
8
BLACK
6
CONTINUOUS
10
131.3
20
-58.3125
11
131.51
21
-58.3542
0
LINE
8
BLACK
6
CONTINUOUS
10
131.51
20
-58.3542
11
131.709
21
-58.4334
0
LINE
8
BLACK
6
CONTINUOUS
10
131.709
20
-58.4334
11
131.889
21
-58.5475
0
LINE
8
BLACK
6
CONTINUOUS
10
131.889
20
-58.5475
11
132.046
21
-58.6926
0
LINE
8
BLACK
6
CONTINUOUS
10
132.046
20
-58.6926
11
132.174
21
-58.8638
0
LINE
8
BLACK
6
CONTINUOUS
10
132.174
20
-58.8638
11
132.269
21
-59.0555
0
LINE
8
BLACK
6
CONTINUOUS
10
132.269
20
-59.0555
11
132.327
21
-59.2612
0
LINE
8
BLACK
6
CONTINUOUS
10
132.327
20
-59.2612
11
132.346
21
-59.4741
0
LINE
8
BLACK
6
CONTINUOUS
10
132.346
20
-59.4741
11
132.345
21
-59.5352
0
LINE
8
BLACK
6
CONTINUOUS
10
132.345
20
-59.5352
11
132.314
21
-59.7468
0
LINE
8
BLACK
6
CONTINUOUS
10
132.314
20
-59.7468
11
132.245
21
-59.9492
0
LINE
8
BLACK
6
CONTINUOUS
10
132.245
20
-59.9492
11
132.141
21
-60.1357
0
LINE
8
BLACK
6
CONTINUOUS
10
132.141
20
-60.1357
11
132.004
21
-60.3
0
LINE
8
BLACK
6
CONTINUOUS
10
132.004
20
-60.3
11
131.84
21
-60.4367
0
LINE
8
BLACK
6
CONTINUOUS
10
131.84
20
-60.4367
11
131.653
21
-60.5411
0
LINE
8
BLACK
6
CONTINUOUS
10
131.653
20
-60.5411
11
131.451
21
-60.6098
0
LINE
8
BLACK
6
CONTINUOUS
10
131.451
20
-60.6098
11
131.239
21
-60.6405
0
LINE
8
BLACK
6
CONTINUOUS
10
131.239
20
-60.6405
11
131.026
21
-60.6321
0
LINE
8
BLACK
6
CONTINUOUS
10
131.026
20
-60.6321
11
130.817
21
-60.5849
0
LINE
8
BLACK
6
CONTINUOUS
10
130.817
20
-60.5849
11
130.621
21
-60.5006
0
LINE
8
BLACK
6
CONTINUOUS
10
130.621
20
-60.5006
11
130.443
21
-60.3818
0
LINE
8
BLACK
6
CONTINUOUS
10
130.443
20
-60.3818
11
130.29
21
-60.2327
0
LINE
8
BLACK
6
CONTINUOUS
10
130.29
20
-60.2327
11
130.167
21
-60.0581
0
LINE
8
BLACK
6
CONTINUOUS
10
130.167
20
-60.0581
11
130.077
21
-59.864
0
LINE
8
BLACK
6
CONTINUOUS
10
130.077
20
-59.864
11
130.025
21
-59.6568
0
LINE
8
BLACK
6
CONTINUOUS
10
130.025
20
-59.6568
11
130.011
21
-59.4447
0
LINE
8
BLACK
6
CONTINUOUS
10
130.011
20
-59.4447
11
130.011
21
-59.4435
0
LINE
8
BLACK
6
CONTINUOUS
10
130.011
20
-59.4435
11
130.036
21
-59.2313
0
LINE
8
BLACK
6
CONTINUOUS
10
130.12
20
-59.8489
11
130.206
21
-60.0355
0
LINE
8
BLACK
6
CONTINUOUS
10
130.206
20
-60.0355
11
130.325
21
-60.2033
0
LINE
8
BLACK
6
CONTINUOUS
10
130.325
20
-60.2033
11
130.472
21
-60.3467
0
LINE
8
BLACK
6
CONTINUOUS
10
130.472
20
-60.3467
11
130.643
21
-60.4608
0
LINE
8
BLACK
6
CONTINUOUS
10
130.643
20
-60.4608
11
130.831
21
-60.5419
0
LINE
8
BLACK
6
CONTINUOUS
10
130.831
20
-60.5419
11
131.032
21
-60.5873
0
LINE
8
BLACK
6
CONTINUOUS
10
131.032
20
-60.5873
11
131.237
21
-60.5954
0
LINE
8
BLACK
6
CONTINUOUS
10
131.237
20
-60.5954
11
131.44
21
-60.5659
0
LINE
8
BLACK
6
CONTINUOUS
10
131.44
20
-60.5659
11
131.635
21
-60.4998
0
LINE
8
BLACK
6
CONTINUOUS
10
131.635
20
-60.4998
11
131.814
21
-60.3994
0
LINE
8
BLACK
6
CONTINUOUS
10
131.814
20
-60.3994
11
131.972
21
-60.268
0
LINE
8
BLACK
6
CONTINUOUS
10
131.972
20
-60.268
11
132.104
21
-60.1101
0
LINE
8
BLACK
6
CONTINUOUS
10
132.104
20
-60.1101
11
132.204
21
-59.9308
0
LINE
8
BLACK
6
CONTINUOUS
10
132.204
20
-59.9308
11
132.27
21
-59.7362
0
LINE
8
BLACK
6
CONTINUOUS
10
132.27
20
-59.7362
11
132.3
21
-59.5329
0
LINE
8
BLACK
6
CONTINUOUS
10
132.3
20
-59.5329
11
132.301
21
-59.4741
0
LINE
8
BLACK
6
CONTINUOUS
10
132.301
20
-59.4741
11
132.282
21
-59.2695
0
LINE
8
BLACK
6
CONTINUOUS
10
132.282
20
-59.2695
11
132.227
21
-59.0717
0
LINE
8
BLACK
6
CONTINUOUS
10
132.227
20
-59.0717
11
132.136
21
-58.8874
0
LINE
8
BLACK
6
CONTINUOUS
10
132.136
20
-58.8874
11
132.013
21
-58.7228
0
LINE
8
BLACK
6
CONTINUOUS
10
132.013
20
-58.7228
11
131.862
21
-58.5833
0
LINE
8
BLACK
6
CONTINUOUS
10
131.862
20
-58.5833
11
131.688
21
-58.4737
0
LINE
8
BLACK
6
CONTINUOUS
10
131.688
20
-58.4737
11
131.497
21
-58.3975
0
LINE
8
BLACK
6
CONTINUOUS
10
131.497
20
-58.3975
11
131.296
21
-58.3575
0
LINE
8
BLACK
6
CONTINUOUS
10
131.296
20
-58.3575
11
131.09
21
-58.3548
0
LINE
8
BLACK
6
CONTINUOUS
10
131.09
20
-58.3548
11
130.888
21
-58.3896
0
LINE
8
BLACK
6
CONTINUOUS
10
130.888
20
-58.3896
11
130.695
21
-58.4607
0
LINE
8
BLACK
6
CONTINUOUS
10
130.695
20
-58.4607
11
130.518
21
-58.5657
0
LINE
8
BLACK
6
CONTINUOUS
10
130.518
20
-58.5657
11
130.364
21
-58.7012
0
LINE
8
BLACK
6
CONTINUOUS
10
130.364
20
-58.7012
11
130.237
21
-58.8626
0
LINE
8
BLACK
6
CONTINUOUS
10
130.237
20
-58.8626
11
130.141
21
-59.0444
0
LINE
8
BLACK
6
CONTINUOUS
10
130.141
20
-59.0444
11
130.08
21
-59.2407
0
LINE
8
BLACK
6
CONTINUOUS
10
130.08
20
-59.2407
11
130.056
21
-59.4447
0
LINE
8
BLACK
6
CONTINUOUS
10
130.056
20
-59.4447
11
130.069
21
-59.6497
0
LINE
8
BLACK
6
CONTINUOUS
10
130.069
20
-59.6497
11
130.12
21
-59.8489
0
LINE
8
BLACK
6
CONTINUOUS
10
167.793
20
-49.2872
11
167.856
21
-49.083
0
LINE
8
BLACK
6
CONTINUOUS
10
167.856
20
-49.083
11
167.956
21
-48.8939
0
LINE
8
BLACK
6
CONTINUOUS
10
167.956
20
-48.8939
11
168.088
21
-48.726
0
LINE
8
BLACK
6
CONTINUOUS
10
168.088
20
-48.726
11
168.249
21
-48.5851
0
LINE
8
BLACK
6
CONTINUOUS
10
168.249
20
-48.5851
11
168.433
21
-48.4758
0
LINE
8
BLACK
6
CONTINUOUS
10
168.433
20
-48.4758
11
168.633
21
-48.4018
0
LINE
8
BLACK
6
CONTINUOUS
10
168.633
20
-48.4018
11
168.844
21
-48.3656
0
LINE
8
BLACK
6
CONTINUOUS
10
168.844
20
-48.3656
11
169.057
21
-48.3684
0
LINE
8
BLACK
6
CONTINUOUS
10
169.057
20
-48.3684
11
169.267
21
-48.4101
0
LINE
8
BLACK
6
CONTINUOUS
10
169.267
20
-48.4101
11
169.466
21
-48.4893
0
LINE
8
BLACK
6
CONTINUOUS
10
169.466
20
-48.4893
11
169.646
21
-48.6034
0
LINE
8
BLACK
6
CONTINUOUS
10
169.646
20
-48.6034
11
169.803
21
-48.7485
0
LINE
8
BLACK
6
CONTINUOUS
10
169.803
20
-48.7485
11
169.931
21
-48.9197
0
LINE
8
BLACK
6
CONTINUOUS
10
169.931
20
-48.9197
11
170.026
21
-49.1114
0
LINE
8
BLACK
6
CONTINUOUS
10
170.026
20
-49.1114
11
170.084
21
-49.3171
0
LINE
8
BLACK
6
CONTINUOUS
10
170.084
20
-49.3171
11
170.103
21
-49.53
0
LINE
8
BLACK
6
CONTINUOUS
10
170.103
20
-49.53
11
170.102
21
-49.5911
0
LINE
8
BLACK
6
CONTINUOUS
10
170.102
20
-49.5911
11
170.071
21
-49.8027
0
LINE
8
BLACK
6
CONTINUOUS
10
170.071
20
-49.8027
11
170.002
21
-50.0051
0
LINE
8
BLACK
6
CONTINUOUS
10
170.002
20
-50.0051
11
169.898
21
-50.1916
0
LINE
8
BLACK
6
CONTINUOUS
10
169.898
20
-50.1916
11
169.761
21
-50.3559
0
LINE
8
BLACK
6
CONTINUOUS
10
169.761
20
-50.3559
11
169.597
21
-50.4926
0
LINE
8
BLACK
6
CONTINUOUS
10
169.597
20
-50.4926
11
169.41
21
-50.597
0
LINE
8
BLACK
6
CONTINUOUS
10
169.41
20
-50.597
11
169.208
21
-50.6657
0
LINE
8
BLACK
6
CONTINUOUS
10
169.208
20
-50.6657
11
168.997
21
-50.6964
0
LINE
8
BLACK
6
CONTINUOUS
10
168.997
20
-50.6964
11
168.783
21
-50.688
0
LINE
8
BLACK
6
CONTINUOUS
10
168.783
20
-50.688
11
168.574
21
-50.6408
0
LINE
8
BLACK
6
CONTINUOUS
10
168.574
20
-50.6408
11
168.378
21
-50.5565
0
LINE
8
BLACK
6
CONTINUOUS
10
168.378
20
-50.5565
11
168.2
21
-50.4377
0
LINE
8
BLACK
6
CONTINUOUS
10
168.2
20
-50.4377
11
168.047
21
-50.2886
0
LINE
8
BLACK
6
CONTINUOUS
10
168.047
20
-50.2886
11
167.924
21
-50.114
0
LINE
8
BLACK
6
CONTINUOUS
10
167.924
20
-50.114
11
167.834
21
-49.9199
0
LINE
8
BLACK
6
CONTINUOUS
10
167.834
20
-49.9199
11
167.782
21
-49.7127
0
LINE
8
BLACK
6
CONTINUOUS
10
167.782
20
-49.7127
11
167.768
21
-49.5006
0
LINE
8
BLACK
6
CONTINUOUS
10
167.768
20
-49.5006
11
167.768
21
-49.4994
0
LINE
8
BLACK
6
CONTINUOUS
10
167.768
20
-49.4994
11
167.793
21
-49.2872
0
LINE
8
BLACK
6
CONTINUOUS
10
167.877
20
-49.9048
11
167.963
21
-50.0914
0
LINE
8
BLACK
6
CONTINUOUS
10
167.963
20
-50.0914
11
168.082
21
-50.2592
0
LINE
8
BLACK
6
CONTINUOUS
10
168.082
20
-50.2592
11
168.229
21
-50.4026
0
LINE
8
BLACK
6
CONTINUOUS
10
168.229
20
-50.4026
11
168.4
21
-50.5167
0
LINE
8
BLACK
6
CONTINUOUS
10
168.4
20
-50.5167
11
168.588
21
-50.5978
0
LINE
8
BLACK
6
CONTINUOUS
10
168.588
20
-50.5978
11
168.789
21
-50.6432
0
LINE
8
BLACK
6
CONTINUOUS
10
168.789
20
-50.6432
11
168.994
21
-50.6513
0
LINE
8
BLACK
6
CONTINUOUS
10
168.994
20
-50.6513
11
169.198
21
-50.6218
0
LINE
8
BLACK
6
CONTINUOUS
10
169.198
20
-50.6218
11
169.392
21
-50.5557
0
LINE
8
BLACK
6
CONTINUOUS
10
169.392
20
-50.5557
11
169.571
21
-50.4553
0
LINE
8
BLACK
6
CONTINUOUS
10
169.571
20
-50.4553
11
169.729
21
-50.3239
0
LINE
8
BLACK
6
CONTINUOUS
10
169.729
20
-50.3239
11
169.861
21
-50.166
0
LINE
8
BLACK
6
CONTINUOUS
10
169.861
20
-50.166
11
169.961
21
-49.9867
0
LINE
8
BLACK
6
CONTINUOUS
10
169.961
20
-49.9867
11
170.027
21
-49.7921
0
LINE
8
BLACK
6
CONTINUOUS
10
170.027
20
-49.7921
11
170.057
21
-49.5888
0
LINE
8
BLACK
6
CONTINUOUS
10
170.057
20
-49.5888
11
170.058
21
-49.53
0
LINE
8
BLACK
6
CONTINUOUS
10
170.058
20
-49.53
11
170.039
21
-49.3254
0
LINE
8
BLACK
6
CONTINUOUS
10
170.039
20
-49.3254
11
169.984
21
-49.1276
0
LINE
8
BLACK
6
CONTINUOUS
10
169.984
20
-49.1276
11
169.893
21
-48.9433
0
LINE
8
BLACK
6
CONTINUOUS
10
169.893
20
-48.9433
11
169.77
21
-48.7787
0
LINE
8
BLACK
6
CONTINUOUS
10
169.77
20
-48.7787
11
169.619
21
-48.6392
0
LINE
8
BLACK
6
CONTINUOUS
10
169.619
20
-48.6392
11
169.445
21
-48.5296
0
LINE
8
BLACK
6
CONTINUOUS
10
169.445
20
-48.5296
11
169.254
21
-48.4534
0
LINE
8
BLACK
6
CONTINUOUS
10
169.254
20
-48.4534
11
169.053
21
-48.4134
0
LINE
8
BLACK
6
CONTINUOUS
10
169.053
20
-48.4134
11
168.847
21
-48.4107
0
LINE
8
BLACK
6
CONTINUOUS
10
168.847
20
-48.4107
11
168.645
21
-48.4455
0
LINE
8
BLACK
6
CONTINUOUS
10
168.645
20
-48.4455
11
168.452
21
-48.5166
0
LINE
8
BLACK
6
CONTINUOUS
10
168.452
20
-48.5166
11
168.275
21
-48.6216
0
LINE
8
BLACK
6
CONTINUOUS
10
168.275
20
-48.6216
11
168.121
21
-48.7571
0
LINE
8
BLACK
6
CONTINUOUS
10
168.121
20
-48.7571
11
167.994
21
-48.9185
0
LINE
8
BLACK
6
CONTINUOUS
10
167.994
20
-48.9185
11
167.898
21
-49.1003
0
LINE
8
BLACK
6
CONTINUOUS
10
167.898
20
-49.1003
11
167.837
21
-49.2966
0
LINE
8
BLACK
6
CONTINUOUS
10
167.837
20
-49.2966
11
167.813
21
-49.5006
0
LINE
8
BLACK
6
CONTINUOUS
10
167.813
20
-49.5006
11
167.826
21
-49.7056
0
LINE
8
BLACK
6
CONTINUOUS
10
167.826
20
-49.7056
11
167.877
21
-49.9048
  0
ENDSEC
  0
EOF
